<svg width="48" height="48" viewBox="0 0 48 48" fill="none" xmlns="http://www.w3.org/2000/svg"><g clip-path="url(#clip0_5730_38592)"><path d="M0 0H48V48H0V0Z" fill="#C925D1"/><path d="M24.0003 15.3779C20.6227 15.3779 16.9781 16.1782 16.9781 18.0449V29.8668C16.9781 31.8224 20.6227 32.6227 24.0003 32.6227C27.3779 32.6227 31.0226 31.8224 31.0226 29.9557V18.0449C31.0226 16.1782 27.3779 15.3779 24.0003 15.3779ZM24.0003 16.6226C27.7338 16.6226 29.7779 17.6891 29.7779 18.0449C29.7779 18.4893 27.7338 19.4669 24.0003 19.4669C20.2668 19.4669 18.2227 18.4004 18.2227 18.0449C18.2227 17.6894 20.1779 16.6226 24.0003 16.6226ZM29.7779 29.9557C29.7779 30.3116 27.7338 31.3781 24.0003 31.3781C20.2668 31.3781 18.2227 30.3116 18.2227 29.9557V27.9116C19.5558 28.7114 21.7781 28.9781 24.0003 28.9781C26.1337 28.9781 28.4448 28.6226 29.7779 27.9116V29.9557ZM29.7779 26.3114C29.7779 26.6669 27.7338 27.7338 24.0003 27.7338C20.2668 27.7338 18.2227 26.6669 18.2227 26.3114V23.9114C19.5558 24.6239 21.8669 24.9779 24.0003 24.9779C26.1337 24.9779 28.4448 24.6224 29.7779 23.9114V26.3114ZM29.7779 22.2239C29.7779 22.6683 27.7338 23.6463 24.0003 23.6463C20.2668 23.6463 18.2227 22.5794 18.2227 22.2239V19.7336C19.5558 20.4461 21.7781 20.8004 24.0003 20.7116C26.2226 20.6227 28.4448 20.3557 29.7779 19.6447V22.2239ZM14.0448 33.0671L9.24482 37.8671V33.6003H8.00019V39.3779C7.99813 39.4602 8.01283 39.5421 8.04338 39.6186C8.07393 39.695 8.11971 39.7645 8.17793 39.8227C8.23615 39.8809 8.3056 39.9267 8.38205 39.9572C8.45851 39.9878 8.54038 40.0025 8.62269 40.0004H14.4003V38.7558H10.1336L14.9336 33.9558L14.0448 33.0671ZM38.7573 37.8671L33.9573 33.0671L33.0686 33.9558L37.8686 38.7558H33.6003V40.0004H39.3779C39.4602 40.0025 39.5421 39.9878 39.6186 39.9572C39.695 39.9267 39.7645 39.8809 39.8227 39.8227C39.8809 39.7645 39.9267 39.695 39.9572 39.6186C39.9878 39.5421 40.0025 39.4602 40.0004 39.3779V33.6003H38.7558L38.7573 37.8671ZM39.3794 8.00019H33.6003V9.24482H37.8671L33.0671 14.0448L33.9558 14.9336L38.7558 10.1336V14.4003H40.0004V8.62269C40.0025 8.54038 39.9878 8.45851 39.9572 8.38205C39.9267 8.3056 39.8809 8.23615 39.8227 8.17793C39.7645 8.11971 39.695 8.07393 39.6186 8.04338C39.5421 8.01283 39.4602 7.99813 39.3779 8.00019H39.3794ZM14.4003 9.24482V8.00019H8.62269C8.54038 7.99813 8.45851 8.01283 8.38205 8.04338C8.3056 8.07393 8.23615 8.11971 8.17793 8.17793C8.11971 8.23615 8.07393 8.3056 8.04338 8.38205C8.01283 8.45851 7.99813 8.54038 8.00019 8.62269V14.4003H9.24482V10.1336L14.0448 14.9336L14.9336 14.0448L10.1336 9.24482H14.4003ZM14.5781 19.1114L14.2226 17.9561C10.3128 19.3781 8.08906 21.5114 8.08906 23.8226C8.08906 26.1337 10.3128 28.2671 14.2226 29.6891L14.6669 28.4448C11.3782 27.2002 9.33369 25.5116 9.33369 23.8226C9.24481 22.1336 11.2878 20.3557 14.5781 19.1114ZM33.5114 17.7779L33.0671 19.0226C36.6224 20.2668 38.7558 22.0447 38.7558 23.8226C38.7558 25.6004 36.6224 27.4668 33.0671 28.6226L33.5114 29.8668C37.6893 28.4448 39.9989 26.3114 39.9989 23.8226C39.9989 21.3337 37.6004 19.2003 33.5114 17.7779Z" fill="white"/></g><defs><clipPath id="clip0_5730_38592"><rect width="48" height="48" fill="white"/></clipPath></defs></svg>
