<svg width="512" height="512" viewBox="0 0 512 512" fill="none" xmlns="http://www.w3.org/2000/svg"><path fill-rule="evenodd" clip-rule="evenodd" d="M75.627 43.5L54 55.025V382.03l21.627 11.526 85.208-168.215L75.627 43.5zm65.839 59.021l31.849-48.324 142.724 68.001-33.273 5.667-141.295-25.339-.005-.005zm-24.718 235.514l35.057 51.637 164.234-75.956-31.732-5.288-167.559 29.607z" fill="#9D5025"/><path fill-rule="evenodd" clip-rule="evenodd" d="M126.006 380.884l-50.385 12.672V43.5l50.385 12.288v325.096z" fill="#F58536"/><path fill-rule="evenodd" clip-rule="evenodd" d="M99.514 30.697l26.5-14.197 49.91 224.69-49.91 179.357-26.5-14.198V30.697zM282.52 308.171l33.511 5.541 30.662-91.492-30.662-100.026-33.511 5.666v180.311z" fill="#9D5025"/><path fill-rule="evenodd" clip-rule="evenodd" d="M177.592 404.95l-51.576 15.597V16.5l51.576 15.662V404.95z" fill="#F58536"/><path fill-rule="evenodd" clip-rule="evenodd" d="M351.155 306.641l-225.134 44.824v69.082l225.139-68.128-.005-45.778zm.415-177.255L126.016 83.481V16.5L351.57 85.072v44.314z" fill="#F58536"/><path fill-rule="evenodd" clip-rule="evenodd" d="M316.035 74.246l36.188 10.697v267.474l-36.188 10.631V74.246z" fill="#F58536"/><path fill-rule="evenodd" clip-rule="evenodd" d="M458.045 183.181l-96.855 4.904-34.223-2.484 97.92-84.552 33.158 82.132z" fill="#6B3A19"/><path fill-rule="evenodd" clip-rule="evenodd" d="M326.967 185.601l97.92-5.92v-78.632l-97.92 17v67.552z" fill="#9D5025"/><path fill-rule="evenodd" clip-rule="evenodd" d="M234.814 178.988L334.043 71.83l50.445 103.527-102.855 7.005-46.819-3.374z" fill="#6B3A19"/><path fill-rule="evenodd" clip-rule="evenodd" d="M234.807 178.984l99.228-9.04V71.826l-99.228 24.895v82.263zm92.158 73.855l131.077 2.419-33.157 82.133-97.92-17.001v-67.551z" fill="#9D5025"/><path fill-rule="evenodd" clip-rule="evenodd" d="M234.807 259.459l149.674 3.692-50.446 103.461-99.228-24.829v-82.324z" fill="#9D5025"/><path fill-rule="evenodd" clip-rule="evenodd" d="M234.814 259.466l99.229 9.107 50.445-5.415-102.855-7.065-46.819 3.373zm223.236-4.202l-96.855-4.838-34.223 2.419 97.921 5.985 33.157-3.566z" fill="#FBBF93"/><path fill-rule="evenodd" clip-rule="evenodd" d="M424.889 179.685l33.157 3.5v-71.501l-33.157-10.631v78.632zm-40.405-4.328l-50.445-5.414V71.83l50.445 16.238v87.289zm40.405 83.471l33.157-3.566v71.501l-33.157 10.632v-78.567zm-40.405 4.328l-50.445 5.414v98.052l50.445-16.172v-87.294z" fill="#F58536"/><path d="M88.742 450.475l16.637 44.75H95.225l-3.282-10.12H75.11l-3.482 10.011H61.76l16.833-44.75 10.149.109zm.436 27.424l-5.663-16.408h-.143l-5.806 16.408h11.612zm27.865-15.089v4.36h.143c1.159-1.744 2.611-2.903 4.212-3.918a11.664 11.664 0 015.662-1.452c1.946.008 3.871.402 5.663 1.159 1.744.723 3.04 2.18 3.918 4.211 1.016-1.451 2.324-2.61 3.919-3.775 1.595-1.015 3.626-1.595 5.806-1.595 1.744 0 3.339.144 4.79.574 1.385.409 2.671 1.1 3.775 2.031a9.465 9.465 0 012.467 3.626c.574 1.451.872 3.339.872 5.37v21.767h-8.852v-18.44l-.144-3.04c-.143-1.016-.286-1.744-.722-2.467-.436-.723-.872-1.308-1.595-1.744-.723-.436-1.745-.574-3.041-.574-1.297 0-2.324.287-3.041.723a5.845 5.845 0 00-1.887 1.887 6.937 6.937 0 00-.872 2.611l-.287 3.04v17.998h-8.881v-21.044c0-.872-.287-1.744-.574-2.61-.287-.867-.872-1.452-1.595-1.894-.723-.441-1.744-.723-3.196-.723-.436 0-1.015.144-1.595.287-.722.144-1.308.574-2.03 1.016a7.31 7.31 0 00-1.595 2.323 9.905 9.905 0 00-.723 3.919v18.996h-8.853v-32.358h8.273l-.017-.264zm49.34 4.796c.872-1.451 2.031-2.467 3.482-3.339a13.554 13.554 0 014.791-1.744 34.083 34.083 0 015.37-.573c1.595 0 3.339.143 4.934.286 1.744.287 3.195.723 4.589 1.308 1.452.723 2.467 1.595 3.339 2.754.872 1.159 1.308 2.754 1.308 4.791v16.833c0 1.451.144 2.903.287 4.211.144 1.308.436 2.323.872 3.04h-8.996a24.229 24.229 0 01-.436-1.595c-.143-.573-.143-1.015-.286-1.594-1.452 1.451-3.041 2.467-5.078 3.04a20.323 20.323 0 01-5.949.872c-1.595 0-3.041-.143-4.361-.573a12.61 12.61 0 01-3.482-1.745c-1.015-.728-1.744-1.744-2.324-3.04-.573-1.159-.872-2.611-.872-4.36 0-1.894.287-3.339 1.016-4.498.729-1.159 1.451-2.181 2.467-2.903a9.565 9.565 0 013.482-1.595l3.919-.872c1.308-.144 2.61-.436 3.918-.436a21.828 21.828 0 003.483-.58c1.015-.287 1.744-.574 2.323-1.159.574-.436.872-1.159.872-2.031 0-1.015-.143-1.744-.436-2.323a2.858 2.858 0 00-1.308-1.308c-.585-.287-1.159-.574-1.893-.574-.723-.143-1.451-.143-2.18-.143-1.744 0-3.196.436-4.062 1.158-1.016.723-1.595 2.031-1.744 3.775h-8.795c.287-2.03.723-3.775 1.744-5.077l.006-.006zm17.555 12.479l-1.893.436c-.574.143-1.308.287-2.031.287-.723.143-1.451.143-2.18.286l-2.031.436c-.574.144-1.159.436-1.744.872a4.866 4.866 0 00-1.159 1.309c-.287.573-.436 1.158-.436 2.031 0 .722.143 1.451.436 2.03.293.58.723 1.016 1.159 1.309a4.88 4.88 0 001.744.722 9.6 9.6 0 002.031.144c1.744 0 3.041-.287 4.062-.872 1.021-.585 1.744-1.308 2.18-2.031a8.393 8.393 0 00.872-2.467c.143-.872.144-1.452.144-2.031v-3.339c-.144.436-.574.723-1.159.872l.005.006zm31.933-10.597h-15.662v-6.678h27.286v6.678l-16.833 19.013h17.998v6.678h-29.604v-6.678l16.815-19.013zm17.998 2.467c.723-2.18 1.893-3.918 3.339-5.37a16.455 16.455 0 015.226-3.482c2.031-.872 4.361-1.159 6.885-1.159a21.22 21.22 0 016.965 1.159 16.455 16.455 0 015.226 3.482c1.452 1.452 2.611 3.339 3.34 5.37a22.142 22.142 0 011.158 7.114 20.593 20.593 0 01-1.158 6.965c-.723 2.031-1.894 3.919-3.34 5.37a16.458 16.458 0 01-5.226 3.483 20.593 20.593 0 01-6.965 1.158 19.716 19.716 0 01-6.821-1.158c-2.031-.723-3.775-1.894-5.164-3.483-1.451-1.451-2.61-3.339-3.339-5.37-.729-2.031-1.159-4.498-1.159-6.965a16.342 16.342 0 011.159-7.114h-.126zm8.032 10.884c.283 1.166.723 2.29 1.308 3.339.574 1.015 1.451 1.744 2.467 2.323 1.015.58 2.323.872 3.775.872 1.451 0 2.754-.287 3.775-.872s1.893-1.308 2.467-2.323c.574-1.016 1.016-2.031 1.308-3.339.287-1.159.436-2.467.436-3.776a15.686 15.686 0 00-.436-3.775c-.287-1.308-.723-2.323-1.308-3.339a6.362 6.362 0 00-2.467-2.323c-1.015-.574-2.324-.872-3.775-.872-1.452 0-2.754.287-3.775.872s-1.744 1.451-2.467 2.323c-.574 1.016-1.016 2.031-1.308 3.339-.293 1.308-.436 2.467-.436 3.775l.436 3.776zm38.468-20.081v4.498h.143c1.159-1.893 2.61-3.195 4.36-4.062a12.408 12.408 0 015.508-1.308c2.323 0 4.36.287 5.806 1.016a8.674 8.674 0 013.626 2.759c.872 1.159 1.451 2.611 1.893 4.212.359 1.816.553 3.661.58 5.513v19.736h-8.968v-18.221c0-2.611-.436-4.59-1.308-5.95-.872-1.36-2.323-2.031-4.498-2.031-2.467 0-4.211.723-5.163 2.18-.952 1.458-1.595 3.775-1.595 7.114v16.982h-8.852v-32.357l8.468-.081zm80.492-12.277v8.273h-23.654v9.581h21.629v7.688h-21.629v11.032h24.096v8.273h-33.964v-44.646h33.522v-.201zm35.84 11.91a11.277 11.277 0 00-2.18-2.467 7.69 7.69 0 00-3.047-1.595 9.767 9.767 0 00-3.482-.579c-1.968-.05-3.916.4-5.663 1.308-1.595.872-2.753 2.031-3.775 3.482-1.021 1.452-1.595 3.041-2.031 4.934-.436 1.894-.722 3.775-.722 5.663 0 1.887.286 3.775.722 5.508.436 1.732 1.159 3.339 2.031 4.79 1.016 1.452 2.18 2.611 3.775 3.483a11.66 11.66 0 005.663 1.308c3.041 0 5.37-.872 7.114-2.754 1.744-1.882 2.754-4.211 3.041-7.258h9.581c-.287 2.754-.872 5.37-1.893 7.545-1.016 2.323-2.467 4.211-4.062 5.806a19.4 19.4 0 01-5.95 3.626 21.127 21.127 0 01-7.544 1.308c-3.483 0-6.529-.574-9.294-1.744-2.766-1.171-5.078-2.903-6.965-4.934a20.84 20.84 0 01-4.355-7.401c-1.015-2.754-1.451-5.806-1.451-9.145 0-3.339.436-6.386 1.451-9.295a22.679 22.679 0 014.36-7.544c1.894-2.18 4.212-3.775 6.965-5.077 2.754-1.159 5.806-1.894 9.295-1.894 2.467 0 4.79.287 6.964 1.016 2.175.729 4.212 1.744 5.95 3.041 1.738 1.296 3.196 3.04 4.36 5.077a17.832 17.832 0 012.18 6.885h-9.868a7.613 7.613 0 00-1.159-3.041l-.011-.052zm25.261 21.756a7.228 7.228 0 002.174 2.467c.872.573 1.893 1.158 3.196 1.451a16.54 16.54 0 003.775.436 17.75 17.75 0 002.759-.292 8.61 8.61 0 002.754-.873 6.42 6.42 0 002.175-1.744c.573-.723.872-1.595.872-2.753 0-1.159-.436-2.181-1.159-2.903-.723-.723-1.744-1.309-3.041-1.894l-4.211-1.308-4.791-1.308a28.232 28.232 0 01-4.934-1.595 16.651 16.651 0 01-4.211-2.323c-1.308-1.016-2.323-2.18-3.04-3.626-.718-1.446-1.159-3.196-1.159-5.164 0-2.323.436-4.36 1.451-5.949 1.016-1.744 2.324-3.041 3.919-4.211a14.003 14.003 0 015.37-2.467c2.031-.574 4.062-.872 5.949-.872 2.245.009 4.483.251 6.678.723 2.18.573 4.062 1.308 5.806 2.467 1.744 1.159 3.041 2.61 3.919 4.498 1.015 1.893 1.451 4.061 1.451 6.678h-9.581c-.143-1.308-.436-2.467-.872-3.339a5.079 5.079 0 00-1.893-2.031c-.735-.436-1.744-.872-2.754-1.016-1.01-.143-2.18-.287-3.339-.287-.723 0-1.595.144-2.324.287-.728.144-1.451.436-2.18.872-.728.436-1.159.872-1.595 1.595-.436.574-.573 1.452-.573 2.324 0 .872.143 1.595.436 2.18.292.585 1.015 1.015 2.031 1.451 1.015.436 2.323.872 4.061 1.308l6.885 1.744c1.177.221 2.34.513 3.483.873a19.548 19.548 0 014.354 2.03c1.452 1.016 2.754 2.181 3.775 3.919 1.016 1.595 1.595 3.626 1.595 6.242a14.676 14.676 0 01-1.159 5.663c-.723 1.744-2.031 3.339-3.482 4.497a16.758 16.758 0 01-5.806 3.041c-2.324.717-4.934 1.016-8.032 1.016a28.962 28.962 0 01-7.114-.872 16.716 16.716 0 01-6.093-2.903c-1.733-1.308-3.196-2.903-4.211-4.934a13.876 13.876 0 01-1.452-7.114h9.581c-.143 1.744 0 3.04.574 4.061l-.017-.045z" fill="#F58534"/></svg>