<svg data-name="Layer 1" xmlns="http://www.w3.org/2000/svg" width="512" height="512" viewBox="0 0 512 512"><path d="M295.86 258.98l90.58 108.32 50.41-108.57-84.58-4.94-56.41 5.19zm-79.49 0L125.79 367.3 75.38 258.73l84.58-4.94 56.41 5.19z" fill="#f2b0a9" fill-rule="evenodd"/><path d="M309.7 113.99l-53.91 11.94-53.91-11.94L256.11 16l53.6 97.99z" fill="#5e1f18" fill-rule="evenodd"/><path d="M75.38 343.37l50.41 23.93V265.84l-50.41-7.11v84.64zm220.48-84.38v85.14l90.58 23.18V265.85L295.86 259zM119 166.03v70.08l40.75 1.86 48.5-35.11-48.5-44.58-40.75 7.76zm267.43 34.91l-34.6-42.77-63.57 8.06v69.93l63.57 1.86 34.6-37.08z" fill="#8c3223"/><path d="M125.78 367.3l90.58-23.18v-85.14l-90.58 6.85v101.46zm33.97-129.33l63.57-1.81v-69.93l-63.57-7.96v79.7zm232.84-72.05l-40.75-7.76v79.85l40.75-1.86v-70.23zm-6.15 99.91V367.3l50.41-23.93v-84.64l-50.41 7.11z" fill="#e05242"/><path d="M351.84 270.71l-95.73-8.61-95.73 8.61 95.73 158.4 95.73-158.4z" fill="#f2b0a9" fill-rule="evenodd"/><path d="M351.84 270.71l-95.73 13.55V429.1l95.73-45.39v-113z" fill="#e05242" fill-rule="evenodd"/><path d="M303.98 198.07l-47.86-58.13-65.21 12.39v87.06l65.21 3.02 47.86-44.34zM256.11 16l-54.23 25.59v72.4l54.23-15.37V16zm-95.72 367.72l95.73 45.39V284.27l-95.73-13.55v113z" fill="#8c3223"/><path d="M320.69 152.27l-64.58-12.34V242.4l64.58-2.97v-87.16zM309.71 41.59L256.11 16v82.62l53.6 15.37v-72.4z" fill="#e05242" fill-rule="evenodd"/><path d="M198.03 461.82c-1.32-1.79-3.08-3.27-5.3-4.45-2.17-1.18-4.71-1.77-7.63-1.77-3.34 0-6.38.82-9.11 2.47-2.68 1.65-4.82 4-6.43 7.06-1.55 3.06-2.33 6.57-2.33 10.52s.78 7.56 2.33 10.66c1.6 3.06 3.74 5.44 6.43 7.13 2.73 1.69 5.74 2.54 9.04 2.54 2.92 0 5.48-.59 7.7-1.77 2.26-1.22 4.02-2.75 5.3-4.59v5.72h9.96v-39.12h-9.96v5.58zm-1.42 20.2c-.94 1.69-2.21 3.01-3.81 3.95-1.6.89-3.32 1.34-5.15 1.34s-3.48-.47-5.08-1.41c-1.55-.94-2.82-2.28-3.81-4.02-.94-1.79-1.41-3.86-1.41-6.21s.47-4.38 1.41-6.07c.99-1.74 2.26-3.06 3.81-3.95 1.55-.89 3.25-1.34 5.08-1.34s3.55.47 5.15 1.41c1.6.89 2.87 2.21 3.81 3.95.94 1.69 1.41 3.74 1.41 6.14s-.47 4.47-1.41 6.21zM59.93 446.01l-17.72 49.36h10.38l3.25-9.39h19.63l3.25 9.39h10.45l-17.72-49.36H59.94zm-1.41 32.05l7.13-20.62 7.13 20.62H58.52zm85.85-22.38c-2.82 0-5.46.68-7.91 2.05-2.4 1.37-4.24 3.18-5.51 5.44-1.32-2.4-3.18-4.24-5.58-5.51-2.4-1.32-5.13-1.98-8.19-1.98-2.4 0-4.61.47-6.64 1.41-1.98.94-3.6 2.24-4.87 3.88v-4.73h-9.89v39.12h9.89v-21.61c0-3.06.78-5.39 2.33-6.99 1.6-1.65 3.77-2.47 6.5-2.47s4.8.82 6.36 2.47c1.55 1.6 2.33 3.93 2.33 6.99v21.61h9.88v-21.61c0-3.06.78-5.39 2.33-6.99 1.6-1.65 3.74-2.47 6.43-2.47s4.8.82 6.35 2.47c1.55 1.6 2.33 3.93 2.33 6.99v21.61h9.88v-22.95c0-5.27-1.48-9.37-4.45-12.29-2.92-2.97-6.78-4.45-11.58-4.45zm135.29 2.47c-3.06-1.69-6.47-2.54-10.24-2.54s-7.18.85-10.24 2.54c-3.06 1.65-5.48 4-7.27 7.06-1.74 3.06-2.61 6.59-2.61 10.59s.85 7.53 2.54 10.59c1.74 3.06 4.12 5.44 7.13 7.13 3.01 1.65 6.4 2.47 10.17 2.47s7.25-.82 10.31-2.47c3.11-1.69 5.56-4.07 7.34-7.13 1.84-3.06 2.75-6.59 2.75-10.59s-.89-7.53-2.68-10.59c-1.74-3.06-4.14-5.41-7.2-7.06zm-1.69 24.01c-.94 1.74-2.21 3.06-3.81 3.95a10.25 10.25 0 01-5.01 1.27c-2.82 0-5.18-.99-7.06-2.97-1.84-2.02-2.75-4.9-2.75-8.61s.94-6.57 2.82-8.54c1.93-2.02 4.31-3.04 7.13-3.04s5.2 1.01 7.13 3.04c1.98 1.98 2.97 4.83 2.97 8.54 0 2.5-.47 4.61-1.41 6.35zm189.63-8.47c-1.46-1.88-3.2-3.3-5.23-4.24-2.02-.94-4.64-1.88-7.84-2.82-2.35-.71-4.19-1.32-5.51-1.84-1.27-.56-2.35-1.27-3.25-2.12-.85-.89-1.27-2-1.27-3.32 0-1.88.56-3.32 1.69-4.31 1.18-.99 2.73-1.48 4.66-1.48 2.21 0 3.98.56 5.3 1.69 1.37 1.08 2.1 2.47 2.19 4.17h10.87c-.33-4.43-2.1-7.86-5.3-10.31-3.15-2.49-7.27-3.74-12.36-3.74-3.39 0-6.4.59-9.04 1.77-2.64 1.13-4.68 2.78-6.14 4.94-1.46 2.16-2.19 4.71-2.19 7.63 0 3.11.71 5.6 2.12 7.48 1.46 1.84 3.18 3.22 5.15 4.17 2.02.89 4.64 1.81 7.84 2.75 2.35.66 4.19 1.27 5.51 1.84 1.36.52 2.49 1.25 3.39 2.19.89.94 1.34 2.14 1.34 3.6 0 1.79-.66 3.25-1.98 4.38-1.32 1.08-3.13 1.62-5.44 1.62s-4.05-.59-5.37-1.77c-1.27-1.18-1.98-2.78-2.12-4.8h-10.59c.05 3.01.87 5.63 2.47 7.84s3.77 3.91 6.5 5.08c2.78 1.18 5.88 1.77 9.32 1.77 3.62 0 6.76-.66 9.39-1.98 2.64-1.36 4.64-3.18 6-5.44 1.36-2.26 2.05-4.71 2.05-7.34 0-3.06-.73-5.53-2.19-7.41zm-223.7-9.46v-7.98h-28.39v8.12h17.02l-17.09 23.02v7.98h28.67v-8.12h-17.44l17.23-23.02zm153.99 31.13h9.89v-20.83h15.75v-7.84h-15.75v-12.64h20.55v-7.98H397.9v49.29zm-79.41-39.68c-2.45 0-4.71.49-6.78 1.48-2.02.94-3.7 2.26-5.01 3.95v-4.87h-9.89v39.12h9.89v-21.61c0-3.11.78-5.48 2.33-7.13 1.6-1.69 3.77-2.54 6.5-2.54s4.8.85 6.35 2.54c1.55 1.65 2.33 4.02 2.33 7.13v21.61h9.89v-22.95c0-5.27-1.44-9.37-4.31-12.29-2.87-2.97-6.64-4.45-11.3-4.45zm41.83 39.68h28.6v-8.05H370.2v-13.06h16.59v-7.84H370.2v-12.36h18.71V446h-28.6v49.36z" fill="#e05242"/></svg>