<svg data-name="Layer 1" xmlns="http://www.w3.org/2000/svg" viewBox="0 0 512 512"><g data-name="Layer 1"><path fill="#8c3123" d="M317.63 213.3l96.15-7.39V84.88l-96.15 24.99V213.3z"/><path fill="#e05243" d="M355.21 197.8l-100.2-14.53V6l100.2 50.1v141.7zm108.62 15.6l-50.05-7.25V84.88l50.05 25.04V213.4z"/><path fill="#5e1f18" d="M317.63 213.3l95.06-7.31 51.14 7.42-91.83 5.48-54.37-5.59z"/><path fill="#8c3123" d="M317.63 298.69l96.15 7.39v121.03l-96.15-24.98V298.69z"/><path fill="#e05243" d="M355.21 314.19l-100.2 14.53V506l100.2-50.1V314.19zm107.64-15.6l-50.06 7.26v121.26l50.06-25.03V298.59z"/><path fill="#f2b0a9" d="M317.63 298.69l95.06 7.31 51.14-7.41L372 293.1l-54.37 5.59z"/><path fill="#e05243" d="M193.38 213.3l-96.14-7.39V84.88l96.14 24.99V213.3z"/><path fill="#8c3123" d="M155.8 197.8L256 183.27V6L155.8 56.1v141.7zM48.17 213.4l50.05-7.25V84.88l-50.05 25.04V213.4z"/><path fill="#5e1f18" d="M194.37 213.3l-95.06-7.31-51.14 7.42 91.83 5.48 54.37-5.59z"/><path fill="#e05243" d="M193.38 298.69l-96.14 7.39v121.03l96.14-24.98V298.69z"/><path fill="#8c3123" d="M155.8 314.19L256 328.72V506l-100.2-50.1V314.19zm-107.63-15.6l50.05 7.26v121.26l-50.05-25.03V298.59z"/><path fill="#f2b0a9" d="M194.37 298.69L99.31 306l-51.14-7.41L140 293.1l54.37 5.59zm161.83 15.5L256 304.41l-100.2 9.78L256 328.88l100.2-14.69z"/><path fill="#5e1f18" d="M356.2 197.8L256 207.47l-100.2-9.67L256 183.27l100.2 14.53z"/></g></svg>