<svg width="48" height="48" viewBox="0 0 48 48" fill="none" xmlns="http://www.w3.org/2000/svg"><g clip-path="url(#clip0_5730_38577)"><path d="M0 0H48V48H0V0Z" fill="#DD344C"/><path d="M15.6448 39.6454C15.4798 39.642 15.3217 39.5787 15.2 39.4673L12.8889 36.8895C12.8 36.8007 12.8 36.534 12.8 36.4452V34.8454L11.1125 33.0675C11.0496 33.0118 10.9993 32.9434 10.9648 32.8667C10.9303 32.7901 10.9125 32.707 10.9125 32.623C10.9125 32.5389 10.9303 32.4559 10.9648 32.3792C10.9993 32.3026 11.0496 32.2342 11.1125 32.1784L12.8 30.4909V29.6895L11.1125 28.002C11.0496 27.9463 10.9993 27.8779 10.9648 27.8012C10.9303 27.7246 10.9125 27.6415 10.9125 27.5575C10.9125 27.4734 10.9303 27.3904 10.9648 27.3137C10.9993 27.2371 11.0496 27.1687 11.1125 27.1129L12.8 25.3354V23.8242C11.2865 23.2203 9.98744 22.1788 9.06906 20.8326C8.15067 19.4865 7.65469 17.8971 7.64453 16.2675C7.66476 14.1514 8.52261 12.1295 10.0303 10.6444C11.538 9.15932 13.5726 8.33212 15.6889 8.34387C17.8051 8.35563 19.8304 9.20538 21.3215 10.7071C22.8126 12.2088 23.6479 14.2402 23.6447 16.3564C23.6451 17.9653 23.1624 19.5372 22.259 20.8685C21.3556 22.1998 20.0732 23.2291 18.578 23.823V37.1562C18.5799 37.2479 18.5559 37.3383 18.5088 37.4169C18.4616 37.4956 18.3932 37.5594 18.3114 37.6009L16.0877 39.5562C15.955 39.6368 15.7983 39.6684 15.6448 39.6454ZM14.0447 36.2674L15.7322 38.1342L17.243 36.8007V23.3787C17.2317 23.2391 17.2701 23.1001 17.3514 22.9862C17.4327 22.8722 17.5518 22.7908 17.6874 22.7562C19.3735 22.205 20.7731 21.0093 21.581 19.4301C22.3889 17.8509 22.5394 16.0163 21.9998 14.3265C21.4602 12.6367 20.2742 11.2289 18.7006 10.4101C17.1269 9.59144 15.2934 9.42829 13.5999 9.95629C10.0442 11.0232 8.17741 14.8452 9.24428 18.4009C9.58022 19.4164 10.1491 20.3392 10.9055 21.0954C11.6619 21.8517 12.5848 22.4204 13.6003 22.7562C13.7291 22.8021 13.8407 22.8864 13.9201 22.9977C13.9996 23.109 14.043 23.2419 14.0447 23.3787V25.6009C14.0413 25.7657 13.9781 25.9237 13.8669 26.0453L12.4445 27.5562L13.8669 28.9785C13.9781 29.1002 14.0413 29.2581 14.0447 29.4229V30.7564C14.0413 30.9212 13.9781 31.0792 13.8669 31.2008L12.4445 32.6232L13.8669 34.134C13.9781 34.2557 14.0413 34.4136 14.0447 34.5784V36.2674ZM15.6448 16.9785C15.263 16.9808 14.8848 16.9058 14.5328 16.7581C14.1808 16.6104 13.8623 16.3929 13.5965 16.1189C13.3308 15.8449 13.1232 15.5199 12.9863 15.1635C12.8494 14.8072 12.7861 14.4268 12.8 14.0453C12.7876 13.6684 12.8527 13.2929 12.9913 12.9422C13.1298 12.5914 13.3389 12.2729 13.6056 12.0062C13.8723 11.7396 14.1909 11.5305 14.5416 11.392C14.8924 11.2535 15.2679 11.1884 15.6448 11.2009C16.4069 11.2026 17.1387 11.5001 17.6859 12.0307C18.233 12.5613 18.5529 13.2835 18.578 14.0453C18.6669 15.6454 17.3334 16.8897 15.6448 16.9785ZM15.6448 12.4452C15.3283 12.4451 15.0189 12.5389 14.7557 12.7147C14.4925 12.8904 14.2874 13.1403 14.1662 13.4327C14.045 13.7251 14.0133 14.0468 14.075 14.3572C14.1367 14.6676 14.289 14.9528 14.5128 15.1766C14.7366 15.4004 15.0217 15.5529 15.3321 15.6146C15.6425 15.6764 15.9643 15.6447 16.2567 15.5237C16.5491 15.4026 16.799 15.1975 16.9748 14.9343C17.1507 14.6712 17.2445 14.3618 17.2445 14.0453C17.2454 13.8349 17.2047 13.6265 17.1246 13.432C17.0445 13.2375 16.9267 13.0607 16.778 12.912C16.6293 12.7632 16.4526 12.6454 16.2581 12.5653C16.0636 12.4851 15.8551 12.4443 15.6448 12.4452ZM39.1127 35.2009H19.8223V33.9563H39.0223V19.8229H24.9778V18.5787H39.1127C39.427 18.5809 39.729 18.7007 39.9594 18.9146C40.1898 19.1284 40.3317 19.4208 40.3573 19.734V34.0452C40.3516 34.2028 40.3148 34.3578 40.2492 34.5012C40.1835 34.6447 40.0902 34.7738 39.9746 34.8811C39.859 34.9885 39.7234 35.072 39.5755 35.1268C39.4276 35.1817 39.2703 35.2069 39.1127 35.2009ZM22.0445 29.1563C21.7086 29.1618 21.3751 29.0982 21.0647 28.9695C20.7543 28.8407 20.4738 28.6496 20.2404 28.4079C20.007 28.1661 19.8258 27.879 19.708 27.5643C19.5902 27.2496 19.5383 26.9141 19.5557 26.5785C19.6445 25.1562 20.7114 24.0008 22.0445 24.0008C22.7233 24.0162 23.3701 24.2928 23.8502 24.7729C24.3303 25.253 24.6068 25.8997 24.6223 26.5785C24.6219 27.2621 24.3502 27.9175 23.8668 28.4008C23.3835 28.8842 22.7281 29.1559 22.0445 29.1563ZM22.0445 25.2454C21.8731 25.244 21.7032 25.2782 21.5457 25.3458C21.3881 25.4135 21.2464 25.5132 21.1294 25.6385C21.0124 25.7638 20.9227 25.9121 20.8661 26.074C20.8094 26.2358 20.787 26.4076 20.8003 26.5785C20.7887 26.7449 20.8129 26.9119 20.8713 27.0681C20.9297 27.2244 21.021 27.3663 21.1389 27.4843C21.2568 27.6022 21.3987 27.6935 21.5549 27.752C21.7112 27.8105 21.8781 27.8347 22.0445 27.8232C22.3822 27.8201 22.7064 27.6905 22.9533 27.4601C23.2001 27.2297 23.3517 26.9152 23.378 26.5785C23.4669 25.8675 22.8448 25.3343 22.0445 25.2454ZM28.4447 29.1563C28.1087 29.1619 27.7751 29.0983 27.4648 28.9696C27.1544 28.8409 26.8738 28.6497 26.6404 28.408C26.407 28.1662 26.2257 27.8791 26.108 27.5644C25.9902 27.2497 25.9384 26.9141 25.9558 26.5785C26.0447 25.1562 27.1127 24.0008 28.4447 24.0008C29.1235 24.0162 29.7702 24.2928 30.2503 24.7729C30.7304 25.253 31.0069 25.8997 31.0224 26.5785C31.0219 27.2621 30.7502 27.9174 30.2669 28.4007C29.7835 28.8841 29.1282 29.1558 28.4447 29.1563ZM28.4447 25.2454C28.2732 25.2439 28.1033 25.2781 27.9457 25.3457C27.7881 25.4134 27.6463 25.513 27.5293 25.6384C27.4122 25.7637 27.3226 25.912 27.2659 26.0739C27.2092 26.2357 27.1868 26.4076 27.2 26.5785C27.1885 26.745 27.2127 26.9119 27.2712 27.0682C27.3297 27.2244 27.421 27.3663 27.5389 27.4843C27.6569 27.6022 27.7988 27.6935 27.955 27.752C28.1113 27.8104 28.2782 27.8347 28.4447 27.8232C28.7822 27.82 29.1064 27.6904 29.3532 27.46C29.5999 27.2296 29.7514 26.9151 29.7778 26.5785C29.8667 25.8675 29.2445 25.3343 28.4447 25.2454ZM19.8223 30.7579H24.3557V32.0022H19.8223V30.7579ZM26.2224 30.7579H30.7558V32.0022H26.2224V30.7579ZM32.6225 30.7579H37.1555V32.0022H32.6225V30.7579Z" fill="white"/></g><defs><clipPath id="clip0_5730_38577"><rect width="48" height="48" fill="white"/></clipPath></defs></svg>
