<svg width="48" height="48" viewBox="0 0 48 48" fill="none" xmlns="http://www.w3.org/2000/svg"><g clip-path="url(#clip0_5730_38567)"><path d="M0 0H48V48H0V0Z" fill="#8C4FFF"/><path d="M28.0009 40.1797C27.8756 40.1929 27.7497 40.1614 27.6454 40.0908L24.0008 37.9575L20.3562 40.0893C20.2583 40.1333 20.1523 40.156 20.0451 40.156C19.9379 40.156 19.8318 40.1333 19.734 40.0893L12.1785 35.4686C12.0827 35.4125 12.0008 35.3354 11.9392 35.243C11.8776 35.1506 11.8379 35.0454 11.823 34.9353V30.3131L8.35616 28.3575C8.2497 28.2916 8.1614 28.2003 8.09931 28.0916C8.03721 27.9829 8.0033 27.8605 8.00066 27.7353V20.2683C7.99505 20.1416 8.02547 20.0159 8.08839 19.9058C8.15131 19.7957 8.24416 19.7057 8.35616 19.6462L11.823 17.6906V13.0683C11.8274 12.9436 11.8621 12.8218 11.924 12.7134C11.986 12.605 12.0733 12.5133 12.1785 12.4462L19.734 7.91433C19.8318 7.87038 19.9379 7.84766 20.0451 7.84766C20.1523 7.84766 20.2583 7.87038 20.3562 7.91433L24.0008 10.0462L27.6454 7.91433C27.7432 7.87038 27.8492 7.84766 27.9565 7.84766C28.0637 7.84766 28.1697 7.87038 28.2675 7.91433L35.823 12.5351C35.9295 12.6009 36.0178 12.6923 36.0799 12.8009C36.142 12.9096 36.1759 13.0321 36.1785 13.1572V17.6906L39.6454 19.7351C39.7413 19.7911 39.8231 19.8683 39.8847 19.9607C39.9463 20.0531 39.9861 20.1583 40.0009 20.2683V27.8242C40.0065 27.9509 39.9761 28.0766 39.9132 28.1867C39.8502 28.2968 39.7574 28.3868 39.6454 28.4463L36.1785 30.402V35.0242C36.1937 35.141 36.1661 35.2594 36.1007 35.3575C36.0354 35.4555 35.9367 35.5265 35.823 35.5575L28.2675 40.1797C28.1787 40.0893 28.0883 40.1797 28.0009 40.1797ZM24.6229 36.8017L28.0009 38.7573L34.8454 34.5795V29.9572C34.8398 29.8305 34.8702 29.7048 34.9331 29.5947C34.9961 29.4846 35.0889 29.3946 35.2009 29.3351L38.0453 27.7353L35.6453 26.4907C35.3728 26.728 35.0361 26.8792 34.6776 26.9251C34.3192 26.9711 33.9553 26.9097 33.6317 26.7488C33.3082 26.5879 33.0397 26.3346 32.8601 26.0211C32.6804 25.7075 32.5979 25.3478 32.6227 24.9873C32.6476 24.6268 32.7788 24.2818 32.9997 23.9958C33.2206 23.7099 33.5214 23.4959 33.864 23.3809C34.2065 23.266 34.5755 23.2551 34.9242 23.3498C35.2729 23.4445 35.5857 23.6405 35.823 23.913C36.0997 24.2699 36.2553 24.7058 36.2674 25.1572V25.4242L38.7563 26.7573V20.6242L35.2009 18.6686C35.0944 18.6027 35.0061 18.5113 34.944 18.4025C34.8819 18.2938 34.848 18.1713 34.8454 18.0461V16.3586H33.0675C32.9969 16.5881 32.8788 16.8002 32.7207 16.9811C32.5626 17.1619 32.3682 17.3073 32.1501 17.408C31.9321 17.5086 31.6953 17.5621 31.4551 17.5651C31.215 17.568 30.9769 17.5203 30.7564 17.4251C29.8673 16.9807 29.2452 16.0031 29.6007 15.0251C29.678 14.7901 29.8038 14.5739 29.9697 14.3905C30.1357 14.207 30.3382 14.0604 30.5643 13.9599C30.7903 13.8594 31.0349 13.8074 31.2823 13.8072C31.5297 13.807 31.7744 13.8585 32.0007 13.9586C32.2524 14.0351 32.4814 14.1724 32.6674 14.3584C32.8535 14.5444 32.9909 14.7734 33.0675 15.0251H34.845V13.4242L28.0009 9.24633L24.6229 11.202V18.2242L28.2675 20.2683C28.458 20.1282 28.6751 20.0283 28.9054 19.9747C29.1358 19.9211 29.3746 19.9149 29.6074 19.9565C29.8402 19.9981 30.0622 20.0866 30.2597 20.2167C30.4572 20.3468 30.6262 20.5156 30.7564 20.7131C31.2897 21.513 31.2008 22.6683 30.4009 23.202C30.0043 23.4748 29.52 23.5896 29.043 23.5237C28.5661 23.4579 28.131 23.2162 27.8232 22.8461C27.5874 22.541 27.462 22.1651 27.4673 21.7796C27.4613 21.6265 27.4917 21.4742 27.5562 21.3352L23.6453 19.2018C23.4675 19.113 23.2898 18.8463 23.3787 18.6686V11.202L20.0007 9.24633L16.9785 11.1131V15.6461H15.645V11.913L13.1562 13.5131V17.6906L16.3564 19.5573L19.5563 17.6906V14.4907H20.8009V18.1353C20.8161 18.2522 20.7884 18.3706 20.723 18.4687C20.6575 18.5667 20.5588 18.6377 20.445 18.6686L16.9785 20.7131V23.7352L20.445 26.0463C20.541 26.1023 20.623 26.1794 20.6846 26.2718C20.7463 26.3642 20.7861 26.4695 20.8009 26.5796V28.713L23.3787 27.2017V24.5351L20.0007 22.4017L20.6232 21.3352L24.3563 23.4686C24.4647 23.5267 24.5501 23.6199 24.5986 23.7329C24.647 23.846 24.6556 23.9721 24.6229 24.0907V32.3572H27.5562C27.6415 32.128 27.7718 31.9181 27.9394 31.7399C28.1069 31.5617 28.3084 31.4187 28.5319 31.3193C28.7555 31.22 28.9966 31.1663 29.2411 31.1614C29.4857 31.1565 29.7288 31.2004 29.9562 31.2907C30.3177 31.4284 30.6297 31.6715 30.8516 31.9885C31.0735 32.3054 31.1951 32.6817 31.2008 33.0686C31.1829 33.3157 31.1152 33.5567 31.0015 33.777C30.8879 33.9972 30.7307 34.1921 30.5396 34.3498C30.3485 34.5076 30.1274 34.6249 29.8896 34.6947C29.6518 34.7646 29.4024 34.7854 29.1563 34.7561C28.8225 34.7232 28.502 34.6087 28.223 34.4227C27.9439 34.2367 27.7149 33.985 27.5562 33.6896H24.6229V36.8021V36.8017ZM17.334 37.1572L20.0007 38.7573L23.4675 36.7143V28.6241L16.2675 32.802L15.6454 31.7351L19.5563 29.424V26.8462L16.3564 24.8017L12.8007 26.7573L12.1785 25.602L15.7343 23.5575V20.5353L12.534 18.7575L9.33416 20.5353V22.8465L12.0897 21.2463L12.7133 22.3143L9.33566 24.3588V27.2906L12.5355 29.1573L15.8247 27.2017L16.4468 28.2686L13.1577 30.2242V34.5795L16.0883 36.3573L19.377 34.4017H19.5548L20.2673 35.4686L17.334 37.1572ZM29.334 32.3572C28.9785 32.3572 28.8008 32.6242 28.7119 32.9797C28.623 33.3352 28.9785 33.5129 29.334 33.5129C29.4049 33.5159 29.4755 33.5042 29.5416 33.4784C29.6076 33.4527 29.6676 33.4135 29.7177 33.3634C29.7678 33.3132 29.807 33.2533 29.8327 33.1872C29.8585 33.1212 29.8702 33.0505 29.8673 32.9797C29.8298 32.843 29.7626 32.7164 29.6704 32.6087C29.5782 32.5011 29.4633 32.4152 29.334 32.3572ZM34.4007 24.5351C34.3298 24.5321 34.2592 24.5439 34.1931 24.5696C34.1271 24.5954 34.0671 24.6345 34.017 24.6847C33.9669 24.7348 33.9277 24.7948 33.9019 24.8608C33.8762 24.9268 33.8644 24.9975 33.8674 25.0683C33.8878 25.2121 33.9488 25.3471 34.0433 25.4573C34.1377 25.5676 34.2617 25.6486 34.4007 25.6908C34.6673 25.7797 34.9343 25.4242 35.0232 25.0683C35.112 24.7125 34.7562 24.5351 34.4007 24.5351ZM29.334 21.1575C28.9785 21.1575 28.8008 21.4241 28.7119 21.7796C28.623 22.1351 28.9785 22.3128 29.334 22.3128C29.4049 22.3158 29.4755 22.304 29.5416 22.2783C29.6076 22.2525 29.6676 22.2134 29.7177 22.1632C29.7678 22.1131 29.807 22.0531 29.8327 21.9871C29.8585 21.9211 29.8702 21.8504 29.8673 21.7796C29.8299 21.6429 29.7626 21.5163 29.6704 21.4087C29.5782 21.3011 29.4633 21.2153 29.334 21.1575ZM31.3785 15.1143C31.2301 15.121 31.0883 15.1772 30.9755 15.2739C30.8628 15.3707 30.7856 15.5023 30.7564 15.648C30.6675 15.9146 31.023 16.1812 31.3785 16.2701C31.734 16.359 31.9118 16.0035 31.9118 15.648C31.9148 15.5771 31.9031 15.5064 31.8774 15.4403C31.8516 15.3742 31.8125 15.3142 31.7623 15.264C31.7122 15.2139 31.6522 15.1747 31.5861 15.1489C31.5201 15.1231 31.4494 15.1114 31.3785 15.1143Z" fill="white"/></g><defs><clipPath id="clip0_5730_38567"><rect width="48" height="48" fill="white"/></clipPath></defs></svg>
