<svg width="512" height="512" viewBox="0 0 512 512" fill="none" xmlns="http://www.w3.org/2000/svg"><g clip-path="url(#clip0_5245_6297)"><path d="M0 0h512v512H0V0z" fill="#7AA116"/><path fill-rule="evenodd" clip-rule="evenodd" d="M334.361 258.317a73.504 73.504 0 01-1.468 28.656 73.496 73.496 0 01-33.646 45.121 73.495 73.495 0 01-27.046 9.583 75.37 75.37 0 01-10.76.76 73.521 73.521 0 01-73.44-73.04h12.8a60.711 60.711 0 0029.154 51.339 60.729 60.729 0 0058.995 2.3 60.726 60.726 0 0027.986-78.987 60.726 60.726 0 00-19.055-23.812c-22.8-16.96-56.28-14.52-78.16 3.72h10.68v12.8h-25.6a6.399 6.399 0 01-6.4-6.4v-25.48h12.8v9.6a79.478 79.478 0 0138.2-17.48 74.118 74.118 0 0156 13 72.97 72.97 0 0128.84 48.32m11.36 112.88a32.29 32.29 0 00-8.72 1.2l-18.16-24.4-10.24 8 16.84 22.48a30.759 30.759 0 00-11.12 18.48h-116.32a29.124 29.124 0 00-10.76-18.92l16.4-22.04-10.24-8-18 24a38.848 38.848 0 00-8.88-1.08 40.545 40.545 0 00-8 .8l-37.04-124.16a27.086 27.086 0 0013.48-9.84l29.16 11.44 4.64-12-28.64-11.24a39.33 39.33 0 00.92-8.32 34.442 34.442 0 00-4.92-18.04l96.64-67.56a30.121 30.121 0 0016.96 8.24v32.56h12.8v-32.56a29.724 29.724 0 0017.04-8l96 68a34.114 34.114 0 00-4.24 17.36 32.336 32.336 0 001.04 8l-29 11.6 4.72 12 29.72-12a29.799 29.799 0 0016.68 11.16l-46.84 123h-1.92m0 51.2c-12.56 0-19.2-6.64-19.2-19.2a19.031 19.031 0 015.518-13.728 19.041 19.041 0 0113.682-5.632c12.36 0 19.2 6.8 19.2 19.2 0 12.4-6.64 19.2-19.2 19.2m-179.2 0c-12.2 0-19.2-7-19.2-19.2s6.8-19.2 19.2-19.2c16 0 19.2 10.4 19.2 19.16 0 12.36-6.84 19.2-19.2 19.2m-76.8-204.76c0-12.4 6.8-19.2 19.2-19.2 12.4 0 19.2 6.8 19.2 19.2 0 12.4-6.64 19.2-19.2 19.2-12.56 0-19.2-6.48-19.2-19.2zm166.4-128c12.56 0 19.2 6.64 19.2 19.2 0 12.56-6.64 19.2-19.2 19.2-12.56 0-19.2-6.8-19.2-19.16s6.8-19.2 19.2-19.2m147.2 108.8c12.36 0 19.2 6.8 19.2 19.2 0 12.4-6.84 19.2-19.2 19.2a18.792 18.792 0 01-13.713-5.516 18.8 18.8 0 01-5.487-13.724c0-12 7-19.2 19.2-19.2m32 19.2c0-19.44-12.56-32-32-32a33.483 33.483 0 00-18.76 5.28l-98.4-69.8a38.213 38.213 0 001.96-12.28c0-19.72-12.28-32-32-32s-32 12.56-32 32c-.026 4.15.65 8.275 2 12.2l-99.04 69.36a34.2 34.2 0 00-18.16-4.76c-19.44 0-32 12.56-32 32 0 19.44 12.2 32 32 32l38.16 127.4a30.67 30.67 0 00-12.36 26.2c0 19.44 12.56 32 32 32 17.2 0 28.96-9.88 31.48-25.6h116.04c2.52 15.72 14.28 25.6 31.48 25.6 19.44 0 32-12.56 32-32 0-13.96-6.56-24.28-17.44-29.04l47.6-124.92c16.76-1.88 27.44-13.8 27.44-31.64z" fill="#fff"/></g><defs><clipPath id="clip0_5245_6297"><path fill="#fff" d="M0 0h512v512H0z"/></clipPath></defs></svg>