<svg width="48" height="48" viewBox="0 0 48 48" fill="none" xmlns="http://www.w3.org/2000/svg"><g clip-path="url(#clip0_5730_38583)"><path d="M0 0H48V48H0V0Z" fill="#8C4FFF"/><path d="M39.1349 34.843L36.2017 31.9109C37.3539 30.1548 38.1341 28.1812 38.4942 26.112C38.8544 24.0427 38.7868 21.9216 38.2956 19.8795C37.8045 17.8373 36.9002 15.9174 35.6386 14.2382C34.3769 12.559 32.7846 11.156 30.9599 10.1159C29.1352 9.07567 27.1167 8.42032 25.029 8.19022C22.9413 7.96011 20.8286 8.16014 18.8211 8.77795C16.8137 9.39576 14.954 10.4183 13.357 11.7824C11.7599 13.1465 10.4592 14.8234 9.53506 16.7095L10.6904 17.2428C11.4962 15.4628 12.6624 13.8692 14.1152 12.5627C15.568 11.2562 17.2759 10.2651 19.1312 9.65198C20.9864 9.0389 22.9486 8.81714 24.8938 9.00072C26.8391 9.1843 28.7251 9.76922 30.4329 10.7186C32.1406 11.6679 33.633 12.961 34.8157 14.5163C35.9985 16.0715 36.8459 17.8551 37.3045 19.7544C37.7631 21.6537 37.8229 23.6275 37.4801 25.5511C37.1373 27.4747 36.3994 29.3063 35.3129 30.9303L32.8241 28.5303C34.0343 26.0347 34.2094 23.162 33.3114 20.5378C32.4133 17.9136 30.5148 15.7506 28.0293 14.5198C25.5438 13.2889 22.6726 13.09 20.0411 13.9663C17.4096 14.8426 15.2309 16.7232 13.9796 19.1984C13.833 19.5134 13.7141 19.8405 13.6241 20.176H9.35731V21.4207H13.1793C13.0904 22.0428 13.0016 22.6649 12.9127 23.3763H8.02344V24.6205H13.0016C13.0847 25.2784 13.2034 25.9312 13.3571 26.5762H9.35731V27.8208H13.8018C14.8992 30.3795 16.9611 32.4025 19.5403 33.4508C22.1195 34.4991 25.008 34.4883 27.5793 33.4207C27.919 33.2687 28.246 33.0898 28.5573 32.8859L30.9573 35.2859C27.8497 37.2748 24.0844 37.9609 20.475 37.1961C16.8656 36.4312 13.7022 34.2768 11.6684 31.1984L10.6016 31.9109C12.8629 35.2818 16.3653 37.6219 20.345 38.4209C24.3247 39.2199 28.4589 38.413 31.8461 36.1762L34.7793 39.1094C35.0437 39.3896 35.3607 39.615 35.7122 39.7726C36.0637 39.9303 36.4428 40.0172 36.8278 40.0283C37.2129 40.0395 37.5964 39.9746 37.9564 39.8376C38.3164 39.7005 38.6459 39.4938 38.9261 39.2294C38.9673 39.1909 39.0073 39.1509 39.0461 39.1094C39.6226 38.5549 39.9557 37.7944 39.9723 36.9946C39.989 36.1948 39.6878 35.4211 39.1349 34.843ZM23.4907 32.9763C21.0467 32.9527 18.7116 31.9622 16.9959 30.2216C15.2803 28.4809 14.3237 26.1316 14.3355 23.6876C14.3473 21.2436 15.3265 18.9037 17.0589 17.1796C18.7913 15.4556 21.1359 14.4877 23.5799 14.4877C26.024 14.4877 28.3686 15.4556 30.101 17.1796C31.8334 18.9037 32.8125 21.2436 32.8243 23.6876C32.8361 26.1316 31.8796 28.4809 30.1639 30.2216C28.4483 31.9622 26.1131 32.9527 23.6692 32.9763H23.4907ZM38.2462 38.1318C37.9256 38.4696 37.4853 38.6682 37.0199 38.6848C36.5545 38.7014 36.1011 38.5348 35.7573 38.2207L29.7127 32.176C30.656 31.4623 31.4681 30.5901 32.1127 29.5983L38.2462 35.7318C38.546 36.0595 38.7123 36.4876 38.7123 36.9318C38.7123 37.376 38.546 37.8041 38.2462 38.1318ZM28.2018 23.1985L28.6462 19.9983V19.8205C28.6462 18.3097 25.3571 17.776 23.2241 17.776C21.0911 17.776 17.8016 18.3097 17.7116 19.8205V19.9983L18.8684 27.9985C18.9573 29.5983 22.7793 29.686 23.2241 29.5983C24.0611 29.6044 24.8962 29.5149 25.7129 29.3317C25.9558 29.2966 26.1945 29.2371 26.4254 29.1539C27.1379 28.8873 27.4919 28.5318 27.5808 27.9985L27.8478 25.5097C28.0541 25.54 28.2637 25.54 28.4699 25.5097C28.6366 25.5413 28.8088 25.5245 28.9663 25.4615C29.1237 25.3984 29.2599 25.2917 29.3587 25.1538C29.4562 24.9619 29.4874 24.7432 29.4476 24.5317C29.1124 24.0192 28.6915 23.5682 28.2033 23.1985H28.2018ZM26.7794 23.911C25.8593 23.4999 24.9407 23.085 24.0239 22.6664C23.9986 22.5525 23.951 22.4447 23.8839 22.3491C23.8169 22.2536 23.7317 22.1722 23.6331 22.1096C23.5346 22.047 23.4248 22.0044 23.3098 21.9842C23.1948 21.9641 23.077 21.9668 22.9631 21.9922C22.8491 22.0176 22.7413 22.0651 22.6458 22.1322C22.5502 22.1992 22.4688 22.2845 22.4062 22.383C22.3436 22.4815 22.301 22.5914 22.2809 22.7063C22.2607 22.8213 22.2634 22.9391 22.2888 23.053C22.2999 23.1033 22.3153 23.1525 22.3349 23.2C22.3727 23.3897 22.4713 23.5618 22.6157 23.6904C22.7601 23.8189 22.9425 23.8969 23.1352 23.9125C23.2605 23.9257 23.3863 23.8942 23.4907 23.8237C24.4994 24.3324 25.539 24.7776 26.6032 25.1568L26.2477 27.8238C26.179 27.9089 26.086 27.9709 25.9811 28.0015C25.8033 28.0904 25.5367 28.0904 25.2686 28.1793C24.5664 28.3286 23.8528 28.4178 23.1356 28.4459C22.062 28.5069 20.9907 28.2928 20.0231 27.8238L19.1343 21.157C21.7542 21.8628 24.5143 21.8628 27.1342 21.157L26.7794 23.911ZM23.2241 20.4445C21.8261 20.5047 20.4317 20.2617 19.1366 19.732C20.4218 19.1688 21.8241 18.9243 23.2241 19.0195C24.5948 18.9383 25.9654 19.1825 27.2238 19.732C25.9558 20.2489 24.5926 20.4913 23.2241 20.443V20.4445Z" fill="white"/></g><defs><clipPath id="clip0_5730_38583"><rect width="48" height="48" fill="white"/></clipPath></defs></svg>
