<svg width="512" height="512" viewBox="0 0 512 512" fill="none" xmlns="http://www.w3.org/2000/svg"><path d="M256.506 500.056h-5.029L44.04 379.287a10.568 10.568 0 01-5.029-8.806V131.46a9.44 9.44 0 015.029-8.807L233.876 11.949a10.682 10.682 0 018.8 0 10.568 10.568 0 015.029 8.806v104.414a6.92 6.92 0 01-5.029 7.549l-94.289 55.352v125.801l108.119 62.9 95.546-54.094a10.685 10.685 0 018.801 0l90.517 51.578c5.029 2.516 5.029 7.549 3.772 12.581-1.257 1.258-1.257 2.516-3.772 3.774L261.534 500.056c-1.257 1.258-2.514 1.258-5.028 0zM57.869 366.707l198.637 114.479 172.235-99.382-72.917-41.515-94.29 54.095a13.82 13.82 0 01-10.057 0l-116.919-67.933a10.317 10.317 0 01-5.029-7.548V183.038a9.436 9.436 0 015.029-8.806l94.289-55.353V35.851L57.869 135.234v231.473zm407.331-7.548a9.544 9.544 0 01-5.029-1.258l-90.518-51.578a10.564 10.564 0 01-5.029-8.806V188.07l-94.289-54.094a10.575 10.575 0 01-5.029-8.807V22.013a9.436 9.436 0 015.029-8.806 10.675 10.675 0 018.8 0l189.836 109.446A10.564 10.564 0 01474 131.46v220.151c0 5.032-3.772 7.548-8.8 7.548zm-81.718-65.416l71.66 41.514V135.234L284.164 37.109v83.028l94.289 54.095a10.57 10.57 0 015.029 8.806v110.705zm-172.235 25.16V183.038h17.6v61.642l59.088-61.642h23.887l-61.602 66.674 66.631 69.191h-23.887l-64.117-62.9v62.9h-17.6z" fill="#ED7100"/></svg>