<svg width="48" height="48" viewBox="0 0 48 48" fill="none" xmlns="http://www.w3.org/2000/svg"><g clip-path="url(#clip0_5730_38574)"><path d="M0 0H48V48H0V0Z" fill="#DD344C"/><path d="M31.2011 32.0898L32.0898 31.2011L39.8235 38.9343L38.9343 39.8235L31.2011 32.0898ZM8.17872 9.06784L9.06784 8.17872L17.601 16.6233L16.6233 17.5136L8.17872 9.06784ZM10.1343 36.9787L14.5788 32.5346L15.4676 33.4233L11.0235 37.8678L10.1343 36.9787ZM32.5346 14.5788L36.9787 10.1343L37.8678 11.0235L33.4233 15.4676L32.5346 14.5788ZM40.0012 23.379V24.6232H38.7566C38.6559 27.505 37.6964 30.2909 36.0011 32.6235L34.9346 31.911C36.4644 29.7797 37.3303 27.2439 37.4235 24.6221H36.1788V23.379H37.4235C37.3306 20.7566 36.4647 18.2203 34.9346 16.0886L36.0011 15.3787C37.6964 17.7113 38.6559 20.4972 38.7566 23.379H40.0012ZM32.6235 12.0915L31.911 13.158C29.7797 11.6282 27.2439 10.7623 24.6221 10.6691V11.9137H23.379V10.6676C20.7566 10.7605 18.2203 11.6264 16.0886 13.1565L15.3761 12.09C17.7086 10.3947 20.4946 9.43513 23.3763 9.33447V8.08984H24.6206V9.33447C27.5033 9.43461 30.2902 10.3942 32.6235 12.09V12.0915ZM32.6235 36.0026C30.2909 37.6979 27.505 38.6574 24.6232 38.7581V40.0027H23.379V38.7581C20.497 38.657 17.7111 37.6969 15.3787 36.0011L16.0912 34.9346C18.2225 36.4644 20.7583 37.3303 23.3801 37.4235V36.1788H24.6243V37.4235C27.2463 37.3303 29.7822 36.4645 31.9136 34.9346L32.6235 36.0026ZM10.5787 24.6232C10.6716 27.2455 11.5375 29.7819 13.0676 31.9136L12.09 32.6261C10.3947 30.2936 9.43513 27.5076 9.33447 24.6258H8.08984V23.379H9.33447C9.43513 20.4972 10.3947 17.7113 12.09 15.3787L13.1565 16.0912C11.6267 18.2225 10.7608 20.7583 10.6676 23.3801H11.9122V24.6243L10.5787 24.6232ZM29.7787 20.001C29.6811 19.9565 29.575 19.9334 29.4677 19.9334C29.3603 19.9334 29.2543 19.9565 29.1566 20.001C28.9788 20.0898 28.8011 20.2676 28.89 20.4457L28.7122 21.6011C28.5525 20.0565 27.9931 18.5801 27.089 17.3176C26.185 16.055 24.9676 15.0498 23.5567 14.4011C22.6847 13.7715 21.6822 13.3461 20.6235 13.1565C20.4591 13.1255 20.2891 13.153 20.143 13.2342C19.9968 13.3154 19.8837 13.4453 19.8232 13.6012C19.7343 13.779 19.9121 14.0456 20.001 14.2233C20.6576 14.8755 21.1462 15.6771 21.4249 16.5596C21.7036 17.4421 21.7641 18.379 21.6011 19.29C20.8012 18.3123 19.6455 17.1566 18.2235 17.1566C18.1212 17.1632 18.0214 17.1902 17.9297 17.236C17.8381 17.2818 17.7565 17.3454 17.6898 17.4232C17.6461 17.5053 17.6232 17.5968 17.6232 17.6898C17.6232 17.7828 17.6461 17.8744 17.6898 17.9565C18.0453 18.9345 18.7567 21.69 17.6898 23.469C17.601 23.5578 17.601 23.6467 17.5121 23.7356C16.7918 25.0144 16.5748 26.5161 16.9037 27.9465C17.2325 29.3769 18.0835 30.633 19.29 31.4688C20.5777 32.2906 21.9476 32.9758 23.3775 33.5133C23.4663 33.5133 23.4663 33.6022 23.5552 33.5133H23.6441C24.4455 33.4233 30.3123 32.7123 31.4677 28.0886C33.1567 21.8677 29.9565 20.001 29.7787 20.001ZM22.5787 31.9136C21.666 31.5426 20.8006 31.0642 20.001 30.4886C19.0497 29.8412 18.3819 28.8547 18.134 27.731C17.8862 26.6074 18.0772 25.4315 18.6678 24.444L18.7567 24.1773C19.8232 22.4898 19.5566 20.1772 19.2011 18.8441C19.9975 19.5046 20.6872 20.2842 21.2456 21.1552C21.3055 21.3076 21.423 21.4304 21.5727 21.4969C21.7223 21.5634 21.8922 21.5684 22.0455 21.5107C22.1343 21.4218 22.3121 21.333 22.401 21.1552C22.7905 20.1746 22.9757 19.1248 22.9451 18.0701C22.9145 17.0154 22.6689 15.9781 22.2232 15.0217C23.0594 15.4717 23.7177 16.1927 24.09 17.0662C24.9787 18.933 24.8025 21.5107 23.5567 23.8218C22.304 26.3246 21.9584 29.1844 22.5787 31.9136ZM30.3123 27.8261C29.5136 31.1122 25.4235 32.001 24.0011 32.2676C23.6456 31.0233 22.9346 27.5565 24.7136 24.4455C25.91 22.3754 26.2594 19.9228 25.6886 17.601C26.844 18.9345 27.822 21.1567 27.2883 24.3566C27.2668 24.4327 27.2614 24.5125 27.2725 24.5908C27.2836 24.6691 27.311 24.7443 27.3529 24.8114C27.3948 24.8785 27.4502 24.9361 27.5157 24.9805C27.5812 25.0248 27.6552 25.055 27.7331 25.0691C27.8296 25.0811 27.9276 25.0713 28.0198 25.0405C28.1121 25.0098 28.1963 24.9588 28.2663 24.8913C29.103 24.0764 29.6626 23.0193 29.8661 21.8692C30.4886 22.6676 31.1122 24.5343 30.3123 27.8235V27.8261Z" fill="white"/></g><defs><clipPath id="clip0_5730_38574"><rect width="48" height="48" fill="white"/></clipPath></defs></svg>
