<svg width="48" height="48" viewBox="0 0 48 48" fill="none" xmlns="http://www.w3.org/2000/svg"><g clip-path="url(#clip0_5730_38599)"><path d="M0 0H48V48H0V0Z" fill="#DD344C"/><path fill-rule="evenodd" clip-rule="evenodd" d="M21.4155 23.5672C21.4891 23.638 21.5433 23.7267 21.5729 23.8245C21.6024 23.9223 21.6063 24.0261 21.5842 24.1259L20.9692 26.9534L23.6842 25.2884C23.7788 25.2296 23.8879 25.1984 23.9992 25.1984C24.1106 25.1984 24.2197 25.2296 24.3142 25.2884L26.9992 26.9497L26.3992 24.1184C26.3792 24.0192 26.3841 23.9165 26.4136 23.8196C26.443 23.7228 26.4961 23.6347 26.568 23.5634L28.9905 21.1934L25.8442 20.7359C25.747 20.7234 25.6545 20.6865 25.5752 20.6289C25.4959 20.5712 25.4324 20.4946 25.3905 20.4059L23.9992 17.5484L22.5705 20.4134C22.5266 20.4995 22.4629 20.574 22.3847 20.6307C22.3065 20.6874 22.2159 20.7247 22.1205 20.7397L18.9667 21.2009L21.4155 23.5672ZM19.4992 28.0709L20.343 24.1972L17.253 21.1972C17.1727 21.1192 17.1159 21.0204 17.0889 20.9118C17.0619 20.8033 17.0658 20.6893 17.1001 20.5828C17.1344 20.4764 17.1978 20.3816 17.2831 20.3093C17.3685 20.2369 17.4723 20.1899 17.583 20.1734L21.6292 19.5809L23.463 15.9097C23.5111 15.81 23.5877 15.7268 23.6832 15.6707C23.7787 15.6146 23.8887 15.5881 23.9992 15.5947C24.1107 15.5954 24.2198 15.6269 24.3145 15.6858C24.4091 15.7448 24.4856 15.8287 24.5355 15.9284L26.3242 19.5959L30.3742 20.1809C30.4844 20.1973 30.5879 20.2441 30.673 20.3159C30.7581 20.3878 30.8216 20.4819 30.8562 20.5878C30.8909 20.6937 30.8954 20.8071 30.8692 20.9154C30.843 21.0237 30.7872 21.1226 30.708 21.2009L27.6555 24.2009L28.473 28.0747C28.4964 28.1896 28.4859 28.3089 28.4426 28.418C28.3994 28.5271 28.3253 28.6212 28.2294 28.6888C28.1336 28.7564 28.0201 28.7946 27.9028 28.7988C27.7856 28.8029 27.6696 28.7729 27.5692 28.7122L23.9992 26.5034L20.3992 28.7084C20.3046 28.7671 20.1955 28.7982 20.0842 28.7984C19.9602 28.7985 19.8394 28.7591 19.7392 28.6859C19.6427 28.6188 19.5684 28.5245 19.5256 28.415C19.4829 28.3054 19.4737 28.1857 19.4992 28.0709ZM8.39922 12.6097H39.5992V9.60969H8.39922V12.6097ZM40.7992 8.99844V38.9984C40.7992 39.1576 40.736 39.3102 40.6235 39.4227C40.511 39.5352 40.3583 39.5984 40.1992 39.5984H36.5992V38.3984H39.5992V13.8134H8.39922V38.3984H31.1992V39.5984H7.79922C7.64009 39.5984 7.48748 39.5352 7.37495 39.4227C7.26243 39.3102 7.19922 39.1576 7.19922 38.9984V8.99844C7.19922 8.83931 7.26243 8.6867 7.37495 8.57417C7.48748 8.46165 7.64009 8.39844 7.79922 8.39844H40.1992C40.3583 8.39844 40.511 8.46165 40.6235 8.57417C40.736 8.6867 40.7992 8.83931 40.7992 8.99844ZM14.3992 35.3984H17.9992V34.1984H14.3992V35.3984ZM20.3992 35.3984H28.7992V34.1984H20.3992V35.3984ZM14.3992 32.3984H17.9992V31.1984H14.3992V32.3984ZM20.3992 32.3984H33.5992V31.1984H20.3992V32.3984Z" fill="white"/></g><defs><clipPath id="clip0_5730_38599"><rect width="48" height="48" fill="white"/></clipPath></defs></svg>
