<svg data-name="Layer 1" xmlns="http://www.w3.org/2000/svg" viewBox="0 0 512 512"><path d="M320.55 506h6.09l99.26-49.63 1.66-2.33V57.93l-1.66-2.35L326.64 6h-6.15z" fill="#68a7df"/><path d="M191.41 506h-6.17l-99.18-49.63-2-3.46-1-393 2.93-4.37L185.24 6h6.29l-.07 500" fill="#2f6ead"/><path d="M185.42 6h141.12v500H185.42z" fill="#3980c8"/><path d="M477.82 244.77l-3.35-.74-47.85-4.48-.71.37-99.33-4H185.42l-99.36 4V164.2l-.1.05.1-.22 99.33-23h141.16l99.36 23 36.51 19.41v-12.51l15.43-1.69-1.63-3.08-48.83-34.94-1.48.48-99.36-30.81H185.42l-99.36 30.78V55.58l-51.91 60.86v53.14l.4-.29 15 1.64v12.7l-15.43 8.26v52.88h.4l15 .21v22.2l-13 .2-2.46-.24V320l15.43 8.3v12.88l-14.79 1.64-.64-.48v53.13l51.91 60.86v-76.04l99.33 30.78h141.25l99.61-30.87 1.32.58 48.23-34.42 2.11-3.44-15.43-1.7V328.6l-2-.8-33 17.78-1.19 2.5L326.56 371H185.42l-99.36-23v-76l99.33 3.9v.1h141.16l99.36-4 2.25 1 46.42-4 3.27-1.61-15.43-.22V245l15.43-.21" fill="#285b89"/><path d="M425.91 380.29v76.08l51.94-60.86v-52.79L426.2 380.2zm0-32.14l.29-.07 51.65-27.77v-53.13L425.91 272v76.17zm.29-184.08l-.29-.08v75.91l51.94 4.89v-53.12l-51.65-27.59zm0-32.09l51.65 37.26v-52.79l-51.94-60.87v76.09l.29.11z" fill="#3980c8"/></svg>