<svg data-name="Layer 1" xmlns="http://www.w3.org/2000/svg" viewBox="0 0 512 512"><path d="M82.45 92.71l-33.3 16.72v292.46l33.3 16.58.26-.28V93z" fill="#8c3123"/><path d="M260.8 376L82.45 418.47V92.71l178.35 41.51z" fill="#e05243"/><path d="M180.4 309.56l75.6 9.59.43-1.1.53-124-1-1-75.6 9.45z" fill="#8c3123"/><path d="M256 376.55l173.44 42.05.28-.41V93l-.28-.28L256 134.77z" fill="#8c3123"/><path d="M331.62 309.56L256 319.15v-126l75.61 9.45z" fill="#e05243"/><path d="M331.62 150.79L256 164.63l-75.6-13.84 75.47-19.72z" fill="#5e1f18"/><path d="M331.62 361.2l-75.62-14-75.6 14 75.47 21.1z" fill="#f2b0a9"/><path d="M180.4 150.79l75.6-18.63.55-.27V6.55L256 6l-75.6 37.81z" fill="#8c3123"/><path d="M331.62 150.79L256 132.16V6l75.61 37.81z" fill="#e05243"/><path d="M256 506l-75.6-37.81v-107l75.6 18.65 1.11 1.37-.27 122.6z" fill="#8c3123"/><path d="M256 506l75.61-37.81v-107L256 379.84zM429.44 92.71l33.41 16.72v292.46l-33.41 16.71z" fill="#e05243"/></svg>