<svg width="48" height="48" viewBox="0 0 48 48" fill="none" xmlns="http://www.w3.org/2000/svg"><rect width="48" height="48" fill="white"/><path d="M18.9958 4L9.19328 9.53733V16.0172L3.8125 19.0549V28.8145L9.19328 31.8523V38.4627L18.9958 44L24.8125 40.7171V7.2861L18.9958 4ZM18.9958 42.9747L15.0692 40.7585L18.9117 38.59L18.4882 37.8067L14.1661 40.249L10.0683 37.9341V31.8491L14.3779 29.4163L13.9544 28.633L9.63234 31.0753L4.69061 28.2859V24.2643L9.00022 21.8316L8.57673 21.0482L4.69061 23.2422V19.5835L9.63234 16.7941L13.7302 19.1091V22.9078L10.5914 24.6814L11.0149 25.4647L14.1661 23.6848L18.4882 26.1271L18.9117 25.3437L14.6021 22.911V19.1122L19.1359 16.5521V10.1391H18.2609V16.0236L14.163 18.3385L10.0652 16.0236V10.0723L13.8734 7.92294V13.3138H14.7484V7.41984L18.9927 5.02213L23.9344 7.81149V27.7223L13.3783 33.6832L13.8018 34.4665L23.9344 28.7445V40.1853L18.9927 42.9747H18.9958Z" fill="#1E2F39"/><path d="M34.0342 11.9926C35.3461 11.7857 36.3554 10.6553 36.3554 9.28618C36.3554 7.77057 35.12 6.53516 33.6044 6.53516C32.0888 6.53516 30.8533 7.77057 30.8533 9.28618C30.8533 10.6553 31.8627 11.7857 33.1745 11.9926V15.9472H24.9023V16.8037H34.031V11.9926H34.0342ZM31.713 9.28618C31.713 8.24181 32.5632 7.39167 33.6076 7.39167C34.6519 7.39167 35.5021 8.24181 35.5021 9.28618C35.5021 10.3306 34.6519 11.1807 33.6076 11.1807C32.5632 11.1807 31.713 10.3306 31.713 9.28618Z" fill="url(#paint0_linear_5729_38658)"/><path d="M41.4379 19.0508C40.0687 19.0508 38.9384 20.0601 38.7314 21.3751H24.9062V22.2317H38.7314C38.9384 23.5435 40.0687 24.5528 41.4379 24.5528C42.9535 24.5528 44.1889 23.3174 44.1889 21.8018C44.1889 20.2862 42.9535 19.0508 41.4379 19.0508ZM41.4379 23.6963C40.3935 23.6963 39.5434 22.8462 39.5434 21.8018C39.5434 20.7574 40.3935 19.9073 41.4379 19.9073C42.4822 19.9073 43.3324 20.7574 43.3324 21.8018C43.3324 22.8462 42.4822 23.6963 41.4379 23.6963Z" fill="url(#paint1_linear_5729_38658)"/><path d="M38.9168 28.3544C38.401 28.3544 37.9234 28.5073 37.5095 28.7556L35.2265 26.4727H24.9102V27.3292H34.8731L36.8536 29.3097C36.4333 29.7936 36.169 30.4177 36.169 31.1086C36.169 32.6243 37.4044 33.8597 38.92 33.8597C40.4356 33.8597 41.671 32.6243 41.671 31.1086C41.671 29.593 40.4356 28.3576 38.92 28.3576L38.9168 28.3544ZM38.9168 33C37.8725 33 37.0223 32.1498 37.0223 31.1055C37.0223 30.0611 37.8725 29.2109 38.9168 29.2109C39.9612 29.2109 40.8113 30.0611 40.8113 31.1055C40.8113 32.1498 39.9612 33 38.9168 33Z" fill="url(#paint2_linear_5729_38658)"/><path d="M32.0187 35.8066V31.4062H24.9023V32.2628H31.159V35.8066C29.8472 36.0136 28.8378 37.1439 28.8378 38.5131C28.8378 40.0319 30.0733 41.2641 31.5889 41.2641C33.1045 41.2641 34.3399 40.0287 34.3399 38.5131C34.3399 37.1439 33.3305 36.0136 32.0187 35.8066ZM31.5889 40.4076C30.5445 40.4076 29.6944 39.5574 29.6944 38.5131C29.6944 37.4687 30.5445 36.6186 31.5889 36.6186C32.6332 36.6186 33.4834 37.4687 33.4834 38.5131C33.4834 39.5574 32.6332 40.4076 31.5889 40.4076Z" fill="url(#paint3_linear_5729_38658)"/><defs><linearGradient id="paint0_linear_5729_38658" x1="25.3099" y1="11.6679" x2="42.9878" y2="11.6679" gradientUnits="userSpaceOnUse"><stop stop-color="#A23464"/><stop offset="1" stop-color="#6F59C3"/></linearGradient><linearGradient id="paint1_linear_5729_38658" x1="3.43297" y1="21.8018" x2="42.9885" y2="21.8018" gradientUnits="userSpaceOnUse"><stop stop-color="#A23464"/><stop offset="1" stop-color="#6F59C3"/></linearGradient><linearGradient id="paint2_linear_5729_38658" x1="3.43369" y1="30.163" x2="42.9892" y2="30.163" gradientUnits="userSpaceOnUse"><stop stop-color="#A23464"/><stop offset="1" stop-color="#6F59C3"/></linearGradient><linearGradient id="paint3_linear_5729_38658" x1="3.43225" y1="36.3352" x2="42.9878" y2="36.3352" gradientUnits="userSpaceOnUse"><stop stop-color="#A23464"/><stop offset="1" stop-color="#6F59C3"/></linearGradient></defs></svg>
