<svg width="48" height="48" viewBox="0 0 48 48" fill="none" xmlns="http://www.w3.org/2000/svg"><g clip-path="url(#clip0_5730_38571)"><path d="M0 0H48V48H0V0Z" fill="#E7157B"/><path d="M34.133 31.3765C33.7332 31.3657 33.3354 31.4365 32.9639 31.5845C32.5923 31.7326 32.2548 31.9548 31.972 32.2376C31.6892 32.5204 31.467 32.8579 31.319 33.2295C31.1709 33.601 31.1001 33.9988 31.1109 34.3986C31.1009 35.2115 31.4132 35.9954 31.9795 36.5787C32.5459 37.1619 33.3202 37.4972 34.133 37.5111C34.9551 37.4845 35.7417 37.1698 36.3553 36.622C36.9318 36.0267 37.2512 35.2285 37.2444 34.3997C37.2308 33.5869 36.8958 32.8125 36.3127 32.2459C35.7297 31.6794 34.946 31.3668 34.133 31.3765ZM35.3777 35.7321C35.0356 36.0735 34.5721 36.2653 34.0888 36.2653C33.6055 36.2653 33.1419 36.0735 32.7999 35.7321C32.6276 35.5784 32.4966 35.3839 32.4189 35.1665C32.3412 34.949 32.3193 34.7156 32.3552 34.4875C32.3484 34.2522 32.3897 34.018 32.4767 33.7992C32.5636 33.5805 32.6943 33.3818 32.8608 33.2154C33.0273 33.0489 33.226 32.9183 33.4447 32.8314C33.6635 32.7444 33.8977 32.7032 34.133 32.71C34.3799 32.7032 34.6256 32.747 34.8549 32.8387C35.0843 32.9304 35.2924 33.0681 35.4665 33.2432C36.0887 33.8654 36.0887 34.9322 35.3777 35.7321ZM38.4902 20.8877C37.6818 20.9128 36.9149 21.2516 36.352 21.8323C35.7891 22.413 35.4743 23.19 35.4743 23.9987C35.4743 24.8075 35.7891 25.5845 36.352 26.1652C36.9149 26.7459 37.6818 27.0846 38.4902 27.1097C39.2985 27.0846 40.0654 26.7459 40.6283 26.1652C41.1912 25.5845 41.506 24.8075 41.506 23.9987C41.506 23.19 41.1912 22.413 40.6283 21.8323C40.0654 21.2516 39.2985 20.9128 38.4902 20.8877ZM39.8237 25.3322C39.6495 25.5074 39.4414 25.6451 39.2121 25.7368C38.9827 25.8285 38.737 25.8723 38.4902 25.8655C38.1297 25.8567 37.78 25.7412 37.4852 25.5337C37.1904 25.3261 36.9638 25.0358 36.834 24.6995C36.7041 24.3631 36.677 23.9958 36.7559 23.6441C36.8349 23.2923 37.0163 22.9718 37.2774 22.7232C37.5385 22.4745 37.8674 22.3089 38.2226 22.2472C38.5779 22.1855 38.9434 22.2305 39.273 22.3766C39.6026 22.5226 39.8816 22.7631 40.0745 23.0677C40.2674 23.3723 40.3657 23.7272 40.3569 24.0876C40.2892 24.5417 40.1049 24.9705 39.8222 25.3322H39.8237ZM34.133 15.9989C34.9319 15.9887 35.6961 15.6708 36.2664 15.1112C36.6897 14.6753 36.9777 14.1262 37.0955 13.5301C37.2133 12.934 37.1559 12.3165 36.9302 11.7524C36.7046 11.1882 36.3203 10.7015 35.8239 10.3511C35.3275 10.0008 34.7402 9.80168 34.133 9.77799C33.3061 9.79961 32.5176 10.1319 31.9246 10.7087C31.3316 11.2855 30.9776 12.0645 30.9332 12.8905C30.9787 13.7158 31.3331 14.4938 31.926 15.0697C32.5188 15.6456 33.3068 15.9773 34.133 15.9989ZM34.133 11.11C34.3678 11.0944 34.603 11.1346 34.8193 11.2273C35.0356 11.32 35.2269 11.4625 35.3777 11.6432C35.5445 11.805 35.6776 11.9983 35.7691 12.2119C35.8606 12.4255 35.9088 12.6551 35.9109 12.8875C35.9083 13.3835 35.7177 13.86 35.3777 14.221C35.0356 14.5624 34.5721 14.7542 34.0888 14.7542C33.6055 14.7542 33.1419 14.5624 32.7999 14.221C32.6201 14.0537 32.4852 13.8439 32.4075 13.6109C32.3298 13.378 32.3118 13.1292 32.3552 12.8875C32.3407 12.6503 32.3768 12.4127 32.461 12.1904C32.5452 11.9682 32.6757 11.7664 32.8438 11.5984C33.0119 11.4303 33.2137 11.2999 33.436 11.2157C33.6582 11.1315 33.8958 11.0955 34.133 11.11ZM11.7332 26.2225C12.1702 25.7928 12.4516 25.2298 12.533 24.6224H15.911L14.7553 25.6862L15.6444 26.6639L17.8663 24.4416C17.9292 24.3859 17.9796 24.3175 18.0141 24.2409C18.0486 24.1643 18.0665 24.0813 18.0665 23.9972C18.0665 23.9132 18.0486 23.8301 18.0141 23.7535C17.9796 23.6769 17.9292 23.6085 17.8663 23.5529L15.6444 21.3306L14.7553 22.3112L15.911 23.3781H12.533C12.3539 22.5661 11.8608 21.8579 11.1614 21.4083C10.4619 20.9586 9.61299 20.804 8.79991 20.9781C8.21829 21.1158 7.69165 21.4255 7.28866 21.8669C6.04441 23.1115 6.04441 25.0667 7.28866 26.1336C7.87321 26.7223 8.66379 27.0605 9.49322 27.0768C10.3227 27.0931 11.1259 26.7862 11.7332 26.221V26.2225ZM8.26628 25.6862C7.87884 25.3907 7.62413 24.9539 7.55779 24.4711C7.49146 23.9884 7.61891 23.499 7.91228 23.11C8.00116 23.0211 8.09003 22.8434 8.26778 22.7541C8.60966 22.4122 9.07335 22.2202 9.55684 22.2202C10.0403 22.2202 10.504 22.4122 10.8459 22.7541C11.1878 23.096 11.3799 23.5597 11.3799 24.0432C11.3799 24.5267 11.1878 24.9904 10.8459 25.3322C10.5376 25.7024 10.102 25.944 9.62474 26.0095C9.14745 26.075 8.66292 25.9597 8.26628 25.6862ZM31.6442 26.6639L33.7775 24.4416C33.8404 24.3859 33.8908 24.3175 33.9252 24.2409C33.9597 24.1643 33.9776 24.0812 33.9776 23.9972C33.9776 23.9132 33.9597 23.8302 33.9252 23.7536C33.8908 23.677 33.8404 23.6086 33.7775 23.5529L33.5998 23.3751L31.6442 21.3306L30.7554 22.3112L31.8219 23.3781H27.9999C28.1083 21.6766 28.7629 20.0556 29.8663 18.7559C29.9247 18.6975 29.971 18.6282 30.0026 18.552C30.0342 18.4757 30.0505 18.394 30.0505 18.3114C30.0505 18.2289 30.0343 18.1471 30.0027 18.0709C29.9711 17.9946 29.9248 17.9253 29.8665 17.8669C29.8081 17.8085 29.7388 17.7622 29.6626 17.7306C29.5863 17.699 29.5046 17.6827 29.422 17.6827C29.3395 17.6827 29.2577 17.699 29.1815 17.7305C29.1052 17.7621 29.0359 17.8084 28.9775 17.8667C26.3109 20.5337 21.065 20.5337 18.3999 17.8667C18.2799 17.7609 18.1241 17.7048 17.9642 17.7098C17.8043 17.7148 17.6523 17.7805 17.5392 17.8937C17.4261 18.0068 17.3603 18.1588 17.3553 18.3187C17.3503 18.4786 17.4064 18.6344 17.5123 18.7544C20.1789 21.421 20.1789 26.6669 17.5123 29.332C17.3982 29.4519 17.3346 29.6111 17.3346 29.7766C17.3346 29.942 17.3982 30.1012 17.5123 30.2211C17.568 30.284 17.6365 30.3344 17.7131 30.3688C17.7897 30.4033 17.8728 30.4212 17.9568 30.4212C18.0409 30.4212 18.124 30.4033 18.2006 30.3688C18.2772 30.3344 18.3457 30.284 18.4014 30.2211C21.068 27.5541 26.3139 27.5541 28.979 30.2211C29.0347 30.284 29.1031 30.3343 29.1797 30.3688C29.2563 30.4033 29.3394 30.4211 29.4234 30.4211C29.5074 30.4211 29.5905 30.4033 29.6671 30.3688C29.7437 30.3343 29.8121 30.284 29.8678 30.2211C29.9818 30.1012 30.0455 29.942 30.0455 29.7766C30.0455 29.6111 29.9818 29.4519 29.8678 29.332C28.677 28.0511 28.0109 26.3697 28.0014 24.6209H31.8219L30.7554 25.6862L31.6442 26.6639ZM27.2885 27.6434C24.9403 26.7542 22.3479 26.7542 19.9997 27.6434C20.8889 25.3257 20.8889 22.761 19.9997 20.4434C22.348 21.3322 24.9402 21.3322 27.2885 20.4434C26.4885 22.7767 26.4885 25.31 27.2885 27.6434ZM17.7774 11.1989L17.2442 10.0431C19.3699 9.0631 21.6901 8.57793 24.0304 8.62411C26.3707 8.67029 28.67 9.24662 30.7554 10.3097L30.0429 11.4655C28.1498 10.5025 26.064 9.97853 23.9406 9.93237C21.8171 9.88622 19.7106 10.3191 17.7774 11.1989ZM10.133 19.9112L8.88728 19.5542C9.28395 18.2694 9.85153 17.0436 10.5748 15.91L11.6417 16.6225C10.9808 17.6391 10.4725 18.7472 10.133 19.9112ZM36.9774 16.267C37.5104 17.14 37.957 18.0628 38.3109 19.0225L37.0663 19.378C36.7351 18.5244 36.3492 17.693 35.9109 16.8891L36.9774 16.267ZM37.1552 28.1781L38.3998 28.5336C38.039 29.4756 37.6234 30.3957 37.1552 31.2891L35.9998 30.6655C36.4929 29.8904 36.8814 29.0535 37.1552 28.1766V28.1781ZM30.1333 36.4431L30.7554 37.5989C28.5371 38.6867 26.1135 39.2925 23.6443 39.3764C21.2691 39.3857 18.9248 38.8377 16.7998 37.7766L17.4219 36.6209C19.403 37.6013 21.5888 38.0965 23.799 38.0656C26.0092 38.0346 28.1804 37.4785 30.1333 36.4431ZM11.3777 31.021L10.3123 31.6431C9.76359 30.6109 9.28744 29.5416 8.88728 28.4432L10.1315 28.0877C10.4767 29.0939 10.8931 30.0741 11.3777 31.021ZM13.8665 31.3765C13.4667 31.3656 13.0688 31.4364 12.6972 31.5844C12.3257 31.7325 11.9881 31.9547 11.7053 32.2375C11.4224 32.5203 11.2002 32.8578 11.0521 33.2294C10.904 33.6009 10.8332 33.9988 10.844 34.3986C10.834 35.2116 11.1464 35.9955 11.7128 36.5788C12.2792 37.1621 13.0536 37.4973 13.8665 37.5111C14.6882 37.4837 15.4742 37.1686 16.0873 36.6209C16.6637 36.0255 16.983 35.2273 16.976 34.3986C16.9767 33.9941 16.8961 33.5936 16.739 33.2209C16.5818 32.8482 16.3514 32.5109 16.0613 32.229C15.7713 31.9471 15.4275 31.7263 15.0505 31.5799C14.6735 31.4334 14.2708 31.3643 13.8665 31.3765ZM13.8665 36.2654C12.7997 36.2654 12.0887 35.4655 11.9998 34.3986C11.9956 34.1564 12.0418 33.9159 12.1353 33.6925C12.2288 33.469 12.3677 33.2673 12.5431 33.1003C12.7186 32.9332 12.9268 32.8044 13.1546 32.7219C13.3824 32.6394 13.6248 32.6051 13.8665 32.6211C14.1134 32.6143 14.359 32.6581 14.5883 32.7498C14.8176 32.8415 15.0256 32.9792 15.1997 33.1544C15.3719 33.308 15.5029 33.5024 15.5805 33.7198C15.6582 33.9372 15.68 34.1706 15.644 34.3986C15.6524 34.6385 15.6129 34.8777 15.5276 35.1022C15.4424 35.3266 15.3132 35.5318 15.1477 35.7056C14.9821 35.8795 14.7835 36.0186 14.5635 36.1147C14.3435 36.2108 14.1066 36.262 13.8665 36.2654ZM13.8665 15.9989C14.6879 15.9723 15.4739 15.6582 16.0873 15.1112C16.5268 14.6717 16.8262 14.1117 16.9475 13.502C17.0688 12.8924 17.0066 12.2604 16.7687 11.6861C16.5308 11.1118 16.128 10.621 15.6111 10.2756C15.0943 9.93025 14.4866 9.74592 13.865 9.74592C13.2434 9.74592 12.6358 9.93025 12.1189 10.2756C11.6021 10.621 11.1992 11.1118 10.9614 11.6861C10.7235 12.2604 10.6613 12.8924 10.7826 13.502C10.9039 14.1117 11.2032 14.6717 11.6428 15.1112C12.2479 15.6732 13.0407 15.9897 13.8665 15.9989ZM12.6219 11.6432C12.7837 11.4764 12.9771 11.3433 13.1907 11.2518C13.4044 11.1602 13.6341 11.112 13.8665 11.11C14.1064 11.1016 14.3456 11.1412 14.57 11.2265C14.7944 11.3117 14.9996 11.4409 15.1734 11.6065C15.3473 11.772 15.4863 11.9706 15.5825 12.1905C15.6786 12.4105 15.7299 12.6475 15.7333 12.8875C15.7305 13.3835 15.5398 13.86 15.1997 14.221C15.0392 14.3896 14.8461 14.5238 14.6322 14.6156C14.4183 14.7073 14.188 14.7546 13.9552 14.7546C13.7225 14.7546 13.4921 14.7073 13.2782 14.6156C13.0643 14.5238 12.8712 14.3896 12.7108 14.221C12.5267 14.0632 12.3774 13.8689 12.2724 13.6504C12.1673 13.4319 12.1087 13.1939 12.1004 12.9516C12.092 12.7093 12.1341 12.4679 12.2238 12.2427C12.3136 12.0175 12.4492 11.8134 12.6219 11.6432Z" fill="white"/></g><defs><clipPath id="clip0_5730_38571"><rect width="48" height="48" fill="white"/></clipPath></defs></svg>
