<svg data-name="Layer 1" xmlns="http://www.w3.org/2000/svg" viewBox="0 0 512 512"><path d="M199.2 458.31l-51.52-14.44-48.74-55.57 61-1.69zM80.07 421.66l-29-8.12-27.4-31.25L57 376.81z" fill="#995b80"/><path d="M150.58 141.89L36.11 115.05v269.33l17.15-1.59 26.8 38.88 20.65-43.29 49.86-4.63V141.89" fill="#c17b9d"/><path d="M413.36 164.9l-289.9-93.06v330.64l33.54-4.32 42.16 60.16 33.39-69.89 180.77-23.26z" fill="#c17b9d"/><path d="M360.92 506l-73.24-20.51-69.22-78.94 89.74-.92L360.93 506" fill="#995b80"/><path d="M72.67 97.59v294.64l50.78 10.24 3.35-7.89V79l-3.35-7.15zM6.47 132v246.35l29.63 6 4.31-7.57V120l-4.31-5zM255.83 6l-74.72 37.34v370l74.72 14.45 5.8-5V14z" fill="#7b3f65"/><path d="M505.5 130.82L255.83 6v421.77l44-8.79 61 87 52.44-109.76 92.17-18.47V130.82" fill="#c17b9d"/></svg>