<svg data-name="Layer 1" xmlns="http://www.w3.org/2000/svg" viewBox="0 0 512 512"><path d="M377.8 314.27a97.5 97.5 0 00.7 10.93 97.4 97.4 0 01.83 10.79c0 4.2-1 9.12-10.64 9.39v10.7c9.66.27 10.64 5.52 10.64 9.38a97 97 0 01-.83 10.78 97.32 97.32 0 00-.7 10.92c0 13.83 8.68 18.91 21.12 18.91h5v-11.76h-2.45c-6.38-.13-8.5-3.87-8.5-9.94 0-2.35.4-5 .68-7.75.39-3.21.63-6.45.7-9.69.15-10.5-4.26-14.49-11.89-16.15v-.29c7.7-1.66 12-5.65 11.89-16 0-3.44-.43-6.64-.7-9.54s-.68-5.39-.68-7.73c0-6.09 2.23-9.68 8.5-9.81H404v-11.79h-4.89c-13.06 0-21.31 5.67-21.31 18.65zM503 255l-37-38.14a10.6 10.6 0 00-3.51-2.4 10.74 10.74 0 00-4.19-.84H428a10.39 10.39 0 00-2.76-5.29l-37-38.17a10.53 10.53 0 00-3.5-2.39 10.7 10.7 0 00-4.18-.85h-128.5a10.73 10.73 0 00-7.52 3.08 10.45 10.45 0 00-3.11 7.43v225.68a10.45 10.45 0 003.11 7.43 10.73 10.73 0 007.52 3.08h67.11v35.2c-19.56 19.1-73.93 36.13-142 36.13-85.74.05-149.83-27.05-149.83-51.23V366.4c31.14 23.54 91.79 36 149.87 36a409.62 409.62 0 0048-2.82v-21.17a389 389 0 01-48 2.94c-85.78 0-149.87-27-149.87-51.23v-89.61c31.14 23.55 91.79 36 149.87 36a409.62 409.62 0 0048-2.82V252.5a383.28 383.28 0 01-48 3c-85.78 0-149.87-27.05-149.87-51.23v-89.65c31.14 23.55 91.79 36 149.87 36s118.71-12.41 149.85-36v36.28h21.27V78.24C348.33 31.33 260.17 6 177.21 6S6.07 31.33 6.07 78.24v355.52c0 46.91 88.17 72.24 171.14 72.24 65.58 0 134.43-15.84 160.38-45.67h157.7a10.69 10.69 0 007.52-3.07 10.42 10.42 0 003.12-7.43V262.27A10.43 10.43 0 00503 255zM177.21 27.09c85.77 0 149.85 27.06 149.85 51.23S263 129.58 177.21 129.58 27.34 102.52 27.34 78.32s64.09-51.23 149.87-51.23zm279.35 210.37l20.61 21.28h-20.61zm-77.77-46.69l20.64 21.3h-20.64zm-48.92 22.85a10.72 10.72 0 00-7.52 3.08 10.45 10.45 0 00-3.11 7.42v168.49H262.7V188h94.82v25.63zm154.85 225.67H340.51V234.63h94.84v34.61a10.42 10.42 0 003.12 7.43 10.7 10.7 0 007.52 3.08h38.73zm-54.28-143.67v11.76H433c6.38.13 8.5 3.72 8.5 9.81a51.3 51.3 0 01-.7 7.73c-.27 2.9-.7 6.1-.7 9.54-.15 10.38 4.26 14.37 12 16v.29c-7.85 1.66-12.19 5.65-12 16.15a95 95 0 00.7 9.69 51.56 51.56 0 01.7 7.75c0 6.07-2.12 9.81-8.5 9.94h-2.51v11.61h5.1c12.59 0 21.27-5 21.27-18.9a97.53 97.53 0 00-.85-10.93 102.11 102.11 0 01-.83-10.77c0-3.87 1.13-9.12 10.64-9.39v-10.62c-9.51-.28-10.64-5.25-10.64-9.39a102.67 102.67 0 01.83-10.8 97.35 97.35 0 00.85-10.92c0-13-8.25-18.66-21.42-18.66z" fill="#0079d6"/></svg>