<svg width="48" height="48" viewBox="0 0 48 48" fill="none" xmlns="http://www.w3.org/2000/svg"><g clip-path="url(#clip0_5501_14755)"><path d="M0 .037h48v48H0v-48z" fill="#ED7100"/><path fill-rule="evenodd" clip-rule="evenodd" d="M23.273 22.582a.973.973 0 00-.48.84v16.646L10.2 33.026V16.66l14.134-8.19 12.558 6.225-13.62 7.887zm15.078-7.905a.981.981 0 00-.514-.855l-13.03-6.458a.972.972 0 00-.964 0L9.48 15.686a.976.976 0 00-.48.84v16.642a.971.971 0 00.491.84l13.054 7.301A.975.975 0 0024 40.47V23.557l13.875-8.04a.973.973 0 00.48-.84h-.004zm.03 18.375L27 40.034v-6.24l5.929-3.832.041-.27a1.995 1.995 0 000-.394l.03-7.444 5.396-3.127-.015 14.325zm.75-15.589a.965.965 0 00-.964 0l-5.76 3.345a.965.965 0 00-.603.802v7.658L26.329 32.8a.987.987 0 00-.521.83v6.79a.953.953 0 00.472.83 1.012 1.012 0 001.02 0l11.801-7.22a.967.967 0 00.48-.836v-14.88a.973.973 0 00-.484-.84l.034-.011z" fill="#fff"/></g><defs><clipPath id="clip0_5501_14755"><path fill="#fff" d="M0 0h48v48H0z"/></clipPath></defs></svg>