<svg data-name="Layer 1" xmlns="http://www.w3.org/2000/svg" viewBox="0 0 512 512"><path d="M463.22 168.15l-6.66-.11-200.31-59.3-.11-2.75V6l207.09 103.57z" fill="#d9a741"/><path d="M256.11 112V6L49 109.53v292.9l.11.05L256.09 506l.69-1-.27-98.49-.4-.55-12.94-9.23L83 349l.8-185.27z" fill="#876929"/><path d="M287.08 322L75.45 351.79V160.17L287.1 190z" fill="#d9a741"/><path d="M179.84 309.9l76.27 9.71V192.33L179.86 202zM103 300.12l49.49 6.3V205.51l-49.5 6.3z" fill="#876929"/><path d="M75.47 160.17L256.13 106l207.09 62.16L287.23 190z" fill="#624a1e"/><path d="M463.11 293l-207 26.13v-126.8l207 26.37zm-.01 50.92l-4.46.19-201.9 61.11-.64.78v100l207-103.48z" fill="#d9a741"/><path d="M75.45 351.79L256.1 406l207-62.08-176-21.9z" fill="#fad791"/></svg>