<svg width="48" height="48" viewBox="0 0 48 48" fill="none" xmlns="http://www.w3.org/2000/svg"><g clip-path="url(#clip0_5729_38665)"><path d="M0 0H48V48H0V0Z" fill="#8C4FFF"/><path d="M31.8223 20.8002L24.6222 19.2001V18.2225C24.6243 18.1402 24.6096 18.0584 24.5791 17.982C24.5486 17.9055 24.5028 17.8361 24.4446 17.7779C24.3865 17.7197 24.3171 17.6739 24.2406 17.6433C24.1642 17.6127 24.0824 17.598 24.0001 17.6H20.8003C20.718 17.598 20.6361 17.6127 20.5597 17.6433C20.4832 17.6739 20.4138 17.7197 20.3556 17.7779C20.2974 17.8361 20.2516 17.9055 20.2211 17.9819C20.1905 18.0584 20.1757 18.1402 20.1778 18.2225V29.7777C20.1757 29.86 20.1905 29.9419 20.2211 30.0183C20.2516 30.0948 20.2974 30.1642 20.3556 30.2224C20.4138 30.2806 20.4832 30.3264 20.5597 30.3569C20.6361 30.3875 20.718 30.4023 20.8003 30.4003H24.0001C24.0824 30.4023 24.1642 30.3875 24.2406 30.3569C24.3171 30.3264 24.3865 30.2806 24.4446 30.2224C24.5028 30.1642 24.5486 30.0947 24.5791 30.0183C24.6096 29.9419 24.6243 29.86 24.6222 29.7777V28.8001L31.8223 27.2C31.9691 27.1734 32.1023 27.097 32.1994 26.9837C32.2966 26.8704 32.3517 26.7271 32.3555 26.5779V21.4224C32.3651 21.2697 32.3148 21.1192 32.2152 21.003C32.1156 20.8869 31.9746 20.8141 31.8223 20.8002ZM23.378 29.1556H21.4224V18.8431H23.378V29.1556ZM31.0224 26.0431L24.6222 27.4666V20.4448L31.0224 21.8668V26.0431ZM40.0003 20.4432V21.8652C37.9113 22.4225 35.7619 22.7215 33.6001 22.7555V21.4224C35.7696 21.4088 37.9256 21.0795 40.0003 20.4448V20.4432ZM33.6001 23.2876C35.7388 23.3021 37.8763 23.1834 40.0003 22.9321V25.0651C37.8828 24.7409 35.7421 24.5927 33.6001 24.6222V23.2876ZM33.6001 25.2433C35.7654 25.2267 37.9214 25.5261 40.0003 26.132V27.554C37.9356 26.8768 35.7728 26.547 33.6001 26.5779V25.2433ZM8 17.5126C10.8448 19.3794 14.5779 20.4463 18.8446 20.8018V22.046C15.0492 21.8627 11.3432 20.8299 8 19.0239V17.5126ZM8 21.6905C11.5364 22.6622 15.1782 23.1985 18.8446 23.2876V24.7126C15.1775 24.7962 11.5349 25.3337 8 26.3127V24.9778C9.57138 24.5244 11.1765 24.1975 12.8 24.0001C11.1765 23.8027 9.57138 23.4758 8 23.0225V21.6905ZM18.8446 18.6684V20.0015C10.0445 18.9335 8 14.4001 8.08887 10.5778V8H9.3335V10.6666C9.3335 13.9557 11.0225 17.7777 18.8446 18.6669V18.6684ZM8 29.1556C11.2891 27.2889 15.0223 26.3112 18.8446 25.9557V27.2889C14.5779 27.6447 10.7555 28.8001 8 30.578V29.1556ZM18.8446 28.0876V29.3319C13.8669 29.954 9.3335 31.9985 9.3335 37.3321V39.9099H8.80025L8.08775 39.9988V37.3336C8.08887 33.6001 10.0445 29.0668 18.8446 28.0876Z" fill="white"/></g><defs><clipPath id="clip0_5729_38665"><rect width="48" height="48" fill="white"/></clipPath></defs></svg>
