<svg width="512" height="512" viewBox="0 0 512 512" fill="none" xmlns="http://www.w3.org/2000/svg"><g clip-path="url(#clip0_4353_117417)"><path d="M0 0h512v512H0V0z" fill="#8C4FFF"/><path d="M423.347 136.533l-88.176-43.612a5.841 5.841 0 00-6.64.948 8.403 8.403 0 00-3.792 4.74v75.852h-20.86v13.272h20.86v136.536h-20.86v13.272h20.86v75.852a5.202 5.202 0 002.844 4.74c.948.948 2.844.948 3.792 1.896h1.9l89.124-29.392a7.12 7.12 0 004.74-6.636V142.225a5.894 5.894 0 00-3.792-5.692zm-9.48 242.728l-75.868 24.652V110.001l75.852 36.98.016 232.28zm-225.66-191.528h13.272v-13.272h-13.272V98.609c0-1.896-.948-4.74-3.792-4.74a16.14 16.14 0 00-6.64-.948l-88.176 43.612a13.927 13.927 0 00-4.74 5.692v241.776a7.13 7.13 0 004.74 6.636l89.124 29.392h1.9a7.2 7.2 0 003.792-1.896 6.467 6.467 0 002.844-4.74v-75.852h14.22v-13.272h-14.22V187.733h.948zm-13.276 216.18l-75.852-24.652V146.965l75.852-36.964v293.912zm88.18-229.452h20.86v13.272h-20.86v-13.272zm-40.772 0h20.86v13.272h-20.86v-13.272zm0 149.808h20.86v13.272h-20.86v-13.272zm40.772 0h20.86v13.272h-20.86v-13.272zm-36.98-98.608l-25.6 21.808h-.932a6.344 6.344 0 00-1.673 4.955 6.332 6.332 0 002.621 4.525l25.6 21.808 9.484-9.48-19.912-17.068 19.88-17.068-9.468-9.48zm87.232 31.288a6.32 6.32 0 001.674-4.955 6.338 6.338 0 00-2.622-4.525l-25.6-21.808-9.484 10.428 19.912 16.12-19.912 17.068 9.484 9.48 25.6-21.808s-.016-.948.948 0zm-76.8 36.976l27.496-80.592 13.272 4.744-27.496 79.644-13.272-3.796z" fill="#fff"/></g><defs><clipPath id="clip0_4353_117417"><path fill="#fff" d="M0 0h512v512H0z"/></clipPath></defs></svg>