<svg width="48" height="48" viewBox="0 0 48 48" fill="none" xmlns="http://www.w3.org/2000/svg"><g clip-path="url(#clip0_5730_38580)"><path d="M0 0H48V48H0V0Z" fill="#DD344C"/><path d="M35.1844 9.60156H10.5623C9.89324 9.64449 9.26752 9.94754 8.81901 10.4459C8.37049 10.9442 8.13479 11.5983 8.16232 12.2682V28.0891C8.13479 28.759 8.37049 29.413 8.81901 29.9114C9.26752 30.4097 9.89324 30.7128 10.5623 30.7557H24.1621V29.4237H10.5623C10.2494 29.3759 9.96589 29.212 9.76821 28.9648C9.57054 28.7175 9.47317 28.4049 9.49545 28.0891V17.2459H20.9614V26.8459C20.9683 27.0179 21.0338 27.1822 21.1469 27.3118C21.2601 27.4414 21.4142 27.5285 21.5836 27.5584H26.7402V26.2238H22.5623V26.0461C22.5549 24.9792 22.8991 23.9397 23.5418 23.0881C24.1845 22.2365 25.0897 21.6204 26.1177 21.3349C26.607 21.5549 27.1374 21.6686 27.6739 21.6686C28.2105 21.6686 28.7409 21.5549 29.2302 21.3349C30.383 21.7218 31.3804 22.4699 32.0746 23.4683L33.1411 22.8462C32.5178 21.7597 31.5473 20.9144 30.3856 20.4462C30.9228 19.7978 31.207 18.9768 31.1854 18.1351C31.1925 17.6779 31.1076 17.2239 30.9359 16.8002C30.7642 16.3764 30.5091 15.9914 30.1858 15.6681C29.8625 15.3447 29.4776 15.0896 29.0538 14.9179C28.6301 14.7461 28.1761 14.6612 27.7189 14.6682C25.8522 14.7571 24.1632 16.2683 24.1632 18.1351C24.1899 18.957 24.5046 19.7435 25.0523 20.3569C23.9453 20.8696 22.9944 21.6672 22.2968 22.6681V14.0461H33.2288V23.0239H34.4734V17.2459H36.4291V23.6461H37.6733V12.2682C37.6811 11.5889 37.4268 10.9327 36.9633 10.4361C36.4997 9.93948 35.8627 9.64059 35.1844 9.60156ZM27.6289 15.9128C27.9216 15.91 28.2118 15.9655 28.4827 16.0762C28.7536 16.1868 28.9998 16.3504 29.2067 16.5573C29.4136 16.7643 29.5772 17.0104 29.6879 17.2813C29.7985 17.5522 29.8541 17.8424 29.8512 18.1351C29.8427 18.5328 29.7319 18.9217 29.5295 19.2641C29.3271 19.6066 29.0398 19.8911 28.6954 20.0903C28.3979 20.2525 28.0673 20.3447 27.7288 20.3596C27.3903 20.3746 27.0528 20.3121 26.7421 20.1767C26.4315 20.0414 26.1558 19.8369 25.9362 19.5788C25.7166 19.3207 25.5589 19.0159 25.4751 18.6876C25.3913 18.3592 25.3836 18.0161 25.4526 17.6843C25.5216 17.3526 25.6655 17.041 25.8732 16.7733C26.081 16.5056 26.3472 16.2889 26.6515 16.1398C26.9558 15.9907 27.2901 15.913 27.6289 15.9128ZM34.3846 16.0017V13.4239C34.3866 13.3416 34.3719 13.2598 34.3414 13.1833C34.3108 13.1068 34.265 13.0374 34.2068 12.9792C34.1486 12.921 34.0792 12.8752 34.0027 12.8446C33.9263 12.8141 33.8444 12.7994 33.7621 12.8014H21.5843C21.502 12.7994 21.4202 12.8142 21.3438 12.8447C21.2674 12.8753 21.198 12.9211 21.1398 12.9793C21.0816 13.0375 21.0359 13.107 21.0054 13.1834C20.9748 13.2598 20.9601 13.3417 20.9622 13.4239V16.0017H9.49545V12.2682C9.48428 11.945 9.58402 11.6277 9.7781 11.369C9.97217 11.1104 10.2489 10.9259 10.5623 10.8462H35.1844C35.5103 10.902 35.8023 11.0805 36.0007 11.345C36.199 11.6094 36.2886 11.9398 36.2509 12.2682V16.0017H34.3846ZM10.7401 20.4462H17.7623V21.7793H10.7401V20.4462ZM10.7401 23.6461H15.1846V24.9792H10.7401V23.6461ZM16.5177 23.6461H18.3844V24.9792H16.5177V23.6461ZM33.3177 38.4016C32.4696 38.4142 31.6275 38.2578 30.8405 37.9418C30.0534 37.6257 29.3371 37.1561 28.7333 36.5605C28.1295 35.9648 27.6503 35.2549 27.3235 34.4722C26.9968 33.6895 26.8291 32.8496 26.8302 32.0014C26.8276 31.1488 26.9937 30.304 27.3188 29.5157C27.6439 28.7275 28.1217 28.0113 28.7246 27.4083C29.3275 26.8054 30.0437 26.3276 30.832 26.0025C31.6203 25.6774 32.465 25.5114 33.3177 25.5139H34.1179C35.8333 25.7385 37.3915 26.6289 38.4559 27.9927C39.5203 29.3565 40.0055 31.0843 39.8067 32.8028C39.6609 34.0569 39.1334 35.236 38.2954 36.1804C37.7081 36.8838 36.9818 37.4583 36.1621 37.8679C35.2562 38.224 34.291 38.4051 33.3177 38.4016ZM33.3177 26.7571C32.488 26.7538 31.668 26.936 30.9177 27.2903C29.7095 27.9204 28.7963 28.9988 28.374 30.2943C27.9516 31.5899 28.0538 32.9993 28.6585 34.2204C29.2632 35.4415 30.3224 36.377 31.6088 36.8263C32.8952 37.2755 34.3065 37.2028 35.5399 36.6237C36.1755 36.2805 36.7465 35.8294 37.2274 35.2906C38.117 34.2505 38.5601 32.9014 38.4602 31.5364C38.3604 30.1715 37.7257 28.9012 36.6942 28.0017C35.8967 27.3589 34.9482 26.9305 33.9387 26.7571H33.3177ZM32.3401 34.6696C32.1753 34.6662 32.0173 34.6031 31.8957 34.4918L29.8512 32.4477L30.7399 31.5586L32.3401 33.1587L35.9843 29.5141L36.8734 30.4032L32.7859 34.4907C32.6639 34.6021 32.5053 34.6652 32.3401 34.6681V34.6696Z" fill="white"/></g><defs><clipPath id="clip0_5730_38580"><rect width="48" height="48" fill="white"/></clipPath></defs></svg>
