<svg data-name="Layer 1" xmlns="http://www.w3.org/2000/svg" viewBox="0 0 512 512"><path d="M256 6l54.37 250L256 506l-90.63-43.75V256h26.25V37.25z" fill="#9d5025" fill-rule="evenodd"/><path d="M346.62 49.75V256h-26.25v218.75L256 506V6z" fill="#f58536" fill-rule="evenodd"/><path d="M410.37 80.38L291 197.88l37.5 4.37 115-10z" fill="#6b3a19" fill-rule="evenodd"/><path d="M410.38 186l33.12 6.25V96.62L410.38 81z" fill="#f58536" fill-rule="evenodd"/><path d="M291 111.63l120-31.25V186l-120 12.5z" fill="#9d5025" fill-rule="evenodd"/><path d="M101.62 431.63l120-117.51-37.5-4.37-115.62 10z" fill="#fbbf93" fill-rule="evenodd"/><path d="M101.62 326.63l-33.12-6.88v95.62L101.62 431z" fill="#9d5025" fill-rule="evenodd"/><path d="M221 400.38l-120 31.25v-105l120-12.51z" fill="#f58536" fill-rule="evenodd"/></svg>