<svg data-name="Layer 1" xmlns="http://www.w3.org/2000/svg" viewBox="0 0 512 512"><path d="M116.61 411.51C59.74 411.51 6 380.31 6 322.4s47.16-87.4 65.19-90.5c-2.08-65.19 50.62-131.41 125.17-131.41s111.3 54.44 118.93 75.59c35-25.66 96-7.29 100.56 49.93 48.54 6.24 90.15 49.58 90.15 96.74s-39.53 88.76-109.22 88.76z" fill="#f89822"/><path d="M216.91 298.05a7.28 7.28 0 001.9 3.52 5 5 0 003.43.9H230a5.59 5.59 0 003.61-.9 7 7 0 001.71-3.6l13.89-58.08 14 58.17a6.32 6.32 0 001.72 3.61 5.4 5.4 0 003.6.9h7.8a5.74 5.74 0 003.42-.9 6.82 6.82 0 001.9-3.52l21.71-69.71a12.63 12.63 0 00.63-2.26 8.59 8.59 0 00.18-1.44 2 2 0 00-2.25-2.25h-8.42a6 6 0 00-3.52.9 7.62 7.62 0 00-1.8 3.51l-15.6 60.43-14.25-60.43a6 6 0 00-1.71-3.51 5.45 5.45 0 00-3.61-.9h-7.23a6.15 6.15 0 00-3.61.9c-.72.54-1.26 1.71-1.71 3.51l-14.07 59.7-15.15-59.71c-.54-1.71-1.08-3-1.8-3.51s-1.81-.9-3.52-.9h-8.84a2 2 0 00-2.17 2.25 16 16 0 00.82 3.61zm97 1.63a41.49 41.49 0 0010.37 3.61 60.13 60.13 0 0013.89 1.62A43 43 0 00351 303a29.28 29.28 0 0010-5.05 24.3 24.3 0 006.58-7.95 23.23 23.23 0 002.42-10.48 20.43 20.43 0 00-4.15-12.62c-2.8-3.7-7.49-6.59-14-8.66L339 254.18c-4.77-1.53-8.12-3.25-9.92-5a8.45 8.45 0 01-2-2.91 8.35 8.35 0 01-.67-3.49 8.72 8.72 0 014.23-8c2.8-1.71 6.86-2.53 12-2.53a41.44 41.44 0 0117.36 3.53 9.23 9.23 0 003.42 1.09c1.35 0 2.07-1 2.07-2.89v-4.24a4.83 4.83 0 00-.81-3 7.63 7.63 0 00-2.7-2.25 19.26 19.26 0 00-3.79-1.63c-1.62-.54-3.34-1-5.14-1.44s-3.79-.72-5.86-1a46.86 46.86 0 00-6-.36 39.43 39.43 0 00-11.37 1.54 28.7 28.7 0 00-9.38 4.69 23.32 23.32 0 00-6.49 7.41 20.2 20.2 0 00-2.43 10 21.44 21.44 0 004.51 13.08c3 4.05 7.84 7.12 14.42 9.2l13.08 4.05c4.42 1.45 7.49 3 9.11 4.7a8.8 8.8 0 012.44 6.31 9.71 9.71 0 01-4.68 8.59c-3.07 2-7.49 3-13.17 3a54.37 54.37 0 01-10.73-1.05 49.23 49.23 0 01-9.92-3.18c-.9-.37-1.73-.72-2.26-.9a5 5 0 00-1.62-.27c-1.35 0-2.07.9-2.07 2.79v4.6a6.31 6.31 0 00.53 2.53 6.48 6.48 0 002.7 2.53zm-152.84-43.83a70.86 70.86 0 00-9.54-.72c-9.28 0-16.59 2.34-22.09 7s-8.21 10.91-8.21 18.57c0 7.23 2.25 13 6.67 17.32s10.46 6.49 18 6.49q16 0 26.51-12.42c1 2.05 1.9 3.76 2.8 5.3a27.17 27.17 0 003.25 4.23 4.14 4.14 0 002.7 1.27 4.33 4.33 0 002.35-.82l5.68-3.78a3.54 3.54 0 001.71-2.71 3.9 3.9 0 00-.63-2.07 48.18 48.18 0 01-2.88-6.49 27.6 27.6 0 01-1-8h-.22v-29.24c0-9.92-2.53-17.32-7.49-22.19s-12.9-7.3-23.63-7.3A54.76 54.76 0 00141 222a52.17 52.17 0 00-11.36 4.06 6.71 6.71 0 00-2.52 1.89 5.88 5.88 0 00-.63 3.18v4.42c0 1.89.63 2.79 1.89 2.79a5.09 5.09 0 001.44-.27 25.19 25.19 0 003.18-1.17 71.9 71.9 0 019.74-3.06 41 41 0 019.74-1.18c6.94 0 11.81 1.36 14.7 4.15s4.24 7.58 4.24 14.43v6.59c-3.59-.83-7.02-1.53-10.35-1.98zm10.57 12.06v3.79a32.36 32.36 0 01-.9 7.84 14.25 14.25 0 01-3.06 5.77 20.14 20.14 0 01-8.57 5.8 29.13 29.13 0 01-9.29 1.62c-4.15 0-7.3-1.06-9.45-3.34s-3.34-5.32-3.34-9.56c0-4.51 1.42-7.94 4.4-10.38s7.4-3.6 13.44-3.6a66.65 66.65 0 018.47.53 72.59 72.59 0 018.3 1.53zm208.51 57c-3.25-4-31.12-7.39-48.07 4.51-2.62 1.9-2.17 4.42.72 4.06 9.65-1.17 30.93-3.7 34.72 1.17s-4.24 24.89-7.85 33.82c-1.06 2.71 1.27 3.79 3.7 1.71 15.88-13.33 20.02-41.18 16.78-45.26zm-29.31 16.94a268 268 0 01-102.36 20.92c-48.79 0-96-13.44-134.19-35.63-3.34-2-5.86 1.47-3.07 4 35.34 31.93 82.16 51.14 134.1 51.14 37.07 0 80.19-11.64 109.85-33.55 4.83-3.61.63-9.11-4.33-6.87z" fill="#fff"/></svg>