<svg data-name="Layer 1" xmlns="http://www.w3.org/2000/svg" viewBox="0 0 512 512"><path d="M256 506c138.75 0 250-106.88 250-240S394.75 26 256 26 6 132.87 6 266s111.25 240 250 240z" fill="#9d5025" fill-rule="evenodd"/><path d="M256 486c138.75 0 250-106.87 250-240S394.75 6 256 6 6 112.88 6 246s111.25 240 250 240z" fill="#f58536" fill-rule="evenodd"/><path d="M375.38 379.75l-50.63 18.75-65.63-163.75-91.87 157.5h-62.5L234.13 171l-15.63-38.75h-45v-52.5H256l12.5 31.88 8.13 20.62 17.49 43.13L356 331l43.13-16.25 19.37 48.75c0 .63-43.12 16.25-43.12 16.25z" fill="#fff" fill-rule="evenodd"/></svg>