<svg width="48" height="48" viewBox="0 0 48 48" fill="none" xmlns="http://www.w3.org/2000/svg"><g clip-path="url(#clip0_5730_38586)"><path d="M0 0H48V48H0V0Z" fill="#E7157B"/><path d="M35.5201 8H8.64013C8.47035 8 8.30754 8.06744 8.18749 8.18749C8.06744 8.30754 8 8.47035 8 8.64013V32.96C8 33.1298 8.06744 33.2926 8.18749 33.4126C8.30754 33.5327 8.47035 33.6001 8.64013 33.6001H21.7603C21.6573 33.1795 21.5865 32.7516 21.5488 32.3202H9.28025V9.28025H34.88V22.0801C35.321 22.2414 35.749 22.436 36.1603 22.6625V8.64013C36.1603 8.47035 36.0928 8.30754 35.9728 8.18749C35.8527 8.06744 35.6899 8 35.5201 8Z" fill="white"/><path d="M32.9585 13.7585H32.3187V11.1987C32.3187 11.0289 32.2513 10.8661 32.1312 10.7461C32.0112 10.626 31.8484 10.5586 31.6786 10.5586H29.1185C29.0344 10.5586 28.9512 10.5752 28.8736 10.6073C28.7959 10.6395 28.7254 10.6867 28.666 10.7461C28.6066 10.8056 28.5594 10.8761 28.5273 10.9538C28.4952 11.0314 28.4787 11.1147 28.4787 11.1987V13.7585H27.8386C27.6688 13.7585 27.506 13.8259 27.386 13.946C27.2659 14.066 27.1985 14.2288 27.1985 14.3986V16.9587C27.1985 17.0428 27.215 17.126 27.2472 17.2036C27.2794 17.2813 27.3265 17.3518 27.386 17.4112C27.4454 17.4706 27.516 17.5178 27.5937 17.5499C27.6713 17.582 27.7545 17.5985 27.8386 17.5985H28.4787V21.8866C28.8969 21.7519 29.3248 21.6492 29.7586 21.5795V17.5985H31.0385V21.4385H31.4161C31.7176 21.4373 32.0189 21.4524 32.3187 21.4835V17.5985H32.9585C33.0425 17.5985 33.1257 17.582 33.2034 17.5499C33.2811 17.5178 33.3516 17.4706 33.4111 17.4112C33.4705 17.3518 33.5177 17.2813 33.5499 17.2036C33.582 17.126 33.5986 17.0428 33.5986 16.9587V14.3986C33.5986 14.2288 33.5312 14.066 33.4111 13.946C33.2911 13.8259 33.1282 13.7585 32.9585 13.7585ZM29.7586 11.8385H31.0385V13.7585H29.7586V11.8385ZM32.3187 16.3186H28.4787V15.0387H32.3187V16.3186ZM24.6387 20.7987H23.9986V11.1987C23.9986 11.0289 23.9312 10.8661 23.8111 10.7461C23.6911 10.626 23.5282 10.5586 23.3585 10.5586H20.7987C20.6293 10.5584 20.4667 10.6254 20.3465 10.7449C20.2264 10.8644 20.1585 11.0266 20.1578 11.1961V20.8287H19.5185C19.4344 20.8287 19.3512 20.8453 19.2736 20.8775C19.1959 20.9096 19.1254 20.9568 19.066 21.0162C19.0066 21.0757 18.9594 21.1462 18.9273 21.2239C18.8952 21.3016 18.8787 21.3848 18.8787 21.4688V24.0286C18.8787 24.1126 18.8952 24.1959 18.9273 24.2735C18.9594 24.3512 19.0066 24.4218 19.066 24.4812C19.1254 24.5407 19.1959 24.5878 19.2736 24.62C19.3512 24.6522 19.4344 24.6687 19.5185 24.6687H20.1586V30.4287C20.1586 30.5985 20.226 30.7613 20.3461 30.8814C20.4661 31.0014 20.6289 31.0688 20.7987 31.0688H21.5281C21.5394 30.6398 21.5801 30.2121 21.65 29.7886H21.4385V24.6706H22.7187V26.6288C23.0735 25.9754 23.503 25.3655 23.9986 24.8112V24.6387H24.1265C24.4803 24.2492 24.8656 23.8895 25.2785 23.5632V21.4385C25.2785 21.2688 25.2111 21.1061 25.0911 20.9861C24.9711 20.8661 24.8084 20.7987 24.6387 20.7987ZM21.4385 11.8385H22.7187V20.7987H21.4385V11.8385ZM23.9986 23.3585H20.1586V22.0786H23.9986V23.3585ZM16.3186 15.6785H15.6785V11.1987C15.6785 11.1147 15.662 11.0314 15.6299 10.9538C15.5978 10.8761 15.5506 10.8056 15.4912 10.7461C15.4318 10.6867 15.3613 10.6395 15.2836 10.6073C15.206 10.5752 15.1228 10.5586 15.0387 10.5586H12.4786C12.3088 10.5586 12.146 10.626 12.026 10.7461C11.9059 10.8661 11.8385 11.0289 11.8385 11.1987V15.6785H11.1987C11.0289 15.6785 10.8661 15.7459 10.7461 15.866C10.626 15.986 10.5586 16.1488 10.5586 16.3186V18.8787C10.5586 18.9628 10.5752 19.046 10.6073 19.1236C10.6395 19.2013 10.6867 19.2718 10.7461 19.3312C10.8056 19.3906 10.8761 19.4378 10.9538 19.4699C11.0314 19.502 11.1147 19.5185 11.1987 19.5185H11.8385V30.3987C11.8385 30.4828 11.855 30.566 11.8872 30.6436C11.9194 30.7213 11.9665 30.7918 12.026 30.8512C12.0854 30.9106 12.156 30.9577 12.2337 30.9899C12.3113 31.022 12.3945 31.0385 12.4786 31.0385H15.0387C15.2084 31.0385 15.3711 30.9711 15.4911 30.8511C15.6111 30.7311 15.6785 30.5684 15.6785 30.3987V19.5185H16.3186C16.4026 19.5185 16.4859 19.502 16.5635 19.4699C16.6412 19.4378 16.7118 19.3906 16.7712 19.3312C16.8307 19.2718 16.8778 19.2013 16.91 19.1236C16.9422 19.046 16.9587 18.9628 16.9587 18.8787V16.3186C16.9587 16.1488 16.8913 15.986 16.7712 15.866C16.6512 15.7459 16.4884 15.6785 16.3186 15.6785ZM13.1187 11.8385H14.3986V15.6785H13.1187V11.8385ZM14.3986 29.7586H13.1187V19.5185H14.3986V29.7586ZM15.6785 18.2386H11.8385V16.9587H15.6785V18.2386ZM39.8003 29.3041C39.7364 29.244 39.6608 29.1976 39.5783 29.1679C39.4957 29.1382 39.4079 29.1257 39.3203 29.1312L38.5137 29.1762C38.373 28.716 38.1886 28.2702 37.9632 27.845L38.5632 27.3008C38.629 27.2448 38.682 27.1752 38.7184 27.0969C38.7549 27.0185 38.7739 26.9332 38.7743 26.8467C38.7776 26.7593 38.7628 26.6721 38.7308 26.5906C38.6989 26.5091 38.6505 26.4351 38.5887 26.3731L36.3425 24.1265C36.2145 24.005 36.0453 23.9364 35.8688 23.9345C35.7812 23.9371 35.695 23.9578 35.6157 23.9953C35.5364 24.0328 35.4657 24.0863 35.408 24.1523L34.8736 24.7602C34.4493 24.5311 34.0034 24.3446 33.5423 24.2033L33.5873 23.3971C33.593 23.3098 33.5805 23.2222 33.5509 23.1399C33.5212 23.0576 33.4749 22.9823 33.4148 22.9187C33.3548 22.8551 33.2823 22.8045 33.2018 22.7701C33.1214 22.7357 33.0347 22.7182 32.9472 22.7187H29.7458C29.5763 22.7183 29.4135 22.7852 29.2933 22.9048C29.1731 23.0243 29.1052 23.1867 29.1046 23.3562V23.396L29.1496 24.2022C28.6893 24.3429 28.2435 24.5272 27.8183 24.7527L27.2742 24.1527C27.2172 24.0865 27.147 24.0329 27.068 23.9954C26.9891 23.9579 26.9032 23.9373 26.8159 23.9348C26.7285 23.9324 26.6416 23.9482 26.5607 23.9813C26.4798 24.0143 26.4067 24.0639 26.3461 24.1268L24.1253 26.3735C24.0624 26.434 24.0128 26.5071 23.9797 26.588C23.9466 26.6688 23.9307 26.7557 23.9332 26.8431C23.9356 26.9304 23.9563 27.0163 23.9938 27.0952C24.0314 27.1741 24.085 27.2442 24.1512 27.3012L24.7512 27.8453C24.5258 28.2706 24.3415 28.7163 24.2007 29.1766L23.3945 29.1316C23.3072 29.126 23.2196 29.1384 23.1373 29.1681C23.055 29.1978 22.9797 29.2441 22.9161 29.3041C22.8524 29.3642 22.8018 29.4367 22.7674 29.5171C22.733 29.5976 22.7156 29.6842 22.7161 29.7717V32.9716C22.7156 33.0594 22.7332 33.1464 22.7679 33.2271C22.8025 33.3078 22.8535 33.3805 22.9176 33.4405C22.9817 33.5006 23.0575 33.5468 23.1403 33.5762C23.223 33.6056 23.311 33.6175 23.3986 33.6113L24.1985 33.5667C24.3399 34.0297 24.5264 34.4778 24.7553 34.9043L24.1553 35.4417C24.0891 35.4987 24.0355 35.5689 23.9979 35.6479C23.9604 35.7268 23.9397 35.8127 23.9373 35.9001C23.9349 35.9874 23.9507 36.0743 23.9838 36.1552C24.0169 36.2361 24.0665 36.3092 24.1295 36.3698L26.3761 38.6161C26.4367 38.679 26.5098 38.7285 26.5906 38.7616C26.6714 38.7946 26.7583 38.8105 26.8456 38.8081C26.9329 38.8057 27.0187 38.7851 27.0976 38.7476C27.1766 38.7102 27.2468 38.6567 27.3038 38.5906L27.8416 37.9906C28.2682 38.2195 28.7162 38.406 29.1792 38.5475L29.1342 39.3473C29.1242 39.5167 29.1817 39.6831 29.2942 39.81C29.4067 39.937 29.5649 40.0142 29.7342 40.0246H32.9735C33.061 40.0251 33.1476 40.0077 33.2281 39.9733C33.3085 39.9389 33.381 39.8883 33.4411 39.8246C33.5011 39.761 33.5474 39.6857 33.5771 39.6034C33.6068 39.5211 33.6192 39.4335 33.6136 39.3462L33.569 38.5463C34.0319 38.4048 34.4799 38.2183 34.9066 37.9895L35.4376 38.5895C35.4955 38.6553 35.5662 38.7086 35.6455 38.746C35.7248 38.7834 35.8109 38.8042 35.8985 38.807C36.0752 38.8066 36.245 38.7378 36.3721 38.615L38.6183 36.3687C38.6801 36.3067 38.7285 36.2327 38.7604 36.1512C38.7924 36.0697 38.8072 35.9826 38.804 35.8951C38.8036 35.8086 38.7846 35.7232 38.7481 35.6447C38.7117 35.5663 38.6587 35.4967 38.5928 35.4406L37.9928 34.9032C38.217 34.4752 38.4011 34.0274 38.543 33.5656L39.3496 33.6102C39.4369 33.6158 39.5244 33.6034 39.6067 33.5737C39.6891 33.544 39.7644 33.4977 39.828 33.4377C39.8916 33.3776 39.9422 33.3051 39.9766 33.2247C40.011 33.1443 40.0285 33.0576 40.028 32.9701V29.7713C40.0247 29.6819 40.0028 29.5941 39.9636 29.5137C39.9244 29.4332 39.8688 29.3618 39.8003 29.3041ZM38.7185 32.2737L38.0787 32.2362C37.9306 32.2326 37.7859 32.2804 37.6692 32.3715C37.5524 32.4627 37.4709 32.5916 37.4386 32.7361C37.2828 33.4168 37.0124 34.0661 36.6387 34.6561C36.5578 34.7842 36.5249 34.9368 36.546 35.0869C36.5671 35.237 36.6407 35.3747 36.7538 35.4755L37.2413 35.9041L35.9611 37.1825L35.5321 36.695C35.4313 36.582 35.2936 36.5085 35.1437 36.4874C34.9937 36.4663 34.8412 36.4991 34.7131 36.5798C34.1229 36.9545 33.4738 37.2271 32.7931 37.3861C32.6499 37.42 32.5227 37.5021 32.4329 37.6186C32.3431 37.7352 32.2962 37.8791 32.3 38.0262L32.3322 38.6663H30.4433L30.4808 38.0262C30.4844 37.8784 30.4367 37.7339 30.3458 37.6173C30.255 37.5006 30.1266 37.4189 29.9825 37.3861C29.3023 37.2254 28.6534 36.953 28.0625 36.5798C27.9344 36.4991 27.7818 36.4663 27.6319 36.4874C27.4819 36.5085 27.3443 36.582 27.2435 36.695L26.8145 37.1825L25.5361 35.9026L26.0236 35.474C26.1366 35.3731 26.2103 35.2354 26.2313 35.0854C26.2524 34.9354 26.2196 34.7827 26.1387 34.6546C25.764 34.0652 25.4935 33.4157 25.3388 32.7346C25.3064 32.5902 25.2248 32.4615 25.1081 32.3705C24.9914 32.2795 24.8467 32.2318 24.6987 32.2355L24.059 32.273V30.4433L24.6987 30.4808C24.8467 30.4844 24.9913 30.4365 25.108 30.3455C25.2247 30.2544 25.3063 30.1257 25.3388 29.9813C25.4927 29.3 25.7633 28.6504 26.1387 28.0613C26.2196 27.9333 26.2524 27.7807 26.2313 27.6307C26.2102 27.4808 26.1366 27.3431 26.0236 27.2423L25.5361 26.807L26.816 25.5271L27.2513 26.0146C27.3521 26.1276 27.4898 26.2012 27.6397 26.2223C27.7897 26.2434 27.9423 26.2106 28.0703 26.1297C28.6625 25.7603 29.311 25.4901 29.9903 25.3298C30.1347 25.2973 30.2634 25.2157 30.3545 25.099C30.4455 24.9823 30.4934 24.8377 30.4898 24.6897L30.4523 24.05H32.2763L32.2445 24.6897C32.2404 24.8367 32.2871 24.9805 32.3766 25.0971C32.4661 25.2137 32.5931 25.2959 32.7361 25.3298C33.4172 25.4845 34.0667 25.755 34.6561 26.1297C34.7842 26.2106 34.9369 26.2434 35.0869 26.2223C35.2369 26.2013 35.3746 26.1276 35.4755 26.0146L35.9105 25.5218L37.1903 26.8017L36.7028 27.2371C36.5899 27.3379 36.5163 27.4756 36.4953 27.6255C36.4742 27.7755 36.5069 27.928 36.5877 28.0561C36.9599 28.6467 37.2298 29.2958 37.3861 29.9761C37.4186 30.1205 37.5002 30.2491 37.6169 30.3401C37.7336 30.4311 37.8783 30.4788 38.0262 30.4752L38.6663 30.4377L38.7185 32.2737Z" fill="white"/><path d="M36.1724 28.6674L35.3402 30.6392C35.2915 30.755 35.2096 30.8539 35.1049 30.9234C35.0001 30.9928 34.8772 31.0298 34.7515 31.0296H34.681L32.5499 30.8046L32.6841 29.5247L33.6572 29.6267C33.3254 29.179 32.8703 28.8377 32.3476 28.6446C31.825 28.4514 31.2573 28.4148 30.7141 28.5391C30.1709 28.6634 29.6757 28.9433 29.2891 29.3446C28.9024 29.7459 28.6411 30.2511 28.537 30.7986L27.2571 30.5424C27.4165 29.7594 27.7988 29.0391 28.3579 28.4682C28.917 27.8972 29.6292 27.5 30.4087 27.3242C31.1882 27.1485 32.0019 27.2016 32.752 27.4774C33.502 27.7531 34.1563 28.2397 34.6364 28.8786L34.9881 28.1616L36.1724 28.6674ZM35.449 32.2063C35.294 32.9708 34.9266 33.6761 34.3888 34.2411C33.8511 34.8062 33.1649 35.2082 32.4091 35.4009C31.6532 35.5936 30.8584 35.5692 30.1157 35.3306C29.3731 35.0919 28.7128 34.6487 28.2108 34.0517L28.0697 34.5891L26.8281 34.2564L27.385 32.1699C27.4258 32.0173 27.5216 31.8851 27.6539 31.7989C27.7863 31.7126 27.9459 31.6784 28.102 31.7027L30.1499 32.0098L29.9579 33.2901L29.1389 33.1682C29.4764 33.5986 29.9301 33.9232 30.4465 34.1036C30.9628 34.284 31.52 34.3125 32.052 34.1859C32.5841 34.0593 33.0687 33.7829 33.4485 33.3893C33.8282 32.9957 34.0872 32.5014 34.1946 31.9652L35.449 32.2063Z" fill="white"/></g><defs><clipPath id="clip0_5730_38586"><rect width="48" height="48" fill="white"/></clipPath></defs></svg>
