<svg width="48" height="48" viewBox="0 0 48 48" fill="none" xmlns="http://www.w3.org/2000/svg"><g clip-path="url(#clip0_5730_38595)"><path d="M47.5 0.5H0.5V47.5H47.5V0.5Z" fill="url(#paint0_linear_5730_38595)"/><path d="M15.1883 31.6368H17.5383V30.4606H15.1883V31.6368ZM35.7337 22.9226C35.6016 21.1384 34.7291 19.8246 33.3432 19.3606C32.2275 18.9883 30.9985 19.2512 30.0626 20.0139C29.4951 18.8948 28.642 17.7986 27.9382 17.1041C25.4143 14.613 22.6307 13.9779 19.6627 15.2158C17.013 16.3184 14.6008 19.9404 14.6008 22.8156V22.9273C13.0104 23.4648 11.7273 24.6327 11.1192 26.1217L12.2073 26.5663C12.9822 24.6686 14.7958 24.0735 15.3334 23.9364C15.5936 23.87 15.7758 23.6353 15.7758 23.3666V22.8156C15.7758 20.4391 17.9243 17.2129 20.1145 16.3014C22.6378 15.2493 24.9278 15.7833 27.1133 17.9415C28.0428 18.8584 28.9516 20.2186 29.3235 21.2507C29.3964 21.4542 29.575 21.6006 29.7888 21.6329C30.0003 21.6653 30.2148 21.5776 30.3452 21.4048C30.9944 20.5415 32.0472 20.1674 32.9713 20.4762C33.9906 20.8178 34.5758 21.8846 34.5758 23.4036C34.5758 23.6912 34.7838 23.9364 35.0669 23.9835C35.4976 24.0552 39.2758 24.7956 39.2758 28.6964C39.2758 32.7365 35.3284 32.8117 35.1633 32.8129H21.6508V33.9891H35.1645C36.9928 33.9855 40.4508 32.8753 40.4508 28.6964C40.4508 25.0497 37.6772 23.4078 35.7337 22.9226ZM18.7133 31.6368H26.9383V30.4606H18.7133V31.6368ZM16.3633 33.9891H19.8883V32.8129H16.3633V33.9891ZM7.55078 33.9891H9.31328V32.8129H7.55078V33.9891ZM9.31328 29.2844H14.6008V28.1083H9.31328V29.2844ZM8.13828 31.6368H14.0133V30.4606H8.13828V31.6368ZM16.3633 29.2844H20.4758V28.1083H16.3633V29.2844ZM10.4883 33.9891H15.1883V32.8129H10.4883V33.9891Z" fill="white"/></g><defs><linearGradient id="paint0_linear_5730_38595" x1="0.5" y1="4700.5" x2="4700.5" y2="0.5" gradientUnits="userSpaceOnUse"><stop stop-color="#B0084D"/><stop offset="1" stop-color="#FF4F8B"/></linearGradient><clipPath id="clip0_5730_38595"><rect width="48" height="48" fill="white"/></clipPath></defs></svg>
