<svg xmlns="http://www.w3.org/2000/svg" viewBox="0 0 48 48"><path fill="currentColor" d="M24 28C26.6522 28 29.1949 29.0543 31.0703 30.9297C32.9457 32.8051 34 35.3478 34 38V42C34 43.1046 33.1046 44 32 44C30.8954 44 30 43.1046 30 42V38C30 36.4087 29.3674 34.883 28.2422 33.7578C27.2578 32.7734 25.967 32.1658 24.5938 32.0293L24 32H12C10.4087 32 8.88303 32.6326 7.75781 33.7578C6.63259 34.883 6 36.4087 6 38V42C6 43.1046 5.10457 44 4 44C2.89543 44 2 43.1046 2 42V38C2 35.3478 3.05432 32.8051 4.92969 30.9297C6.80505 29.0543 9.34783 28 12 28H24ZM38 14C39.1046 14 40 14.8954 40 16V20H44C45.1046 20 46 20.8954 46 22C46 23.1046 45.1046 24 44 24H40V28C40 29.1046 39.1046 30 38 30C36.8954 30 36 29.1046 36 28V24H32C30.8954 24 30 23.1046 30 22C30 20.8954 30.8954 20 32 20H36V16C36 14.8954 36.8954 14 38 14ZM18 4C23.5228 4 28 8.47715 28 14C28 19.5228 23.5228 24 18 24C12.4772 24 8 19.5228 8 14C8 8.47715 12.4772 4 18 4ZM18 8C14.6863 8 12 10.6863 12 14C12 17.3137 14.6863 20 18 20C21.3137 20 24 17.3137 24 14C24 10.6863 21.3137 8 18 8Z"/></svg>