<svg xmlns="http://www.w3.org/2000/svg" viewBox="0 0 48 48"><path fill="currentColor" d="M44.48,26.36c0-2.4-1.95-4.36-4.36-4.36h-12.24c-2.4,0-4.36,1.95-4.36,4.36v.61h-7.41v-10.97h4.01c2.4,0,4.36-1.95,4.36-4.36v-5.29c0-2.4-1.95-4.36-4.36-4.36H7.88c-2.4,0-4.36,1.95-4.36,4.36v5.29c0,2.4,1.95,4.36,4.36,4.36h4.23v21.33c0,2.78,2.26,5.04,5.04,5.04h6.45c.35,2.06,2.13,3.64,4.28,3.64h12.24c2.4,0,4.36-1.95,4.36-4.36v-5.29c0-.87-.26-1.68-.7-2.36.44-.68.7-1.49.7-2.36v-5.29h0ZM7.88,12c-.2,0-.36-.16-.36-.36v-5.29c0-.2.16-.36.36-.36h12.24c.2,0,.36.16.36.36v5.29c0,.2-.16.36-.36.36H7.88ZM23.52,36.36v2.01h-6.38c-.57,0-1.04-.46-1.04-1.04v-6.36h7.41v.68c0,.87.26,1.68.7,2.36-.44.68-.7,1.49-.7,2.36h.01ZM40.48,41.64c0,.2-.16.36-.36.36h-12.24c-.2,0-.36-.16-.36-.36v-5.29c0-.2.16-.36.36-.36h12.24c.2,0,.36.16.36.36v5.29ZM40.48,31.64c0,.2-.16.36-.36.36h-12.24c-.2,0-.36-.16-.36-.36v-5.29c0-.2.16-.36.36-.36h12.24c.2,0,.36.16.36.36v5.29Z"/></svg>