<svg xmlns="http://www.w3.org/2000/svg" viewBox="0 0 48 48"><path fill="currentColor" d="M42,27.01c-.53,0-1.04,.21-1.41,.59-.38,.38-.59,.88-.59,1.41v8c0,.53-.21,1.04-.59,1.41-.38,.38-.88,.59-1.41,.59H10c-.53,0-1.04-.21-1.41-.59-.38-.38-.59-.88-.59-1.41V17.83l11.76,11.76c1.13,1.12,2.65,1.75,4.24,1.75s3.12-.63,4.24-1.75l7.18-7.16c.38-.38,.59-.89,.59-1.42s-.21-1.04-.59-1.42c-.38-.38-.89-.59-1.42-.59s-1.04,.21-1.42,.59l-7.16,7.18c-.19,.19-.41,.34-.65,.44-.24,.1-.51,.15-.77,.15s-.53-.05-.77-.15c-.24-.1-.46-.25-.65-.44L10.82,15.01h23.18c.53,0,1.04-.21,1.41-.59,.38-.38,.59-.88,.59-1.41s-.21-1.04-.59-1.41c-.38-.38-.88-.59-1.41-.59H10c-1.59,0-3.12,.63-4.24,1.76-1.13,1.13-1.76,2.65-1.76,4.24v20c0,1.59,.63,3.12,1.76,4.24,1.13,1.13,2.65,1.76,4.24,1.76h28c1.59,0,3.12-.63,4.24-1.76,1.13-1.13,1.76-2.65,1.76-4.24v-8c0-.53-.21-1.04-.59-1.41-.38-.38-.88-.59-1.41-.59Zm0-18c.53,0,1.04-.21,1.42-.58l.24-.32c.08-.1,.14-.22,.18-.34,.07-.11,.13-.23,.16-.36,0-.13,0-.27,0-.4,0-.53-.21-1.04-.58-1.42-.19-.19-.41-.34-.65-.44-.24-.1-.51-.15-.77-.15s-.53,.05-.77,.15c-.24,.1-.46,.25-.65,.44-.19,.19-.34,.41-.44,.65s-.15,.51-.15,.77,.05,.53,.15,.77c.1,.24,.25,.46,.44,.65,.38,.37,.89,.57,1.42,.58Zm0,2c-.53,0-1.04,.21-1.41,.59-.38,.38-.59,.88-.59,1.41v8c0,.53,.21,1.04,.59,1.41,.38,.38,.88,.59,1.41,.59s1.04-.21,1.41-.59c.38-.38,.59-.88,.59-1.41v-8c0-.53-.21-1.04-.59-1.41-.38-.38-.88-.59-1.41-.59Z"/></svg>