<svg xmlns="http://www.w3.org/2000/svg" viewBox="0 0 48 48"><path fill="currentColor" d="M41.79,21.67c-.53,0-1.04,.21-1.41,.59-.37,.37-.59,.88-.59,1.41v12c0,.53-.21,1.04-.59,1.41s-.88,.59-1.41,.59H9.79c-.53,0-1.04-.21-1.41-.59-.38-.37-.59-.88-.59-1.41V16.49l11.76,11.78c1.12,1.11,2.64,1.74,4.22,1.74,1.62,0,3.17-.66,4.32-1.8l3.44-3.44c.38-.38,.59-.89,.59-1.42s-.21-1.04-.59-1.42c-.38-.38-.89-.59-1.42-.59s-1.04,.21-1.42,.59l-3.5,3.5c-.37,.37-.88,.57-1.4,.57s-1.03-.21-1.4-.57L10.61,13.67h15.18c.53,0,1.04-.21,1.41-.59,.37-.38,.59-.88,.59-1.41s-.21-1.04-.59-1.41-.88-.59-1.41-.59H9.79c-1.59,0-3.12,.63-4.24,1.76-1.13,1.13-1.76,2.65-1.76,4.24v20c0,1.59,.63,3.12,1.76,4.24s2.65,1.76,4.24,1.76h28c1.59,0,3.12-.63,4.24-1.76,1.13-1.13,1.76-2.65,1.76-4.24v-12c0-.53-.21-1.04-.59-1.41-.37-.38-.88-.59-1.41-.59Zm-1.18-10l2.6-2.58c.38-.38,.59-.89,.59-1.42s-.21-1.04-.59-1.42c-.38-.38-.89-.59-1.42-.59s-1.04,.21-1.42,.59l-2.58,2.6-2.58-2.6c-.19-.19-.41-.33-.65-.44-.24-.1-.5-.15-.77-.15-.53,0-1.04,.21-1.42,.59-.38,.38-.59,.89-.59,1.42s.21,1.04,.59,1.42l2.6,2.58-2.6,2.58c-.19,.19-.34,.41-.44,.65s-.15,.51-.15,.77,.05,.53,.15,.77c.1,.24,.25,.46,.44,.65,.19,.19,.41,.34,.65,.44,.24,.1,.51,.15,.77,.15s.53-.05,.77-.15c.24-.1,.46-.25,.65-.44l2.58-2.6,2.58,2.6c.19,.19,.41,.34,.65,.44,.24,.1,.51,.15,.77,.15s.53-.05,.77-.15c.24-.1,.46-.25,.65-.44,.19-.19,.34-.41,.44-.65,.1-.24,.15-.51,.15-.77s-.05-.53-.15-.77-.25-.46-.44-.65l-2.6-2.58Z"/></svg>