<svg xmlns="http://www.w3.org/2000/svg" viewBox="0 0 48 48"><path fill="currentColor" d="M10.16,17.93c2.34-5.29,7.64-9,13.79-9s11.48,3.73,13.81,9.05c.99-.55,2.13-.87,3.35-.87,.21,0,.42,.01,.62,.03-2.76-7.13-9.68-12.21-17.78-12.21S8.93,10.01,6.17,17.14c.24-.03,.48-.04,.73-.04,1.18,0,2.29,.3,3.26,.82Zm27.6,12.1c-2.33,5.32-7.64,9.05-13.81,9.05s-11.45-3.71-13.79-9c-.97,.52-2.08,.82-3.26,.82-.25,0-.49-.01-.73-.04,2.76,7.14,9.68,12.22,17.78,12.22s15.01-5.08,17.78-12.21c-.2,.02-.41,.03-.62,.03-1.21,0-2.35-.32-3.35-.87Zm3.35-8.92c-.82,0-1.56,.35-2.09,.9h-8.08c.36-1.5,1.08-2.9,2.13-4.06,.33-.37,.52-.87,.52-1.36,0-.8-.48-1.52-1.21-1.84-.74-.31-1.59-.16-2.17,.39-1.73,1.65-4,2.56-6.39,2.56s-4.49-.84-6.2-2.38c-.78-.71-1.98-.68-2.74,.06-.75,.74-.81,1.94-.12,2.74,.97,1.13,1.64,2.47,1.99,3.9h-7.76c-.53-.55-1.27-.9-2.09-.9-1.6,0-2.9,1.3-2.9,2.9s1.3,2.9,2.9,2.9c.82,0,1.56-.35,2.09-.9h7.83c-.29,1.44-.91,2.79-1.86,3.97-.65,.8-.58,1.97,.16,2.69,.74,.72,1.91,.76,2.69,.09,1.67-1.42,3.8-2.21,6-2.21s4.49,.84,6.19,2.37c.38,.34,.86,.51,1.34,.51,.5,0,1.01-.19,1.39-.56,.75-.73,.81-1.92,.13-2.73-1.01-1.19-1.68-2.62-1.99-4.13h8.15c.53,.55,1.27,.9,2.09,.9,1.6,0,2.9-1.3,2.9-2.9s-1.3-2.9-2.9-2.9Zm-14.14,5.81c-1.02-.25-2.08-.38-3.16-.38s-2.09,.12-3.09,.37c.19-.9,.29-1.82,.29-2.75s-.1-1.91-.31-2.83c2.04,.49,4.25,.48,6.28-.01-.2,.93-.31,1.88-.31,2.84s.1,1.86,.29,2.77Z"/></svg>