<svg xmlns="http://www.w3.org/2000/svg" viewBox="0 0 48 48"><path fill="currentColor" d="M27.9,6.56c.71,0,1.28-.57,1.28-1.28s-.57-1.28-1.28-1.28-1.28,.57-1.28,1.28,.57,1.28,1.28,1.28Zm5.19,29.48c-.95-.11-8.47-1.08-8.47-1.08-.6-.03-.63,.38-.38,1.04,.09,.22,.4,.97,.79,1.91-.23,.01-.48,.02-.74,.02-6.43,0-15.77-5.59-15.77-16.86,0-8.04,5.71-13.66,10.31-15.61,.9-.36,.66-1.26,.06-1.09-6.52,1.4-14.55,7.68-14.55,18.37s8.95,19.01,19.45,19.01c1.07,0,2.04-.2,2.72-.32,.32,.75,.59,1.37,.72,1.67,.5,1.13,.79,1.06,1.26,.48s4.49-5.88,4.8-6.28,.77-1.15-.22-1.26Zm6.84-17.18c1.43,0,2.59-1.16,2.59-2.59s-1.16-2.59-2.59-2.59-2.59,1.16-2.59,2.59,1.16,2.59,2.59,2.59Zm-4.63-7.55c1.1,0,2-.89,2-2s-.89-2-2-2-2,.89-2,2,.89,2,2,2Zm-4.32,3.29c-1.86,1.31-5.28,4.09-8.87,8.9-1.98-2.45-4.12-4.12-4.24-4.21-.83-.64-2.02-.49-2.66,.34-.64,.83-.49,2.02,.34,2.66,.03,.02,3.12,2.44,4.93,5.47,.33,.56,.93,.91,1.58,.93h.05c.63,0,1.23-.32,1.58-.85,3.78-5.69,7.56-8.79,9.47-10.14,.86-.6,1.07-1.79,.46-2.65-.6-.86-1.79-1.07-2.65-.46Zm9.85,7.23c-1.56,0-2.83,1.27-2.83,2.83s1.27,2.83,2.83,2.83,2.83-1.27,2.83-2.83-1.27-2.83-2.83-2.83Zm-3.12,7.78c-1.56,0-2.83,1.27-2.83,2.83s1.27,2.83,2.83,2.83,2.83-1.27,2.83-2.83-1.27-2.83-2.83-2.83Z"/></svg>