<svg xmlns="http://www.w3.org/2000/svg" viewBox="0 0 48 48"><path fill="currentColor" d="M37.18,4.74H10.32c-3.22,0-5.84,2.62-5.84,5.84v26.85c0,3.22,2.62,5.84,5.84,5.84h26.85c3.22,0,5.84-2.62,5.84-5.84V10.57c0-3.22-2.62-5.84-5.84-5.84ZM39.01,37.43c0,1.01-.82,1.84-1.84,1.84H10.32c-1.01,0-1.84-.82-1.84-1.84V10.57c0-1.01.82-1.84,1.84-1.84h26.85c1.01,0,1.84.82,1.84,1.84v26.85ZM32.55,30.97l-1.52-1.3c1.17-1.68,1.78-3.8,1.78-6.15,0-5.4-3.81-9.79-9.15-9.79s-9.15,4.26-9.15,9.79,3.75,9.79,9.15,9.79c1.81,0,3.38-.43,4.68-1.17l1.52,1.28c.72.61,1.2.85,1.78.85.9,0,1.83-.75,1.83-1.68,0-.74-.43-1.17-.93-1.62ZM28.03,26.93l-1.3-1.04c-.32-.21-.64-.35-1.01-.35-1.09,0-1.81.88-1.81,1.92,0,.37.21.8.51,1.06l.96.93c-.56.12-1.13.18-1.7.19-3.38,0-5-2.88-5-6.12s1.68-6.12,5-6.12,5,2.95,5,6.12c0,1.22-.19,2.39-.64,3.41Z"/></svg>