<svg xmlns="http://www.w3.org/2000/svg" viewBox="0 0 48 48"><path fill="currentColor" d="m32,16c-.68,0-1.34.04-2,.12v-2.12c0-2.21-1.79-4-4-4h-6v-6c0-2.21-1.79-4-4-4H4C1.79,0,0,1.79,0,4v12c0,2.21,1.79,4,4,4h6v6c0,2.21,1.79,4,4,4h2.12c-.08.66-.12,1.32-.12,2,0,8.84,7.16,16,16,16s16-7.16,16-16-7.16-16-16-16Zm-22-2v2h-6V4h12v6h-2c-2.21,0-4,1.79-4,4Zm4,12v-12h12v3.16c-4.01,1.62-7.21,4.83-8.84,8.84h-3.16Zm18,18c-3.62,0-6.87-1.61-9.07-4.15-1.82-2.1-2.93-4.85-2.93-7.85,0-6.63,5.37-12,12-12,3,0,5.75,1.1,7.85,2.93,2.54,2.2,4.15,5.45,4.15,9.07,0,6.63-5.37,12-12,12Zm0-22c-1.1,0-2,.9-2,2v10c0,1.1.9,2,2,2s2-.9,2-2v-10c0-1.1-.9-2-2-2Zm0,16c-1.1,0-2,.9-2,2s.9,2,2,2,2-.9,2-2-.9-2-2-2Z"/></svg>