<svg xmlns="http://www.w3.org/2000/svg" viewBox="0 0 48 48"><path fill="currentColor" d="M43.7,19.8c-.3-.4-.6-.6-1-.8l-3.8-1.2,1.8-3.5c.2-.4,.3-.8,.2-1.2,0-.4-.3-.8-.6-1.1l-4.3-4.3c-.3-.3-.7-.5-1.1-.6-.4,0-.9,0-1.2,.2l-3.5,1.8-1.2-3.8c0-.4-.4-.8-.8-1-.4-.3-.8-.4-1.1-.4h-6c-.4,0-.9,0-1.1,.4-.4,.3-.6,.6-.8,1l-1.2,3.8-3.5-1.8c-.4-.2-.8-.3-1.2-.2-.4,0-.8,.3-1.1,.6l-4.3,4.3c-.3,.3-.5,.7-.6,1.1,0,.4,0,.9,.2,1.2l1.8,3.5-3.8,1.2c-.4,0-.8,.4-1,.8-.3,.4-.4,.8-.4,1.1v6c0,.4,0,.9,.4,1.1,.3,.4,.6,.6,1,.8l3.8,1.2-1.8,3.5c-.2,.4-.3,.8-.2,1.2,0,.4,.3,.8,.6,1.1l4.3,4.3c.3,.3,.7,.5,1.1,.6,.4,0,.9,0,1.2-.2l3.5-1.8,1.2,3.8c0,.4,.4,.8,.8,1,.4,.3,.8,.4,1.1,.4h6c.4,0,.9,0,1.1-.4,.4-.3,.6-.6,.8-1l1.2-3.8,3.5,1.8c.4,.2,.8,.2,1.1,.2s.8-.3,1.1-.6l4.3-4.3c.3-.3,.5-.7,.6-1.1,0-.4,0-.9-.2-1.2l-1.8-3.5,3.8-1.2c.4,0,.8-.4,1-.8,.3-.4,.4-.8,.4-1.1v-6c0-.4,0-.9-.4-1.1h0Zm-3.6,5.7l-2.4,.8c-.6,.2-1.1,.5-1.5,.9-.4,.4-.8,.9-1,1.4s-.3,1.1-.3,1.7,.2,1.1,.5,1.6l1.1,2.3-2.2,2.2-2.2-1.2c-.5-.3-1.1-.4-1.6-.4s-1.1,0-1.7,.3c-.6,.2-1.1,.6-1.4,1s-.7,1-.9,1.4l-.8,2.4h-3.2l-.8-2.4c-.2-.6-.5-1.1-.9-1.5-.4-.4-.9-.8-1.4-1s-1.1-.3-1.7-.3-1.1,.2-1.6,.5l-2.3,1.1-2.2-2.2,1.2-2.2c.3-.5,.4-1.1,.5-1.6,0-.6,0-1.1-.3-1.7-.2-.6-.6-1.1-1-1.4s-1-.7-1.5-.9l-2.4-.8v-3.2l2.4-.8c.6-.2,1.1-.5,1.5-.9,.4-.4,.8-.9,1-1.4s.3-1.1,.3-1.7-.2-1.1-.5-1.6l-1.1-2.2,2.2-2.2,2.2,1.1c.5,.3,1.1,.4,1.6,.5,.6,0,1.1,0,1.7-.3,.6-.2,1.1-.6,1.4-1s.7-1,.9-1.5l.8-2.4h3.2l.8,2.4c.2,.6,.5,1.1,.9,1.5,.4,.4,.9,.8,1.4,1s1.1,.3,1.7,.3,1.1-.2,1.6-.5l2.3-1.1,2.2,2.2-1.2,2.2c-.3,.5-.4,1.1-.4,1.6s0,1.1,.3,1.7c.2,.6,.6,1.1,1,1.4s1,.7,1.4,.9l2.4,.8v3.2Zm-16.1-9.6c-1.6,0-3.2,.5-4.5,1.3-1.3,.9-2.4,2.1-3,3.6-.6,1.4-.8,3.1-.5,4.7,.3,1.5,1.1,3,2.2,4.1s2.6,1.9,4.1,2.2,3.2,.2,4.7-.5c1.4-.6,2.7-1.6,3.6-3,.9-1.3,1.3-2.9,1.3-4.5s-.9-4.2-2.4-5.6c-1.5-1.5-3.5-2.4-5.6-2.4Zm2.9,10.9c-.8,.8-1.8,1.1-2.9,1.1s-1.5-.2-2.2-.7c-.7-.5-1.1-1.1-1.4-1.8s-.4-1.5-.2-2.3c.2-.8,.6-1.5,1.1-2.1,.6-.6,1.2-1,2.1-1.1,.8-.2,1.6,0,2.3,.2,.8,.3,1.3,.9,1.8,1.4,.5,.7,.7,1.4,.7,2.2s-.4,2.1-1.1,2.9h0Z"/></svg>