<svg xmlns="http://www.w3.org/2000/svg" viewBox="0 0 48 48"><path fill="currentColor" d="M41.85,2.18H6.15c-2.15,0-3.9,1.75-3.9,3.9v25.71c0,2.15,1.75,3.9,3.9,3.9h1.38c.96,0,1.75-.79,1.75-1.75s-.79-1.75-1.75-1.75h-1.38c-.22,0-.4-.18-.4-.4v-15.46h36.5v15.46c0,.22-.18.4-.4.4h-1.43c-.96,0-1.75.79-1.75,1.75s.79,1.75,1.75,1.75h1.43c2.15,0,3.9-1.75,3.9-3.9V6.08c0-2.15-1.75-3.9-3.9-3.9ZM42.25,12.82H5.75v-6.74c0-.22.18-.4.4-.4h35.71c.22,0,.4.18.4.4v6.74h0ZM24.01,27.49c-1.08,0-2.13.32-3.03.92s-1.59,1.45-2.01,2.45-.52,2.09-.31,3.15c.21,1.06.73,2.02,1.49,2.79.77.76,1.73,1.28,2.79,1.49,1.04.21,2.15.1,3.15-.31s1.84-1.11,2.45-2.01c.6-.9.92-1.95.92-3.03,0-1.46-.57-2.82-1.6-3.85-1.03-1.03-2.4-1.6-3.85-1.6ZM25.41,34.34c-.37.37-.89.56-1.41.56-.38,0-.76-.1-1.08-.32-.33-.22-.58-.53-.73-.89s-.19-.76-.11-1.14c.08-.38.26-.73.54-1.01.28-.28.63-.46,1.01-.54.39-.08.78-.04,1.14.11.36.15.67.4.88.72.22.33.33.71.33,1.1,0,.52-.21,1.03-.58,1.4h.01ZM10.82,7.5c-.96,0-1.75.79-1.75,1.75s.79,1.75,1.75,1.75,1.75-.79,1.75-1.75-.79-1.75-1.75-1.75ZM34.6,33.42c-.11-.13-.17-.3-.17-.48s.06-.35.18-.48l1.58-1.78c.25-.28.4-.62.44-.98.04-.37-.04-.73-.23-1.05l-2.47-4.28c-.18-.32-.46-.57-.8-.72-.33-.15-.7-.19-1.06-.12l-2.33.47c-.18.03-.36,0-.51-.08-.16-.09-.28-.23-.33-.4l-.75-2.27c-.12-.35-.34-.64-.63-.85-.32-.23-.67-.34-1-.33h-4.92c-.38-.02-.76.08-1.08.3-.32.21-.55.53-.68.9l-.68,2.24c-.06.18-.18.32-.33.41s-.33.12-.52.08l-2.43-.48c-.33-.05-.67,0-.98.16-.31.15-.57.39-.75.69l-2.47,4.27c-.19.32-.28.68-.25,1.05.03.37.18.71.42.99l1.57,1.78c.12.13.18.31.18.49s-.06.35-.18.49l-1.58,1.79c-.24.28-.38.62-.42.99-.03.37.05.72.24,1.03l2.48,4.28c.18.32.46.57.79.72s.7.19,1.06.12l2.33-.47s.1-.01.15-.01c.13,0,.26.03.37.1.16.09.27.23.33.4l.76,2.27c.12.36.36.67.67.88.28.19.63.3.95.3h5.04c.37,0,.72-.11,1.01-.33.3-.21.52-.51.63-.86l.75-2.26c.06-.17.18-.32.33-.4.16-.09.34-.12.52-.08l2.32.47c.36.08.73.04,1.06-.12.34-.15.61-.4.8-.72l2.47-4.28c.18-.31.26-.69.23-1.05-.04-.37-.19-.71-.45-.99l-1.67-1.78v-.02ZM32.01,35.75l.75.84-1.22,2.12-1.11-.22c-1.01-.21-2.06-.04-2.96.48-.89.52-1.56,1.34-1.89,2.32l-.35,1.05h-2.44l-.34-1.07c-.32-.98-.99-1.8-1.89-2.32-.89-.52-1.94-.69-2.96-.48l-1.11.23-1.24-2.11.75-.84c.69-.77,1.07-1.77,1.07-2.81s-.38-2.03-1.07-2.81l-.75-.84,1.22-2.1,1.11.23c1.01.21,2.06.03,2.96-.48.89-.52,1.56-1.34,1.89-2.32l.36-1.06h2.45l.35,1.07c.32.98.99,1.81,1.89,2.33.89.51,1.94.69,2.96.48l1.11-.23,1.22,2.12-.75.84c-.68.77-1.06,1.76-1.06,2.79s.38,2.02,1.06,2.79h-.01ZM16.44,7.5c-.96,0-1.75.79-1.75,1.75s.79,1.75,1.75,1.75,1.75-.79,1.75-1.75-.79-1.75-1.75-1.75Z"/></svg>