<svg xmlns="http://www.w3.org/2000/svg" viewBox="0 0 48 48"><path fill="currentColor" d="M32.6,21.6c-.9-.6-2-.4-2.6,.5l-6.7,9.8c-.2,.2-.6,.3-.8,0,0,0,0,0,0,0l-4-3.9c-.8-.7-2-.7-2.7,0-.7,.7-.7,1.9,0,2.6l4,3.9c.8,.8,1.9,1.2,3.1,1.2h.3c1.2,0,2.4-.7,3.1-1.7,0,0,0,0,0,0l6.7-9.8c.5-.8,.4-1.8-.2-2.5,0,0,0,0-.1-.1h-.1Zm6.4,9.6c1,0,1.9-.8,1.9-1.9V13.6c0-3.7-3-6.7-6.7-6.7h-3.8v-2.1c0-1-.8-1.9-1.9-1.9h-8.4c-1,0-1.9,.9-1.9,1.9v2.1h-3.8c-3.7,0-6.7,3-6.7,6.7v24.3c0,3.7,3,6.7,6.7,6.7h19.8c3.7,0,6.7-3,6.7-6.7,0-1-.8-1.9-1.8-1.9-1,0-1.9,.8-1.9,1.9,0,1.6-1.3,2.9-2.9,2.9H14.4c-1.6,0-2.9-1.3-2.9-2.9V13.6c0-1.6,1.3-2.9,2.9-2.9h3.8v1.5c0,1.5,.5,2.7,1.6,3.6,1.1,1,2.6,1.5,4.5,1.5,4.5,0,6.1-2.6,6.1-5.1v-1.5h3.8c1.6,0,2.9,1.3,2.9,2.9v15.9c0,1,.8,1.9,1.9,1.9ZM26.6,12.1c0,.4,0,1.4-2.3,1.4s-2.3-.2-2.3-1.3V6.6h4.6v5.5Z"/></svg>