<svg xmlns="http://www.w3.org/2000/svg" viewBox="0 0 48 48"><path fill="currentColor" d="M26.9492 1.14844C27.3666 1.14795 27.7802 1.22921 28.166 1.38867C28.5524 1.54841 28.9037 1.78337 29.1992 2.0791C29.4946 2.37475 29.7283 2.726 29.8877 3.1123C30.0469 3.49815 30.1287 3.91173 30.1279 4.3291V7.93652C30.4426 8.05975 30.7537 8.19235 31.0605 8.33398L33.6279 5.77832C33.9215 5.4844 34.2703 5.25141 34.6543 5.09277C35.0381 4.9343 35.45 4.85252 35.8652 4.85352C36.283 4.85313 36.6975 4.93585 37.083 5.09668C37.4676 5.25715 37.8162 5.49293 38.1094 5.78906L42.2695 9.96973C42.5636 10.2651 42.7956 10.6155 42.9541 11.001C43.1126 11.3865 43.1936 11.7999 43.1924 12.2168C43.1911 12.6336 43.1081 13.0462 42.9473 13.4307C42.7866 13.8147 42.5512 14.1627 42.2559 14.4561L39.5996 17.1006C39.7194 17.3811 39.8317 17.6647 39.9365 17.9512L43.6914 17.9658H43.6934C44.5336 17.9708 45.338 18.3087 45.9297 18.9053C46.5212 19.5019 46.8517 20.3092 46.8496 21.1494L46.8281 27.0518V27.0547C46.8224 27.893 46.4861 28.6951 45.8916 29.2861C45.297 29.8772 44.4926 30.2092 43.6543 30.21H43.6445L39.6416 30.1865H39.626L39.6104 30.1855C39.1043 30.1642 38.626 29.9485 38.2754 29.583C37.9246 29.2172 37.7285 28.7294 37.7285 28.2227C37.7286 27.716 37.9247 27.229 38.2754 26.8633C38.626 26.4977 39.1042 26.2811 39.6104 26.2598L39.6309 26.2588L39.6514 26.2598L42.8975 26.2783L42.9219 21.8877L39.3877 21.8701C38.7234 21.8666 38.0764 21.6543 37.5391 21.2637C37.0018 20.873 36.6007 20.3232 36.3926 19.6924C36.2311 19.2074 36.0414 18.7308 35.8252 18.2676C35.5506 17.6764 35.464 17.0139 35.5781 16.3721C35.6923 15.7303 36.0014 15.139 36.4629 14.6787L36.4639 14.6777L38.957 12.1982L35.8613 9.08594L33.4512 11.4883L33.4502 11.4873C32.9797 11.9568 32.374 12.2675 31.7178 12.373C31.0621 12.4785 30.3895 12.3749 29.7959 12.0771L29.4326 11.9023C29.0663 11.7334 28.6919 11.5819 28.3115 11.4473C27.6933 11.2294 27.1577 10.8246 26.7783 10.29C26.3986 9.75488 26.1935 9.11516 26.1924 8.45898V5.08105H21.7998V8.40234L21.79 8.64844C21.7457 9.22151 21.546 9.77332 21.2109 10.2441C20.8281 10.782 20.287 11.1873 19.6631 11.4033L19.6592 11.4053C19.3034 11.5266 18.9529 11.6631 18.6094 11.8154L18.2676 11.9736C17.6717 12.2587 17.0013 12.3503 16.3506 12.2363C15.7 12.1223 15.1012 11.8084 14.6377 11.3379L12.3027 8.9668L9.18164 12.0479L11.543 14.4453L11.708 14.627C12.0762 15.0644 12.32 15.5948 12.4121 16.1621C12.5042 16.7294 12.4404 17.3094 12.2295 17.8408L12.1309 18.0645C11.8929 18.552 11.6849 19.0536 11.5078 19.5664L11.5068 19.5654C11.2925 20.1899 10.8891 20.7319 10.3516 21.1152C9.81397 21.4985 9.16999 21.703 8.50977 21.7021L8.49219 21.7031L5.11328 21.6855L5.08887 26.0762L8.5752 26.0947C9.22734 26.0992 9.86391 26.3048 10.3955 26.6826C10.927 27.0604 11.3292 27.5927 11.5479 28.207C11.7209 28.6931 11.922 29.1687 12.1494 29.6318L12.25 29.8594C12.4647 30.398 12.5281 30.9867 12.4307 31.5615C12.3193 32.2184 12.0044 32.8239 11.5293 33.291L11.5283 33.29L9.04492 35.7588L12.1426 38.873L14.7168 36.3193L14.7178 36.3184C15.1814 35.8595 15.7751 35.5536 16.418 35.4434C17.0608 35.3332 17.7226 35.424 18.3125 35.7021C18.7524 35.9107 19.2047 36.0955 19.665 36.2539C20.2895 36.4689 20.8316 36.8733 21.2148 37.4111C21.5978 37.9488 21.8043 38.5928 21.8037 39.2529V42.8838H26.1963V39.9043C26.1963 39.3839 26.4035 38.8846 26.7715 38.5166C27.1395 38.1486 27.6388 37.9415 28.1592 37.9414C28.6796 37.9414 29.1788 38.1487 29.5469 38.5166C29.9149 38.8846 30.122 39.3838 30.1221 39.9043V43.6367C30.1213 44.4777 29.7871 45.2842 29.1924 45.8789C28.6349 46.4364 27.8911 46.7651 27.1074 46.8047L26.9492 46.8086H21.0508C20.2096 46.8079 19.4024 46.4737 18.8076 45.8789C18.213 45.2842 17.8787 44.4777 17.8779 43.6367V39.7754C17.6195 39.6773 17.3637 39.5723 17.1104 39.4619L14.3779 42.1797L14.377 42.1787C13.7815 42.7716 12.9761 43.1054 12.1357 43.1055C11.2951 43.1054 10.4881 42.7721 9.89258 42.1787L9.89062 42.1758L5.73047 37.9951C5.43685 37.7 5.20426 37.3489 5.0459 36.9639C4.88737 36.5783 4.80638 36.1649 4.80762 35.748C4.80889 35.3313 4.89195 34.9187 5.05273 34.5342C5.21352 34.1497 5.44838 33.8004 5.74414 33.5068L8.38672 30.8828C8.25834 30.6003 8.13715 30.3145 8.02441 30.0254L4.30664 30.0049C3.46562 29.9992 2.65987 29.6604 2.06836 29.0625C1.47683 28.4644 1.14686 27.6556 1.15039 26.8145L1.18164 20.9111C1.18731 20.0753 1.52185 19.2743 2.11328 18.6836C2.70501 18.0929 3.50666 17.7591 4.34277 17.7549H4.37305L7.9707 17.7734C8.09279 17.4521 8.22504 17.1347 8.36621 16.8213L5.84668 14.2637C5.55418 13.9668 5.32363 13.6147 5.16699 13.2285C5.01034 12.8422 4.93139 12.4286 4.93457 12.0117C4.9378 11.5947 5.02289 11.1818 5.18555 10.7979C5.34818 10.414 5.58467 10.0658 5.88184 9.77344L10.085 5.63965L10.2002 5.53125C10.7866 5.00969 11.5474 4.72251 12.3359 4.72852C13.1247 4.73462 13.8815 5.03363 14.46 5.56445L14.5732 5.67383L14.5742 5.6748L17.0645 8.20605C17.3325 8.08808 17.604 7.97759 17.8779 7.87402V4.3291C17.8772 3.91242 17.9585 3.49957 18.1172 3.11426C18.2761 2.72846 18.5092 2.37759 18.8037 2.08203C19.0983 1.78648 19.4487 1.55182 19.834 1.3916C20.2194 1.23139 20.6334 1.1488 21.0508 1.14844H26.9492ZM23.7236 14.0156C25.8605 14.0998 27.9369 14.9555 29.8057 16.5166C31.3536 17.8095 32.2009 19.1441 32.667 20.4229C33.0119 21.3693 33.1386 22.2644 33.2051 23.0273L33.2568 23.7432C33.332 24.9075 33.4038 25.2864 33.625 25.5742C36.85 28.9612 38.8247 30.9194 40.2715 32.3525L41.7227 33.7979C41.942 34.0197 42.1538 34.2365 42.3633 34.4541L42.9912 35.1172L42.9922 35.1191C43.5166 35.6855 44.6333 36.8763 45.1055 38.4082C45.3479 39.195 45.4265 40.0881 45.167 41.0352C44.9078 41.9808 44.3286 42.9152 43.3594 43.8154C42.1444 44.9449 40.9047 45.4287 39.6797 45.4287C38.3651 45.4287 37.2201 44.8648 36.3262 44.2334C35.4303 43.6006 34.7114 42.8441 34.2588 42.3711C32.5052 40.5347 27.2554 35.2344 25.2861 33.248C23.6117 33.5109 20.4106 33.6251 17.5537 31.4609C15.5074 29.9122 14.5805 27.8435 14.166 26.1738C13.7601 24.5386 13.8314 23.2355 13.8457 23.0439L13.8584 22.9199C13.8969 22.6306 13.9993 22.3529 14.1592 22.1074C14.3419 21.827 14.5934 21.5973 14.8896 21.4414C15.1858 21.2856 15.517 21.2086 15.8516 21.2168C16.1855 21.225 16.512 21.3178 16.7998 21.4873L20.9697 23.9375C21.123 23.8698 21.3051 23.7625 21.4805 23.5811C21.7228 23.3302 21.9962 22.8992 22.1553 22.1543C19.2849 20.3707 17.7261 19.3777 17.5762 19.2812C17.5745 19.2802 17.573 19.2794 17.5713 19.2783C17.5679 19.2761 17.5645 19.2744 17.5645 19.2744C17.3006 19.102 17.0815 18.8684 16.9268 18.5938C16.7697 18.3148 16.6823 18.0017 16.6738 17.6816C16.6654 17.3617 16.7359 17.0446 16.8779 16.7578C17.0201 16.4709 17.2305 16.2233 17.4902 16.0361L17.4912 16.0352C19.4584 14.6224 21.5863 13.9315 23.7236 14.0156ZM23.9268 17.959C23.5572 17.9185 23.1966 17.922 22.8467 17.9609C23.5465 18.3969 24.3618 18.9038 25.2871 19.4785C25.5783 19.6598 25.8179 19.9147 25.9805 20.2168C26.1429 20.5188 26.224 20.8583 26.2148 21.2012V21.209C26.1228 23.722 25.2606 25.4254 24.1143 26.5029C22.9894 27.5602 21.6495 27.9575 20.6729 27.9756L20.6738 27.9766L20.6699 27.9756L20.6689 27.9766L20.668 27.9756C20.3513 27.9819 20.0382 27.9131 19.7559 27.7725L19.6367 27.707L18.9111 27.2812C19.1829 27.6606 19.5164 28.0191 19.9277 28.3311L20.1494 28.4893C21.2639 29.2461 22.4984 29.4539 23.5146 29.4541C24.6027 29.4543 25.3718 29.2162 25.3232 29.2324L25.334 29.2285L25.3457 29.2256C25.5338 29.1687 25.7293 29.1393 25.9258 29.1396H25.9287C26.4319 29.1424 26.9137 29.3392 27.2764 29.6865C27.2789 29.6888 27.2861 29.6954 27.2959 29.7051C27.2996 29.7087 27.3039 29.7122 27.3076 29.7158C27.8339 30.2358 34.9842 37.4406 37.0996 39.6582C38.3228 40.9396 39.051 41.3756 39.5049 41.4688C39.8319 41.5358 40.1393 41.4477 40.6875 40.9385L40.8018 40.8311C41.3266 40.3207 41.4262 40.0514 41.4131 39.8213C41.3942 39.491 41.1378 38.9021 40.1104 37.7939L40.1094 37.793C39.3306 36.9509 38.5742 36.2041 37.5068 35.1465C36.0359 33.6873 34.0169 31.6874 30.7158 28.2178L30.707 28.208L30.6982 28.1992L30.6475 28.1426L30.626 28.1172C29.4947 26.7532 29.4152 25.2047 29.3369 24.0029V23.999C29.2842 23.1422 29.2345 22.444 28.9775 21.7461C28.7295 21.0725 28.2656 20.346 27.2939 19.5342C26.066 18.5079 24.9309 18.069 23.9268 17.959Z"/></svg>