<svg xmlns="http://www.w3.org/2000/svg" viewBox="0 0 48 48"><path fill="currentColor" d="M43.65,21.65h-1.56c-1.15-8.92-8.79-15.83-18.02-15.83S7.23,12.73,6.07,21.65h-1.72c-1.3,0-2.35,1.05-2.35,2.35s1.05,2.35,2.35,2.35h1.73c1.15,8.91,8.78,15.83,18.01,15.83s16.84-6.91,18.01-15.83h1.56c1.3,0,2.35-1.05,2.35-2.35s-1.05-2.35-2.35-2.35ZM37.32,26.35h2.13c-1.14,7.46-7.59,13.21-15.37,13.21s-14.22-5.74-15.37-13.21h1.96c1.3,0,2.35-1.05,2.35-2.35s-1.05-2.35-2.35-2.35h-1.96c1.14-7.46,7.59-13.21,15.37-13.21s14.22,5.74,15.37,13.21h-2.13c-1.3,0-2.35,1.05-2.35,2.35s1.05,2.35,2.35,2.35Z"/></svg>