<svg xmlns="http://www.w3.org/2000/svg" viewBox="0 0 48 48"><path fill="currentColor" d="M43.3,21.99h-18.49v-3.98h2.41c.94,0,1.71-.76,1.71-1.71v-7.81c0-.94-.76-1.71-1.71-1.71h-6.65c-.94,0-1.71.76-1.71,1.71v7.81c0,.94.76,1.71,1.71,1.71h2.41v3.98H4.7c-.94,0-1.71.76-1.71,1.71v5.6c0,.94.76,1.71,1.71,1.71h3.36v5.63c-.86.36-1.46,1.21-1.46,2.2,0,1.32,1.07,2.38,2.38,2.38s2.38-1.07,2.38-2.38c0-.99-.6-1.84-1.46-2.2v-5.63h8.12v5.63c-.86.36-1.46,1.21-1.46,2.2,0,1.32,1.07,2.38,2.38,2.38s2.38-1.07,2.38-2.38c0-.99-.6-1.84-1.46-2.2v-5.63h8.12v5.63c-.86.36-1.46,1.21-1.46,2.2,0,1.32,1.07,2.38,2.38,2.38s2.38-1.07,2.38-2.38c0-.99-.6-1.84-1.46-2.2v-5.63h8.12v5.63c-.86.36-1.46,1.21-1.46,2.2,0,1.32,1.07,2.38,2.38,2.38s2.38-1.07,2.38-2.38c0-.99-.6-1.84-1.46-2.2v-5.63h3.51c.94,0,1.71-.76,1.71-1.71v-5.6c0-.94-.76-1.71-1.71-1.71Z"/></svg>