<svg xmlns="http://www.w3.org/2000/svg" viewBox="0 0 48 48"><path fill="currentColor" d="M15.3,31.4c1,0,1.8-.8,1.8-1.7,0-3.8,3.1-6.8,6.9-6.9,0,0,0,0,0,0s0,0,0,0c3.8,0,6.8,3.1,6.9,6.9,0,1,.8,1.7,1.8,1.7h0c1,0,1.7-.8,1.7-1.8,0-3.9-2.2-7.3-5.4-9.1,1.1-1.2,1.8-2.9,1.8-4.7,0-3.8-3.1-6.9-6.9-6.9s-6.9,3.1-6.9,6.9,.7,3.4,1.8,4.7c-3.2,1.8-5.4,5.2-5.4,9.1,0,1,.8,1.8,1.7,1.8ZM24,12.6c1.9,0,3.4,1.5,3.4,3.4s-1.5,3.3-3.3,3.4c0,0,0,0,0,0s0,0,0,0c-1.8,0-3.3-1.5-3.3-3.4s1.5-3.4,3.4-3.4ZM38.3,2.2H9.7c-2.7,0-4.9,2.2-4.9,4.9V40.9c0,2.7,2.2,4.9,4.9,4.9h28.6c2.7,0,4.9-2.2,4.9-4.9V7.1c0-2.7-2.2-4.9-4.9-4.9Zm1.4,38.6c0,.8-.6,1.4-1.4,1.4H9.7c-.8,0-1.4-.6-1.4-1.4V7.1c0-.8,.6-1.4,1.4-1.4h28.6c.8,0,1.4,.6,1.4,1.4V40.9Zm-5.7-6.6H14c-1,0-1.8,.8-1.8,1.8s.8,1.8,1.8,1.8h20.1c1,0,1.8-.8,1.8-1.8s-.8-1.8-1.8-1.8Z"/></svg>