<svg xmlns="http://www.w3.org/2000/svg" viewBox="0 0 48 48"><path fill="currentColor" d="M24,28H10c-2.67,0-5.18,1.04-7.07,2.93C1.04,32.82,0,35.33,0,38v4c0,1.11,.9,2,2,2s2-.89,2-2v-4c0-1.58,.64-3.13,1.76-4.24,1.13-1.13,2.64-1.76,4.24-1.76h14c1.6,0,3.11,.63,4.24,1.76,1.13,1.13,1.76,2.64,1.76,4.24v4c0,1.11,.89,2,2,2s2-.89,2-2v-4c0-2.67-1.04-5.18-2.93-7.07-1.89-1.89-4.4-2.93-7.07-2.93Zm19.83-7l3.59-3.59c.78-.78,.78-2.05,0-2.83s-2.05-.78-2.83,0l-3.59,3.59-3.59-3.59c-.78-.78-2.05-.78-2.83,0s-.78,2.05,0,2.83l3.59,3.59-3.59,3.59c-.78,.78-.78,2.05,0,2.83,.39,.39,.9,.58,1.41,.58s1.02-.19,1.41-.58l3.59-3.59,3.59,3.59c.39,.39,.9,.58,1.41,.58s1.02-.19,1.41-.58c.78-.78,.78-2.05,0-2.83l-3.59-3.59Zm-26.83,3c5.51,0,10-4.49,10-10s-4.49-10-10-10S7,8.49,7,14s4.49,10,10,10Zm0-16c3.31,0,6,2.69,6,6s-2.69,6-6,6-6-2.69-6-6,2.69-6,6-6Z"/></svg>