<svg xmlns="http://www.w3.org/2000/svg" viewBox="0 0 48 48"><path fill="currentColor" d="M29.62,24.56c1.27-1.36,1.98-3.14,2-5,0-2.01-.8-3.93-2.21-5.35-1.42-1.42-3.34-2.21-5.35-2.21s-3.93,.8-5.35,2.21c-1.42,1.42-2.21,3.34-2.21,5.35,.02,1.86,.73,3.64,2,5-1.76,.88-3.28,2.18-4.41,3.79-1.13,1.61-1.85,3.48-2.09,5.43-.06,.53,.1,1.06,.43,1.48,.33,.42,.82,.68,1.35,.74,.53,.06,1.06-.1,1.48-.43,.42-.33,.68-.82,.74-1.35,.24-1.94,1.18-3.72,2.64-5.01,1.46-1.29,3.35-2.01,5.3-2.01s3.84,.71,5.3,2.01c1.46,1.29,2.4,3.08,2.64,5.01,.06,.51,.31,.98,.7,1.32,.4,.33,.9,.5,1.42,.46h.22c.52-.06,1-.33,1.33-.74,.33-.41,.48-.94,.43-1.46-.22-1.94-.91-3.81-2.02-5.42-1.11-1.61-2.6-2.92-4.34-3.82Zm-5.62-1.44c-.7,0-1.39-.21-1.98-.6-.59-.39-1.04-.95-1.31-1.6-.27-.65-.34-1.37-.2-2.06s.48-1.32,.97-1.82c.5-.5,1.13-.84,1.82-.97,.69-.14,1.41-.07,2.06,.2,.65,.27,1.21,.73,1.6,1.31,.39,.59,.6,1.27,.6,1.98,0,.94-.38,1.85-1.04,2.52-.67,.67-1.57,1.04-2.52,1.04ZM38,4H10c-1.59,0-3.12,.63-4.24,1.76s-1.76,2.65-1.76,4.24v28c0,1.59,.63,3.12,1.76,4.24,1.13,1.13,2.65,1.76,4.24,1.76h28c1.59,0,3.12-.63,4.24-1.76,1.13-1.13,1.76-2.65,1.76-4.24V10c0-1.59-.63-3.12-1.76-4.24-1.13-1.13-2.65-1.76-4.24-1.76Zm2,34c0,.53-.21,1.04-.59,1.41s-.88,.59-1.41,.59H10c-.53,0-1.04-.21-1.41-.59-.38-.38-.59-.88-.59-1.41V10c0-.53,.21-1.04,.59-1.41,.38-.38,.88-.59,1.41-.59h28c.53,0,1.04,.21,1.41,.59,.38,.38,.59,.88,.59,1.41v28Z"/></svg>