<svg xmlns="http://www.w3.org/2000/svg" viewBox="0 0 48 48"><path fill="currentColor" d="M20,8c-4.42,0-8,3.58-8,8s3.58,8,8,8,8-3.58,8-8-3.58-8-8-8Zm-12,8c0-6.63,5.37-12,12-12s12,5.37,12,12-5.37,12-12,12-12-5.37-12-12ZM33.66,7.51c.78-.78,2.05-.78,2.83,0,4.69,4.69,4.69,12.28,0,16.97-.78,.78-2.05,.78-2.83,0-.78-.78-.78-2.05,0-2.83,3.12-3.12,3.12-8.19,0-11.31-.78-.78-.78-2.05,0-2.83Zm1.4,26c.27-1.07,1.35-1.72,2.43-1.46,2.66,.66,4.34,2.36,5.3,4.3,.94,1.87,1.21,3.96,1.21,5.64,0,1.1-.9,2-2,2s-2-.9-2-2c0-1.31-.22-2.73-.79-3.86-.53-1.07-1.35-1.87-2.7-2.2-1.07-.27-1.72-1.35-1.46-2.43Zm-22.06,2.49c-2.52,0-5,2.43-5,6,0,1.1-.9,2-2,2s-2-.9-2-2c0-5.26,3.79-10,9-10h14c5.21,0,9,4.74,9,10,0,1.1-.9,2-2,2s-2-.9-2-2c0-3.57-2.48-6-5-6H13Z"/></svg>