<svg xmlns="http://www.w3.org/2000/svg" viewBox="0 0 48 48"><path fill="currentColor" d="M40.8,14.3c0,0,0-.1-.1-.2,0,0-.1-.2-.2-.2h-.2l-.3-.3L24.9,4.3c-.3-.2-.7-.3-1.1-.3s-.7,.1-1.1,.3L7.9,13.6l-.2,.2h-.2c0,.2-.1,.3-.2,.4,0,0,0,.1-.1,.2v.5c-.1,.2-.1,.3-.1,.5v17.5c0,.3,0,.7,.3,1,.2,.3,.4,.5,.7,.7l15,9.3c0,0,.2,0,.3,.1h.2c.3,.1,.7,.1,1,0h.2c.1,0,.2,0,.3-.1l14.9-9.3c.3-.2,.5-.4,.7-.7,.2-.3,.3-.6,.3-1V15.3c0-.2,0-.3,0-.5v-.5Zm-19,24.2l-11-6.8v-12.8l11,6.8v12.8Zm2-16.3l-11.2-6.9,11.2-6.9,11.2,6.9-11.2,6.9Zm13,9.5l-11,6.8v-12.8l11-6.8v12.8Z"/></svg>