<svg xmlns="http://www.w3.org/2000/svg" viewBox="0 0 48 48"><path fill="currentColor" d="M28,22h-8c-1.06,0-2.08-.42-2.83-1.17-.75-.75-1.17-1.77-1.17-2.83s.42-2.08,1.17-2.83c.75-.75,1.77-1.17,2.83-1.17h10c.53,0,1.04,.21,1.41,.59,.38,.38,.59,.88,.59,1.41s.21,1.04,.59,1.41c.38,.38,.88,.59,1.41,.59s1.04-.21,1.41-.59c.38-.38,.59-.88,.59-1.41,0-1.59-.63-3.12-1.76-4.24-1.13-1.13-2.65-1.76-4.24-1.76h-4V6c0-.53-.21-1.04-.59-1.41-.38-.38-.88-.59-1.41-.59s-1.04,.21-1.41,.59c-.38,.38-.59,.88-.59,1.41v4h-2c-2.12,0-4.16,.84-5.66,2.34-1.5,1.5-2.34,3.54-2.34,5.66s.84,4.16,2.34,5.66c1.5,1.5,3.54,2.34,5.66,2.34h8c1.06,0,2.08,.42,2.83,1.17s1.17,1.77,1.17,2.83-.42,2.08-1.17,2.83c-.75,.75-1.77,1.17-2.83,1.17h-10c-.53,0-1.04-.21-1.41-.59-.38-.38-.59-.88-.59-1.41s-.21-1.04-.59-1.41c-.38-.38-.88-.59-1.41-.59s-1.04,.21-1.41,.59c-.38,.38-.59,.88-.59,1.41,0,1.59,.63,3.12,1.76,4.24,1.13,1.13,2.65,1.76,4.24,1.76h4v4c0,.53,.21,1.04,.59,1.41s.88,.59,1.41,.59,1.04-.21,1.41-.59,.59-.88,.59-1.41v-4h2c2.12,0,4.16-.84,5.66-2.34,1.5-1.5,2.34-3.53,2.34-5.66s-.84-4.16-2.34-5.66c-1.5-1.5-3.53-2.34-5.66-2.34Z"/></svg>