<svg xmlns="http://www.w3.org/2000/svg" viewBox="0 0 48 48"><path fill="currentColor" d="M29.5488 3.55078C30.5773 3.55078 31.5801 3.73706 32.5527 4.1084C33.5388 4.48489 34.423 5.06758 35.2031 5.84766L44.1523 14.7969C44.9325 15.577 45.5214 16.4683 45.9141 17.4678C46.3028 18.4571 46.499 19.4694 46.499 20.501C46.499 21.5325 46.3029 22.5373 45.9131 23.5117C45.5201 24.4942 44.931 25.3756 44.1523 26.1543L27.3027 43.0039C26.8253 43.4813 26.2803 43.8523 25.6699 44.1113C25.0581 44.3707 24.4156 44.501 23.749 44.501C22.5107 44.5009 21.407 44.0356 20.4561 43.1396C19.5938 42.3269 19.0459 41.3356 18.8154 40.1807C17.7374 39.958 16.809 39.4671 16.0459 38.7041C15.2819 37.94 14.7896 37.0105 14.5674 35.9307C13.4866 35.706 12.5621 35.2047 11.8125 34.4219C11.073 33.6493 10.592 32.7332 10.3701 31.6855C9.19253 31.4603 8.19191 30.9333 7.38867 30.0967C6.49852 29.1692 6.04887 28.045 6.04883 26.751C6.04883 26.1191 6.17033 25.4916 6.40723 24.8721C6.64919 24.2393 7.01286 23.6796 7.49512 23.1973L16.5957 14.0977C17.2601 13.4332 18.0891 13.1007 19.0488 13.1006C20.0088 13.1006 20.8385 13.4332 21.5029 14.0977L24.9023 17.4971C25.1312 17.7258 25.3764 17.8998 25.6367 18.0234C25.8976 18.147 26.1352 18.2011 26.3496 18.2012C26.6187 18.201 26.9066 18.0865 27.2207 17.7725C27.5352 17.458 27.6494 17.1697 27.6494 16.9004C27.6493 16.7957 27.618 16.6444 27.5215 16.4375C27.4368 16.2559 27.2852 16.044 27.0459 15.8047L19.8955 8.6543C19.5115 8.27027 19.0706 7.98424 18.5703 7.79297C18.0568 7.59668 17.5502 7.50098 17.0488 7.50098C16.5479 7.50106 16.0515 7.59647 15.5576 7.79102C15.074 7.98158 14.6396 8.26778 14.2529 8.6543L6.65234 16.2539C6.06224 16.844 5.70229 17.5557 5.56836 18.4033C5.43332 19.2586 5.52924 20.0688 5.85449 20.8438L5.92871 21.0322C6.07772 21.4749 6.05055 21.9307 5.85742 22.375C5.64346 22.867 5.2895 23.2361 4.80566 23.4561C4.36532 23.656 3.90559 23.6757 3.45117 23.5332L3.25684 23.4619C2.75016 23.2506 2.36665 22.8988 2.14355 22.4082L2.13672 22.3926L2.13184 22.3779C1.53676 20.8027 1.35784 19.223 1.60547 17.6484C1.85685 16.0503 2.61215 14.631 3.8457 13.3975L11.3955 5.84766C12.1771 5.0661 13.0706 4.48351 14.0732 4.10742C15.0609 3.73709 16.0713 3.55082 17.0996 3.55078C18.1279 3.55084 19.1301 3.73713 20.1025 4.1084C21.0886 4.48489 21.9728 5.06754 22.7529 5.84766L23.2988 6.39355L23.8457 5.84766C24.6274 5.06606 25.5207 4.48351 26.5234 4.10742C27.511 3.73712 28.5206 3.55086 29.5488 3.55078ZM24.1875 43.9785C24.043 43.9926 23.8966 44.001 23.749 44.001C23.6144 44.001 23.4817 43.9937 23.3506 43.9814C23.4147 43.9874 23.479 43.993 23.5439 43.9961L23.749 44.001C23.8966 44.001 24.043 43.9927 24.1875 43.9785ZM24.2129 43.9756C24.2698 43.9697 24.3264 43.9622 24.3828 43.9541C24.3264 43.9622 24.2698 43.9697 24.2129 43.9756ZM22.7764 43.8857C22.875 43.9096 22.9745 43.9299 23.0752 43.9463C22.9745 43.9299 22.8749 43.9096 22.7764 43.8857ZM24.4551 43.9434C24.4959 43.9368 24.5366 43.9296 24.5771 43.9219C24.5366 43.9296 24.4959 43.9368 24.4551 43.9434ZM24.6836 43.9004C24.7068 43.8954 24.7298 43.8902 24.7529 43.8848C24.7298 43.8902 24.7068 43.8954 24.6836 43.9004ZM22.5781 43.832C22.6177 43.8438 22.6574 43.8547 22.6973 43.8652C22.6574 43.8547 22.6177 43.8438 22.5781 43.832ZM24.8818 43.8525C24.9118 43.8446 24.9418 43.8368 24.9717 43.8281C24.9418 43.8367 24.9118 43.8446 24.8818 43.8525ZM22.4004 43.7754C22.4428 43.7902 22.4855 43.804 22.5283 43.8174C22.4855 43.804 22.4428 43.7902 22.4004 43.7754ZM25.0791 43.7959C25.1419 43.776 25.2045 43.7552 25.2666 43.7324C25.2045 43.7552 25.1419 43.776 25.0791 43.7959ZM22.208 43.7021C22.2504 43.7195 22.2931 43.7361 22.3359 43.752C22.2931 43.7361 22.2504 43.7195 22.208 43.7021ZM22.0439 43.6309C22.0822 43.6485 22.1206 43.6653 22.1592 43.6816C22.1206 43.6653 22.0822 43.6485 22.0439 43.6309ZM25.4746 43.6504C25.5397 43.6228 25.6035 43.5929 25.667 43.5625C25.6035 43.5929 25.5397 43.6228 25.4746 43.6504ZM21.8955 43.5586C21.9141 43.5681 21.9325 43.5777 21.9512 43.5869C21.9325 43.5777 21.9141 43.5681 21.8955 43.5586ZM25.7168 43.5381C25.7638 43.5148 25.8103 43.4906 25.8564 43.4658C25.8103 43.4906 25.7638 43.5148 25.7168 43.5381ZM21.7051 43.4551C21.7279 43.4682 21.7505 43.4815 21.7734 43.4941C21.7505 43.4815 21.7279 43.4682 21.7051 43.4551ZM25.916 43.4336C25.9608 43.4087 26.0049 43.3829 26.0488 43.3564C26.005 43.3829 25.9608 43.4087 25.916 43.4336ZM21.5 43.3291C21.5431 43.3572 21.5862 43.3848 21.6299 43.4111C21.5862 43.3848 21.5431 43.3572 21.5 43.3291ZM26.0898 43.3311C26.133 43.3045 26.1755 43.2771 26.2178 43.249C26.1755 43.2771 26.133 43.3045 26.0898 43.3311ZM21.3721 43.2432C21.3994 43.2623 21.4266 43.2814 21.4541 43.2998C21.4266 43.2814 21.3994 43.2623 21.3721 43.2432ZM26.3027 43.1924C26.3358 43.1694 26.3679 43.145 26.4004 43.1211C26.3679 43.145 26.3358 43.1694 26.3027 43.1924ZM21.2021 43.1182C21.2269 43.1372 21.2514 43.1564 21.2764 43.1748C21.2514 43.1564 21.2269 43.1372 21.2021 43.1182ZM26.625 42.9463C26.6787 42.9015 26.7321 42.8561 26.7842 42.8086C26.7321 42.8561 26.6787 42.9015 26.625 42.9463ZM21.0029 42.957C21.0408 42.9893 21.0788 43.021 21.1172 43.0518C21.0788 43.021 21.0408 42.9893 21.0029 42.957ZM24.166 40.9307C24.0979 40.9515 24.0323 40.966 23.9697 40.9775C24.0793 40.9573 24.1977 40.9246 24.3242 40.876L24.166 40.9307ZM29.499 7.50098C28.9981 7.50104 28.5017 7.59649 28.0078 7.79102C27.5242 7.98156 27.0897 8.26783 26.7031 8.6543L26.1533 9.20312L29.8545 12.9492L29.8604 12.9551L29.8652 12.9609C30.3298 13.4611 30.7367 14.0379 31.0879 14.6875C31.4627 15.3806 31.6494 16.1388 31.6494 16.9512C31.6493 18.3643 31.094 19.6058 30.0244 20.6572C28.9568 21.7066 27.7088 22.251 26.2988 22.251C25.42 22.2509 24.6521 22.1194 24.0176 21.8311C23.4083 21.554 22.8507 21.1592 22.3457 20.6543L19.0488 17.3574L10.3525 26.0547C10.2273 26.18 10.1562 26.2947 10.1191 26.3965C10.0729 26.5235 10.0488 26.6576 10.0488 26.8008C10.0488 27.1133 10.1467 27.3409 10.3281 27.5225C10.5095 27.7036 10.7368 27.8006 11.0488 27.8008C11.1613 27.8008 11.2717 27.7736 11.3848 27.7119C11.5304 27.6325 11.649 27.5433 11.7451 27.4473L17.5957 21.5977C17.983 21.2103 18.4579 21.0011 18.999 21.001C19.5402 21.001 20.0149 21.2103 20.4023 21.5977C20.7898 21.9851 20.999 22.4597 20.999 23.001C20.999 23.5422 20.7898 24.0169 20.4023 24.4043L14.6025 30.2041C14.4845 30.3222 14.4124 30.4406 14.373 30.5586C14.3225 30.7105 14.2988 30.8577 14.2988 31.001C14.2989 31.2595 14.3902 31.4848 14.6025 31.6973C14.8149 31.9096 15.0404 32.0008 15.2988 32.001C15.4267 32.001 15.5484 31.9747 15.667 31.9209C15.7994 31.8607 15.9071 31.7852 15.9951 31.6973L21.8457 25.8477C22.233 25.4603 22.7079 25.2511 23.249 25.251C23.7902 25.251 24.2649 25.4603 24.6523 25.8477C25.0398 26.2351 25.249 26.7097 25.249 27.251C25.249 27.7922 25.0398 28.2669 24.6523 28.6543L18.8525 34.4541C18.7788 34.5279 18.7046 34.6396 18.6406 34.8057C18.576 34.9739 18.5488 35.1215 18.5488 35.251C18.5489 35.5095 18.6402 35.7348 18.8525 35.9473C19.0649 36.1596 19.2904 36.2508 19.5488 36.251C19.692 36.251 19.8119 36.2268 19.9131 36.1865C20.0005 36.1515 20.1123 36.08 20.2451 35.9473L26.0957 30.0977C26.483 29.7103 26.9579 29.5011 27.499 29.501C28.0402 29.501 28.5149 29.7103 28.9023 30.0977C29.2898 30.4851 29.499 30.9597 29.499 31.501C29.499 32.0422 29.2898 32.5169 28.9023 32.9043L23.0527 38.7539C22.9346 38.8721 22.8626 38.9913 22.8232 39.1094C22.7694 39.2711 22.749 39.4003 22.749 39.501C22.7491 39.868 22.8514 40.0953 23.0029 40.2471C23.1546 40.3987 23.3821 40.5009 23.749 40.501C23.8353 40.501 23.9645 40.4784 24.1445 40.4092C24.2688 40.3613 24.3626 40.3077 24.4326 40.2529L24.4951 40.1973L41.3457 23.2969C41.7323 22.9102 42.0185 22.4758 42.209 21.9922C42.4036 21.4982 42.499 21.002 42.499 20.501C42.499 19.9995 42.4034 19.4931 42.207 18.9795C42.0158 18.4792 41.7299 18.0384 41.3457 17.6543L32.3457 8.6543C31.9616 8.27026 31.5208 7.98424 31.0205 7.79297C30.507 7.59664 30.0004 7.50098 29.499 7.50098ZM18.1006 35.6357C18.1102 35.6708 18.1215 35.7052 18.1338 35.7393C18.1215 35.7052 18.1102 35.6708 18.1006 35.6357ZM28.5957 32.501C28.6131 32.4822 28.6302 32.4635 28.6465 32.4443C28.6302 32.4635 28.6131 32.4822 28.5957 32.501ZM28.6914 32.3887C28.7079 32.3676 28.7241 32.3467 28.7393 32.3252C28.7241 32.3467 28.7079 32.3676 28.6914 32.3887ZM28.7744 32.2715C28.7868 32.2522 28.7982 32.2325 28.8096 32.2129C28.7982 32.2325 28.7868 32.2522 28.7744 32.2715ZM16.2441 32.1465C16.1945 32.1875 16.1413 32.2245 16.0859 32.2598C16.1823 32.1984 16.2708 32.1296 16.3496 32.0508L16.2441 32.1465ZM28.835 32.168C28.8502 32.1393 28.8648 32.1105 28.8779 32.0811C28.8648 32.1105 28.8502 32.1393 28.835 32.168ZM28.8936 32.0439C28.9055 32.0149 28.9169 31.9858 28.9268 31.9561C28.9169 31.9858 28.9055 32.0149 28.8936 32.0439ZM28.9414 31.9092C28.9487 31.8843 28.955 31.8593 28.9609 31.834C28.955 31.8593 28.9487 31.8843 28.9414 31.9092ZM28.9873 31.3213C28.9838 31.2917 28.9799 31.2624 28.9746 31.2334C28.9799 31.2624 28.9838 31.2917 28.9873 31.3213ZM13.8506 31.3857C13.8602 31.4208 13.8715 31.4552 13.8838 31.4893C13.8715 31.4552 13.8602 31.4208 13.8506 31.3857ZM28.96 31.165C28.9546 31.1421 28.9489 31.1193 28.9424 31.0967C28.9489 31.1193 28.9546 31.1421 28.96 31.165ZM28.9248 31.042C28.9155 31.0144 28.9056 30.987 28.8945 30.96C28.9056 30.987 28.9155 31.0144 28.9248 31.042ZM28.8203 30.8047C28.8006 30.7695 28.7788 30.7352 28.7559 30.7012C28.7788 30.7352 28.8006 30.7695 28.8203 30.8047ZM28.7422 30.6797C28.7267 30.6576 28.7092 30.6369 28.6924 30.6152C28.7092 30.6369 28.7268 30.6576 28.7422 30.6797ZM28.3457 30.2754C28.34 30.2712 28.3339 30.2677 28.3281 30.2637C28.3642 30.2892 28.3997 30.3164 28.4346 30.3457L28.3457 30.2754ZM28.2852 30.2354C28.2597 30.2186 28.2341 30.2025 28.208 30.1875C28.2341 30.2025 28.2597 30.2186 28.2852 30.2354ZM28.1641 30.1641C28.1382 30.1504 28.1124 30.1369 28.0859 30.125C28.1124 30.1369 28.1382 30.1504 28.1641 30.1641ZM28.0459 30.1074C28.0121 30.0934 27.9781 30.0805 27.9434 30.0693C27.9781 30.0805 28.0121 30.0934 28.0459 30.1074ZM27.9209 30.0625C27.8805 30.0502 27.8395 30.0398 27.7979 30.0312C27.8395 30.0398 27.8805 30.0502 27.9209 30.0625ZM27.7871 30.0283C27.7451 30.02 27.7025 30.0133 27.6592 30.0088C27.7025 30.0133 27.7451 30.02 27.7871 30.0283ZM7.34863 29.2734C7.4185 29.3692 7.49324 29.4627 7.57227 29.5547C7.49324 29.4627 7.41849 29.3692 7.34863 29.2734ZM7.125 28.9336C7.14846 28.9732 7.17237 29.0127 7.19727 29.0518C7.17238 29.0127 7.14845 28.9732 7.125 28.9336ZM7.02441 28.7549C7.05008 28.8037 7.07772 28.8515 7.10547 28.8994C7.07773 28.8515 7.05008 28.8037 7.02441 28.7549ZM6.9375 28.5791C6.96015 28.6278 6.98415 28.6758 7.00879 28.7236C6.98416 28.6758 6.96015 28.6278 6.9375 28.5791ZM6.79102 28.2168C6.80577 28.2587 6.8208 28.3005 6.83691 28.3418C6.82081 28.3004 6.80577 28.2587 6.79102 28.2168ZM24.3545 28.2412C24.3688 28.2256 24.383 28.2102 24.3965 28.1943C24.383 28.2102 24.3688 28.2256 24.3545 28.2412ZM6.72461 28.0107C6.73833 28.0576 6.75223 28.1042 6.76758 28.1504C6.75223 28.1042 6.73833 28.0576 6.72461 28.0107ZM24.4443 28.1348C24.4604 28.114 24.4764 28.0935 24.4912 28.0723C24.4764 28.0935 24.4604 28.114 24.4443 28.1348ZM24.5176 28.0312C24.5323 28.0087 24.5462 27.9859 24.5596 27.9629C24.5462 27.9859 24.5323 28.0087 24.5176 28.0312ZM6.67676 27.8359C6.68829 27.8828 6.70076 27.9293 6.71387 27.9756C6.70077 27.9293 6.68829 27.8828 6.67676 27.8359ZM24.585 27.918C24.6002 27.8893 24.6148 27.8605 24.6279 27.8311C24.6148 27.8605 24.6002 27.8893 24.585 27.918ZM24.6484 27.7832C24.6579 27.7596 24.6667 27.7359 24.6748 27.7119C24.6667 27.7359 24.6579 27.7596 24.6484 27.7832ZM6.59082 27.3867C6.60885 27.52 6.63339 27.6508 6.66309 27.7793C6.6334 27.6508 6.60885 27.52 6.59082 27.3867ZM24.6943 27.6504C24.7004 27.6291 24.7049 27.6075 24.71 27.5859C24.7049 27.6075 24.7004 27.6292 24.6943 27.6504ZM24.7373 27.0713C24.7338 27.0417 24.7299 27.0124 24.7246 26.9834C24.7299 27.0124 24.7338 27.0417 24.7373 27.0713ZM6.55371 26.9678C6.55447 26.9851 6.55668 27.0023 6.55762 27.0195C6.5528 26.931 6.54981 26.8415 6.5498 26.751L6.55371 26.9678ZM24.71 26.9141C24.7046 26.8914 24.6988 26.869 24.6924 26.8467C24.6988 26.869 24.7046 26.8914 24.71 26.9141ZM24.6748 26.792C24.6655 26.7644 24.6556 26.737 24.6445 26.71C24.6556 26.737 24.6655 26.7644 24.6748 26.792ZM24.5703 26.5547C24.5506 26.5195 24.5288 26.4852 24.5059 26.4512C24.5288 26.4852 24.5506 26.5195 24.5703 26.5547ZM9.57422 26.5068C9.57135 26.5233 9.56976 26.54 9.56738 26.5566C9.57667 26.492 9.58874 26.428 9.60547 26.3652L9.57422 26.5068ZM24.4922 26.4297C24.4676 26.3946 24.4412 26.3601 24.4131 26.3262C24.4412 26.3601 24.4676 26.3945 24.4922 26.4297ZM24.0957 26.0254C24.09 26.0212 24.0839 26.0177 24.0781 26.0137C24.1142 26.0392 24.1497 26.0664 24.1846 26.0957L24.0957 26.0254ZM24.0352 25.9854C24.0097 25.9686 23.9841 25.9525 23.958 25.9375C23.9841 25.9525 24.0097 25.9686 24.0352 25.9854ZM23.9141 25.9141C23.8882 25.9004 23.8624 25.8869 23.8359 25.875C23.8624 25.8869 23.8882 25.9004 23.9141 25.9141ZM23.7959 25.8574C23.7621 25.8434 23.7281 25.8305 23.6934 25.8193C23.7281 25.8305 23.7621 25.8434 23.7959 25.8574ZM23.6709 25.8125C23.6305 25.8002 23.5895 25.7898 23.5479 25.7812C23.5895 25.7898 23.6305 25.8002 23.6709 25.8125ZM43.7998 25.8008C43.8861 25.7145 43.9686 25.6259 44.0498 25.5371C43.9686 25.6259 43.8861 25.7145 43.7998 25.8008ZM23.5371 25.7783C23.4951 25.77 23.4525 25.7633 23.4092 25.7588C23.4525 25.7633 23.4951 25.77 23.5371 25.7783ZM44.1133 25.4658C44.1767 25.3947 44.2396 25.3237 44.2998 25.251C44.2396 25.3237 44.1767 25.3947 44.1133 25.4658ZM44.3799 25.1494C44.4193 25.1002 44.4582 25.0509 44.4961 25.001C44.4581 25.0509 44.4193 25.1002 44.3799 25.1494ZM6.96484 24.8311C6.93273 24.903 6.9034 24.9765 6.875 25.0508C6.9034 24.9765 6.93273 24.903 6.96484 24.8311ZM44.6143 24.8418C44.6507 24.791 44.6866 24.74 44.7217 24.6885C44.6866 24.74 44.6508 24.791 44.6143 24.8418ZM7.14551 24.4756C7.12204 24.5172 7.09923 24.5591 7.07715 24.6016C7.09923 24.5591 7.12204 24.5172 7.14551 24.4756ZM44.7939 24.5801C44.832 24.5219 44.869 24.4633 44.9053 24.4043C44.869 24.4633 44.832 24.5219 44.7939 24.5801ZM7.2793 24.2549C7.24738 24.3041 7.21634 24.3538 7.18652 24.4043C7.21634 24.3538 7.24738 24.3041 7.2793 24.2549ZM44.9922 24.2598C45.0121 24.2256 45.0305 24.1907 45.0498 24.1562C45.0305 24.1907 45.0121 24.2256 44.9922 24.2598ZM7.41309 24.0586C7.37265 24.1138 7.33447 24.1705 7.29688 24.2275C7.33447 24.1705 7.37265 24.1138 7.41309 24.0586ZM20.0498 24.0508C20.0843 24.0162 20.1159 23.9802 20.1465 23.9443C20.1159 23.9802 20.0843 24.0162 20.0498 24.0508ZM20.1914 23.8887C20.2064 23.8694 20.2204 23.8497 20.2344 23.8301C20.2204 23.8497 20.2064 23.8694 20.1914 23.8887ZM7.69141 23.7168C7.6448 23.7684 7.60039 23.8216 7.55664 23.875C7.64821 23.7632 7.74554 23.6548 7.84961 23.5508L7.69141 23.7168ZM20.2734 23.7725C20.2861 23.7528 20.298 23.7329 20.3096 23.7129C20.298 23.7329 20.2861 23.7528 20.2734 23.7725ZM20.3369 23.665C20.3519 23.6367 20.366 23.6082 20.3789 23.5791C20.366 23.6082 20.3519 23.6367 20.3369 23.665ZM20.3984 23.5332C20.4087 23.5077 20.4181 23.4821 20.4268 23.4561C20.4181 23.4821 20.4087 23.5077 20.3984 23.5332ZM20.4414 23.4092C20.4477 23.3876 20.4527 23.3657 20.458 23.3438C20.4527 23.3657 20.4477 23.3876 20.4414 23.4092ZM45.5908 22.9395C45.6215 22.8497 45.6515 22.7601 45.6787 22.6699C45.6515 22.7601 45.6215 22.8497 45.5908 22.9395ZM4.05859 23.124C4.08606 23.1236 4.11333 23.1223 4.14062 23.1201C4.11333 23.1223 4.08606 23.1236 4.05859 23.124ZM3.92188 23.1191C3.95032 23.1216 3.97857 23.1234 4.00684 23.124C3.97857 23.1234 3.95032 23.1216 3.92188 23.1191ZM3.78809 23.1006C3.81527 23.1056 3.84211 23.1109 3.86914 23.1143C3.84211 23.1109 3.81527 23.1056 3.78809 23.1006ZM4.2002 23.1143C4.22707 23.1109 4.25357 23.1056 4.28027 23.1006C4.25357 23.1056 4.22706 23.1109 4.2002 23.1143ZM3.65039 23.0693C3.67426 23.076 3.69793 23.0824 3.72168 23.0879C3.69793 23.0824 3.67426 23.076 3.65039 23.0693ZM3.44922 23.001C3.49623 23.0206 3.54328 23.0378 3.58984 23.0527C3.54329 23.0378 3.49624 23.0206 3.44922 23.001ZM4.59961 23.001C4.6408 22.9822 4.68008 22.9609 4.71875 22.9395C4.68008 22.9609 4.64081 22.9822 4.59961 23.001ZM20.4873 22.8213C20.4838 22.7917 20.4799 22.7624 20.4746 22.7334C20.4799 22.7624 20.4838 22.7917 20.4873 22.8213ZM4.76855 22.9102C4.79478 22.8943 4.82071 22.8785 4.8457 22.8613C4.82071 22.8785 4.79478 22.8943 4.76855 22.9102ZM4.87891 22.8369C4.90265 22.8197 4.92565 22.8017 4.94824 22.7832C4.92566 22.8017 4.90266 22.8197 4.87891 22.8369ZM4.99219 22.7451C5.01186 22.7277 5.03107 22.7099 5.0498 22.6914C5.03108 22.7099 5.01186 22.7277 4.99219 22.7451ZM20.46 22.665C20.4546 22.6421 20.4489 22.6193 20.4424 22.5967C20.4489 22.6193 20.4546 22.6421 20.46 22.665ZM5.09277 22.6475C5.1085 22.6306 5.12367 22.6133 5.13867 22.5957C5.12367 22.6133 5.1085 22.6306 5.09277 22.6475ZM5.18262 22.543C5.19644 22.5252 5.20951 22.5068 5.22266 22.4883C5.20951 22.5068 5.19643 22.5252 5.18262 22.543ZM20.4219 22.5322C20.4131 22.5069 20.4038 22.4819 20.3936 22.457C20.4038 22.4819 20.4131 22.5069 20.4219 22.5322ZM45.7178 22.5312C45.7362 22.4656 45.7539 22.3999 45.7705 22.334C45.7539 22.3999 45.7362 22.4656 45.7178 22.5312ZM5.26172 22.4316C5.28621 22.3938 5.31016 22.3551 5.33203 22.3145C5.31016 22.3551 5.2862 22.3938 5.26172 22.4316ZM20.3203 22.3047C20.3006 22.2695 20.2788 22.2352 20.2559 22.2012C20.2788 22.2352 20.3006 22.2695 20.3203 22.3047ZM2.49121 21.8994C2.52558 21.9998 2.56165 22.1007 2.59961 22.2012C2.56165 22.1007 2.52558 21.9998 2.49121 21.8994ZM45.8027 22.2012C45.8171 22.1395 45.83 22.0775 45.8428 22.0156C45.83 22.0775 45.8171 22.1395 45.8027 22.2012ZM20.2422 22.1797C20.2215 22.1501 20.1989 22.1215 20.1758 22.0928C20.1989 22.1215 20.2215 22.1501 20.2422 22.1797ZM19.8457 21.7754C19.839 21.7705 19.8319 21.7664 19.8252 21.7617C19.8623 21.7878 19.8988 21.8157 19.9346 21.8457L19.8457 21.7754ZM45.875 21.8574C45.8881 21.7863 45.9001 21.715 45.9111 21.6436C45.9001 21.715 45.8881 21.7863 45.875 21.8574ZM19.7852 21.7354C19.7597 21.7186 19.7341 21.7025 19.708 21.6875C19.7341 21.7025 19.7597 21.7186 19.7852 21.7354ZM25.4443 21.7002C25.5121 21.7087 25.5812 21.7154 25.6514 21.7217C25.5811 21.7154 25.5121 21.7087 25.4443 21.7002ZM25.208 21.665C25.2581 21.6736 25.3088 21.6812 25.3604 21.6885C25.3088 21.6813 25.2581 21.6735 25.208 21.665ZM19.6641 21.6641C19.6366 21.6495 19.6092 21.6356 19.5811 21.623C19.6092 21.6356 19.6366 21.6495 19.6641 21.6641ZM24.9736 21.6191C25.0103 21.6273 25.0475 21.6342 25.085 21.6416C25.0475 21.6343 25.0103 21.6272 24.9736 21.6191ZM19.5459 21.6074C19.5121 21.5934 19.4781 21.5805 19.4434 21.5693C19.4781 21.5805 19.5121 21.5934 19.5459 21.6074ZM24.7539 21.5645C24.7845 21.5729 24.8154 21.581 24.8467 21.5889C24.8154 21.581 24.7845 21.5729 24.7539 21.5645ZM19.4209 21.5625C19.3805 21.5502 19.3395 21.5398 19.2979 21.5312C19.3395 21.5398 19.3805 21.5502 19.4209 21.5625ZM45.9268 21.54C45.9395 21.4488 45.9496 21.3573 45.959 21.2656C45.9496 21.3573 45.9395 21.4488 45.9268 21.54ZM19.2871 21.5283C19.2451 21.52 19.2025 21.5133 19.1592 21.5088C19.2025 21.5133 19.2451 21.52 19.2871 21.5283ZM24.5186 21.4912C24.553 21.5031 24.5877 21.5153 24.623 21.5264C24.5877 21.5153 24.553 21.5031 24.5186 21.4912ZM2.19043 20.8193C2.22232 20.9681 2.25901 21.1167 2.29883 21.2656C2.259 21.1167 2.22234 20.9681 2.19043 20.8193ZM45.9668 21.1943C45.9718 21.1404 45.9747 21.0863 45.9785 21.0322C45.9747 21.0863 45.9718 21.1404 45.9668 21.1943ZM42.9697 21.001C42.9727 20.9752 42.977 20.9496 42.9795 20.9238L42.9814 20.8975C42.9783 20.932 42.9737 20.9665 42.9697 21.001ZM2.1377 20.5518C2.14602 20.5973 2.155 20.6429 2.16406 20.6885C2.15499 20.6429 2.14602 20.5973 2.1377 20.5518ZM45.999 20.501C45.999 20.3872 45.9963 20.2735 45.9912 20.1602C45.9963 20.2735 45.999 20.3872 45.999 20.501ZM2.09375 20.2881C2.10122 20.3375 2.10884 20.387 2.11719 20.4365C2.10883 20.387 2.10123 20.3375 2.09375 20.2881ZM29.6748 20.3008C29.7342 20.2424 29.7919 20.1835 29.8477 20.124C29.7919 20.1835 29.7342 20.2424 29.6748 20.3008ZM2.05664 20.0127C2.06337 20.0696 2.07023 20.1266 2.07812 20.1836C2.07022 20.1266 2.06338 20.0696 2.05664 20.0127ZM45.9824 20.0127C45.9779 19.942 45.9724 19.8713 45.9658 19.8008C45.9724 19.8713 45.9779 19.942 45.9824 20.0127ZM2.02734 19.7168C2.03211 19.7744 2.037 19.832 2.04297 19.8896C2.03699 19.832 2.03212 19.7744 2.02734 19.7168ZM30.0996 19.835C30.1211 19.8087 30.1423 19.7823 30.1631 19.7559C30.1423 19.7823 30.1211 19.8087 30.0996 19.835ZM45.958 19.7197C45.9483 19.6258 45.9371 19.5321 45.9238 19.4385C45.9371 19.5321 45.9483 19.6258 45.958 19.7197ZM30.2236 19.6777C30.2502 19.6427 30.2764 19.6077 30.3018 19.5723C30.2764 19.6077 30.2502 19.6427 30.2236 19.6777ZM2.00879 19.4385C2.01172 19.4977 2.01534 19.5569 2.01953 19.6162C2.01533 19.5569 2.01173 19.4977 2.00879 19.4385ZM30.3936 19.4385C30.4073 19.4179 30.4212 19.3976 30.4346 19.377C30.4212 19.3976 30.4073 19.4179 30.3936 19.4385ZM45.9102 19.3486C45.8995 19.2795 45.8876 19.2106 45.875 19.1416C45.8876 19.2106 45.8995 19.2795 45.9102 19.3486ZM30.4893 19.29C30.5102 19.2561 30.5299 19.2217 30.5498 19.1875C30.5299 19.2217 30.5102 19.2561 30.4893 19.29ZM30.6016 19.0957C30.623 19.0569 30.6449 19.0186 30.665 18.9795C30.6449 19.0186 30.623 19.0569 30.6016 19.0957ZM45.8457 18.9863C45.831 18.9139 45.8147 18.8417 45.7979 18.7695C45.8147 18.8417 45.831 18.9139 45.8457 18.9863ZM30.7002 18.9082C30.7243 18.8593 30.7474 18.8102 30.7695 18.7607C30.7474 18.8102 30.7243 18.8593 30.7002 18.9082ZM2.00977 18.5898C2.00563 18.6683 2.00191 18.7467 2 18.8252C2.0019 18.7467 2.00564 18.6683 2.00977 18.5898ZM30.7988 18.6943C30.8163 18.6536 30.8325 18.6124 30.8486 18.5713C30.8325 18.6124 30.8162 18.6536 30.7988 18.6943ZM45.7764 18.6797C45.7572 18.602 45.7364 18.5247 45.7148 18.4473C45.7364 18.5247 45.7572 18.602 45.7764 18.6797ZM2.0293 18.3105C2.023 18.3835 2.01707 18.4563 2.0127 18.5293C2.01707 18.4563 2.023 18.3835 2.0293 18.3105ZM30.8809 18.4863C30.8971 18.4422 30.913 18.3981 30.9277 18.3535C30.913 18.3981 30.8971 18.4422 30.8809 18.4863ZM30.9561 18.2646C30.9648 18.2361 30.9733 18.2075 30.9814 18.1787C30.9733 18.2075 30.9648 18.2361 30.9561 18.2646ZM31.0176 18.0459C31.0261 18.0119 31.0333 17.9776 31.041 17.9434C31.0334 17.9776 31.0261 18.0119 31.0176 18.0459ZM31.1436 17.1865C31.1324 17.4128 31.105 17.6341 31.0615 17.8506C31.105 17.6341 31.1324 17.4128 31.1436 17.1865ZM2.20703 17.1865C2.20429 17.1979 2.2019 17.2093 2.19922 17.2207C2.2019 17.2093 2.20429 17.1979 2.20703 17.1865ZM2.36035 16.6504C2.34983 16.6822 2.34012 16.7142 2.33008 16.7461C2.34012 16.7142 2.34983 16.6822 2.36035 16.6504ZM2.44434 16.4121C2.42579 16.4617 2.40797 16.5115 2.39062 16.5615C2.40796 16.5115 2.4258 16.4617 2.44434 16.4121ZM2.54004 16.167C2.52217 16.2096 2.50623 16.253 2.48926 16.2959C2.50622 16.253 2.52217 16.2096 2.54004 16.167ZM2.66309 15.8945C2.64377 15.9354 2.6249 15.9764 2.60645 16.0176C2.62489 15.9764 2.64378 15.9354 2.66309 15.8945ZM2.76758 15.6816C2.74399 15.7274 2.72073 15.7732 2.69824 15.8193C2.72072 15.7732 2.744 15.7274 2.76758 15.6816ZM2.9043 15.4307C2.8812 15.4713 2.85814 15.5118 2.83594 15.5527C2.85814 15.5118 2.8812 15.4713 2.9043 15.4307ZM3.04395 15.1953C3.01451 15.2427 2.98521 15.29 2.95703 15.3379C2.9852 15.29 3.01452 15.2427 3.04395 15.1953ZM3.16504 15.0059C3.14813 15.0313 3.1308 15.0564 3.11426 15.082C3.1308 15.0564 3.14813 15.0313 3.16504 15.0059ZM12.0098 5.95215C11.9216 6.03238 11.8345 6.11574 11.749 6.20117C11.8345 6.11574 11.9216 6.03238 12.0098 5.95215ZM22.3994 6.20117C22.3133 6.11507 22.2253 6.03199 22.1367 5.95117C22.2253 6.03199 22.3133 6.11507 22.3994 6.20117ZM24.4697 5.94238C24.378 6.02554 24.288 6.11241 24.1992 6.20117C24.288 6.11241 24.378 6.02553 24.4697 5.94238ZM34.8496 6.20117C34.7636 6.11511 34.6755 6.03196 34.5869 5.95117C34.6755 6.03196 34.7635 6.11511 34.8496 6.20117ZM24.7344 5.71484C24.6654 5.77172 24.5977 5.83075 24.5303 5.89062C24.5977 5.83076 24.6654 5.77171 24.7344 5.71484ZM12.2822 5.7168C12.2249 5.76408 12.1686 5.81295 12.1123 5.8623C12.1686 5.81295 12.2249 5.76408 12.2822 5.7168ZM22.0195 5.84766C21.9672 5.80188 21.9155 5.7559 21.8623 5.71191C21.9155 5.75589 21.9672 5.80188 22.0195 5.84766ZM34.4697 5.84766C34.4181 5.80249 34.3669 5.75729 34.3145 5.71387C34.3669 5.75728 34.4181 5.80249 34.4697 5.84766ZM21.7646 5.63379C21.7037 5.58508 21.6422 5.53761 21.5801 5.49121C21.6422 5.5376 21.7037 5.58508 21.7646 5.63379ZM25.0205 5.49219C24.9591 5.53775 24.8981 5.58404 24.8379 5.63184C24.8981 5.58405 24.9591 5.53774 25.0205 5.49219ZM34.2051 5.62695C34.1462 5.58009 34.0872 5.53397 34.0273 5.48926C34.0872 5.53396 34.1462 5.5801 34.2051 5.62695ZM12.5723 5.49023C12.5131 5.5341 12.4546 5.57906 12.3965 5.625C12.4546 5.57906 12.5131 5.5341 12.5723 5.49023ZM33.9336 5.41992C33.8721 5.37557 33.8096 5.33314 33.7471 5.29102C33.8096 5.33313 33.8721 5.37558 33.9336 5.41992ZM12.8457 5.29785C12.7888 5.33593 12.7327 5.37515 12.6768 5.41504C12.7327 5.37515 12.7888 5.33593 12.8457 5.29785ZM21.4736 5.41406C21.4166 5.37303 21.3597 5.33208 21.3018 5.29297C21.3597 5.33207 21.4166 5.37304 21.4736 5.41406ZM25.2969 5.29785C25.2431 5.33388 25.1897 5.37055 25.1367 5.4082C25.1897 5.37056 25.2431 5.33387 25.2969 5.29785ZM21.1719 5.20801C21.1141 5.17087 21.0558 5.13488 20.9971 5.09961C21.0558 5.13488 21.1141 5.17088 21.1719 5.20801ZM25.6084 5.10059C25.5497 5.13551 25.4914 5.17126 25.4336 5.20801C25.4914 5.17127 25.5497 5.1355 25.6084 5.10059ZM33.6221 5.20801C33.5643 5.17087 33.506 5.13489 33.4473 5.09961C33.506 5.13488 33.5643 5.17088 33.6221 5.20801ZM13.1523 5.10547C13.0988 5.13737 13.0449 5.16873 12.9922 5.20215C13.0449 5.16873 13.0988 5.13737 13.1523 5.10547ZM25.9326 4.91992C25.8641 4.95576 25.7958 4.99209 25.7285 5.03027C25.7958 4.9921 25.8641 4.95575 25.9326 4.91992ZM13.457 4.93359C13.3978 4.96489 13.3386 4.99624 13.2803 5.0293C13.3386 4.99624 13.3978 4.96489 13.457 4.93359ZM20.8789 5.0293C20.8183 4.99452 20.7568 4.96154 20.6953 4.92871C20.7568 4.96154 20.8183 4.99453 20.8789 5.0293ZM33.3291 5.0293C33.2685 4.99452 33.207 4.96154 33.1455 4.92871C33.207 4.96154 33.2685 4.99453 33.3291 5.0293ZM26.3535 4.71582C26.2469 4.76252 26.1419 4.81227 26.0381 4.86426C26.1419 4.81228 26.2469 4.76252 26.3535 4.71582ZM20.5693 4.86133C20.4687 4.81036 20.3667 4.76169 20.2637 4.71582C20.3668 4.76173 20.4686 4.81032 20.5693 4.86133ZM33.0195 4.86133C32.9189 4.81035 32.8169 4.76169 32.7139 4.71582C32.817 4.76173 32.9188 4.81031 33.0195 4.86133ZM13.6104 4.85352C13.6058 4.85578 13.6012 4.85808 13.5967 4.86035C13.698 4.80981 13.8004 4.76134 13.9043 4.71582L13.6104 4.85352ZM19.2773 4.35938C19.4944 4.42207 19.7105 4.49434 19.9248 4.57617C19.7105 4.49435 19.4944 4.42212 19.2773 4.35938ZM19.1211 4.31641C19.0636 4.30104 19.0059 4.28649 18.9482 4.27246C19.006 4.28648 19.0636 4.30105 19.1211 4.31641ZM18.8008 4.23828C18.7387 4.22445 18.6765 4.21152 18.6143 4.19922C18.6765 4.2115 18.7387 4.22446 18.8008 4.23828ZM18.4717 4.17188C18.3856 4.15654 18.2994 4.1423 18.2129 4.12988C18.2994 4.14228 18.3856 4.15656 18.4717 4.17188ZM17.8193 4.08398C17.9343 4.09452 18.0489 4.10743 18.1631 4.12305C17.9306 4.09122 17.6964 4.06933 17.4609 4.05859L17.8193 4.08398ZM26.4453 43.0889C26.4966 43.0502 26.5467 43.0098 26.5967 42.9688C26.5467 43.0098 26.4966 43.0502 26.4453 43.0889ZM18.0742 35.5234L18.0771 35.541C18.0835 35.573 18.092 35.6045 18.1006 35.6357C18.0905 35.5988 18.0813 35.5614 18.0742 35.5234ZM28.999 31.501C28.999 31.4524 28.9966 31.4045 28.9922 31.3574C28.9966 31.4045 28.999 31.4524 28.999 31.501ZM13.8242 31.2734L13.8271 31.291C13.8335 31.323 13.842 31.3545 13.8506 31.3857C13.8405 31.3488 13.8313 31.3114 13.8242 31.2734ZM28.8779 30.9209C28.8629 30.8873 28.8469 30.854 28.8291 30.8213C28.8469 30.854 28.8629 30.8872 28.8779 30.9209ZM28.5498 30.4512C28.5123 30.4137 28.4736 30.3785 28.4346 30.3457C28.4736 30.3785 28.5123 30.4137 28.5498 30.4512ZM7.23633 29.1113C7.26374 29.1528 7.29224 29.1936 7.32129 29.2344C7.29224 29.1936 7.26373 29.1528 7.23633 29.1113ZM6.8623 28.4062C6.88088 28.4516 6.90067 28.4964 6.9209 28.541C6.90068 28.4964 6.88087 28.4516 6.8623 28.4062ZM6.57422 27.2393C6.57926 27.2887 6.58422 27.3379 6.59082 27.3867C6.58422 27.3379 6.57925 27.2887 6.57422 27.2393ZM24.749 27.251C24.749 27.2024 24.7466 27.1545 24.7422 27.1074C24.7466 27.1545 24.749 27.2024 24.749 27.251ZM24.6279 26.6709C24.6129 26.6373 24.5969 26.604 24.5791 26.5713C24.5969 26.604 24.6129 26.6372 24.6279 26.6709ZM24.249 26.1543C24.2275 26.1343 24.2066 26.1142 24.1846 26.0957C24.2066 26.1142 24.2275 26.1343 24.249 26.1543ZM7.05078 24.6514C7.02099 24.7105 6.99198 24.7703 6.96484 24.8311C6.99197 24.7703 7.02099 24.7105 7.05078 24.6514ZM7.52441 23.915C7.4865 23.9624 7.44878 24.0098 7.41309 24.0586C7.44878 24.0098 7.4865 23.9624 7.52441 23.915ZM45.4492 23.3262C45.4948 23.2122 45.5372 23.0972 45.5771 22.9824C45.5372 23.0972 45.4948 23.2122 45.4492 23.3262ZM20.4971 22.957C20.4961 22.9235 20.4953 22.8903 20.4922 22.8574C20.4953 22.8903 20.4961 22.9235 20.4971 22.957ZM20.3779 22.4209C20.3629 22.3873 20.3469 22.354 20.3291 22.3213C20.3469 22.354 20.3629 22.3872 20.3779 22.4209ZM2.33008 21.3818C2.34875 21.4483 2.36843 21.5146 2.38867 21.5811C2.36842 21.5146 2.34875 21.4482 2.33008 21.3818ZM2.40625 21.6387C2.43331 21.7255 2.46146 21.8125 2.49121 21.8994C2.46146 21.8125 2.43331 21.7255 2.40625 21.6387ZM20.0352 21.9375C20.0022 21.9052 19.9688 21.8744 19.9346 21.8457C19.9688 21.8744 20.0022 21.9052 20.0352 21.9375ZM2.27539 16.9229C2.2627 16.9675 2.25201 17.0127 2.24023 17.0576C2.25201 17.0127 2.2627 16.9675 2.27539 16.9229Z"/></svg>