<svg xmlns="http://www.w3.org/2000/svg" viewBox="0 0 48 48"><path fill="currentColor" d="M15,32c.8,0,1.6-.3,2.1-.9,.6-.6,.9-1.3,.9-2.1,0,0,0-.2,0-.3l5.6-5.6h.9l3.2,3.2v.2c0,.8,.3,1.6,.9,2.1s1.3,.9,2.1,.9,1.6-.3,2.1-.9c.6-.6,.9-1.3,.9-2.1v-.2l7.3-7.3c.6,0,1.2-.2,1.7-.5,.5-.3,.9-.8,1.1-1.3,.2-.5,.3-1.2,.2-1.7-.1-.6-.4-1.1-.8-1.5-.4-.4-1-.7-1.5-.8-.6-.1-1.2,0-1.7,.2-.5,.2-1,.6-1.3,1.1-.3,.5-.5,1.1-.5,1.7,0,0,0,.2,0,.3l-7.2,7.2h-.3l-3.5-3.5c0-.8-.3-1.6-.9-2.1-.6-.6-1.3-.9-2.1-.9s-1.6,.3-2.1,.9c-.6,.6-.9,1.3-.9,2.1l-6,6c-.8,0-1.6,.3-2.1,.9-.6,.6-.9,1.3-.9,2.1s.3,1.6,.9,2.1c.6,.6,1.3,.9,2.1,.9h0Zm27,8H8V6c0-.5-.2-1-.6-1.4-.4-.4-.9-.6-1.4-.6s-1,.2-1.4,.6c-.4,.4-.6,.9-.6,1.4V42c0,.5,.2,1,.6,1.4,.4,.4,.9,.6,1.4,.6H42c.5,0,1-.2,1.4-.6s.6-.9,.6-1.4-.2-1-.6-1.4-.9-.6-1.4-.6Z"/></svg>