<svg xmlns="http://www.w3.org/2000/svg" viewBox="0 0 48 48"><path fill="currentColor" d="m9,18.2H3c-1.54,0-2.8,1.26-2.8,2.8v21c0,1.54,1.26,2.8,2.8,2.8h6c1.54,0,2.8-1.26,2.8-2.8v-21c0-1.54-1.26-2.8-2.8-2.8Zm36.21,6.76l.27-.14c1.43-.74,2.32-2.21,2.32-3.82,0-2.37-1.93-4.3-4.3-4.3h-13.85l.18-.3c1.29-2.17,2.19-4.52,2.68-6.99l.22-1.07c.23-1.13,0-2.27-.64-3.23-.64-.96-1.61-1.61-2.74-1.83-.28-.06-.57-.08-.84-.08-2.01,0-3.81,1.42-4.22,3.46l-.21,1.07c-.63,3.15-2.36,6-4.87,8.01l-.69.55c-2.1,1.69-3.3,4.2-3.3,6.88v10.43c0,2.95,1.46,5.69,3.91,7.32l3.61,2.41c1.45.96,3.14,1.48,4.89,1.48h9.14c2.37,0,4.3-1.93,4.3-4.3,0-.31-.03-.63-.1-.93l-.04-.18.17-.06c1.77-.57,2.96-2.21,2.96-4.08,0-.79-.21-1.56-.62-2.23l-.15-.25.28-.05c2.02-.38,3.48-2.16,3.48-4.22,0-1.31-.58-2.53-1.6-3.35l-.24-.19Z"/></svg>