<svg xmlns="http://www.w3.org/2000/svg" viewBox="0 0 48 48"><path fill="currentColor" d="m9,18.2H3c-1.54,0-2.8,1.26-2.8,2.8v21c0,1.54,1.26,2.8,2.8,2.8h6c1.54,0,2.8-1.26,2.8-2.8v-21c0-1.54-1.26-2.8-2.8-2.8Zm37.01,8.5l.08-.08c1.1-1.11,1.7-2.57,1.7-4.12,0-3.2-2.6-5.8-5.8-5.8h-8.96l.13-.28c.45-.99.82-1.99,1.1-2.99l.53-1.88c.48-1.68.28-3.45-.57-4.98-.85-1.53-2.24-2.64-3.92-3.12-1.68-.48-3.45-.28-4.98.57-1.53.85-2.64,2.24-3.12,3.92l-.53,1.88c-.35,1.24-1,2.4-1.87,3.36l-4.81,5.29c-.37.4-.56.93-.53,1.48s.26,1.05.67,1.42c.84.76,2.14.7,2.9-.14l4.81-5.29c1.29-1.42,2.25-3.15,2.78-4.99l.53-1.88c.37-1.3,1.73-2.05,3.03-1.68,1.3.37,2.05,1.72,1.69,3.03l-.54,1.88c-.54,1.9-1.39,3.67-2.52,5.26-.44.62-.5,1.44-.14,2.13.35.68,1.05,1.11,1.82,1.11h12.53c.94,0,1.7.76,1.7,1.7,0,.7-.44,1.34-1.1,1.59-.64.24-1.11.77-1.27,1.43-.16.66,0,1.35.45,1.85.27.31.42.71.42,1.12,0,.82-.58,1.52-1.38,1.67-.7.14-1.29.63-1.54,1.29-.25.67-.13,1.43.31,1.99.24.31.36.67.36,1.05,0,.7-.44,1.33-1.08,1.58-.98.38-1.51,1.44-1.23,2.46.04.13.06.29.06.46,0,.94-.76,1.7-1.7,1.7h-9.14c-1.23,0-2.42-.36-3.44-1.04l-5.78-3.85c-.34-.23-.73-.35-1.13-.35-.13,0-.27.01-.4.04-.54.11-1.01.42-1.31.88-.31.46-.41,1-.31,1.54.11.53.42,1,.88,1.3l5.78,3.85c1.69,1.13,3.67,1.73,5.71,1.73h9.14c3.15,0,5.7-2.47,5.8-5.62v-.09s.08-.06.08-.06c1.38-1.11,2.17-2.76,2.17-4.53,0-.38-.04-.76-.12-1.18l-.02-.12.1-.08c1.46-1.11,2.29-2.79,2.29-4.62,0-.57-.08-1.14-.25-1.69l-.04-.11Z"/></svg>