<svg xmlns="http://www.w3.org/2000/svg" viewBox="0 0 48 48"><path fill="currentColor" d="M37.7,26.1c-7.5-2.78-13.42-8.69-16.2-16.2-.17-.47-.85-.47-1.03,0-2.78,7.5-8.69,13.42-16.2,16.2-.47.17-.47.85,0,1.02,7.5,2.78,13.42,8.69,16.2,16.2.17.48.85.48,1.03,0,2.78-7.5,8.69-13.42,16.2-16.2.48-.17.48-.85,0-1.02ZM43.8,9.88c-2.82-1.04-5.04-3.26-6.08-6.08-.06-.17-.32-.17-.38,0-1.04,2.82-3.26,5.04-6.08,6.08-.18.06-.18.32,0,.38,2.82,1.04,5.04,3.26,6.08,6.08.06.17.32.17.38,0,1.04-2.82,3.26-5.04,6.08-6.08.18-.06.18-.32,0-.38Z"/></svg>