<svg xmlns="http://www.w3.org/2000/svg" viewBox="0 0 48 48"><path fill="currentColor" d="M43.9,19.4c-.1-.4-.4-.7-.7-.9-.3-.2-.7-.4-1.1-.4l-11.4-1.7-5.1-10.3c-.2-.3-.4-.6-.7-.8-.3-.2-.7-.3-1.1-.3s-.7,.1-1.1,.3c-.3,.2-.6,.5-.7,.8l-5.1,10.3-11.4,1.7c-.4,0-.7,.2-1,.4-.3,.2-.5,.6-.6,.9-.1,.3-.1,.7,0,1.1,0,.4,.3,.7,.5,.9l8.2,8-2,11.3c0,.4,0,.8,.1,1.1,.1,.4,.4,.7,.7,.9,.3,.2,.7,.3,1,.4,.4,0,.7,0,1.1-.2l10.2-5.3,10.2,5.4c.3,.2,.6,.2,.9,.2,.4,0,.8-.1,1.2-.4,.3-.2,.5-.5,.7-.9,.1-.4,.2-.7,.1-1.1l-2-11.3,8.2-8c.3-.2,.5-.6,.6-.9,.1-.4,.1-.7,0-1.1Zm-12.3,8c-.2,.2-.4,.5-.5,.8-.1,.3-.1,.6,0,1l1.4,8.4-7.5-4c-.3-.2-.6-.2-.9-.2s-.6,0-.9,.2l-7.5,4,1.4-8.4c0-.3,0-.7,0-1-.1-.3-.3-.6-.5-.8l-6-6,8.4-1.2c.3,0,.6-.2,.9-.4,.3-.2,.5-.4,.6-.7l3.6-7.6,3.8,7.6c.1,.3,.4,.5,.6,.7,.3,.2,.6,.3,.9,.4l8.4,1.2-6,6Z"/></svg>