<svg xmlns="http://www.w3.org/2000/svg" viewBox="0 0 48 48"><path fill="currentColor" d="M2.6,27.7c.2,.8,.7,1.6,1.2,2.3,.6,.6,1.3,1.2,2.1,1.5,.8,.4,1.6,.5,2.5,.5h9.3v6c0,2.1,.8,4.1,2.3,5.7,1.5,1.5,3.5,2.3,5.7,2.3s1.5-.5,1.8-1.2l7.5-16.8h4.7c1.6,0,3.1-.6,4.2-1.8,1.1-1.1,1.8-2.6,1.8-4.2V8c0-1.6-.6-3.1-1.8-4.2-1.1-1.1-2.6-1.8-4.2-1.8H11.1c-1.4,0-2.8,.5-3.9,1.4-1.1,.9-1.8,2.2-2,3.7L2.4,25.1c-.1,.9,0,1.7,.2,2.6ZM35.7,6h4c.5,0,1,.2,1.4,.6,.4,.4,.6,.9,.6,1.4v14c0,.5-.2,1-.6,1.4-.4,.4-.9,.6-1.4,.6h-4V6Zm-26.6,1.7c0-.5,.3-.9,.7-1.2,.4-.3,.9-.5,1.3-.5H31.7V25.6l-7.2,16.2c-.6-.2-1.2-.5-1.6-1-.7-.7-1.2-1.8-1.2-2.8v-8c0-1.1-.9-2-2-2H8.3c-.3,0-.6,0-.8-.2-.3-.1-.5-.3-.7-.5-.2-.2-.3-.5-.4-.8,0-.3,0-.6,0-.9L9.1,7.7Z"/></svg>