<svg xmlns="http://www.w3.org/2000/svg" viewBox="0 0 48 48"><path fill="currentColor" d="M45.4,20.3c-.2-.8-.7-1.6-1.2-2.3-.6-.6-1.3-1.2-2.1-1.5-.8-.4-1.6-.5-2.5-.5h-9.3v-6c0-2.1-.8-4.1-2.3-5.7-1.5-1.5-3.5-2.3-5.7-2.3s-1.5,.5-1.8,1.2l-7.5,16.8h-4.7c-1.6,0-3.1,.6-4.2,1.8-1.1,1.1-1.8,2.6-1.8,4.2v14c0,1.6,.6,3.1,1.8,4.2,1.1,1.1,2.6,1.8,4.2,1.8h28.6c1.4,0,2.8-.5,3.9-1.4,1.1-.9,1.8-2.2,2-3.7l2.8-18c.1-.9,0-1.7-.2-2.6ZM12.3,42h-4c-.5,0-1-.2-1.4-.6-.4-.4-.6-.9-.6-1.4v-14c0-.5,.2-1,.6-1.4,.4-.4,.9-.6,1.4-.6h4v18Zm26.6-1.7c0,.5-.3,.9-.7,1.2-.4,.3-.9,.5-1.3,.5H16.3V22.4L23.5,6.2c.6,.2,1.2,.5,1.6,1,.7,.7,1.2,1.8,1.2,2.8v8c0,1.1,.9,2,2,2h11.3c.3,0,.6,0,.8,.2,.3,.1,.5,.3,.7,.5,.2,.2,.3,.5,.4,.8,0,.3,0,.6,0,.9l-2.8,18Z"/></svg>