<svg xmlns="http://www.w3.org/2000/svg" viewBox="0 0 48 48"><path fill="currentColor" d="M44.18,18.63c-.41-.88-1.29-1.44-2.26-1.44h-15.17l1.65-13.19c.14-1.1-.47-2.16-1.49-2.6-1.02-.44-2.21-.16-2.92.69L4,26.09c-.62.75-.75,1.78-.34,2.66.41.88,1.29,1.44,2.26,1.44h15.17l-1.65,13.19c-.14,1.1.47,2.16,1.48,2.6.32.14.66.21.99.21.73,0,1.44-.32,1.92-.9l20-24c.62-.75.75-1.78.34-2.66ZM25.46,35.54l.94-7.54c.09-.71-.13-1.43-.61-1.96-.47-.54-1.16-.85-1.87-.85h-12.66l11.12-13.35-.94,7.54c-.09.71.13,1.43.61,1.96s1.16.85,1.87.85h12.66l-11.12,13.35Z"/></svg>