<svg xmlns="http://www.w3.org/2000/svg" viewBox="0 0 48 48"><path fill="currentColor" d="M35.4,32.6l-8.6-8.6,8.6-8.6c.4-.4,.6-.9,.6-1.4s-.2-1-.6-1.4c-.4-.4-.9-.6-1.4-.6s-1,.2-1.4,.6l-8.6,8.6L15.5,12.6c-.4-.4-.9-.6-1.4-.6s-1,.2-1.4,.6c-.4,.4-.6,.9-.6,1.4s.2,1,.6,1.4l8.6,8.6-8.6,8.6c-.2,.2-.3,.4-.5,.6-.1,.2-.2,.5-.2,.7s0,.5,.2,.7c.1,.2,.2,.5,.5,.6,.2,.2,.4,.3,.6,.5,.2,.1,.5,.2,.7,.2s.5,0,.7-.2c.2-.1,.5-.2,.6-.5l8.6-8.6,8.6,8.6c.2,.2,.4,.3,.6,.5,.2,.1,.5,.2,.7,.2s.5,0,.7-.2c.2-.1,.5-.2,.6-.5,.2-.2,.3-.4,.5-.6,.1-.2,.2-.5,.2-.7s0-.5-.2-.7h.2c-.1-.2-.2-.5-.5-.6Z"/></svg>