<svg xmlns="http://www.w3.org/2000/svg" viewBox="0 0 48 48"><path fill="currentColor" d="M31.8,18.8c.1-.2,.2-.5,.2-.8s0-.5-.2-.8c-.1-.2-.2-.5-.4-.6-.2-.2-.4-.3-.6-.4s-.5-.2-.8-.2-.5,0-.8,.2c-.2,.1-.5,.2-.6,.4l-4.5,4.5-4.5-4.5c-.4-.4-.9-.6-1.4-.6s-1,.2-1.4,.6c-.4,.4-.6,.9-.6,1.4s.2,1,.6,1.4l4.5,4.5-4.5,4.5c-.2,.2-.3,.4-.4,.6-.1,.2-.2,.5-.2,.8s0,.5,.2,.8c.1,.2,.2,.5,.4,.6,.2,.2,.4,.3,.6,.4s.5,.2,.8,.2,.5,0,.8-.2c.2-.1,.5-.2,.6-.4l4.5-4.5,4.5,4.5c.2,.2,.4,.3,.6,.4,.2,.1,.5,.2,.8,.2s.5,0,.8-.2,.5-.2,.6-.4c.2-.2,.3-.4,.4-.6,.1-.2,.2-.5,.2-.8s0-.5-.2-.8c-.1-.2-.2-.5-.4-.6l-4.5-4.5,4.5-4.5c.2-.2,.3-.4,.4-.6Zm10.6-2.4c-1-2.4-2.5-4.6-4.4-6.4-1.8-1.9-4-3.4-6.4-4.4-2.4-1-5-1.6-7.6-1.6s-5.2,.5-7.7,1.5-4.6,2.5-6.5,4.3-3.3,4.1-4.3,6.5-1.5,5-1.5,7.7,.6,5.2,1.6,7.6c1,2.4,2.5,4.6,4.4,6.4,1.8,1.9,4,3.4,6.4,4.4,2.4,1,5,1.6,7.6,1.6,2.6,0,5.2-.5,7.7-1.5,2.4-1,4.6-2.5,6.5-4.3,1.9-1.9,3.3-4.1,4.3-6.5,1-2.4,1.5-5,1.5-7.7,0-2.6-.6-5.2-1.6-7.6Zm-3.8,13.6c-.8,1.9-2,3.7-3.4,5.1-2.6,2.6-6,4.2-9.6,4.6-3.6,.4-7.3-.6-10.3-2.6s-5.3-5.1-6.3-8.5c-1.1-3.5-.9-7.3,.5-10.6,1.4-3.4,3.9-6.2,7.1-7.9,3.2-1.7,6.9-2.3,10.5-1.6,3.6,.7,6.8,2.6,9.1,5.5,2.3,2.8,3.6,6.4,3.6,10,0,2.1-.4,4.1-1.2,6.1Z"/></svg>