<svg xmlns="http://www.w3.org/2000/svg" viewBox="0 0 48 48"><path fill="currentColor" d="M45.33,2.84c-.38-.38-.9-.6-1.44-.6l-39.63-.14h0c-.54,0-1.05.21-1.44.59-.39.38-.6.9-.6,1.44l-.14,39.62c0,.54.21,1.07.59,1.45.38.39.9.6,1.44.6l26.61.09h0c.27,0,.53-.05.77-.15.25-.1.47-.25.66-.44l13.06-12.97c.39-.38.6-.89.6-1.44l.09-26.61c0-.53-.19-1.02-.55-1.4l-.04-.04ZM32.79,38.94l.02-6.05h.1s5.95.02,5.95.02l-6.07,6.03ZM41.83,6.41l-.08,22.43h-.1s-10.88-.04-10.88-.04h0c-.54,0-1.05.21-1.44.59-.39.38-.6.9-.6,1.44l-.04,10.98h-.1s-22.43-.08-22.43-.08v-.1s.12-35.44.12-35.44h.1s35.44.12,35.44.12v.1Z"/></svg>