<svg xmlns="http://www.w3.org/2000/svg" viewBox="0 0 48 48"><path fill="currentColor" d="m14.99,13.98h.01c.53,0,1.04-.21,1.41-.59l7.59-7.59,7.59,7.59c.78.78,2.05.78,2.83,0,.38-.38.59-.88.59-1.41s-.21-1.04-.59-1.41L25.41,1.57c-.75-.76-2.07-.76-2.83,0l-9,9c-.38.38-.59.88-.59,1.41s.21,1.04.59,1.41c.38.38.88.59,1.41.59Zm16.58,20.6h.02l-7.59,7.59-7.59-7.59c-.75-.76-2.07-.76-2.83,0-.78.78-.78,2.05,0,2.83l9,9c.38.38.88.59,1.41.59s1.04-.21,1.41-.59l9-9c.78-.78.78-2.05,0-2.83s-2.05-.78-2.83,0Zm-13.84-10.59c0,3.46,2.82,6.28,6.28,6.28s6.28-2.82,6.28-6.28-2.82-6.28-6.28-6.28-6.28,2.82-6.28,6.28Zm8.55,0c0,1.26-1.02,2.28-2.28,2.28s-2.28-1.02-2.28-2.28,1.02-2.28,2.28-2.28,2.28,1.02,2.28,2.28Z"/></svg>