<svg xmlns="http://www.w3.org/2000/svg" viewBox="0 0 48 48"><path fill="currentColor" d="M9.16,36.6c-1.22,0-2.22,1-2.22,2.22s1,2.22,2.22,2.22,2.22-1,2.22-2.22-1-2.22-2.22-2.22ZM45.51,16.85l-2.21-2.2c-.67-.67-1.61-1.03-2.52-1,.03-.93-.32-1.84-1-2.52l-4.75-4.75c-.42-.42-.94-.72-1.52-.88-.16-.56-.46-1.09-.87-1.51l-1.49-1.49c-.65-.65-1.5-1-2.42-1h0c-.91,0-1.76.36-2.4,1l-14.92,14.92c-1.33,1.33-1.33,3.5,0,4.83l3.18,3.18c.19.19.28.45.26.72-.03.27-.18.51-.4.66-9.51,6.07-10.4,6.95-10.82,7.38-2.82,2.82-2.82,7.4,0,10.22,1.36,1.36,3.18,2.11,5.11,2.11s3.75-.75,5.11-2.11c.43-.42,1.31-1.31,7.37-10.82.15-.23.39-.38.66-.41.26-.03.52.06.72.25l3.18,3.18c1.33,1.33,3.5,1.33,4.83,0l14.92-14.92c1.33-1.33,1.33-3.5,0-4.83ZM28.15,33.46l-2.83-2.83c-1.03-1.03-2.46-1.52-3.92-1.37-1.46.16-2.74.96-3.53,2.19-3.77,5.9-6.2,9.51-6.84,10.17-.63.63-1.49.96-2.35.97-.88,0-1.71-.35-2.33-.97-.63-.63-.97-1.46-.97-2.34,0-.88.35-1.71.97-2.33.45-.45,2.57-2,10.16-6.84,1.23-.78,2.03-2.07,2.19-3.53.16-1.46-.34-2.89-1.37-3.92l-2.83-2.83,1.61-1.61,13.63,13.63-1.61,1.61ZM32.54,29.09l-13.64-13.64,9.83-9.83.89.89-1.52,3.37c-.15.32-.08.68.17.94.25.25.62.31.95.16l3.29-1.59,4.21,4.21-6.12,9.11c-.23.33-.19.77.1,1.06.29.29.73.33,1.06.1l9.07-6.16,1.54,1.54-9.84,9.84Z"/></svg>