<svg xmlns="http://www.w3.org/2000/svg" viewBox="0 0 48 48"><path fill="currentColor" d="M24.81,27.28l-3.65,3.68c-.71,.71-.7,1.86,0,2.57,.71,.71,1.86,.7,2.57,0l3.65-3.68,3.67,3.65c.71,.71,1.86,.7,2.57,0,.71-.71,.7-1.86,0-2.57l-3.67-3.65,3.65-3.67c.71-.71,.7-1.86,0-2.57-.71-.71-1.86-.7-2.57,0l-3.65,3.67-3.67-3.65c-.71-.71-1.86-.7-2.57,0-.71,.71-.7,1.86,0,2.57l3.67,3.65ZM40.96,10.92h-3.85v-3.91c0-1.66-1.35-3.01-3.01-3.01H7.04c-1.66,0-3.01,1.35-3.01,3.01v27.06c0,1.66,1.35,3.01,3.01,3.01h3.85v3.91c0,1.66,1.35,3.01,3.01,3.01h27.06c1.66,0,3.01-1.35,3.01-3.01V13.93c0-1.66-1.35-3.01-3.01-3.01Zm-30.07,3.01v19.51h-3.23V7.64h25.81v3.28H13.9c-1.66,0-3.01,1.35-3.01,3.01Zm29.44,26.43H14.53V14.56h25.81v25.81Z"/></svg>