<svg xmlns="http://www.w3.org/2000/svg" viewBox="0 0 48 48"><path fill="currentColor" d="m28.59,4.59c.78-.78,2.05-.78,2.83,0l8,8c.78.78.78,2.05,0,2.83l-8,8c-.78.78-2.05.78-2.83,0-.78-.78-.78-2.05,0-2.83l4.59-4.59H10c-1.1,0-2-.9-2-2s.9-2,2-2h23.17l-4.59-4.59c-.78-.78-.78-2.05,0-2.83Zm-9.17,20c.78.78.78,2.05,0,2.83l-4.59,4.59h23.17c1.1,0,2,.9,2,2s-.9,2-2,2H14.83l4.59,4.59c.78.78.78,2.05,0,2.83-.78.78-2.05.78-2.83,0l-8-8c-.38-.38-.59-.88-.59-1.41s.21-1.04.59-1.41l8-8c.78-.78,2.05-.78,2.83,0Z"/></svg>