<svg xmlns="http://www.w3.org/2000/svg" viewBox="0 0 48 48"><path fill="currentColor" d="M41.9,17.3v-.2c0-.2-.2-.4-.4-.6L29.5,4.6c-.2-.2-.4-.3-.6-.4,0,0-.1,0-.2,0-.2-.1-.4-.2-.7-.2h-8.1c-1.6,0-3.1,.6-4.2,1.8s-1.8,2.7-1.8,4.2v2h-2c-1.6,0-3.1,.6-4.2,1.8s-1.8,2.7-1.8,4.2v20c0,1.6,.6,3.1,1.8,4.2s2.7,1.8,4.2,1.8H28c1.6,0,3.1-.6,4.2-1.8,1.1-1.1,1.8-2.7,1.8-4.2v-2h2c1.6,0,3.1-.6,4.2-1.8,1.1-1.1,1.8-2.7,1.8-4.2v-12h0c0-.3,0-.5-.1-.7Zm-11.9-6.5l5.2,5.2h-3.2c-.5,0-1-.2-1.4-.6s-.6-.9-.6-1.4v-3.2Zm0,27.2c0,.5-.2,1-.6,1.4s-.9,.6-1.4,.6H12c-.5,0-1-.2-1.4-.6-.4-.4-.6-.9-.6-1.4V18c0-.5,.2-1,.6-1.4,.4-.4,.9-.6,1.4-.6h2v14c0,1.6,.6,3.1,1.8,4.2s2.7,1.8,4.2,1.8h10v2Zm8-8c0,.5-.2,1-.6,1.4s-.9,.6-1.4,.6H20c-.5,0-1-.2-1.4-.6-.4-.4-.6-.9-.6-1.4V10c0-.5,.2-1,.6-1.4,.4-.4,.9-.6,1.4-.6h6v6c0,1.6,.6,3.1,1.8,4.2s2.7,1.8,4.2,1.8h6v10Z"/></svg>