<svg xmlns="http://www.w3.org/2000/svg" viewBox="0 0 48 48"><path fill="currentColor" d="M42,12h-3.98s-.02,0-.04,0h-3.98v-4c0-2.21-1.79-4-4-4h-12c-2.21,0-4,1.79-4,4v4h-3.98s-.02,0-.04,0h-3.98c-1.1,0-2,.9-2,2s.9,2,2,2h2.14l1.73,24.28c.15,2.09,1.89,3.72,3.99,3.72h20.28c2.1,0,3.84-1.62,3.99-3.72l1.73-24.28h2.14c1.1,0,2-.9,2-2s-.9-2-2-2Zm-24-4h12v4h-12v-4Zm16.14,32H13.86l-1.71-24h23.7l-1.71,24Zm-14.14-4c1.1,0,2-.9,2-2v-12c0-1.1-.9-2-2-2s-2,.9-2,2v12c0,1.1,.9,2,2,2Zm8,0c1.1,0,2-.9,2-2v-12c0-1.1-.9-2-2-2s-2,.9-2,2v12c0,1.1,.9,2,2,2Z"/></svg>