<svg xmlns="http://www.w3.org/2000/svg" viewBox="0 0 48 48"><path fill="currentColor" d="M22.6,31.4c0,0,.2,.2,.3,.2,0,0,0,0,0,0,0,0,.2,.1,.3,.1,0,0,0,0,.1,0,0,0,.2,0,.3,0,.1,0,.3,0,.4,0s.3,0,.4,0c0,0,.2,0,.3,0,0,0,0,0,.1,0,0,0,.2,0,.3-.1,0,0,0,0,0,0,.1,0,.2-.2,.3-.2l10-10c.8-.8,.8-2,0-2.8-.8-.8-2-.8-2.8,0l-6.6,6.6V6c0-1.1-.9-2-2-2s-2,.9-2,2V25.2l-6.6-6.6c-.8-.8-2-.8-2.8,0-.8,.8-.8,2,0,2.8l10,10Zm19.4-3.4c-1.1,0-2,.9-2,2v8c0,.5-.2,1-.6,1.4-.4,.4-.9,.6-1.4,.6H10c-.5,0-1-.2-1.4-.6-.4-.4-.6-.9-.6-1.4v-8c0-1.1-.9-2-2-2s-2,.9-2,2v8c0,1.6,.6,3.1,1.8,4.2,1.1,1.1,2.6,1.8,4.2,1.8h28c1.6,0,3.1-.6,4.2-1.8,1.1-1.1,1.8-2.6,1.8-4.2v-8c0-1.1-.9-2-2-2Z"/></svg>