<svg xmlns="http://www.w3.org/2000/svg" viewBox="0 0 48 48"><path fill="currentColor" d="M45.3,23.2c0-.2-.2-.5-.4-.7l-4.3-4.3c-.8-.8-2.1-.8-2.9,0-.4,.4-.6,.9-.6,1.4s.2,1.1,.6,1.4l.9,.9h-12.6V9.4l.9,.9c.8,.8,2.1,.8,2.9,0,.4-.4,.6-.9,.6-1.4s-.2-1.1-.6-1.4l-4.3-4.3c-.2-.2-.4-.3-.7-.4-.5-.2-1.1-.2-1.5,0-.2,.1-.5,.2-.7,.4l-4.3,4.3c-.4,.4-.6,.9-.6,1.4s.2,1.1,.6,1.4c.8,.8,2.1,.8,2.9,0l.9-.9v12.6H9.4l.9-.9c.4-.4,.6-.9,.6-1.4s-.2-1.1-.6-1.4c-.8-.8-2.1-.8-2.9,0l-4.3,4.3c-.2,.2-.3,.4-.4,.7-.2,.5-.2,1.1,0,1.5,0,.2,.2,.5,.4,.7l4.3,4.3c.8,.8,2.1,.8,2.9,0,.4-.4,.6-.9,.6-1.4s-.2-1.1-.6-1.4l-.9-.9h12.6v12.6l-.9-.9c-.8-.8-2.1-.8-2.9,0-.4,.4-.6,.9-.6,1.4s.2,1.1,.6,1.4l4.3,4.3c.2,.2,.4,.3,.7,.4,.3,.1,.5,.2,.8,.2s.5,0,.8-.2c.2-.1,.5-.2,.7-.4l4.3-4.3c.4-.4,.6-.9,.6-1.4s-.2-1.1-.6-1.4c-.8-.8-2.1-.8-2.9,0l-.9,.9v-12.6h12.6l-.9,.9c-.4,.4-.6,.9-.6,1.4s.2,1.1,.6,1.4h0c.8,.8,2.1,.8,2.9,0l4.3-4.3c.2-.2,.3-.4,.4-.7,.2-.5,.2-1.1,0-1.5Z"/></svg>