<svg xmlns="http://www.w3.org/2000/svg" viewBox="0 0 48 48"><path fill="currentColor" d="M19.8,11.4c0,.2,.3,.4,.6,.6,.2,.2,.5,.3,.8,.3h.8c.7-.2,1.4-.3,2.1-.3,6.4,0,12.4,4.6,15.8,12-.6,1.1-1.1,2.2-1.8,3.2-.2,.3-.3,.7-.3,1.1s.2,.9,.4,1.2c.3,.4,.7,.6,1,.7,.4,0,.9,0,1.2,0,.4-.2,.8-.5,1-.9,1-1.4,1.7-3,2.4-4.6,0-.3,.2-.5,.2-.8s0-.6-.2-.8c-4-9.3-11.6-15.2-19.8-15.2s-1.9,0-2.8,.3c-.3,0-.5,0-.8,.3-.2,0-.4,.3-.6,.6-.2,.2-.3,.5-.3,.8v.8c0,.2,0,.5,.3,.8h0Zm23.9,29.7c0-.3-.3-.5-.5-.7L7.5,4.6c-.2-.2-.4-.4-.7-.5-.3,0-.5-.2-.8-.2s-.6,0-.8,.2c-.3,0-.5,.3-.7,.5-.4,.4-.6,.9-.6,1.4s.2,1,.6,1.4l6.2,6.2c-2.9,2.8-5,6-6.6,9.6,0,.3-.2,.6-.2,.8s0,.6,.2,.8c4,9.3,11.6,15.2,19.8,15.2s7.1-1,10.1-3l6.5,6.5c.2,.2,.4,.4,.7,.5s.5,.2,.8,.2,.6,0,.8-.2c.3,0,.5-.3,.7-.5s.4-.4,.5-.7,.2-.5,.2-.8,0-.6-.2-.8h0ZM20.1,23l4.8,4.8c-.4,0-.7,.2-1,0-1,0-2.1-.4-2.9-1.1-.8-.8-1.1-1.8-1.1-2.9s0-.7,0-1h0Zm3.9,13.1c-6.4,0-12.4-4.6-15.8-12,1.3-2.9,3.1-5.4,5.4-7.6l3.5,3.6c-.9,1.5-1.1,3.2-.9,4.9,.3,1.7,1,3.3,2.3,4.5,1.2,1.2,2.9,2,4.5,2.3,1.7,.3,3.4,0,4.9-.9l3.1,3.1c-2.2,1.2-4.7,2-7.1,2Z"/></svg>