<svg xmlns="http://www.w3.org/2000/svg" viewBox="0 0 48 48"><path fill="currentColor" d="M43.8,23.2c-4-9.3-11.6-15.2-19.8-15.2S8.2,13.8,4.2,23.2c0,.3-.2,.6-.2,.8s0,.6,.2,.8c4,9.3,11.6,15.2,19.8,15.2s15.8-5.8,19.8-15.2c0-.3,.2-.6,.2-.8s0-.6-.2-.8Zm-19.8,12.8c-6.4,0-12.4-4.6-15.8-12,3.4-7.4,9.4-12,15.8-12s12.4,4.6,15.8,12c-3.4,7.4-9.4,12-15.8,12Zm0-20c-1.6,0-3.1,.5-4.5,1.3-1.3,.9-2.4,2.1-3,3.6-.6,1.4-.8,3-.5,4.7,.3,1.5,1,3,2.2,4.1s2.6,1.9,4.1,2.2,3.1,.2,4.7-.5c1.4-.6,2.7-1.6,3.6-3,.9-1.3,1.3-2.9,1.3-4.5s-.9-4.2-2.4-5.6c-1.5-1.5-3.5-2.4-5.6-2.4Zm2.9,10.9c-.8,.8-1.8,1.1-2.9,1.1s-1.5-.2-2.2-.7c-.7-.5-1.1-1-1.4-1.8s-.4-1.5-.2-2.3c.2-.8,.6-1.5,1-2s1.2-1,2-1c.8-.2,1.6,0,2.3,.2,.8,.3,1.3,.9,1.8,1.4,.5,.7,.7,1.4,.7,2.2s-.4,2.1-1.1,2.9Z"/></svg>