<svg xmlns="http://www.w3.org/2000/svg" viewBox="0 0 48 48"><path fill="currentColor" d="M20,12c-.5,0-1,.2-1.4,.6-.4,.4-.6,.9-.6,1.4v8h-7.2l1.6-1.6c.4-.4,.6-.9,.6-1.4s-.2-1-.6-1.4c-.4-.4-.9-.6-1.4-.6s-1,.2-1.4,.6l-5,5c-.2,.2-.3,.4-.4,.7-.2,.5-.2,1,0,1.5,0,.2,.2,.5,.4,.7l5,5c.2,.2,.4,.3,.7,.4,.2,.1,.5,.2,.8,.2s.5,0,.8-.2c.2-.1,.5-.3,.7-.4,.2-.2,.3-.4,.4-.7,.1-.2,.2-.5,.2-.8s0-.5-.2-.8c-.1-.2-.3-.5-.4-.7l-1.6-1.6h7.2v8c0,.5,.2,1,.6,1.4,.4,.4,.9,.6,1.4,.6s1-.2,1.4-.6,.6-.9,.6-1.4V14c0-.5-.2-1-.6-1.4-.4-.4-.9-.6-1.4-.6Zm23.9,11.2c0-.2-.2-.5-.4-.7l-5-5c-.2-.2-.4-.3-.7-.4-.2-.1-.5-.2-.8-.2-.5,0-1,.2-1.4,.6-.2,.2-.3,.4-.4,.7-.1,.2-.2,.5-.2,.8,0,.5,.2,1,.6,1.4l1.6,1.6h-7.2V14c0-.5-.2-1-.6-1.4-.4-.4-.9-.6-1.4-.6s-1,.2-1.4,.6c-.4,.4-.6,.9-.6,1.4v20c0,.5,.2,1,.6,1.4,.4,.4,.9,.6,1.4,.6s1-.2,1.4-.6,.6-.9,.6-1.4v-8h7.2l-1.6,1.6c-.2,.2-.3,.4-.4,.7-.1,.2-.2,.5-.2,.8s0,.5,.2,.8c.1,.2,.3,.5,.4,.7,.2,.2,.4,.3,.7,.4,.2,.1,.5,.2,.8,.2s.5,0,.8-.2c.2-.1,.5-.3,.7-.4l5-5c.2-.2,.3-.4,.4-.7,.2-.5,.2-1,0-1.5Z"/></svg>