<svg xmlns="http://www.w3.org/2000/svg" viewBox="0 0 48 48"><path fill="currentColor" d="M12.625 18.0039C13.4407 18.0443 14.2147 18.3866 14.7949 18.9668L18.0332 22.2051C18.652 22.8239 18.9999 23.663 19 24.5381L19 38.7002C18.9999 40.5226 17.5226 41.9999 15.7002 42H6.2998C4.47742 41.9999 3.00011 40.5226 3 38.7002L3 21.2998C3.0001 19.4774 4.47742 18.0001 6.2998 18H12.4619L12.625 18.0039ZM38.625 18.0039C39.4407 18.0443 40.2147 18.3866 40.7949 18.9668L44.0332 22.2051C44.652 22.8239 44.9999 23.663 45 24.5381L45 38.7002C44.9999 40.5226 43.5226 41.9999 41.7002 42H32.2998C30.4774 41.9999 29.0001 40.5226 29 38.7002L29 21.2998C29.0001 19.4774 30.4774 18.0001 32.2998 18H38.4619L38.625 18.0039ZM24 14C25.1046 14 26 14.8954 26 16L26 39C26 40.1046 25.1046 41 24 41C22.8954 41 22 40.1046 22 39L22 16C22 14.8954 22.8954 14 24 14ZM7 38H15L15 24.8281L12.1719 22H7L7 38ZM33 38H41L41 24.8281L38.1719 22L33 22L33 38ZM34 4C35.1046 4 36 4.89543 36 6V12.0107C35.9992 12.1349 35.9864 12.2584 35.9629 12.3799C35.9572 12.4092 35.9493 12.4379 35.9424 12.4668C35.933 12.506 35.9239 12.5454 35.9121 12.584C35.9067 12.6017 35.9004 12.6192 35.8945 12.6367C35.8795 12.6814 35.8638 12.7259 35.8457 12.7695C35.8364 12.7917 35.8255 12.8132 35.8154 12.835C35.799 12.8708 35.7823 12.9065 35.7637 12.9414C35.7501 12.9668 35.7344 12.9909 35.7197 13.0156C35.6363 13.157 35.5361 13.2897 35.417 13.4092C35.324 13.5027 35.2222 13.5874 35.1123 13.6611L35.1094 13.6641C35.0985 13.6713 35.0862 13.6766 35.0752 13.6836C35.03 13.7125 34.9841 13.7404 34.9365 13.7656C34.9256 13.7714 34.9143 13.7766 34.9033 13.7822C34.8571 13.8057 34.8099 13.8278 34.7617 13.8477C34.7388 13.8571 34.7155 13.8655 34.6924 13.874C34.6538 13.8883 34.6149 13.9022 34.5752 13.9141C34.5465 13.9227 34.5172 13.9292 34.4883 13.9365C34.4556 13.9447 34.423 13.9544 34.3896 13.9609C34.333 13.9722 34.2758 13.9801 34.2188 13.9863C34.2132 13.987 34.2077 13.9887 34.2021 13.9893C34.1348 13.996 34.0673 14.0001 34 14L28 14C26.8955 13.9999 26 13.1045 26 12C26 10.8955 26.8955 10.0001 28 10H29.5869C27.9048 8.63698 26.0507 8 24 8C20.7639 8.00006 18.0149 9.58314 15.6641 13.1094C15.0513 14.0284 13.8097 14.2767 12.8906 13.6641C11.9717 13.0513 11.7233 11.8096 12.3359 10.8906C15.3238 6.40876 19.2445 4.00006 24 4C27.0097 4 29.684 4.96611 32 6.81055V6C32 4.89549 32.8955 4.0001 34 4Z"/></svg>