<svg xmlns="http://www.w3.org/2000/svg" viewBox="0 0 48 48"><path fill="currentColor" d="M25.5858 4.58579C26.3668 3.80474 27.6332 3.80474 28.4142 4.58579L34.4142 10.5858C35.1953 11.3668 35.1953 12.6332 34.4142 13.4142L28.4142 19.4142C27.6332 20.1953 26.3668 20.1953 25.5858 19.4142C24.8047 18.6332 24.8047 17.3668 25.5858 16.5858L28.1716 14H25C17.9046 14 12 19.9046 12 27C12 34.0954 17.9046 40 25 40C32.0954 40 38 34.0954 38 27C38 25.8954 38.8954 25 40 25C41.1046 25 42 25.8954 42 27C42 36.3046 34.3046 44 25 44C15.6954 44 8 36.3046 8 27C8 17.6954 15.6954 10 25 10H28.1716L25.5858 7.41421C24.8047 6.63317 24.8047 5.36683 25.5858 4.58579Z"/></svg>