<svg xmlns="http://www.w3.org/2000/svg" viewBox="0 0 48 48"><path fill="currentColor" d="M43.8,5.2c-.2-.5-.6-.9-1.1-1.1-.2-.1-.5-.2-.8-.2h-12c-.5,0-1,.2-1.4,.6-.4,.4-.6,.9-.6,1.4s.2,1,.6,1.4c.4,.4,.9,.6,1.4,.6h7.2L4.6,40.6c-.2,.2-.3,.4-.4,.7-.1,.2-.2,.5-.2,.8s0,.5,.2,.8c.1,.2,.3,.5,.4,.7,.2,.2,.4,.3,.7,.4,.2,.1,.5,.2,.8,.2s.5,0,.8-.2c.2-.1,.5-.3,.7-.4L40,10.8v7.2c0,.5,.2,1,.6,1.4,.4,.4,.9,.6,1.4,.6s1-.2,1.4-.6c.4-.4,.6-.9,.6-1.4V6c0-.3,0-.5-.2-.8Zm-26.4,14.8c.4,.4,.9,.6,1.4,.6s1-.2,1.4-.6c.4-.4,.6-.9,.6-1.4s-.2-1-.6-1.4L7.7,4.6c-.4-.4-.9-.6-1.4-.6s-1,.2-1.4,.6c-.4,.4-.6,.9-.6,1.4s.2,1,.6,1.4l12.6,12.6Zm24.6,8c-.5,0-1,.2-1.4,.6-.4,.4-.6,.9-.6,1.4v7.2l-9.1-9.2c-.4-.4-.9-.6-1.4-.6s-1.1,.2-1.4,.6c-.4,.4-.6,.9-.6,1.4s.2,1.1,.6,1.4l9.2,9.1h-7.2c-.5,0-1,.2-1.4,.6-.4,.4-.6,.9-.6,1.4s.2,1,.6,1.4c.4,.4,.9,.6,1.4,.6h12c.3,0,.5,0,.8-.2,.5-.2,.9-.6,1.1-1.1,.1-.2,.2-.5,.2-.8v-12c0-.5-.2-1-.6-1.4-.4-.4-.9-.6-1.4-.6Z"/></svg>