<svg xmlns="http://www.w3.org/2000/svg" viewBox="0 0 48 48"><path fill="currentColor" d="M11,35h-3V13h15.6l-1.6,1.58c-.38,.37-.59,.88-.59,1.41,0,.53,.21,1.04,.58,1.42,.37,.38,.88,.59,1.41,.59,.53,0,1.04-.21,1.42-.58l5-5c.19-.19,.34-.41,.44-.65,.1-.24,.15-.51,.15-.77s-.05-.53-.15-.77c-.1-.24-.25-.46-.44-.65l-5-5c-.37-.37-.88-.58-1.41-.58s-1.04,.21-1.41,.58c-.19,.19-.34,.41-.44,.65-.1,.24-.15,.51-.15,.77s.05,.53,.15,.77c.1,.24,.25,.46,.44,.65l1.58,1.58H6c-.53,0-1.04,.21-1.41,.59-.38,.38-.59,.88-.59,1.41v26c0,.53,.21,1.04,.59,1.41,.38,.38,.88,.59,1.41,.59h5c.53,0,1.04-.21,1.41-.59,.38-.38,.59-.88,.59-1.41s-.21-1.04-.59-1.41c-.38-.38-.88-.59-1.41-.59ZM42,9h-5c-.53,0-1.04,.21-1.41,.59-.38,.38-.59,.88-.59,1.41s.21,1.04,.59,1.41,.88,.59,1.41,.59h3v22H23.26l1.58-1.58c.19-.19,.34-.41,.44-.65,.1-.24,.15-.51,.15-.77s-.05-.53-.15-.77c-.1-.24-.25-.46-.44-.65-.37-.37-.88-.58-1.41-.58s-1.04,.21-1.41,.58l-5,5c-.19,.19-.34,.41-.44,.65-.1,.24-.15,.51-.15,.77s.05,.53,.15,.77c.1,.24,.25,.46,.44,.65l5,5c.38,.37,.89,.58,1.42,.58,.53,0,1.04-.21,1.41-.59,.37-.38,.58-.89,.58-1.42,0-.53-.21-1.04-.59-1.41l-1.58-1.58h18.74c.53,0,1.04-.21,1.41-.59s.59-.88,.59-1.41V11c0-.53-.21-1.04-.59-1.41-.38-.38-.88-.59-1.41-.59Z"/></svg>