<svg xmlns="http://www.w3.org/2000/svg" viewBox="0 0 48 48"><path fill="currentColor" d="M16.93,39.71h-8.65v-8.65c0-.15-.13-.28-.28-.28h-3.72c-.15,0-.28.13-.28.28v11.53c0,.77.63,1.4,1.4,1.4h11.53c.15,0,.28-.13.28-.28v-3.72c0-.15-.13-.28-.28-.28ZM16.93,4H5.4c-.77,0-1.4.63-1.4,1.4v11.53c0,.15.13.28.28.28h3.72c.15,0,.28-.13.28-.28v-8.65h8.65c.15,0,.28-.13.28-.28v-3.72c0-.15-.13-.28-.28-.28ZM42.6,4h-11.53c-.15,0-.28.13-.28.28v3.72c0,.15.13.28.28.28h8.65v8.65c0,.15.13.28.28.28h3.72c.15,0,.28-.13.28-.28V5.4c0-.77-.63-1.4-1.4-1.4ZM43.72,30.78h-3.72c-.15,0-.28.13-.28.28v8.65h-8.65c-.15,0-.28.13-.28.28v3.72c0,.15.13.28.28.28h11.53c.77,0,1.4-.63,1.4-1.4v-11.53c0-.15-.13-.28-.28-.28Z"/></svg>