<svg xmlns="http://www.w3.org/2000/svg" viewBox="0 0 48 48"><path fill="currentColor" d="M43.4014 22.6C43.0014 22.2 42.5014 22 42.0014 22C41.5014 22 41.0014 22.2 40.6014 22.6C40.2014 23 40.0014 23.5 40.0014 24C40.0014 27.7 38.7014 31.4 36.4014 34.3C34.0014 37.2 30.7014 39.2 27.0014 39.9C23.3014 40.6 19.5014 40 16.2014 38.3C12.9014 36.5 10.3014 33.6 8.90137 30.2C7.50137 26.7 7.40137 22.9 8.50137 19.3C9.60137 15.7 12.0014 12.7 15.1014 10.6C18.2014 8.59996 22.0014 7.69996 25.7014 8.09996C29.4014 8.49996 32.9014 10.3 35.5014 13H31.4014C30.9014 13 30.4014 13.2 30.0014 13.6C29.6014 14 29.4014 14.5 29.4014 15C29.4014 15.5 29.6014 16 30.0014 16.4C30.4014 16.8 30.9014 17 31.4014 17H39.8014C40.3014 17 40.8014 16.8 41.2014 16.4C41.6014 16 41.8014 15.5 41.8014 15V6.29996C41.8014 5.79996 41.6014 5.29996 41.2014 4.89996C40.8014 4.49996 40.3014 4.29996 39.8014 4.29996C39.3014 4.29996 38.8014 4.49996 38.4014 4.89996C38.0014 5.29996 37.8014 5.79996 37.8014 6.29996V9.49996C34.5014 6.29996 30.1014 4.39996 25.5014 3.99996C20.9014 3.59996 16.3014 4.89996 12.5014 7.49996C8.70137 10.1 5.90137 14 4.70137 18.4C3.40137 22.8 3.70137 27.6 5.50137 31.8C7.30137 36 10.5014 39.5 14.6014 41.7C18.7014 43.8 23.4014 44.5 27.9014 43.6C32.4014 42.7 36.5014 40.2 39.4014 36.7C42.3014 33.1 43.9014 28.7 43.9014 24.1C43.9014 23.6 43.7014 23.1 43.3014 22.7L43.4014 22.6Z"/></svg>