<svg xmlns="http://www.w3.org/2000/svg" viewBox="0 0 48 48"><path fill="currentColor" d="M21.7,14.3c-.6-.4-1.4-.4-2.1,0-.7,.3-1.1,1-1.1,1.8v16c0,.7,.4,1.4,1.1,1.8,.3,.2,.6,.2,.9,.2s.8-.1,1.1-.3l12-8c.6-.4,.9-1,.9-1.7s-.3-1.3-.9-1.7l-12-8Zm.9,13.9v-8.5l6.4,4.3-6.4,4.3Zm20.8-5.6c-.4-.4-.9-.6-1.4-.6s-1,.2-1.4,.6-.6,.9-.6,1.4c0,3.7-1.3,7.4-3.6,10.3-2.4,2.9-5.7,4.9-9.4,5.6-3.7,.7-7.5,.1-10.8-1.6-3.3-1.8-5.9-4.7-7.3-8.1-1.4-3.5-1.5-7.3-.4-10.9,1.1-3.6,3.5-6.6,6.6-8.7,3.1-2,6.9-2.9,10.6-2.5,3.7,.4,7.2,2.2,9.8,4.9h-4.1c-.5,0-1,.2-1.4,.6-.4,.4-.6,.9-.6,1.4s.2,1,.6,1.4c.4,.4,.9,.6,1.4,.6h8.4c.5,0,1-.2,1.4-.6,.4-.4,.6-.9,.6-1.4V6.3c0-.5-.2-1-.6-1.4-.4-.4-.9-.6-1.4-.6s-1,.2-1.4,.6c-.4,.4-.6,.9-.6,1.4v3.2c-3.3-3.2-7.7-5.1-12.3-5.5-4.6-.4-9.2,.9-13,3.5-3.8,2.6-6.6,6.5-7.8,10.9-1.3,4.4-1,9.2,.8,13.4,1.8,4.2,5,7.7,9.1,9.9,4.1,2.1,8.8,2.8,13.3,1.9,4.5-.9,8.6-3.4,11.5-6.9,2.9-3.6,4.5-8,4.5-12.6,0-.5-.2-1-.6-1.4Z"/></svg>