<svg xmlns="http://www.w3.org/2000/svg" viewBox="0 0 48 48"><path fill="currentColor" d="M6 32C7.10457 32 8 32.8954 8 34V38C8 38.5304 8.21086 39.039 8.58594 39.4141C8.96101 39.7891 9.46957 40 10 40H14C15.1046 40 16 40.8954 16 42C16 43.1046 15.1046 44 14 44H10C8.4087 44 6.88303 43.3674 5.75781 42.2422C4.63259 41.117 4 39.5913 4 38V34C4 32.8954 4.89543 32 6 32ZM42 32C43.1046 32 44 32.8954 44 34V38C44 39.5913 43.3674 41.117 42.2422 42.2422C41.117 43.3674 39.5913 44 38 44H34C32.8954 44 32 43.1046 32 42C32 40.8954 32.8954 40 34 40H38C38.5304 40 39.039 39.7891 39.4141 39.4141C39.7891 39.039 40 38.5304 40 38V34C40 32.8954 40.8954 32 42 32ZM34 22C35.1046 22 36 22.8954 36 24C36 25.1046 35.1046 26 34 26H14C12.8954 26 12 25.1046 12 24C12 22.8954 12.8954 22 14 22H34ZM14 4C15.1046 4 16 4.89543 16 6C16 7.10457 15.1046 8 14 8H10C9.46957 8 8.96101 8.21086 8.58594 8.58594C8.21086 8.96101 8 9.46957 8 10V14C8 15.1046 7.10457 16 6 16C4.89543 16 4 15.1046 4 14V10C4 8.4087 4.63259 6.88303 5.75781 5.75781C6.88303 4.63259 8.4087 4 10 4H14ZM38 4C39.5913 4 41.117 4.63259 42.2422 5.75781C43.3674 6.88303 44 8.4087 44 10V14C44 15.1046 43.1046 16 42 16C40.8954 16 40 15.1046 40 14V10C40 9.46957 39.7891 8.96101 39.4141 8.58594C39.039 8.21086 38.5304 8 38 8H34C32.8954 8 32 7.10457 32 6C32 4.89543 32.8954 4 34 4H38Z"/></svg>