<svg xmlns="http://www.w3.org/2000/svg" viewBox="0 0 48 48"><path fill="currentColor" d="M43.4,40.6l-7.4-7.3c2.9-3.6,4.3-8.2,3.9-12.8-.4-4.6-2.5-8.9-5.9-11.9-3.4-3-7.9-4.7-12.5-4.6s-9,2-12.2,5.2c-3.2,3.2-5.2,7.7-5.3,12.3s1.5,9,4.6,12.5c3,3.4,7.3,5.5,11.9,5.9s9.1-1,12.8-3.9l7.3,7.3c.2,.2,.4,.4,.7,.5s.5,.2,.8,.2,.6,0,.8-.2c.3,0,.5-.3,.7-.5,.4-.4,.6-.9,.6-1.4s-.2-1-.6-1.4h0Zm-11.5-8.6c-2.7,2.7-6.2,4.1-9.9,4.1s-5.4-.9-7.8-2.4c-2.3-1.5-4.1-3.7-5.1-6.3-1-2.6-1.3-5.3-.8-8.1,.6-2.7,1.9-5.2,3.8-7.1,2-2,4.5-3.3,7.1-3.8,2.7-.6,5.5-.3,8.1,.8s4.8,2.9,6.3,5.1c1.5,2.3,2.4,5,2.4,7.8s-1.4,7.2-4.1,9.9Z"/></svg>