<svg xmlns="http://www.w3.org/2000/svg" viewBox="0 0 48 48"><path fill="currentColor" d="M36,28c-1.2,0-2.3,.3-3.4,.8-1.1,.5-2,1.3-2.7,2.2l-10.2-4.7c.5-1.5,.5-3.1,0-4.5l10.2-4.7c1.2,1.5,2.9,2.4,4.7,2.8,1.9,.3,3.8,0,5.4-.9,1.6-.9,2.9-2.4,3.5-4.2,.6-1.8,.6-3.7,0-5.5-.6-1.8-1.9-3.3-3.5-4.2-1.6-.9-3.5-1.3-5.4-.9-1.9,.3-3.5,1.3-4.7,2.8-1.2,1.5-1.9,3.3-1.8,5.2,0,.5,0,1,.1,1.4l-10.6,4.9c-1.1-1.1-2.6-1.8-4.1-2.1-1.5-.3-3.1-.1-4.6,.5-1.5,.6-2.7,1.6-3.6,2.9-.9,1.3-1.3,2.9-1.3,4.4s.5,3.1,1.3,4.4c.9,1.3,2.1,2.3,3.6,2.9,1.5,.6,3,.8,4.6,.5,1.5-.3,3-1,4.1-2.1l10.6,4.9c0,.5-.1,.9-.1,1.4,0,1.6,.5,3.1,1.3,4.4,.9,1.3,2.1,2.3,3.6,2.9,1.5,.6,3.1,.8,4.6,.5,1.6-.3,3-1.1,4.1-2.2,1.1-1.1,1.9-2.5,2.2-4.1,.3-1.6,.2-3.2-.5-4.6-.6-1.5-1.6-2.7-2.9-3.6-1.3-.9-2.9-1.3-4.4-1.3Zm0-20c.8,0,1.6,.2,2.2,.7,.7,.4,1.2,1.1,1.5,1.8,.3,.7,.4,1.5,.2,2.3s-.5,1.5-1.1,2c-.6,.6-1.3,.9-2,1.1s-1.6,0-2.3-.2c-.7-.3-1.4-.8-1.8-1.5-.4-.7-.7-1.4-.7-2.2s.4-2.1,1.2-2.8c.7-.7,1.8-1.2,2.8-1.2ZM12,28c-.8,0-1.6-.2-2.2-.7-.7-.4-1.2-1.1-1.5-1.8-.3-.7-.4-1.5-.2-2.3,.2-.8,.5-1.5,1.1-2,.6-.6,1.3-.9,2-1.1,.8-.2,1.6,0,2.3,.2,.7,.3,1.4,.8,1.8,1.5,.4,.7,.7,1.4,.7,2.2s-.4,2.1-1.2,2.8-1.8,1.2-2.8,1.2Zm24,12c-.8,0-1.6-.2-2.2-.7-.7-.4-1.2-1.1-1.5-1.8-.3-.7-.4-1.5-.2-2.3,.2-.8,.5-1.5,1.1-2s1.3-.9,2-1.1c.8-.2,1.6,0,2.3,.2,.7,.3,1.4,.8,1.8,1.5,.4,.7,.7,1.4,.7,2.2s-.4,2.1-1.2,2.8c-.7,.7-1.8,1.2-2.8,1.2Z"/></svg>