<svg xmlns="http://www.w3.org/2000/svg" viewBox="0 0 48 48"><path fill="currentColor" d="M42.5,16.3c-1-2.4-2.5-4.6-4.3-6.5-1.9-1.9-4.1-3.3-6.5-4.3-2.4-1-5-1.5-7.7-1.5-5.1,0-10.1,2-13.8,5.5v-3.5c0-.5-.2-1-.6-1.4-.4-.4-.9-.6-1.4-.6s-1,.2-1.4,.6-.6,.9-.6,1.4V15c0,.5,.2,1,.6,1.4s.9,.6,1.4,.6h9c.5,0,1-.2,1.4-.6,.4-.4,.6-.9,.6-1.4s-.2-1-.6-1.4c-.4-.4-.9-.6-1.4-.6h-4.8c2.2-2.3,5-3.9,8.2-4.6,3.1-.7,6.4-.4,9.3,.8,3,1.2,5.5,3.2,7.3,5.9,1.8,2.6,2.8,5.7,2.8,8.9,0,.5,.2,1,.6,1.4s.9,.6,1.4,.6,1-.2,1.4-.6,.6-.9,.6-1.4c0-2.6-.5-5.2-1.5-7.7Zm-2.7,14.7h-9.1c-.5,0-1,.2-1.4,.6s-.6,.9-.6,1.4,.2,1,.6,1.4,.9,.6,1.4,.6h4.8c-2.2,2.3-5.1,3.9-8.2,4.6-3.1,.7-6.4,.4-9.3-.8-3-1.2-5.5-3.2-7.3-5.9-1.8-2.6-2.8-5.8-2.8-8.9,0-.5-.2-1-.6-1.4-.4-.4-.9-.6-1.4-.6s-1,.2-1.4,.6c-.4,.4-.6,.9-.6,1.4,0,3.9,1.2,7.7,3.3,11s5.2,5.8,8.8,7.4c3.6,1.5,7.6,2,11.4,1.3,3.8-.7,7.4-2.5,10.2-5.2v3.5c0,.5,.2,1,.6,1.4s.9,.6,1.4,.6,1-.2,1.4-.6,.6-.9,.6-1.4v-9c0-.5-.2-1-.6-1.4-.4-.4-.9-.6-1.4-.6Z"/></svg>