<svg xmlns="http://www.w3.org/2000/svg" viewBox="0 0 48 48"><path fill="currentColor" d="M39.82,31.02h-9.06c-.53,0-1.04,.21-1.41,.59s-.59,.88-.59,1.41,.21,1.04,.59,1.41,.88,.59,1.41,.59h4.8c-2.21,2.31-5.05,3.9-8.17,4.57-3.12,.68-6.37,.4-9.33-.78-2.96-1.18-5.5-3.23-7.3-5.87-1.79-2.64-2.75-5.76-2.76-8.95,0-.53-.21-1.04-.59-1.41-.38-.38-.88-.59-1.41-.59s-1.04,.21-1.41,.59c-.38,.38-.59,.88-.59,1.41,.01,3.91,1.16,7.72,3.32,10.98,2.15,3.26,5.22,5.81,8.81,7.35,3.59,1.54,7.55,1.99,11.4,1.3,3.84-.69,7.4-2.49,10.24-5.17v3.54c0,.53,.21,1.04,.59,1.41s.88,.59,1.41,.59,1.04-.21,1.41-.59,.59-.88,.59-1.41v-9c0-.52-.21-1.01-.57-1.38-.36-.37-.85-.58-1.37-.6Zm-9.82-7.02c0-1.19-.35-2.35-1.01-3.33-.66-.99-1.6-1.76-2.69-2.21-1.1-.45-2.3-.57-3.47-.34-1.16,.23-2.23,.8-3.07,1.64-.84,.84-1.41,1.91-1.64,3.07-.23,1.16-.11,2.37,.34,3.47,.45,1.1,1.22,2.03,2.21,2.69,.99,.66,2.15,1.01,3.33,1.01,1.59,0,3.12-.63,4.24-1.76s1.76-2.65,1.76-4.24Zm-8,0c0-.4,.12-.78,.34-1.11,.22-.33,.53-.59,.9-.74,.37-.15,.77-.19,1.16-.11s.74,.27,1.02,.55c.28,.28,.47,.64,.55,1.02s.04,.79-.11,1.16c-.15,.37-.41,.68-.74,.9-.33,.22-.72,.34-1.11,.34-.53,0-1.04-.21-1.41-.59s-.59-.88-.59-1.41Zm2-20c-5.13,.01-10.05,2-13.76,5.54v-3.54c0-.53-.21-1.04-.59-1.41-.38-.38-.88-.59-1.41-.59s-1.04,.21-1.41,.59c-.38,.38-.59,.88-.59,1.41V15c0,.53,.21,1.04,.59,1.41,.38,.38,.88,.59,1.41,.59h9c.53,0,1.04-.21,1.41-.59,.38-.38,.59-.88,.59-1.41s-.21-1.04-.59-1.41c-.38-.38-.88-.59-1.41-.59h-4.8c2.2-2.3,5.05-3.9,8.16-4.57,3.12-.68,6.36-.41,9.33,.78,2.96,1.18,5.5,3.22,7.3,5.86,1.79,2.64,2.76,5.75,2.77,8.94,0,.53,.21,1.04,.59,1.41s.88,.59,1.41,.59,1.04-.21,1.41-.59,.59-.88,.59-1.41c0-2.63-.52-5.23-1.52-7.65-1.01-2.43-2.48-4.63-4.34-6.49-1.86-1.86-4.06-3.33-6.49-4.34-2.43-1.01-5.03-1.52-7.65-1.52h0Z"/></svg>