<svg xmlns="http://www.w3.org/2000/svg" viewBox="0 0 48 48"><path fill="currentColor" d="M41.4,12.6c-.4-.4-.9-.6-1.4-.6h-8v-2c0-1.6-.7-3.1-1.7-4.3-1.1-1.1-2.7-1.7-4.3-1.7h-4c-1.6,0-3.1,.7-4.3,1.7-1.1,1.1-1.7,2.7-1.7,4.3v2H8c-.6,0-1,.2-1.4,.6-.4,.4-.6,.9-.6,1.4s.2,1,.6,1.4,.9,.6,1.4,.6h2v22c0,1.6,.7,3.1,1.7,4.3,1.1,1.1,2.7,1.7,4.3,1.7h16c1.6,0,3.1-.7,4.3-1.7,1.1-1.1,1.7-2.7,1.7-4.3V16h2c.6,0,1-.2,1.4-.6,.4-.4,.6-.9,.6-1.4s-.2-1-.6-1.4Zm-21.4-2.6c0-.6,.2-1,.6-1.4,.4-.4,.9-.6,1.4-.6h4c.6,0,1,.2,1.4,.6,.4,.4,.6,.9,.6,1.4v2h-8v-2Zm14,28c0,.6-.2,1-.6,1.4s-.9,.6-1.4,.6H16c-.6,0-1-.2-1.4-.6-.4-.4-.6-.9-.6-1.4V16h20v22Z"/></svg>