<svg xmlns="http://www.w3.org/2000/svg" viewBox="0 0 48 48"><path fill="currentColor" d="M43.5098 18.9594C42.9498 18.3794 42.1598 18.0394 41.3398 18.0394H38.1798C38.1198 17.8794 38.0598 17.7194 37.9898 17.5594L40.2298 15.3294C40.8098 14.7494 41.1298 13.9794 41.1298 13.1694C41.1298 12.3594 40.8198 11.5994 40.2498 10.9994L36.5598 7.28938C35.3998 6.12938 33.3898 6.12938 32.2298 7.28938L30.0698 9.43937C29.8898 9.35937 29.7198 9.28938 29.5398 9.21938V6.15937C29.5198 4.47938 28.1398 3.10938 26.4598 3.10938H21.2198C19.5298 3.10938 18.1598 4.47938 18.1598 6.16938V9.14937C18.0198 9.20937 17.8798 9.25938 17.7298 9.32938L15.6498 7.20938C14.5598 6.06938 12.5298 5.99938 11.3098 7.16938L7.5798 10.8294C6.9998 11.3894 6.6598 12.1794 6.6598 12.9994C6.6598 13.8194 6.9698 14.5694 7.5398 15.1694L9.6598 17.3194C9.5798 17.4994 9.5098 17.6794 9.4398 17.8594H6.3898C5.5898 17.8494 4.8298 18.1594 4.2298 18.7294C3.6498 19.3094 3.3298 20.0794 3.3298 20.8794L3.2998 26.1394C3.2998 27.8394 4.6698 29.2194 6.3498 29.2194H9.4798C9.5398 29.3794 9.5998 29.5294 9.6798 29.6894L7.4498 31.9094C6.8698 32.4894 6.5498 33.2594 6.5498 34.0694C6.5498 34.8794 6.8598 35.6394 7.4298 36.2394L11.1198 39.9494C12.2798 41.1094 14.2998 41.0894 15.4298 39.9694L17.7398 37.6794C17.8698 37.7294 17.9998 37.7894 18.1298 37.8394V41.1094C18.1298 42.7994 19.4998 44.1694 21.1898 44.1694H27.7698V40.1794H22.1398V37.1894C22.1398 35.8794 21.2998 34.7094 20.0698 34.2994C19.7098 34.1794 19.3198 34.0194 18.8798 33.8094C17.7498 33.2794 16.2898 33.5194 15.4098 34.3994L13.2998 36.5094L10.8898 34.0894L12.9298 32.0594C13.8698 31.1194 14.0998 29.7094 13.5098 28.5294C13.2998 28.1094 13.1298 27.6994 12.9998 27.2894C12.5598 26.0794 11.4098 25.2594 10.1398 25.2594H7.2998L7.31981 21.8294H10.1098C11.4198 21.8394 12.5798 21.0094 12.9998 19.7894C13.1598 19.3394 13.3398 18.8994 13.5498 18.4794C14.1098 17.3194 13.8798 15.9194 12.9798 14.9894L11.0198 13.0294L13.4598 10.6294L15.3598 12.5694C16.2698 13.5094 17.6798 13.7494 18.8498 13.1894C19.2598 12.9994 19.6798 12.8294 20.0698 12.6894C21.3198 12.2694 22.1498 11.1094 22.1498 9.79938V7.08938H25.5498V9.84938C25.5498 11.1394 26.3698 12.2994 27.5898 12.7394C28.0498 12.8994 28.4798 13.0794 28.8698 13.2794C30.0498 13.8694 31.4698 13.6394 32.3898 12.7194L34.3598 10.7594L36.7598 13.1694L34.7198 15.1994C33.8198 16.0994 33.5698 17.4894 34.1098 18.6594C34.2898 19.0494 34.4598 19.4794 34.5998 19.8894C35.0198 21.1494 36.1798 21.9894 37.4898 21.9894H40.3798L40.3598 25.2594L44.3398 25.2294L44.3698 21.1094C44.3698 20.2994 44.0598 19.5394 43.4998 18.9494L43.5098 18.9594ZM36.6198 23.7194C35.8598 22.9594 34.6298 22.9594 33.8698 23.7194L28.0898 29.4994C27.3298 30.2594 27.3298 31.4894 28.0898 32.2494C28.8498 33.0094 30.0798 33.0094 30.8398 32.2494L33.2998 29.7894V42.4394C33.2998 43.5094 34.1698 44.3894 35.2498 44.3894C36.3298 44.3894 37.1998 43.5194 37.1998 42.4394V29.7894L39.6598 32.2494C40.4198 33.0094 41.6498 33.0094 42.4098 32.2494C43.1698 31.4894 43.1698 30.2594 42.4098 29.4994L36.6298 23.7194H36.6198ZM23.9998 20.0294C26.1898 20.0294 27.9698 21.8094 27.9698 23.9994H31.9698C31.9698 19.6094 28.3898 16.0294 23.9998 16.0294C19.6098 16.0294 16.0298 19.6094 16.0298 23.9994C16.0298 28.3894 19.6098 31.9694 23.9998 31.9694V27.9694C21.8098 27.9694 20.0298 26.1894 20.0298 23.9994C20.0298 21.8094 21.8098 20.0294 23.9998 20.0294ZZ"/></svg>