<svg xmlns="http://www.w3.org/2000/svg" viewBox="0 0 48 48"><path fill="currentColor" d="M35.7014 25.2507C35.7576 31.304 41.0117 33.3184 41.07 33.3441C41.0255 33.4862 40.2304 36.2148 38.3018 39.0332C36.6347 41.4699 34.9043 43.8977 32.1786 43.948C29.5002 43.9974 28.639 42.3598 25.5769 42.3598C22.5158 42.3598 21.5589 43.8977 19.0235 43.9974C16.3925 44.0969 14.389 41.3624 12.7079 38.9346C9.27294 33.9685 6.64789 24.9016 10.1727 18.7812C11.9237 15.7418 15.0529 13.8172 18.4494 13.7678C21.0331 13.7185 23.4717 15.506 25.0511 15.506C26.6295 15.506 29.593 13.3564 32.7083 13.6721C34.0125 13.7264 37.6735 14.1989 40.0242 17.6399C39.8348 17.7573 35.656 20.19 35.7014 25.2507M30.6678 10.3866C32.0647 8.69578 33.0048 6.342 32.7483 4C30.7349 4.08092 28.3002 5.3417 26.856 7.03159C25.5617 8.52807 24.4282 10.9233 24.734 13.2189C26.9783 13.3926 29.2709 12.0785 30.6678 10.3866"/></svg>