<svg xmlns="http://www.w3.org/2000/svg" viewBox="0 0 48 48"><path fill="currentColor" d="m42,33.34v-12.34h-16v-6.34c2.33-.82,4-3.05,4-5.66,0-3.31-2.69-6-6-6s-6,2.69-6,6c0,2.61,1.67,4.83,4,5.66v6.34H6v12.34c-2.33.82-4,3.05-4,5.66,0,3.31,2.69,6,6,6s6-2.69,6-6c0-2.61-1.67-4.84-4-5.66v-8.34h12v8.34c-2.33.82-4,3.05-4,5.66,0,3.31,2.69,6,6,6s6-2.69,6-6c0-2.61-1.67-4.84-4-5.66v-8.34h12v8.34c-2.33.82-4,3.05-4,5.66,0,3.31,2.69,6,6,6s6-2.69,6-6c0-2.61-1.67-4.84-4-5.66Zm-34,7.66c-1.1,0-2-.9-2-2s.9-2,2-2,2,.9,2,2-.9,2-2,2Zm16,0c-1.1,0-2-.9-2-2s.9-2,2-2,2,.9,2,2-.9,2-2,2Zm0-30c-1.1,0-2-.9-2-2s.9-2,2-2,2,.9,2,2-.9,2-2,2Zm16,30c-1.1,0-2-.9-2-2s.9-2,2-2,2,.9,2,2-.9,2-2,2Z"/></svg>