<svg xmlns="http://www.w3.org/2000/svg" viewBox="0 0 48 48"><path fill="currentColor" d="M23.61,1.68C11.48,1.68,1.61,11.55,1.61,23.68s9.87,22,22,22,22-9.87,22-22S35.74,1.68,23.61,1.68ZM41.49,21.68h-7.99c-.45-5.52-2.29-10.81-5.34-15.39,7.1,1.86,12.5,7.94,13.32,15.39ZM29.49,21.68h-11.75c.5-5.43,2.54-10.6,5.88-14.9,3.35,4.32,5.39,9.5,5.88,14.9ZM19.05,6.29c-3.03,4.57-4.87,9.85-5.33,15.39h-8c.83-7.45,6.23-13.53,13.33-15.39ZM5.73,25.68h7.99c.45,5.52,2.29,10.81,5.33,15.39-7.1-1.86-12.5-7.94-13.32-15.39ZM17.73,25.68h11.75c-.5,5.43-2.53,10.59-5.88,14.9-3.35-4.32-5.39-9.5-5.88-14.9ZM28.17,41.08c3.03-4.57,4.87-9.85,5.33-15.39h7.99c-.83,7.45-6.23,13.53-13.33,15.39Z"/></svg>