<svg width="512" height="512" viewBox="0 0 512 512" fill="none" xmlns="http://www.w3.org/2000/svg"><path fill="#00C8C8" d="M42.187 220.711h427.628v61.475H42.187z"/><path fill-rule="evenodd" clip-rule="evenodd" d="M14 98.339a8 8 0 00-8 8v128.536a8 8 0 008 8h484a8 8 0 008-8V106.339a8 8 0 00-8-8H14zm245.869 24.563H241.57v95.409h18.299v-95.409zm51.19 0h-18.298v95.409h18.298v-95.409zm84.083 0h18.299v95.409h-18.299v-95.409zm-32.892 0h-18.299v95.409h18.299v-95.409zm84.083 0h18.298v95.409h-18.298v-95.409z" fill="#00A0AA"/><circle cx="72.327" cy="170.606" r="22.68" fill="#F5BC18"/><circle cx="147.651" cy="170.606" r="22.68" fill="#F25C4E"/><path fill-rule="evenodd" clip-rule="evenodd" d="M14 269.125a8 8 0 00-8 8v128.536a8 8 0 008 8h484a8 8 0 008-8V277.125a8 8 0 00-8-8H14zm297.059 24.562h-18.298v95.409h18.298v-95.409zm-51.19 0H241.57v95.409h18.299v-95.409zm135.273 0h18.299v95.409h-18.299v-95.409zm-32.892 0h-18.298v95.409h18.298v-95.409zm84.083 0h18.299v95.409h-18.299v-95.409z" fill="#00A0AA"/><circle cx="72.326" cy="341.393" r="22.68" fill="#F5BC18"/><circle cx="147.65" cy="341.393" r="22.68" fill="#F25C4E"/></svg>