<svg data-name="Layer 1" xmlns="http://www.w3.org/2000/svg" width="512" height="512" viewBox="0 0 512 512"><path d="M169.54 233.87c-6.62 0-11.99 1.99-15.74 5.74-4.38 4.25-6.37 10-6.37 17.11v39.49h8.99v-37.99c0-7.09 2.51-11.87 6.81-14.35 6.14-2.62 13.69-2.24 19.47 1.99l.56-8.57c-1.26-.9-2.51-1.57-4.17-2.16-2.87-1.03-6.69-1.33-9.55-1.26zm-121.13.04c-6.88 0-12.74 2.37-17.25 7.49v-38.25h-8.99v76.53h8.99v-21.54c0-10.63 6.12-16.24 15.38-16.24s14.99 5.49 14.99 16.24v60.36c.01 7.89 5.66 9.67 8.53 9.67h.44l.02-71.54c0-13.86-8.25-22.73-22.11-22.73zm58.29 0c-10 0-16.75 3.98-18.43 6.61l-.05 8.42c3.63-5.11 10.48-7.29 18.36-7.29 11.23 0 15.74 4.51 15.74 13.49v6.93c-2.63-1.88-7.79-5.29-16.37-5.29-6.62 0-13.05 1.48-17.42 5.86-5.71 5.71-5.01 16.06-5.01 16.06s.05 18.16 21.33 18.16c8.24 0 12.46-1.34 17.47-6.34l.28 5.72h8.99l-.28-41.84c0-13.37-8.13-20.49-24.61-20.49zm15.61 40.48c0 5.11-1 8.61-3.12 10.61-3.87 3.75-8.49 4.13-13.75 4.13-10.71 0-13.47-6.44-13.47-10.47s-.3-9.97 6.14-13.28c5.94-2.53 16.53-2.78 24.2 4.18v4.83zm300.75 21.84h8.99v-61.51h-8.99v61.51zm-40.27-62.38h-4.01c-6.63 0-11.99 2-15.74 5.75-4.39 4.25-6.37 10-6.37 17.11v39.53h8.99v-38.03c0-10.87 5.89-16.36 15.13-16.36s15.13 5.49 15.13 16.36v38.03h8.99v-39.53c0-7.11-1.99-12.86-6.37-17.11-3.75-3.75-9.12-5.75-15.74-5.75zm91.23 8.03c1.57 0 2.96.13 4.27.41 1.87.33 5.51 1.17 8.98 3.21 1.13.66 1.89 1.26 2.42 1.79l.14-.13v-8.3c-4.67-3.65-9.34-4.97-15.81-4.97-15.49 0-27.22 10.49-27.22 31.47s11.73 31.48 27.22 31.48c6.47 0 11.14-1.32 15.81-4.98v-8.39l-.11-.1c-.4.33-.88.67-1.46 1.05-3.43 2.19-7.08 3.27-9.02 3.73-.57.14-.96.21-1.18.25-1.25.27-2.55.45-4.03.45-5.99 0-10.98-2.38-14.23-7-2.89-4-4-8.74-4-16.49s1.11-12.48 4-16.48c3.25-4.63 8.24-6.99 14.23-6.99zm-155.29-8c-7.48 0-13.26 2.75-17.51 6.98-6.24 6.39-7.5 15-7.5 24.49s1.26 18.12 7.5 24.47c4.25 4.28 10.03 7.01 17.51 7.01s13.37-2.73 17.62-7.01c6.25-6.35 7.51-14.97 7.51-24.47s-1.25-18.1-7.51-24.49c-4.25-4.23-10.11-6.98-17.62-6.98zm11.26 50.46c-2.88 2.87-6.88 4.51-11.26 4.51s-8.15-1.64-11.01-4.51c-4.51-4.49-5-12.11-5-18.98s.49-14.48 5-18.99c2.87-2.86 6.65-4.49 11.01-4.49s8.38 1.63 11.26 4.49c4.48 4.51 4.87 12.13 4.87 18.99s-.39 14.5-4.87 18.98zm-71.81-50.49h-4.01c-6.62 0-11.99 1.99-15.74 5.75-.69.67-1.32 1.38-1.89 2.12-.57-.74-1.2-1.45-1.89-2.12-3.75-3.75-9.12-5.75-15.74-5.75h-4.01c-6.63 0-12 1.99-15.75 5.75-4.38 4.25-6.37 10-6.37 17.11v39.53h8.99v-38.03c0-10.87 5.89-16.36 15.13-16.36s15.13 5.49 15.13 16.36v38.03h9.01v-38.03c0-10.87 5.89-16.36 15.13-16.36s15.13 5.49 15.13 16.36v38.03h9v-39.53c0-7.11-1.99-12.86-6.38-17.11-3.75-3.75-9.12-5.75-15.75-5.75z" fill="#085473"/><path d="M427.54 183.82c-10.65 0-19.26 8.62-19.26 19.27s8.61 19.27 19.26 19.27 19.27-8.62 19.27-19.27-8.62-19.27-19.27-19.27" fill="#00b3dc"/><path fill="#fff" d="M420.73 211.52v-16.86l17.62 8.43-17.62 8.43z"/></svg>