<svg data-name="Layer 1" xmlns="http://www.w3.org/2000/svg" width="48" height="48" viewBox="0 0 48 48"><defs><clipPath id="a"><path fill="none" d="M2 14.82h44v18.36H2z"/></clipPath></defs><g fill-rule="evenodd" clip-path="url(#a)"><path d="M17.06 19.15H2.02v-4.32h15.04v4.32zm-14.1-.94h13.16v-2.44H2.96v2.44z" fill="#00b188"/><path d="M2.96 26.29h-.94v-4.32h.94v1.71h1.68v-1.71h.94v4.32h-.94V24.5H2.96v1.79zm4.77.06c-.95 0-1.6-.6-1.6-1.59s.64-1.62 1.48-1.62c.92 0 1.37.62 1.37 1.53v.34H7.02c.11.48.49.6.86.6.32 0 .56-.07.85-.25h.03v.71c-.25.18-.6.27-1.03.27zm-.71-1.97h1.12c-.02-.32-.15-.54-.52-.54-.28 0-.52.12-.6.54zm4.41.1l-.48 1.81h-.82l-.94-3.04v-.04h.9l.51 1.82.48-1.82h.73l.49 1.82.52-1.82h.87v.04l-.94 3.04h-.82l-.49-1.81zm3.76 1.86c-.74 0-1.05-.3-1.05-.99v-3.39h.91v3.33c0 .22.08.29.26.29.06 0 .15-.02.21-.04h.01v.75c-.08.03-.21.05-.35.05zm2.22.01c-.95 0-1.6-.6-1.6-1.59s.64-1.62 1.48-1.62c.92 0 1.38.62 1.38 1.53v.34h-1.96c.11.48.48.6.86.6.32 0 .56-.07.85-.25h.03v.71c-.25.18-.6.27-1.03.27zm-.72-1.97h1.12c-.02-.32-.15-.54-.52-.54-.28 0-.52.12-.6.54zm5.73-1.17h.68v.73h-.68v1.25c0 .27.1.39.38.39.08 0 .17 0 .28-.04h.02v.72c-.12.04-.3.09-.56.09-.74 0-1.03-.34-1.03-1.12v-1.29h-1.17v1.25c0 .27.1.39.38.39.08 0 .17 0 .28-.04h.02v.72c-.12.04-.3.09-.56.09-.74 0-1.03-.34-1.03-1.12v-1.29h-.47v-.73h.47v-.84h.91v.84h1.17v-.84h.91v.84zm5.4.2c0 .94-.63 1.45-1.58 1.45h-.67v1.4h-.94v-4.32h1.61c.95 0 1.58.51 1.58 1.47zm-1.66.66c.48 0 .71-.27.71-.66s-.23-.67-.71-.67h-.59v1.33h.59zm3.7 1.9c-.2.24-.5.36-.82.36-.6 0-1.09-.36-1.09-1.02 0-.6.49-1 1.2-1 .22 0 .45.03.68.1v-.05c0-.33-.19-.48-.68-.48-.31 0-.61.09-.86.24h-.03v-.73c.23-.14.65-.26 1.05-.26.93 0 1.43.44 1.43 1.22v1.93h-.88v-.3zm-.03-.66v-.26c-.14-.07-.32-.1-.51-.1-.3 0-.48.11-.48.36s.18.37.45.37c.26 0 .45-.13.53-.36zm1.36-.57c0-.99.7-1.61 1.61-1.61.32 0 .63.07.86.24v.78h-.04c-.2-.15-.43-.24-.7-.24-.46 0-.8.31-.8.84s.34.83.8.83c.27 0 .51-.09.7-.24h.04v.78c-.23.16-.53.24-.86.24-.91 0-1.61-.62-1.61-1.6zm3.96.14v1.4h-.91v-4.32h.91v2.46l.92-1.22h1.04v.03L36 24.62l1.11 1.61v.03h-1.05l-.91-1.4zm4.03 1.09c-.2.24-.5.36-.82.36-.6 0-1.09-.37-1.09-1.02 0-.6.49-1 1.2-1 .22 0 .45.03.68.1v-.06c0-.33-.18-.47-.68-.47-.31 0-.61.09-.87.23h-.03v-.73c.24-.14.65-.26 1.06-.26.93 0 1.43.44 1.43 1.22v1.93h-.89v-.3zm-.03-.66v-.26c-.14-.07-.32-.1-.5-.1-.3 0-.48.11-.48.36s.18.37.45.37.45-.13.53-.36zm2.46-1.62c.17-.34.41-.53.75-.53.12 0 .25.03.3.06v.87h-.03c-.1-.04-.23-.07-.4-.07-.28 0-.51.16-.58.48v1.77h-.91v-3.08h.89v.5zm3.48 2.28c-.19.25-.5.39-.91.39-.79 0-1.29-.72-1.29-1.6s.51-1.61 1.29-1.61c.4 0 .69.12.89.35v-1.53h.91v4.32h-.89v-.32zm-.02-.73v-.99a.675.675 0 00-.58-.32c-.4 0-.67.29-.67.82s.27.81.67.81c.23 0 .43-.09.58-.32zM2.03 27.7H4.7v.53H2.63v1.32H4.5v.51H2.63v1.44H4.7v.53H2.03v-4.32zm4.87 1.21c.68 0 1.06.45 1.06 1.19v1.92h-.57v-1.9c0-.39-.2-.68-.64-.68-.36 0-.66.23-.77.55v2.03h-.57v-3.04h.57v.44c.18-.28.49-.51.91-.51zm2.6.05h.78v.49H9.5v1.64c0 .34.18.46.5.46.09 0 .19-.01.26-.04h.02V32c-.08.03-.2.06-.36.06-.71 0-1-.32-1-.92v-1.69h-.53v-.49h.53v-.81h.57v.81zm2.64 3.12c-.89 0-1.5-.59-1.5-1.55s.57-1.62 1.39-1.62 1.27.6 1.27 1.49v.26h-2.09c.06.62.46.91 1 .91.34 0 .58-.08.85-.28h.02v.51c-.25.19-.57.27-.95.27zm-.91-1.88h1.51c-.02-.45-.24-.8-.71-.8-.43 0-.72.32-.8.8zm3.34-.76c.13-.32.42-.52.75-.52.13 0 .25.02.3.05v.57h-.02a.9.9 0 00-.36-.06c-.31 0-.57.21-.67.55v1.98H14v-3.04h.57v.47zm2.98-.53c.91 0 1.39.74 1.39 1.58s-.49 1.58-1.39 1.58c-.37 0-.69-.19-.85-.4v1.51h-.57v-4.21h.57v.34c.16-.22.48-.41.85-.41zm-.09 2.65c.57 0 .9-.45.9-1.07s-.33-1.06-.9-1.06c-.31 0-.6.19-.76.48v1.17c.15.3.44.48.76.48zm2.74-2.12c.13-.32.42-.52.75-.52.13 0 .25.02.3.05v.57h-.02a.9.9 0 00-.36-.06c-.31 0-.57.21-.67.55v1.98h-.57v-3.04h.57v.47zm1.88-.98c-.2 0-.37-.16-.37-.36s.16-.36.37-.36.36.16.36.36-.16.36-.36.36zm-.28.51h.57v3.04h-.57v-3.04zm2.62 1.26c.43.14.92.32.92.9 0 .62-.51.94-1.17.94-.4 0-.8-.1-1.03-.28v-.55h.03c.26.24.64.34 1 .34.32 0 .62-.13.62-.39s-.24-.33-.72-.49c-.43-.14-.91-.3-.91-.87s.48-.93 1.1-.93c.36 0 .68.07.93.25v.55h-.02c-.25-.2-.54-.32-.9-.32s-.56.16-.56.37c0 .24.22.31.71.47zm2.91 1.85c-.89 0-1.5-.59-1.5-1.55s.57-1.62 1.39-1.62 1.27.6 1.27 1.49v.26H26.4c.06.62.46.91 1 .91.34 0 .58-.07.85-.28h.02v.5c-.25.2-.57.27-.95.27zm-.91-1.88h1.51c-.02-.45-.24-.79-.71-.79-.44 0-.72.32-.8.79z" fill="#7b8fa5"/></g></svg>