<svg data-name="Layer 1" xmlns="http://www.w3.org/2000/svg" viewBox="0 0 512 512"><path d="M486 185.07a67.67 67.67 0 00-48.2-20h-22.71V28.73A22.72 22.72 0 00392.36 6H119.64a22.73 22.73 0 00-22.73 22.73v136.36H74.18A68.22 68.22 0 006 233.27v113.64a68.2 68.2 0 0068.18 68.18h22.73v68.18A22.73 22.73 0 00119.64 506h272.72a22.72 22.72 0 0022.73-22.73v-68.18h22.73A68.2 68.2 0 00506 346.91V233.27a67.7 67.7 0 00-20-48.2zM142.36 51.45h227.28v113.64H142.36zm227.28 409.1H142.36V324.18h227.28zm90.91-113.64a22.74 22.74 0 01-22.73 22.73h-22.73v-68.19a22.71 22.71 0 00-22.73-22.72H119.64a22.72 22.72 0 00-22.73 22.72v68.19H74.18a22.74 22.74 0 01-22.73-22.73V233.27a22.72 22.72 0 0122.73-22.72h363.64a22.72 22.72 0 0122.73 22.72z" fill="#1d83d4"/></svg>