<svg data-name="Layer 1" xmlns="http://www.w3.org/2000/svg" viewBox="0 0 512 512"><path d="M497.74 227.7v-35.26a11.2 11.2 0 10-22.4 0v34.86h-24.93v-34.86a11.2 11.2 0 00-22.4 0v34.86h-1.24a11.21 11.21 0 00-11.2 11.2v36.18c0 26.85 16.57 41 35.39 44.52v81.32c0 28-13.69 38.35-50.54 38.35h-42.07V38.34a11 11 0 00-11-11H17a11 11 0 00-11 11v435.32a11 11 0 0011 11h330.34a11 11 0 0011-11v-12.4h42.07c18 0 72.94 0 72.94-60.74v-81.91C491 314.26 506 300.21 506 274.68V238.5a11.21 11.21 0 00-8.26-10.8zm-413.48 235H28V49.35h56.26zm121.11-1.57h-48v-23.6h48zm0-45.62h-48v-26h48zm0-48h-48v-24h48zm48 95.17H227.4v-130.2a11 11 0 00-11-11h-70a11 11 0 00-11 11v130.17h-29.1V179.51h147.05zm0-305.16H106.28V49.35h147.07zm83 289a10.95 10.95 0 000 7.09v9h-61V49.35h61zM483.6 274.68c0 20.77-15.82 23-22.62 23h-.39c-6.8 0-22.62-2.24-22.62-23v-25h45.63zm-302.8 22a46.4 46.4 0 10-46.4-46.39 46.44 46.44 0 0046.4 46.4zm0-70.39a24 24 0 11-24 24 24 24 0 0124-23.99z" fill="#1d83d4"/></svg>