<svg xmlns="http://www.w3.org/2000/svg" viewBox="0 0 48 48"><path fill="currentColor" d="M43.1,32.4c0,0-5.1-3.8-5.1-16.4s-1.5-7.3-4.1-9.9c-2.6-2.6-6.2-4.1-9.9-4.1s-7.3,1.5-9.9,4.1c-2.6,2.6-4.1,6.2-4.1,9.9,0,12.5-5.1,16.3-5.1,16.3-.7,.5-1.1,1.4-.8,2.2,.3,.8,1,1.4,1.9,1.4H42c.9,0,1.6-.6,1.9-1.4s0-1.7-.8-2.2Zm-32.9-.4c1.8-3,3.7-8,3.7-16s1-5.2,2.9-7.1c1.9-1.9,4.4-2.9,7.1-2.9s5.2,1.1,7.1,2.9,2.9,4.4,2.9,7.1c0,8,1.9,13,3.7,16H10.3Zm18.2,8.3c-1-.6-2.2-.2-2.7,.7-.2,.3-.4,.6-.7,.7-.6,.3-1.4,.3-2,0-.3-.2-.6-.4-.7-.7-.6-1-1.8-1.3-2.7-.7-1,.6-1.3,1.8-.7,2.7,.5,.9,1.3,1.7,2.2,2.2,.9,.5,1.9,.8,3,.8s2.1-.3,3-.8c.9-.5,1.7-1.3,2.2-2.2,.6-1,.2-2.2-.7-2.7Z"/></svg>