<svg xmlns="http://www.w3.org/2000/svg" viewBox="0 0 48 48"><path fill="currentColor" d="M35.82,10.21c-.74-.75-1.95-.75-2.69,0l-2.46,2.47-2.46-2.47c-.74-.75-1.95-.75-2.69,0-.74,.75-.74,1.96,0,2.71l2.46,2.47-2.46,2.47c-.74,.75-.74,1.96,0,2.71,.74,.75,1.95,.75,2.69,0l2.46-2.47,2.46,2.47c.74,.75,1.95,.75,2.69,0,.74-.75,.74-1.96,0-2.71l-2.46-2.47,2.46-2.47c.74-.75,.74-1.96,0-2.71Zm8.18,5.18c0-7.4-5.97-13.39-13.33-13.39-4.7,0-8.83,2.44-11.21,6.13-.83,.41-1.5,1.12-1.85,2-5.65,1.55-9.8,6.75-9.8,12.92v8.99l-3.49,5.26c-.39,.59-.43,1.34-.09,1.96,.33,.62,.98,1.01,1.68,1.01H14.54c.46,3.24,3.24,5.74,6.6,5.74s6.14-2.49,6.6-5.74h8.64c.7,0,1.35-.39,1.68-1.01,.33-.62,.29-1.38-.09-1.96l-3.49-5.26v-3.8c5.51-1.65,9.52-6.77,9.52-12.84Zm-22.86,26.78c-1.24,0-2.3-.8-2.69-1.91h5.39c-.39,1.11-1.45,1.91-2.69,1.91Zm-11.68-5.74l1.84-2.76c.21-.31,.32-.68,.32-1.06v-9.57c0-3.94,2.37-7.32,5.76-8.79-.03,.38-.05,.75-.05,1.14,0,7.4,5.97,13.39,13.33,13.39v3.83c0,.38,.11,.75,.32,1.06l1.84,2.76H9.46Zm21.2-11.48c-5.26,0-9.52-4.28-9.52-9.57s4.26-9.57,9.52-9.57,9.52,4.28,9.52,9.57-4.26,9.57-9.52,9.57Z"/></svg>