<svg xmlns="http://www.w3.org/2000/svg" viewBox="0 0 48 48"><path fill="currentColor" d="M18,20c-.53,0-1.04.21-1.41.59-.38.38-.59.88-.59,1.41v4c0,.53.21,1.04.59,1.41.38.38.88.59,1.41.59s1.04-.21,1.41-.59c.38-.38.59-.88.59-1.41v-4c0-.53-.21-1.04-.59-1.41-.38-.38-.88-.59-1.41-.59ZM42,22c.53,0,1.04-.21,1.41-.59s.59-.88.59-1.41v-8c0-.53-.21-1.04-.59-1.41-.38-.38-.88-.59-1.41-.59H6c-.53,0-1.04.21-1.41.59-.38.38-.59.88-.59,1.41v8c0,.53.21,1.04.59,1.41.38.38.88.59,1.41.59s1.04.21,1.41.59c.38.38.59.88.59,1.41s-.21,1.04-.59,1.41c-.38.38-.88.59-1.41.59s-1.04.21-1.41.59c-.38.38-.59.88-.59,1.41v8c0,.53.21,1.04.59,1.41.38.38.88.59,1.41.59h36c.53,0,1.04-.21,1.41-.59s.59-.88.59-1.41v-8c0-.53-.21-1.04-.59-1.41s-.88-.59-1.41-.59-1.04-.21-1.41-.59-.59-.88-.59-1.41.21-1.04.59-1.41.88-.59,1.41-.59ZM40,18.36c-1.16.42-2.16,1.19-2.87,2.2-.71,1.01-1.09,2.21-1.09,3.44s.38,2.43,1.09,3.44c.71,1.01,1.71,1.78,2.87,2.2v4.36h-20c0-.53-.21-1.04-.59-1.41-.38-.38-.88-.59-1.41-.59s-1.04.21-1.41.59c-.38.38-.59.88-.59,1.41h-8v-4.36c1.16-.42,2.16-1.19,2.87-2.2.71-1.01,1.09-2.21,1.09-3.44s-.38-2.43-1.09-3.44c-.71-1.01-1.71-1.78-2.87-2.2v-4.36h8c0,.53.21,1.04.59,1.41.38.38.88.59,1.41.59s1.04-.21,1.41-.59c.38-.38.59-.88.59-1.41h20v4.36Z"/></svg>