<svg id="Layer_1" data-name="Layer 1" xmlns="http://www.w3.org/2000/svg" viewBox="0 0 512 512"><defs><clipPath id="clippath"><path fill="none" d="M42.72 16h426.56v480H42.72z"/></clipPath><style>.cls-2{fill:#fff}</style></defs><g clip-path="url(#clippath)"><path d="M463.85 376c3.35-5.8 5.43-12.33 5.43-18.19V154.2c0-5.87-2.08-12.4-5.43-18.19l-207.86 120 207.85 120z" fill="#00599c"/><path d="M274.47 491.6l176.34-101.8c5.08-2.93 9.7-8 13.04-13.8L255.99 256 48.14 376c3.35 5.8 7.97 10.86 13.04 13.79l176.34 101.8c10.16 5.87 26.78 5.87 36.94 0z" fill="#194681"/><path d="M463.86 136c-3.35-5.8-7.97-10.86-13.05-13.8L274.47 20.4c-10.16-5.87-26.78-5.87-36.94 0L61.19 122.2c-10.16 5.86-18.47 20.26-18.47 31.99V357.8c0 5.87 2.08 12.4 5.43 18.19l207.85-120 207.86-120z" fill="#659ad2"/><path class="cls-2" d="M256 398.18c-78.4 0-142.19-63.78-142.19-142.18S177.59 113.82 256 113.82c50.59 0 97.77 27.22 123.13 71.05l-61.54 35.61c-12.69-21.93-36.3-35.56-61.6-35.56-39.2 0-71.09 31.89-71.09 71.09s31.89 71.09 71.09 71.09c25.3 0 48.91-13.63 61.6-35.57l61.53 35.61c-25.36 43.83-72.54 71.05-123.14 71.05z"/><path class="cls-2" d="M398.19 248.1h-15.8v-15.8h-15.8v15.8h-15.8v15.8h15.8v15.8h15.8v-15.8h15.8v-15.8zm59.24 0h-15.8v-15.8h-15.8v15.8h-15.8v15.8h15.8v15.8h15.8v-15.8h15.8v-15.8z"/></g></svg>