<svg data-name="Layer 1" xmlns="http://www.w3.org/2000/svg" viewBox="0 0 512 512"><defs><linearGradient id="a" x1="224.47" y1="336.83" x2="224.47" y2="98.39" gradientTransform="matrix(1 0 0 -1 0 514)" gradientUnits="userSpaceOnUse"><stop offset="0" stop-color="#0994dc"/><stop offset=".35" stop-color="#66cef5"/><stop offset=".85" stop-color="#127bca"/><stop offset="1" stop-color="#127bca"/></linearGradient><linearGradient id="b" x1="233.56" y1="354.21" x2="233.56" y2="109.7" gradientTransform="matrix(1 0 0 -1 0 514)" gradientUnits="userSpaceOnUse"><stop offset="0" stop-color="#0e76bc"/><stop offset=".36" stop-color="#36aee8"/><stop offset=".85" stop-color="#00adef"/><stop offset="1" stop-color="#00adef"/></linearGradient><linearGradient id="c" x1="282.72" y1="168.72" x2="282.72" y2="363.58" gradientTransform="matrix(1 0 0 -1 0 514)" gradientUnits="userSpaceOnUse"><stop offset="0" stop-color="#1c63b7"/><stop offset=".5" stop-color="#33bdf2"/><stop offset="1" stop-color="#33bdf2" stop-opacity=".42"/></linearGradient><linearGradient id="d" x1="269.92" y1="379.48" x2="269.92" y2="125.62" gradientTransform="matrix(1 0 0 -1 0 514)" gradientUnits="userSpaceOnUse"><stop offset="0" stop-color="#166ab8"/><stop offset=".4" stop-color="#36aee8"/><stop offset=".85" stop-color="#0798dd"/><stop offset="1" stop-color="#0798dd"/></linearGradient><linearGradient id="e" x1="249.91" y1="392.1" x2="249.91" y2="122.17" gradientTransform="matrix(1 0 0 -1 0 514)" gradientUnits="userSpaceOnUse"><stop offset="0" stop-color="#124379"/><stop offset=".39" stop-color="#1487cb"/><stop offset=".78" stop-color="#165197"/><stop offset="1" stop-color="#165197"/></linearGradient><linearGradient id="f" x1="131.25" y1="301.21" x2="169.58" y2="301.21" gradientTransform="matrix(1 0 0 -1 0 514)" gradientUnits="userSpaceOnUse"><stop offset="0" stop-color="#33bdf2" stop-opacity=".7"/><stop offset="1" stop-color="#1dacd8"/></linearGradient><linearGradient id="g" x1="428.18" y1="169.19" x2="428.18" y2="359.15" gradientTransform="matrix(1 0 0 -1 0 514)" gradientUnits="userSpaceOnUse"><stop offset="0" stop-color="#136ab4"/><stop offset=".6" stop-color="#59caf5" stop-opacity=".55"/><stop offset="1" stop-color="#59caf5" stop-opacity=".24"/></linearGradient><linearGradient id="h" x1="17.55" y1="255.9" x2="159" y2="255.9" gradientTransform="matrix(1 0 0 -1 0 514)" gradientUnits="userSpaceOnUse"><stop offset="0" stop-color="#05a1e6" stop-opacity=".25"/><stop offset="1" stop-color="#05a1e6"/></linearGradient><linearGradient id="i" x1="84.44" y1="176.89" x2="84.44" y2="370.93" gradientTransform="matrix(1 0 0 -1 0 514)" gradientUnits="userSpaceOnUse"><stop offset="0" stop-color="#318ed5"/><stop offset="1" stop-color="#38a7e4"/></linearGradient><linearGradient id="j" x1="96.66" y1="162.44" x2="96.66" y2="351.13" gradientTransform="matrix(1 0 0 -1 0 514)" gradientUnits="userSpaceOnUse"><stop offset="0" stop-color="#05a1e6"/><stop offset="1" stop-color="#05a1e6" stop-opacity=".55"/></linearGradient><linearGradient id="k" x1="106.78" y1="171.66" x2="106.78" y2="330.93" gradientTransform="matrix(1 0 0 -1 0 514)" gradientUnits="userSpaceOnUse"><stop offset="0" stop-color="#1959a6"/><stop offset=".5" stop-color="#05a1e6"/><stop offset=".92" stop-color="#7ec5ea"/><stop offset="1" stop-color="#7ec5ea"/></linearGradient><linearGradient id="l" x1="117.42" y1="192.21" x2="63.31" y2="356.65" gradientTransform="matrix(1 0 0 -1 0 514)" gradientUnits="userSpaceOnUse"><stop offset="0" stop-color="#165096"/><stop offset="1" stop-color="#0d82ca"/></linearGradient><linearGradient id="m" x1="395.71" y1="252.73" x2="395.71" y2="343.33" gradientTransform="matrix(1 0 0 -1 0 514)" gradientUnits="userSpaceOnUse"><stop offset="0" stop-color="#05a1e6"/><stop offset=".87" stop-color="#0495d6"/><stop offset="1" stop-color="#0495d6"/></linearGradient><linearGradient id="n" x1="468.53" y1="361.36" x2="383.6" y2="174.1" gradientTransform="matrix(1 0 0 -1 0 514)" gradientUnits="userSpaceOnUse"><stop offset="0" stop-color="#38a7e4" stop-opacity=".33"/><stop offset=".96" stop-color="#0e88d3"/><stop offset="1" stop-color="#0e88d3"/></linearGradient><linearGradient id="o" x1="405.27" y1="359.55" x2="405.27" y2="163.02" gradientTransform="matrix(1 0 0 -1 0 514)" gradientUnits="userSpaceOnUse"><stop offset="0" stop-color="#168cd4"/><stop offset=".5" stop-color="#1c87cc"/><stop offset="1" stop-color="#154b8d"/></linearGradient><linearGradient id="p" x1="174.67" y1="365.33" x2="175.53" y2="344.61" gradientTransform="matrix(1 0 0 -1 0 514)" gradientUnits="userSpaceOnUse"><stop offset="0" stop-color="#97d6ee"/><stop offset=".7" stop-color="#55c1ea"/><stop offset="1" stop-color="#55c1ea"/></linearGradient><linearGradient id="q" x1="198.51" y1="326.13" x2="202.39" y2="348.03" gradientTransform="matrix(1 0 0 -1 0 514)" gradientUnits="userSpaceOnUse"><stop offset="0" stop-color="#7accec"/><stop offset="1" stop-color="#3fb7ed"/></linearGradient><linearGradient id="r" x1="378.62" y1="331.05" x2="378.62" y2="138.78" gradientTransform="matrix(1 0 0 -1 0 514)" gradientUnits="userSpaceOnUse"><stop offset="0" stop-color="#1da7e7"/><stop offset="1" stop-color="#37abe7" stop-opacity="0"/></linearGradient></defs><path d="M179.64 197.1c18 55.1 24.84 153.41 77.53 153.41a64.16 64.16 0 0012.13-1.16c-47.9-11.19-53.57-108.41-82.79-158.76-2.3 2.08-4.57 4.25-6.84 6.51" fill="url(#a)"/><path d="M186.51 190.6c29.22 50.4 34.89 147.57 82.79 158.73a76.26 76.26 0 0011.32-3.05c-43-21.07-54.88-115.47-88.07-160.93-2.01 1.65-4.03 3.43-6.04 5.25z" fill="url(#b)"/><path d="M228.61 160.64a65 65 0 00-12.13 1.16c-10.67 2-21.5 6.59-32.42 13.54a81.72 81.72 0 018.5 10c11.1-9.22 22.13-16 33.12-20.12A74.59 74.59 0 01238 161.8a38.33 38.33 0 00-9.39-1.16z" fill="#14559a"/><path d="M314.18 326.86q6.58-5.25 13.22-11.59c-18.32-54.84-24.86-154.54-77.92-154.54A63.58 63.58 0 00238 161.8c48.33 12 54.52 117.17 76.14 165.07" fill="url(#c)"/><path d="M238 161.8a37.8 37.8 0 00-9.42-1.16l20.87.08A62.89 62.89 0 00238 161.8z" fill="#3092c4"/><path d="M313.25 338.51a77.65 77.65 0 01-6-6.46 110.21 110.21 0 01-26.65 14.23 41.83 41.83 0 009.94 3.39 42.87 42.87 0 008.46.83c9.92 0 17.76-1.17 24.43-4.37a46.64 46.64 0 01-10.18-7.62z" fill="#1969bc"/><path d="M225.67 165.24c43.29 22.64 47.06 125.17 81.59 166.81q3.48-2.44 6.9-5.19c-21.61-47.88-27.8-153-76.12-165.07a74.94 74.94 0 00-12.37 3.45z" fill="url(#d)"/><path d="M192.55 185.35c33.22 45.45 45.08 139.86 88.07 160.92a110.18 110.18 0 0026.65-14.22c-34.54-41.64-38.31-144.17-81.6-166.81-10.98 4.08-22.01 10.89-33.12 20.11z" fill="url(#e)"/><path d="M158.41 195.77c-5.21 11.73-10.53 27.24-16.95 47.41 12.78-18 25.52-33.5 38.18-46.08a137.62 137.62 0 00-5.64-14.71 191.17 191.17 0 00-15.63 13.38" fill="url(#f)"/><path d="M178.61 179c-1.53 1.09-3.06 2.21-4.61 3.4a140.41 140.41 0 015.63 14.7c2.3-2.24 4.59-4.42 6.84-6.5a90.53 90.53 0 00-7.86-11.6z" fill="#2b74b1"/><path d="M184.07 175.36c-1.82 1.15-3.63 2.36-5.46 3.63a92 92 0 017.9 11.61c2-1.82 4-3.58 6.05-5.25a81 81 0 00-8.49-9.99z" fill="#125a9e"/><path d="M479.33 156.45c-24.48 94.41-75.62 170.25-118.49 189.37h-.07c-.79.36-1.56.68-2.32 1a1.08 1.08 0 01-.28.11c-.23.1-.44.16-.67.25a1.08 1.08 0 01-.29.13c-.36.13-.71.23-1.08.38l-.44.15a3.16 3.16 0 01-.52.17c-.17.07-.33.11-.52.19s-.31.09-.46.15c-.31.09-.6.16-.92.28a1.64 1.64 0 00-.38.1c-.19.07-.41.1-.62.16a1.45 1.45 0 01-.42.12c-.21.07-.46.13-.67.18l-.82.17a17.35 17.35 0 006.14 1.09c40.65 0 81.63-72.86 149.5-194h-26.68z" fill="url(#g)"/><path d="M132.68 164.48a.06.06 0 01.07-.06.07.07 0 00.06 0l.67-.26a.09.09 0 00.07 0l.06-.06c.06-.06.1-.05.16-.06l.71-.26c.54-.15 1-.35 1.56-.54.08 0 .14-.06.23-.06s.44-.15.67-.21a1.58 1.58 0 01.31-.09 5.67 5.67 0 01.67-.2l.26-.07c.74-.21 1.48-.4 2.24-.58.09 0 .18-.07.3-.07a5.13 5.13 0 01.67-.09 1.26 1.26 0 01.33-.1c.21-.06.42-.07.65-.12h.16l1.35-.25h.28c.21-.06.41-.07.62-.11a2.32 2.32 0 01.36-.07 3.11 3.11 0 00.6-.09.72.72 0 00.33-.05c.47-.07 1-.1 1.46-.14-1.41-.13-2.85-.23-4.32-.23C97.5 160.6 34.41 245.55 6 355.56h5.51c9.09-16.21 17.26-31.56 24.73-45.93 19.86-77.95 60.39-131.08 96.44-145.17" fill="url(#h)"/><path d="M158.41 195.77A189.66 189.66 0 01174 182.4a71.64 71.64 0 00-3.71-7.18c-4.19 5.08-8 11.78-11.88 20.52m3.76-30.61a38.76 38.76 0 018.12 10.08 30.55 30.55 0 012.37-2.64 45.88 45.88 0 00-11.08-7.74c.17.09.33.16.49.23 0 0 .07.06.1.06" fill="#0d82ca"/><path d="M36.2 309.61c41.8-80.39 61.52-131.35 96.48-145.13C96.64 178.57 56.1 231.7 36.2 309.61z" fill="url(#i)"/><path d="M172.64 172.55c-.81.83-1.58 1.7-2.36 2.65a71.72 71.72 0 013.72 7.18q2.33-1.77 4.61-3.39a60.63 60.63 0 00-5.97-6.44z" fill="#127bca"/><path d="M55.15 355.21a4.8 4.8 0 01-.75.09h-.15c-.21 0-.44.06-.64.06h-.08c-.52.07-1 .07-1.54.11h-.15c42.25-1.18 61.56-22.34 71.14-53 7.28-23.26 13.27-42.86 18.51-59.29C123.8 268.06 106 297.75 88.15 331c-8.62 16-21.73 22.74-33 24.17" fill="url(#j)"/><path d="M55.15 355.2c11.24-1.44 24.35-8.12 33-24.17 17.87-33.22 35.66-63 53.33-87.86 6.44-20.19 11.73-35.64 17-47.41-35.25 33.55-70.62 89.33-103.26 159.42" fill="url(#k)"/><path d="M36.19 309.61c-7.46 14.4-15.63 29.75-24.73 45.93H27.4a389.54 389.54 0 018.79-45.93z" fill="#05a1e6"/><path d="M146.12 161c-.12 0-.22.05-.33.05a2 2 0 01-.6.09.7.7 0 00-.35.06l-.63.12a.43.43 0 00-.27.06l-1.36.24h-.13a5 5 0 01-.67.13 1.68 1.68 0 01-.32.09c-.22.06-.44.08-.64.12a.52.52 0 01-.32.07l-2.22.59c-.08 0-.17.06-.27.07l-.67.2-.3.09-.67.2c-.09 0-.16.06-.24.06-.52.2-1 .38-1.56.55l-.7.25a1.21 1.21 0 01-.3.11l-.66.25a.81.81 0 01-.21.1C97.76 178.29 78 229.22 36.24 309.65a387.51 387.51 0 00-8.79 45.93h2.24c6.29 0 8.07-.06 15.31-.06h7c.5-.07 1-.07 1.55-.11h.09c.22 0 .43-.06.64-.06h.16l.75-.09c32.63-70.08 68-125.85 103.25-159.4 3.9-8.79 7.69-15.49 11.87-20.52a38.77 38.77 0 00-8.11-10.09s-.08 0-.09-.07l-.5-.24-.49-.25a4.37 4.37 0 01-.49-.23 3.82 3.82 0 01-.55-.24l-.44-.19a10 10 0 01-.93-.39l-.39-.14c-.23-.08-.47-.19-.7-.29s-.24-.06-.37-.11l-1-.33h-.08c-.37-.12-.74-.21-1.12-.32a.41.41 0 00-.24-.08l-1-.26c-.08 0-.14-.06-.21-.06-.76-.2-1.54-.36-2.33-.51-.08 0-.15-.06-.23-.06l-1-.16a.21.21 0 00-.1-.06h-.11l-1.18-.16h-.21c-.33-.05-.62-.06-.92-.09-.5.06-1 .08-1.46.13" fill="url(#l)"/><path d="M383.7 208.7c-8 25.75-14.55 47-20.2 64.49 22-30.29 43.75-68.48 64.43-112.51-24.12 7.53-36.99 24.86-44.23 48.02z" fill="url(#m)"/><path d="M364.21 344.21c-1.13.58-2.26 1.13-3.36 1.62 42.87-19.13 94-95 118.49-189.38h-5C418.13 256.93 400 324.2 364.21 344.21z" fill="url(#n)"/><path d="M336.21 335.78c9.32-11.39 16.92-30.74 27.29-62.64-11.94 16.44-24 30.56-36.06 42.07 0 .07 0 .07-.06.11a109.61 109.61 0 008.8 20.44" fill="#079ae1"/><path d="M336.21 335.78a38.19 38.19 0 01-10.28 9c-.82.48-1.64.93-2.49 1.34a36.36 36.36 0 0013.08 4.12c.7.07 1.41.14 2.14.19h.13a5.82 5.82 0 011 .06h3.49a1.23 1.23 0 00.39-.06 3 3 0 00.78-.07h.38c.26 0 .55-.06.84-.09h.06c.08 0 .17-.07.26-.07.29-.06.6-.09.89-.12h.26c.33-.07.67-.11 1-.18h.15c.68-.13 1.34-.25 2-.42-5.53-2-10.16-6.84-14.15-13.6" fill="#1969bc"/><path d="M257.17 350.5a64.1 64.1 0 0012.13-1.18 76.23 76.23 0 0011.32-3 41.91 41.91 0 009.93 3.39 43 43 0 008.47.83zm41.83 0c9.91 0 17.75-1.18 24.43-4.37a36.36 36.36 0 0013.08 4.12c.71.07 1.41.14 2.14.19h.13a5.94 5.94 0 011 .06z" fill="#1e5cb3"/><path d="M341.05 350.5h2.28a1.29 1.29 0 00.4-.06 3.3 3.3 0 00.77-.07h.39l.83-.09h.06c.09 0 .17-.06.26-.06.29-.07.6-.1.89-.14a.45.45 0 00.28-.06l1-.16h.16c.67-.13 1.33-.26 2-.43a17.56 17.56 0 006.13 1.08l-15.45.06z" fill="#1d60b5"/><path d="M327.4 315.33v-.06q-6.61 6.33-13.21 11.58c-2.3 1.82-4.59 3.55-6.9 5.19a77.65 77.65 0 006 6.46 46.27 46.27 0 0010.19 7.62c.84-.41 1.67-.86 2.48-1.34a38.22 38.22 0 0010.29-9 109.41 109.41 0 01-8.8-20.45" fill="#175fab"/><path d="M458.66 156.45h-25c-1.34.07-2.65.11-3.95.2-.61 1.31-1.24 2.62-1.84 3.91-20.64 44.06-42.38 82.2-64.42 112.54-10.36 31.89-18 51.25-27.29 62.63 4 6.84 8.62 11.58 14.13 13.61a1.72 1.72 0 01.44-.09h.09c.1 0 .2-.07.3-.07s.47-.1.7-.18l.41-.11.62-.16a1.25 1.25 0 01.39-.11c.31-.11.6-.19.9-.28a4.11 4.11 0 01.46-.15c.18-.07.36-.12.52-.19a4.68 4.68 0 00.53-.17l.44-.16c.36-.13.71-.23 1.07-.38.1 0 .2-.09.3-.11l.66-.25a.73.73 0 01.29-.11c.75-.31 1.53-.63 2.31-1h.08c1.11-.48 2.24-1 3.35-1.61 35.83-20 53.93-87.28 110.17-187.76h-15.66z" fill="url(#o)"/><path d="M147.59 160.87a.4.4 0 01.26.06 1.78 1.78 0 01.65.07h.21l1.19.15h.1a.21.21 0 01.1.06l1 .17c.06 0 .16.06.24.06.77.15 1.56.32 2.32.51.06 0 .14.07.21.07l.93.26a.92.92 0 01.25.08c.38.1.74.19 1.11.32l.08.06c.31.09.63.22 1 .33a2.65 2.65 0 00.37.12l.7.29a1.94 1.94 0 01.39.12c.29.14.61.27.92.39l.45.2a3.76 3.76 0 00.55.23l.49.24.49.24a46.28 46.28 0 0111.06 7.75 36.61 36.61 0 013.91-3.56 43.1 43.1 0 00-25.57-8.27c-1.14 0-2.26.06-3.4.15" fill="#7dcbec"/><path d="M172.64 172.55a62.64 62.64 0 016 6.45c1.83-1.28 3.64-2.5 5.46-3.63a57.67 57.67 0 00-7.51-6.36 36.51 36.51 0 00-3.91 3.55" fill="#5ec5ed"/><path d="M147.59 160.87c1.14-.1 2.27-.14 3.39-.14a43.37 43.37 0 0125.59 8.27c7.82-6.19 17.34-8.34 30.51-8.34h-63.82c1.48 0 2.93.08 4.33.21z" fill="url(#p)"/><path d="M207.08 160.66c-13.18 0-22.66 2.15-30.51 8.34a59 59 0 017.48 6.36c10.94-7 21.76-11.54 32.43-13.55a65 65 0 0112.13-1.15z" fill="url(#q)"/><path d="M363.5 273.19c5.65-17.51 12.16-38.73 20.21-64.49 7.25-23.19 20.09-40.52 44.21-48.08.63-1.3 1.24-2.63 1.85-3.91-39.31 2.34-57.69 22.34-66.92 52-16.17 51.65-25.94 85.17-35.39 106.51 12.04-11.52 24.08-25.65 36.04-42.03z" fill="url(#r)"/></svg>