<svg width="48" height="48" viewBox="0 0 48 48" fill="none" xmlns="http://www.w3.org/2000/svg"><path d="M21.663 16.306c1.921-.347 3.76-.123 5.416 1.001a6.41 6.41 0 012.373 2.882c.122.184.04.287-.205.348-1.287.327-2.166.573-3.434.9-.307.082-.327.102-.593-.205a2.737 2.737 0 00-.962-.776c-1.287-.633-2.534-.45-3.698.306a4.348 4.348 0 00-2.086 3.884 3.205 3.205 0 002.76 3.21 3.774 3.774 0 003.475-1.35c.184-.224.347-.47.551-.756h-3.944c-.43 0-.532-.267-.389-.613.267-.634.756-1.698 1.042-2.229a.552.552 0 01.512-.326h6.579c.296-.936.775-1.82 1.414-2.657 1.492-1.963 3.29-2.985 5.723-3.415 2.085-.368 4.047-.163 5.826 1.042a6.368 6.368 0 012.882 4.56 7.891 7.891 0 01-2.35 6.93 9.366 9.366 0 01-4.906 2.617c-.552.1-1.104.121-1.636.183a7.667 7.667 0 01-4.987-1.8 6.413 6.413 0 01-2.045-3.183c-.241.485-.527.95-.857 1.385a8.517 8.517 0 01-5.827 3.475 7.243 7.243 0 01-5.498-1.35 6.422 6.422 0 01-2.598-4.537 8.027 8.027 0 011.739-5.99 9.072 9.072 0 015.723-3.536zm16.372 3.82a3.366 3.366 0 00-1.388.063 4.466 4.466 0 00-3.577 3.558 3.366 3.366 0 001.88 3.863 3.75 3.75 0 003.333-.123c1.614-.838 2.493-2.146 2.595-3.903a6 6 0 00-.061-.676 3.367 3.367 0 00-2.782-2.782zm-25.489 3.783c.082 0 .122.061.122.143l-.038.492a.155.155 0 01-.143.143l-4.458-.022c-.082 0-.102-.061-.062-.122l.286-.511a.274.274 0 01.088-.086.273.273 0 01.117-.037h4.088zm.497-1.873a.095.095 0 01.056.117l-.164.491a.18.18 0 01-.07.093.18.18 0 01-.114.03l-9.67.019c-.08 0-.101-.04-.061-.102l.43-.551a.297.297 0 01.224-.102h9.322a.095.095 0 01.047.005zm1.016-1.887c.081 0 .102.061.062.122l-.348.532a.312.312 0 01-.204.123l-7.4-.02c-.082-.001-.102-.041-.061-.102l.428-.553a.294.294 0 01.225-.102h7.298z" fill="#00ACD7"/></svg>