<svg width="48" height="48" viewBox="0 0 48 48" fill="none" xmlns="http://www.w3.org/2000/svg"><path d="M12.351 26.956a1.134 1.134 0 00.166 1.055c.775 1.078 3.524 1.671 7.735 1.671.57 0 1.171 0 1.791-.034 3.29.19 6.556-.659 9.337-2.427a.318.318 0 00-.291-.548c-3.25.645-6.56.939-9.874.877-1.883.1-3.771-.044-5.617-.43a7.877 7.877 0 013.259-1.173.318.318 0 00-.06-.631c-.987-.019-5.928.06-6.446 1.64zm19.773-1.451c.858-.44 1.8-.687 2.764-.726a2.96 2.96 0 013.061 2.843c.692 3.821-5.878 5.273-6.157 5.333h-.068a.317.317 0 01-.174-.582c1.18-.79 4.188-3.122 3.954-4.57-.265-1.678-3.198-1.7-3.228-1.7a.318.318 0 01-.152-.598zm-1.739 6.4a.317.317 0 00-.128-.318l-1.577-1.104a.319.319 0 00-.264-.045 30.96 30.96 0 01-4.056.703c-1.022.11-2.05.165-3.077.163a11.247 11.247 0 01-4.181-.488c-.03-.057-.019-.083 0-.098a.802.802 0 01.404-.306.317.317 0 10-.185-.609c-1.58.378-2.355.915-2.298 1.584.098 1.187 2.854 1.8 5.179 1.962a16.5 16.5 0 001.077.034 45.202 45.202 0 008.883-1.229.318.318 0 00.223-.25zm-11.752 2.389a.317.317 0 01-.129.158.13.13 0 00-.056.129c1.447.369 2.937.542 4.43.514.448.004.897-.021 1.342-.076 1.905-.26 3.183-.525 3.183-.525a.325.325 0 01.23.041l1.992 1.218a.317.317 0 01-.03.56 16.575 16.575 0 01-6.577 1.262c-.36 0-.707-.012-1.085-.034-3.04-.178-4.842-.65-5.511-1.44a1.232 1.232 0 01-.303-.96c.132-1.184 1.992-1.275 2.204-1.275a.318.318 0 01.31.428z" fill="#427595"/><path d="M21.215 41.23c8.853 0 13.608-1.584 14.523-2.574a1.098 1.098 0 00.333-.9 1.387 1.387 0 00-.609-.896.321.321 0 00-.416.057.313.313 0 000 .412c.057.072.087.193-.075.355a30.595 30.595 0 01-10.206 1.69 53.31 53.31 0 01-2.624.068 29.33 29.33 0 01-10.058-1.194 7.841 7.841 0 013.145-1.025.317.317 0 10-.099-.627l-.355.026c-2.499.151-5.387.492-5.538 1.78a1.312 1.312 0 00.348 1.059c.677.756 2.616 1.765 11.635 1.765l-.004.004z" fill="#427595"/><path d="M37.28 38.908a.317.317 0 01.2.027.317.317 0 01.163.326c-.011.094-.337 2.4-4.986 3.216a45.829 45.829 0 01-7.847.654 47.338 47.338 0 01-9.828-.979.318.318 0 01.086-.627 214.6 214.6 0 008.135.166 51.894 51.894 0 008.55-.46 10.627 10.627 0 005.35-2.224.318.318 0 01.176-.1z" fill="#427595"/><path d="M18.505 16.572a13.23 13.23 0 014.914-5.054 9.26 9.26 0 002.824-2.529 6.767 6.767 0 00.756-4.275.317.317 0 01.57-.25 6.135 6.135 0 01.243 6.426 16.86 16.86 0 01-3.807 3.818c-1.485 1.202-2.892 2.344-2.918 3.346.203 2.422.886 4.78 2.01 6.936a.317.317 0 01-.475.397c-.246-.189-6.007-4.691-4.117-8.815z" fill="#DE8E2F"/><path d="M31.105 12.762a.318.318 0 01-.125.188 24.195 24.195 0 00-4.476 4.23c-.703 1.243-.25 1.916.376 2.848l.002.003c.5.66.859 1.415 1.055 2.219.536 2.453-2.363 4.49-2.488 4.577a.318.318 0 01-.465-.4 4.53 4.53 0 00.533-2.526 3.343 3.343 0 00-.604-.903 6.347 6.347 0 01-1.698-4.396c0-3.33 7.152-6.086 7.458-6.203a.318.318 0 01.432.363z" fill="#DE8E2F"/></svg>