<svg width="48" height="48" viewBox="0 0 48 48" fill="none" xmlns="http://www.w3.org/2000/svg"><path d="M10.667 44A6.667 6.667 0 014 37.333V10.667A6.667 6.667 0 0110.667 4h26.666A6.667 6.667 0 0144 10.667v26.666A6.667 6.667 0 0137.333 44H10.667z" fill="#FFD600"/><path d="M28.639 34.948c.828-.55 1.893-.253 2.588.459.566.58 1.277.98 2.302.98 1.486 0 2.266-.739 2.266-1.76 0-1.224-.806-1.659-2.442-2.37l-.896-.383c-2.588-1.098-4.31-2.473-4.31-5.379 0-2.678 2.05-4.716 5.254-4.716 1.74 0 3.105.46 4.18 1.595.604.638.341 1.636-.399 2.109-.799.51-1.797.114-2.633-.333-.332-.177-.706-.256-1.148-.256-1.051 0-1.717.663-1.717 1.53 0 1.071.667 1.504 2.206 2.168l.897.382c3.05 1.299 4.77 2.625 4.77 5.608 0 3.213-2.538 4.974-5.945 4.974-2.585 0-4.304-1.007-5.436-2.425-.557-.697-.28-1.69.463-2.183zm-12.923.043c.854-.523 1.93-.142 2.771.401.41.265.886.422 1.44.422 1.175 0 1.852-.465 1.852-2.27V23.63a1.852 1.852 0 113.703 0v10.483c0 3.74-2.17 5.443-5.339 5.443-2.156 0-3.86-1.1-4.93-2.414-.568-.696-.263-1.682.503-2.151z" fill="#000001"/></svg>