<svg width="48" height="48" viewBox="0 0 48 48" fill="none" xmlns="http://www.w3.org/2000/svg"><g clip-path="url(#clip0_3493_12960)"><path d="M23.721 38.706a.962.962 0 01-.46-.118l-1.447-.855c-.21-.118-.105-.157-.039-.183.29-.105.342-.118.658-.303.026-.013.079-.013.105.013l1.119.658a.12.12 0 00.13 0l4.341-2.5a.138.138 0 00.066-.117v-5a.138.138 0 00-.066-.117l-4.327-2.5a.119.119 0 00-.131 0l-4.328 2.5a.138.138 0 00-.065.118V35.3a.14.14 0 00.065.119l1.184.684c.645.33 1.04-.053 1.04-.434v-4.96c0-.065.052-.117.13-.117h.552c.066 0 .119.052.119.118v4.946c0 .855-.474 1.355-1.29 1.355-.25 0-.447 0-.999-.277l-1.131-.658a.917.917 0 01-.46-.79v-4.998c0-.33.17-.631.46-.79L23.287 27a.93.93 0 01.908 0l4.34 2.5c.277.157.46.46.46.789v4.998a.89.89 0 01-.46.79l-4.34 2.5a1.07 1.07 0 01-.474.13z" fill="#689F63"/><path d="M25.064 35.259c-1.894 0-2.289-.868-2.289-1.605 0-.066.053-.118.132-.118h.565c.066 0 .118.04.118.105.079.565.342.855 1.487.855.907 0 1.302-.211 1.302-.698 0-.276-.105-.486-1.526-.63-1.184-.119-1.921-.382-1.921-1.33 0-.88.737-1.393 1.973-1.393 1.394 0 2.079.486 2.158 1.513a.12.12 0 01-.04.092.119.119 0 01-.092.04h-.565a.126.126 0 01-.118-.093c-.131-.604-.46-.789-1.355-.789-1 0-1.118.342-1.118.605 0 .316.131.408 1.487.591 1.328.17 1.96.421 1.96 1.368-.001.947-.79 1.487-2.158 1.487zm5.274-5.302h.145c.118 0 .144-.078.144-.13 0-.132-.092-.132-.131-.132h-.145l-.013.262zm-.184-.42h.33c.104 0 .329 0 .329.25 0 .17-.105.21-.171.224.131.013.131.092.157.21.014.078.027.21.053.25h-.197c0-.04-.04-.276-.04-.29-.012-.052-.025-.078-.091-.078h-.158v.381h-.183v-.947h-.029zm-.381.473c0 .394.316.697.697.697a.694.694 0 00.698-.697.694.694 0 00-.698-.698.694.694 0 00-.697.698zm1.538 0c0 .46-.381.842-.841.842a.84.84 0 01-.842-.842c0-.474.394-.842.841-.842.448.013.842.368.842.842z" fill="#689F63"/><path d="M10.291 19.119a.573.573 0 00-.276-.487L5.424 15.99a.913.913 0 00-.25-.08H5.12a.437.437 0 00-.25.08L.28 18.632a.575.575 0 00-.276.487l.013 7.13c0 .105.053.197.131.237a.263.263 0 00.277 0l2.722-1.566a.575.575 0 00.277-.486v-3.329c0-.196.105-.381.276-.486l1.158-.671a.52.52 0 01.553 0l1.158.67c.17.106.277.277.277.488v3.328c0 .197.105.381.276.486l2.736 1.566a.262.262 0 00.277 0 .294.294 0 00.13-.237l.025-7.13zm21.692 3.71a.138.138 0 01-.066.118l-1.578.907c-.04.027-.092.027-.145 0l-1.578-.907a.138.138 0 01-.066-.118V21c0-.052.026-.091.066-.118l1.578-.907c.04-.026.092-.026.145 0l1.578.907c.04.027.066.066.066.118v1.829zm.434-13.497a.262.262 0 00-.276 0 .291.291 0 00-.132.238v7.064c0 .065-.04.13-.092.17a.179.179 0 01-.197 0l-1.157-.658a.523.523 0 00-.552 0l-4.605 2.657a.554.554 0 00-.276.473v5.315c0 .197.105.382.276.487l4.605 2.657c.17.105.381.105.552 0l4.604-2.657a.559.559 0 00.276-.487V11.345a.558.558 0 00-.29-.486l-2.736-1.527zm15.311 11.63a.554.554 0 00.277-.474v-1.29a.573.573 0 00-.277-.486l-4.564-2.657a.523.523 0 00-.553 0l-4.604 2.657a.56.56 0 00-.276.487V24.5c0 .197.105.382.276.487l4.565 2.604c.17.092.368.092.54 0l2.762-1.54a.277.277 0 00.144-.236.25.25 0 00-.144-.238l-4.63-2.657a.277.277 0 01-.145-.237v-1.67a.25.25 0 01.145-.238l1.433-.828a.262.262 0 01.277 0l1.433.829a.277.277 0 01.144.237v1.315a.25.25 0 00.145.237.262.262 0 00.276 0l2.776-1.604z" fill="#404137"/><path d="M42.81 20.711a.145.145 0 01.105 0l.881.513c.04.013.053.052.053.092v1.012a.11.11 0 01-.053.092l-.881.513a.144.144 0 01-.105 0l-.882-.513c-.039-.013-.052-.052-.052-.092v-1.012c0-.04.013-.079.053-.092l.88-.513z" fill="#689F63"/><mask id="a" style="mask-type:luminance" maskUnits="userSpaceOnUse" x="12" y="16" width="11" height="12"><path d="M17.433 16.094l-4.577 2.644a.554.554 0 00-.277.474V24.5c0 .197.105.382.277.473l4.577 2.644a.589.589 0 00.553 0l4.578-2.644a.554.554 0 00.276-.473v-5.288a.536.536 0 00-.276-.474l-4.578-2.644a.552.552 0 00-.277-.078.551.551 0 00-.276.078z" fill="#fff"/></mask><g mask="url(#a)"><path d="M27.457 18.277l-12.89-6.314-6.604 13.483 12.892 6.314 6.602-13.483z" fill="url(#paint0_linear_3493_12960)"/></g><mask id="b" style="mask-type:luminance" maskUnits="userSpaceOnUse" x="12" y="16" width="11" height="12"><path d="M12.698 24.828a.56.56 0 00.158.145l3.92 2.262.658.381c.091.053.21.08.316.066a.254.254 0 00.105-.026l4.827-8.827a.518.518 0 00-.132-.105l-2.999-1.723-1.578-.908a.471.471 0 00-.145-.052l-5.13 8.787z" fill="#fff"/></mask><g mask="url(#b)"><path d="M7.134 20.146l9.09 12.312 12.035-8.879-9.103-12.325-12.022 8.892z" fill="url(#paint1_linear_3493_12960)"/></g><mask id="c" style="mask-type:luminance" maskUnits="userSpaceOnUse" x="12" y="16" width="11" height="12"><path d="M17.658 16.016c-.079.013-.158.026-.224.065l-4.565 2.63 4.92 8.959a.581.581 0 00.197-.066l4.578-2.644a.531.531 0 00.263-.381l-5.012-8.55c-.039-.013-.078-.013-.105-.013h-.052z" fill="#fff"/></mask><g mask="url(#c)"><path d="M22.828 16.016h-9.945V27.67h9.945V16.016z" fill="url(#paint2_linear_3493_12960)"/></g></g><defs><linearGradient id="paint0_linear_3493_12960" x1="21.015" y1="15.12" x2="14.405" y2="28.604" gradientUnits="userSpaceOnUse"><stop stop-color="#3E863D"/><stop offset=".3" stop-color="#3E863D"/><stop offset=".5" stop-color="#55934F"/><stop offset=".8" stop-color="#5AAD45"/><stop offset="1" stop-color="#5AAD45"/></linearGradient><linearGradient id="paint1_linear_3493_12960" x1="11.677" y1="26.306" x2="23.709" y2="17.416" gradientUnits="userSpaceOnUse"><stop stop-color="#3E863D"/><stop offset=".57" stop-color="#3E863D"/><stop offset=".72" stop-color="#619857"/><stop offset="1" stop-color="#76AC64"/></linearGradient><linearGradient id="paint2_linear_3493_12960" x1="12.883" y1="21.842" x2="22.827" y2="21.842" gradientUnits="userSpaceOnUse"><stop stop-color="#6BBF47"/><stop offset=".16" stop-color="#6BBF47"/><stop offset=".38" stop-color="#79B461"/><stop offset=".47" stop-color="#75AC64"/><stop offset=".7" stop-color="#659E5A"/><stop offset=".9" stop-color="#3E863D"/><stop offset="1" stop-color="#3E863D"/></linearGradient><clipPath id="clip0_3493_12960"><path fill="#fff" d="M0 0h48v48H0z"/></clipPath></defs></svg>