<svg viewBox="0 0 512 512" fill="none" xmlns="http://www.w3.org/2000/svg"><mask id="a" style="mask-type:luminance" maskUnits="userSpaceOnUse" x="18" y="131" width="476" height="250"><path d="M256 380.93c131.168 0 237.5-55.933 237.5-124.93 0-68.997-106.332-124.93-237.5-124.93S18.5 187.003 18.5 256c0 68.997 106.332 124.93 237.5 124.93z" fill="#fff"/></mask><g mask="url(#a)"><path d="M18.5 256c0 69 106.33 124.93 237.5 124.93 131.17 0 237.5-55.94 237.5-124.93 0-69-106.34-124.93-237.5-124.93-131.17 0-237.5 55.94-237.5 124.93z" fill="url(#paint0_radial_3402_1656)"/></g><path d="M256 371.66c126.04 0 228.22-51.78 228.22-115.66 0-63.88-102.18-115.66-228.22-115.66-126.04 0-228.22 51.78-228.22 115.66 0 63.88 102.18 115.66 228.22 115.66z" fill="#777BB3"/><path d="M147.54 270.339c10.36 0 18.1-1.91 23-5.68 4.84-3.73 8.19-10.19 9.94-19.2 1.63-8.42 1.01-14.31-1.85-17.48-2.93-3.24-9.25-4.89-18.81-4.89h-16.56l-9.18 47.25h13.46zm-54.18 58.2c-.77 0-1.5-.34-1.99-.94-.49-.59-.69-1.38-.54-2.13l24.33-125.2a2.58 2.58 0 012.53-2.08h52.45c16.48 0 28.75 4.48 36.46 13.3 7.75 8.87 10.15 21.28 7.12 36.87-1.23 6.35-3.36 12.25-6.31 17.53-2.95 5.29-6.86 10.18-11.61 14.54-5.68 5.32-12.12 9.18-19.1 11.45-6.87 2.24-15.7 3.38-26.24 3.38h-21.24l-6.06 31.2a2.59 2.59 0 01-2.53 2.09H93.36v-.01zm182.9-33.289c-.77 0-1.5-.34-1.99-.94-.49-.59-.69-1.37-.54-2.13l10.76-55.4c1.02-5.27.77-9.05-.71-10.65-.91-.98-3.63-2.61-11.69-2.61h-19.5l-13.53 69.64a2.59 2.59 0 01-2.53 2.09h-27.06c-.77 0-1.5-.34-1.99-.94-.49-.59-.69-1.38-.54-2.13l24.33-125.2a2.58 2.58 0 012.53-2.08h27.06c.77 0 1.5.34 1.99.94.49.59.69 1.38.54 2.13l-5.87 30.22h20.98c15.98 0 26.82 2.82 33.13 8.61 6.43 5.91 8.44 15.37 5.97 28.11l-11.32 58.26a2.59 2.59 0 01-2.53 2.09h-27.49v-.01zm84.15-24.911c10.36 0 18.1-1.91 23-5.68 4.84-3.73 8.19-10.19 9.94-19.2 1.63-8.42 1.01-14.31-1.85-17.48-2.93-3.24-9.25-4.89-18.81-4.89h-16.56l-9.18 47.25h13.46zm-54.17 58.2c-.77 0-1.5-.34-1.99-.94-.49-.59-.69-1.38-.54-2.13l24.33-125.2a2.58 2.58 0 012.53-2.08h52.45c16.48 0 28.75 4.48 36.46 13.3 7.75 8.87 10.15 21.28 7.12 36.87-1.24 6.35-3.36 12.25-6.31 17.53-2.95 5.29-6.86 10.18-11.61 14.54-5.68 5.32-12.12 9.18-19.1 11.45-6.87 2.24-15.7 3.38-26.24 3.38H342.1l-6.06 31.2a2.59 2.59 0 01-2.53 2.09h-27.27v-.01z" fill="#fff"/><defs><radialGradient id="paint0_radial_3402_1656" cx="0" cy="0" r="1" gradientUnits="userSpaceOnUse" gradientTransform="translate(162.663 174.422) scale(313.136)"><stop stop-color="#AEB2D5"/><stop offset=".3" stop-color="#AEB2D5"/><stop offset=".75" stop-color="#484C89"/><stop offset="1" stop-color="#484C89"/></radialGradient></defs></svg>