<svg data-name="Layer 1" xmlns="http://www.w3.org/2000/svg" viewBox="0 0 512 512"><path d="M305.76 10.81c.8-.08-23.1-4.88-43.39-4.8-20.46.06-34.65 1.86-51.79 4.82-50.58 8.82-59.85 27.33-59.85 61.45v52.14h118.41v26.32H89c-34.68 0-65 16.34-74.66 55.51-10.86 45-11.35 73.12 0 120.06 8.62 35 27.61 61.27 62.31 61.27h47.78v-67.16c0-39 35.35-77.58 75.84-77.58h95.21c33.2 0 65.79-24.5 65.79-57.59v-113c-.01-32.06-23.15-56.06-55.51-61.44zm-109 87.3a19.74 19.74 0 110-39.47 19.74 19.74 0 110 39.47z" fill="#0277bd"/><path d="M497.67 185.69c-8.64-35-27.62-61.27-62.32-61.27h-47.79v67.16c0 39-35.34 77.58-75.84 77.58h-95.21c-33.19 0-65.78 24.5-65.78 57.59v113c0 32.09 23.14 56.09 55.5 61.47-.81.08 23.1 4.88 43.39 4.8 20.46-.06 34.64-1.86 51.79-4.82 50.63-8.82 59.85-27.33 59.85-61.45v-52.17H242.84v-26.32H423c34.68 0 65-16.34 74.66-55.51 10.87-44.96 11.34-73.12.01-120.06zm-182.46 228.2a19.74 19.74 0 110 39.47 19.74 19.74 0 110-39.47z" fill="#ffc107"/></svg>