<svg data-name="Layer 1" xmlns="http://www.w3.org/2000/svg" xmlns:xlink="http://www.w3.org/1999/xlink" viewBox="0 0 512 512"><defs><linearGradient id="b" x1="7857.38" y1="-10918.91" x2="-1539.07" y2="5670.97" gradientTransform="matrix(.02 0 0 -.02 227.27 239.91)" gradientUnits="userSpaceOnUse"><stop offset="0" stop-color="#f37657"/><stop offset="0" stop-color="#f37657"/><stop offset=".41" stop-color="#e32f26"/><stop offset=".99" stop-color="#991b1e"/><stop offset="1" stop-color="#991b1e"/></linearGradient><linearGradient id="a" x1="10991.62" y1="-6306.07" x2="5128.96" y2="-2371.85" gradientTransform="matrix(.02 0 0 -.02 227.27 239.91)" gradientUnits="userSpaceOnUse"><stop offset="0" stop-color="#861719"/><stop offset="0" stop-color="#861719"/><stop offset=".99" stop-color="#911a1d"/><stop offset="1" stop-color="#911a1d"/></linearGradient><linearGradient id="c" x1="6881.55" y1="-12730.48" x2="-1916.77" y2="-6826.28" xlink:href="#a"/><linearGradient id="d" x1="-4883.88" y1="-2813.31" x2="-3723.88" y2="-10351.92" gradientTransform="matrix(.02 0 0 -.02 227.27 239.91)" gradientUnits="userSpaceOnUse"><stop offset="0" stop-color="#fff"/><stop offset="0" stop-color="#fff"/><stop offset=".23" stop-color="#e67352"/><stop offset=".46" stop-color="#de3e26"/><stop offset=".99" stop-color="#a51e22"/><stop offset="1" stop-color="#a51e22"/></linearGradient><linearGradient id="e" x1="803.74" y1="2889.51" x2="1262.82" y2="-5373.85" gradientTransform="matrix(.02 0 0 -.02 227.27 239.91)" gradientUnits="userSpaceOnUse"><stop offset="0" stop-color="#fff"/><stop offset="0" stop-color="#fff"/><stop offset=".23" stop-color="#e3714e"/><stop offset=".56" stop-color="#bc2026"/><stop offset=".99" stop-color="#a71e22"/><stop offset="1" stop-color="#a71e22"/></linearGradient><linearGradient id="f" x1="5712.31" y1="7395.48" x2="6963.87" y2="2001.87" gradientTransform="matrix(.02 0 0 -.02 227.27 239.91)" gradientUnits="userSpaceOnUse"><stop offset="0" stop-color="#fff"/><stop offset="0" stop-color="#fff"/><stop offset=".18" stop-color="#e46342"/><stop offset=".4" stop-color="#c72927"/><stop offset=".99" stop-color="#a71e22"/><stop offset="1" stop-color="#a71e22"/></linearGradient><linearGradient id="g" x1="2332.7" y1="7546.35" x2="7212.44" y2="9986.24" gradientTransform="matrix(.02 0 0 -.02 227.27 239.91)" gradientUnits="userSpaceOnUse"><stop offset="0" stop-color="#fff"/><stop offset="0" stop-color="#fff"/><stop offset=".54" stop-color="#c82527"/><stop offset=".99" stop-color="#be2026"/><stop offset="1" stop-color="#be2026"/></linearGradient><linearGradient id="h" x1="-8332.05" y1="-907.42" x2="-7767.82" y2="-6556.85" gradientTransform="matrix(.02 0 0 -.02 227.27 239.91)" gradientUnits="userSpaceOnUse"><stop offset="0" stop-color="#fff"/><stop offset="0" stop-color="#fff"/><stop offset=".31" stop-color="#dd4326"/><stop offset=".99" stop-color="#be2026"/><stop offset="1" stop-color="#be2026"/></linearGradient><linearGradient id="i" x1="-8755.94" y1="-4488.88" x2="4970.89" y2="9626.17" gradientTransform="matrix(.02 0 0 -.02 227.27 239.91)" gradientUnits="userSpaceOnUse"><stop offset="0" stop-color="#bd2025"/><stop offset="0" stop-color="#bd2025"/><stop offset=".07" stop-color="#fff"/><stop offset=".17" stop-color="#fff"/><stop offset=".27" stop-color="#c83227"/><stop offset=".33" stop-color="#811517"/><stop offset=".46" stop-color="#a21d21"/><stop offset=".72" stop-color="#b21f24"/><stop offset=".99" stop-color="#e62b25"/><stop offset="1" stop-color="#e62b25"/></linearGradient><linearGradient id="j" x1="5119.7" y1="-8751.33" x2="-4922.02" y2="-6272.87" gradientTransform="matrix(.02 0 0 -.02 227.27 239.91)" gradientUnits="userSpaceOnUse"><stop offset="0" stop-color="#8b181b"/><stop offset="0" stop-color="#8b181b"/><stop offset=".54" stop-color="#991b1e"/><stop offset=".99" stop-color="#a71e22"/><stop offset="1" stop-color="#a71e22"/></linearGradient><linearGradient id="k" x1="11165.86" y1="-4242.97" x2="3469.63" y2="2654.86" gradientTransform="matrix(.02 0 0 -.02 227.27 239.91)" gradientUnits="userSpaceOnUse"><stop offset="0" stop-color="#7e1416"/><stop offset="0" stop-color="#7e1416"/><stop offset=".99" stop-color="#9e1c20"/><stop offset="1" stop-color="#9e1c20"/></linearGradient><linearGradient id="l" x1="11732.58" y1="3030" x2="5525.45" y2="9665.79" gradientTransform="matrix(.02 0 0 -.02 227.27 239.91)" gradientUnits="userSpaceOnUse"><stop offset="0" stop-color="#791715"/><stop offset="0" stop-color="#791715"/><stop offset=".99" stop-color="#9e1d20"/><stop offset="1" stop-color="#9e1d20"/></linearGradient><linearGradient id="o" x1="-5912.51" y1="-10556.41" x2="-7803.75" y2="-4140.06" gradientTransform="matrix(.02 0 0 -.02 227.27 239.91)" gradientUnits="userSpaceOnUse"><stop offset="0" stop-color="#8c231c"/><stop offset="0" stop-color="#8c231c"/><stop offset=".43" stop-color="#9e1c20"/><stop offset=".99" stop-color="#b31f24"/><stop offset="1" stop-color="#b31f24"/></linearGradient><linearGradient id="p" x1="4772.45" y1="8945.42" x2="10704.72" y2="6326.83" gradientTransform="matrix(.02 0 0 -.02 227.27 239.91)" gradientUnits="userSpaceOnUse"><stop offset="0" stop-color="#b21f24"/><stop offset="0" stop-color="#b21f24"/><stop offset=".44" stop-color="#911a1d"/><stop offset=".99" stop-color="#791e15"/><stop offset="1" stop-color="#791e15"/></linearGradient><radialGradient id="m" cx="5581.83" cy="1203.25" fx="5581.83" fy="1203.25" r="2768.44" gradientTransform="matrix(.02 0 0 -.02 227.27 239.91)" gradientUnits="userSpaceOnUse"><stop offset="0" stop-color="#a71e22"/><stop offset="0" stop-color="#a71e22"/><stop offset=".99" stop-color="#7e1416"/><stop offset="1" stop-color="#7e1416"/></radialGradient><radialGradient id="n" cx="-1259.28" cy="-5292.33" fx="-1259.28" fy="-5292.33" r="2835.34" gradientTransform="matrix(.02 0 0 -.02 227.27 239.91)" gradientUnits="userSpaceOnUse"><stop offset="0" stop-color="#a11d21"/><stop offset="0" stop-color="#a11d21"/><stop offset=".99" stop-color="#801517"/><stop offset="1" stop-color="#801517"/></radialGradient></defs><path d="M113.83 495.33l354.85-24.08 27.33-357.8L387.89 332.6 113.83 495.33z" fill="url(#b)" fill-rule="evenodd"/><path d="M355.68 370.21l113.57 100.81-30.5-210.5-83.07 109.7z" fill="url(#a)" fill-rule="evenodd"/><path d="M115.01 494.87l354.65-23.86-223.44-17.54-131.21 41.4z" fill="url(#c)" fill-rule="evenodd"/><path d="M48.32 338.32l67.01 156.6 55.82-182.86-122.83 26.26z" fill="url(#d)" fill-rule="evenodd"/><path d="M157.31 307.41l198.34 63.4-51.36-201.18-146.98 137.78z" fill="url(#e)" fill-rule="evenodd"/><path d="M306.72 184.07l177.63-11.6L345.41 58.99l-38.69 125.08z" fill="url(#f)" fill-rule="evenodd"/><path d="M286.1 17.93l133.27.6-81.72 45.16-51.55-45.76z" fill="url(#g)" fill-rule="evenodd"/><path d="M22.54 262.86L16 399.67l34.23-62.43-27.69-74.37z" fill="url(#h)" fill-rule="evenodd"/><path d="M20.7 260.51l27.86 79.03 121.06-27.16 138.21-128.45 39.01-123.89-61.41-43.37-104.42 39.08c-32.9 30.6-96.74 91.14-99.04 92.28-2.28 1.16-42.15 76.53-61.27 112.48z" fill="#fff" fill-rule="evenodd"/><path d="M118.53 118.54C189.82 47.85 281.74 6.08 317.01 41.67c35.25 35.59-2.13 122.08-73.43 192.75-71.3 70.67-162.08 114.74-197.32 79.15-35.27-35.56.97-124.35 72.27-195.02z" fill="url(#i)" fill-rule="evenodd"/><path d="M115.33 494.85l55.38-183.44 183.93 59.09c-66.5 62.36-140.46 115.08-239.31 124.35z" fill="url(#j)" fill-rule="evenodd"/><path d="M308.08 183.56l47.22 187.03c55.55-58.41 105.41-121.2 129.83-198.87l-177.05 11.85z" fill="url(#k)" fill-rule="evenodd"/><path d="M484.64 172.66c18.9-57.03 23.26-138.84-65.85-154.03l-73.12 40.38 138.96 113.65z" fill="url(#l)" fill-rule="evenodd"/><path d="M16 398.84c2.62 94.12 70.52 95.53 99.45 96.35L48.63 339.15 16 398.84z" fill="#9f1d20" fill-rule="evenodd"/><path d="M308.34 183.85c42.69 26.24 128.72 78.93 130.46 79.9 2.71 1.52 37.09-57.97 44.89-91.6l-175.35 11.7z" fill="url(#m)" fill-rule="evenodd"/><path d="M170.64 311.41l74.04 142.84c43.78-23.74 78.06-52.67 109.46-83.66l-183.49-59.18z" fill="url(#n)" fill-rule="evenodd"/><path d="M48.34 339.34L37.85 464.25c19.79 27.04 47.02 29.39 75.59 27.28-20.66-51.43-61.95-154.27-65.1-152.19z" fill-rule="evenodd" fill="url(#o)"/><path d="M345.24 59.33l147.08 20.64c-7.85-33.26-31.96-54.73-73.04-61.44l-74.04 40.8z" fill="url(#p)" fill-rule="evenodd"/></svg>