<svg xmlns="http://www.w3.org/2000/svg" viewBox="0 0 48 48"><path fill="currentColor" d="M24.002 1.75C36.2903 1.75 46.252 11.7126 46.252 24.001C46.2517 36.2891 36.2901 46.251 24.002 46.251C11.7138 46.251 1.75222 36.2891 1.75195 24.001C1.75195 11.7126 11.7136 1.75 24.002 1.75ZM24.002 6.25098C14.1989 6.25098 6.25195 14.1979 6.25195 24.001C6.25222 33.8038 14.1991 41.751 24.002 41.751C33.8048 41.751 41.7517 33.8038 41.752 24.001C41.752 14.1979 33.805 6.25098 24.002 6.25098ZM24.002 25.751C27.1219 25.751 29.5767 27.0009 31.2002 28.1816C32.016 28.775 32.6469 29.3684 33.0791 29.8193C33.296 30.0457 33.4665 30.2393 33.5869 30.3828C33.647 30.4545 33.6956 30.5143 33.7314 30.5596C33.749 30.5818 33.7637 30.6011 33.7754 30.6162C33.7812 30.6237 33.7867 30.6311 33.791 30.6367L33.7998 30.6484L33.8008 30.6494C33.7966 30.6537 33.7071 30.7221 32.002 32.001L33.8018 30.6514C34.5469 31.6455 34.3455 33.0553 33.3516 33.8008C32.3579 34.5457 30.9489 34.3445 30.2031 33.3516C30.1927 33.3383 30.171 33.3127 30.1396 33.2754C30.0766 33.2002 29.9731 33.0808 29.8311 32.9326C29.5446 32.6337 29.1125 32.2267 28.5537 31.8203C27.4272 31.001 25.882 30.251 24.002 30.251C22.1219 30.251 20.5767 31.001 19.4502 31.8203C18.8914 32.2267 18.4593 32.6337 18.1729 32.9326C18.0308 33.0808 17.9273 33.2002 17.8643 33.2754C17.8329 33.3128 17.8112 33.3393 17.8008 33.3525L17.7998 33.3516C17.054 34.3441 15.6459 34.5456 14.6523 33.8008C13.6584 33.0553 13.457 31.6455 14.2021 30.6514L16.002 32.001C14.2968 30.7221 14.2073 30.6537 14.2031 30.6494L14.2041 30.6484L14.2129 30.6367C14.2172 30.6311 14.2227 30.6237 14.2285 30.6162C14.2402 30.6011 14.2549 30.5818 14.2725 30.5596C14.3083 30.5143 14.3569 30.4545 14.417 30.3828C14.5374 30.2393 14.7079 30.0457 14.9248 29.8193C15.357 29.3684 15.9879 28.775 16.8037 28.1816C18.4272 27.0009 20.882 25.751 24.002 25.751ZM17.7959 33.3594C17.7945 33.3611 17.793 33.3622 17.793 33.3623C17.793 33.3623 17.7945 33.3604 17.7969 33.3574L17.7959 33.3594ZM12.9131 15.165C13.3747 14.0115 14.6842 13.4506 15.8379 13.9121L20.8379 15.9121C21.9913 16.3738 22.5523 17.6833 22.0908 18.8369C21.6291 19.9901 20.3195 20.5511 19.166 20.0898L14.166 18.0898C13.0126 17.6283 12.4519 16.3186 12.9131 15.165ZM32.166 13.9121C33.3197 13.4506 34.6292 14.0115 35.0908 15.165C35.552 16.3186 34.9913 17.6283 33.8379 18.0898L28.8379 20.0898C27.6844 20.5511 26.3748 19.9901 25.9131 18.8369C25.4516 17.6833 26.0126 16.3738 27.166 15.9121L32.166 13.9121Z"/></svg>