<svg xmlns="http://www.w3.org/2000/svg" viewBox="0 0 48 48"><path fill="currentColor" d="M24 22C23.6044 22 23.2178 22.1173 22.8889 22.3371C22.56 22.5568 22.3036 22.8692 22.1523 23.2346C22.0009 23.6001 21.9613 24.0022 22.0384 24.3902C22.1156 24.7781 22.3061 25.1345 22.5858 25.4142C22.8655 25.6939 23.2219 25.8844 23.6098 25.9616C23.9978 26.0387 24.3999 25.9991 24.7654 25.8478C25.1308 25.6964 25.4432 25.44 25.6629 25.1111C25.8827 24.7822 26 24.3956 26 24C26 23.4696 25.7893 22.9609 25.4142 22.5858C25.0391 22.2107 24.5304 22 24 22ZM24 4C20.0444 4 16.1776 5.17298 12.8886 7.37061C9.59962 9.56824 7.03617 12.6918 5.52242 16.3463C4.00867 20.0009 3.6126 24.0222 4.3843 27.9018C5.15601 31.7814 7.06082 35.3451 9.85787 38.1421C12.6549 40.9392 16.2186 42.844 20.0982 43.6157C23.9778 44.3874 27.9992 43.9913 31.6537 42.4776C35.3082 40.9638 38.4318 38.4004 40.6294 35.1114C42.827 31.8224 44 27.9556 44 24C44 21.3736 43.4827 18.7728 42.4776 16.3463C41.4725 13.9198 39.9993 11.715 38.1421 9.85786C36.285 8.00069 34.0802 6.5275 31.6537 5.52241C29.2272 4.51732 26.6264 4 24 4V4ZM26 39.86V34C26 33.4696 25.7893 32.9609 25.4142 32.5858C25.0391 32.2107 24.5304 32 24 32C23.4696 32 22.9609 32.2107 22.5858 32.5858C22.2107 32.9609 22 33.4696 22 34V39.86C18.48 39.4136 15.2082 37.8098 12.6992 35.3008C10.1902 32.7918 8.58639 29.52 8.14001 26H14C14.5304 26 15.0391 25.7893 15.4142 25.4142C15.7893 25.0391 16 24.5304 16 24C16 23.4696 15.7893 22.9609 15.4142 22.5858C15.0391 22.2107 14.5304 22 14 22H8.14001C8.58639 18.48 10.1902 15.2082 12.6992 12.6992C15.2082 10.1902 18.48 8.58639 22 8.14V14C22 14.5304 22.2107 15.0391 22.5858 15.4142C22.9609 15.7893 23.4696 16 24 16C24.5304 16 25.0391 15.7893 25.4142 15.4142C25.7893 15.0391 26 14.5304 26 14V8.14C29.5201 8.58639 32.7919 10.1902 35.3008 12.6992C37.8098 15.2082 39.4136 18.48 39.86 22H34C33.4696 22 32.9609 22.2107 32.5858 22.5858C32.2107 22.9609 32 23.4696 32 24C32 24.5304 32.2107 25.0391 32.5858 25.4142C32.9609 25.7893 33.4696 26 34 26H39.86C39.4136 29.52 37.8098 32.7918 35.3008 35.3008C32.7919 37.8098 29.5201 39.4136 26 39.86Z"/></svg>