<svg xmlns="http://www.w3.org/2000/svg" viewBox="0 0 48 48"><path fill="currentColor" d="M28.4,28.12l-6.6,6.6-2.59-2.59c-.19-.19-.41-.34-.65-.44-.24-.1-.51-.15-.77-.15s-.53,.05-.77,.15c-.24,.1-.47,.25-.65,.44-.37,.38-.58,.88-.58,1.41s.21,1.04,.58,1.41l4.01,4.01c.19,.19,.41,.34,.65,.44,.24,.1,.51,.15,.77,.15s.53-.05,.77-.15c.24-.1,.47-.25,.65-.44l8.02-8.02c.37-.38,.58-.88,.58-1.41s-.21-1.04-.58-1.41c-.19-.19-.41-.34-.65-.44-.24-.1-.51-.15-.77-.15s-.53,.05-.77,.15c-.24,.1-.47,.25-.65,.44h0Zm8.28-11.77c-1.23-2.82-3.34-5.15-6.02-6.65-2.68-1.5-5.78-2.07-8.82-1.64-3.04,.43-5.86,1.85-8.01,4.04-2.16,2.19-3.54,5.02-3.93,8.06-1.67,.41-3.17,1.36-4.26,2.69-1.09,1.33-1.73,2.98-1.82,4.7-.09,1.72,.39,3.42,1.34,4.86,.96,1.43,2.35,2.52,3.97,3.1,.26,.13,.54,.21,.83,.23,.29,.02,.58-.03,.85-.14,.27-.11,.51-.27,.71-.48,.2-.21,.35-.46,.44-.73,.09-.27,.13-.56,.1-.85-.03-.29-.12-.57-.27-.81-.15-.25-.35-.46-.58-.63-.24-.17-.51-.28-.79-.33-.78-.28-1.46-.8-1.93-1.48-.47-.68-.72-1.5-.72-2.33,0-1.06,.42-2.08,1.17-2.84,.75-.75,1.77-1.17,2.84-1.17,.53,0,1.04-.21,1.42-.59,.38-.38,.59-.89,.59-1.42,0-2.37,.86-4.66,2.4-6.46,1.54-1.8,3.66-3,6-3.39,2.34-.38,4.74,.07,6.77,1.29,2.03,1.22,3.57,3.11,4.34,5.36,.12,.34,.33,.64,.6,.88,.28,.23,.61,.39,.96,.45,1.34,.25,2.55,.95,3.43,1.98,.89,1.03,1.4,2.33,1.46,3.69,.06,1.36-.35,2.69-1.15,3.79-.8,1.1-1.95,1.89-3.26,2.25-.53,.07-1.02,.34-1.34,.76-.33,.42-.48,.96-.41,1.49,.07,.53,.34,1.02,.76,1.34,.42,.33,.96,.48,1.49,.41h.5c2.11-.56,3.98-1.79,5.33-3.51,1.35-1.72,2.1-3.83,2.14-6.01,.04-2.18-.64-4.32-1.92-6.08-1.29-1.76-3.11-3.06-5.2-3.69v-.12Z"/></svg>