<svg xmlns="http://www.w3.org/2000/svg" viewBox="0 0 48 48"><path fill="currentColor" d="M42,5.1H6c-2.2,0-4,1.8-4,4V31.3c0,2.2,1.8,4,4,4h11v4.1h-3c-1,0-1.8,.8-1.8,1.8s.8,1.8,1.8,1.8h20.1c1,0,1.8-.8,1.8-1.8s-.8-1.8-1.8-1.8h-3.2v-4.1h11.2c2.2,0,4-1.8,4-4V9.1c0-2.2-1.8-4-4-4Zm-14.7,34.2h-6.8v-4.1h6.8v4.1Zm15.1-8.1c0,.2-.2,.4-.4,.4H6c-.2,0-.4-.2-.4-.4V9.1c0-.2,.2-.4,.4-.4H42c.2,0,.4,.2,.4,.4V31.3ZM17.9,14.8c-.6-.8-1.7-1-2.5-.4l-5.1,3.8c-.5,.3-.7,.9-.7,1.4s.3,1.1,.7,1.4l5.1,3.8c.3,.2,.7,.3,1.1,.3,.5,0,1.1-.2,1.4-.7,.6-.8,.4-1.9-.4-2.5l-3.2-2.3,3.2-2.3c.8-.6,1-1.7,.4-2.5Zm20,3.4l-5.1-3.8c-.8-.6-1.9-.4-2.5,.4-.6,.8-.4,1.9,.4,2.5l3.2,2.3-3.2,2.3c-.8,.6-1,1.7-.4,2.5,.3,.5,.9,.7,1.4,.7s.7-.1,1.1-.3l5.1-3.8c.5-.3,.7-.9,.7-1.4s-.3-1.1-.7-1.4Zm-10.4-4.9c-.9-.5-1.9-.2-2.4,.7l-5.2,9.4c-.5,.9-.2,1.9,.7,2.4,.3,.2,.6,.2,.9,.2,.6,0,1.2-.3,1.5-.9l5.2-9.4c.5-.9,.2-1.9-.7-2.4Z"/></svg>