<svg xmlns="http://www.w3.org/2000/svg" viewBox="0 0 48 48"><path fill="currentColor" d="M44.1,12.8c-.2-.6-.7-1-1.3-1.2L24.8,3.3c-.5-.2-1.1-.2-1.6,0L4.9,11.7c-.6,.3-1.1,.9-1.1,1.6v21.2c0,.7,.4,1.4,1.1,1.7l18.2,8.4,.3,.2h.6c0,0,.1,0,.2,0,0,0,0,0,.1,0h.5v-.2l18.3-8.4c.7-.3,1.1-1,1.1-1.7V12.8h-.1ZM24,7.1l13.8,6.4-4.1,1.9-13.8-6.4,4.1-1.9Zm-1.9,33l-14.4-6.7V16.4l14.4,6.7v17Zm1.9-20.2l-13.8-6.4,5.2-2.4,13.8,6.4-5.2,2.4Zm16.4,13.5l-14.5,6.7V23l5.5-2.6v3.5c0,.5,.2,1,.6,1.3,.4,.3,.9,.5,1.4,.5,1,0,1.8-.8,1.8-1.9v-5.2l5.1-2.3v17Z"/></svg>