<svg xmlns="http://www.w3.org/2000/svg" viewBox="0 0 48 48"><path fill="currentColor" d="M29.24,20.04c.35-.36.55-.85.55-1.36s-.19-1-.55-1.36c-.35-.36-.84-.57-1.33-.57H8.34c-.5,0-.98.21-1.33.57-.35.36-.55.85-.55,1.36s.19,1,.55,1.36c.35.36.84.57,1.33.57h19.57c.5,0,.98-.21,1.33-.57ZM39.03,9.97c.35-.36.55-.85.55-1.36s-.19-1-.55-1.36c-.35-.36-.84-.57-1.33-.57H5.08c-.5,0-.98.2-1.33.57-.35.36-.55.85-.55,1.36s.19,1,.55,1.36c.36.37.83.57,1.33.57h32.62c.5,0,.98-.21,1.33-.57ZM42.29,37.45c-.35-.36-.84-.57-1.33-.57h-16.31c-.5,0-.98.21-1.33.57-.35.36-.55.85-.55,1.36s.19,1,.55,1.36c.35.36.84.57,1.33.57h16.31c.5,0,.98-.21,1.33-.57.35-.36.55-.85.55-1.36s-.19-1-.55-1.36ZM29.24,30.1c.35-.36.55-.85.55-1.36s-.19-1-.55-1.36c-.35-.36-.84-.57-1.33-.57h-13.05c-.5,0-.98.2-1.33.57-.35.36-.55.85-.55,1.36s.19,1,.55,1.36c.36.37.83.57,1.33.57h13.05c.5,0,.98-.21,1.33-.57Z"/></svg>