<svg xmlns="http://www.w3.org/2000/svg" viewBox="0 0 48 48"><path fill="currentColor" d="M15.79,28.74c0-1.03-.82-1.85-1.85-1.85H4.35c-1.03,0-1.85,.82-1.85,1.85s.82,1.85,1.85,1.85H13.94c1.03,0,1.85-.82,1.85-1.85Zm-.26-5.79c0-1.03-.82-1.85-1.85-1.85H1.85C.82,21.09,0,21.93,0,22.95s.82,1.85,1.85,1.85H13.66c1.03,0,1.87-.82,1.87-1.85Zm16.63,1.38c.77-.67,.84-1.85,.17-2.62-.67-.77-1.85-.84-2.62-.17l-5.66,4.97-2.07-2.13c-.73-.73-1.89-.75-2.62-.04-.73,.71-.75,1.89-.04,2.62l4.54,4.63,8.29-7.27Zm15.71-16.01c-.19-.51-.57-.92-1.07-1.15-.24-.11-.51-.18-.77-.19l-8.21-.31c-.54-.02-1.08,.18-1.47,.55-.4,.37-.64,.88-.66,1.43-.02,.54,.18,1.08,.55,1.47,.37,.4,.88,.64,1.43,.66l3.24,.12-4.97,4.52c-2.52-2.38-5.79-3.97-9.42-4.38v-3.14h1.4c1.03,0,1.85-.82,1.85-1.85s-.82-1.87-1.85-1.87h-6.5c-1.03,0-1.85,.82-1.85,1.85s.82,1.85,1.85,1.85h1.4v3.16c-3.4,.39-6.61,1.81-9.17,4.13-.77,.69-.82,1.87-.13,2.62,.69,.77,1.87,.82,2.62,.13,2.34-2.11,5.36-3.27,8.52-3.27,7.02,0,12.74,5.72,12.74,12.74s-5.72,12.74-12.74,12.74c-4.56,0-8.8-2.47-11.08-6.44-.49-.9-1.63-1.21-2.52-.69-.9,.5-1.2,1.64-.69,2.52,2.93,5.12,8.41,8.31,14.29,8.31,9.08,0,16.46-7.38,16.46-16.44,0-3.24-.94-6.26-2.56-8.8l5.16-4.65-.12,3.24c-.02,.54,.18,1.08,.55,1.47,.37,.4,.88,.64,1.43,.66,.54,.02,1.08-.18,1.47-.55,.4-.37,.64-.88,.66-1.43l.31-8.21c0-.27-.04-.54-.13-.79Z"/></svg>