<svg xmlns="http://www.w3.org/2000/svg" viewBox="0 0 48 48"><path fill="currentColor" d="M23.99,39.99H10c-.53,0-1.04-.21-1.41-.59-.37-.37-.59-.88-.59-1.41V10c0-.53,.21-1.04,.59-1.41,.37-.37,.88-.59,1.41-.59h10v6c0,1.59,.63,3.12,1.76,4.24,1.12,1.12,2.65,1.76,4.24,1.76h6v2c0,.53,.21,1.04,.59,1.41s.88,.59,1.41,.59,1.04-.21,1.41-.59,.59-.88,.59-1.41v-4.12c-.02-.18-.06-.36-.12-.54v-.18c-.1-.21-.22-.39-.38-.56h0L23.49,4.6c-.17-.16-.35-.28-.56-.38-.06,0-.12,0-.18,0-.2-.12-.43-.19-.66-.22H10c-1.59,0-3.12,.63-4.24,1.76s-1.76,2.65-1.76,4.24v27.99c0,1.59,.63,3.12,1.76,4.24,1.12,1.12,2.65,1.76,4.24,1.76h14c.53,0,1.04-.21,1.41-.59s.59-.88,.59-1.41-.21-1.04-.59-1.41-.88-.59-1.41-.59Zm0-29.17l5.18,5.18h-3.18c-.53,0-1.04-.21-1.41-.59-.37-.37-.59-.88-.59-1.41v-3.18Zm-10,5.18c-.53,0-1.04,.21-1.41,.59-.37,.37-.59,.88-.59,1.41s.21,1.04,.59,1.41c.37,.37,.88,.59,1.41,.59h2c.53,0,1.04-.21,1.41-.59,.37-.37,.59-.88,.59-1.41s-.21-1.04-.59-1.41c-.37-.37-.88-.59-1.41-.59h-2Zm29.41,24.57l-2.34-2.32c.75-1.31,1.05-2.82,.85-4.31-.19-1.49-.87-2.88-1.93-3.95h0c-.97-1.01-2.23-1.7-3.6-1.99-1.37-.28-2.8-.15-4.09,.39-1.29,.54-2.4,1.45-3.16,2.63-.77,1.17-1.16,2.55-1.14,3.95,0,1.21,.3,2.39,.89,3.44,.59,1.05,1.45,1.93,2.49,2.54,1.04,.62,2.22,.95,3.42,.97,1.21,.02,2.4-.28,3.45-.86l2.32,2.34c.19,.19,.41,.34,.65,.44,.24,.1,.51,.15,.77,.15s.53-.05,.77-.15c.24-.1,.46-.25,.65-.44,.19-.19,.34-.41,.44-.65,.1-.24,.15-.51,.15-.77s-.05-.53-.15-.77c-.1-.24-.25-.46-.44-.65h0Zm-6.34-3.5c-.57,.54-1.33,.84-2.11,.84s-1.54-.3-2.11-.84c-.55-.56-.86-1.31-.86-2.1,0-.39,.07-.79,.22-1.15,.15-.36,.37-.69,.66-.97,.53-.53,1.25-.84,2-.86,.4-.02,.81,.03,1.19,.17,.38,.14,.73,.36,1.02,.64s.52,.62,.68,.99c.16,.37,.23,.78,.23,1.18-.02,.79-.35,1.55-.92,2.1h0Zm-11.08-13.08H14c-.53,0-1.04,.21-1.41,.59-.37,.37-.59,.88-.59,1.41s.21,1.04,.59,1.41c.37,.37,.88,.59,1.41,.59h12c.53,0,1.04-.21,1.41-.59s.59-.88,.59-1.41-.21-1.04-.59-1.41-.88-.59-1.41-.59Zm-4,12c.53,0,1.04-.21,1.41-.59s.59-.88,.59-1.41-.21-1.04-.59-1.41-.88-.59-1.41-.59h-8c-.53,0-1.04,.21-1.41,.59-.37,.37-.59,.88-.59,1.41s.21,1.04,.59,1.41c.37,.37,.88,.59,1.41,.59h8Z"/></svg>