<svg xmlns="http://www.w3.org/2000/svg" viewBox="0 0 48 48"><path fill="currentColor" d="M42.54,27.3h-6.89v-11.79c1.68-.68,2.88-2.32,2.88-4.24,0-2.53-2.05-4.58-4.58-4.58-1.9,0-3.52,1.15-4.22,2.8h-4.09v-4.78c0-.94-.76-1.71-1.71-1.71H6.98c-.94,0-1.71.76-1.71,1.71v12.61c-.85.1-1.51.79-1.51,1.67,0,.94.76,1.71,1.71,1.71h8.32v11.3c-1.66.69-2.83,2.32-2.83,4.23,0,2.53,2.05,4.58,4.58,4.58,1.97,0,3.45-1.21,4.09-2.81h4.26v5.31c0,.94.76,1.71,1.71,1.71h16.96c.94,0,1.71-.76,1.71-1.71v-14.28c0-.94-.76-1.71-1.71-1.71ZM33.94,10.11c.64,0,1.16.52,1.16,1.16s-.52,1.16-1.16,1.16-1.16-.52-1.16-1.16.52-1.16,1.16-1.16ZM8.68,17.28V6.42h13.54v10.87h-13.54ZM15.53,37.38c-.64,0-1.16-.52-1.16-1.16s.52-1.16,1.16-1.16c.52,0,1.01.39,1.01,1.16s-.49,1.16-1.01,1.16ZM23.87,29.01v5.56h-4.22c-.42-1.16-1.29-2.12-2.46-2.59v-11.28h8.25c.94,0,1.71-.76,1.71-1.71,0-.87-.67-1.57-1.51-1.67v-4.42h4.04c.45,1.18,1.37,2.12,2.54,2.6v11.8h-6.65c-.94,0-1.71.76-1.71,1.71ZM40.83,41.58h-13.54v-10.87h6.65s0,0,0,0,0,0,0,0h6.89v10.87Z"/></svg>