<svg xmlns="http://www.w3.org/2000/svg" viewBox="0 0 48 48"><path fill="currentColor" d="M40.4,24.4h-7.3c-2.1,0-3.8,1.7-3.8,3.8v7.3c0,2.1,1.7,3.8,3.8,3.8h7.3c2.1,0,3.8-1.7,3.8-3.8v-7.3c0-2.1-1.7-3.8-3.8-3.8Zm-.2,10.9h-6.9v-6.9h6.9v6.9ZM14.9,24.4H7.6c-2.1,0-3.8,1.7-3.8,3.8v7.3c0,2.1,1.7,3.8,3.8,3.8h7.3c2.1,0,3.8-1.7,3.8-3.8v-7.3c0-2.1-1.7-3.8-3.8-3.8Zm-.2,10.9H7.8v-6.9h6.9v6.9Zm23-14.5h0c.5,0,1-.2,1.4-.6,.4-.4,.6-.9,.6-1.4v-7.3c0-.5-.1-1-.5-1.4-.4-.4-.9-.6-1.4-.6h0c-1.1,0-2,.9-2,2v2.5c-7.1-6.9-18.5-7-25.7,0-1.1,1.1-2.1,2.4-2.9,3.7-.3,.5-.3,1-.2,1.5,.1,.5,.5,.9,1,1.2,.9,.5,2.1,.2,2.6-.7,4.1-6.8,12.9-9,19.7-5,.9,.6,1.8,1.2,2.6,2h-2.5c-1.1,0-2,.9-2,2,0,.5,.2,1,.6,1.4,.4,.4,.9,.6,1.4,.6h7.3Z"/></svg>