<svg xmlns="http://www.w3.org/2000/svg" viewBox="0 0 48 48"><path fill="currentColor" d="M9.26,32.14c-3.77,0-6.84,3.07-6.84,6.84s3.07,6.84,6.84,6.84,6.84-3.07,6.84-6.84-3.07-6.84-6.84-6.84ZM9.26,41.82c-1.56,0-2.84-1.27-2.84-2.84s1.27-2.84,2.84-2.84,2.84,1.27,2.84,2.84-1.27,2.84-2.84,2.84ZM43.2,4.56c-3.16-3.17-8.31-3.17-11.48,0-3.17,3.17-3.17,8.31,0,11.48l5.74,5.74,5.74-5.74c1.53-1.53,2.38-3.57,2.38-5.74s-.84-4.21-2.38-5.74ZM40.37,13.21l-2.91,2.91-2.91-2.91c-1.61-1.61-1.61-4.22,0-5.82.8-.8,1.86-1.2,2.91-1.2s2.11.4,2.91,1.2c.78.78,1.21,1.81,1.21,2.91s-.43,2.13-1.21,2.91ZM32.68,23.83H11.31c-2.69,0-4.89-2.19-4.89-4.89s2.19-4.89,4.89-4.89h13.49c1.1,0,2-.9,2-2s-.89-2-2-2h-13.49c-4.9,0-8.89,3.99-8.89,8.89s3.99,8.89,8.89,8.89h21.36c2.69,0,4.89,2.19,4.89,4.89s-2.19,4.89-4.89,4.89h-11.49c-1.1,0-2,.9-2,2s.9,2,2,2h11.49c4.9,0,8.89-3.99,8.89-8.89s-3.99-8.89-8.89-8.89Z"/></svg>