<svg width="512" height="512" viewBox="0 0 512 512" fill="none" xmlns="http://www.w3.org/2000/svg"><path d="M166.875 422.877C165.115 422.841 163.429 422.165 162.131 420.977L137.479 393.481C136.531 392.533 136.531 389.689 136.531 388.741V371.677L118.531 352.713C117.86 352.118 117.323 351.388 116.955 350.571C116.587 349.753 116.397 348.867 116.397 347.971C116.397 347.074 116.587 346.188 116.955 345.371C117.323 344.553 117.86 343.823 118.531 343.229L136.531 325.229V316.681L118.531 298.681C117.86 298.086 117.323 297.356 116.955 296.539C116.587 295.721 116.397 294.835 116.397 293.939C116.397 293.042 116.587 292.156 116.955 291.339C117.323 290.521 117.86 289.791 118.531 289.197L136.531 270.237V254.117C120.387 247.676 106.53 236.566 96.734 222.207C86.9379 207.848 81.6474 190.894 81.5391 173.513C81.7548 150.94 90.9052 129.373 106.987 113.532C123.069 97.6916 144.772 88.8681 167.345 88.9935C189.918 89.1189 211.522 98.1829 227.427 114.201C243.332 130.22 252.242 151.887 252.207 174.461C252.212 191.622 247.063 208.389 237.427 222.589C227.791 236.79 214.112 247.769 198.163 254.105V396.325C198.183 397.303 197.927 398.267 197.424 399.106C196.921 399.945 196.191 400.626 195.319 401.069L171.599 421.925C170.184 422.785 168.513 423.121 166.875 422.877ZM149.807 386.845L167.807 406.757L183.923 392.533V249.365C183.802 247.876 184.212 246.393 185.079 245.178C185.947 243.963 187.216 243.094 188.663 242.725C206.648 236.845 221.577 224.092 230.195 207.247C238.812 190.402 240.418 170.832 234.662 152.808C228.906 134.783 216.255 119.767 199.47 111.034C182.685 102.301 163.127 100.561 145.063 106.193C107.135 117.573 87.2231 158.341 98.6031 196.269C102.186 207.1 108.255 216.943 116.323 225.01C124.391 233.076 134.235 239.143 145.067 242.725C146.441 243.215 147.631 244.114 148.479 245.301C149.326 246.488 149.79 247.906 149.807 249.365V273.069C149.772 274.826 149.098 276.511 147.911 277.809L132.739 293.925L147.911 309.097C149.098 310.394 149.772 312.079 149.807 313.837V328.061C149.772 329.818 149.098 331.503 147.911 332.801L132.739 347.973L147.911 364.089C149.098 365.386 149.772 367.071 149.807 368.829V386.845ZM166.875 181.097C162.803 181.121 158.768 180.321 155.014 178.745C151.259 177.169 147.862 174.85 145.027 171.927C142.192 169.004 139.978 165.538 138.518 161.736C137.058 157.935 136.382 153.878 136.531 149.809C136.399 145.788 137.093 141.783 138.571 138.042C140.049 134.301 142.279 130.903 145.124 128.059C147.969 125.215 151.367 122.985 155.108 121.507C158.85 120.029 162.855 119.336 166.875 119.469C175.005 119.487 182.81 122.66 188.646 128.32C194.483 133.979 197.895 141.683 198.163 149.809C199.111 166.877 184.887 180.149 166.875 181.097ZM166.875 132.741C163.499 132.74 160.199 133.74 157.392 135.615C154.584 137.49 152.396 140.156 151.103 143.274C149.811 146.393 149.472 149.825 150.131 153.136C150.789 156.447 152.414 159.489 154.801 161.876C157.188 164.264 160.229 165.889 163.54 166.548C166.851 167.207 170.283 166.87 173.402 165.578C176.521 164.286 179.187 162.098 181.062 159.292C182.938 156.485 183.939 153.185 183.939 149.809C183.949 147.565 183.514 145.341 182.66 143.267C181.805 141.192 180.549 139.307 178.963 137.72C177.376 136.133 175.491 134.876 173.417 134.022C171.342 133.167 169.119 132.732 166.875 132.741ZM417.199 375.469H211.435V362.193H416.235V211.437H266.427V198.165H417.199C420.552 198.188 423.774 199.467 426.231 201.748C428.688 204.029 430.202 207.147 430.475 210.489V363.141C430.414 364.822 430.022 366.475 429.322 368.005C428.622 369.536 427.626 370.912 426.393 372.057C425.16 373.202 423.713 374.093 422.136 374.678C420.558 375.264 418.881 375.532 417.199 375.469ZM235.139 310.993C231.555 311.052 227.998 310.373 224.687 309C221.377 307.627 218.384 305.588 215.895 303.009C213.405 300.431 211.472 297.368 210.216 294.012C208.959 290.655 208.406 287.076 208.591 283.497C209.539 268.325 220.919 256.001 235.139 256.001C242.38 256.165 249.278 259.115 254.399 264.237C259.52 269.358 262.47 276.256 262.635 283.497C262.631 290.788 259.733 297.779 254.577 302.935C249.421 308.09 242.43 310.988 235.139 310.993ZM235.139 269.277C233.31 269.261 231.498 269.626 229.818 270.348C228.138 271.069 226.625 272.133 225.378 273.47C224.13 274.807 223.173 276.388 222.569 278.114C221.965 279.84 221.726 281.673 221.867 283.497C221.743 285.272 222.002 287.052 222.625 288.719C223.248 290.386 224.221 291.899 225.479 293.158C226.737 294.416 228.25 295.39 229.917 296.013C231.583 296.637 233.364 296.896 235.139 296.773C238.741 296.74 242.199 295.358 244.832 292.9C247.466 290.443 249.082 287.087 249.363 283.497C250.311 275.913 243.675 270.225 235.139 269.277ZM303.407 310.993C299.823 311.052 296.266 310.374 292.955 309.001C289.644 307.628 286.651 305.589 284.161 303.011C281.672 300.432 279.739 297.369 278.483 294.012C277.226 290.655 276.674 287.076 276.859 283.497C277.807 268.325 289.199 256.001 303.407 256.001C310.648 256.165 317.546 259.115 322.667 264.237C327.788 269.358 330.738 276.256 330.903 283.497C330.898 290.787 327.999 297.778 322.844 302.933C317.688 308.089 310.698 310.987 303.407 310.993ZM303.407 269.277C301.578 269.261 299.765 269.625 298.085 270.346C296.404 271.068 294.891 272.131 293.643 273.468C292.395 274.805 291.438 276.387 290.833 278.113C290.229 279.84 289.99 281.673 290.131 283.497C290.008 285.272 290.267 287.053 290.89 288.719C291.514 290.386 292.488 291.899 293.746 293.158C295.004 294.416 296.518 295.39 298.184 296.013C299.851 296.637 301.632 296.896 303.407 296.773C307.008 296.739 310.466 295.357 313.098 292.899C315.73 290.441 317.346 287.087 317.627 283.497C318.575 275.913 311.939 270.225 303.407 269.277ZM211.435 328.077H259.791V341.349H211.435V328.077ZM279.703 328.077H328.059V341.349H279.703V328.077ZM347.971 328.077H396.323V341.349H347.971V328.077Z" fill="currentColor"/></svg>
