<svg width="512" height="512" viewBox="0 0 512 512" fill="none" xmlns="http://www.w3.org/2000/svg"><path d="M375.314 102.398H112.678C105.541 102.856 98.8666 106.089 94.0824 111.405C89.2983 116.72 86.7841 123.697 87.0778 130.842V299.598C86.7841 306.744 89.2983 313.721 94.0824 319.036C98.8666 324.352 105.541 327.585 112.678 328.042H257.742V313.834H112.678C109.34 313.324 106.316 311.577 104.207 308.939C102.099 306.301 101.06 302.967 101.298 299.598V183.938H223.602V286.338C223.675 288.172 224.373 289.926 225.58 291.308C226.787 292.691 228.431 293.619 230.238 293.938H285.242V279.702H240.678V277.806C240.599 266.427 244.27 255.338 251.126 246.255C257.981 237.172 267.637 230.599 278.602 227.554C283.821 229.901 289.479 231.114 295.202 231.114C300.925 231.114 306.582 229.901 311.802 227.554C324.098 231.681 334.738 239.661 342.142 250.31L353.518 243.674C346.87 232.085 336.518 223.069 324.126 218.074C329.856 211.159 332.887 202.401 332.658 193.422C332.733 188.546 331.828 183.704 329.996 179.183C328.164 174.663 325.444 170.557 321.995 167.108C318.547 163.659 314.441 160.938 309.921 159.106C305.4 157.274 300.558 156.368 295.682 156.442C275.77 157.39 257.754 173.51 257.754 193.422C258.039 202.19 261.395 210.579 267.238 217.122C255.43 222.591 245.287 231.099 237.846 241.774V149.806H354.454V245.57H367.73V183.938H388.59V252.206H401.862V130.842C401.945 123.597 399.232 116.598 394.288 111.3C389.344 106.003 382.548 102.815 375.314 102.398ZM294.722 169.718C297.843 169.688 300.939 170.28 303.829 171.461C306.719 172.641 309.344 174.386 311.551 176.593C313.758 178.8 315.503 181.426 316.684 184.315C317.864 187.205 318.456 190.301 318.426 193.422C318.336 197.665 317.154 201.813 314.994 205.466C312.835 209.119 309.771 212.154 306.098 214.278C302.924 216.009 299.398 216.991 295.787 217.151C292.176 217.311 288.576 216.644 285.262 215.2C281.949 213.757 279.008 211.575 276.666 208.823C274.324 206.07 272.641 202.818 271.747 199.316C270.853 195.814 270.771 192.154 271.507 188.615C272.243 185.076 273.778 181.752 275.994 178.897C278.211 176.042 281.05 173.73 284.296 172.14C287.541 170.549 291.107 169.721 294.722 169.718ZM366.782 170.666V143.17C366.804 142.292 366.647 141.419 366.321 140.604C365.995 139.788 365.507 139.047 364.886 138.426C364.265 137.805 363.524 137.317 362.709 136.991C361.893 136.665 361.02 136.508 360.142 136.53H230.246C229.368 136.509 228.495 136.666 227.68 136.992C226.865 137.318 226.125 137.807 225.504 138.428C224.884 139.049 224.396 139.789 224.07 140.605C223.744 141.42 223.588 142.293 223.61 143.17V170.666H101.298V130.842C101.179 127.395 102.243 124.011 104.313 121.251C106.383 118.492 109.335 116.524 112.678 115.674H375.314C378.789 116.27 381.905 118.174 384.02 120.995C386.136 123.815 387.091 127.339 386.69 130.842V170.666H366.782ZM114.574 218.074H189.478V232.294H114.574V218.074ZM114.574 252.206H161.982V266.426H114.574V252.206ZM176.202 252.206H196.114V266.426H176.202V252.206ZM355.402 409.598C346.356 409.733 337.373 408.066 328.978 404.694C320.583 401.322 312.942 396.314 306.502 389.96C300.061 383.606 294.949 376.034 291.464 367.685C287.979 359.337 286.19 350.378 286.202 341.33C286.174 332.235 287.945 323.224 291.413 314.816C294.881 306.408 299.978 298.769 306.409 292.337C312.84 285.906 320.48 280.81 328.888 277.342C337.296 273.874 346.307 272.103 355.402 272.13H363.938C382.235 274.526 398.855 284.023 410.209 298.571C421.563 313.118 426.738 331.547 424.618 349.878C423.063 363.256 417.436 375.833 408.498 385.906C402.233 393.409 394.486 399.537 385.742 403.906C376.079 407.705 365.784 409.636 355.402 409.598ZM355.402 285.39C346.551 285.356 337.805 287.299 329.802 291.078C316.914 297.799 307.173 309.303 302.669 323.122C298.164 336.94 299.253 351.975 305.704 364.999C312.154 378.024 323.452 388.003 337.174 392.795C350.896 397.588 365.949 396.812 379.106 390.634C385.885 386.974 391.976 382.162 397.106 376.414C406.595 365.321 411.321 350.93 410.255 336.37C409.19 321.811 402.42 308.261 391.418 298.666C382.911 291.81 372.794 287.24 362.026 285.39H355.402ZM344.974 369.79C343.216 369.755 341.531 369.081 340.234 367.894L318.426 346.09L327.906 336.606L344.974 353.674L383.846 314.798L393.33 324.282L349.73 367.882C348.428 369.071 346.737 369.744 344.974 369.774V369.79Z" fill="currentColor"/></svg>
