<svg width="512" height="512" viewBox="0 0 512 512" fill="none" xmlns="http://www.w3.org/2000/svg"><path d="M332.801 342.281L342.281 332.801L424.773 415.289L415.289 424.773L332.801 342.281ZM87.2292 96.7132L96.7132 87.2292L187.733 177.305L177.305 186.801L87.2292 96.7132ZM108.089 394.429L155.497 347.025L164.977 356.505L117.573 403.913L108.089 394.429ZM347.025 155.497L394.429 108.089L403.913 117.573L356.505 164.977L347.025 155.497ZM426.669 249.365V262.637H413.393C412.319 293.376 402.084 323.093 384.001 347.973L372.625 340.373C388.943 317.64 398.179 290.591 399.173 262.625H385.897V249.365H399.173C398.182 221.394 388.946 194.339 372.625 171.601L384.001 164.029C402.084 188.91 412.319 218.626 413.393 249.365H426.669ZM347.973 128.965L340.373 140.341C317.64 124.023 290.591 114.787 262.625 113.793V127.069H249.365V113.777C221.394 114.768 194.339 124.004 171.601 140.325L164.001 128.949C188.882 110.866 218.598 100.631 249.337 99.5573V86.2812H262.609V99.5573C293.358 100.625 323.085 110.861 347.973 128.949V128.965ZM347.973 384.017C323.093 402.1 293.376 412.335 262.637 413.409V426.685H249.365V413.409C218.625 412.331 188.908 402.09 164.029 384.001L171.629 372.625C194.363 388.943 221.411 398.179 249.377 399.173V385.897H262.649V399.173C290.617 398.18 317.667 388.944 340.401 372.625L347.973 384.017ZM112.829 262.637C113.82 290.609 123.056 317.663 139.377 340.401L128.949 348.001C110.866 323.121 100.631 293.404 99.5573 262.665H86.2812V249.365H99.5573C100.631 218.626 110.866 188.91 128.949 164.029L140.325 171.629C124.007 194.363 114.771 221.411 113.777 249.377H127.053V262.649L112.829 262.637ZM317.629 213.333C316.588 212.858 315.456 212.613 314.311 212.613C313.166 212.613 312.035 212.858 310.993 213.333C309.097 214.281 307.201 216.177 308.149 218.077L306.253 230.401C304.55 213.925 298.582 198.178 288.939 184.71C279.296 171.243 266.31 160.521 251.261 153.601C241.96 146.885 231.266 142.348 219.973 140.325C218.22 139.994 216.407 140.288 214.848 141.154C213.289 142.021 212.082 143.406 211.437 145.069C210.489 146.965 212.385 149.809 213.333 151.705C220.337 158.661 225.55 167.212 228.522 176.625C231.495 186.039 232.14 196.032 230.401 205.749C221.869 195.321 209.541 182.993 194.373 182.993C193.283 183.064 192.217 183.352 191.24 183.84C190.262 184.329 189.393 185.008 188.681 185.837C188.214 186.713 187.97 187.689 187.97 188.681C187.97 189.673 188.214 190.65 188.681 191.525C192.473 201.957 200.061 231.349 188.681 250.325C187.733 251.273 187.733 252.221 186.785 253.169C179.102 266.81 176.788 282.828 180.296 298.085C183.803 313.343 192.88 326.741 205.749 335.657C219.485 344.423 234.097 351.732 249.349 357.465C250.297 357.465 250.297 358.413 251.245 357.465H252.193C260.741 356.505 323.321 348.921 335.645 299.601C353.661 233.245 319.525 213.333 317.629 213.333ZM240.829 340.401C231.093 336.444 221.863 331.341 213.333 325.201C203.187 318.295 196.063 307.773 193.419 295.787C190.776 283.801 192.813 271.259 199.113 260.725L200.061 257.881C211.437 239.881 208.593 215.213 204.801 200.993C213.297 208.039 220.653 216.354 226.609 225.645C227.249 227.271 228.502 228.58 230.098 229.29C231.695 229.999 233.506 230.052 235.141 229.437C236.089 228.489 237.985 227.541 238.933 225.645C243.088 215.186 245.063 203.988 244.737 192.738C244.411 181.488 241.791 170.423 237.037 160.221C245.956 165.021 252.978 172.712 256.949 182.029C266.429 201.941 264.549 229.437 251.261 254.089C237.899 280.785 234.212 311.29 240.829 340.401ZM323.321 296.801C314.801 331.853 271.173 341.333 256.001 344.177C252.209 330.905 244.625 293.925 263.601 260.741C276.363 238.66 280.09 212.499 274.001 187.733C286.325 201.957 296.757 225.661 291.065 259.793C290.835 260.605 290.778 261.456 290.896 262.292C291.015 263.127 291.307 263.928 291.754 264.644C292.201 265.36 292.792 265.974 293.491 266.448C294.189 266.921 294.979 267.243 295.809 267.393C296.839 267.521 297.884 267.417 298.868 267.089C299.852 266.761 300.75 266.217 301.497 265.497C310.421 256.805 316.39 245.529 318.561 233.261C325.201 241.777 331.853 261.689 323.321 296.773V296.801Z" fill="currentColor"/></svg>
