<svg width="512" height="512" viewBox="0 0 512 512" fill="none" xmlns="http://www.w3.org/2000/svg"><path d="M417.458 371.675L386.17 340.399C398.46 321.667 406.782 300.615 410.623 278.543C414.465 256.471 413.744 233.846 408.505 212.063C403.266 190.28 393.621 169.802 380.163 151.89C366.705 133.978 349.721 119.013 330.257 107.918C310.794 96.8228 289.263 89.8324 266.994 87.3779C244.725 84.9235 222.189 87.0571 200.777 93.6471C179.364 100.237 159.528 111.144 142.492 125.695C125.457 140.245 111.583 158.132 101.726 178.251L114.05 183.939C122.645 164.952 135.084 147.954 150.58 134.018C166.077 120.081 184.295 109.51 204.084 102.97C223.873 96.4305 244.803 94.0651 265.552 96.0233C286.301 97.9815 306.419 104.221 324.636 114.347C342.852 124.473 358.77 138.266 371.386 154.856C384.002 171.445 393.041 190.47 397.933 210.73C402.824 230.989 403.462 252.042 399.806 272.561C396.149 293.079 388.278 312.616 376.69 329.939L350.142 304.339C363.051 277.719 364.919 247.077 355.34 219.085C345.76 191.094 325.51 168.022 298.997 154.893C272.485 141.764 241.859 139.642 213.79 148.99C185.721 158.337 162.481 178.396 149.134 204.799C147.571 208.159 146.302 211.648 145.342 215.227H99.8296V228.503H140.598C139.65 235.139 138.702 241.775 137.754 249.363H85.6016V262.635H138.702C139.588 269.651 140.854 276.615 142.494 283.495H99.8296V296.771H147.238C158.943 324.064 180.936 345.642 208.448 356.824C235.96 368.006 266.771 367.891 294.198 356.503C297.821 354.881 301.309 352.974 304.63 350.799L330.23 376.399C297.082 397.613 256.918 404.932 218.418 396.774C179.918 388.615 146.175 365.635 124.482 332.799L113.102 340.399C137.222 376.355 174.581 401.316 217.031 409.839C259.481 418.362 303.58 409.755 339.71 385.895L370.998 417.183C373.818 420.171 377.199 422.575 380.948 424.257C384.697 425.939 388.741 426.865 392.848 426.984C396.956 427.103 401.046 426.412 404.887 424.95C408.727 423.487 412.241 421.283 415.23 418.463C415.67 418.052 416.096 417.625 416.51 417.183C422.659 411.268 426.212 403.155 426.39 394.625C426.567 386.094 423.355 377.841 417.458 371.675ZM250.586 351.763C224.517 351.511 199.608 340.946 181.308 322.379C163.008 303.812 152.805 278.753 152.931 252.683C153.057 226.614 163.501 201.655 181.98 183.265C200.458 164.875 225.468 154.551 251.538 154.551C277.608 154.551 302.617 164.875 321.095 183.265C339.574 201.655 350.019 226.614 350.144 252.683C350.27 278.753 340.067 303.812 321.767 322.379C303.467 340.946 278.558 351.511 252.49 351.763H250.586ZM407.978 406.755C404.558 410.358 399.862 412.477 394.897 412.654C389.933 412.831 385.097 411.053 381.43 407.703L316.954 343.227C327.015 335.614 335.678 326.31 342.554 315.731L407.978 381.155C411.175 384.651 412.949 389.217 412.949 393.955C412.949 398.693 411.175 403.259 407.978 406.755ZM300.838 247.467L305.578 213.331V211.435C305.578 195.319 270.494 189.627 247.742 189.627C224.99 189.627 189.902 195.319 188.942 211.435V213.331L201.282 298.667C202.23 315.731 242.998 316.667 247.742 315.731C256.67 315.796 265.577 314.841 274.29 312.887C276.88 312.513 279.427 311.878 281.89 310.991C289.49 308.147 293.266 304.355 294.214 298.667L297.062 272.119C299.262 272.443 301.497 272.443 303.698 272.119C305.475 272.456 307.312 272.277 308.992 271.605C310.671 270.932 312.124 269.793 313.178 268.323C314.217 266.276 314.551 263.943 314.126 261.687C310.551 256.22 306.061 251.41 300.854 247.467H300.838ZM285.666 255.067C275.85 250.681 266.053 246.256 256.274 241.791C256.003 240.575 255.495 239.425 254.78 238.406C254.065 237.387 253.156 236.519 252.105 235.851C251.054 235.183 249.882 234.729 248.656 234.514C247.43 234.299 246.173 234.328 244.958 234.599C243.742 234.87 242.592 235.377 241.573 236.092C240.554 236.807 239.686 237.716 239.018 238.767C238.35 239.818 237.896 240.99 237.681 242.216C237.466 243.443 237.495 244.699 237.766 245.915C237.883 246.451 238.048 246.975 238.258 247.483C238.661 249.505 239.712 251.342 241.252 252.713C242.793 254.084 244.738 254.916 246.794 255.083C248.13 255.223 249.473 254.887 250.586 254.135C261.346 259.561 272.434 264.31 283.786 268.355L279.994 296.803C279.261 297.71 278.269 298.372 277.15 298.699C275.254 299.647 272.41 299.647 269.55 300.595C262.06 302.187 254.449 303.139 246.798 303.439C235.346 304.089 223.919 301.805 213.598 296.803L204.118 225.691C232.063 233.219 261.504 233.219 289.45 225.691L285.666 255.067ZM247.742 218.091C232.83 218.733 217.956 216.14 204.142 210.491C217.851 204.483 232.808 201.875 247.742 202.891C262.363 202.024 276.982 204.629 290.406 210.491C276.88 216.004 262.339 218.589 247.742 218.075V218.091Z" fill="currentColor"/></svg>
