<svg width="512" height="512" viewBox="0 0 512 512" fill="none" xmlns="http://www.w3.org/2000/svg"><path d="M339.436 221.868L262.636 204.8V194.372C262.658 193.494 262.501 192.621 262.176 191.806C261.85 190.991 261.362 190.25 260.742 189.629C260.121 189.008 259.381 188.52 258.566 188.194C257.751 187.868 256.878 187.711 256 187.732H221.868C220.99 187.711 220.117 187.868 219.302 188.194C218.487 188.52 217.746 189.008 217.125 189.629C216.504 190.25 216.016 190.991 215.69 191.806C215.364 192.621 215.207 193.494 215.228 194.372V317.628C215.207 318.506 215.364 319.379 215.69 320.194C216.016 321.009 216.504 321.75 217.125 322.371C217.746 322.992 218.487 323.48 219.302 323.806C220.117 324.132 220.99 324.289 221.868 324.268H256C256.878 324.289 257.751 324.132 258.566 323.806C259.381 323.48 260.121 322.992 260.742 322.371C261.362 321.75 261.85 321.009 262.176 320.194C262.501 319.379 262.658 318.506 262.636 317.628V307.2L339.436 290.132C341.003 289.848 342.423 289.034 343.459 287.825C344.495 286.616 345.083 285.087 345.124 283.496V228.504C345.227 226.875 344.69 225.27 343.627 224.031C342.565 222.792 341.062 222.016 339.436 221.868ZM249.364 310.992H228.504V200.992H249.364V310.992ZM330.904 277.792L262.636 292.976V218.076L330.904 233.244V277.792ZM426.668 218.06V233.228C404.386 239.172 381.459 242.361 358.4 242.724V228.504C381.542 228.36 404.539 224.847 426.668 218.076V218.06ZM358.4 248.4C381.213 248.555 404.013 247.288 426.668 244.608V267.36C404.082 263.901 381.248 262.321 358.4 262.636V248.4ZM358.4 269.26C381.496 269.083 404.494 272.277 426.668 278.74V293.908C404.645 286.685 381.575 283.167 358.4 283.496V269.26ZM85.332 186.8C115.676 206.712 155.496 218.092 201.008 221.884V235.156C160.523 233.201 120.993 222.185 85.332 202.92V186.8ZM85.332 231.364C123.054 241.729 161.9 247.45 201.008 248.4V263.6C161.893 264.492 123.038 270.225 85.332 280.668V266.428C102.093 261.593 119.215 258.105 136.532 256C119.215 253.895 102.093 250.408 85.332 245.572V231.364ZM201.008 199.128V213.348C107.14 201.956 85.332 153.6 86.28 112.828V85.332H99.556V113.776C99.556 148.86 117.572 189.628 201.008 199.112V199.128ZM85.332 310.992C120.416 291.08 160.236 280.652 201.008 276.86V291.08C155.496 294.876 114.724 307.2 85.332 326.164V310.992ZM201.008 299.6V312.872C147.912 319.508 99.556 341.316 99.556 398.208V425.704H93.868L86.268 426.652V398.224C86.28 358.4 107.14 310.044 201.008 299.6Z" fill="currentColor"/></svg>
