<svg width="512" height="512" viewBox="0 0 512 512" fill="none" xmlns="http://www.w3.org/2000/svg"><path d="M255.998 164.026C219.97 164.026 181.094 172.562 181.094 192.474V318.574C181.094 339.434 219.97 347.97 255.998 347.97C292.026 347.97 330.902 339.434 330.902 319.522V192.474C330.902 172.562 292.026 164.026 255.998 164.026ZM255.998 177.302C295.822 177.302 317.626 188.678 317.626 192.474C317.626 197.214 295.822 207.642 255.998 207.642C216.174 207.642 194.37 196.266 194.37 192.474C194.37 188.682 215.226 177.302 255.998 177.302ZM317.626 319.522C317.626 323.318 295.822 334.694 255.998 334.694C216.174 334.694 194.37 323.318 194.37 319.522V297.718C208.59 306.25 232.294 309.094 255.998 309.094C278.754 309.094 303.406 305.302 317.626 297.718V319.522ZM317.626 280.65C317.626 284.442 295.822 295.822 255.998 295.822C216.174 295.822 194.37 284.442 194.37 280.65V255.05C208.59 262.65 233.242 266.426 255.998 266.426C278.754 266.426 303.406 262.634 317.626 255.05V280.65ZM317.626 237.05C317.626 241.79 295.822 252.222 255.998 252.222C216.174 252.222 194.37 240.842 194.37 237.05V210.486C208.59 218.086 232.294 221.866 255.998 220.918C279.702 219.97 303.406 217.122 317.626 209.538V237.05ZM149.806 352.71L98.6062 403.91V358.398H85.3302V420.026C85.3082 420.904 85.4649 421.777 85.7908 422.593C86.1168 423.408 86.6051 424.149 87.2261 424.77C87.8471 425.391 88.5878 425.88 89.4034 426.205C90.2189 426.531 91.0922 426.688 91.9702 426.666H153.598V413.39H108.086L159.286 362.19L149.806 352.71ZM413.406 403.91L362.206 352.71L352.726 362.19L403.926 413.39H358.398V426.666H420.026C420.904 426.688 421.777 426.531 422.593 426.205C423.408 425.88 424.149 425.391 424.77 424.77C425.391 424.149 425.88 423.408 426.205 422.593C426.531 421.777 426.688 420.904 426.666 420.026V358.398H413.39L413.406 403.91ZM420.042 85.3302H358.398V98.6062H403.91L352.71 149.806L362.19 159.286L413.39 108.086V153.598H426.666V91.9702C426.688 91.0922 426.531 90.2189 426.205 89.4034C425.88 88.5878 425.391 87.8471 424.77 87.2261C424.149 86.6051 423.408 86.1168 422.593 85.7908C421.777 85.4649 420.904 85.3082 420.026 85.3302H420.042ZM153.598 98.6062V85.3302H91.9702C91.0922 85.3082 90.2189 85.4649 89.4034 85.7908C88.5878 86.1168 87.8471 86.6051 87.2261 87.2261C86.6051 87.8471 86.1168 88.5878 85.7908 89.4034C85.4649 90.2189 85.3082 91.0922 85.3302 91.9702V153.598H98.6062V108.086L149.806 159.286L159.286 149.806L108.086 98.6062H153.598ZM155.494 203.85L151.702 191.526C109.998 206.694 86.2781 229.45 86.2781 254.102C86.2781 278.754 109.998 301.51 151.702 316.678L156.442 303.406C121.362 290.13 99.5542 272.118 99.5542 254.102C98.6062 236.086 120.398 217.122 155.494 203.85ZM357.45 189.626L352.71 202.902C390.634 216.174 413.39 235.138 413.39 254.102C413.39 273.066 390.634 292.974 352.71 305.302L357.45 318.574C402.014 303.406 426.65 280.65 426.65 254.102C426.65 227.554 401.066 204.798 357.45 189.626Z" fill="currentColor"/></svg>
