<svg width="512" height="512" viewBox="0 0 512 512" fill="none" xmlns="http://www.w3.org/2000/svg"><path d="M298.667 428.563C297.331 428.703 295.988 428.368 294.875 427.615L255.999 404.859L217.123 427.599C216.08 428.067 214.949 428.31 213.805 428.31C212.661 428.31 211.531 428.067 210.487 427.599L129.895 378.311C128.873 377.713 128 376.89 127.343 375.904C126.685 374.919 126.262 373.796 126.103 372.623V323.319L89.1232 302.459C87.9877 301.757 87.0458 300.782 86.3835 299.623C85.7212 298.464 85.3594 297.157 85.3312 295.823V216.175C85.2714 214.823 85.5959 213.482 86.2671 212.308C86.9382 211.133 87.9285 210.173 89.1232 209.539L126.103 188.679V139.375C126.15 138.044 126.52 136.745 127.181 135.589C127.841 134.433 128.773 133.455 129.895 132.739L210.487 84.3986C211.531 83.9299 212.661 83.6875 213.805 83.6875C214.949 83.6875 216.08 83.9299 217.123 84.3986L255.999 107.139L294.875 84.3986C295.919 83.9299 297.049 83.6875 298.193 83.6875C299.337 83.6875 300.468 83.9299 301.511 84.3986L382.103 133.687C383.239 134.389 384.181 135.363 384.843 136.523C385.505 137.682 385.867 138.988 385.895 140.323V188.679L422.875 210.487C423.898 211.084 424.771 211.907 425.428 212.893C426.085 213.878 426.509 215.001 426.667 216.175V296.771C426.727 298.122 426.403 299.463 425.731 300.637C425.06 301.812 424.07 302.772 422.875 303.407L385.895 324.267V373.571C386.057 374.817 385.762 376.08 385.065 377.125C384.368 378.171 383.316 378.929 382.103 379.259L301.511 428.563C300.563 427.599 299.599 428.563 298.667 428.563ZM262.635 392.531L298.667 413.391L371.675 368.827V319.523C371.615 318.171 371.94 316.83 372.611 315.656C373.282 314.481 374.273 313.521 375.467 312.887L405.807 295.823L380.207 282.547C377.301 285.078 373.709 286.691 369.886 287.181C366.063 287.671 362.18 287.016 358.729 285.299C355.278 283.583 352.414 280.882 350.498 277.537C348.582 274.193 347.701 270.355 347.966 266.51C348.232 262.665 349.631 258.985 351.988 255.935C354.344 252.885 357.553 250.602 361.206 249.376C364.86 248.149 368.796 248.034 372.516 249.044C376.235 250.054 379.572 252.144 382.103 255.051C385.054 258.858 386.715 263.507 386.843 268.323V271.171L413.391 285.391V219.971L375.467 199.111C374.331 198.408 373.389 197.433 372.727 196.273C372.064 195.113 371.703 193.806 371.675 192.471V174.471H352.711C351.958 176.919 350.698 179.182 349.012 181.11C347.326 183.039 345.252 184.591 342.926 185.664C340.6 186.738 338.074 187.309 335.512 187.34C332.95 187.371 330.411 186.863 328.059 185.847C318.575 181.107 311.939 170.679 315.731 160.247C316.557 157.74 317.898 155.435 319.668 153.478C321.438 151.521 323.599 149.956 326.01 148.885C328.421 147.813 331.03 147.258 333.669 147.256C336.308 147.254 338.918 147.804 341.331 148.871C344.016 149.687 346.459 151.152 348.444 153.136C350.428 155.12 351.894 157.562 352.711 160.247H371.671V143.171L298.667 98.6066L262.635 119.467V194.371L301.511 216.175C303.543 214.68 305.858 213.614 308.315 213.043C310.772 212.471 313.32 212.405 315.803 212.848C318.287 213.292 320.654 214.236 322.761 215.624C324.868 217.011 326.67 218.813 328.059 220.919C333.747 229.451 332.799 241.775 324.267 247.467C320.036 250.377 314.87 251.601 309.783 250.899C304.696 250.197 300.055 247.619 296.771 243.671C294.257 240.416 292.919 236.407 292.975 232.295C292.911 230.662 293.236 229.037 293.923 227.555L252.207 204.799C250.311 203.851 248.415 201.007 249.363 199.111V119.467L213.331 98.6066L181.095 118.519V166.871H166.871V127.051L140.323 144.119V188.679L174.459 208.591L208.591 188.679V154.547H221.867V193.423C222.029 194.669 221.734 195.933 221.036 196.978C220.338 198.024 219.285 198.782 218.071 199.111L181.095 220.919V253.155L218.071 277.807C219.095 278.403 219.969 279.226 220.627 280.212C221.285 281.197 221.709 282.32 221.867 283.495V306.251L249.363 290.131V261.687L213.331 238.931L219.971 227.555L259.791 250.311C260.948 250.93 261.859 251.925 262.376 253.13C262.892 254.336 262.984 255.682 262.635 256.947V345.123H293.923C294.834 342.677 296.224 340.439 298.011 338.538C299.798 336.637 301.947 335.112 304.331 334.052C306.716 332.993 309.288 332.42 311.896 332.367C314.505 332.315 317.098 332.784 319.523 333.747C323.38 335.216 326.707 337.808 329.074 341.189C331.441 344.57 332.739 348.584 332.799 352.711C332.609 355.347 331.886 357.918 330.674 360.267C329.462 362.616 327.785 364.694 325.747 366.377C323.708 368.06 321.349 369.311 318.813 370.056C316.277 370.801 313.616 371.024 310.991 370.711C307.431 370.36 304.012 369.139 301.036 367.155C298.059 365.171 295.617 362.485 293.923 359.335H262.635V392.531ZM184.887 396.323L213.331 413.391L250.311 391.599V305.303L173.511 349.867L166.875 338.487L208.591 313.835V286.339L174.459 264.531L136.531 285.391L129.895 273.067L167.823 251.259V219.023L133.687 200.059L99.5552 219.023V243.675L128.947 226.607L135.599 237.999L99.5712 259.807V291.079L133.703 310.991L168.787 290.131L175.423 301.511L140.339 322.371V368.827L171.599 387.791L206.679 366.931H208.575L216.175 378.311L184.887 396.323ZM312.887 345.123C309.095 345.123 307.199 347.971 306.251 351.763C305.303 355.555 309.095 357.451 312.887 357.451C313.643 357.482 314.396 357.357 315.101 357.082C315.805 356.808 316.445 356.39 316.98 355.855C317.514 355.32 317.932 354.681 318.207 353.976C318.481 353.272 318.607 352.518 318.575 351.763C318.175 350.305 317.458 348.954 316.475 347.806C315.491 346.658 314.266 345.741 312.887 345.123ZM366.931 261.687C366.176 261.655 365.422 261.78 364.718 262.055C364.013 262.33 363.373 262.748 362.839 263.282C362.304 263.817 361.886 264.457 361.612 265.161C361.337 265.865 361.212 266.619 361.243 267.375C361.461 268.908 362.111 270.348 363.119 271.524C364.127 272.7 365.449 273.564 366.931 274.015C369.775 274.963 372.623 271.171 373.571 267.375C374.519 263.579 370.723 261.687 366.931 261.687ZM312.887 225.659C309.095 225.659 307.199 228.503 306.251 232.295C305.303 236.087 309.095 237.983 312.887 237.983C313.643 238.014 314.396 237.889 315.101 237.614C315.805 237.34 316.445 236.922 316.98 236.387C317.514 235.852 317.932 235.213 318.207 234.508C318.481 233.804 318.607 233.05 318.575 232.295C318.176 230.837 317.459 229.486 316.475 228.339C315.492 227.191 314.267 226.276 312.887 225.659ZM334.695 161.199C333.112 161.27 331.599 161.87 330.397 162.901C329.194 163.933 328.371 165.337 328.059 166.891C327.111 169.735 330.903 172.579 334.695 173.527C338.487 174.475 340.383 170.683 340.383 166.891C340.415 166.135 340.29 165.381 340.016 164.676C339.742 163.971 339.324 163.331 338.789 162.796C338.254 162.26 337.615 161.842 336.91 161.567C336.205 161.293 335.451 161.167 334.695 161.199Z" fill="currentColor"/></svg>
