<svg width="512" height="512" viewBox="0 0 512 512" fill="none" xmlns="http://www.w3.org/2000/svg"><path d="M364.087 334.697C359.822 334.582 355.579 335.337 351.616 336.916C347.653 338.495 344.053 340.866 341.036 343.882C338.02 346.899 335.649 350.499 334.07 354.462C332.491 358.425 331.736 362.668 331.851 366.933C331.744 375.604 335.075 383.965 341.116 390.187C347.157 396.408 355.416 399.984 364.087 400.133C372.856 399.849 381.246 396.492 387.791 390.649C393.941 384.299 397.347 375.785 397.275 366.945C397.13 358.274 393.556 350.014 387.337 343.971C381.118 337.927 372.758 334.593 364.087 334.697ZM377.363 381.157C373.714 384.799 368.77 386.844 363.615 386.844C358.46 386.844 353.515 384.799 349.867 381.157C348.029 379.517 346.632 377.443 345.803 375.123C344.974 372.804 344.741 370.314 345.123 367.881C345.05 365.371 345.492 362.873 346.419 360.539C347.346 358.206 348.741 356.087 350.516 354.312C352.292 352.536 354.412 351.142 356.745 350.215C359.079 349.288 361.577 348.848 364.087 348.921C366.721 348.848 369.341 349.315 371.787 350.294C374.234 351.272 376.454 352.74 378.311 354.609C384.947 361.245 384.947 372.625 377.363 381.157ZM410.563 222.817C401.94 223.085 393.761 226.698 387.756 232.892C381.751 239.086 378.394 247.374 378.394 256.001C378.394 264.628 381.751 272.916 387.756 279.11C393.761 285.304 401.94 288.917 410.563 289.185C419.186 288.917 427.365 285.304 433.37 279.11C439.374 272.916 442.732 264.628 442.732 256.001C442.732 247.374 439.374 239.086 433.37 232.892C427.365 226.698 419.186 223.085 410.563 222.817ZM424.787 270.225C422.93 272.093 420.709 273.562 418.263 274.54C415.817 275.518 413.196 275.985 410.563 275.913C406.718 275.819 402.988 274.588 399.843 272.374C396.699 270.16 394.281 267.063 392.897 263.476C391.512 259.888 391.222 255.97 392.064 252.218C392.906 248.465 394.842 245.047 397.627 242.395C400.412 239.742 403.92 237.976 407.709 237.317C411.498 236.659 415.397 237.14 418.913 238.698C422.429 240.255 425.404 242.821 427.462 246.07C429.52 249.318 430.569 253.104 430.475 256.949C429.752 261.793 427.787 266.367 424.771 270.225H424.787ZM364.087 170.669C372.608 170.561 380.76 167.169 386.843 161.201C391.358 156.551 394.43 150.693 395.687 144.335C396.943 137.977 396.331 131.391 393.924 125.373C391.517 119.355 387.418 114.164 382.123 110.427C376.828 106.689 370.563 104.566 364.087 104.313C355.266 104.543 346.856 108.088 340.531 114.24C334.205 120.393 330.43 128.702 329.955 137.513C330.44 146.316 334.221 154.614 340.545 160.758C346.869 166.901 355.273 170.439 364.087 170.669ZM364.087 118.521C366.592 118.355 369.1 118.784 371.407 119.772C373.715 120.761 375.755 122.281 377.363 124.209C379.143 125.934 380.562 127.996 381.538 130.274C382.515 132.553 383.029 135.002 383.051 137.481C383.023 142.771 380.991 147.854 377.363 151.705C373.714 155.347 368.77 157.392 363.615 157.392C358.46 157.392 353.515 155.347 349.867 151.705C347.949 149.92 346.51 147.683 345.681 145.198C344.853 142.713 344.661 140.059 345.123 137.481C344.969 134.95 345.354 132.416 346.252 130.046C347.151 127.675 348.542 125.522 350.335 123.73C352.128 121.938 354.281 120.546 356.651 119.648C359.022 118.75 361.557 118.366 364.087 118.521ZM125.155 279.721C129.817 275.138 132.819 269.132 133.687 262.653H169.719L157.391 274.001L166.875 284.429L190.575 260.725C191.246 260.131 191.784 259.401 192.152 258.584C192.52 257.767 192.711 256.881 192.711 255.985C192.711 255.089 192.52 254.203 192.152 253.385C191.784 252.568 191.246 251.839 190.575 251.245L166.875 227.541L157.391 238.001L169.719 249.381H133.687C131.777 240.719 126.517 233.166 119.056 228.369C111.595 223.573 102.54 221.923 93.867 223.781C87.663 225.249 82.0455 228.553 77.747 233.261C64.475 246.537 64.475 267.393 77.747 278.773C83.9822 285.052 92.415 288.66 101.262 288.834C110.11 289.008 118.678 285.734 125.155 279.705V279.721ZM88.175 274.001C84.0423 270.849 81.3253 266.189 80.6178 261.04C79.9102 255.891 81.2697 250.671 84.399 246.521C85.347 245.573 86.295 243.677 88.191 242.725C91.8377 239.078 96.7837 237.029 101.941 237.029C107.098 237.029 112.044 239.078 115.691 242.725C119.338 246.372 121.386 251.318 121.386 256.475C121.386 261.632 119.338 266.578 115.691 270.225C112.402 274.174 107.756 276.75 102.665 277.449C97.5741 278.147 92.4058 276.918 88.175 274.001ZM337.539 284.429L360.295 260.725C360.966 260.131 361.503 259.401 361.871 258.584C362.238 257.767 362.429 256.881 362.429 255.985C362.429 255.089 362.238 254.203 361.871 253.386C361.503 252.569 360.966 251.839 360.295 251.245L358.399 249.349L337.539 227.541L328.059 238.001L339.435 249.381H298.667C299.823 231.232 306.805 213.94 318.575 200.077C319.198 199.454 319.692 198.715 320.029 197.902C320.366 197.089 320.54 196.217 320.54 195.336C320.54 194.456 320.367 193.584 320.03 192.77C319.693 191.957 319.199 191.218 318.577 190.595C317.954 189.972 317.215 189.478 316.402 189.141C315.589 188.804 314.717 188.63 313.836 188.63C312.956 188.63 312.084 188.803 311.27 189.14C310.457 189.477 309.718 189.97 309.095 190.593C280.651 219.041 224.695 219.041 196.267 190.593C194.987 189.464 193.325 188.865 191.62 188.919C189.914 188.972 188.293 189.673 187.086 190.88C185.879 192.087 185.178 193.708 185.125 195.414C185.071 197.119 185.67 198.781 186.799 200.061C215.243 228.505 215.243 284.461 186.799 312.889C185.582 314.168 184.904 315.866 184.904 317.631C184.904 319.396 185.582 321.094 186.799 322.373C187.393 323.044 188.124 323.581 188.941 323.949C189.758 324.317 190.645 324.507 191.541 324.507C192.437 324.507 193.324 324.317 194.141 323.949C194.958 323.581 195.688 323.044 196.283 322.373C224.727 293.925 280.683 293.925 309.111 322.373C309.705 323.044 310.435 323.581 311.252 323.948C312.069 324.316 312.955 324.506 313.851 324.506C314.747 324.506 315.633 324.316 316.45 323.948C317.267 323.581 317.997 323.044 318.591 322.373C319.808 321.094 320.486 319.396 320.486 317.631C320.486 315.866 319.808 314.168 318.591 312.889C305.89 299.226 298.784 281.291 298.683 262.637H339.435L328.059 274.001L337.539 284.429ZM291.079 294.877C266.031 285.392 238.379 285.392 213.331 294.877C222.816 270.155 222.816 242.798 213.331 218.077C238.38 227.558 266.03 227.558 291.079 218.077C282.546 242.966 282.546 269.988 291.079 294.877ZM189.627 119.469L183.939 107.141C206.613 96.6873 231.363 91.5122 256.326 92.0048C281.289 92.4974 305.815 98.6449 328.059 109.985L320.459 122.313C300.266 112.042 278.018 106.452 255.368 105.96C232.717 105.467 210.247 110.085 189.627 119.469ZM108.087 212.401L94.799 208.593C99.0301 194.888 105.084 181.813 112.799 169.721L124.179 177.321C117.129 188.165 111.708 199.984 108.087 212.401ZM394.427 173.529C400.113 182.84 404.876 192.684 408.651 202.921L395.375 206.713C391.842 197.608 387.726 188.74 383.051 180.165L394.427 173.529ZM396.323 300.581L409.599 304.373C405.751 314.421 401.318 324.235 396.323 333.765L383.999 327.113C389.259 318.845 393.403 309.919 396.323 300.565V300.581ZM321.423 388.741L328.059 401.069C304.397 412.672 278.546 419.134 252.207 420.029C226.871 420.128 201.866 414.284 179.199 402.965L185.835 390.637C206.967 401.095 230.282 406.377 253.858 406.047C277.433 405.717 300.592 399.785 321.423 388.741ZM121.363 330.905L109.999 337.541C104.146 326.53 99.0674 315.125 94.799 303.409L108.071 299.617C111.753 310.349 116.195 320.805 121.363 330.905ZM147.911 334.697C143.646 334.581 139.402 335.336 135.439 336.915C131.475 338.494 127.875 340.864 124.858 343.881C121.841 346.898 119.47 350.497 117.891 354.461C116.311 358.424 115.556 362.668 115.671 366.933C115.564 375.605 118.896 383.966 124.938 390.188C130.98 396.41 139.24 399.985 147.911 400.133C156.676 399.84 165.059 396.48 171.599 390.637C177.748 384.286 181.153 375.772 181.079 366.933C181.086 362.618 180.226 358.347 178.55 354.371C176.874 350.395 174.416 346.797 171.322 343.79C168.228 340.783 164.562 338.429 160.54 336.867C156.518 335.304 152.223 334.567 147.911 334.697ZM147.911 386.845C136.531 386.845 128.947 378.313 127.999 366.933C127.955 364.349 128.447 361.784 129.444 359.401C130.442 357.017 131.923 354.866 133.795 353.084C135.666 351.302 137.887 349.928 140.317 349.048C142.747 348.168 145.332 347.802 147.911 347.973C150.544 347.9 153.164 348.367 155.61 349.345C158.055 350.324 160.275 351.792 162.131 353.661C163.969 355.3 165.365 357.374 166.194 359.692C167.022 362.011 167.255 364.501 166.871 366.933C166.961 369.492 166.539 372.043 165.629 374.437C164.72 376.831 163.342 379.02 161.577 380.874C159.811 382.729 157.692 384.212 155.346 385.237C152.999 386.263 150.471 386.809 147.911 386.845ZM147.911 170.669C156.672 170.386 165.056 167.035 171.599 161.201C176.288 156.513 179.481 150.539 180.775 144.036C182.068 137.533 181.405 130.792 178.867 124.666C176.33 118.541 172.033 113.305 166.52 109.621C161.007 105.937 154.525 103.971 147.895 103.971C141.264 103.971 134.783 105.937 129.27 109.621C123.757 113.305 119.46 118.541 116.923 124.666C114.385 130.792 113.722 137.533 115.015 144.036C116.309 150.539 119.502 156.513 124.191 161.201C130.646 167.196 139.102 170.571 147.911 170.669ZM134.635 124.209C136.361 122.429 138.423 121.01 140.702 120.033C142.981 119.057 145.432 118.543 147.911 118.521C150.47 118.432 153.021 118.854 155.415 119.764C157.809 120.673 159.997 122.051 161.851 123.817C163.706 125.582 165.189 127.7 166.214 130.047C167.24 132.393 167.787 134.921 167.823 137.481C167.794 142.772 165.76 147.855 162.131 151.705C160.419 153.503 158.36 154.935 156.078 155.914C153.797 156.892 151.34 157.397 148.857 157.397C146.374 157.397 143.917 156.892 141.636 155.914C139.354 154.935 137.295 153.503 135.583 151.705C133.62 150.021 132.027 147.949 130.907 145.618C129.786 143.288 129.161 140.75 129.072 138.165C128.983 135.58 129.431 133.005 130.389 130.603C131.347 128.201 132.792 126.023 134.635 124.209Z" fill="currentColor"/></svg>
