<svg width="512" height="512" viewBox="0 0 512 512" fill="none" xmlns="http://www.w3.org/2000/svg"><path fill-rule="evenodd" clip-rule="evenodd" d="M228.441 251.402C229.226 252.157 229.805 253.103 230.12 254.146C230.435 255.19 230.477 256.297 230.241 257.362L223.681 287.522L252.641 269.762C253.649 269.134 254.813 268.802 256.001 268.802C257.188 268.802 258.352 269.134 259.361 269.762L288.001 287.482L281.601 257.282C281.387 256.223 281.44 255.128 281.754 254.094C282.068 253.061 282.634 252.122 283.401 251.362L309.241 226.082L275.681 221.202C274.644 221.067 273.657 220.675 272.811 220.06C271.966 219.445 271.288 218.627 270.841 217.682L256.001 187.202L240.761 217.762C240.293 218.68 239.614 219.474 238.779 220.079C237.945 220.684 236.979 221.082 235.961 221.242L202.321 226.162L228.441 251.402ZM208.001 299.442L217.001 258.122L184.041 226.122C183.185 225.29 182.579 224.236 182.291 223.078C182.003 221.92 182.044 220.704 182.41 219.569C182.776 218.433 183.452 217.422 184.363 216.65C185.273 215.879 186.38 215.377 187.561 215.202L230.721 208.882L250.281 169.722C250.794 168.658 251.612 167.77 252.63 167.172C253.649 166.574 254.822 166.292 256.001 166.362C257.19 166.369 258.354 166.706 259.363 167.334C260.373 167.962 261.189 168.858 261.721 169.922L280.801 209.042L324.001 215.282C325.176 215.456 326.28 215.955 327.188 216.721C328.096 217.488 328.773 218.492 329.142 219.622C329.512 220.751 329.56 221.961 329.28 223.116C329.001 224.271 328.406 225.326 327.561 226.162L295.001 258.162L303.721 299.482C303.971 300.708 303.859 301.98 303.397 303.144C302.936 304.307 302.146 305.311 301.123 306.032C300.1 306.753 298.89 307.161 297.639 307.205C296.388 307.25 295.152 306.929 294.081 306.282L256.001 282.722L217.601 306.242C216.592 306.867 215.428 307.199 214.241 307.202C212.918 307.202 211.629 306.782 210.561 306.002C209.531 305.285 208.738 304.279 208.282 303.111C207.827 301.943 207.729 300.666 208.001 299.442ZM89.6008 134.522H422.401V102.522H89.6008V134.522ZM435.201 96.0016V416.002C435.201 417.699 434.526 419.327 433.326 420.527C432.126 421.727 430.498 422.402 428.801 422.402H390.401V409.602H422.401V147.362H89.6008V409.602H332.801V422.402H83.2008C81.5034 422.402 79.8755 421.727 78.6753 420.527C77.4751 419.327 76.8008 417.699 76.8008 416.002V96.0016C76.8008 94.3042 77.4751 92.6763 78.6753 91.4761C79.8755 90.2758 81.5034 89.6016 83.2008 89.6016H428.801C430.498 89.6016 432.126 90.2758 433.326 91.4761C434.526 92.6763 435.201 94.3042 435.201 96.0016ZM153.601 377.602H192.001V364.802H153.601V377.602ZM217.601 377.602H307.201V364.802H217.601V377.602ZM153.601 345.602H192.001V332.802H153.601V345.602ZM217.601 345.602H358.401V332.802H217.601V345.602Z" fill="currentColor"/></svg>
