<svg width="512" height="512" viewBox="0 0 512 512" fill="none" xmlns="http://www.w3.org/2000/svg"><path fill-rule="evenodd" clip-rule="evenodd" d="M264.668 77.72V434.314L202.626 469.335L98.0638 410.272V339.762L40.668 307.355V203.251L98.0638 170.855V101.73L202.626 42.668L264.668 77.72ZM157.314 79.1471V142.012H147.98V84.5117L107.366 107.439V170.918L151.074 195.616L194.783 170.918V108.147H204.116V176.553L155.762 203.866V244.387L201.73 270.335L197.21 278.689L151.105 252.637L117.491 271.626L112.98 263.272L146.46 244.355V203.835L102.751 179.137L50.0326 208.897V247.918L91.4909 224.512L96.0013 232.876L50.0326 258.824V301.72L102.751 331.47L148.845 305.418L153.366 313.772L107.397 339.72V404.637L151.105 429.324L197.21 403.272L201.73 411.626L160.741 434.762L202.595 458.376L255.303 428.647V306.605L147.22 367.647L142.699 359.293L255.303 295.71V83.3242L202.585 53.5742L157.314 79.1471Z" fill="currentColor"/><path fill-rule="evenodd" clip-rule="evenodd" d="M341.543 335.001V381.939C355.535 384.146 366.302 396.2 366.303 410.803C366.303 426.97 353.126 440.147 336.96 440.147C320.795 440.145 307.616 427.003 307.616 410.803C307.617 396.201 318.385 384.147 332.376 381.939V344.137H265.637V335.001H341.543ZM336.96 390.595C325.822 390.597 316.753 399.666 316.751 410.803C316.751 421.942 325.821 431.01 336.96 431.012C348.1 431.012 357.168 421.943 357.168 410.803C357.167 399.665 348.099 390.595 336.96 390.595Z" fill="currentColor"/><path fill-rule="evenodd" clip-rule="evenodd" d="M400.105 306.741C404.52 304.093 409.615 302.46 415.116 302.46L415.147 302.501C431.314 302.501 444.491 315.679 444.491 331.845C444.49 348.01 431.313 361.189 415.147 361.189C398.982 361.188 385.805 348.01 385.803 331.845C385.803 324.477 388.624 317.82 393.105 312.658L371.98 291.533H265.71V282.397H375.751L400.105 306.741ZM415.116 311.605C403.976 311.605 394.908 320.674 394.908 331.814C394.91 342.951 403.978 352.012 415.116 352.012C426.254 352.011 435.321 342.951 435.324 331.814C435.324 320.674 426.256 311.606 415.116 311.605Z" fill="currentColor"/><path fill-rule="evenodd" clip-rule="evenodd" d="M442.012 203.22C458.178 203.22 471.355 216.397 471.355 232.564C471.353 248.728 458.177 261.908 442.012 261.908C427.409 261.907 415.356 251.138 413.147 237.147H265.678V228.012H413.147C415.355 213.985 427.408 203.221 442.012 203.22ZM442.012 212.355C430.872 212.356 421.803 221.424 421.803 232.564C421.806 243.701 430.874 252.772 442.012 252.772C453.15 252.772 462.218 243.702 462.22 232.564C462.22 221.424 453.152 212.355 442.012 212.355Z" fill="currentColor"/><path fill-rule="evenodd" clip-rule="evenodd" d="M358.46 69.6992C374.626 69.6992 387.803 82.8764 387.803 99.043C387.803 113.646 377.035 125.7 363.043 127.908H363.012V179.23H265.637V170.095H353.876V127.908C339.884 125.7 329.117 113.646 329.116 99.043C329.116 82.8771 342.294 69.7003 358.46 69.6992ZM358.491 78.8346C347.353 78.8372 338.283 87.9046 338.283 99.043C338.283 110.181 347.354 119.249 358.491 119.251C369.63 119.251 378.698 110.182 378.699 99.043C378.699 87.903 369.631 78.8346 358.491 78.8346Z" fill="currentColor"/></svg>
