<svg width="512" height="512" viewBox="0 0 512 512" fill="none" xmlns="http://www.w3.org/2000/svg"><path d="M162.002 337.443H187.068V324.897H162.002V337.443ZM381.153 244.492C379.744 225.46 370.438 211.447 355.654 206.497C343.754 202.527 330.644 205.331 320.661 213.466C314.608 201.529 305.509 189.836 298.001 182.428C271.079 155.857 241.388 149.082 209.729 162.286C181.466 174.048 155.735 212.682 155.735 243.351V244.542C138.771 250.275 125.085 262.733 118.599 278.616L130.204 283.359C138.471 263.116 157.816 256.768 163.55 255.306C166.326 254.597 168.268 252.095 168.268 249.228V243.351C168.268 218.002 191.186 183.589 214.548 173.866C241.463 162.644 265.89 168.339 289.202 191.361C299.116 201.14 308.811 215.649 312.778 226.658C313.555 228.829 315.46 230.391 317.741 230.736C319.997 231.081 322.284 230.146 323.675 228.302C330.6 219.093 341.83 215.104 351.688 218.397C362.56 222.041 368.802 233.42 368.802 249.623C368.802 252.691 371.021 255.306 374.041 255.808C378.634 256.573 418.935 264.471 418.935 306.079C418.935 349.173 376.83 349.976 375.069 349.989H230.935V362.535H375.081C394.583 362.497 431.469 350.654 431.469 306.079C431.469 267.181 401.883 249.667 381.153 244.492ZM199.602 337.443H287.335V324.897H199.602V337.443ZM174.535 362.535H212.135V349.989H174.535V362.535ZM80.5352 362.535H99.3352V349.989H80.5352V362.535ZM99.3352 312.352H155.735V299.806H99.3352V312.352ZM86.8018 337.443H149.468V324.897H86.8018V337.443ZM174.535 312.352H218.402V299.806H174.535V312.352ZM111.868 362.535H162.002V349.989H111.868V362.535Z" fill="currentColor"/></svg>
