<svg width="512" height="512" viewBox="0 0 512 512" fill="none" xmlns="http://www.w3.org/2000/svg"><path d="M299.749 338.165L321.592 341.436L319.551 355.092L310.811 353.79C314.411 358.381 319.252 361.845 324.759 363.77C330.266 365.693 336.209 365.994 341.884 364.645C347.558 363.294 352.73 360.352 356.78 356.155C360.831 351.957 363.592 346.677 364.738 340.957L378.124 343.53C376.47 351.684 372.547 359.211 366.811 365.238C361.076 371.265 353.758 375.558 345.697 377.613C337.635 379.668 329.159 379.398 321.238 376.853C313.317 374.307 306.271 369.584 300.915 363.217L299.405 368.947L286.165 365.405L292.103 343.145C292.538 341.516 293.566 340.106 294.978 339.186C296.388 338.268 298.086 337.907 299.749 338.165Z" fill="currentColor"/><path d="M324.363 291.457C332.677 289.584 341.354 290.152 349.353 293.092C357.353 296.034 364.337 301.226 369.457 308.04L373.207 300.384L385.842 305.78L376.957 326.822C376.437 328.055 375.562 329.113 374.447 329.853C373.332 330.591 372.023 330.979 370.686 330.978H369.926L347.197 328.582L348.634 314.926L359.009 316.02C355.47 311.244 350.616 307.601 345.04 305.54C339.465 303.48 333.407 303.089 327.613 304.415C321.82 305.742 316.539 308.729 312.415 313.009C308.291 317.289 305.505 322.681 304.395 328.52L290.738 325.78C292.439 317.429 296.515 309.744 302.478 303.655C308.442 297.565 316.048 293.332 324.363 291.457Z" fill="currentColor"/><path fill-rule="evenodd" clip-rule="evenodd" d="M351.436 242.332C352.369 242.326 353.297 242.517 354.155 242.884C355.011 243.251 355.786 243.79 356.426 244.467C357.064 245.145 357.557 245.946 357.874 246.822C358.19 247.7 358.319 248.64 358.259 249.572L357.78 258.165C362.698 259.672 367.463 261.659 371.988 264.103L377.686 257.624C378.301 256.92 379.05 256.346 379.895 255.947C380.74 255.547 381.668 255.329 382.603 255.301C384.484 255.322 386.291 256.058 387.655 257.353L411.613 281.311C412.272 281.972 412.783 282.765 413.124 283.634C413.464 284.503 413.627 285.431 413.592 286.363C413.588 287.284 413.386 288.195 412.999 289.03C412.61 289.865 412.044 290.61 411.342 291.207L404.936 297.009C407.34 301.544 409.31 306.299 410.811 311.207L419.415 310.728C420.349 310.669 421.285 310.807 422.165 311.124C423.046 311.441 423.858 311.93 424.54 312.572C425.27 313.187 425.862 313.953 426.28 314.811C426.698 315.669 426.933 316.608 426.967 317.561V351.676C426.973 352.609 426.782 353.537 426.415 354.395C426.049 355.252 425.51 356.025 424.832 356.665C424.153 357.306 423.345 357.797 422.467 358.113C421.59 358.43 420.659 358.569 419.728 358.509L411.124 358.03C409.611 362.956 407.65 367.736 405.259 372.301L411.655 378.03C412.357 378.627 412.923 379.371 413.311 380.207C413.7 381.044 413.901 381.961 413.905 382.884C413.939 383.816 413.787 384.745 413.447 385.613C413.106 386.482 412.585 387.275 411.926 387.936L387.967 411.895C386.612 413.204 384.8 413.933 382.915 413.936C381.981 413.906 381.063 413.689 380.217 413.29C379.373 412.892 378.616 412.325 377.999 411.624L372.332 405.217C367.783 407.657 363.007 409.645 358.072 411.155L358.54 419.697C358.599 420.626 358.471 421.56 358.155 422.436C357.839 423.312 357.345 424.113 356.707 424.79C356.067 425.468 355.293 426.017 354.436 426.384C353.579 426.751 352.65 426.931 351.717 426.926H317.165C315.359 426.815 313.667 425.988 312.467 424.634C311.271 423.281 310.653 421.51 310.759 419.707L311.249 411.176C306.31 409.667 301.528 407.67 296.978 405.228L291.238 411.634C290.63 412.338 289.881 412.912 289.04 413.311C288.2 413.71 287.283 413.921 286.353 413.947C285.422 413.972 284.496 413.809 283.634 413.457C282.772 413.104 281.989 412.576 281.342 411.905L257.384 387.947C256.712 387.3 256.175 386.518 255.822 385.655C255.469 384.793 255.307 383.867 255.332 382.936C255.358 382.004 255.577 381.08 255.978 380.238C256.378 379.398 256.949 378.647 257.655 378.04L264.051 372.311C261.609 367.762 259.621 362.978 258.113 358.04L249.582 358.52C248.649 358.585 247.713 358.457 246.832 358.145C245.95 357.831 245.14 357.337 244.457 356.697C243.774 356.057 243.223 355.286 242.853 354.426C242.483 353.565 242.295 352.633 242.301 351.697V317.561C242.295 316.63 242.487 315.709 242.853 314.853C243.22 313.995 243.757 313.212 244.436 312.572C245.115 311.932 245.924 311.44 246.801 311.124C247.678 310.808 248.61 310.679 249.54 310.738L258.145 311.217C259.645 306.31 261.606 301.554 264.009 297.02L257.613 291.207C256.907 290.6 256.336 289.85 255.936 289.009C255.536 288.168 255.316 287.252 255.29 286.322C255.265 285.391 255.427 284.465 255.78 283.603C256.133 282.74 256.66 281.957 257.332 281.311L281.02 257.353C281.666 256.682 282.449 256.153 283.311 255.801C284.173 255.449 285.1 255.276 286.03 255.301C286.962 255.327 287.886 255.546 288.728 255.947C289.569 256.347 290.318 256.919 290.926 257.624L296.728 264.03C301.263 261.625 306.017 259.655 310.926 258.155L310.447 249.551V249.134C310.453 247.326 311.174 245.586 312.457 244.311C313.739 243.037 315.482 242.328 317.29 242.332H351.436ZM325.228 263.353C325.266 264.93 324.75 266.473 323.78 267.717C322.809 268.962 321.435 269.839 319.895 270.186C312.649 271.896 305.731 274.777 299.415 278.717C298.05 279.579 296.421 279.932 294.822 279.707C293.222 279.482 291.751 278.694 290.676 277.488L286.04 272.29L272.384 285.936L277.582 290.582C278.788 291.657 279.576 293.128 279.801 294.728C280.025 296.327 279.673 297.956 278.811 299.322C274.807 305.604 271.921 312.534 270.28 319.801C269.933 321.34 269.065 322.715 267.822 323.686C266.577 324.658 265.025 325.161 263.447 325.124L256.624 324.728V344.249L263.447 343.842C265.025 343.803 266.577 344.309 267.822 345.28C269.066 346.25 269.933 347.626 270.28 349.165C271.929 356.43 274.815 363.358 278.811 369.645C279.673 371.01 280.024 372.639 279.801 374.238C279.576 375.838 278.787 377.308 277.582 378.384L272.384 382.957L286.02 396.613L290.592 391.415C291.668 390.211 293.139 389.422 294.738 389.197C296.338 388.972 297.966 389.325 299.332 390.186C305.635 394.166 312.557 397.066 319.811 398.78C321.348 399.13 322.717 400.005 323.686 401.249C324.655 402.493 325.161 404.037 325.124 405.613L324.728 412.436H344.874L344.53 405.613C344.49 404.044 344.989 402.502 345.947 401.259C346.904 400.017 348.264 399.141 349.79 398.78C357.05 397.084 363.975 394.182 370.27 390.186C371.635 389.325 373.264 388.972 374.863 389.197C376.463 389.421 377.933 390.211 379.009 391.415L383.582 396.613L397.238 382.978L392.04 378.405C390.834 377.33 390.046 375.86 389.822 374.259C389.597 372.659 389.948 371.031 390.811 369.665C394.796 363.373 397.681 356.447 399.342 349.186C399.687 347.644 400.556 346.263 401.801 345.29C403.046 344.318 404.597 343.814 406.176 343.853L412.999 344.249L412.436 324.665L405.613 325.072C404.035 325.11 402.493 324.594 401.249 323.624C400.005 322.654 399.128 321.287 398.78 319.749C397.112 312.492 394.239 305.559 390.27 299.259C389.41 297.895 389.057 296.273 389.28 294.676C389.505 293.076 390.294 291.606 391.499 290.53L396.697 285.884L383.04 272.228L378.405 277.488C377.329 278.694 375.859 279.482 374.259 279.707C372.66 279.932 371.031 279.579 369.665 278.717C363.379 274.721 356.45 271.836 349.186 270.186C347.661 269.824 346.308 268.94 345.353 267.697C344.398 266.453 343.893 264.92 343.936 263.353L344.28 256.53H324.822L325.228 263.353Z" fill="currentColor"/><path d="M378.884 85.332C380.693 85.3331 382.428 86.0528 383.707 87.332C384.986 88.6113 385.706 90.3459 385.707 92.1549V241.728C381.321 239.313 376.753 237.239 372.051 235.52V98.9883H98.9883V344.749H229.853C230.256 349.35 231.004 353.919 232.103 358.405H92.1549C90.347 358.404 88.6111 357.683 87.332 356.405C86.0515 355.124 85.332 353.383 85.332 351.572V92.1549C85.3334 90.3459 86.0527 88.6113 87.332 87.332C88.6113 86.0527 90.3459 85.3334 92.1549 85.332H378.884Z" fill="currentColor"/><path fill-rule="evenodd" clip-rule="evenodd" d="M249.155 112.624C250.966 112.624 252.708 113.343 253.988 114.624C255.266 115.903 255.987 117.639 255.988 119.447V221.853H262.811C264.621 221.853 266.354 222.573 267.634 223.853C268.914 225.133 269.634 226.866 269.634 228.676V251.342C265.232 254.821 261.126 258.658 257.353 262.811H255.988V264.655C250.702 270.567 246.116 277.071 242.332 284.04V263.155H228.676V317.749H230.936C230.192 322.263 229.755 326.821 229.634 331.395H221.853C220.042 331.395 218.3 330.685 217.02 329.405C215.739 328.124 215.02 326.383 215.02 324.572V263.134H208.197C207.3 263.134 206.41 262.956 205.582 262.613C204.756 262.271 204.006 261.766 203.374 261.134C202.74 260.5 202.237 259.743 201.895 258.915C201.552 258.087 201.373 257.197 201.374 256.301V228.999C201.373 228.103 201.552 227.212 201.895 226.384C202.237 225.557 202.741 224.809 203.374 224.176C204.007 223.543 204.755 223.04 205.582 222.697C206.41 222.353 207.3 222.176 208.197 222.176H215.02V119.426C215.027 117.619 215.749 115.888 217.03 114.613C218.311 113.339 220.045 112.622 221.853 112.624H249.155ZM215.02 249.155H255.988V235.499H215.02V249.155ZM228.676 221.853H242.332V126.28H228.676V221.853Z" fill="currentColor"/><path fill-rule="evenodd" clip-rule="evenodd" d="M160.415 112.624C161.309 112.624 162.193 112.803 163.02 113.145C163.848 113.488 164.605 113.99 165.238 114.624C165.872 115.258 166.375 116.014 166.717 116.842C167.059 117.668 167.238 118.553 167.238 119.447V167.238H174.061C175.872 167.238 177.614 167.958 178.895 169.238C180.173 170.518 180.894 172.252 180.895 174.061V201.374C180.894 202.27 180.717 203.161 180.374 203.988C180.031 204.814 179.527 205.564 178.895 206.197C178.26 206.83 177.504 207.333 176.676 207.676C175.847 208.018 174.958 208.197 174.061 208.197H167.238V324.249C167.238 326.059 166.518 327.802 165.238 329.082C163.96 330.36 162.223 331.071 160.415 331.072H133.103C132.207 331.072 131.316 330.904 130.488 330.561C129.662 330.219 128.913 329.714 128.28 329.082C127.646 328.448 127.134 327.691 126.79 326.863C126.448 326.036 126.28 325.144 126.28 324.249V208.197H119.447C118.553 208.196 117.669 208.017 116.842 207.676C116.014 207.333 115.258 206.83 114.624 206.197C113.991 205.564 113.488 204.814 113.145 203.988C112.802 203.161 112.624 202.27 112.624 201.374V174.061C112.624 172.252 113.345 170.518 114.624 169.238C115.903 167.959 117.638 167.24 119.447 167.238H126.28V119.447C126.281 117.638 127.001 115.903 128.28 114.624C129.56 113.345 131.293 112.624 133.103 112.624H160.415ZM139.936 317.426H153.582V208.197H139.936V317.426ZM126.28 194.54H167.238V180.895H126.28V194.54ZM139.936 167.238H153.582V126.28H139.936V167.238Z" fill="currentColor"/><path fill-rule="evenodd" clip-rule="evenodd" d="M337.905 112.624C339.714 112.624 341.448 113.345 342.728 114.624C344.007 115.903 344.727 117.638 344.728 119.447V146.759H351.551C353.362 146.759 355.104 147.479 356.384 148.759C357.663 150.039 358.384 151.773 358.384 153.582V180.895C358.384 181.79 358.206 182.682 357.863 183.509C357.52 184.335 357.017 185.085 356.384 185.717C355.75 186.351 354.994 186.854 354.165 187.197C353.338 187.539 352.446 187.718 351.551 187.717H344.728V229.155C341.531 228.823 338.317 228.664 335.103 228.676H331.072V187.717H317.426V230.176C312.799 230.92 308.231 232.02 303.77 233.457V187.717H296.947C296.05 187.718 295.16 187.539 294.332 187.197C293.504 186.854 292.747 186.351 292.113 185.717C291.481 185.085 290.977 184.335 290.634 183.509C290.291 182.682 290.114 181.79 290.113 180.895V153.582C290.114 151.773 290.835 150.039 292.113 148.759C293.394 147.479 295.136 146.759 296.947 146.759H303.77V119.447C303.77 118.553 303.949 117.668 304.29 116.842C304.633 116.014 305.136 115.258 305.77 114.624C306.403 113.99 307.16 113.488 307.988 113.145C308.814 112.803 309.698 112.624 310.592 112.624H337.905ZM303.77 174.061H344.728V160.415H303.77V174.061ZM317.426 146.759H331.072V126.28H317.426V146.759Z" fill="currentColor"/></svg>
