<svg xmlns="http://www.w3.org/2000/svg" viewBox="0 0 48 48"><path fill="currentColor" d="M42,17.33h-11.33v-2.23c0-.18.03-.35.1-.51s.17-.31.29-.43l1.89-1.89c.85.41,1.83.5,2.74.27.92-.24,1.72-.79,2.27-1.57.55-.77.8-1.72.72-2.66-.08-.94-.49-1.83-1.16-2.5-.67-.67-1.56-1.08-2.5-1.16-.94-.08-1.89.18-2.66.72-.77.55-1.33,1.35-1.57,2.27-.24.92-.14,1.89.27,2.74l-1.89,1.89c-.37.37-.67.81-.87,1.3-.2.49-.3,1.01-.3,1.53v2.23h-2.67v-8.9c.89-.31,1.64-.93,2.12-1.75.48-.81.65-1.77.49-2.7s-.64-1.77-1.36-2.38c-.72-.61-1.63-.94-2.58-.94s-1.86.33-2.58.94c-.72.61-1.2,1.45-1.36,2.38-.16.93.01,1.89.49,2.7.48.81,1.23,1.43,2.12,1.75v8.9h-2.67v-2.23c0-.53-.1-1.05-.3-1.53-.2-.49-.5-.93-.87-1.3l-1.89-1.89c.41-.85.5-1.83.27-2.74-.24-.92-.79-1.72-1.57-2.27-.77-.55-1.72-.8-2.66-.72-.94.08-1.83.49-2.5,1.16-.67.67-1.08,1.56-1.16,2.5-.08.94.18,1.89.72,2.66.55.77,1.35,1.33,2.27,1.57.92.24,1.89.14,2.74-.27l1.89,1.89c.12.12.22.27.29.43.07.16.1.34.1.51v2.23H6c-1.06,0-2.08.42-2.83,1.17-.75.75-1.17,1.77-1.17,2.83v5.33c0,1.06.42,2.08,1.17,2.83.75.75,1.77,1.17,2.83,1.17h11.33v2.23c0,.18-.03.35-.1.51-.07.16-.17.31-.29.43l-1.89,1.89c-.85-.41-1.83-.5-2.74-.27-.92.24-1.72.79-2.27,1.57-.55.77-.8,1.72-.72,2.66.08.94.49,1.83,1.16,2.5.67.67,1.56,1.08,2.5,1.16.94.08,1.89-.18,2.66-.72.77-.55,1.33-1.35,1.57-2.27.24-.92.14-1.89-.27-2.74l1.89-1.89c.37-.37.67-.81.87-1.3s.3-1.01.3-1.53v-2.23h2.67v8.9c-.89.31-1.64.93-2.12,1.75-.48.81-.65,1.77-.49,2.7.16.93.64,1.77,1.36,2.38.72.61,1.63.94,2.58.94s1.86-.33,2.58-.94c.72-.61,1.2-1.45,1.36-2.38.16-.93-.01-1.89-.49-2.7-.48-.81-1.23-1.43-2.12-1.75v-8.9h2.67v2.23c0,.53.1,1.05.3,1.53.2.49.5.93.87,1.3l1.89,1.89c-.41.85-.5,1.83-.27,2.74.24.92.79,1.72,1.57,2.27.77.55,1.72.8,2.66.72.94-.08,1.83-.49,2.5-1.16.67-.67,1.08-1.56,1.16-2.5.08-.94-.18-1.89-.72-2.66-.55-.77-1.35-1.33-2.27-1.57-.92-.24-1.89-.14-2.74.27l-1.89-1.89c-.12-.12-.22-.27-.29-.43-.07-.16-.1-.34-.1-.51v-2.23h11.33c1.06,0,2.08-.42,2.83-1.17.75-.75,1.17-1.77,1.17-2.83v-5.33c0-1.06-.42-2.08-1.17-2.83-.75-.75-1.77-1.17-2.83-1.17ZM34.67,7.33c.26,0,.52.08.74.22.22.15.39.35.49.6.1.24.13.51.08.77-.05.26-.18.5-.36.68-.19.19-.42.31-.68.37-.26.05-.53.03-.77-.08-.24-.1-.45-.27-.6-.49-.15-.22-.22-.48-.22-.74,0-.35.14-.69.39-.94.25-.25.59-.39.94-.39ZM13.33,10c-.26,0-.52-.08-.74-.22-.22-.15-.39-.35-.49-.6-.1-.24-.13-.51-.08-.77.05-.26.18-.5.37-.68.19-.19.42-.31.68-.37.26-.05.53-.02.77.08.24.1.45.27.6.49.15.22.22.48.22.74,0,.35-.14.69-.39.94-.25.25-.59.39-.94.39ZM13.33,40.66c-.26,0-.52-.08-.74-.22-.22-.15-.39-.35-.49-.6-.1-.24-.13-.51-.08-.77.05-.26.18-.5.37-.68.19-.19.43-.31.68-.36.26-.05.53-.02.77.08.24.1.45.27.6.49s.22.48.22.74c0,.35-.14.69-.39.94-.25.25-.59.39-.94.39h0ZM34.67,38c.26,0,.52.08.74.22.22.15.39.35.49.6.1.24.13.51.08.77-.05.26-.18.5-.37.68-.19.19-.42.31-.68.37-.26.05-.53.02-.77-.08-.24-.1-.45-.27-.6-.49-.15-.22-.22-.48-.22-.74,0-.35.14-.69.39-.94s.59-.39.94-.39ZM24,3.33c.26,0,.52.08.74.22.22.15.39.35.49.6.1.24.13.51.08.77-.05.26-.18.5-.36.68-.19.19-.42.31-.68.36-.26.05-.53.03-.77-.08-.24-.1-.45-.27-.6-.49-.15-.22-.22-.48-.22-.74,0-.35.14-.69.39-.94.25-.25.59-.39.94-.39ZM24,44.67c-.26,0-.52-.08-.74-.22-.22-.15-.39-.35-.49-.6-.1-.24-.13-.51-.08-.77.05-.26.18-.5.36-.68.19-.19.42-.31.68-.36.26-.05.53-.03.77.08.24.1.45.27.6.49.15.22.22.48.22.74,0,.35-.14.69-.39.94-.25.25-.59.39-.94.39ZM43.33,26.67c0,.35-.14.69-.39.94-.25.25-.59.39-.94.39H6c-.35,0-.69-.14-.94-.39-.25-.25-.39-.59-.39-.94v-5.33c0-.35.14-.69.39-.94.25-.25.59-.39.94-.39h36c.35,0,.69.14.94.39.25.25.39.59.39.94v5.33ZM39.33,22.67c-.26,0-.52.08-.74.22-.22.15-.39.35-.49.6-.1.24-.13.51-.08.77.05.26.18.5.36.68.19.19.42.31.68.36.26.05.53.03.77-.08.24-.1.45-.27.6-.49.15-.22.22-.48.22-.74,0-.35-.14-.69-.39-.94-.25-.25-.59-.39-.94-.39ZM31.33,22.67c-.26,0-.52.08-.74.22-.22.15-.39.35-.49.6s-.13.51-.08.77c.05.26.18.5.36.68.19.19.42.31.68.36.26.05.53.03.77-.08.24-.1.45-.27.6-.49.15-.22.22-.48.22-.74,0-.35-.14-.69-.39-.94-.25-.25-.59-.39-.94-.39ZM35.33,22.67c-.26,0-.52.08-.74.22-.22.15-.39.35-.49.6-.1.24-.13.51-.08.77.05.26.18.5.36.68.19.19.42.31.68.36.26.05.53.03.77-.08.24-.1.45-.27.6-.49.15-.22.22-.48.22-.74,0-.35-.14-.69-.39-.94-.25-.25-.59-.39-.94-.39Z"/></svg>