<svg xmlns="http://www.w3.org/2000/svg" viewBox="0 0 48 48"><path fill="currentColor" d="M45.9,13.4c0-3.1-2.5-5.6-5.6-5.6s-5.6,2.5-5.6,5.6,1.5,4.4,3.7,5.2v3.3h-10.1v-3.2c2.1-.8,3.7-2.8,3.7-5.2s-2.5-5.6-5.6-5.6-5.6,2.5-5.6,5.6,1.5,4.4,3.7,5.2v3.2H14.3v-3.2c2.1-.8,3.7-2.8,3.7-5.2s-2.5-5.6-5.6-5.6-5.6,2.5-5.6,5.6,1.5,4.4,3.7,5.2v3.2H5.8v7.5c-2.1,.8-3.7,2.8-3.7,5.2s2.5,5.6,5.6,5.6,5.6-2.5,5.6-5.6-1.5-4.4-3.7-5.2v-3.7h10.1v3.7c-2.1,.8-3.7,2.8-3.7,5.2s2.5,5.6,5.6,5.6,5.6-2.5,5.6-5.6-1.5-4.4-3.7-5.2v-3.7h10.2v3.7c-2.1,.8-3.7,2.8-3.7,5.2s2.5,5.6,5.6,5.6,5.6-2.5,5.6-5.6-1.5-4.4-3.7-5.2v-3.7h4.7v-7.1c2.1-.8,3.7-2.8,3.7-5.2Zm-19.5-1.7c1,0,1.8,.8,1.8,1.8s-.8,1.8-1.8,1.8-1.8-.8-1.8-1.8,.8-1.8,1.8-1.8Zm-14,0c1,0,1.8,.8,1.8,1.8s-.8,1.8-1.8,1.8-1.8-.8-1.8-1.8,.8-1.8,1.8-1.8Zm-4.7,24.7c-1,0-1.8-.8-1.8-1.8s.8-1.8,1.8-1.8,1.8,.8,1.8,1.8-.8,1.8-1.8,1.8Zm14,0c-1,0-1.8-.8-1.8-1.8s.8-1.8,1.8-1.8,1.8,.8,1.8,1.8-.8,1.8-1.8,1.8Zm14,0c-1,0-1.8-.8-1.8-1.8s.8-1.8,1.8-1.8,1.8,.8,1.8,1.8-.8,1.8-1.8,1.8Zm4.7-24.7c1,0,1.8,.8,1.8,1.8s-.8,1.8-1.8,1.8-1.8-.8-1.8-1.8,.8-1.8,1.8-1.8Z"/></svg>