<svg xmlns="http://www.w3.org/2000/svg" viewBox="0 0 16 16"><path fill="currentColor" d="M8 16V13.3333C5.0547 13.3333 2.66667 10.9453 2.66667 8C2.66667 5.0543 5.0547 2.66667 8 2.66667V0H6.3263V1.55367C5.589 1.74467 4.8983 2.05167 4.2833 2.46533L3.2857 1.46733L1.40033 3.353L2.41433 4.367C2.02667 4.9617 1.73567 5.6223 1.55333 6.328H0V9.672H1.55333C1.74 10.3933 2.03933 11.0693 2.44 11.6747L1.40067 12.7143L3.286 14.5993L4.3257 13.56C4.932 13.9617 5.61 14.2613 6.3333 14.448V16H8Z M8 9.6667C7.0793 9.6667 6.3333 8.9207 6.3333 8C6.3333 7.0797 7.0793 6.3333 8 6.3333V5C6.343 5 5 6.343 5 8C5 9.657 6.343 11 8 11V9.6667Z M12.072 16V12.3763C14.3954 11.233 15.9994 8.849 15.9994 6.0843C15.9994 3.4787 14.5757 1.20967 12.4667 0V5.9137L8.9844 8.9673V16H12.072Z"/></svg>