<svg xmlns="http://www.w3.org/2000/svg" viewBox="0 0 48 48"><path fill="currentColor" d="M44.2,33h-3.1v-2.9c0-3.8-1.9-5.8-5.5-5.8h-5.3v-2.5c0-1-.8-1.8-1.8-1.8h-2.7v-4.9h3.4c1,0,1.8-.8,1.8-1.8V4c0-1-.8-1.8-1.8-1.8h-10.2c-1,0-1.8,.8-1.8,1.8V13.3c0,1,.8,1.8,1.8,1.8h3.3v4.9h-2.5c-1,0-1.8,.8-1.8,1.8v2.5h-5.4c-3.7,0-5.5,1.9-5.5,5.8v2.9H3.8c-1,0-1.8,.8-1.8,1.8v9.2c0,1,.8,1.8,1.8,1.8H14c1,0,1.8-.8,1.8-1.8v-9.2c0-1-.8-1.8-1.8-1.8h-3.3v-2.9c0-2,.4-2.2,2-2.2h5.4v1.7c0,1,.8,1.8,1.8,1.8h8.6c1,0,1.8-.8,1.8-1.8v-1.7h5.3c1.6,0,2,.2,2,2.2v2.9h-3.6c-1,0-1.8,.8-1.8,1.8v9.2c0,1,.8,1.8,1.8,1.8h10.2c1,0,1.8-.8,1.8-1.8v-9.2c0-1-.8-1.8-1.8-1.8Zm-32,3.5v5.7H5.5v-5.7h6.7ZM20.8,11.5V5.8h6.7v5.7h-6.7Zm6,16.2h-5.1v-4.3h5.1v4.3Zm15.7,14.4h-6.7v-5.7h6.7v5.7Z"/></svg>