<svg xmlns="http://www.w3.org/2000/svg" viewBox="0 0 48 48"><path fill="currentColor" d="M18.8,22.7h2c.2,0,.4-.2,.4-.4v-3.2c0-1.6,1.3-2.9,2.9-2.9s2.9,1.3,2.9,2.9v3.2c0,.2,.2,.4,.4,.4h2c.2,0,.4-.2,.4-.4v-3.2c0-3.1-2.5-5.6-5.6-5.6h0c-3.1,0-5.6,2.5-5.6,5.6v3.2c0,.2,.2,.4,.4,.4h-.2Zm-3-4.2l-2.1-2.1h-.2c-.1,0-.4,0-.5,.1-4.2,4.2-4.1,11.1,0,15.3,0,0,.2,.1,.3,.1s.2,0,.3-.1l2.1-2.1c.2-.2,.2-.4,0-.6-2.7-2.7-2.7-7.2,0-10,.2-.2,.2-.4,0-.6h.1Zm-5.2-3.6s.1-.2,.1-.3,0-.2-.1-.3l-2.1-2.1c-.1-.1-.4-.1-.6,0-6.5,6.5-6.5,17.2,0,23.7h.6l2.1-2.1c.2-.2,.2-.4,0-.6-5.1-5.1-5.1-13.3,0-18.4h0Zm21.7,3.7c-.2,.2-.2,.4,0,.6,2.7,2.8,2.7,7.3,0,10-.2,.2-.2,.4,0,.6l2.1,2.1c.1,.1,.2,.1,.3,.1s.3-.1,.3-.1c4.1-4.2,4.2-11.1,0-15.3-.1-.1-.4-.1-.5-.1h-.2l-2.1,2.1h.1Zm5.1-3.7h0c5.1,5.1,5.1,13.3,0,18.4-.2,.2-.2,.4,0,.6l2.1,2.1h.6c6.5-6.5,6.5-17.2,0-23.7-.2-.1-.5-.1-.6,0l-2.1,2.1c-.1,.1-.1,.2-.1,.3s.1,.3,.1,.3h0Zm-14.4,13.8h2.2v-8.4h-2.2v8.4Zm6.3-2.7h-2c-.2,0-.4,.2-.4,.4v3.2c0,1.6-1.3,2.9-2.9,2.9s-2.9-1.3-2.9-2.9v-3.2c0-.2-.2-.4-.4-.4h-2c-.2,0-.4,.2-.4,.4v3.2c0,3.1,2.5,5.6,5.6,5.6s5.6-2.5,5.7-5.6v-3.2c0-.2-.2-.4-.4-.4h0Z"/></svg>