<svg xmlns="http://www.w3.org/2000/svg" viewBox="0 0 48 48"><path fill="currentColor" d="M10.9,27.8c0,.7,.6,1.3,1.3,1.3s1.3-.6,1.3-1.3-.6-1.3-1.3-1.3-1.3,.6-1.3,1.3Zm-3.1-7.7v-3.1c0-.7,.5-1.2,1.2-1.2H43.4l-.5-1c0-.1,0-.2-.1-.3,0,0,0-.1,0-.2l-4.8-7.7c-.9-1.5-2.5-2.4-4.2-2.4H13.8c-1.7,0-3.3,.9-4.2,2.4l-4.9,7.8v.2h0c-.4,.7-.6,1.6-.6,2.4v3.1c0,.8,.2,1.6,.6,2.3,.2,.3,.3,.6,.5,.8-.2,.3-.4,.5-.5,.8-.4,.7-.6,1.5-.6,2.3v3.1c0,.8,.2,1.6,.6,2.3,.2,.3,.3,.6,.5,.8-.2,.3-.4,.5-.5,.8-.4,.7-.6,1.5-.6,2.3v3.1c0,2.8,2.2,5,5,5h7.4v-3.8h-7.4c-.7,0-1.2-.5-1.2-1.2v-3.1c0-.7,.5-1.2,1.2-1.2h7.4v-3.8h-7.4c-.7,0-1.2-.5-1.2-1.2v-3.1c0-.7,.5-1.2,1.2-1.2h7.4v-3.8h-7.4c-.7,0-1.2-.5-1.2-1.2Zm5-11.5h0c.2-.4,.6-.6,1-.6h19.8c.4,0,.8,.2,1,.6l2.1,3.4H10.7l2.1-3.4Zm29.3,9.9h-14.5c-1.1,0-1.9,.9-1.9,1.9v4.9h-4.7c-1.1,0-1.9,.9-1.9,1.9v14.5c0,1.1,.9,1.9,1.9,1.9h14.5c1.1,0,1.9-.9,1.9-1.9v-4.9h4.7c1.1,0,1.9-.9,1.9-1.9v-14.5c0-1.1-.9-1.9-1.9-1.9Zm-8.6,21.4h-10.7v-10.7h2.8v5.8c0,1.1,.9,1.9,1.9,1.9h6v3Zm0-6.8h-4v-3.8h4v3.8Zm6.6,0h-2.8v-5.8c0-1.1-.9-1.9-1.9-1.9h-6v-3h10.7v10.7ZM10.9,18.5c0,.7,.6,1.3,1.3,1.3s1.3-.6,1.3-1.3-.6-1.3-1.3-1.3-1.3,.6-1.3,1.3Zm0,18.7c0,.7,.6,1.3,1.3,1.3s1.3-.6,1.3-1.3-.6-1.3-1.3-1.3-1.3,.6-1.3,1.3Z"/></svg>