<svg xmlns="http://www.w3.org/2000/svg" viewBox="0 0 48 48"><path fill="currentColor" d="M39.88,17.34v-.18c-.1-.21-.22-.39-.38-.56L27.5,4.6c-.17-.16-.35-.28-.56-.38h-.18l-.64-.22H14c-1.59,0-3.12,.63-4.24,1.76-1.13,1.13-1.76,2.65-1.76,4.24v28c0,1.59,.63,3.12,1.76,4.24,1.13,1.13,2.65,1.76,4.24,1.76h20c1.59,0,3.12-.63,4.24-1.76,1.13-1.13,1.76-2.65,1.76-4.24V17.88c-.02-.18-.06-.36-.12-.54Zm-11.88-6.52l5.18,5.18h-5.18v-5.18Zm8,27.18c0,.53-.21,1.04-.59,1.41-.38,.38-.88,.59-1.41,.59H14c-.53,0-1.04-.21-1.41-.59-.38-.38-.59-.88-.59-1.41V10c0-.53,.21-1.04,.59-1.41,.38-.38,.88-.59,1.41-.59h10v10c0,.53,.21,1.04,.59,1.41,.38,.38,.88,.59,1.41,.59h10v18Zm-6.87-1.77h3.69v-13.16h-5.54v3.31h1.85v9.85Zm-9.21-13.43c-3.78,0-5.22,2.77-5.22,6.66s1.44,6.7,5.22,6.7,5.24-2.75,5.24-6.7-1.46-6.66-5.24-6.66Zm0,10.03c-1.57,0-1.75-1.49-1.75-3.37s.18-3.33,1.75-3.33,1.75,1.51,1.75,3.33-.18,3.37-1.75,3.37Z"/></svg>