<svg xmlns="http://www.w3.org/2000/svg" viewBox="0 0 48 48"><path fill="currentColor" d="M17.24,2c-2.8,0-5.31,1.56-6.56,4.05L2.52,22.39c-.34.67-.52,1.43-.52,2.19v14.09c0,4.04,3.29,7.33,7.33,7.33h29.33c4.04,0,7.33-3.29,7.33-7.33v-14.09c0-.75-.18-1.51-.52-2.19l-8.17-16.34c-1.25-2.5-3.76-4.05-6.56-4.05h-13.51ZM41.11,26.44v12.22c0,1.35-1.1,2.44-2.44,2.44H9.33c-1.35,0-2.44-1.1-2.44-2.44v-12.22h34.22ZM33.78,31.33c-1.34,0-2.44,1.1-2.44,2.44s1.1,2.44,2.44,2.44,2.44-1.1,2.44-2.44-1.1-2.44-2.44-2.44ZM14.22,31.33c-1.34,0-2.44,1.1-2.44,2.44s1.1,2.44,2.44,2.44h9.78c1.34,0,2.44-1.1,2.44-2.44s-1.1-2.44-2.44-2.44h-9.78ZM30.76,6.89c.93,0,1.77.52,2.19,1.35l6.66,13.32H8.4l6.66-13.32c.42-.83,1.26-1.35,2.19-1.35h13.51Z"/></svg>