<svg xmlns="http://www.w3.org/2000/svg" viewBox="0 0 48 48"><path fill="currentColor" d="M24,5.69c-3.34,0-20,.3-20,6.14,0,.38,.07,.73,.2,1.06l5.85,24.98c.42,4,9.84,4.44,13.94,4.44s13.53-.44,13.95-4.44l5.85-24.98c.13-.33,.2-.68,.2-1.06,0-5.84-16.66-6.14-20-6.14Zm10.28,31.33c-.93,.59-4.53,1.52-10.28,1.52s-9.34-.93-10.27-1.52l-4.89-20.87c5.19,1.69,12.99,1.82,15.16,1.82s9.98-.13,15.17-1.82l-4.89,20.87ZM24,14.19c-6.13,0-10.63-.69-13.35-1.43-.12-.03-.23-.06-.34-.1-.09-.03-.18-.05-.27-.08-.84-.26-1.47-.52-1.88-.75,1.7-.97,7.14-2.37,15.83-2.37s14.12,1.39,15.83,2.37c-1.7,.97-7.14,2.36-15.83,2.36Z"/></svg>