<svg xmlns="http://www.w3.org/2000/svg" viewBox="0 0 48 48"><path fill="currentColor" d="M40.97,27.88l-.68,.4c-.46,.27-.79,.71-.92,1.22-.13,.51-.05,1.06,.22,1.51,.18,.3,.43,.55,.73,.72,.3,.17,.64,.26,.99,.26,.36,0,.71-.1,1.02-.28l.68-.4c.4-.29,.68-.72,.78-1.2,.1-.48,.02-.99-.23-1.42-.25-.43-.65-.75-1.12-.9-.47-.15-.98-.12-1.43,.08h-.04ZM23.3,12.72l.7-.42,13.99,8-3.52,2c-.39,.22-.69,.56-.86,.97s-.2,.86-.09,1.29c.11,.43,.37,.81,.72,1.07,.35,.27,.78,.41,1.23,.41,.35,0,.69-.09,1-.26l6.52-3.78c.31-.17,.56-.43,.74-.73,.18-.31,.27-.65,.27-1.01s-.09-.7-.27-1.01c-.18-.31-.43-.56-.74-.73L25,8.15c-.3-.18-.65-.27-1-.27s-.7,.09-1,.27l-1.7,.98c-.46,.27-.8,.7-.94,1.22-.14,.51-.07,1.06,.2,1.52,.27,.46,.7,.8,1.22,.94,.51,.14,1.06,.07,1.52-.2v.12ZM7.43,4.59c-.19-.19-.41-.33-.65-.44-.24-.1-.5-.15-.77-.15s-.52,.05-.77,.15c-.24,.1-.46,.25-.65,.44-.38,.38-.59,.89-.59,1.42s.21,1.04,.59,1.42l7.28,7.26-6.86,4c-.31,.17-.56,.43-.74,.73-.18,.31-.27,.65-.27,1.01s.09,.7,.27,1.01c.18,.31,.43,.56,.74,.73l17.99,10.39c.31,.17,.65,.25,1,.26,.35,0,.69-.1,1-.26l3-1.76,2.9,2.92-6.88,4L7.01,27.86c-.46-.27-1.01-.34-1.52-.2-.51,.14-.95,.48-1.22,.94-.27,.46-.34,1.01-.2,1.52s.48,.95,.94,1.22l17.99,10.39c.3,.18,.65,.27,1,.27s.7-.09,1-.27l8.82-5.1,6.76,6.78c.19,.19,.41,.34,.65,.44,.24,.1,.5,.15,.77,.15s.53-.05,.77-.15c.24-.1,.46-.25,.65-.44,.19-.19,.34-.41,.44-.65,.1-.24,.15-.5,.15-.77s-.05-.53-.15-.77c-.1-.24-.25-.46-.44-.65L7.43,4.59ZM24,28.58l-13.99-8.2,4.8-2.76,10.23,10.25-1.04,.7Z"/></svg>