<svg xmlns="http://www.w3.org/2000/svg" viewBox="0 0 48 48"><path fill="currentColor" d="M5,17.72l18,10.4c.3,.18,.65,.27,1,.27s.7-.09,1-.27l18-10.4c.3-.17,.55-.43,.73-.73s.27-.64,.27-.99c0-.35-.09-.7-.27-1-.18-.31-.43-.56-.73-.74L25,3.88c-.3-.18-.65-.27-1-.27s-.7,.09-1,.27L5,14.26c-.31,.18-.56,.43-.73,.74-.18,.31-.27,.65-.27,1,0,.35,.1,.69,.27,.99,.18,.3,.43,.55,.73,.73ZM24,8l14,8-14,8-14-8,14-8Zm17,14.34l-17,9.66L7,22.26c-.23-.13-.48-.22-.74-.25-.26-.03-.53-.02-.78,.05s-.49,.19-.7,.35c-.21,.16-.38,.36-.51,.59-.26,.46-.33,1-.19,1.51,.14,.51,.47,.94,.93,1.21l18,10.4c.3,.18,.65,.27,1,.27s.7-.09,1-.27l18-10.4c.46-.26,.79-.7,.93-1.21,.14-.51,.07-1.05-.19-1.51-.13-.23-.31-.43-.51-.59-.21-.16-.45-.28-.7-.35-.25-.07-.52-.09-.78-.05-.26,.03-.51,.12-.74,.25v.08Zm0,8l-17,9.66L7,30.26c-.23-.13-.48-.22-.74-.25-.26-.03-.53-.02-.78,.05s-.49,.19-.7,.35c-.21,.16-.38,.36-.51,.59-.26,.46-.33,1-.19,1.51,.14,.51,.47,.94,.93,1.21l18,10.4c.3,.18,.65,.27,1,.27s.7-.09,1-.27l18-10.4c.46-.26,.79-.7,.93-1.21,.14-.51,.07-1.05-.19-1.51-.13-.23-.31-.43-.51-.59-.21-.16-.45-.28-.7-.35-.25-.07-.52-.09-.78-.05-.26,.03-.51,.12-.74,.25v.08Z"/></svg>