<svg xmlns="http://www.w3.org/2000/svg" viewBox="0 0 48 48"><path fill="currentColor" d="M9.07,36.67c-.95,0-1.72,.77-1.72,1.72s.77,1.72,1.72,1.72,1.72-.77,1.72-1.72-.77-1.72-1.72-1.72ZM45.04,16.76l-2.19-2.19c-.74-.74-1.79-1.01-2.75-.77,.23-.97-.04-2.01-.77-2.75l-4.75-4.75c-.44-.44-.99-.71-1.58-.81-.1-.58-.38-1.14-.81-1.58l-1.49-1.49c-1.14-1.14-2.99-1.14-4.12,0l-14.92,14.92c-1.14,1.14-1.14,2.98,0,4.12l3.18,3.18c.3,.3,.44,.71,.4,1.13-.05,.42-.28,.79-.63,1.02-9.47,6.04-10.36,6.93-10.74,7.31-2.62,2.62-2.62,6.89,0,9.51,2.62,2.62,6.89,2.62,9.51,0,.38-.38,1.27-1.27,7.31-10.74,.23-.35,.6-.58,1.02-.63,.42-.05,.83,.1,1.13,.39l3.18,3.18c1.14,1.14,2.98,1.14,4.12,0l14.92-14.92c1.14-1.14,1.14-2.98,0-4.12Zm-16.98,16.98l-3.18-3.18c-.92-.92-2.21-1.37-3.51-1.23-1.3,.14-2.46,.86-3.16,1.96-2.68,4.2-6.05,9.38-6.91,10.25-1.49,1.49-3.9,1.49-5.38,0-1.49-1.49-1.49-3.9,0-5.38,.86-.86,6.05-4.23,10.25-6.91,1.1-.7,1.82-1.86,1.96-3.16,.14-1.3-.31-2.59-1.23-3.51l-3.18-3.18,2.32-2.32,14.34,14.34-2.32,2.32Zm4.38-4.38l-14.34-14.34L28.64,4.48l1.49,1.49-1.66,3.69c-.06,.13-.03,.27,.07,.37h0c.1,.1,.25,.12,.38,.06l3.61-1.74,4.75,4.75-6.35,9.46c-.09,.13-.07,.31,.04,.42h0c.11,.11,.29,.13,.42,.04l9.41-6.39,2.19,2.19-10.54,10.54Z"/></svg>