<svg xmlns="http://www.w3.org/2000/svg" viewBox="0 0 48 48"><path fill="currentColor" d="M17.55,39.03c1.75.58,4.04.9,6.45.9s4.7-.32,6.45-.9c2.89-.96,3.5-2.39,3.5-3.42v-13.14h0c0-2.98-5-4.32-9.95-4.32s-9.95,1.33-9.95,4.31h0v13.14c0,1.03.61,2.45,3.5,3.42ZM24,21.16c3.67,0,5.99.8,6.75,1.32-.76.51-3.08,1.32-6.75,1.32s-5.99-.8-6.75-1.32c.76-.51,3.08-1.32,6.75-1.32ZM17.05,25.71c3.76,1.47,10.14,1.47,13.9,0v3.18c-.15.14-.57.44-1.45.73-2.86.95-8.15.95-11,0-.88-.29-1.3-.59-1.45-.73v-3.18ZM17.05,32.28c.16.06.33.12.5.18,1.75.58,4.04.9,6.45.9s4.7-.32,6.45-.9c.17-.06.34-.12.5-.18v3.17c-.15.14-.57.44-1.45.73-2.86.95-8.15.95-11,0-.88-.29-1.3-.59-1.45-.73v-3.17ZM42.87,3.63H5.13c-.83,0-1.5.67-1.5,1.5v37.73c0,.83.67,1.5,1.5,1.5h37.73c.83,0,1.5-.67,1.5-1.5V5.13c0-.83-.67-1.5-1.5-1.5ZM41.37,41.37H6.63v-24.99h34.73v24.99ZM41.37,13.38H6.63v-6.75h34.73v6.75ZM16.54,11.41c.08.05.17.1.26.14.09.03.18.06.28.08.09.02.19.03.29.03.4,0,.78-.16,1.06-.44.28-.28.44-.66.44-1.06s-.16-.78-.44-1.06c-.35-.35-.87-.51-1.35-.41-.1.02-.19.05-.28.09-.09.03-.18.08-.26.14-.09.05-.16.11-.23.18-.28.28-.44.67-.44,1.06s.16.78.44,1.06c.07.07.14.13.23.19ZM7.98,10.73c.04.1.09.18.14.26.06.09.12.16.19.23.28.28.67.44,1.06.44s.78-.16,1.06-.44c.28-.28.44-.66.44-1.06,0-.1,0-.19-.03-.29-.02-.1-.05-.19-.08-.28-.04-.09-.09-.18-.14-.26-.06-.08-.12-.16-.19-.23-.55-.55-1.56-.56-2.12,0-.28.28-.44.66-.44,1.06,0,.1.01.2.03.29.02.1.05.19.08.28ZM12.54,11.41c.08.05.17.1.26.14.09.03.18.06.28.08.09.02.19.03.29.03.39,0,.78-.16,1.06-.44.28-.28.44-.66.44-1.06,0-.1,0-.19-.03-.29-.02-.1-.05-.19-.09-.28-.03-.09-.08-.18-.13-.26-.06-.08-.12-.16-.19-.23-.35-.35-.87-.51-1.35-.41-.1.02-.19.05-.28.09-.09.03-.18.08-.26.13-.09.06-.16.12-.23.19s-.13.15-.19.23c-.05.08-.1.17-.14.26-.03.09-.06.18-.08.28-.02.1-.03.19-.03.29,0,.4.16.78.44,1.06.07.07.14.13.23.19ZM32.4,11.66h4.84c.83,0,1.5-.67,1.5-1.5s-.67-1.5-1.5-1.5h-4.84c-.83,0-1.5.67-1.5,1.5s.67,1.5,1.5,1.5Z"/></svg>