<svg xmlns="http://www.w3.org/2000/svg" viewBox="0 0 48 48"><path fill="currentColor" d="M31.56,22.88c-5.9,0-10.69,4.78-10.69,10.69s4.78,10.69,10.69,10.69,10.69-4.78,10.69-10.69-4.78-10.69-10.69-10.69ZM28.23,38.12h-3v-3h3v3ZM28.23,32.14h-3v-3h3v3ZM38.56,38.12h-7.95v-3h7.95v3ZM38.56,32.14h-7.95v-3h7.95v3ZM9.75,35.75v-6.54c2.47,1.17,5.1,1.94,7.79,2.3.2-1.38.6-2.7,1.17-3.92-5.61-.57-8.96-2.63-8.96-3.84v-6.54c3.74,1.78,7.86,2.65,12,2.54,4.14.11,8.26-.76,12-2.54v2.35c1.41.22,2.76.64,4,1.25v-9.06c0-5.26-8-8-16-8S5.75,6.49,5.75,11.75v24c0,5.25,7.97,7.99,15.95,8-1.22-1.19-2.23-2.59-2.96-4.15-5.63-.57-8.99-2.63-8.99-3.85ZM21.75,7.75c7.44,0,12,2.58,12,4s-4.56,4-12,4-12-2.58-12-4,4.56-4,12-4Z"/></svg>