<svg xmlns="http://www.w3.org/2000/svg" viewBox="0 0 48 48"><path fill="currentColor" d="M16.67,31.87c-.36,0-.72,.1-1.02,.3-.3,.19-.54,.47-.68,.79-.14,.32-.18,.67-.1,1.01,.07,.34,.25,.65,.5,.9s.58,.41,.94,.48c.36,.07,.72,.03,1.06-.1,.34-.13,.62-.36,.82-.64,.2-.29,.31-.63,.31-.97,0-.46-.19-.91-.54-1.24s-.81-.51-1.3-.51ZM24,6.5c-7.33,0-14.67,2.4-14.67,7v21c0,4.6,7.33,7,14.67,7s14.67-2.4,14.67-7V13.5c0-4.6-7.33-7-14.67-7Zm11,28c0,1.24-4.18,3.5-11,3.5s-11-2.26-11-3.5v-5.72c3.43,1.56,7.2,2.32,11,2.22,3.8,.1,7.57-.67,11-2.22v5.72Zm0-10.5c0,1.24-4.18,3.5-11,3.5s-11-2.26-11-3.5v-5.72c3.43,1.56,7.2,2.32,11,2.22,3.8,.1,7.57-.67,11-2.22v5.72Zm-11-7c-6.82,0-11-2.26-11-3.5s4.18-3.5,11-3.5,11,2.26,11,3.5-4.18,3.5-11,3.5Zm-7.33,4.38c-.36,0-.72,.1-1.02,.29-.3,.19-.54,.47-.68,.79-.14,.32-.18,.67-.1,1.01,.07,.34,.25,.65,.5,.9s.58,.41,.94,.48c.36,.07,.72,.03,1.06-.1s.62-.36,.82-.64c.2-.29,.31-.63,.31-.97,0-.46-.19-.91-.54-1.24-.34-.33-.81-.51-1.3-.51Z"/></svg>