<svg xmlns="http://www.w3.org/2000/svg" viewBox="0 0 48 48"><path fill="currentColor" d="M14.74,32.78c-1.1,0-2,.9-2,2s.9,2,2,2,2-.9,2-2-.9-2-2-2ZM26.71,9.89c.62.44,1.43.48,2.08.15v3.65c0,1.03.88,1.87,1.96,1.87,1.01,0,1.85-.73,1.95-1.67l.02-3.75c.63.32,1.43.29,2.05-.13.44-.3.73-.76.8-1.27.07-.5-.07-1-.4-1.41l-2.88-3.46c-.75-.89-2.32-.87-3.04-.01l-2.88,3.33c-.29.33-.45.75-.45,1.19,0,.58.29,1.14.79,1.5ZM40.74,26.37c0-.87-.71-1.58-1.58-1.58h-3.65s-25.55,0-25.55,0v-.02s5.47-10.88,5.47-10.88c.3-.7,1-1.1,1.8-1.1h6.15c1.01,0,1.94-.67,2.12-1.66.22-1.25-.73-2.34-1.94-2.34h-6.33c-2.3,0-4.3,1.3-5.4,3.3l-6.7,13.4c-.3.5-.4,1.2-.4,1.8v11.48c0,3.31,2.71,6.02,6.02,6.02h23.97c3.31,0,6.02-2.71,6.02-6.02v-12.4ZM36.74,38.77c0,1.11-.91,2.02-2.02,2.02H10.76c-1.11,0-2.02-.91-2.02-2.02v-9.97s0-.02.02-.02h27.97s.02,0,.02.02v9.97ZM43.25,17.91c-.07-.51-.35-.97-.77-1.27-.63-.44-1.44-.48-2.08-.15v-2.79c0-1.03-.88-1.87-1.96-1.87s-1.96.84-1.96,1.87v2.66c-.63-.32-1.43-.29-2.05.13-.51.35-.82.92-.82,1.52,0,.43.16.85.43,1.16l2.88,3.46c.37.44.93.7,1.52.7s1.16-.25,1.53-.69h0s2.86-3.32,2.86-3.32c.34-.39.49-.9.43-1.41ZM30.74,32.78h-8c-1.1,0-2,.9-2,2s.9,2,2,2h8c1.1,0,2-.9,2-2s-.9-2-2-2Z"/></svg>