<svg xmlns="http://www.w3.org/2000/svg" viewBox="0 0 48 48"><path fill="currentColor" d="M24.05,20.5c-1.63,0-2.95,1.32-2.95,2.95s1.32,2.95,2.95,2.95,2.95-1.32,2.95-2.95-1.32-2.95-2.95-2.95ZM38.1,1.6H9.89c-3.16,0-5.74,2.58-5.74,5.75v33.31c0,3.16,2.58,5.74,5.75,5.74h28.21c3.16,0,5.74-2.58,5.75-5.75V7.35c0-3.16-2.58-5.74-5.75-5.75ZM39.86,40.65c0,.97-.79,1.76-1.76,1.76H9.9c-.97,0-1.76-.79-1.76-1.76V7.35c0-.97.79-1.76,1.76-1.76h28.21c.97,0,1.76.79,1.76,1.76v33.31ZM24,11.89c-6.37,0-11.56,5.19-11.56,11.56,0,2.91,1.09,5.56,2.86,7.59l-1.65,1.68c-.37.38-.57.87-.57,1.4,0,.53.21,1.03.58,1.41.38.38.88.59,1.41.59h0c.53,0,1.04-.22,1.42-.59l1.93-1.95c1.66.92,3.56,1.44,5.58,1.44h0c6.37,0,11.55-5.19,11.56-11.56,0-6.37-5.19-11.56-11.56-11.56ZM24,31.02c-.92,0-1.79-.17-2.6-.47l.84-.85c.77-.78.76-2.05-.02-2.82-.38-.37-.87-.57-1.4-.57h-.01c-.53,0-1.03.21-1.41.59l-1.28,1.3c-1.05-1.3-1.68-2.95-1.68-4.75,0-4.17,3.4-7.57,7.57-7.57,4.17,0,7.57,3.4,7.57,7.57,0,4.17-3.4,7.57-7.57,7.57Z"/></svg>