<svg xmlns="http://www.w3.org/2000/svg" viewBox="0 0 48 48"><path fill="currentColor" d="M8.44,14.89h6.67c1.1,0,2-.9,2-2s-.9-2-2-2h-6.67c-1.35,0-2.44-1.1-2.44-2.44v-4.44c0-1.1-.9-2-2-2s-2,.9-2,2v28.89c0,3.55,2.89,6.44,6.44,6.44h6.67c1.1,0,2-.9,2-2s-.9-2-2-2h-6.67c-1.35,0-2.44-1.1-2.44-2.44V14.41c.75.31,1.58.48,2.44.48ZM41.78,30.89h-6.42s-.08-.01-.12-.03c-.04-.02-.06-.05-.07-.07l-.99-2.02c-.35-.7-.9-1.29-1.57-1.7-.67-.41-1.45-.65-2.22-.62h-4.18c-1.13,0-2.19.44-2.99,1.24-.8.8-1.24,1.86-1.24,2.98v11.11c0,1.11.45,2.2,1.24,2.98.8.8,1.86,1.24,2.99,1.24h15.55c1.11,0,2.2-.45,2.98-1.24.79-.79,1.24-1.87,1.24-2.99v-6.67c0-1.13-.44-2.19-1.24-2.98-.79-.79-1.87-1.24-2.99-1.24ZM42,41.78c0,.06-.02.12-.07.16-.04.04-.1.06-.16.06h-15.55c-.06,0-.12-.02-.16-.07s-.06-.1-.06-.16v-11.11c0-.06.02-.12.07-.16s.1-.06.16-.06h4.19s.08.01.12.03c.04.02.06.05.07.07l.99,2.02c.35.7.9,1.29,1.57,1.7.67.41,1.46.62,2.22.62h6.4c.06,0,.12.02.16.07s.07.1.07.16v6.67ZM44.76,7.68c-.79-.79-1.87-1.24-2.99-1.24h-5.55s-.07,0-.1-.02c-.03-.02-.06-.04-.08-.06l-2-2.67c-.39-.52-.91-.95-1.49-1.24-.58-.29-1.24-.45-1.89-.45h-4.44c-1.13,0-2.19.44-2.99,1.24-.8.8-1.24,1.86-1.24,2.99v11.11c0,1.13.44,2.19,1.24,2.99.8.8,1.86,1.24,2.99,1.24h15.55c1.11,0,2.2-.45,2.99-1.24.8-.8,1.24-1.86,1.24-2.99v-6.67c0-1.13-.44-2.19-1.24-2.98ZM42,17.33c0,.06-.02.11-.07.16s-.1.06-.16.06h-15.55c-.06,0-.12-.02-.16-.06-.04-.04-.07-.1-.07-.16V6.22c0-.06.02-.12.07-.16.04-.04.1-.06.16-.06h4.44s.07,0,.1.02c.03.02.06.04.08.06l2,2.67c.39.52.91.95,1.49,1.24.58.29,1.24.45,1.89.45h5.55c.06,0,.12.02.16.06.04.04.07.1.07.16v6.67Z"/></svg>