<svg xmlns="http://www.w3.org/2000/svg" viewBox="0 0 48 48"><path fill="currentColor" d="M14,32c0-1.1,.9-2,2-2s2,.9,2,2-.9,2-2,2-2-.9-2-2Zm10-2h8c1.1,0,2,.9,2,2s-.9,2-2,2h-8c-1.1,0-2-.9-2-2s.9-2,2-2Zm12,8H12c-1.1,0-2-.9-2-2v-10h28v10c0,1.1-.9,2-2,2ZM16.7,11.1c.3-.7,1-1.1,1.8-1.1h11.1c.8,0,1.4,.4,1.8,1.1l5.4,10.9H11.2l5.4-10.9Zm24.9,11.6l-6.7-13.4c-1-2-3.1-3.3-5.4-3.3h-11.1c-2.3,0-4.3,1.3-5.4,3.3l-6.7,13.4c-.3,.6-.4,1.2-.4,1.8v11.5c0,3.3,2.7,6,6,6h24c3.3,0,6-2.7,6-6v-11.5c0-.6-.1-1.2-.4-1.8Z"/></svg>