<svg xmlns="http://www.w3.org/2000/svg" viewBox="0 0 48 48"><path fill="currentColor" d="m6.67,8.66c.32-.16.64-.35.97-.58v6.5h3.33V3.8h-2.73l-.07.15c-.28.61-.67,1.12-1.16,1.51-.52.42-1.24.77-2.14,1.06l-.17.06v2.83l.32-.1c.65-.2,1.2-.42,1.65-.64Zm4.05,24.7h-2.48l-.07.15c-.28.61-.67,1.12-1.16,1.51-.52.42-1.24.77-2.14,1.06l-.17.06v2.83l.32-.1c.65-.2,1.21-.42,1.65-.64.32-.16.64-.35.97-.58v6.48h3.33v-10.52h-.25v-.25Zm0-14.73h-2.48l-.07.15c-.28.61-.67,1.12-1.16,1.51-.52.41-1.24.77-2.14,1.06l-.17.06v2.83l.32-.1c.65-.2,1.2-.42,1.65-.64.32-.16.64-.35.97-.58v6.48h3.33v-10.52h-.25v-.25Zm18.84-7.48h11.78c1.08,0,1.96-.88,1.96-1.96s-.88-1.96-1.96-1.96h-11.78c-1.08,0-1.96.88-1.96,1.96s.88,1.96,1.96,1.96Zm-8.7,27.19c.29-.23.5-.46.65-.69.29-.43.43-.9.43-1.41,0-.86-.36-1.57-1.06-2.14-.69-.55-1.75-.83-3.16-.83-1.05,0-1.93.22-2.6.67-.86.58-1.3,1.35-1.3,2.28,0,.56.15,1.05.45,1.5.15.22.35.42.62.6-.42.23-.74.51-.96.85-.3.46-.45,1-.45,1.64s.16,1.23.48,1.77c.32.54.79.95,1.41,1.22.6.26,1.46.4,2.56.4.62,0,1.17-.06,1.67-.17.53-.12.97-.31,1.34-.57.37-.25.67-.61.94-1.1.26-.48.38-.97.38-1.53s-.15-1.11-.44-1.57c-.24-.37-.56-.68-.97-.93Zm-3.67-2.61c.34-.32.93-.35,1.31.01.17.16.25.38.25.67,0,.27-.08.48-.24.65-.15.16-.35.24-.61.24-.3,0-.52-.08-.7-.25-.17-.16-.25-.38-.25-.67v-.13c.01-.22.09-.39.23-.52Zm1.43,5.92c-.23.25-.44.35-.72.35s-.53-.11-.75-.35c-.19-.2-.3-.43-.33-.72v-.2c0-.41.11-.72.32-.94.43-.45,1.04-.46,1.49.01.22.23.33.53.33.92s-.11.68-.33.92Zm3.62-29.86h-4c.07-.06.13-.12.2-.17.17-.15.51-.39,1.11-.81.98-.69,1.64-1.31,2.03-1.92.39-.6.58-1.24.58-1.9s-.17-1.21-.51-1.71c-.36-.51-.83-.89-1.41-1.12-.58-.23-1.41-.36-2.4-.36s-1.74.12-2.32.37c-.57.25-1.02.62-1.35,1.11-.32.48-.54,1.13-.65,1.95l-.04.26,3.31.26.03-.23c.08-.53.2-.87.38-1.04.37-.35,1.03-.36,1.4-.01.17.17.26.37.26.61s-.1.48-.3.76c-.2.28-.7.72-1.52,1.33-1.39,1.03-2.31,1.9-2.81,2.66-.52.78-.82,1.59-.92,2.46l-.03.28h8.96v-2.79Zm19.1,24.99h-11.78c-1.08,0-1.96.88-1.96,1.96s.88,1.96,1.96,1.96h11.78c1.08,0,1.96-.88,1.96-1.96s-.88-1.96-1.96-1.96Zm-22.44-14.7c-.5,0-.94.09-1.33.27-.21.1-.42.22-.62.37.08-.7.19-1.17.32-1.39.2-.38.48-.56.84-.56.17,0,.34.06.47.18.13.12.23.37.29.69l.04.23,3.02-.37.22-.04v-.29c-.19-.58-.44-1.07-.77-1.44-.33-.38-.75-.68-1.26-.88-.5-.2-1.17-.3-2-.3-1.43,0-2.56.46-3.37,1.35-.81.9-1.22,2.3-1.22,4.18,0,1.31.19,2.33.58,3.11.41.82.92,1.39,1.57,1.75.65.36,1.51.55,2.56.55.88,0,1.62-.15,2.21-.45.6-.3,1.07-.76,1.41-1.35.34-.59.5-1.23.5-1.95,0-1.05-.34-1.93-1-2.62-.67-.69-1.49-1.04-2.46-1.04Zm0,4.83c-.21.23-.45.34-.75.34-.32,0-.6-.13-.82-.39-.21-.24-.33-.58-.35-1.01v-.11c0-.46.12-.82.35-1.07.2-.23.47-.35.79-.35s.55.11.76.36c.22.26.33.64.33,1.14s-.1.86-.31,1.09Zm22.44-4.86h-11.78c-1.08,0-1.96.88-1.96,1.96s.88,1.96,1.96,1.96h11.78c1.08,0,1.96-.88,1.96-1.96s-.88-1.96-1.96-1.96Z"/></svg>