<svg xmlns="http://www.w3.org/2000/svg" viewBox="0 0 48 48"><path fill="currentColor" d="M11,14h2c.27,0,.52-.11.71-.29s.29-.44.29-.71-.11-.52-.29-.71-.44-.29-.71-.29h-2c-.27,0-.52.11-.71.29-.19.19-.29.44-.29.71s.11.52.29.71c.19.19.44.29.71.29ZM26.22,14.05c3.02.67,5.49,2.65,6.85,5.34l-.71-.41c-.98-.56-2.16.34-1.86,1.44.09.33.3.6.6.77l3.64,2.09c.61.35,1.39.14,1.74-.47l2.09-3.64c.17-.29.21-.64.12-.97-.3-1.09-1.77-1.28-2.33-.3l-.66,1.15c-1.59-3.75-4.88-6.54-8.93-7.43-.68-.15-1.34.28-1.49.95-.15.67.28,1.34.95,1.49ZM11,8h2c.27,0,.52-.11.71-.29s.29-.44.29-.71-.11-.52-.29-.71c-.19-.19-.44-.29-.71-.29h-2c-.27,0-.52.11-.71.29s-.29.44-.29.71.11.52.29.71c.19.19.44.29.71.29ZM16.29,13.71c.14.14.32.24.51.27.19.04.4.02.58-.06.18-.08.34-.2.45-.37.11-.16.17-.36.17-.56,0-.27-.11-.52-.29-.71s-.44-.29-.71-.29c-.2,0-.39.06-.56.17-.16.11-.29.27-.37.45-.08.18-.1.38-.06.58.04.19.13.37.27.51ZM16.29,7.71c.14.14.32.24.51.27.19.04.4.02.58-.06.18-.08.34-.2.45-.37.11-.16.17-.36.17-.56,0-.27-.11-.52-.29-.71-.19-.19-.44-.29-.71-.29-.2,0-.39.06-.56.17-.16.11-.29.27-.37.45s-.1.38-.06.58c.04.19.13.37.27.51ZM16.29,19.71c.14.14.32.24.51.27.19.04.4.02.58-.06.18-.08.34-.2.45-.37.11-.16.17-.36.17-.56,0-.27-.11-.52-.29-.71s-.44-.29-.71-.29c-.2,0-.39.06-.56.17-.16.11-.29.27-.37.45-.08.18-.1.38-.06.58.04.19.13.37.27.51ZM33,28h-2c-.27,0-.52.11-.71.29s-.29.44-.29.71.11.52.29.71c.19.19.44.29.71.29h2c.27,0,.52-.11.71-.29s.29-.44.29-.71-.11-.52-.29-.71c-.19-.19-.44-.29-.71-.29ZM33,34h-2c-.27,0-.52.11-.71.29-.19.19-.29.44-.29.71s.11.52.29.71c.19.19.44.29.71.29h2c.27,0,.52-.11.71-.29s.29-.44.29-.71-.11-.52-.29-.71-.44-.29-.71-.29ZM37,34c-.2,0-.39.06-.56.17-.16.11-.29.27-.37.45-.08.18-.1.38-.06.58.04.19.13.37.27.51.14.14.32.24.51.27.19.04.4.02.58-.06.18-.08.34-.2.45-.37.11-.16.17-.36.17-.56,0-.27-.11-.52-.29-.71s-.44-.29-.71-.29ZM45,31c0-.8-.32-1.56-.88-2.12-.56-.56-1.33-.88-2.12-.88h-1c0-.8-.32-1.56-.88-2.12-.56-.56-1.33-.88-2.12-.88h-8c-.8,0-1.56.32-2.12.88-.56.56-.88,1.33-.88,2.12h-1c-.8,0-1.56.32-2.12.88-.56.56-.88,1.33-.88,2.12v2c0,.74.28,1.45.78,2-.5.55-.78,1.26-.78,2v2c0,.8.32,1.56.88,2.12s1.33.88,2.12.88h1c0,.8.32,1.56.88,2.12s1.33.88,2.12.88h8c.8,0,1.56-.32,2.12-.88.56-.56.88-1.33.88-2.12h1c.8,0,1.56-.32,2.12-.88.56-.56.88-1.33.88-2.12v-2c0-.74-.28-1.45-.78-2,.5-.55.78-1.26.78-2v-2ZM27,40h-1c-.27,0-.52-.11-.71-.29-.19-.19-.29-.44-.29-.71v-2c0-.27.11-.52.29-.71.19-.19.44-.29.71-.29h1c0,.74.28,1.45.78,2-.5.55-.78,1.26-.78,2ZM27,34h-1c-.27,0-.52-.11-.71-.29-.19-.19-.29-.44-.29-.71v-2c0-.27.11-.52.29-.71s.44-.29.71-.29h1c0,.74.28,1.45.78,2-.5.55-.78,1.26-.78,2ZM39,42c0,.27-.11.52-.29.71s-.44.29-.71.29h-8c-.27,0-.52-.11-.71-.29-.19-.19-.29-.44-.29-.71v-2c0-.27.11-.52.29-.71.19-.19.44-.29.71-.29h8c.27,0,.52.11.71.29s.29.44.29.71v2ZM39,36c0,.27-.11.52-.29.71s-.44.29-.71.29h-8c-.27,0-.52-.11-.71-.29-.19-.19-.29-.44-.29-.71v-2c0-.27.11-.52.29-.71.19-.19.44-.29.71-.29h8c.27,0,.52.11.71.29s.29.44.29.71v2ZM39,30c0,.27-.11.52-.29.71s-.44.29-.71.29h-8c-.27,0-.52-.11-.71-.29-.19-.19-.29-.44-.29-.71v-2c0-.27.11-.52.29-.71s.44-.29.71-.29h8c.27,0,.52.11.71.29.19.19.29.44.29.71v2ZM43,39c0,.27-.11.52-.29.71s-.44.29-.71.29h-1c0-.74-.28-1.45-.78-2,.5-.55.78-1.26.78-2h1c.27,0,.52.11.71.29s.29.44.29.71v2ZM43,33c0,.27-.11.52-.29.71s-.44.29-.71.29h-1c0-.74-.28-1.45-.78-2,.5-.55.78-1.26.78-2h1c.27,0,.52.11.71.29.19.19.29.44.29.71v2ZM11,20h2c.27,0,.52-.11.71-.29s.29-.44.29-.71-.11-.52-.29-.71-.44-.29-.71-.29h-2c-.27,0-.52.11-.71.29-.19.19-.29.44-.29.71s.11.52.29.71c.19.19.44.29.71.29ZM37,28c-.2,0-.39.06-.56.17-.16.11-.29.27-.37.45s-.1.38-.06.58c.04.19.13.37.27.51.14.14.32.24.51.27.19.04.4.02.58-.06.18-.08.34-.2.45-.37.11-.16.17-.36.17-.56,0-.27-.11-.52-.29-.71-.19-.19-.44-.29-.71-.29ZM21.35,33.75c-3.02-.67-5.49-2.65-6.85-5.34l.71.41c.98.56,2.16-.34,1.86-1.44-.09-.33-.3-.6-.6-.77l-3.64-2.09c-.61-.35-1.39-.14-1.74.47l-2.09,3.64c-.17.29-.21.64-.12.97.3,1.09,1.77,1.28,2.33.3l.66-1.15c1.59,3.75,4.88,6.54,8.93,7.43.09.02.18.03.27.03.57,0,1.09-.4,1.22-.98.15-.67-.28-1.34-.95-1.49ZM37,40c-.2,0-.39.06-.56.17-.16.11-.29.27-.37.45-.08.18-.1.38-.06.58.04.19.13.37.27.51.14.14.32.24.51.27.19.04.4.02.58-.06.18-.08.34-.2.45-.37.11-.16.17-.36.17-.56,0-.27-.11-.52-.29-.71s-.44-.29-.71-.29ZM18,23c.8,0,1.56-.32,2.12-.88.56-.56.88-1.33.88-2.12h1c.8,0,1.56-.32,2.12-.88.56-.56.88-1.33.88-2.12v-2c0-.74-.28-1.45-.78-2,.5-.55.78-1.26.78-2v-2c0-.8-.32-1.56-.88-2.12-.56-.56-1.33-.88-2.12-.88h-1c0-.8-.32-1.56-.88-2.12-.56-.56-1.33-.88-2.12-.88h-8c-.8,0-1.56.32-2.12.88-.56.56-.88,1.33-.88,2.12h-1c-.8,0-1.56.32-2.12.88-.56.56-.88,1.33-.88,2.12v2c0,.74.28,1.45.78,2-.5.55-.78,1.26-.78,2v2c0,.8.32,1.56.88,2.12s1.33.88,2.12.88h1c0,.8.32,1.56.88,2.12s1.33.88,2.12.88h8ZM21,8h1c.27,0,.52.11.71.29.19.19.29.44.29.71v2c0,.27-.11.52-.29.71s-.44.29-.71.29h-1c0-.74-.28-1.45-.78-2,.5-.55.78-1.26.78-2ZM21,14h1c.27,0,.52.11.71.29s.29.44.29.71v2c0,.27-.11.52-.29.71s-.44.29-.71.29h-1c0-.74-.28-1.45-.78-2,.5-.55.78-1.26.78-2ZM7,18h-1c-.27,0-.52-.11-.71-.29-.19-.19-.29-.44-.29-.71v-2c0-.27.11-.52.29-.71.19-.19.44-.29.71-.29h1c0,.74.28,1.45.78,2-.5.55-.78,1.26-.78,2ZM7,12h-1c-.27,0-.52-.11-.71-.29-.19-.19-.29-.44-.29-.71v-2c0-.27.11-.52.29-.71s.44-.29.71-.29h1c0,.74.28,1.45.78,2-.5.55-.78,1.26-.78,2ZM9,6c0-.27.11-.52.29-.71s.44-.29.71-.29h8c.27,0,.52.11.71.29.19.19.29.44.29.71v2c0,.27-.11.52-.29.71s-.44.29-.71.29h-8c-.27,0-.52-.11-.71-.29-.19-.19-.29-.44-.29-.71v-2ZM9,12c0-.27.11-.52.29-.71.19-.19.44-.29.71-.29h8c.27,0,.52.11.71.29s.29.44.29.71v2c0,.27-.11.52-.29.71s-.44.29-.71.29h-8c-.27,0-.52-.11-.71-.29-.19-.19-.29-.44-.29-.71v-2ZM9,20v-2c0-.27.11-.52.29-.71.19-.19.44-.29.71-.29h8c.27,0,.52.11.71.29s.29.44.29.71v2c0,.27-.11.52-.29.71s-.44.29-.71.29h-8c-.27,0-.52-.11-.71-.29-.19-.19-.29-.44-.29-.71ZM33,40h-2c-.27,0-.52.11-.71.29-.19.19-.29.44-.29.71s.11.52.29.71c.19.19.44.29.71.29h2c.27,0,.52-.11.71-.29s.29-.44.29-.71-.11-.52-.29-.71-.44-.29-.71-.29Z"/></svg>