<svg xmlns="http://www.w3.org/2000/svg" viewBox="0 0 48 48"><path fill="currentColor" d="M24 4C27.9556 4 31.8223 5.17347 35.1113 7.37109C38.4002 9.56872 40.9638 12.6922 42.4775 16.3467C43.9912 20.001 44.3868 24.0219 43.6152 27.9014C42.8435 31.781 40.9396 35.3455 38.1426 38.1426C35.3455 40.9396 31.781 42.8435 27.9014 43.6152C24.0219 44.3868 20.001 43.9912 16.3467 42.4775C12.6922 40.9638 9.56872 38.4002 7.37109 35.1113C5.17347 31.8223 4 27.9556 4 24C4 22.8954 4.89543 22 6 22C7.10457 22 8 22.8954 8 24C8 27.1643 8.93836 30.2576 10.6963 32.8887C12.4544 35.5198 14.9534 37.5712 17.877 38.7822C20.8005 39.9932 24.0175 40.3097 27.1211 39.6924C30.2248 39.075 33.0758 37.5511 35.3135 35.3135C37.5511 33.0758 39.075 30.2248 39.6924 27.1211C40.3097 24.0175 39.9932 20.8005 38.7822 17.877C37.5712 14.9534 35.5198 12.4544 32.8887 10.6963C30.2584 8.9389 27.1662 8.00058 24.0029 8C19.4999 8.01812 15.1776 9.77148 11.9346 12.8945L10.8291 14H16C17.1046 14 18 14.8954 18 16C18 17.1046 17.1046 18 16 18H6C5.93478 18 5.86966 17.9956 5.80469 17.9893C5.76748 17.9856 5.73092 17.9793 5.69434 17.9736C5.66635 17.9693 5.63817 17.9664 5.61035 17.9609C5.561 17.9512 5.51281 17.9381 5.46484 17.9248C5.45191 17.9212 5.43865 17.9189 5.42578 17.915C5.38764 17.9036 5.35062 17.8896 5.31348 17.876C5.28624 17.866 5.25831 17.8579 5.23145 17.8467C5.20612 17.8361 5.18201 17.8231 5.15723 17.8115C5.1239 17.796 5.09022 17.7811 5.05762 17.7637C5.0259 17.7467 4.99551 17.7276 4.96484 17.709C4.94003 17.6939 4.9149 17.6793 4.89062 17.6631C4.85765 17.641 4.82648 17.6167 4.79492 17.5928C4.7746 17.5774 4.75326 17.5632 4.7334 17.5469C4.6306 17.4626 4.53635 17.3685 4.45215 17.2656C4.43586 17.2458 4.42165 17.2244 4.40625 17.2041C4.38236 17.1725 4.35795 17.1414 4.33594 17.1084C4.31972 17.0841 4.30508 17.059 4.29004 17.0342C4.27145 17.0035 4.25231 16.9731 4.23535 16.9414C4.21794 16.9088 4.20298 16.8751 4.1875 16.8418C4.17597 16.817 4.16288 16.7929 4.15234 16.7676C4.14119 16.7407 4.13298 16.7128 4.12305 16.6855C4.08798 16.5896 4.05822 16.4909 4.03809 16.3887C4.03095 16.3525 4.02758 16.3158 4.02246 16.2793C4.00967 16.1879 4 16.0949 4 16V6C4 4.89543 4.89543 4 6 4C7.10457 4 8 4.89543 8 6V11.1709L9.10547 10.0654C9.11344 10.0575 9.12178 10.0498 9.12988 10.042C13.1188 6.1858 18.4441 4.02095 23.9922 4H24ZM24 12C25.1046 12 26 12.8954 26 14V22.7637L32.8945 26.2109C33.8825 26.7049 34.283 27.9066 33.7891 28.8945C33.2951 29.8825 32.0934 30.283 31.1055 29.7891L23.1055 25.7891C22.4279 25.4503 22 24.7575 22 24V14C22 12.8954 22.8954 12 24 12Z"/></svg>