<svg xmlns="http://www.w3.org/2000/svg" viewBox="0 0 48 48"><path fill="currentColor" d="M41.2,17c0-2.66-3.91-4.79-8.9-5.95l-.27-4.23-1.45-1.71h-12.62l-1.98,1.71-.27,4.23c-4.98,1.15-8.9,3.28-8.9,5.95,0,.41,.09,.81,.25,1.18l4.84,20.64c.39,3.54,7.71,4.08,12.12,4.08s11.73-.54,12.12-4.08l4.84-20.64c.16-.38,.25-.77,.25-1.18h-.03Zm-8.95,20.77c-.92,.46-3.84,1.13-8.26,1.13s-7.34-.68-8.26-1.13l-3.74-15.94c3.49,1.31,8.14,1.98,11.99,1.98s8.5-.68,12-1.98l-3.73,15.94Zm-8.26-18.08h0c-6.16,.01-11.01-1.7-12.71-2.77,1.69-1.12,6.47-2.81,12.71-2.81s10.98,1.68,12.69,2.79c-1.76,1.12-6.58,2.79-12.69,2.79Z"/></svg>