<svg xmlns="http://www.w3.org/2000/svg" viewBox="0 0 48 48"><path fill="currentColor" d="M37.01,18.44c-.12-.27-.28-.52-.51-.73l-5.27-4.71c-.19-.17-.41-.3-.65-.37-.24-.07-.49-.1-.74-.06-.25.04-.48.12-.7.27-.21.14-.39.32-.51.52-.28.42-.41.94-.35,1.45.06.51.29.98.67,1.34l1.25,1.11h-7.19c-.49.06-.94.29-1.27.67-.32.37-.5.85-.5,1.35s.18.98.5,1.35c.33.38.78.61,1.27.67h7.04s-1.28,1.11-1.28,1.11c-.37.34-.61.81-.68,1.32-.06.51.05,1.02.32,1.44.16.25.37.46.63.61.26.15.55.23.85.23.41,0,.81-.15,1.11-.42l5.48-4.72c.22-.2.39-.44.51-.71.12-.27.18-.56.18-.86,0-.3-.06-.59-.17-.86ZM26.32,26.7h-8.41s1.28-1.11,1.28-1.11c.37-.34.61-.81.68-1.32.06-.51-.05-1.02-.32-1.44-.13-.22-.31-.4-.51-.54-.21-.14-.45-.24-.69-.28-.24-.04-.5-.03-.74.04-.24.07-.46.19-.65.35l-5.48,4.72c-.22.2-.39.44-.51.71-.12.27-.18.56-.18.86,0,.3.06.59.17.86.12.28.29.52.51.73l5.27,4.71c.31.29.72.45,1.15.45h0c.29,0,.58-.08.83-.22.25-.14.47-.35.62-.58.28-.42.41-.94.35-1.45-.06-.51-.29-.98-.67-1.34l-1.25-1.12h8.55c.49-.06.94-.29,1.27-.67.32-.37.5-.85.5-1.35s-.18-.98-.5-1.35c-.33-.38-.78-.61-1.27-.67ZM24,2.23C11.99,2.23,2.23,11.99,2.23,24s9.77,21.77,21.77,21.77,21.77-9.77,21.77-21.77S36.01,2.23,24,2.23ZM24,41.77c-9.8,0-17.77-7.97-17.77-17.77S14.2,6.23,24,6.23s17.77,7.97,17.77,17.77-7.97,17.77-17.77,17.77Z"/></svg>