<svg xmlns="http://www.w3.org/2000/svg" viewBox="0 0 48 48"><path fill="currentColor" d="M38.4,27.09c-.43-.8-1.27-1.3-2.18-1.3h0c-.91,0-1.75.5-2.18,1.3l-6.88,12.69c-.41.76-.39,1.7.05,2.45.44.75,1.26,1.21,2.13,1.21h14.38c.73,0,1.42-.39,1.8-1.02l.58-1.07-7.7-14.25ZM31.89,39.43l4.32-7.97,4.31,7.97h-8.63ZM11.56,25.06c-5.33,0-9.66,4.31-9.66,9.61s4.33,9.61,9.66,9.61,9.66-4.31,9.66-9.61-4.33-9.61-9.66-9.61ZM11.56,40.28c-3.12,0-5.66-2.52-5.66-5.61s2.54-5.61,5.66-5.61,5.66,2.52,5.66,5.61-2.54,5.61-5.66,5.61ZM16.77,23.13h14.77c1.32,0,2.38-1.07,2.38-2.38V6.1c0-1.31-1.07-2.38-2.38-2.38h-14.77c-1.32,0-2.38,1.07-2.38,2.38v14.65c0,1.31,1.07,2.38,2.38,2.38ZM18.39,7.72h11.54v11.41h-11.54V7.72Z"/></svg>