<svg xmlns="http://www.w3.org/2000/svg" viewBox="0 0 48 48"><path fill="currentColor" d="M16 33C15.6044 33 15.2178 33.1173 14.8889 33.3371C14.56 33.5568 14.3036 33.8692 14.1522 34.2346C14.0009 34.6001 13.9613 35.0022 14.0384 35.3902C14.1156 35.7781 14.3061 36.1345 14.5858 36.4142C14.8655 36.6939 15.2219 36.8844 15.6098 36.9616C15.9978 37.0387 16.3999 36.9991 16.7654 36.8478C17.1308 36.6964 17.4432 36.44 17.6629 36.1111C17.8827 35.7822 18 35.3956 18 35C18 34.4696 17.7893 33.9609 17.4142 33.5858C17.0391 33.2107 16.5304 33 16 33V33ZM24 4C16 4 8 6.74 8 12V36C8 41.26 16 44 24 44C32 44 40 41.26 40 36V12C40 6.74 32 4 24 4ZM36 36C36 37.42 31.44 40 24 40C16.56 40 12 37.42 12 36V29.46C15.7441 31.2399 19.8558 32.1102 24 32C28.1442 32.1102 32.2559 31.2399 36 29.46V36ZM36 24C36 25.42 31.44 28 24 28C16.56 28 12 25.42 12 24V17.46C15.7441 19.2399 19.8558 20.1102 24 20C28.1442 20.1102 32.2559 19.2399 36 17.46V24ZM24 16C16.56 16 12 13.42 12 12C12 10.58 16.56 8 24 8C31.44 8 36 10.58 36 12C36 13.42 31.44 16 24 16ZM16 21C15.6044 21 15.2178 21.1173 14.8889 21.3371C14.56 21.5568 14.3036 21.8692 14.1522 22.2346C14.0009 22.6001 13.9613 23.0022 14.0384 23.3902C14.1156 23.7781 14.3061 24.1345 14.5858 24.4142C14.8655 24.6939 15.2219 24.8844 15.6098 24.9616C15.9978 25.0387 16.3999 24.9991 16.7654 24.8478C17.1308 24.6964 17.4432 24.44 17.6629 24.1111C17.8827 23.7822 18 23.3956 18 23C18 22.4696 17.7893 21.9609 17.4142 21.5858C17.0391 21.2107 16.5304 21 16 21V21Z"/></svg>