<svg xmlns="http://www.w3.org/2000/svg" viewBox="0 0 48 48"><path fill="currentColor" d="M15.2,33.9c-.44,0-.86.13-1.22.37-.36.24-.64.59-.81.99-.17.4-.21.84-.13,1.27.08.43.29.82.6,1.13.31.31.7.52,1.13.6.43.08.87.04,1.27-.13.4-.17.75-.45.99-.81.24-.36.37-.79.37-1.22,0-.58-.23-1.14-.64-1.56-.41-.41-.97-.64-1.56-.64ZM24,2C15.2,2,6.4,5.01,6.4,10.8v26.4c0,5.79,8.8,8.8,17.6,8.8s17.6-3.01,17.6-8.8V10.8c0-5.79-8.8-8.8-17.6-8.8ZM37.2,37.2c0,1.56-5.02,4.4-13.2,4.4s-13.2-2.84-13.2-4.4v-7.19c4.12,1.96,8.64,2.92,13.2,2.79,4.56.12,9.08-.84,13.2-2.79v7.19ZM37.2,24c0,1.56-5.02,4.4-13.2,4.4s-13.2-2.84-13.2-4.4v-7.19c4.12,1.96,8.64,2.92,13.2,2.79,4.56.12,9.08-.84,13.2-2.79v7.19ZM24,15.2c-8.18,0-13.2-2.84-13.2-4.4s5.02-4.4,13.2-4.4,13.2,2.84,13.2,4.4-5.02,4.4-13.2,4.4ZM15.2,20.7c-.44,0-.86.13-1.22.37-.36.24-.64.59-.81.99-.17.4-.21.84-.13,1.27.08.43.29.82.6,1.13.31.31.7.52,1.13.6.43.08.87.04,1.27-.13.4-.17.75-.45.99-.81.24-.36.37-.79.37-1.22,0-.58-.23-1.14-.64-1.56-.41-.41-.97-.64-1.56-.64Z"/></svg>