<svg xmlns="http://www.w3.org/2000/svg" viewBox="0 0 48 48"><path fill="currentColor" d="M23.7,17c0-1-.8-1.8-1.8-1.8h-7.5c-1,0-1.8,.8-1.8,1.8s.8,1.8,1.8,1.8h7.5c1,0,1.8-.8,1.8-1.8Zm-9.2-4.3h5.2c1,0,1.8-.8,1.8-1.8s-.8-1.8-1.8-1.8h-5.2c-1,0-1.8,.8-1.8,1.8s.8,1.8,1.8,1.8Zm4.8,16.4c-.6-.7-1.7-.8-2.5-.2-.7,.6-.8,1.7-.2,2.5l3.7,4.3c.3,.4,.8,.6,1.3,.6,0,0,0,0,0,0,.5,0,.9-.2,1.2-.5l7.9-7.8c.7-.7,.7-1.8,0-2.5-.7-.7-1.8-.7-2.5,0l-6.6,6.5-2.4-2.9Zm21.9-12.8s0,0,0-.1c0,0,0-.1,0-.2,0,0,0,0,0-.1,0,0,0-.1,0-.2,0,0,0,0,0-.1,0,0,0,0,0-.1L29.5,2.8s0,0,0,0c0,0-.1-.1-.2-.1,0,0,0,0-.1,0,0,0-.1,0-.2-.1,0,0,0,0,0,0,0,0-.2,0-.3,0,0,0,0,0,0,0-.1,0-.2,0-.4,0H8.6c-1,0-1.8,.8-1.8,1.8V44c0,1,.8,1.8,1.8,1.8h30.9c1,0,1.8-.8,1.8-1.8V16.5c0-.1,0-.2,0-.3Zm-11.3-7.6l5.6,6.2h-5.6v-6.2Zm7.8,33.7H10.3V5.8H26.4v10.8c0,1,.8,1.8,1.8,1.8h9.5v24Z"/></svg>