<svg data-name="Layer 1" xmlns="http://www.w3.org/2000/svg" xmlns:xlink="http://www.w3.org/1999/xlink" viewBox="0 0 512 512"><defs><linearGradient id="c" x1="-5936.1" y1="-2068.48" x2="-5598.86" y2="-1674.14" gradientTransform="rotate(-65 -83.798 -1418.86) scale(.21)" gradientUnits="userSpaceOnUse"><stop offset="0" stop-color="#f59723"/><stop offset=".31" stop-color="#f79823"/><stop offset=".84" stop-color="#e87827"/></linearGradient><linearGradient id="a" x1="-8432.08" y1="-2111.61" x2="-6026.1" y2="-2111.61" gradientTransform="rotate(-65 -83.798 -1418.86) scale(.21)" gradientUnits="userSpaceOnUse"><stop offset=".32" stop-color="#9d2064"/><stop offset=".63" stop-color="#c92038"/><stop offset=".75" stop-color="#cd2035"/><stop offset="1" stop-color="#e87827"/></linearGradient><linearGradient id="b" x1="-8141.65" y1="-1870.32" x2="-6707.91" y2="-1870.32" gradientTransform="rotate(-65 -83.798 -1418.86) scale(.21)" gradientUnits="userSpaceOnUse"><stop offset="0" stop-color="#272761"/><stop offset=".1" stop-color="#66308c"/><stop offset=".79" stop-color="#9f2065"/><stop offset=".95" stop-color="#cd2032"/></linearGradient><linearGradient id="d" x1="-8296.95" y1="-2134.21" x2="-5890.96" y2="-2134.21" xlink:href="#a"/><linearGradient id="e" x1="-8121.48" y1="-2101.5" x2="-6857.06" y2="-2101.5" xlink:href="#b"/><linearGradient id="f" x1="-8296.95" y1="-1885.16" x2="-5890.96" y2="-1885.16" xlink:href="#a"/><linearGradient id="g" x1="-8446.2" y1="-1897.55" x2="-6040.22" y2="-1897.55" xlink:href="#a"/><linearGradient id="h" x1="-8296.95" y1="-1811.21" x2="-5890.96" y2="-1811.21" xlink:href="#a"/><linearGradient id="i" x1="-8296.95" y1="-1819.49" x2="-5890.96" y2="-1819.49" xlink:href="#a"/><linearGradient id="j" x1="-6945.3" y1="-1821.25" x2="-6413.5" y2="-1821.25" xlink:href="#a"/></defs><path d="M344 8.37c-7.84 4.63-20.89 17.73-36.4 36.74l14.26 27a357 357 0 0130.5-38.28l1.19-1.27-1.19 1.27c-3.33 3.64-13.43 15.45-28.65 38.83 14.67-.73 37.18-3.73 55.56-6.86 5.5-30.64-5.35-44.64-5.35-44.64S360.12-1.15 344 8.37z" fill="url(#c)"/><path d="M296 234.9c-1.82.32-3.67.66-5.61 1l2.89-.43c.9-.2 1.83-.38 2.75-.58z" fill="#bd2330"/><path d="M296 234.9c-1.82.32-3.67.66-5.61 1l2.89-.43c.9-.2 1.83-.38 2.75-.58z" style="isolation:isolate" opacity=".35" fill="#bd2330"/><path d="M279.72 141.78q6.51-12.19 13.16-23.75c4.6-8 9.29-15.8 14-23.33.26-.43.58-.89.84-1.33 4.66-7.37 9.38-14.49 14.09-21.26l-14.26-27c-1.07 1.3-2.14 2.63-3.24 4q-6.21 7.73-12.79 16.52c-4.95 6.6-10 13.66-15.19 21.07-4.75 6.83-9.61 14-14.47 21.41q-6.19 9.47-12.35 19.44c-.15.23-.29.49-.44.75l18.61 36.75c3.93-7.91 7.98-15.69 12.04-23.27z" fill="url(#a)"/><path d="M195 348.72c-2.46 6.74-4.95 13.65-7.41 20.68a1 1 0 01-.12.29c-.34 1-.72 2-1 3-1.68 4.75-3.12 9-6.45 18.72 5.47 2.49 9.87 9.09 14 16.55a29.79 29.79 0 00-9.72-20.6c27 1.22 50.26-5.61 62.3-25.34a51.71 51.71 0 002.95-5.59c-5.47 6.95-12.27 9.87-25 9.17h-.09.09c18.81-8.42 28.21-16.49 36.57-29.86 2-3.18 3.91-6.62 5.88-10.47-16.44 16.87-35.45 21.67-55.5 18l-15.05 1.65c-.53 1.28-.96 2.52-1.45 3.8z" fill="url(#b)"/><path d="M202 315.07q4.86-12.6 10-25.47c3.3-8.21 6.65-16.49 10.13-24.76s7-16.64 10.59-25q5.46-12.72 11.25-25.35c3.79-8.33 7.61-16.61 11.52-24.77 1.39-2.95 2.83-5.9 4.25-8.82q3.69-7.6 7.46-15.08c.15-.26.27-.55.41-.81l-18.6-36.74c-.29.49-.61 1-.93 1.47q-6.51 10.64-12.88 21.7t-12.58 22.8c-3.45 6.51-6.83 13-10.16 19.71-.66 1.33-1.3 2.69-2 4-4.05 8.36-7.69 16.38-11 24.16-3.76 8.77-7.06 17.16-9.92 25.11-1.91 5.24-3.62 10.27-5.21 15.14-1.3 4.13-2.52 8.3-3.73 12.44q-4.17 14.58-7.15 29.1l18.69 36.9c2.46-6.6 5-13.31 7.61-20.08.78-1.94 1.48-3.85 2.23-5.7z" fill="url(#d)"/><path d="M173.3 305.2a283.23 283.23 0 00-4.86 35.24l-.09 1.22c-5.85-9.35-21.44-18.46-21.41-18.38 11.2 16.21 19.67 32.29 20.92 48.09-6 1.22-14.18-.55-23.64-4 9.86 9.08 17.27 11.57 20.19 12.27-9.08.58-18.51 6.8-28 14 13.91-5.67 25.17-7.93 33.21-6.1C156.8 423.65 144 463.58 131.2 506a11.16 11.16 0 007.58-7.38c2.28-7.62 17.42-58.07 41.22-124.24.7-1.88 1.36-3.79 2.06-5.67.17-.55.37-1.07.57-1.56 2.49-6.95 5.13-14 7.79-21.27.61-1.65 1.21-3.3 1.85-4.95v-.08L173.53 304c-.06.33-.15.76-.23 1.2z" fill="url(#e)"/><path d="M270.54 168.11c-.55 1.1-1.07 2.2-1.62 3.3-1.62 3.33-3.24 6.71-4.92 10.18-1.79 3.76-3.58 7.58-5.41 11.52-.92 2-1.85 4-2.77 6q-4.17 9.08-8.45 18.75c-3.5 7.9-7.12 16.14-10.74 24.71-3.44 8.16-7 16.58-10.53 25.31q-5.07 12.42-10.27 25.64-4.65 11.76-9.35 24.25c-.14.37-.29.81-.43 1.18q-4.7 12.38-9.43 25.41c-.06.2-.15.37-.21.6l15.05-1.65c-.29-.05-.61-.08-.9-.14 18-2.23 41.9-15.68 57.32-32.26a141.83 141.83 0 0019.53-27.23A242.23 242.23 0 00300 257.46q5.21-12.63 10-27.43a54.56 54.56 0 01-14 4.89c-.93.2-1.86.37-2.81.55s-1.91.32-2.89.43c16.78-6.45 27.34-18.89 35-34.14a59.24 59.24 0 01-20.17 8.83c-1.16.26-2.35.46-3.56.66-.29 0-.61.09-.9.15h.06a67.87 67.87 0 0015-8.39 33.16 33.16 0 002.63-2.15c1.3-1.12 2.52-2.31 3.73-3.53.76-.81 1.48-1.62 2.2-2.46a55.84 55.84 0 004.69-6.45c.43-.72.9-1.42 1.3-2.17.58-1.07 1.1-2.14 1.62-3.15 2.35-4.69 4.23-8.91 5.7-12.59.75-1.85 1.39-3.53 2-5.15.23-.63.43-1.24.64-1.85.6-1.76 1.07-3.33 1.44-4.72a40.68 40.68 0 001.1-4.91 20.34 20.34 0 01-2 1.33c-5.06 3-13.74 5.75-20.74 7.06l13.8-1.51-13.8 1.51a2.4 2.4 0 01-.32 0c-.72.12-1.39.24-2.11.32l.35-.17-47.25 5.18a1.41 1.41 0 01-.18.49z" fill="url(#f)"/><path d="M323.72 72.63C319.53 79.08 315 86.4 310 94.7c-.26.41-.55.9-.78 1.31-4.25 7.17-8.77 15-13.57 23.69-4.11 7.47-8.39 15.45-12.85 24q-5.8 11.24-12 23.87l47.2-5.13c13.78-6.34 19.91-12 25.87-20.34 1.56-2.29 3.18-4.66 4.75-7.15 4.86-7.58 9.6-15.91 13.86-24.22A251.19 251.19 0 00373 87.62a119.92 119.92 0 004.16-12.5c.87-3.27 1.54-6.4 2.06-9.38-18.32 3.16-40.86 6.16-55.5 6.89z" fill="url(#g)"/><path d="M293.18 235.42c-1 .17-1.91.32-2.9.44.99-.09 1.97-.27 2.9-.44z" fill="#bd2330"/><path d="M293.18 235.42c-1 .17-1.91.32-2.9.44.99-.09 1.97-.27 2.9-.44z" style="isolation:isolate" opacity=".35" fill="#bd2330"/><path d="M293.17 235.41c-1 .17-1.91.32-2.89.43.98-.08 1.96-.26 2.89-.43z" fill="url(#h)"/><path d="M300.73 211.35c.29 0 .61-.09.9-.15-.29.03-.58.12-.9.15z" fill="#bd2330"/><path d="M300.73 211.35c.29 0 .61-.09.9-.15-.29.03-.58.12-.9.15z" style="isolation:isolate" opacity=".35" fill="#bd2330"/><path d="M300.72 211.34c.29 0 .61-.09.9-.15-.29.03-.62.12-.9.15z" fill="url(#i)"/><path d="M300.73 211.35s.02 0 0 0z" fill="#bd2330"/><path d="M300.73 211.35s.02 0 0 0z" style="isolation:isolate" opacity=".35" fill="#bd2330"/><path d="M300.72 211.34s.03 0 0 0z" fill="url(#j)"/><path d="M344 8.37c-7.84 4.63-20.89 17.73-36.4 36.74l14.26 27a357 357 0 0130.5-38.28l1.19-1.27-1.19 1.27c-3.33 3.64-13.43 15.45-28.65 38.83 14.67-.73 37.18-3.73 55.56-6.86 5.5-30.64-5.35-44.64-5.35-44.64S360.12-1.15 344 8.37z" fill="url(#c)"/><path d="M296 234.9c-1.82.32-3.67.66-5.61 1l2.89-.43c.9-.2 1.83-.38 2.75-.58z" fill="#bd2330"/><path d="M296 234.9c-1.82.32-3.67.66-5.61 1l2.89-.43c.9-.2 1.83-.38 2.75-.58z" style="isolation:isolate" opacity=".35" fill="#bd2330"/><path d="M279.72 141.78q6.51-12.19 13.16-23.75c4.6-8 9.29-15.8 14-23.33.26-.43.58-.89.84-1.33 4.66-7.37 9.38-14.49 14.09-21.26l-14.26-27c-1.07 1.3-2.14 2.63-3.24 4q-6.21 7.73-12.79 16.52c-4.95 6.6-10 13.66-15.19 21.07-4.75 6.83-9.61 14-14.47 21.41q-6.19 9.47-12.35 19.44c-.15.23-.29.49-.44.75l18.61 36.75c3.93-7.91 7.98-15.69 12.04-23.27z" fill="url(#a)"/><path d="M195 348.72c-2.46 6.74-4.95 13.65-7.41 20.68a1 1 0 01-.12.29c-.34 1-.72 2-1 3-1.68 4.75-3.12 9-6.45 18.72 5.47 2.49 9.87 9.09 14 16.55a29.79 29.79 0 00-9.72-20.6c27 1.22 50.26-5.61 62.3-25.34a51.71 51.71 0 002.95-5.59c-5.47 6.95-12.27 9.87-25 9.17h-.09.09c18.81-8.42 28.21-16.49 36.57-29.86 2-3.18 3.91-6.62 5.88-10.47-16.44 16.87-35.45 21.67-55.5 18l-15.05 1.65c-.53 1.28-.96 2.52-1.45 3.8z" fill="url(#b)"/><path d="M202 315.07q4.86-12.6 10-25.47c3.3-8.21 6.65-16.49 10.13-24.76s7-16.64 10.59-25q5.46-12.72 11.25-25.35c3.79-8.33 7.61-16.61 11.52-24.77 1.39-2.95 2.83-5.9 4.25-8.82q3.69-7.6 7.46-15.08c.15-.26.27-.55.41-.81l-18.6-36.74c-.29.49-.61 1-.93 1.47q-6.51 10.64-12.88 21.7t-12.58 22.8c-3.45 6.51-6.83 13-10.16 19.71-.66 1.33-1.3 2.69-2 4-4.05 8.36-7.69 16.38-11 24.16-3.76 8.77-7.06 17.16-9.92 25.11-1.91 5.24-3.62 10.27-5.21 15.14-1.3 4.13-2.52 8.3-3.73 12.44q-4.17 14.58-7.15 29.1l18.69 36.9c2.46-6.6 5-13.31 7.61-20.08.78-1.94 1.48-3.85 2.23-5.7z" fill="url(#d)"/><path d="M173.3 305.2a283.23 283.23 0 00-4.86 35.24l-.09 1.22c-5.85-9.35-21.44-18.46-21.41-18.38 11.2 16.21 19.67 32.29 20.92 48.09-6 1.22-14.18-.55-23.64-4 9.86 9.08 17.27 11.57 20.19 12.27-9.08.58-18.51 6.8-28 14 13.91-5.67 25.17-7.93 33.21-6.1C156.8 423.65 144 463.58 131.2 506a11.16 11.16 0 007.58-7.38c2.28-7.62 17.42-58.07 41.22-124.24.7-1.88 1.36-3.79 2.06-5.67.17-.55.37-1.07.57-1.56 2.49-6.95 5.13-14 7.79-21.27.61-1.65 1.21-3.3 1.85-4.95v-.08L173.53 304c-.06.33-.15.76-.23 1.2z" fill="url(#e)"/><path d="M270.54 168.11c-.55 1.1-1.07 2.2-1.62 3.3-1.62 3.33-3.24 6.71-4.92 10.18-1.79 3.76-3.58 7.58-5.41 11.52-.92 2-1.85 4-2.77 6q-4.17 9.08-8.45 18.75c-3.5 7.9-7.12 16.14-10.74 24.71-3.44 8.16-7 16.58-10.53 25.31q-5.07 12.42-10.27 25.64-4.65 11.76-9.35 24.25c-.14.37-.29.81-.43 1.18q-4.7 12.38-9.43 25.41c-.06.2-.15.37-.21.6l15.05-1.65c-.29-.05-.61-.08-.9-.14 18-2.23 41.9-15.68 57.32-32.26a141.83 141.83 0 0019.53-27.23A242.23 242.23 0 00300 257.46q5.21-12.63 10-27.43a54.56 54.56 0 01-14 4.89c-.93.2-1.86.37-2.81.55s-1.91.32-2.89.43c16.78-6.45 27.34-18.89 35-34.14a59.24 59.24 0 01-20.17 8.83c-1.16.26-2.35.46-3.56.66-.29 0-.61.09-.9.15h.06a67.87 67.87 0 0015-8.39 33.16 33.16 0 002.63-2.15c1.3-1.12 2.52-2.31 3.73-3.53.76-.81 1.48-1.62 2.2-2.46a55.84 55.84 0 004.69-6.45c.43-.72.9-1.42 1.3-2.17.58-1.07 1.1-2.14 1.62-3.15 2.35-4.69 4.23-8.91 5.7-12.59.75-1.85 1.39-3.53 2-5.15.23-.63.43-1.24.64-1.85.6-1.76 1.07-3.33 1.44-4.72a40.68 40.68 0 001.1-4.91 20.34 20.34 0 01-2 1.33c-5.06 3-13.74 5.75-20.74 7.06l13.8-1.51-13.8 1.51a2.4 2.4 0 01-.32 0c-.72.12-1.39.24-2.11.32l.35-.17-47.25 5.18a1.41 1.41 0 01-.18.49z" fill="url(#f)"/><path d="M323.72 72.63C319.53 79.08 315 86.4 310 94.7c-.26.41-.55.9-.78 1.31-4.25 7.17-8.77 15-13.57 23.69-4.11 7.47-8.39 15.45-12.85 24q-5.8 11.24-12 23.87l47.2-5.13c13.78-6.34 19.91-12 25.87-20.34 1.56-2.29 3.18-4.66 4.75-7.15 4.86-7.58 9.6-15.91 13.86-24.22A251.19 251.19 0 00373 87.62a119.92 119.92 0 004.16-12.5c.87-3.27 1.54-6.4 2.06-9.38-18.32 3.16-40.86 6.16-55.5 6.89z" fill="url(#g)"/><path d="M293.18 235.42c-1 .17-1.91.32-2.9.44.99-.09 1.97-.27 2.9-.44z" fill="#bd2330"/><path d="M293.18 235.42c-1 .17-1.91.32-2.9.44.99-.09 1.97-.27 2.9-.44z" style="isolation:isolate" opacity=".35" fill="#bd2330"/><path d="M293.17 235.41c-1 .17-1.91.32-2.89.43.98-.08 1.96-.26 2.89-.43z" fill="url(#h)"/><path d="M300.73 211.35c.29 0 .61-.09.9-.15-.29.03-.58.12-.9.15z" fill="#bd2330"/><path d="M300.73 211.35c.29 0 .61-.09.9-.15-.29.03-.58.12-.9.15z" style="isolation:isolate" opacity=".35" fill="#bd2330"/><path d="M300.72 211.34c.29 0 .61-.09.9-.15-.29.03-.62.12-.9.15z" fill="url(#i)"/><path d="M300.73 211.35s.02 0 0 0z" fill="#bd2330"/><path d="M300.73 211.35s.02 0 0 0z" style="isolation:isolate" opacity=".35" fill="#bd2330"/><path d="M300.72 211.34s.03 0 0 0z" fill="url(#j)"/></svg>