<svg data-name="Layer 1" xmlns="http://www.w3.org/2000/svg" viewBox="0 0 512 512"><path d="M334.52 158.52l.05-.1a7.54 7.54 0 017.06 4.07c3.8 6.55 3.18 19.44 0 32.93h-25.55V201h24.14a118 118 0 01-10.33 25.52l-1.32 2.33 32 20.15-18 11.87 3.08 4.68 20.15-13.28 21.73 14.18 3-4.73-20.16-12.47s30.14-19.59 31.64-20.51c-6.64-9.77-8.79-18.16-6-27.68h26.57l.05-5.58h-24.48c4.51-10.62 10.83-20.17 33.38-20.17v-5.61c-20.81 0-33.26 8.26-39.22 25.78h-44.92c3.13-14 3.68-27.77-1-35.73a13.11 13.11 0 00-11.89-6.84c-18.56 0-25.87 19-26.17 19.76l5.25 1.95c.28-.62 6.33-16.1 20.94-16.1zm31.2 87.09l-23.67-14.9h46.26zm24.6-44.6c-1.95 6.35-1.19 15.91 3.7 24.1H337a133.47 133.47 0 009-24.1z"/><path d="M498.59 412.05V412c-9.5-10.63-28.1-15.63-43.64-15.28-9.9-11.79-62.5-67.27-73.07-78.46a200.61 200.61 0 0055.6-59.15h29v-6.23h-25.31q2.43-4.31 4.65-8.72h20.67v-6.22h-17.66c13.12-28.33 20.39-60.89 19.69-96.51h.06c0-9.77-3.06-50.93-8.64-62.28-15.13 5.75-42.65 24.41-48.88 43.42a302.94 302.94 0 00-93 1.17c-4.93-20.51-29.65-36.13-48.31-45-7.81 13.27-11.35 44-10.46 65.88l-.1.07a254.9 254.9 0 007.73 54.48c-64.45 16-134.71 58.23-174 99.06-18.38-24.76-25.68-45.17-27.85-60.56-2.73-19.53 2-37.36 13.46-51.7 18.06-22.46 43.73-24 70.11-19.58-.51 4.17 0 8.15 1.7 10.62 7 10.3 44.48 13.92 66.87 3.9-16.52-23.14-50-34.44-59.26-29.92a15.89 15.89 0 00-7 7.47c-9.12-1.63-18.18-2.84-24.8-2.79-23.27.16-41 8.3-54.39 24.85-13.08 16.27-18.36 36.41-15.28 58.36 2.99 20.75 13.25 42.83 30.52 65.72q-4.18 4.5-8.29 9.08C36.69 360.66 6 411 6 419.37v4.33h55.38l-1-5.13c-3.14-16.53 3.11-37.19 15.91-52.63 8-9.7 21.33-20.76 42.22-25.87 18.55 18.13 42.23 37.38 68.57 55.95h41.17v-4.27a14.15 14.15 0 00-6.84-12c-6.49-4.25-16.53-4.83-25.75-1.69-8.79-9.76-13.72-22.87-14.79-39.11 89.33 7.91 174.82 43.95 271.17 94.34h53l.69-3.48c1.05-4.98-1.63-11.61-7.14-17.76z"/><path d="M92.51 311.86C51.36 356 23.49 399.77 16.4 415.05h34.82c-1.59-17.93 5.35-38.82 18.45-54.63A85.5 85.5 0 01111.38 333q-9.9-10.16-18.85-21.16zM492.2 417.92c-3.16-3.54-15.07-14.92-36-13.11l-3.36.28-39.72-42.76-29.22 7.57 21.22-16.18-12.59-13.56-21.7 9.91 12.72-19.57-7.55-8.07q-4.63 3-9.52 5.8c-6.86-4-13.45-8.49-19.89-13.16-1-.75-2-1.54-3-2.3q-8-6-15.47-12.72c-1.13-1-2.27-2-3.39-3.05A201.76 201.76 0 01294 260.53c-.32-.49-.71-.9-1-1.39h-31v-6.23h27.06c-.82-1.38-1.56-2.79-2.34-4.19-.64-1.14-1.3-2.27-1.93-3.43-.19-.37-.42-.73-.61-1.1H262V238h19c-.44-.92-.67-1.93-1.1-2.85a205.46 205.46 0 01-10.63-27.35.14.14 0 000-.06 320.74 320.74 0 00-42.36 14l13.69 40.56-41.76-28c-4.19 2.08-8.29 4.39-12.42 6.62l13.93 24-29.7-15.09c-6.53 3.9-12.94 7.91-19.17 12.11l6.54 23.37-20-13.88c-1.12.83-2.34 1.59-3.45 2.43-.44.33-.85.7-1.29 1-6.22 4.75-12.23 9.6-17.88 14.56l-.65.62c-5.74 5.07-11.19 10.23-16.22 15.46a308 308 0 0022.65 25.12 116.93 116.93 0 0122.32-2.09q14.3 0 28.57 1 .38-19.9 7-44.46l8.34 2.26v.12h.08q-6.47 23.85-6.74 42.73c90.69 7.84 176.1 43.62 273.38 94.39h42.34a24.2 24.2 0 00-4.27-6.65z" fill="#d1a41a"/><path d="M365.72 245.62l22.59-14.89h-46.26zm24.6-44.62H346a133.47 133.47 0 01-9 24.1h57c-4.87-8.18-5.63-17.74-3.68-24.1zm65.14-109.34c-3.39 15.39-9.54 33-25.38 44.51-1.82-.5-3.8-.85-5.68-1.3q-6.76-1.63-13.94-2.82c-3.15-.51-6.3-1-9.55-1.42-6.22-.74-12.56-1.28-19-1.58-1.23-.05-2.47 0-3.7-.07l-9.54 32.93-14.89-32.65c-1.23.07-2.48.07-3.71.15-6.21.42-12.31 1.08-18.31 1.91-3.49.48-6.87 1.09-10.25 1.71-4.17.77-8.2 1.66-12.14 2.64-2.19.54-4.49 1-6.6 1.6-17.23-7.36-25.2-22.37-29.58-46.32-.1.41-.17.89-.27 1.3-1.16 4.81-2.08 10-2.83 15.33-.23 1.62-.44 3.23-.63 4.9-.69 6.11-1.22 12.42-1.36 19v.12c-.14 6.77.12 13.81.62 21 .09 1.3.18 2.59.29 3.89.63 7.3 1.53 14.7 2.86 22.19a1.55 1.55 0 01.05.23l24.12 12.8L275 193.1c1 4.12 2.17 8.2 3.4 12.26.12.4.22.81.34 1.21l13.66 5.48-10.78 3.07c.11.31.24.62.35.92a209 209 0 009.03 21.51l.18.39h21.28v6.22h-18.07c1.58 2.94 3.26 5.85 5 8.72h13.1v6.23h-9.15c.17.26.36.5.53.76A174.13 174.13 0 00315 274.7c.71.86 1.46 1.68 2.19 2.52a163.43 163.43 0 0012 12.43c.86.81 1.71 1.62 2.6 2.41a160.12 160.12 0 0015 11.88c.45.32.87.67 1.32 1a162.5 162.5 0 0019.19 11.28c5-2.87 9.77-6.13 14.46-9.45 1.09-.78 2.27-1.42 3.34-2.22 3.45-2.56 6.63-5.45 9.88-8.25 2.46-2.12 5-4.15 7.34-6.41 2.76-2.65 5.3-5.52 7.88-8.34s5.09-5.57 7.48-8.53 4.45-5.81 6.58-8.81c1.17-1.64 2.24-3.37 3.36-5.06h-11.56v-6.23h15.74c.44-.72 1-1.36 1.38-2.08.67-1.13 1.3-2.26 1.94-3.4s1-2.19 1.57-3.24h-20.63V238h23.64c1.17-2.42 2.44-4.76 3.51-7.24.89-2.08 1.85-4.13 2.66-6.23.25-.64.41-1.34.65-2l-11.45-4.12 14.14-4.11c.94-2.9 2-5.71 2.84-8.69.44-1.65 1-3.29 1.37-5 .11-.46.15-.95.26-1.42L438.73 197l16.65-7.08c.54-2.92 1.18-5.79 1.59-8.78.38-2.67.78-5.34 1-8a208 208 0 001.12-24.66v-.31c0-.1.53-38.52-3.63-56.51zm-23.93 83.66c-22.55 0-28.87 9.55-33.38 20.17h24.48l-.05 5.58H396c-2.81 9.52-.66 17.91 6 27.68-1.5.92-31.64 20.51-31.64 20.51l20.16 12.47-3 4.73-21.73-14.18-20.15 13.28-3.08-4.68 18-11.87-32-20.15 1.32-2.33A118 118 0 00340.22 201h-24.14v-5.59h25.55c3.18-13.49 3.8-26.38 0-32.93a7.54 7.54 0 00-7.06-4.07l-.05.1c-14.61 0-20.66 15.43-20.92 16.11l-5.25-1.95c.3-.81 7.61-19.76 26.17-19.76a13.11 13.11 0 0111.89 6.84c4.66 8 4.11 21.72 1 35.73h44.92c6-17.52 18.41-25.78 39.22-25.78z" fill="#ffdc76"/><path d="M334.52 158.52l.05-.1a7.54 7.54 0 017.06 4.07c3.8 6.55 3.18 19.44 0 32.93h-25.55V201h24.14a118 118 0 01-10.33 25.52l-1.32 2.33 32 20.15-18 11.87 3.08 4.68 20.15-13.28 21.73 14.18 3-4.73-20.16-12.47s30.14-19.59 31.64-20.51c-6.64-9.77-8.79-18.16-6-27.68h26.57l.05-5.58h-24.48c4.51-10.62 10.83-20.17 33.38-20.17v-5.61c-20.81 0-33.26 8.26-39.22 25.78h-44.92c3.13-14 3.68-27.77-1-35.73a13.11 13.11 0 00-11.89-6.84c-18.56 0-25.87 19-26.17 19.76l5.25 1.95c.28-.62 6.33-16.1 20.94-16.1zm31.2 87.09l-23.67-14.9h46.26zm24.6-44.6c-1.95 6.35-1.19 15.91 3.7 24.1H337a133.47 133.47 0 009-24.1z"/><path d="M498.59 412.05V412c-9.5-10.63-28.1-15.63-43.64-15.28-9.9-11.79-62.5-67.27-73.07-78.46a200.61 200.61 0 0055.6-59.15h29v-6.23h-25.31q2.43-4.31 4.65-8.72h20.67v-6.22h-17.66c13.12-28.33 20.39-60.89 19.69-96.51h.06c0-9.77-3.06-50.93-8.64-62.28-15.13 5.75-42.65 24.41-48.88 43.42a302.94 302.94 0 00-93 1.17c-4.93-20.51-29.65-36.13-48.31-45-7.81 13.27-11.35 44-10.46 65.88l-.1.07a254.9 254.9 0 007.73 54.48c-64.45 16-134.71 58.23-174 99.06-18.38-24.76-25.68-45.17-27.85-60.56-2.73-19.53 2-37.36 13.46-51.7 18.06-22.46 43.73-24 70.11-19.58-.51 4.17 0 8.15 1.7 10.62 7 10.3 44.48 13.92 66.87 3.9-16.52-23.14-50-34.44-59.26-29.92a15.89 15.89 0 00-7 7.47c-9.12-1.63-18.18-2.84-24.8-2.79-23.27.16-41 8.3-54.39 24.85-13.08 16.27-18.36 36.41-15.28 58.36 2.99 20.75 13.25 42.83 30.52 65.72q-4.18 4.5-8.29 9.08C36.69 360.66 6 411 6 419.37v4.33h55.38l-1-5.13c-3.14-16.53 3.11-37.19 15.91-52.63 8-9.7 21.33-20.76 42.22-25.87 18.55 18.13 42.23 37.38 68.57 55.95h41.17v-4.27a14.15 14.15 0 00-6.84-12c-6.49-4.25-16.53-4.83-25.75-1.69-8.79-9.76-13.72-22.87-14.79-39.11 89.33 7.91 174.82 43.95 271.17 94.34h53l.69-3.48c1.05-4.98-1.63-11.61-7.14-17.76z"/><path d="M92.51 311.86C51.36 356 23.49 399.77 16.4 415.05h34.82c-1.59-17.93 5.35-38.82 18.45-54.63A85.5 85.5 0 01111.38 333q-9.9-10.16-18.85-21.16zM492.2 417.92c-3.16-3.54-15.07-14.92-36-13.11l-3.36.28-39.72-42.76-29.22 7.57 21.22-16.18-12.59-13.56-21.7 9.91 12.72-19.57-7.55-8.07q-4.63 3-9.52 5.8c-6.86-4-13.45-8.49-19.89-13.16-1-.75-2-1.54-3-2.3q-8-6-15.47-12.72c-1.13-1-2.27-2-3.39-3.05A201.76 201.76 0 01294 260.53c-.32-.49-.71-.9-1-1.39h-31v-6.23h27.06c-.82-1.38-1.56-2.79-2.34-4.19-.64-1.14-1.3-2.27-1.93-3.43-.19-.37-.42-.73-.61-1.1H262V238h19c-.44-.92-.67-1.93-1.1-2.85a205.46 205.46 0 01-10.63-27.35.14.14 0 000-.06 320.74 320.74 0 00-42.36 14l13.69 40.56-41.76-28c-4.19 2.08-8.29 4.39-12.42 6.62l13.93 24-29.7-15.09c-6.53 3.9-12.94 7.91-19.17 12.11l6.54 23.37-20-13.88c-1.12.83-2.34 1.59-3.45 2.43-.44.33-.85.7-1.29 1-6.22 4.75-12.23 9.6-17.88 14.56l-.65.62c-5.74 5.07-11.19 10.23-16.22 15.46a308 308 0 0022.65 25.12 116.93 116.93 0 0122.32-2.09q14.3 0 28.57 1 .38-19.9 7-44.46l8.34 2.26v.12h.08q-6.47 23.85-6.74 42.73c90.69 7.84 176.1 43.62 273.38 94.39h42.34a24.2 24.2 0 00-4.27-6.65z" fill="#d1a41a"/><path d="M365.72 245.62l22.59-14.89h-46.26zm24.6-44.62H346a133.47 133.47 0 01-9 24.1h57c-4.87-8.18-5.63-17.74-3.68-24.1zm65.14-109.34c-3.39 15.39-9.54 33-25.38 44.51-1.82-.5-3.8-.85-5.68-1.3q-6.76-1.63-13.94-2.82c-3.15-.51-6.3-1-9.55-1.42-6.22-.74-12.56-1.28-19-1.58-1.23-.05-2.47 0-3.7-.07l-9.54 32.93-14.89-32.65c-1.23.07-2.48.07-3.71.15-6.21.42-12.31 1.08-18.31 1.91-3.49.48-6.87 1.09-10.25 1.71-4.17.77-8.2 1.66-12.14 2.64-2.19.54-4.49 1-6.6 1.6-17.23-7.36-25.2-22.37-29.58-46.32-.1.41-.17.89-.27 1.3-1.16 4.81-2.08 10-2.83 15.33-.23 1.62-.44 3.23-.63 4.9-.69 6.11-1.22 12.42-1.36 19v.12c-.14 6.77.12 13.81.62 21 .09 1.3.18 2.59.29 3.89.63 7.3 1.53 14.7 2.86 22.19a1.55 1.55 0 01.05.23l24.12 12.8L275 193.1c1 4.12 2.17 8.2 3.4 12.26.12.4.22.81.34 1.21l13.66 5.48-10.78 3.07c.11.31.24.62.35.92a209 209 0 009.03 21.51l.18.39h21.28v6.22h-18.07c1.58 2.94 3.26 5.85 5 8.72h13.1v6.23h-9.15c.17.26.36.5.53.76A174.13 174.13 0 00315 274.7c.71.86 1.46 1.68 2.19 2.52a163.43 163.43 0 0012 12.43c.86.81 1.71 1.62 2.6 2.41a160.12 160.12 0 0015 11.88c.45.32.87.67 1.32 1a162.5 162.5 0 0019.19 11.28c5-2.87 9.77-6.13 14.46-9.45 1.09-.78 2.27-1.42 3.34-2.22 3.45-2.56 6.63-5.45 9.88-8.25 2.46-2.12 5-4.15 7.34-6.41 2.76-2.65 5.3-5.52 7.88-8.34s5.09-5.57 7.48-8.53 4.45-5.81 6.58-8.81c1.17-1.64 2.24-3.37 3.36-5.06h-11.56v-6.23h15.74c.44-.72 1-1.36 1.38-2.08.67-1.13 1.3-2.26 1.94-3.4s1-2.19 1.57-3.24h-20.63V238h23.64c1.17-2.42 2.44-4.76 3.51-7.24.89-2.08 1.85-4.13 2.66-6.23.25-.64.41-1.34.65-2l-11.45-4.12 14.14-4.11c.94-2.9 2-5.71 2.84-8.69.44-1.65 1-3.29 1.37-5 .11-.46.15-.95.26-1.42L438.73 197l16.65-7.08c.54-2.92 1.18-5.79 1.59-8.78.38-2.67.78-5.34 1-8a208 208 0 001.12-24.66v-.31c0-.1.53-38.52-3.63-56.51zm-23.93 83.66c-22.55 0-28.87 9.55-33.38 20.17h24.48l-.05 5.58H396c-2.81 9.52-.66 17.91 6 27.68-1.5.92-31.64 20.51-31.64 20.51l20.16 12.47-3 4.73-21.73-14.18-20.15 13.28-3.08-4.68 18-11.87-32-20.15 1.32-2.33A118 118 0 00340.22 201h-24.14v-5.59h25.55c3.18-13.49 3.8-26.38 0-32.93a7.54 7.54 0 00-7.06-4.07l-.05.1c-14.61 0-20.66 15.43-20.92 16.11l-5.25-1.95c.3-.81 7.61-19.76 26.17-19.76a13.11 13.11 0 0111.89 6.84c4.66 8 4.11 21.72 1 35.73h44.92c6-17.52 18.41-25.78 39.22-25.78z" fill="#ffdc76"/></svg>