<svg data-name="Layer 1" xmlns="http://www.w3.org/2000/svg" viewBox="0 0 512 512"><path d="M322.13 158.7l-8.48 6.71c-4.66 3.73-11 8.38-14.17 10.36s-5.34 4.49-5 5.68 10.14 4.68 21.7 7.76c19.36 5.13 57.12 21.16 55 23.3-.51.52-11.89-2.3-25.32-6.12-42.74-12.29-64.1-14.8-113.27-13.43-36.57 1-47.64 2.17-66.35 7.09-45.9 12.1-91.58 36.95-118.04 64.25-7.13 7.38-16 15.36-19.69 17.71-7.91 1.88-10.44.37-13.15-1a5.23 5.23 0 01-2.2-2.66 59.17 59.17 0 01-2.94 8.49 20.68 20.68 0 013.68-.37 26.59 26.59 0 0110.48 1.77l10.35 7.6c43.54 32.16 67 43.43 91.44 43.84 12.79.21 17.21-.82 26.48-6.28 5.35-3.14 10.62-7.2 12.66-9.67a5.75 5.75 0 00.66-.95c1.36-2.44 2.65-3.17 3.46-2.73 19.56-5 54.2.45 108.62 19.63h.15q16.31.48 49.23 14.31c3.21 1.35 4.13.58 4.13-3.45 0-12.34 14.4-28.54 27-32.23v-.07c21.71-12.39 48.35-15.18 72-15.79l-1-.37 10.47-.73c15.63-1.16 29.35 5.15 40.74 18.66 5.38 6.38 10.63 11.58 11.74 11.58 3.28 0 2.3-14.46-2.66-38-3.7-17.58-4.33-27.14-3.18-46 .9-14.78.57-24.42-.89-25.32s-10.76.58-21 3c-28.17 6.68-41.11 8.22-41.11 4.94a1.48 1.48 0 01.37-.67c-14 4.83-34.2-2.47-43-10.91-9.42-9-4.73-21.87-9.3-31.36 0 3-.54 2.93-4.14-.15-2.3-2-9.32-5-15.71-6.71a43.76 43.76 0 01-20.7-12.41z" fill="#f2f2f2"/><path d="M200.78 272c-.86-17.27-2.18-35.28-2.95-40.15-.8-5-.43-8.85.86-8.85 2.3 0 8.46 12.8 11.38 23.61a29.93 29.93 0 005.23 10c3.27 3.72 3.25 4.6-.28 8.44-2.15 2.39-3.91 8-3.92 12.41 0 9.9-4.24 25.78-6.91 25.78-.95.03-2.52-14.04-3.41-31.24zm30.59 19c-.54-1.71-1.53-16.73-2.21-33.38-1-25.57-.74-29.87 2-27.63 1.79 1.49 4 6.08 4.81 10.21a47.2 47.2 0 005.13 13.12c2.65 4.19 2.93 6.91 1.14 10.63-1.34 2.76-3.1 10.05-3.92 16.18-1.47 11.13-5.09 16.77-6.93 10.86zm28.77-30.75c-.61-16-.69-29.53-.16-30.14 1.51-1.77 5.19 5 8.25 15.28 1.56 5.2 3.84 10.13 5.07 11s1.38 3.46.25 5.9a115.85 115.85 0 00-4.48 14.81c-4.73 19.73-7.74 14.04-8.93-16.81zm31.08 12.88a244.84 244.84 0 00-2-26.08c-1-6.9-1-13-.09-13.56 2.53-1.56 6.35 4 8.23 11.92a23.43 23.43 0 006.69 11.11l5 4-5.32 3.77c-3 2.08-5.32 6.25-5.32 9.34 0 7.11-2.3 13.05-5 13.05-1.12 0-2.14-6.13-2.23-13.61zm28.48-5.69a187.94 187.94 0 00-1.55-24.18c-2-12.33 2.06-9.66 9.71 6.31 5 10.43 5.37 12.73 2.61 15.83a20.75 20.75 0 00-4 9.33c-.45 3.15-2.14 6.16-3.76 6.69-2.16.71-3-3.07-3-14zm26-9.57c0-19.81.32-21.42 3.72-18 5.11 5.12 6.9 20.94 3.45 31.27-4.65 14.22-7.07 9.67-7.07-13.24zm24.69 4c-4.42-3.45-4.32-3.6 2.46-3 3.89.36 6.91 1.68 6.67 3-.69 3.84-4.25 3.85-9.13 0z" fill="#febc5b"/><path d="M320.87 145.19c-3.94 0-8.54 1.65-14.76 4.61-5.42 2.62-17.57 7.49-27 10.85s-21.44 8.44-26.63 11.36c-7.63 4.28-13.51 5.39-30.42 5.69C158.45 178.85 92 200.58 45 235.76 20.67 254 6.57 275.54 15.36 281c2.7 1.4 5.24 2.91 13.14 1 3.69-2.3 12.56-10.36 19.69-17.71C74.66 237 120.33 212.15 166.25 200c18.75-4.89 29.75-6 66.35-7.06 49.17-1.37 70.53 1.15 113.27 13.43 13.42 3.87 24.81 6.64 25.32 6.12 2.14-2.14-35.62-18.17-55-23.32-11.51-3.06-21.31-6.55-21.7-7.74s1.82-3.73 4.95-5.68 9.51-6.61 14.17-10.36l8.48-6.71 9.08 9.29a43.8 43.8 0 0020.67 12.4c6.38 1.73 13.44 4.76 15.71 6.72 3.62 3.11 4.13 3.14 4.13.07 0-4.53-8.34-11.77-19.26-16.68-4.74-2.07-10.58-6.68-13-10.13-7.33-10.58-12-15.14-18.6-15.14zM494.8 197c-8.38 0-71.13 29.29-71.13 33.2 0 3.28 12.94 1.74 41.1-4.95 10.27-2.42 19.75-3.81 21-3s1.78 10.53.89 25.32c-1.16 18.89-.52 28.45 3.17 46 4.94 23.54 5.94 38 2.66 38-1.09 0-6.35-5.2-11.74-11.57-11.38-13.52-25.1-19.79-40.73-18.67l-10.48.73 15.57 5.39c17.14 5.93 22.52 10.69 37.78 33.58 5.63 8.43 11.35 16.11 12.66 17.11 3.57 2.53 5.09 2.22 8.34-1.69 1.39-1.68 2-6.35 2-16.46v-.08c.22-7.08 0-16.34-.75-28-.19-3.29-.34-5.47-.5-8.41-1.56-36.91-1.41-44.13.36-68.7 2.2-30.13.11-37.83-10.23-37.83zm-383.21 45.16c-6.19-.25-12.84 3.25-17.34 10.11-4.1 6.25-2.66 11.64 5.6 21.11 5 5.76 16.23 3.56 23.32-4.5 6.5-7.39 6.55-9.58.6-19.34a14.73 14.73 0 00-12.18-7.38zm-7.09 11.66c2.67-.44 8.19 3.13 9.3 6.5 1.41 4.2-8.86 3.45-10.47-.82-.77-2-.66-4.36.22-5.24a1.68 1.68 0 01.95-.44zm-90.62 32.61a21.5 21.5 0 00-3.91.45c-.16.14-.29.3-.44.44-2.69 1-3.86 3.45-3.45 7.31v.15a11.8 11.8 0 00.72 4.63 12 12 0 002.45 4c11.51 12.66 70.11 42.76 91.58 47 14.24 2.81 21.13 2.78 34.46-.07S165.09 336.61 169 328c3.06-6.72.32-11.34-3.1-5.23-1.25 2.23-7.24 7-13.36 10.62-9.27 5.46-13.7 6.48-26.48 6.28-24.42-.41-47.9-11.69-91.43-43.84l-10.36-7.6a26.47 26.47 0 00-10.49-1.78zm349.8 31.08c-13.45-.23-32.11 18.93-32.11 33 0 4.05-.92 4.82-4.13 3.45q-48.13-20.2-60.74-12c-6.85 4.49-7.89 12.34-1.84 14.1 2.3.66 14.76 2.44 27.75 4s25.21 3.71 27.16 4.8a18.46 18.46 0 009.44 1.91h.66a13.11 13.11 0 007.38-1.84l.15-.07s0-.05.08-.08a10 10 0 001.76-1c2.87-2.17 4.13-6.46 4.13-13.82 0-11.24 3.59-16.73 17.72-27.16 5.81-4.28 6.28-5.25 2.59-5.31z" fill="#4d88e8"/><path d="M114.38 328.55l-8.27-2.45 14.71-2.79c19.48-3.68 24.25-8.18 24.25-22.86 0-12.47 2.44-14.33 8.14-6.19 8.22 11.73 2.55 27.93-11.91 34-9.07 3.78-15.31 3.87-26.92.37zM439 277.74a32 32 0 00-2.11-18.29c-4.61-11-4.61-10.63.82-10.63 6.66 0 17.26 13.52 15.43 19.75-1.92 6.7-8.85 16.3-12.66 17.58-2.34.81-2.68-1.22-1.47-8.4zm-84.92-57.55c-46.67-15.06-129.24-15.5-184.91-1-11.37 3-13.91 3-16.66.27-4.68-4.68 3.79-9.6 27-15.65 45.37-8.68 156.29-12.17 194.67 20.08 0 2-4.86 1.14-20.06-3.73z" fill="#71a0fe"/></svg>