<svg data-name="Layer 1" xmlns="http://www.w3.org/2000/svg" viewBox="0 0 512 512"><path d="M498.09 280a.17.17 0 00-.07-.09L473.49 256l22.84-22.21a.36.36 0 00.13-.17.83.83 0 010-.12v-.09a.71.71 0 000-.2l-.07-.13a.43.43 0 00-.22-.17h-.07l-58.19-11.64s0-.1-.07-.13-.09 0-.14 0 0-.1-.06-.11L380.76 206a.68.68 0 00-.84.49.65.65 0 00.49.83l55.95 14.82-22.71 35.4-34.15-51.23.31-.26a1.44 1.44 0 00.35-.48.72.72 0 00.39.11.7.7 0 00.58-.3l40.14-58.53v-.13l37.59 21.47-22 51.65a.52.52 0 000 .18v.06a.4.4 0 00.07.18.48.48 0 00.15.2h.29a.56.56 0 00.27-.08l51.83-35.12s0-.08.06-.11.09 0 .12-.07 0-.06 0-.1.09-.1.09-.16a.48.48 0 00-.09-.3h-.14c-.05 0 0-.11 0-.14l-29.28-16.73 11.09-26.07a.78.78 0 000-.21s-.05 0-.06-.06a.46.46 0 00-.27-.39s-.06.05-.1 0-.05-.09-.1-.09l-50.15 3.34a.54.54 0 00-.49.53v.05l-.42-.25 24.83-43a.62.62 0 00.06-.26.54.54 0 00-.26-.47c-.05 0-.08.05-.13 0s0-.1-.07-.1l-30-4.56-3-28.41a.8.8 0 000-.15c-.05-.08-.15 0-.22-.07s-.12-.22-.24-.22h-.07s0 .08-.08.1-.07-.07-.12 0L367.8 88.72l3.28-45.88v-.05a.55.55 0 00-.06-.26l-.06-.09a.48.48 0 00-.27-.12h-.24l-26.47 7.48-16.44-27.34a.06.06 0 010-.05.46.46 0 00-.2-.16.24.24 0 00-.11 0 .49.49 0 00-.29 0 .46.46 0 00-.16.11v.05l-33.23 39.73-12.79-47.91v-.09a.47.47 0 00-.16-.2.16.16 0 00-.09-.06h-.31a.63.63 0 00-.26.11l-24.28 19.62-23.57-18a.67.67 0 00-.14-.09h-.09a.67.67 0 00-.25 0 .64.64 0 00-.21.14.23.23 0 00-.08.11 1.33 1.33 0 00-.06.12l-12.77 46.26-33.14-39.76-.09-.1-.08-.05a.55.55 0 00-.24 0 .41.41 0 00-.25.08.53.53 0 00-.12.1.35.35 0 00-.07.09l-16.41 27.26-26.48-7.48h-.27a.43.43 0 00-.21.09.56.56 0 00-.18.22.19.19 0 000 .07.71.71 0 000 .15l3.29 45.9-42.7-19.66h-.1c-.03 0 0-.08-.07-.08h-.06c-.12 0-.15.14-.24.22s-.2 0-.24.09a.37.37 0 000 .15l-3.13 28.8-29.88 5.85s0 .08-.07.1-.07 0-.11 0a.5.5 0 00-.26.45.41.41 0 000 .08.41.41 0 000 .18L91 144.24l-49.86-3.32s0 .08-.1.09-.07-.06-.12 0 0 .17-.1.25-.2.08-.21.2c0 .05.08.05.09.1s-.07.07 0 .12L53 169.26l-28.87 16.88c-.06 0 0 .1-.08.15s-.08 0-.1 0 0 .07 0 .11-.11.11-.11.19a.63.63 0 00.06.27s.1 0 .15.08 0 .07 0 .09l50.78 34.4-60.56 11.48c-.08 0-.07.11-.13.15s-.12 0-.16 0a.54.54 0 00-.14.37.38.38 0 000 .1h.05a.43.43 0 00.1.24l24.7 22.7L14 279.88v.15c0 .05-.15.06-.16.14s.11.12.15.21-.08.17 0 .25a.49.49 0 00.26.1l60.57 9.81-52.38 36.1a.4.4 0 00-.12.11 1.09 1.09 0 00-.06.11.42.42 0 00-.05.22.72.72 0 00.09.27.55.55 0 00.17.11l29.74 16.29-11.6 26.5a.6.6 0 000 .22v.05s.06 0 .07.07a.53.53 0 00.25.37.71.71 0 00.21 0h.05l50.17-5a.54.54 0 00.47-.53l.42.22-24.8 44.68-.06.11a.68.68 0 000 .14.4.4 0 00.07.24.46.46 0 00.15.16.62.62 0 00.26.09l29.76 3.88 3.21 30.75a.28.28 0 000 .13.78.78 0 000 .14.6.6 0 00.21.17.55.55 0 00.17.05 1.34 1.34 0 00.27-.07l42.61-24.6-3.29 49.18v.07a.4.4 0 00.07.24.38.38 0 00.13.15.67.67 0 00.2.12h.27l27.52-8.21 15.49 26.47.08.09.12.09a.6.6 0 00.19.06h.07a.28.28 0 00.18 0 .54.54 0 00.18-.11l.06-.07 31.15-41 1.6-.48a.56.56 0 00.22 0 .85.85 0 00.24-.05.42.42 0 00.18-.11l38-29.58L294.89 448a.58.58 0 00.21.07v.07l.4.53a.35.35 0 01-.13-.07h-.18a.58.58 0 00-.26.11l-38.65 30.5-37.62-30.5a.56.56 0 00-.19-.09.3.3 0 00-.22 0 .48.48 0 00-.19.09l-.13.13a.49.49 0 00-.08.18.37.37 0 000 .11.57.57 0 000 .13l13.39 50.16s.08 0 .1.07 0 .08 0 .12.14 0 .21 0 .12.17.22.17a.27.27 0 00.13 0c.05 0 0-.08.08-.1s.08 0 .11 0l24.24-19.13 23.6 19.13h.1c.03 0 0 .09.08.1a.39.39 0 00.15 0c.11 0 .15-.11.24-.18s.13 0 .18 0a.58.58 0 00.05-.14l15.06-50.16v-.19l30.82 40.53h.12c.04 0 0 .09 0 .12a.66.66 0 00.27.06c.08 0 .14-.08.21-.12s.08 0 .12 0 0-.07 0-.11.06 0 .08 0L343 462.96l27.27 8.48s.06-.06.1-.05.05.08.1.08.14-.17.23-.26.21 0 .23-.12a.39.39 0 000-.15v-.05l-3.31-48 1.92-.29 40.61 20.32-.13 1.2c0 .33.2.52.53.59a.53.53 0 00.53-.46l3-28.42 30-4.56a.47.47 0 00.16 0 .52.52 0 00.28-.46v-.08a.54.54 0 000-.15l-22.95-44.3 49.16 4.94h.11a1.1 1.1 0 00.26-.08l.09-.09a.57.57 0 00.13-.27v-.31l-12-26.82 28.47-16h.09a.59.59 0 00.13-.18.73.73 0 000-.2.49.49 0 000-.2.56.56 0 00-.17-.24l-50.77-34.39 60.61-11.47h.13a.4.4 0 00.18-.14.65.65 0 00.11-.22v-.13a.38.38 0 00-.01-.48zm-9.8-95l-49.66 33.6 21.22-49.88zm-18.23-43l-10.71 25.2L421 145.3zm-238 356.33l-12.75-47.79 36.16 29.32zm47.9 0l-22.79-18.48 37.14-29.31zm214.9-264.64l-22.14 21.53-33.61-32.62zM413.67 260l21 31.54-52.06 16.83zM310.12 378l5-61 62.92-5.1-6.23 58.75zm61.55-6l-5 47.37-56.13-40.07zm-272-115.74l33.15-49.72 56.71 50.22-56.03 49.7a.31.31 0 00-.11-.08.26.26 0 00-.12-.05l-1.1-.32zm30.46 49.08l-52.8-15.45 21.54-32.31zm188.16-50.05l-4.48-56L375.6 206zm1.53 4.32l55.89 49.67-60.37 4.89zm-6.24-63.14l-5.14-64.27 63.15 7.54 6.46 63.7zm-2.77-.3l-53.19-5.75a2.18 2.18 0 00-.9-.26l49.17-55.48zm-56.41-7.56l-49.5-55.84 51.38-39 49.18 37.34zm-1.91 2l-53.81 5.82 5.69-60.15zm-56.6 6.12l-62 6.71 6.3-62.1 61.67-7.34zM190.5 254l-54.17-48 59.32-6.42zm0 5.68l5.14 53.52-59.25-5.6zm-57.9-56.62L94.17 147l44.67-5.41zm-.73 1.38a1.86 1.86 0 00-.1.2l-55.29 14.63-22.16-49.57 38.34-22.44zm.88 105.92l6.1 59.27L94.19 365zm1.36-.21l61.8 5.84 5.77 60.21-61.43-6.43zm64.58 6.11l55.31 5.23-49.55 54.35zm-.27-2.79L193 256.91v-.09l5.44-57.49 57.56-6.24 55.05 6 4.63 57.9a1.37 1.37 0 001.37 1.27h.15l-4.62 56.27-55.73 4.47zm113.93 3.78l-4.66 56.87-47.94-52.6zm67.1-5.44l1.24-.1 38.62 53.06-.54.3-45.57 5.45zm2.21-1.15c0-.15.29-.15.29-.31v-.11s-.07 0-.07-.06l53.66-17.41 22.46 50.3-37.5 21zm31.18-51.85l-32.25 50.27c-.06 0-.06-.1-.12-.1l-.92.07-58.73-52.2 57.63-49.63zm7.37-112.74l-40 58.34a1.08 1.08 0 00-.15-.28h-.05a1.18 1.18 0 00-.31-.24h-.12L373 140l45.41 5.42.11 1.11a.54.54 0 00.53.48h.07a.55.55 0 00.46-.53v-.06l-.09-.75zm23.08-44.34l-24 41.65-4.89-46zm-33-33l2.91 27.38-44.22-6.73zm3 28.48l5 46.84-45.4-5.42L368 90.26zm-41.82 41.26L308.89 131l57.75-40.11zM370 43.51l-3.19 44.37-22.3-37.17zm-3.6 45.82l-58.92 40.92-12.76-65.47.28.22a.54.54 0 00.75-.1c.08-.11 0-.22 0-.35L343.43 51zM327 23.64l15.85 26.43L295 63.6l-.57-.43-.06-.34zm-21 106.14l-48.58-36.89 36-27.35zm-26.06-114.5l12.36 46.28-35.77-27.29zM255.68 35l37.07 28.29.24.9L256.27 92l-36.65-27.8zm-23.62-18l22.76 17.3-35.5 28.79zm-13.7 48l36.77 27.92-50.78 38.55 13-66.65.89.25s.07-.07.12-.07zM185 23.64l32.41 38.88-.29-.21a.7.7 0 00-1 .13.65.65 0 00-.13.42.67.67 0 00.26.53l-47.11-13.32zM168.58 51L216 64.42l-13.17 67.46-57.25-42.54zM142 43.51l25.49 7.2-22.28 37.19zm3.33 47.37l56.17 41.73-61.12 7.39zm-43.6-20.54l41.37 19.07-44.35 8.67zm-3.1 28.84L144 90.3l-5 49.89-45.4 5.51zM68.71 105l28.83-5.64-4.93 45.45zM42 142l49.29 3.28a.85.85 0 00.34-.1l.64 1.06-38.38 22.48zm-16.61 44.63l28-16.39L75.62 220s-.07 0-.07.09a.26.26 0 000 .17.67.67 0 00.66.51.5.5 0 00.17 0l55.1-14.58-32.64 49-22.03-33.84c-.06-.1-.18 0-.27-.06zm-9.89 47.12l59.06-11.18-35.09 33.21zm0 46.15l24-22.68 35.08 32.25zm24.75-23.41L76 222.65l22 33.68-22 33zM23.75 327L75 291.78l-22.35 51.08zM42 369.93l11.2-25.59L90.94 365zm11.62-26.56l22.89-52.3 54.83 16.12.63 1a1.83 1.83 0 00-.14.32s-.07 0-.07.06v.09a1.58 1.58 0 00.18.5l-39.29 55.6zm15.13 66.89l23.89-43L97.48 414zm33.05 34.68l-3.1-29.71 44.49 5.8zm-3.21-30.79l-5-47.87L139 371l5.06 49zm41.83-43l61.31 6.41-56.34 41.85zm1.64 99l3.19-47.69 23.21 39.65zm43 18.16l-15-25.57 44.76-13.63zm32.15-41c0-.09 0-.18-.12-.25a.52.52 0 00-.73.09l-.41.54-46.41 14.13L145.58 421 202 379.07a1.36 1.36 0 001.33 1.21h.13a1.35 1.35 0 001.18-1.3l13 68.17zm1.7-1.06L206 378.89l49.71 38.66zm-12.29-68.67l50.29-55.14 50.28 55.14-50.28 39.11zm88.27 68.64L258 417.55 307.49 379c0 .06.09.07.11.13zm32.2 42.1l-30.28-39.84 45.34 14.11zm15.61-26.67l-46.57-14.49 12.77-67c.09 0 .09-.13.17-.16l57.42 41zm27.3 8.5L343.68 462l23-39.32zm-2.83-48.29l.26-.45.64.31zm43.28 19.85l-38.95-19.44 41.66-6.34zm2.86-26.88l-43.43 6.61-1.93-1 5.15-48.55 45.34-5.42zm30.06-4.57l-29 4.4 5.13-48.29 1-.12zM470 369.94L421.21 365v-.08L458.45 344zM486.6 327L459 342.54l-22-49.1zM436 291l-21.48-32.25 23.17-36.11L472 256zm1.45.07l35.31-34.34 23.83 23.16z" fill="#256ea5"/><path d="M225.06 352.15h60.21v-58.53h-60.21zm-41.8 48.5h41.81v-41.81h-41.81zm36.79-172.24h-60.2v58.52h60.2zm-108.7 102h41.81v-41.8h-41.81zm113.71-219.06h-41.8v41.81h41.8zM111.35 226.74h41.81v-41.81h-41.81zm178.93 58.52h60.2v-58.52h-60.2zm-65.22-63.54h60.21v-58.53h-60.21zm133.78-36.79v41.81h41.81v-41.81zm0 143.81h41.81v-41.8h-41.81zm-30.1-217.39h-41.8v41.81h41.8zm-41.8 289.3h41.81v-41.81h-41.81z" fill="#3378bc"/><path d="M34.43 149.81h15v-15.05h-15zm0 229.1h15v-15.05h-15zM16 193.29h15.09v-15H16zm0 140.47h15.09v-15.05H16zm6.69-108.7h-15v15.05h15.03zm0 46.83h-15v15h15.03zM61.19 419h15v-15h-15zm73.57 60.2h15.05v-15.01h-15.05zM93 76.23h15V61.18H93zm0 374.58h15v-15.05H93zm11.7-98.66H77.91v26.76h26.75zm-15-143.81H62.86v26.76h26.75zm316.05-48.49h26.76v-26.76h-26.85zm16.73 143.81h26.75V276.9h-26.84zm26.75-95.32h-26.84v26.76h26.75zm48.5-30.1h-15.14v15h15.05zM419.05 61.18H404v15.05h15.05zm-187.3-10H205v26.73h26.75zm147.16-15h-15.05v15h15.05zm-316 267.56h26.7V276.9H62.86zm68.56 130.43h26.75v-26.83h-26.8zm-26.76-301h-26.8v26.76h26.75zM76.24 94.63h-15v15.05h15zm71.9-60.2h-15v15h15zm289.3 75.25h15.05V94.63h-15.05zM404 450.81h15.05v-15.05H404zM437.44 419h15.05v-15h-15.05zm-31.78-40.13h26.76v-26.72h-26.76zM353.82 103h26.76V76.23h-26.76zm0 332.77h26.76V409h-26.76zm108.7-56.85h15.05v-15.06h-15.05zm26.76-153.85v15.05h15.05v-15.06zM363.86 479.24h15.05v-15.05h-15.05zm125.42-192.31h15.05v-15h-15.05zm-6.69 46.83h15.05v-15.05h-15.05zm-20.07-183.95h15.05v-15.05h-15.05zM280.25 76.23H307V49.48h-26.75zm-50.17 357.86h-26.76v26.76h26.76zm-5 71.91h15.05v-15h-15.07zm-48.49-10h15.05v-15.09h-15.07zm48.5-474.92h15.05V6h-15.07zm-46.83 10h15V16h-15zm103.66 431.44h26.75v-26.76h-26.75zm36.79 35.12h15.05v-15.05h-15.05zm0-466.56h15.05V16h-15.05zM273.56 506h15.05v-15h-15.05zM131.42 104.66h26.75V77.91h-26.75zM286.94 6h-15.05v15.05h15.05z" fill="#00a8da"/></svg>