<svg data-name="acda87fb-b38f-4935-97b3-49337f563c7c" xmlns="http://www.w3.org/2000/svg" viewBox="0 0 512 512"><path d="M119.17 9.07H6v113.17h113.17z" fill="#f1511b"/><path d="M243.12 9.07H130v113.17h113.12z" fill="#80cc28"/><path d="M119.17 135.23H6v113.16h113.17z" fill="#00adef"/><path d="M243.12 135.23H130v113.16h113.12z" fill="#fbbc09"/><path d="M18.11 378.07H9.74A4 4 0 006 381.81v114.71a4 4 0 003.74 3.74h8.37a4 4 0 003.74-3.74V381.81a4 4 0 00-3.74-3.74zm115.81 66.05a107.64 107.64 0 00-17-11.23 153.69 153.69 0 01-15.41-10.12 17.71 17.71 0 01-5.5-5.95 17.09 17.09 0 01-1.54-8.37 17.62 17.62 0 011.32-6.6 13.82 13.82 0 014.18-5.28 24.24 24.24 0 0116.07-4.85 46.29 46.29 0 0120 4.18 3.28 3.28 0 003.74 0 3.51 3.51 0 001.76-3.08V384a4 4 0 00-2.64-3.75 66.2 66.2 0 00-22-3.52 46 46 0 00-19.59 4 32.18 32.18 0 00-14.03 11.87 29.59 29.59 0 00-5.07 17 30 30 0 002.87 13.65 33.2 33.2 0 007.92 10.3 102.8 102.8 0 0017.84 12.11 125.42 125.42 0 0116.73 11 20.47 20.47 0 014.84 5.95 15.82 15.82 0 011.54 7.26 15 15 0 01-6.38 12.77 28.36 28.36 0 01-17.83 4.62 41.14 41.14 0 01-22-7.26 4 4 0 00-6 3.52V493a3.53 3.53 0 002 3.3 47.93 47.93 0 0012.55 4.62 82 82 0 0015 2 44 44 0 0028.18-9 35 35 0 007.26-38.53 36.13 36.13 0 00-8.8-11zM79.54 287.8v63.85h17.39v-78.38H71l-16.12 46.24A98.18 98.18 0 0051.79 331a59.33 59.33 0 00-2.64-11.23l-16.07-46.5H6.66v78.38h16.07v-64.29a97.18 97.18 0 002.42 10.79L43.87 351h13.65l18.27-53.28a92.49 92.49 0 003.75-9.92zm-24.22 90.49h-9a4 4 0 00-3.77 3.71v114.74a4 4 0 003.74 4h8.37a4 4 0 002.86-4V382a3.28 3.28 0 000-2.64 4 4 0 00-2.86-1.1zm59.22-94.23a9.48 9.48 0 007 2.64 10.76 10.76 0 007.26-2.42 9.14 9.14 0 002-3.08 6.24 6.24 0 000-3.53 7 7 0 000-3.52 8.22 8.22 0 00-2-2.86 12.09 12.09 0 00-7.26-2.42 11.9 11.9 0 00-7 2.42 9 9 0 00-2.2 2.86 9.91 9.91 0 000 3.52 9.12 9.12 0 000 3.53 7 7 0 001.54 2.86zM113 351.65h17.17v-56.14h-17.83zm327-78.38a22 22 0 00-6.16 15.41v6.83h-9.47v12.77h9.47v44H451v-44h13v-12.77h-13v-5.95c0-5.94 2.86-9 8.36-9a20.57 20.57 0 016.39 1.32v-13.45a38.22 38.22 0 00-8.59-1.1 24 24 0 00-17.83 5.94zm-290.67 29.28a29.28 29.28 0 00-8.59 22 26.67 26.67 0 007.93 20 28.39 28.39 0 0022 7.92 35 35 0 0016.95-3.3v-13.81a23.54 23.54 0 01-12.77 4 14.73 14.73 0 01-11.23-4.18 15.84 15.84 0 01-4.18-11.67A14.93 14.93 0 01175.53 307a20.2 20.2 0 0112.11 4.18v-14.79a29.52 29.52 0 00-14.31-2.64 31.5 31.5 0 00-24 8.8zm238.44-8.36a31.07 31.07 0 00-22 7.92 32.16 32.16 0 000 44 29.74 29.74 0 0022 7.92 30.61 30.61 0 0022-10.12 29.51 29.51 0 008.14-22 27.92 27.92 0 00-8.14-19.82 29.51 29.51 0 00-22-7.9zm0 45.57c-8.59 0-13-5.5-13-16.29a19.17 19.17 0 013.3-11.89 12.35 12.35 0 014.41-3.08 10.27 10.27 0 015.28-1.1c8.15 0 12.33 5.28 12.33 15.63s-4.39 16.73-12.32 16.73zM270.2 294.19a31.07 31.07 0 00-22 7.92 28 28 0 00-8.14 22 28 28 0 007.92 22 29.92 29.92 0 0022 7.92 30.39 30.39 0 0022-8.14 29.73 29.73 0 007.7-24 28 28 0 00-7.92-20.7 29.73 29.73 0 00-22-7zm0 45.57c-8.59 0-13-5.5-13-16.29a17.9 17.9 0 013.52-11.89 10 10 0 014.19-3.08 10.71 10.71 0 015.28-1.1c8.37 0 12.55 5.28 12.55 15.63s-5.06 16.73-13.21 16.73zm76.4-15.85a17.56 17.56 0 00-4.62-3.3 32.11 32.11 0 00-6.39-2.64l-3.74-1.33-3.53-1.54a10.86 10.86 0 01-2.64-1.76 3.75 3.75 0 010-2.64 3.05 3.05 0 010-2 4 4 0 011.76-1.54h5.73a28.16 28.16 0 0114.53 3.74v-13.41L340 296a40.63 40.63 0 00-7.48 0 40.1 40.1 0 00-9 0 24.78 24.78 0 00-7.92 3.08 18.67 18.67 0 00-5.51 5.51 17.72 17.72 0 00-2 8.14 18.56 18.56 0 000 5.95 14.82 14.82 0 002.64 4.4 22 22 0 004.18 3.52l5.95 2.64 4.4 1.55 4 1.32a9.24 9.24 0 013.08 2v2.64a4.52 4.52 0 010 2.42l-2 1.54A21.73 21.73 0 01323 342a23.78 23.78 0 01-7.93-1.32 30.28 30.28 0 01-8.58-4v14.09a49.93 49.93 0 0017.17 2.86 47.55 47.55 0 009.69 0 26.52 26.52 0 008.15-3.3 17.76 17.76 0 005.72-5.72 16.52 16.52 0 002.2-7.27 17.55 17.55 0 00-1.1-7.49 14.52 14.52 0 00-2.42-5.94zm-115.81-29.28A14.75 14.75 0 00216 306.08v-10.57h-18.23v56.14h17.39v-26.86a19.4 19.4 0 013.08-11.23 10.85 10.85 0 014-3.08 11.93 11.93 0 014.85-1.1 16.1 16.1 0 017.26 1.76v-15.85a13.78 13.78 0 00-4.18-.66zM506 308.28v-12.77h-12.55v-17.62L476.28 283v11.89h-9v12.77h8.59v25.76c0 12.55 5.94 18.93 18.27 18.93a26 26 0 0011.45-2v-12.79a12.86 12.86 0 01-5.72 1.54c-4.63 0-6.83-2.86-6.83-8.81v-22z" fill="#00adef"/></svg>