<svg data-name="Layer 1" xmlns="http://www.w3.org/2000/svg" viewBox="0 0 512 512"><path d="M107.23 346.09a10.77 10.77 0 00-11.78-2.34 10.54 10.54 0 00-3.51 2.34 10.84 10.84 0 00-3.17 7.64v56.61l-64.2-64.25A10.88 10.88 0 006 353.77v82.85a10.82 10.82 0 0021.63 0V380l64.23 64.33a10.9 10.9 0 003.52 2.36 11 11 0 004.16.82 10.78 10.78 0 007.71-3.19 10.89 10.89 0 002.35-3.55 10.63 10.63 0 00.79-4.17v-82.87a10.77 10.77 0 00-3.16-7.64zm44.31-18.67a27.33 27.33 0 0027.33-27.33V157.66l161.76 161.77a27.32 27.32 0 0046.67-19.28V91.67a27.33 27.33 0 00-54.66 0v142.47L170.89 72.33a27.34 27.34 0 00-46.68 19.34v208.42a27.35 27.35 0 0027.33 27.33zm25.35 63.38a10.81 10.81 0 100 21.62l26.61-.19-6.5 13.16h-34.23l-17-29.79 17.12-30.93h36.4l8.46 17.42h21.87l-13.76-33-3-6.13h-62.94v.1l-3 5.59-23.07 41.95-3 5.28 3 5.28 23.07 40.61 3.11 5.52h60.42l3-6.13 17.25-34.77 7.74-15.74H221zM381.75 344a10.92 10.92 0 00-6.29-.61 10.79 10.79 0 00-5.57 3l-64.27 64.27V354a10.81 10.81 0 10-21.62 0v82.9a10.73 10.73 0 00.82 4.14 10.8 10.8 0 0010 6.67 10.85 10.85 0 007.68-3.19l64.33-64.35v56.72a10.8 10.8 0 0015 10 10.76 10.76 0 005.85-5.85 10.64 10.64 0 00.82-4.13V354a10.88 10.88 0 00-6.75-10zm120.88 84.9L469 395.32l33.75-33.7a10.91 10.91 0 00-7.6-18.62 11 11 0 00-7.73 3.16l-33.81 33.76-33.82-33.76a11 11 0 00-7.71-3.18 10.91 10.91 0 00-7.7 3.21 10.9 10.9 0 00-2.38 3.51 10.66 10.66 0 00-.82 4.17A10.85 10.85 0 00402 358a11 11 0 002.37 3.53l33.76 33.73-33.7 33.57a10.91 10.91 0 00-.06 15.38 10.71 10.71 0 007.7 3.18 11.06 11.06 0 007.68-3.18l33.76-33.63 33.76 33.63a10.94 10.94 0 003.53 2.4 11.06 11.06 0 004.17.85 10.82 10.82 0 007.73-3.19 10.75 10.75 0 002.36-3.56 10.85 10.85 0 00-2.47-11.88zm-253.42 7.51a11.29 11.29 0 0010.75 11 11.32 11.32 0 0011-11v-45.5h-21.75zM260 342.86a11.27 11.27 0 00-10.75 11v28.34H271v-28.34c0-5.77-5.22-11.12-11-11z" fill="#090"/></svg>