<svg xmlns="http://www.w3.org/2000/svg" width="512" height="512" viewBox="0 0 512 512"><path d="M453.92 382.67v-39.58c0-21.85-17.73-39.58-39.58-39.58h-142.5v-31.67c0-8.71-7.13-15.83-15.83-15.83s-15.83 7.13-15.83 15.83v31.67H97.67c-21.85 0-39.58 17.73-39.58 39.58v39.58c-21.85 0-39.58 17.73-39.58 39.58v31.67c0 21.85 17.73 39.58 39.58 39.58h31.67c21.85 0 39.58-17.73 39.58-39.58v-31.67c0-21.85-17.73-39.58-39.58-39.58v-39.58c0-4.43 3.48-7.92 7.92-7.92h142.5v47.5c-21.85 0-39.58 17.73-39.58 39.58v31.67c0 21.85 17.73 39.58 39.58 39.58h31.67c21.85 0 39.58-17.73 39.58-39.58v-31.67c0-21.85-17.73-39.58-39.58-39.58v-47.5h142.5c4.43 0 7.92 3.48 7.92 7.92v39.58c-21.85 0-39.58 17.73-39.58 39.58v31.67c0 21.85 17.73 39.58 39.58 39.58h31.67c21.85 0 39.58-17.73 39.58-39.58v-31.67c0-21.85-17.73-39.58-39.58-39.58zM97.67 422.25v31.67c0 4.43-3.48 7.92-7.92 7.92H58.08c-4.43 0-7.92-3.48-7.92-7.92v-31.67c0-4.43 3.48-7.92 7.92-7.92h31.67c4.43 0 7.92 3.48 7.92 7.92zm182.08 0v31.67c0 4.43-3.48 7.92-7.92 7.92h-31.67c-4.43 0-7.92-3.48-7.92-7.92v-31.67c0-4.43 3.48-7.92 7.92-7.92h31.67c4.43 0 7.92 3.48 7.92 7.92zm182.08 31.67c0 4.43-3.48 7.92-7.92 7.92h-31.67c-4.43 0-7.92-3.48-7.92-7.92v-31.67c0-4.43 3.48-7.92 7.92-7.92h31.67c4.43 0 7.92 3.48 7.92 7.92v31.67z" fill="#009ddc"/><path d="M145.17 232.25h221.67c17.42 0 31.67-14.25 31.67-31.67V50.17c0-17.42-14.25-31.67-31.67-31.67H145.17c-17.42 0-31.67 14.25-31.67 31.67v150.42c0 17.42 14.25 31.67 31.67 31.67zm163.4-128.09c-6.02-6.33-5.86-16.31.32-22.32 6.33-6.02 16.31-5.86 22.32.32l31.03 32.14c6.02 6.17 6.02 15.83 0 22.01l-31.03 32.14c-3.17 3.17-7.28 4.75-11.4 4.75s-7.92-1.43-11.08-4.43c-6.33-6.02-6.49-16.15-.32-22.32l20.42-21.22-20.43-21.22.16.16zm-80.28 68.87l24.86-102.92c2.06-8.55 10.61-13.77 19.16-11.72S286.09 69 284.03 77.55l-24.86 102.92c-1.74 7.28-8.23 12.19-15.36 12.19-1.27 0-2.53 0-3.8-.47-8.55-2.06-13.77-10.61-11.72-19.16zm-78.53-58.74l31.03-32.14c6.02-6.33 16.15-6.49 22.32-.32 6.33 6.02 6.49 16.15.32 22.32l-20.42 21.22 20.42 21.22c6.02 6.33 5.86 16.31-.32 22.32-3.01 3.01-6.97 4.43-11.08 4.43s-8.23-1.58-11.4-4.75l-31.03-32.14c-6.02-6.18-6.02-15.83 0-22.01l.16-.16z" fill="#f58518"/></svg>