<svg xmlns="http://www.w3.org/2000/svg" viewBox="0 0 48 48"><path fill="currentColor" d="m15,20h2c.53,0,1.04-.21,1.41-.59.38-.38.59-.88.59-1.41s-.21-1.04-.59-1.41c-.38-.38-.88-.59-1.41-.59h-2c-.53,0-1.04.21-1.41.59-.38.38-.59.88-.59,1.41s.21,1.04.59,1.41c.38.38.88.59,1.41.59Zm8,12h-8c-.53,0-1.04.21-1.41.59s-.59.88-.59,1.41.21,1.04.59,1.41.88.59,1.41.59h8c.53,0,1.04-.21,1.41-.59.38-.38.59-.88.59-1.41s-.21-1.04-.59-1.41c-.38-.38-.88-.59-1.41-.59Zm0-8h-8c-.53,0-1.04.21-1.41.59-.38.38-.59.88-.59,1.41s.21,1.04.59,1.41c.38.38.88.59,1.41.59h8c.53,0,1.04-.21,1.41-.59.38-.38.59-.88.59-1.41s-.21-1.04-.59-1.41c-.38-.38-.88-.59-1.41-.59Zm13.84-5.24c.15-.36.19-.77.12-1.15-.07-.39-.26-.75-.54-1.03l-12-12c-.17-.16-.35-.28-.56-.38-.06,0-.12,0-.18,0l-.56-.2h-12.12c-1.59,0-3.12.63-4.24,1.76s-1.76,2.65-1.76,4.24v28c0,1.59.63,3.12,1.76,4.24,1.13,1.13,2.65,1.76,4.24,1.76h12c.53,0,1.04-.21,1.41-.59.38-.38.59-.88.59-1.41s-.21-1.04-.59-1.41c-.38-.38-.88-.59-1.41-.59h-12c-.53,0-1.04-.21-1.41-.59-.38-.38-.59-.88-.59-1.41V10c0-.53.21-1.04.59-1.41.38-.38.88-.59,1.41-.59h10v6c0,1.59.63,3.12,1.76,4.24,1.13,1.13,2.65,1.76,4.24,1.76h8c.39,0,.78-.12,1.11-.34.33-.22.58-.53.73-.9h0Zm-9.84-2.76c-.53,0-1.04-.21-1.41-.59-.38-.38-.59-.88-.59-1.41v-3.18l5.18,5.18h-3.18Zm14,8h-10c-.53,0-1.04.21-1.41.59s-.59.88-.59,1.41v16c0,.36.1.72.29,1.03.19.31.45.56.77.73.31.16.66.24,1.01.22.35-.02.69-.13.99-.32l3.94-2.6,4,2.6c.3.17.64.27.98.27.35,0,.69-.08.99-.25.3-.17.56-.41.74-.7.18-.29.28-.63.29-.97v-16c0-.53-.21-1.04-.59-1.41-.38-.38-.88-.59-1.41-.59Zm-2,14.24l-1.88-1.26c-.33-.22-.72-.34-1.12-.34s-.79.12-1.12.34l-1.88,1.26v-10.24h6v10.24Z"/></svg>