<svg xmlns="http://www.w3.org/2000/svg" viewBox="0 0 48 48"><path fill="currentColor" d="M23,32H15c-.5,0-1,.2-1.4,.6-.4,.4-.6,.9-.6,1.4s.2,1,.6,1.4c.4,.4,.9,.6,1.4,.6h8c.5,0,1-.2,1.4-.6s.6-.9,.6-1.4-.2-1-.6-1.4-.9-.6-1.4-.6Zm0-8H15c-.5,0-1,.2-1.4,.6-.4,.4-.6,.9-.6,1.4s.2,1,.6,1.4c.4,.4,.9,.6,1.4,.6h8c.5,0,1-.2,1.4-.6s.6-.9,.6-1.4-.2-1-.6-1.4-.9-.6-1.4-.6Zm13.1-4.3c.3-.2,.6-.5,.7-.9,.2-.4,.2-.8,.1-1.2,0-.4-.3-.7-.5-1L24.4,4.6c-.2-.2-.4-.3-.6-.4,0,0-.1,0-.2,0l-.6-.2H11c-1.6,0-3.1,.6-4.2,1.8s-1.8,2.7-1.8,4.2v28c0,1.6,.6,3.1,1.8,4.2,1.1,1.1,2.7,1.8,4.2,1.8h12c.5,0,1-.2,1.4-.6s.6-.9,.6-1.4-.2-1-.6-1.4-.9-.6-1.4-.6H11c-.5,0-1-.2-1.4-.6-.4-.4-.6-.9-.6-1.4V10c0-.5,.2-1,.6-1.4,.4-.4,.9-.6,1.4-.6h10v6c0,1.6,.6,3.1,1.8,4.2,1.1,1.1,2.7,1.8,4.2,1.8h8c.4,0,.8-.1,1.1-.3Zm-9.1-3.7c-.5,0-1-.2-1.4-.6-.4-.4-.6-.9-.6-1.4v-3.2l5.2,5.2h-3.2Zm-12,4h2c.5,0,1-.2,1.4-.6,.4-.4,.6-.9,.6-1.4s-.2-1-.6-1.4c-.4-.4-.9-.6-1.4-.6h-2c-.5,0-1,.2-1.4,.6-.4,.4-.6,.9-.6,1.4s.2,1,.6,1.4c.4,.4,.9,.6,1.4,.6Zm27.4,4.6c-.4-.4-.9-.6-1.4-.6h-10c-.5,0-1,.2-1.4,.6s-.6,.9-.6,1.4v16c0,.4,0,.7,.3,1,.2,.3,.5,.6,.8,.7,.3,.2,.7,.2,1,.2,.4,0,.7-.1,1-.3l3.9-2.6,4,2.6c.3,.2,.6,.3,1,.3,.3,0,.7,0,1-.2,.3-.2,.6-.4,.7-.7,.2-.3,.3-.6,.3-1V26c0-.5-.2-1-.6-1.4Zm-3.4,13.7l-1.9-1.3c-.3-.2-.7-.3-1.1-.3s-.8,.1-1.1,.3l-1.9,1.3v-10.2h6v10.2Z"/></svg>