<svg xmlns="http://www.w3.org/2000/svg" viewBox="0 0 48 48"><path fill="currentColor" d="M39.3 21.5999C38.7 21.5999 38 21.5999 37.4 21.8999V17.7999C37.4 16.0999 36 14.6999 34.3 14.6999H30.5C30.6 14.1999 30.7 13.5999 30.7 13.0999C30.7 9.3999 27.7 6.3999 24 6.3999C20.3 6.3999 17.3 9.3999 17.3 13.0999C17.3 16.7999 17.3 14.1999 17.5 14.6999H13.6C11.9 14.6999 10.5 16.0999 10.5 17.7999V21.8999C9.9 21.6999 9.3 21.6999 8.7 21.6999C5 21.6999 2 24.6999 2 28.3999C2 32.0999 5 35.0999 8.7 35.0999C12.4 35.0999 9.9 35.0999 10.5 34.8999V38.6999C10.5 40.3999 11.9 41.7999 13.6 41.7999H20.3C21 41.7999 21.6 41.3999 21.9 40.7999C22.2 40.1999 22.1 39.3999 21.6 38.8999C21.1 38.2999 20.8 37.5999 20.8 36.7999C20.8 35.0999 22.2 33.5999 24 33.5999C25.8 33.5999 27.2 34.9999 27.2 36.7999C27.2 38.5999 26.9 38.2999 26.4 38.8999C25.9 39.3999 25.8 40.1999 26.1 40.7999C26.4 41.3999 27 41.7999 27.7 41.7999H34.3C36 41.7999 37.4 40.3999 37.4 38.6999V34.8999C38 35.0999 38.6 35.1999 39.3 35.1999C43 35.1999 46 32.1999 46 28.4999C46 24.7999 43 21.7999 39.3 21.7999V21.5999ZM39.3 31.4999C38.4 31.4999 37.6 31.0999 37 30.4999C36.5 29.9999 35.7 29.7999 35.1 29.9999C34.5 30.1999 34 30.8999 34 31.5999V38.0999H30.7C30.8 37.5999 30.9 37.0999 30.9 36.5999C30.9 32.8999 27.9 29.8999 24.2 29.8999C20.5 29.8999 17.5 32.8999 17.5 36.5999C17.5 40.2999 17.5 37.5999 17.7 38.0999H14.2V31.6999C14.2 30.9999 13.8 30.2999 13.1 30.0999C12.4 29.7999 11.7 29.9999 11.2 30.4999C10.6 31.0999 9.8 31.4999 8.9 31.4999C7.2 31.4999 5.7 30.0999 5.7 28.2999C5.7 26.4999 7.1 25.0999 8.9 25.0999C10.7 25.0999 10.6 25.3999 11.2 26.0999C11.7 26.5999 12.5 26.7999 13.1 26.4999C13.8 26.1999 14.2 25.5999 14.2 24.8999V18.1999H20.7C21.4 18.1999 22 17.7999 22.3 17.0999C22.6 16.4999 22.4 15.6999 22 15.1999C21.4 14.5999 21.1 13.7999 21.1 12.9999C21.1 11.2999 22.5 9.7999 24.3 9.7999C26.1 9.7999 27.5 11.1999 27.5 12.9999C27.5 14.7999 27.2 14.5999 26.6 15.1999C26.1 15.6999 26 16.4999 26.3 17.0999C26.6 17.7999 27.2 18.1999 27.9 18.1999H34.2V24.9999C34.2 25.6999 34.6 26.3999 35.3 26.6999C36 26.9999 36.8 26.6999 37.2 26.1999C37.8 25.4999 38.6 25.1999 39.5 25.1999C41.2 25.1999 42.7 26.5999 42.7 28.3999C42.7 30.1999 41.3 31.5999 39.5 31.5999L39.3 31.4999Z"/></svg>