<svg xmlns="http://www.w3.org/2000/svg" viewBox="0 0 48 48"><path fill="currentColor" d="M19.28,26.41H3.58c-1,0-1.8.8-1.8,1.8v15.7c0,1,.8,1.8,1.8,1.8h15.7c1,0,1.8-.8,1.8-1.8v-15.7c0-1-.8-1.8-1.8-1.8ZM17.48,42.11H5.28v-12.2h12.2v12.2ZM19.28,1.71H3.58c-1,0-1.8.8-1.8,1.8v15.7c0,1,.8,1.8,1.8,1.8h15.7c1,0,1.8-.8,1.8-1.8V3.51c0-1-.8-1.8-1.8-1.8ZM17.48,17.41H5.28V5.21h12.2v12.2ZM28.28,21.01h15.7c1,0,1.8-.8,1.8-1.8V3.51c0-1-.8-1.8-1.8-1.8h-15.7c-1,0-1.8.8-1.8,1.8v15.7c0,1,.8,1.8,1.8,1.8ZM29.98,5.21h12.2v12.2h-12.2V5.21ZM45.3,30.68l-3.73-3.73c-.66-.65-1.72-.66-2.38,0l-12.14,12.14c-.32.32-.49.74-.49,1.19v3.73c0,.93.75,1.68,1.68,1.68h3.73c.45,0,.87-.17,1.19-.49l12.13-12.14c.66-.66.66-1.72,0-2.38ZM31.28,42.33h-1.35v-1.35l6.3-6.3,1.35,1.35-6.3,6.3ZM39.91,33.7l-1.35-1.35,1.82-1.82,1.35,1.35-1.82,1.82Z"/></svg>