<svg xmlns="http://www.w3.org/2000/svg" viewBox="0 0 48 48"><path fill="currentColor" d="M19.5,26.7H3.8c-1,0-1.8,.8-1.8,1.8v15.7c0,1,.8,1.8,1.8,1.8h15.7c1,0,1.8-.8,1.8-1.8v-15.7c0-1-.8-1.8-1.8-1.8Zm-1.8,15.7H5.5v-12.2h12.2v12.2Zm26.5-15.7h-15.7c-1,0-1.8,.8-1.8,1.8v15.7c0,1,.8,1.8,1.8,1.8h15.7c1,0,1.8-.8,1.8-1.8v-15.7c0-1-.8-1.8-1.8-1.8Zm-1.8,15.7h-12.2v-12.2h12.2v12.2ZM19.5,2H3.8c-1,0-1.8,.8-1.8,1.8v15.7c0,1,.8,1.8,1.8,1.8h15.7c1,0,1.8-.8,1.8-1.8V3.8c0-1-.8-1.8-1.8-1.8Zm-1.8,15.7H5.5V5.5h12.2v12.2ZM44.2,2h-15.7c-1,0-1.8,.8-1.8,1.8v15.7c0,1,.8,1.8,1.8,1.8h15.7c1,0,1.8-.8,1.8-1.8V3.8c0-1-.8-1.8-1.8-1.8Zm-1.8,15.7h-12.2V5.5h12.2v12.2Z"/></svg>