<svg xmlns="http://www.w3.org/2000/svg" viewBox="0 0 48 48"><path fill="currentColor" d="M44,3.4H26.8c-.3,0-.6,.3-.6,.6v13.3c0,.3,.3,.6,.6,.6h17.2c.3,0,.6-.3,.6-.6V4c0-.3-.3-.6-.6-.6Zm-3.4,10.5h-10.5V7.4h10.5v6.5ZM21.2,30.1H4c-.3,0-.6,.3-.6,.6v13.3c0,.3,.3,.6,.6,.6H21.2c.3,0,.6-.3,.6-.6v-13.3c0-.3-.3-.6-.6-.6Zm-3.4,10.5H7.4v-6.5h10.5v6.5Zm26.1-18.9H26.8c-.3,0-.6,.3-.6,.6v21.7c0,.3,.3,.6,.6,.6h17.2c.3,0,.6-.3,.6-.6V22.3c0-.3-.3-.6-.6-.6Zm-3.4,18.9h-10.5v-15h10.5v15ZM21.2,3.4H4c-.3,0-.6,.3-.6,.6V25.7c0,.3,.3,.6,.6,.6H21.2c.3,0,.6-.3,.6-.6V4c0-.3-.3-.6-.6-.6Zm-3.4,18.9H7.4V7.4h10.5v15Z"/></svg>