<svg xmlns="http://www.w3.org/2000/svg" width="512" height="512" viewBox="0 0 512 512"><path d="M447.48 153.09c-2.69-19.93-4.16-40-4.39-60.11-8.13 5.33-16.28 10.59-24.43 15.8.15 18.25 1.62 36.46 4.4 54.49 8.13-3.31 16.27-6.7 24.42-10.18zM53.55 342.65A412.64 412.64 0 0171 386.35c7.96-2.63 15.93-5.22 23.92-7.75a304.068 304.068 0 00-17.87-40.88c-8.5.76-15.08 4.05-23.5 4.93zM47 281.87c-9.48-.07-18.98.23-28.5.91a430.606 430.606 0 0124.17 45.83c8.92-1.87 17.83-3.37 26.73-4.5A341.76 341.76 0 0047 281.87zm13.12.36a299.806 299.806 0 0121.62 40.47 840.7 840.7 0 0125.89-2.09 367.695 367.695 0 00-20.05-36.53c-9.12-.91-18.28-1.52-27.46-1.85zm411.78-44.07c-8.63.84-17.26 1.54-25.88 2.1a366.41 366.41 0 0020.03 36.53c9.12.85 18.22 1.49 27.45 1.84a299.682 299.682 0 01-21.6-40.47zm-60.87 3.42v-40.81a62.04 62.04 0 00-7.56-29.8c-5.05 1.96-10.09 3.92-15.13 5.86-1.64-8.82-2.68-17.75-3.45-26.82a61.748 61.748 0 00-11.85-6.7 270.77 270.77 0 004.53 37.65c-7.42 2.8-14.83 5.72-22.23 8.75a235.4 235.4 0 01-5.13-37.65c5.61-3.7 11.34-7.3 17.02-10.92a62.099 62.099 0 00-18.7-2.8H192.78a62.51 62.51 0 00-44.16 18.28 62.475 62.475 0 00-18.31 44.14v93.77c5.15 7.92 9.8 16.15 13.93 24.65-4.64.11-9.28.28-13.93.43v13.28c6.43-.64 12.87-1.29 19.29-1.84 5.23 12.44 9.45 25.29 12.62 38.41-7.86 2.38-15.72 4.8-23.59 7.25a394.394 394.394 0 00-8.3-28.85v8.68c0 13.09 4.12 25.85 11.8 36.45 7.73-3.03 15.46-6.02 23.19-8.97 1.79 10.03 3.04 20.15 3.74 30.31 3.72 1.54 7.59 2.71 11.54 3.49-.62-12.74-2.13-25.41-4.54-37.94 7.43-2.8 14.84-5.72 22.23-8.75 2.73 12.39 4.45 24.97 5.13 37.64-5.17 3.41-10.39 6.7-15.59 10.01 1.65.13 3.29.25 4.96.25h155.76c8.21 0 16.33-1.62 23.91-4.76a62.484 62.484 0 0033.81-33.82 62.49 62.49 0 004.75-23.91v-86.61c-6.78-.93-13.57-1.87-20.34-2.8a207.504 207.504 0 01-15.94-24.66c7.79-.22 15.58-.38 23.36-.52a214.7 214.7 0 0012.92 22.28v-19.39c4.78 9.5 10.22 18.65 16.29 27.38 8.72 1.21 17.44 2.33 26.19 3.29a345.084 345.084 0 01-19.35-34.64c-7.73.3-15.44.54-23.13.72zm-51.54-7.73h.02c-7.11.76-14.23 1.67-21.34 2.8-4.35-7.74-7.91-15.9-10.63-24.35 8-3.11 12.18-4.57 20.72-7.43 2.87 9.97 6.63 19.67 11.23 28.98zM340 158.94c1.12 11.75 2.88 23.42 5.28 34.97-8.41 3.57-12.62 5.38-20.61 9.17-2.74-9.67-4.62-19.57-5.61-29.58 6.91-5.04 13.89-9.89 20.94-14.56zm-11.4 79.36v.06c-6.54 1.16-13.02 2.69-19.39 4.57-3.8-5.72-7.03-11.81-9.63-18.17 6.08-3.23 12.32-6.15 18.7-8.75a122.79 122.79 0 0010.32 22.29zm-52.57 18.95v.03a81.846 81.846 0 00-14.59 11.22c-2.57-2.76-4.98-5.66-7.23-8.69 4.14-5.01 8.72-9.63 13.7-13.81 2.4 3.97 5.12 7.73 8.13 11.26zm-1.11-17.06h.03c5.2-4.02 10.67-7.65 16.39-10.88a97.948 97.948 0 009.29 16.3c-5.93 1.95-11.67 4.42-17.17 7.37a88.541 88.541 0 01-8.54-12.8zm-17.95 53.72v-.08c3.6 3.07 6.94 6.43 9.97 10.07-5.64 2.66-11.51 4.79-17.54 6.38-3.39-4.58-7.2-8.83-11.38-12.7a97.79 97.79 0 0018.95-3.66zm13.19 13.94a88.11 88.11 0 018.53 12.79c-5.19 4.01-10.66 7.64-16.37 10.86a99.38 99.38 0 00-9.29-16.3c5.91-1.95 11.65-4.41 17.14-7.35zm7.49-4.24a81.048 81.048 0 0014.55-11.19c2.57 2.77 4.99 5.67 7.23 8.71-4.13 5.01-8.72 9.63-13.7 13.79-2.4-3.98-5.1-7.76-8.09-11.31zm19.01-36.55c-3.6-3.07-6.94-6.43-9.97-10.07a102.76 102.76 0 0117.54-6.31c3.39 4.59 7.2 8.84 11.38 12.71a97.79 97.79 0 00-18.95 3.66zm13.01-86.54c1.02 9.21 2.96 18.29 5.77 27.12-7.75 3.93-11.48 5.97-18.63 10.3-2.74-7.15-4.78-14.56-6.08-22.11 7.27-6.28 11.07-9.31 18.94-15.31zm-27.26 22.65c1.42 6.82 3.5 13.49 6.21 19.91a153.82 153.82 0 00-16.28 12.24c-2.59-5-4.74-10.21-6.42-15.59 5.21-5.8 10.71-11.33 16.49-16.56zm-23.57 24.68a92.26 92.26 0 006.49 13.75c-4.93 4.55-9.46 9.52-13.54 14.85-2.39-3.3-4.59-6.73-6.59-10.28a169.35 169.35 0 0113.64-18.32zm-19.26 27.43c2.59 3.77 3.91 5.52 6.56 8.9-4.03 5.74-7.53 11.84-10.44 18.22-2.44-2.52-3.71-3.81-6.43-6.48 2.91-7.13 6.36-14.04 10.32-20.64zm-10.98 42.99c4.46 4.31 8.49 9.04 12.06 14.12-6.52 1.47-13.12 2.57-19.77 3.29-3.89-6.23-8.37-12.06-13.39-17.41 7.03.38 14.07.38 21.1 0zm-31.49-.65l.06.03c5.28 5.88 9.98 12.27 14.02 19.07-7.23.66-14.48 1.09-21.69 1.4-4.44-8.07-9.59-15.72-15.39-22.88 7.64.97 15.32 1.79 23.01 2.38zm-24.09 68.57v.03c-3.1-12.34-7.19-24.41-12.24-36.1 7.67-.64 15.32-1.3 22.99-2.06 4.43 10.19 8.3 20.61 11.58 31.22-7.47 2.37-14.9 4.65-22.33 6.91zm21.18-39.2l-.03-.03c7.09-.76 14.23-1.67 21.32-2.8 4.34 7.75 7.9 15.91 10.63 24.36-8 3.1-12.17 4.56-20.71 7.42-2.88-9.96-6.63-19.65-11.22-28.95zm19.45 74.89a319.996 319.996 0 00-5.28-34.97c8.41-3.58 12.62-5.38 20.62-9.17 2.74 9.67 4.61 19.57 5.61 29.58-6.92 5.03-13.9 9.88-20.95 14.56zm11.39-79.39h.03c6.54-1.17 13.01-2.69 19.39-4.57 3.79 5.71 7.02 11.78 9.63 18.11-6.09 3.22-12.33 6.14-18.71 8.73-2.69-7.75-6.15-15.21-10.33-22.28zm18.94 57.86c-1.02-9.2-2.95-18.28-5.76-27.1 7.74-3.93 11.48-5.97 18.62-10.32 2.74 7.16 4.78 14.56 6.08 22.12-7.27 6.26-11.07 9.31-18.94 15.3zm27.25-22.67v-.04c-1.42-6.83-3.49-13.5-6.18-19.94 5.69-3.7 11.12-7.79 16.26-12.22a94.92 94.92 0 016.42 15.63c-5.22 5.8-10.72 11.33-16.5 16.57zm23.58-24.74a91.684 91.684 0 00-6.49-13.74c4.93-4.56 9.46-9.53 13.54-14.86 2.38 3.31 4.58 6.74 6.59 10.29-4.14 6.4-8.7 12.51-13.64 18.31zm19.26-27.42c-2.59-3.76-3.89-5.52-6.55-8.89 4.03-5.74 7.53-11.84 10.44-18.22 2.44 2.52 3.71 3.81 6.43 6.48-2.91 7.13-6.36 14.03-10.33 20.64zm10.97-42.92A96.069 96.069 0 01313 248.47c6.52-1.47 13.12-2.57 19.77-3.29 3.88 6.23 8.36 12.07 13.39 17.43-7.03-.39-14.08-.39-21.11 0zm54.4 3l.03.03c-7.64-.97-15.31-1.79-23.01-2.38-5.29-5.88-9.98-12.27-14.02-19.08 7.23-.66 14.47-1.08 21.69-1.4 4.42 8.05 9.54 15.69 15.31 22.84zm-9.53-32.83v.06c-4.43-10.18-8.3-20.6-11.58-31.21 7.43-2.4 14.87-4.68 22.32-7.01 3.1 12.34 7.19 24.41 12.24 36.1-7.65.64-15.31 1.32-22.98 2.06z" fill="#ff6900"/></svg>