<svg xmlns="http://www.w3.org/2000/svg" width="512" height="512" viewBox="0 0 512 512"><path d="M103.41 275.8h-.17c-9.37 0-16.87 7.6-16.87 16.97s7.68 16.97 17.05 16.97 16.97-7.6 16.97-16.97-7.6-16.97-16.97-16.97zm54.44 0h-.17c-9.37 0-16.87 7.6-16.87 16.97s7.68 16.97 17.05 16.97 16.97-7.6 16.97-16.97-7.6-16.97-16.97-16.97z" fill="#f58518"/><path d="M99.51 493.5h252.12c37.42 0 67.86-30.44 67.86-67.86v-20.71c0-20.33-9.17-38.39-23.39-50.84 2.92-2.55 5.82-5.13 8.3-8.21 2.44-3.02 3.78-6.78 3.78-10.67v-.17c0-9.37-7.6-16.88-16.97-16.88-5.57 0-10.51 2.72-13.61 6.88-.55.65-1.23 1.13-1.82 1.74-6.33 6.48-14.88 10.29-24.09 10.29H99.5c-18.68-.04-33.86-15.23-33.86-33.92v-20.69c0-18.71 15.22-33.93 33.93-33.93h98.41c6.46 0 11.89-3.75 14.76-9.06 1.29-2.39 2.21-5 2.21-7.9 0-9.37-7.6-16.97-16.97-16.97H99.57c-18.71 0-33.93-15.22-33.93-33.93v-20.7c0-18.71 15.22-33.93 33.93-33.93h78.04c.97 0 1.81-.4 2.73-.55 8.02-1.35 14.24-8.01 14.24-16.41 0-9.37-7.6-16.97-16.97-16.97H99.57c-37.42 0-67.86 30.44-67.86 67.86v20.7c0 20.36 9.2 38.45 23.45 50.9-14.25 12.45-23.45 30.53-23.45 50.9v20.69c0 20.35 9.19 38.42 23.42 50.87-14.26 12.45-23.48 30.54-23.48 50.92v20.71c0 37.42 30.44 67.86 67.86 67.86zm0-122.5h252.12c18.71 0 33.93 15.22 33.93 33.93v20.71c0 18.71-15.22 33.93-33.93 33.93H99.51c-18.71 0-33.93-15.22-33.93-33.93v-20.71c0-18.71 15.22-33.93 33.93-33.93z" fill="#009ddc"/><path d="M103.41 432.25c9.37 0 16.97-7.6 16.97-16.97s-7.6-16.97-16.97-16.97h-.17c-9.37 0-16.87 7.6-16.87 16.97s7.68 16.97 17.05 16.97zm54.44-33.93h-.17c-9.37 0-16.87 7.6-16.87 16.97s7.68 16.97 17.05 16.97 16.97-7.6 16.97-16.97-7.6-16.97-16.97-16.97z" fill="#f58518"/><path d="M280.02 398.32c-9.37 0-16.97 7.6-16.97 16.97s7.6 16.97 16.97 16.97h68.05c9.37 0 16.97-7.6 16.97-16.97s-7.6-16.97-16.97-16.97h-68.05z" fill="#f5bc18"/><path d="M103.41 153.3h-.17c-9.37 0-16.87 7.6-16.87 16.97s7.68 16.97 17.05 16.97 16.97-7.6 16.97-16.97-7.6-16.97-16.97-16.97zm54.44 0h-.17c-9.37 0-16.87 7.6-16.87 16.97s7.68 16.97 17.05 16.97 16.97-7.6 16.97-16.97-7.6-16.97-16.97-16.97z" fill="#f58518"/><path d="M345.98 312.65c9.7-.08 20.09-3.56 29.02-7.36 63.99-24.63 105.35-86.46 105.35-157.54v-46.59c0-22.77-16.32-42.33-38.81-46.52-23.07-4.28-46.63-13.96-70-28.76-15.52-9.83-35.59-9.85-51.09 0-23.39 14.8-46.95 24.48-70.02 28.76-22.49 4.18-38.81 23.76-38.81 46.54v40.04c0 47.26 19.02 91.83 50.73 124.8 17.87 18.58 39.73 33.52 64.59 43.09a53.055 53.055 0 0019.05 3.54zM245.55 101.18c0-6.45 4.66-11.98 11.08-13.17 27.34-5.08 54.92-16.34 81.98-33.47 2.27-1.44 4.82-2.17 7.37-2.17s5.11.73 7.4 2.17c27.05 17.13 54.63 28.39 81.96 33.46 6.42 1.2 11.08 6.73 11.08 13.16v46.59c0 56.92-32.81 106.33-83.59 125.87l-9.95 3.82a19.28 19.28 0 01-13.77 0c-55.96-21.53-93.55-76.27-93.55-136.22v-40.04z" fill="#89c540"/><path d="M332.24 214.42c4.34 0 8.68-1.66 12-4.97l63.8-63.8c6.63-6.63 6.63-17.36 0-23.99-6.63-6.63-17.36-6.63-23.99 0l-51.8 51.8-24.31-24.31c-6.63-6.63-17.36-6.63-23.99 0-6.63 6.63-6.63 17.36 0 23.99l36.3 36.3c3.31 3.31 7.65 4.97 12 4.97z" fill="#89c540"/></svg>