<svg xmlns="http://www.w3.org/2000/svg" width="512" height="512" viewBox="0 0 512 512"><path d="M404.14 204.13h-3.45v-41.45c0-79.5-64.68-144.18-144.18-144.18S112.33 83.18 112.33 162.68v41.45h-4.47c-8.51 0-15.41 6.9-15.41 15.41V478.1c0 8.51 6.9 15.41 15.41 15.41h296.29c8.51 0 15.41-6.9 15.41-15.41V219.53c0-8.51-6.9-15.41-15.41-15.41zm-261-41.45c0-62.51 50.86-113.37 113.37-113.37s113.37 50.86 113.37 113.37v41.45h-44.16v-40.19c0-38.58-31.39-69.98-69.97-69.98s-69.98 31.39-69.98 69.98v40.19h-42.63v-41.45zm151.77 1.25v40.19h-78.33v-40.19c0-21.6 17.57-39.16 39.16-39.16s39.16 17.57 39.16 39.16zm93.83 275.93H123.26V234.94h265.48v204.92z" fill="#139cd8"/><path d="M197.36 300.93c-5.62-3.38-11.99-5.07-19.11-5.07h-24.92v85.31h25.09c7.08-.04 13.44-1.76 19.08-5.16s10-8.18 13.1-14.35c3.1-6.17 4.64-13.22 4.64-21.15v-3.93c0-7.93-1.58-15.01-4.73-21.24s-7.54-11.03-13.16-14.41zm.97 40.1c-.08 8.36-1.84 14.78-5.29 19.28-3.45 4.49-8.44 6.74-14.97 6.74H170V310.1h8.23c6.56 0 11.55 2.24 14.97 6.71 3.41 4.47 5.12 11.04 5.12 19.72v4.51zm140.97-10.19c-5.15-1.64-9.06-3.4-11.71-5.27-2.65-1.87-3.98-4.2-3.98-6.97 0-2.97 1.13-5.36 3.39-7.18 2.26-1.82 5.43-2.72 9.51-2.72s7.51 1.08 9.85 3.25 3.51 5.21 3.51 9.11h16.69c0-5.12-1.25-9.69-3.76-13.71-2.5-4.02-6.02-7.14-10.54-9.34-4.53-2.21-9.68-3.31-15.47-3.31s-10.93 1.02-15.55 3.05c-4.62 2.03-8.16 4.86-10.63 8.47-2.47 3.61-3.7 7.72-3.7 12.33 0 8.87 4.6 15.92 13.8 21.15 3.37 1.91 7.96 3.86 13.74 5.83 5.79 1.97 9.79 3.85 12.02 5.62 2.23 1.78 3.34 4.33 3.34 7.65 0 3.05-1.11 5.42-3.34 7.12-2.23 1.7-5.32 2.55-9.29 2.55-10.68 0-16.02-4.71-16.02-14.12h-16.75c0 5.51 1.35 10.35 4.03 14.53 2.69 4.18 6.59 7.47 11.71 9.87 5.12 2.4 10.79 3.6 17.02 3.6 8.97 0 16.11-2.1 21.42-6.3 5.3-4.2 7.95-9.99 7.95-17.37 0-6.64-2.17-12.19-6.51-16.64-4.34-4.45-11.26-8.18-20.75-11.19zm-62.69 21.27l-32.54-56.25h-16.69v85.31h16.69v-56.13l32.49 56.13h16.69v-85.31h-16.63v56.25z" fill="#f48520"/></svg>