<svg width="512" height="512" viewBox="0 0 512 512" fill="none" xmlns="http://www.w3.org/2000/svg"><path d="M256 28.69C130.67 28.69 28.69 130.66 28.69 256S130.66 483.31 256 483.31 483.31 381.34 483.31 256 381.33 28.69 256 28.69zm0 412.06c-101.87 0-184.64-82.77-184.64-184.64S154.24 71.47 256 71.47c101.76-.11 184.64 82.77 184.64 184.64S357.87 440.75 256 440.75z" fill="#fec10e"/><path d="M432.74 429.89c-9.51-7.01-22.85-4.97-29.83 4.5-3.33 4.52-8.46 7.11-14.06 7.11H93.81c-9.62 0-17.45-7.82-17.45-17.45v-60.02c0-9.62 7.83-17.45 17.45-17.45H218.1c11.78 0 21.33-9.55 21.33-21.33s-9.55-21.33-21.33-21.33h-1.88c-1.43-.3-2.9-.47-4.41-.47H93.82c-9.62 0-17.45-7.82-17.45-17.45v-60.02c0-9.62 7.83-17.45 17.45-17.45h295.04c6.12 0 11.69 3.12 14.89 8.35 6.17 10.05 19.29 13.21 29.34 7.05 10.04-6.15 13.2-19.29 7.05-29.33-1.68-2.74-3.6-5.25-5.64-7.64 9-10.51 14.47-24.12 14.47-39.01V87.93c0-33.15-26.97-60.11-60.11-60.11H93.81c-33.15 0-60.11 26.97-60.11 60.11v60.02c0 14.89 5.47 28.5 14.47 39.02-9 10.51-14.47 24.13-14.47 39.02v60.02c0 14.89 5.47 28.5 14.47 39.02-9 10.51-14.47 24.13-14.47 39.02v60.02c0 33.15 26.97 60.11 60.11 60.11h295.04c19.01 0 37.1-9.14 48.4-24.45 7-9.48 4.98-22.84-4.5-29.83zM76.36 87.94c0-9.62 7.83-17.45 17.45-17.45h295.04c9.62 0 17.45 7.83 17.45 17.45v60.02c0 9.62-7.82 17.45-17.45 17.45H93.81c-9.62 0-17.45-7.83-17.45-17.45V87.94zm50.65 51.34c11.78 0 21.33-9.55 21.33-21.33s-9.55-21.33-21.33-21.33-21.33 9.55-21.33 21.33 9.55 21.33 21.33 21.33zM105.68 256c0 11.78 9.55 21.33 21.33 21.33s21.33-9.55 21.33-21.33-9.55-21.33-21.33-21.33-21.33 9.55-21.33 21.33zm343.45-16.23H284.88c-16.09 0-29.18 12.33-29.18 27.47v116.88c0 15.14 13.1 27.47 29.18 27.47h164.25c16.09 0 29.17-12.33 29.17-27.47V267.24c0-15.15-13.09-27.47-29.17-27.47zm-38.15 35.47l-43.97 36.51-43.97-36.51h87.95zm29.51 100.89H293.52v-78.04l60.97 50.61c7.1 5.91 17.88 5.93 25.04 0l60.96-50.6v78.03zm-334.81 17.92c0 11.78 9.55 21.33 21.33 21.33s21.33-9.55 21.33-21.33-9.55-21.33-21.33-21.33-21.33 9.55-21.33 21.33z" fill="#3279be"/></svg>