<svg xmlns="http://www.w3.org/2000/svg" width="512" height="512" viewBox="0 0 512 512"><path d="M462.47 256.92c-22.32-4.01-43.56-17.16-51.66-22.63-8.44-5.7-18.27-8.72-28.42-8.72s-19.98 3.01-28.42 8.72c-8.1 5.46-29.34 18.62-51.66 22.63-17.98 3.23-31.03 18.83-31.03 37.09v48.43c0 86.99 99.33 132.34 103.56 134.22l7.55 3.37 7.55-3.37c4.23-1.89 103.56-47.23 103.56-134.22v-48.43c0-18.26-13.05-33.86-31.03-37.09zm-6.01 85.52c0 51.32-53.85 85.51-74.07 96.55-20.25-11.05-74.07-45.24-74.07-96.55v-48.43c0-.32.22-.58.55-.63 28.21-5.07 53.35-19.96 65.83-28.39 2.3-1.55 4.96-2.37 7.7-2.37s5.4.82 7.7 2.37c12.47 8.43 37.62 23.31 65.83 28.39.33.06.55.32.55.63v48.43z" fill="#f58518"/><path d="M437.02 31.97H74.06c-30.63 0-55.56 24.92-55.56 55.56v237.04c0 30.63 24.92 55.56 55.56 55.56h165.05a148.153 148.153 0 01-4.86-37.04H74.06c-10.21 0-18.52-8.31-18.52-18.52V98.88l200 148.76 200-148.76v117.56c4.82 1.91 9.4 3.29 13.48 4.03a74.885 74.885 0 0123.55 8.49V87.53c0-30.63-24.92-55.56-55.56-55.56zM255.54 201.48L77.43 69.01h356.21L255.53 201.49z" fill="#009ddc"/></svg>