<svg xmlns="http://www.w3.org/2000/svg" width="512" height="512" viewBox="0 0 512 512"><path d="M419.39 158.93H317.7c-12.27 0-22.47-10.04-22.47-22.47V34.92c2.55.96 4.78 2.55 6.69 4.46l112.85 113.01c1.91 1.91 3.51 4.14 4.62 6.54z" fill="#fff"/><path d="M371.94 232.09c0-7.92-6.42-14.35-14.35-14.35H154.36c-7.92 0-14.35 6.42-14.35 14.35s6.42 14.35 14.35 14.35h203.23c7.92 0 14.35-6.42 14.35-14.35z" fill="#139cd8"/><path d="M425 142.26l-113.01-113c-6.82-6.84-16.34-10.76-26.09-10.76H113.11c-20.29 0-36.84 16.51-36.84 36.82v401.36c0 20.31 16.53 36.82 36.84 36.82H222.3c7.92 0 14.35-6.42 14.35-14.35s-6.42-14.35-14.35-14.35H113.11c-4.48 0-8.13-3.65-8.13-8.13V55.32c0-4.48 3.65-8.13 8.13-8.13h167.8v89.29c0 20.29 16.51 36.79 36.8 36.79h89.33v106.8c0 7.92 6.42 14.35 14.35 14.35s14.35-6.42 14.35-14.35v-111.9c0-9.64-3.92-19.1-10.73-25.92zm-115.39-5.78V67.45l77.13 77.13h-69.03c-4.46 0-8.1-3.63-8.1-8.1z" fill="#139cd8"/><path d="M154.36 164.08h81.48c7.92 0 14.35-6.42 14.35-14.35s-6.42-14.35-14.35-14.35h-81.48c-7.92 0-14.35 6.42-14.35 14.35s6.42 14.35 14.35 14.35zm76.38 150.42c0-7.92-6.42-14.35-14.35-14.35h-62.01c-7.92 0-14.35 6.42-14.35 14.35s6.42 14.35 14.35 14.35h62.01c7.92 0 14.35-6.42 14.35-14.35zm-76.35 67.9c-7.92 0-14.35 6.42-14.35 14.35s6.42 14.35 14.35 14.35h38.57c7.92 0 14.35-6.42 14.35-14.35s-6.42-14.35-14.35-14.35h-38.57z" fill="#139cd8"/><path d="M382.55 424.82c10.65-13.93 17.23-31.11 17.23-49.95 0-45.62-37.12-82.73-82.73-82.73s-82.73 37.11-82.73 82.73 37.12 82.73 82.73 82.73c16.4 0 31.61-4.94 44.47-13.2l36.77 36.77c2.81 2.81 6.47 4.21 10.15 4.21s7.35-1.4 10.15-4.21c5.61-5.59 5.61-14.68 0-20.28l-36.06-36.07zm-119.53-49.96c0-29.79 24.24-54.04 54.04-54.04s54.04 24.24 54.04 54.04-24.24 54.04-54.04 54.04-54.04-24.24-54.04-54.04z" fill="#f4bc19"/></svg>