<svg data-name="Layer 1" xmlns="http://www.w3.org/2000/svg" viewBox="0 0 512 512"><path d="M292.14 339.11c.4-.95.82-1.93 1.27-2.87a118.73 118.73 0 015.73-11.24 126.3 126.3 0 004.11 13.23v.2c1.54 4.31 3.21 8.47 5 12.46A219.41 219.41 0 00333.53 394a226 226 0 01-2.64-43.09c.23-6.16 3.59-30.67 4.78-35.7a6.25 6.25 0 01.3-1.3 172.33 172.33 0 0111.13-32h-82.58v69h23.19a123 123 0 014.38-11.76" fill="#c6564e"/><path d="M462.83 273.27a178 178 0 01-25.85 69 229.54 229.54 0 00-34.47-129.31A183 183 0 00333.63 394a211 211 0 01-34.47-69 122.64 122.64 0 0011.71 141.32 116.68 116.68 0 00174.33 1.12c40-44.41 16.61-154.29-22.41-194.17" fill="#f0ce49"/><path d="M92.21 75H6V23.24A17.22 17.22 0 0123.25 6h69z" fill="#ed7161"/><path d="M92.21 75h172.44V6H92.21z" fill="#d75a4a"/><path d="M402.49 75H264.6V6h120.66a17.22 17.22 0 0117.23 17.24z" fill="#c6564e"/><path d="M316.3 144h86.19V75H316.3z" fill="#d75a4a"/><path d="M143.91 144H316.3V75H143.91z" fill="#ed7161"/><path d="M6 144h137.91V75H6z" fill="#ba4d45"/><path d="M6 212.91h86.21V144H6z" fill="#d75a4a"/><path d="M92.21 212.91h172.44V144H92.21z" fill="#c6564e"/><path d="M264.6 212.91h137.89V144H264.6z" fill="#ba4d45"/><path d="M143.91 281.88H316.3v-69H143.91z" fill="#d75a4a"/><path d="M6 281.88h137.91v-69H6z" fill="#ed7161"/><path d="M6 350.86h86.21v-69H6z" fill="#c6564e"/><path d="M92.21 350.86h172.44v-69H92.21z" fill="#ba4d45"/><path d="M6 350.84h137.91v69H23.25A17.22 17.22 0 016 402.58z" fill="#ed7161"/><path d="M287.76 350.84H143.91v69h142.4a125.46 125.46 0 011.45-69z" fill="#d75a4a"/><path d="M402.49 212.91H316.3v69h30.86a191.44 191.44 0 0155.33-69z" fill="#ed7161"/></svg>