<svg xmlns="http://www.w3.org/2000/svg" width="512" height="512" viewBox="0 0 512 512"><path d="M256 18.5L61.5 99.52V232.9c0 119.88 82.92 232.17 194.5 260.6 111.58-27.25 194.5-139.54 194.5-259.41V99.52L256 18.5zm0 89.79c14.41 0 28.38 5 39.52 14.15a62.254 62.254 0 0121.57 36.01c2.81 14.14.63 28.81-6.17 41.52a62.35 62.35 0 01-31.11 28.19 62.311 62.311 0 01-75.64-22.96 62.256 62.256 0 01-10.19-40.72 62.3 62.3 0 0138.18-51.45 62.331 62.331 0 0123.85-4.74zm97.37 264.15A204.633 204.633 0 01256 441.85a204.7 204.7 0 01-97.37-69.41v-53.3c0-39.56 64.91-59.7 97.37-59.7s97.37 20.14 97.37 59.7v53.3z" fill="#669df6" fill-rule="evenodd"/><path d="M256 18.5v89.79c16.52 0 32.37 6.56 44.06 18.25 11.69 11.68 18.25 27.53 18.25 44.06s-6.56 32.37-18.25 44.06A62.316 62.316 0 01256 232.91v26.53c32.46 0 97.37 20.14 97.37 59.7v53.3A204.633 204.633 0 01256 441.85v50.46c111.58-27.25 194.5-139.54 194.5-259.41V99.52L256 18.5z" fill="#4285f4" fill-rule="evenodd"/></svg>