<svg xmlns="http://www.w3.org/2000/svg" width="512" height="512" viewBox="0 0 512 512"><path d="M211.74 437.86h28.87v-28.87h-28.87v28.87zm119.31 0h28.87v-28.87h-28.87v28.87zM388.78 409v28.87h28.87V409h-28.87zm-236.69 28.86h28.87v-28.87h-28.87v28.87zm193.39-213.51h-28.87v26.03h-70.8c-6-17.34-22.48-29.82-41.83-29.82-24.4 0-44.26 19.85-44.26 44.26s19.85 44.26 44.26 44.26c11.82 0 22.94-4.6 31.29-12.96 4.83-4.83 8.4-10.59 10.56-16.86h99.64v-54.9zM214.87 275.7a15.28 15.28 0 01-10.88 4.51c-8.49 0-15.39-6.9-15.39-15.39s6.9-15.39 15.39-15.39 15.39 6.9 15.39 15.39c0 4.11-1.6 7.98-4.51 10.88zm56.52 162.16h28.87v-28.87h-28.87v28.87z" fill="#f58518"/><path d="M502.32 313.15v-96.69l-36.1-7.44a215.465 215.465 0 00-22.13-53.32l20.26-30.87-68.37-68.37-30.83 20.29a215.271 215.271 0 00-53.32-22.14l-7.49-36.11h-96.69l-7.44 36.1a215.583 215.583 0 00-53.29 22.11l-30.91-20.24-68.36 68.35 20.26 30.87a215.536 215.536 0 00-22.11 53.26l-36.11 7.54v96.66l36.11 7.49c2.98 11.22 6.85 22.15 11.58 32.72H9.68V493.5h492.63V353.36h-47.69c4.73-10.57 8.6-21.5 11.58-32.72l36.11-7.49zM68.38 464.63H38.55v-82.41h29.83v82.41zm405.07-82.4v82.41H97.24v-82.41h376.21zM133.78 264.82c0-67.39 54.83-122.22 122.22-122.22s122.22 54.83 122.22 122.22c0 33.56-13.78 65.51-37.98 88.54H171.76c-24.2-23.04-37.98-54.99-37.98-88.54zm308.47 31.32l-2.01 9.14c-3.69 16.8-9.64 32.94-17.73 48.09h-44.1c18.47-25.54 28.68-56.44 28.68-88.54 0-83.31-67.78-151.09-151.09-151.09s-151.09 67.78-151.09 151.09c0 32.1 10.21 63.01 28.68 88.54h-44.1a187.116 187.116 0 01-17.74-48.09l-2.01-9.14-31.2-6.47v-49.71l31.21-6.52 2-9.12c4.78-21.76 13.32-42.31 25.37-61.09l5.06-7.88-17.53-26.71 35.15-35.15L146.55 111l7.87-5.05a187.152 187.152 0 0161.14-25.37l9.15-2.01 6.43-31.2h49.68l6.47 31.21 9.14 2c21.78 4.78 42.37 13.33 61.17 25.41l7.89 5.07 26.68-17.56 35.13 35.13-17.53 26.71 5.06 7.88c12.07 18.81 20.62 39.39 25.39 61.18l2.01 9.15 31.19 6.43v49.68l-31.2 6.47z" fill="#009ddc"/></svg>