<svg data-name="Layer 1" xmlns="http://www.w3.org/2000/svg" viewBox="0 0 512 512"><path d="M94.82 379H65.54v29.29h29.28zM212 379h-29.25v29.29H212zm234.39 0H270.64v29.29h175.79zm-293 0h-29.25v29.29h29.29zm117.25-246h175.79v-29.34H270.64zM506 206.2V30.41H6V206.2h59.57v99.6H6v175.79h500V305.8h-59.57v-99.6zm-29.29 128.89V452.3H35.29V335.09zM94.86 305.87V206.2h322.25v99.67zm-59.57-129V59.7h441.42v117.14zM182.75 133H212v-29.34h-29.25zm-58.61 0h29.29v-29.34h-29.29zm-58.6 0h29.28v-29.34H65.54z" fill="#1d83d4"/></svg>