<svg data-name="Layer 1" xmlns="http://www.w3.org/2000/svg" viewBox="0 0 512 512"><path d="M179.83 433.05a59 59 0 00-12.3-9.55 130.3 130.3 0 00-16.17-8c-4.39-1.81-8.33-3.56-11.83-5.28a61 61 0 01-8.88-5.23 22.64 22.64 0 01-5.66-5.66 11.9 11.9 0 01-2-6.73 11.32 11.32 0 011.79-6.25 15.42 15.42 0 015-4.75 26.66 26.66 0 018-3.08 45.57 45.57 0 0110.46-1.1 67.6 67.6 0 018.84.62 71.87 71.87 0 019.37 1.93 66.49 66.49 0 019.15 3.3 50.58 50.58 0 018.22 4.61v-31.3a81.91 81.91 0 00-16.7-4.33 134.9 134.9 0 00-20.77-1.41 97 97 0 00-22.6 2.56 57.75 57.75 0 00-18.78 8 39.81 39.81 0 00-12.82 13.88c-3.14 5.6-4.72 12.33-4.72 20.13q0 15 8.64 25.53t26.22 17.89q6.9 2.82 12.86 5.55a72.65 72.65 0 0110.3 5.62 27 27 0 016.86 6.38 13 13 0 012.5 7.85 11.91 11.91 0 01-1.56 6 14 14 0 01-4.77 4.84 27.18 27.18 0 01-7.95 3.19 48.78 48.78 0 01-11.15 1.13 64.23 64.23 0 01-41.32-15.26v33.47a69.35 69.35 0 0019.3 6.28 126.83 126.83 0 0023.5 2.09 108.62 108.62 0 0022.85-2.3 55.74 55.74 0 0019-7.58 38.87 38.87 0 0012.93-13.82q4.77-8.54 4.75-21.09a43.4 43.4 0 00-2.71-15.95 37.69 37.69 0 00-7.85-12.18zm-35.28-133.33a28.39 28.39 0 0020.38 8.28h172.59a28.35 28.35 0 0020.37-8.27 26.65 26.65 0 008.64-20V135.44a26.6 26.6 0 00-8.64-20 28.41 28.41 0 00-20.37-8.28h-14.14V78.3a70.85 70.85 0 00-9.65-36.3 71.83 71.83 0 00-26.17-26.33 72.87 72.87 0 00-72.58 0A71.92 71.92 0 00188.74 42a70.76 70.76 0 00-9.66 36.21v29h-14.15a28.42 28.42 0 00-20.38 8.35 26.78 26.78 0 00-8.63 20v144.2a26.68 26.68 0 008.63 20zm62.11-221.51a43.2 43.2 0 016.17-22.14 44.93 44.93 0 0116.44-16.33 43.43 43.43 0 0144.19 0 44.71 44.71 0 0116.33 16.33 43 43 0 016 22.11v29h-89.12zM369 476V353.33h-33.79v150.06h89.37V476zm-69-42.95a59.93 59.93 0 00-12.28-9.55 132 132 0 00-16.19-8c-4.39-1.81-8.31-3.56-11.81-5.28a60.43 60.43 0 01-8.88-5.23 22.47 22.47 0 01-5.66-5.66 11.9 11.9 0 01-2-6.73 11.4 11.4 0 011.78-6.25 15.56 15.56 0 015-4.75 26.7 26.7 0 017.95-3.08 45.63 45.63 0 0110.46-1.1 68.11 68.11 0 018.85.62 72.76 72.76 0 019.36 1.93 66.23 66.23 0 019.13 3.3 51.11 51.11 0 018.23 4.61v-31.3a81.74 81.74 0 00-16.7-4.33 134.63 134.63 0 00-20.75-1.41 96.9 96.9 0 00-22.6 2.56 57.75 57.75 0 00-18.78 8 39.93 39.93 0 00-12.83 13.88c-3.13 5.6-4.71 12.33-4.71 20.13q0 15 8.64 25.53t26.22 17.89q6.89 2.82 12.86 5.55a72.65 72.65 0 0110.3 5.62 27.33 27.33 0 016.85 6.38 13 13 0 012.51 7.85 11.83 11.83 0 01-1.58 6 13.84 13.84 0 01-4.77 4.84 26.89 26.89 0 01-7.94 3.19 48.69 48.69 0 01-11.14 1.13 64.23 64.23 0 01-41.33-15.26v33.47a69.53 69.53 0 0019.31 6.28A126.72 126.72 0 00251 506a108.79 108.79 0 0022.86-2.3 55.66 55.66 0 0019-7.58 38.78 38.78 0 0012.93-13.82q4.77-8.54 4.76-21.09a43 43 0 00-2.71-15.95 37.36 37.36 0 00-7.84-12.21z" fill="#77bc1f"/><path fill="#fff" d="M303.46 157.09l-76.22 76.3-30.05-30.03-9.99 10.18 40.04 40.03 86.4-86.32-10.18-10.16z"/></svg>