<svg data-name="fc3b6c64-8cff-4148-a72b-4151f6d69c80" xmlns="http://www.w3.org/2000/svg" viewBox="0 0 512 512"><path d="M256 6C117.93 6 6 118 6.07 256.07S118.07 506 256.14 506s250-112 249.93-250.07A250 250 0 00256 6zm-.09 61.83c103.92-.76 188.78 82.87 189.54 186.79S362.58 443.4 258.66 444.16h-2.75C152.1 444.16 68.57 359.83 68.57 256S152.08 67.83 255.93 67.83z" fill="#fdb511"/><path d="M353.75 280.15v-7.55a27.67 27.67 0 00-55.32 0v7.55A23.06 23.06 0 00278.14 303v46.1a9.2 9.2 0 009.18 9.19h77.46a9.2 9.2 0 009.22-9.19V303a23 23 0 00-20.21-22.87zm-36.89-7.55a9.23 9.23 0 0118.45-.61V280h-18.45zm38.74 67.31h-59V303a4.6 4.6 0 014.61-4.61H351a4.62 4.62 0 014.6 4.61zm7.59-175.43a37 37 0 00-26-10.84H174.9a36.92 36.92 0 00-36.9 36.89V297a36.91 36.91 0 0036.9 36.9h73.29a9.18 9.18 0 100-18.36H174.9a18.48 18.48 0 01-18.46-18.36v-104.7l80.11 49.82a36.53 36.53 0 0039 0l80.1-49.81v40a9.19 9.19 0 0018.37 0v-42a37 37 0 00-10.83-26zm-97.43 62.15a18.24 18.24 0 01-19.46 0l-82.07-51.08A18.28 18.28 0 01175 172.1h162.25a18.34 18.34 0 0110.75 3.45z" fill="#1d83d4"/></svg>