<svg width="48" height="48" viewBox="0 0 48 48" fill="none" xmlns="http://www.w3.org/2000/svg"><path d="M16.006 24.089c.259 1.59-1.122 2.484-2.522 2.588-.89 1.83-4.03 3.067-6.747 1.735-1.157.176-1.803-.115-2.294-.67.99-1.28 4.004-3.584 7.684-2.393 1.965.633 2.476-.858 1.981-1.417-1.854-2.105-6.04-.21-6.189-.052 1.645-2.518 7.526-3.223 8.087.209zm-5.636-2.893c.009 0-1.338-.48-3.22.334a1.982 1.982 0 01-.224-.096c1.812-1.203 3.399-1.714 4.758-1.515-.823-.945-4.773-1.641-7.036.628-2.797-.552-4.756 1.82-4.643 3.984.111 2.165 2.475 3.516 3.82 3.148a.41.41 0 01.096 0c.301-1.43 1.515-4.76 6.449-6.48v-.003zm11.267 1.978l.242-1.102h-4.206l-.095.428a.492.492 0 00.51.636h1.952l-3.46 3.055-.234 1.026h4.463l.256-1.122h-2.822l3.394-2.92zm2.81.89c-.193-.05-1.305-.216-1.235-.6.076-.427.601-.47.857-.462.526.015.692.247.72.33.064.21.266.347.485.328h.83c.093-.515.116-1.7-1.813-1.7-.62 0-1.446.153-1.992.784-.293.338-.796 1.176-.281 1.805.27.318.964.567 1.735.715.488.097.747.29.692.522-.033.154-.228.504-.945.504-.321 0-1.016-.053-.885-.77h-1.314c-.154.654-.212 1.795 1.792 1.795.771 0 2.344-.098 2.755-1.735.289-1.193-1.043-1.42-1.402-1.513v-.004h.001zm4.645 1.817c-.23.21-.532.322-.843.308-.993.01-.882-.963-.747-1.565s.455-1.542 1.398-1.542c.669 0 .747.434.781.56h1.35c-.047-1.428-1.142-1.7-1.915-1.68-2.12.052-2.734 1.823-2.924 2.646-.553 2.406.985 2.699 1.721 2.699a2.892 2.892 0 002.7-1.68h-.965a.716.716 0 00-.556.255zm5.522.493c-.39.46-.932.765-1.529.86-1.175.193-2.79.144-2.385-1.542.131-.54.332-.895.739-1.157.679-.445 1.579-.51 1.872-.542.1-.01.838-.066.964-.503.126-.438-.555-.46-.744-.463-.579 0-.771.226-.878.367h-1.294c.522-1.376 1.966-1.429 2.356-1.429.436 0 2.188 0 1.853 1.45-.508 2.206-.524 2.429-.955 2.96h.001zm-.578-1.75c-.264.106-.535.19-.812.25-.27.08-.77.114-1.026.349-.212.193-.578 1.026.303 1.042a1.415 1.415 0 001.433-1.197c.042-.2.102-.443.102-.443v-.001zm3.327-4.048h-.694l-1.518 6.648H36.5l1.38-6.017a.49.49 0 00-.517-.639v.008zm3.506 5.064h.964a2.937 2.937 0 01-2.699 1.681c-2.057 0-1.928-1.835-1.72-2.699.579-2.42 2.202-2.647 2.923-2.647.963 0 2.47.398 1.704 3.034h-3.344c-.082.349-.152 1.207.77 1.197a1.13 1.13 0 00.712-.193c.124-.087.24-.374.69-.381v.008zm-1.975-1.507h1.971c.168-.945-.416-1.045-.748-1.045-.283-.007-.956.095-1.224 1.037v.008h.001zm4.873-1.488c-.904.617-1.205 1.61-1.309 2.088-.082.374-.569 2.492-.569 2.492h1.35s.516-2.34.616-2.646c.106-.372.455-1.38 1.805-1.34l.312-1.157a3.643 3.643 0 00-2.205.555v.008zm2.36-1.566l.041-.164h.729l-.035.162h-.26l-.15.712h-.194l.148-.712-.278.002zm1.198-.164l.066.632.34-.632H48l-.193.873h-.18l.16-.694-.37.694h-.145l-.085-.694-.13.694h-.18l.183-.873h.265z" fill="#236BF5"/></svg>