<svg data-name="Layer 1" xmlns="http://www.w3.org/2000/svg" viewBox="0 0 512 512"><path d="M449.601 125.725c-2.673-8.89-9.128-16.121-17.188-20.547L268.745 24.1c-4.316-2.213-9.129-2.766-13.445-2.766-4.316 0-9.128 0-13.406 1.106L78.187 104.072c-8.059 3.872-13.941 11.103-16.118 20.546l-40.22 182.664c-1.605 9.444.535 18.887 5.92 26.671l113.25 144.891c6.455 6.677 15.584 11.103 24.674 11.656h180.322c9.663 1.106 18.792-3.319 24.674-11.656l113.25-144.891c5.386-7.784 7.525-17.227 6.455-26.671l-40.793-181.557z" fill="#326DE6"/><path d="M439.944 299.348c-.584 0-1.167 0-1.167-.604 0-.603-1.167-.603-2.333-.603-2.334-.604-4.667-.604-7.042-.604-1.167 0-2.333 0-3.5-.603h-.583c-6.459-.604-13.459-1.81-19.917-3.621-1.75-.603-3.5-2.414-4.083-4.224l-4.667-1.207c2.333-17.587 1.167-35.734-2.333-53.321-4.084-17.587-11.125-34.527-20.5-49.657l3.5-3.62v-.604c0-1.81.583-4.224 1.75-5.431 5.25-4.828 10.541-8.492 16.375-12.113l3.5-1.81c2.333-1.207 4.083-2.414 6.458-3.621.583-.603 1.167-.603 1.75-1.207.583-.603 0-.603 0-1.207 5.25-4.224 6.458-11.509 2.333-16.94-1.75-2.414-5.25-4.224-8.208-4.224-2.917 0-5.875 1.207-8.208 3.017l-.584.604c-.583.603-1.166 1.206-1.75 1.206-1.75 1.811-3.5 3.621-4.666 5.432-.584 1.207-1.75 1.81-2.334 2.414-4.083 4.827-9.375 9.698-14.625 13.319-1.166.603-2.333 1.207-3.5 1.207-.583 0-1.75 0-2.333-.604h-.583l-4.667 3.018c-4.667-4.828-9.958-9.699-14.625-14.527-21.667-17.586-48.583-28.449-76.125-31.509l-.583-4.828v.603c-1.75-1.206-2.334-3.017-2.917-4.827 0-6.682 0-13.32 1.167-20.604v-.604c0-1.207.583-2.414.583-3.62.583-2.415.583-4.828 1.167-7.285v-3.707c.583-6.078-4.084-12.113-9.959-12.716-3.5-.604-7.041 1.207-9.958 4.224-2.333 2.414-3.5 5.431-3.5 8.492v3.017c0 2.414.583 4.828 1.167 7.285.583 1.207.583 2.413.583 3.62v.604c1.167 6.681 1.167 13.319 1.167 20.604-.584 1.81-1.167 3.621-2.917 4.828v1.207l-.583 4.827c-6.459.604-12.875 1.811-19.917 3.018-27.5 6.078-52.708 21.207-72 42.415l-3.5-2.414h-.583c-.584 0-1.167.604-2.334.604-1.166 0-2.333-.604-3.5-1.207-5.25-4.225-10.541-9.095-14.625-13.923-.583-1.207-1.75-1.811-2.333-2.414-1.75-1.81-2.917-3.621-4.667-5.431-.583-.604-1.166-.604-1.75-1.207l-.583-.604c-2.333-1.81-5.25-3.017-8.208-3.017-3.5 0-6.459 1.207-8.209 4.224-3.5 5.432-2.333 12.716 2.334 16.941.583 0 .583.603.583.603s1.167 1.207 1.75 1.207c1.75 1.207 4.083 2.414 6.458 3.621l3.5 1.81c5.875 3.621 11.709 7.285 16.375 12.113 1.167 1.207 2.334 3.62 1.75 5.431v-.604l3.5 3.621c-.583 1.207-1.166 1.811-1.75 3.018-18.166 29.699-25.75 64.829-20.5 99.356l-4.666 1.207c0 .604-.584.604-.584.604-.583 1.81-2.333 3.017-4.083 4.224a106.038 106.038 0 01-19.917 3.621c-1.166 0-2.333 0-3.5.603-2.333 0-4.666.604-7.041.604-.584 0-1.167.603-2.334.603-.583 0-.583 0-1.166.604-6.459 1.207-10.542 7.284-9.375 13.923 1.166 5.431 6.458 9.095 11.708 8.491 1.167 0 1.75 0 2.917-.603.583 0 .583 0 .583-.604 0-.603 1.75 0 2.333 0 2.334-.603 4.667-1.81 6.459-2.414 1.166-.603 2.333-1.207 3.5-1.207h.583c6.458-2.413 12.292-4.224 19.333-5.431h.584c1.75 0 3.5.604 4.666 1.811.584 0 .584.603.584.603l5.25-.603c8.791 27.845 25.166 52.717 48 70.864 5.25 4.224 9.958 7.888 15.791 10.906l-2.916 4.224c0 .603.583.603.583.603 1.167 1.811 1.167 4.225.583 6.078-2.333 6.078-5.875 12.113-9.375 17.587v.603c-.583 1.207-1.166 1.811-2.333 3.018-1.167 1.207-2.333 3.621-4.083 6.078-.584.603-.584 1.207-1.167 1.81 0 0 0 .603-.583.603-2.917 6.078-.584 13.32 4.666 16.337 1.167.604 2.917 1.207 4.084 1.207 4.666 0 8.791-3.017 11.125-7.285 0 0 0-.603.583-.603 0-.603.583-1.207 1.167-1.81.583-2.414 1.75-4.225 2.333-6.682l1.167-3.62c1.75-6.682 4.666-12.716 7.625-18.794 1.166-1.811 2.916-3.018 4.666-3.621.584 0 .584 0 .584-.603l2.333-4.828c16.375 6.681 33.375 9.698 50.917 9.698 10.541 0 21.083-1.207 31.625-4.224 6.458-1.207 12.875-3.621 18.75-5.431l2.333 4.224c.583 0 .583 0 .583.604 1.75.603 3.5 1.81 4.667 3.62 2.917 6.078 5.875 12.113 7.625 18.794v.604l1.167 3.62c.583 2.414 1.166 4.828 2.333 6.682.583.603.583 1.207 1.167 1.81 0 0 0 .604.583.604 2.333 4.224 6.458 7.284 11.125 7.284 1.75 0 2.917-.603 4.667-1.207 2.333-1.207 4.666-3.62 5.25-6.681.583-3.017.583-6.078-.584-9.095 0-.604-.583-.604-.583-.604 0-.603-.583-1.206-1.167-1.81-1.166-2.414-2.333-4.224-4.083-6.078-.583-1.207-1.167-1.81-2.333-3.017v-1.207c-4.084-5.431-7.042-11.509-9.375-17.587-.584-1.81-.584-4.224.583-6.078 0-.603.583-.603.583-.603l-1.75-4.828c29.875-18.794 52.709-47.846 63.25-82.373l4.667.603c.583 0 .583-.603.583-.603 1.167-1.207 2.917-1.811 4.667-1.811h.583c6.459 1.207 12.875 3.018 18.75 5.432h.584c1.166.603 2.333 1.206 3.5 1.206 2.333 1.207 4.083 2.414 6.458 3.018.583 0 1.167.603 2.333.603.584 0 .584 0 1.167.604 1.167.603 1.75.603 2.917.603 5.25 0 9.958-3.621 11.708-8.491-.5-6.552-5.208-11.423-10.458-12.63zm-169.209-18.794l-15.791 7.888-15.792-7.888-4.083-17.587 11.125-14.526h17.583l11.125 14.526-4.167 17.587zm95.417-39.355c2.917 12.716 3.5 25.432 2.333 38.148L312.86 263.01c-5.25-1.207-8.208-6.681-7.041-12.112.583-1.81 1.166-3.017 2.333-4.224l43.917-41.209c6.458 10.906 11.166 23.018 14.083 35.734zm-31.625-58.148l-48 35.13c-4.083 2.414-9.958 1.811-12.875-2.414-1.167-1.207-1.75-2.413-1.75-4.224l-3.5-61.166c25.75 3.018 48.583 14.527 66.125 32.674zm-105.958-30.906l11.708-2.414-2.917 60.562c0 5.431-4.666 9.699-9.958 9.699-1.75 0-2.917-.604-4.667-1.207l-48.583-35.734c15.167-15.13 33.917-26.036 54.417-30.906zm-71.417 53.32l43.333 39.959c4.084 3.62 4.667 9.698 1.167 13.922-1.167 1.811-2.333 2.414-4.667 3.018l-56.791 16.94c-1.792-25.389 4.041-51.424 16.958-73.839zm-9.958 102.374l57.958-10.302c4.667 0 9.375 3.018 9.958 7.889.584 1.81.584 4.224-.583 6.077l-22.25 55.735c-20.5-13.966-36.917-35.174-45.083-59.399zm132.916 75.089c-8.208 1.811-16.375 3.018-25.166 3.018-12.292 0-25.167-2.414-36.875-6.078l28.708-53.924c2.917-3.621 7.625-4.828 11.708-2.414 1.75 1.207 2.917 2.414 4.667 4.224l28.125 52.717c-3.583.647-7.083 1.25-11.167 2.457zm71.417-52.674c-8.792 14.526-21.083 27.242-35.125 36.338l-22.833-56.942c-1.167-4.828 1.166-9.699 5.25-11.509 1.75-.604 3.5-1.207 5.25-1.207l58.541 10.302c-2.875 8.449-6.416 16.337-11.083 23.018z" fill="#fff"/></svg>