<svg width="512" height="512" viewBox="0 0 512 512" fill="none" xmlns="http://www.w3.org/2000/svg"><path d="M496.001 148.466c-5.372-11.095-11.588-21.802-18.8-31.901l-77.054 28.043c8.96 9.171 16.49 19.48 22.647 30.504l73.207-26.646zM155.39 233.691l-77.077 28.042c.985 12.361 3.12 24.57 6.11 36.533l73.219-26.658c-2.382-12.385-3.226-25.145-2.252-37.917z" fill="#C22133"/><path d="M326.442 126.636c16.032 7.483 29.919 17.686 41.635 29.649l77.054-28.042c-21.345-29.953-50.42-54.981-86.038-71.6C248.931 5.273 117.505 53.1 66.148 163.25c-16.63 35.643-22.811 73.501-19.903 110.163l77.066-28.042c1.278-16.701 5.348-33.437 12.819-49.481 33.379-71.565 118.747-102.62 190.312-69.255zm82.187 140.814c-1.231 16.689-5.442 33.425-12.935 49.481-33.367 71.577-118.748 102.633-190.301 69.267-16.056-7.495-30.047-17.616-41.717-29.602l-76.901 27.983c21.298 29.954 50.337 54.993 85.978 71.623 110.163 51.358 241.565 3.531 292.934-106.632 16.642-35.618 22.776-73.476 19.844-110.104l-76.902 27.984z" fill="#DB212E"/><path d="M427.578 173.371l-73.219 26.646c13.605 24.371 20.032 52.425 17.921 80.643l76.9-27.971a222.017 222.017 0 00-21.602-79.318zM89.219 296.507L16 323.177a222.91 222.91 0 0034.434 74.638l76.889-27.995c-19.738-20.266-32.862-45.916-38.104-73.313z" fill="#EB2126"/><path d="M484.838 128.165c-2.427-3.941-4.949-7.823-7.634-11.6l-77.054 28.043c3.389 3.471 6.508 7.154 9.487 10.93l75.201-27.373zM155.093 249.166a136.5 136.5 0 01.293-15.47l-77.077 28.042c.398 4.937 1.02 9.84 1.759 14.731l75.025-27.303z" fill="#AD213B"/><path d="M485.526 239.467l-76.902 27.983c-.809 11.071-2.966 22.166-6.497 33.073l83.704-30.516a220.926 220.926 0 00-.305-30.54zM86.781 384.591a218.434 218.434 0 0019.598 23.797l83.716-30.529c-9.782-6.122-18.625-13.264-26.424-21.263l-76.89 27.995z" fill="#BA2133"/></svg>