<svg data-name="Layer 1" xmlns="http://www.w3.org/2000/svg" viewBox="0 0 512 512"><path d="M326.48 433.61H185.52c-5.54 0-10.86-2.47-14.28-6.84l-89.13-111.8c-3.54-4.36-4.84-10.39-3.43-15.82l34-136.94c1.3-5.19 4.72-9.56 9.56-11.93l125.95-63.16c5.08-2.59 11.21-2.59 16.3 0l127.5 63.16c4.83 2.48 8.37 6.85 9.68 12.17l32.34 136.82c1.3 5.55 0 11.21-3.54 15.7l-89.95 111.8c-3.31 4.37-8.5 6.84-14.05 6.84zm-140.6-18.89h140.36l89.6-111.44-32.22-136.23-127.15-62.92-125.48 62.92L97.11 303.4l88.78 111.32z" fill="#218fcf"/><path d="M24.39 307.06l20.55-4.6 40.25-161.85-16.05-13.82-44.75 180.27zM445.83 126.8l-16.17 13.35 38.49 162.43 20.42 4.49-42.74-180.27z" fill="#1e4488"/><path d="M28.41 325.48L145.87 472.8l9.2-18.77L48.94 320.86l-20.54 4.61zm435.37-4.61l-107.19 133.4 9.2 18.78 118.64-147.56-20.66-4.61z" fill="#78be43"/><path d="M266.29 30.11v21.13l152.29 75.43 15.94-13.23-168.23-83.33zm-18.88.11l-166.1 83.23 15.46 13.35 150.64-75.44V30.22zM172.07 462.3l-9.2 18.89h185.81l-9.2-18.89h-167.4z" fill="#19bfd3"/></svg>