<svg data-name="Layer 1" xmlns="http://www.w3.org/2000/svg" viewBox="0 0 512 512"><path d="M112.94 443.79a13 13 0 01-8.88 3.28 14.19 14.19 0 01-11.37-5.16q-4.38-5.16-4.38-17.32 0-11.44 4.42-16.57a14.66 14.66 0 0111.59-5.12 13.26 13.26 0 0113.51 10.76l12.82-3.06q-2.19-7.69-6.56-11.81-7.35-7-19.11-7-13.49 0-21.74 8.88T75 425.55q0 15.13 8.22 23.89t21 8.7q10.32 0 17-5.08t9.62-15.61l-12.55-4q-1.64 7.07-5.35 10.34zM81 362.76a13.75 13.75 0 004.3 3.53 12.64 12.64 0 006 1.39 15.94 15.94 0 008.59-2.54 16.11 16.11 0 006.24-7.34 25.9 25.9 0 002.15-10.8 26.29 26.29 0 00-2-10.25 15.81 15.81 0 00-5.76-7.27 15.39 15.39 0 00-8.82-2.57 13 13 0 00-6.5 1.51 14.53 14.53 0 00-4.81 4.44v-5.06h-6v53.95H81zm2.61-26.7c2.18-2.64 4.67-4 7.49-4a9.19 9.19 0 017.31 3.7q3.07 3.72 3.08 11.17 0 7.81-3.16 11.56a9.51 9.51 0 01-7.52 3.72 9.37 9.37 0 01-7.39-3.6q-3-3.6-3-11.13t3.22-11.42zM254 367.68a18 18 0 0011.17-3.3 16.71 16.71 0 006-9.29l-6.83-.85a12.67 12.67 0 01-4.07 6.1 10.15 10.15 0 01-6.21 1.91 10.79 10.79 0 01-8.15-3.42q-3.27-3.42-3.64-9.84h29.09v-1.77q0-9.64-4.95-15a16.68 16.68 0 00-12.78-5.32 17.14 17.14 0 00-13.15 5.44q-5.07 5.43-5.07 15.27 0 9.51 5 14.8t13.59 5.27zm-8-32.28a10.57 10.57 0 017.68-3 10.15 10.15 0 018.19 3.81q2.06 2.46 2.5 7.38h-21.76a12.13 12.13 0 013.39-8.19zM31 392.93L6 457h13.73L25 442.48h25.66L56.25 457h14.09l-25.68-64.07zm-2 38.75l8.65-23.79 8.84 23.79zm3.66-81.19h22.52l6.28 16.31h8.11L47.54 313h-7.68l-20.67 53.8h7.56zm8-21.59a70.15 70.15 0 002.9-10.28q1.24 4.36 3.82 11.16L53 344.69H34.72zm253.72 99.89h32.18V418h-32.2v-14.23H329v-10.84h-47.59V457h48.77v-10.8h-35.82zm-49 11.59l-16.23-47.45h-14L238 457h13.83l23-64.11h-13.76zM143.06 366.8H150a15.09 15.09 0 01-1.69-4.67 98.48 98.48 0 01-.4-11.68v-8.8a36.93 36.93 0 00-.34-6.1 10.2 10.2 0 00-2.05-4.48 10.67 10.67 0 00-4.59-3 23.54 23.54 0 00-8.12-1.17 25.53 25.53 0 00-8.85 1.4 12.56 12.56 0 00-5.84 3.92 16 16 0 00-2.9 6.69l6.47.88q1.06-4.15 3.26-5.77t6.91-1.65c3.33 0 5.84.74 7.53 2.24 1.24 1.1 1.87 3 1.87 5.69v1.73a60.69 60.69 0 01-11.79 2.28 46.58 46.58 0 00-5.87 1 16.52 16.52 0 00-4.78 2.17 11.07 11.07 0 00-3.41 3.82 10.67 10.67 0 00-1.29 5.21 10.42 10.42 0 003.46 8.05q3.45 3.12 9.87 3.12a20.39 20.39 0 007.27-1.28 24.62 24.62 0 007.09-4.41 14 14 0 001.25 4.81zm-1.88-17.15a16 16 0 01-1.06 6.61 10.4 10.4 0 01-4.37 4.59 13.8 13.8 0 01-6.8 1.65 8.68 8.68 0 01-5.87-1.76 5.65 5.65 0 01-2-4.41 5.57 5.57 0 01.92-3.12 5.75 5.75 0 012.61-2.16 24.44 24.44 0 015.77-1.32 48.08 48.08 0 0010.79-2.51zm353.45 103.94a24.57 24.57 0 008.22-10.41 39.55 39.55 0 002.93-15.92v-4.07a39.13 39.13 0 00-3.15-16.27 23.92 23.92 0 00-9-10.71 24.53 24.53 0 00-13.51-3.72A23.64 23.64 0 00457.71 407a39.07 39.07 0 00-3.19 16.23v4.59a38.19 38.19 0 003.28 15.88 24.81 24.81 0 009.06 10.54 24.4 24.4 0 0013.33 3.67 27 27 0 006.65-.79l13.43 10.68 5.73-5.3zm-14.44-2.8a14.86 14.86 0 01-12.72-6.3q-4.55-6.28-4.55-17.23v-4.68q.13-10.75 4.68-16.8a14.83 14.83 0 0112.51-6.07q8.31 0 12.77 6.12t4.5 17.32v4.72q-.12 11.07-4.59 17t-12.6 5.92zm-69.58-5.47l-20.82-52h-10.85V457h8.4v-24.75l-.83-26.64L407.37 457h6.43l20.91-51.56-.79 26.77V457h8.4v-63.64h-10.89zm-230.32-85.46a9.26 9.26 0 01-6.5 2.39 9.8 9.8 0 01-7.86-3.57q-3-3.56-3-11.42T166 336a10.23 10.23 0 018.12-3.59 8.37 8.37 0 015.62 2 10.69 10.69 0 013.27 5.91l6.42-1a14.62 14.62 0 00-5.18-9.1 16.07 16.07 0 00-10.39-3.23 19 19 0 00-9.33 2.38 14.53 14.53 0 00-6.35 7.1 27.16 27.16 0 00-2.09 11.05q0 9.76 4.85 15t12.88 5.21a15.86 15.86 0 0010.76-3.78 16.91 16.91 0 005.48-10.54l-6.5-.85q-.66 4.92-3.27 7.3zm-42.9 43.91h19V457h13v-53.23h19v-10.84h-51zm59 53.27h12.95v-64.11h-13zm24.57-115v24.76h6.61v-24.72c0-3.81-.47-6.73-1.4-8.74a9.9 9.9 0 00-4.55-4.7 15.62 15.62 0 00-7.53-1.72 14.76 14.76 0 00-11.68 5.36V313h-6.61v53.8h6.61v-21.34a19 19 0 011.1-7.19 8.5 8.5 0 013.68-4.12 10.65 10.65 0 015.54-1.54 7.89 7.89 0 016.06 2.28c1.39 1.49 2.12 3.89 2.12 7.19z" fill="#3279be"/><path d="M363.13 247.81l-57.46-.18L277 197.79l28.88-49.68 57.46.16 28.59 49.86z" fill="#c12766"/><path d="M272.21 299.93l-57.47-.18-28.56-49.86 28.87-49.68 57.47.18 28.59 49.84z" fill="#3e489f"/><path d="M362.47 352.29L305 352.1l-28.57-49.87 28.88-49.68 57.46.18 28.59 49.86z" fill="#714099"/><path d="M272.69 196.09l-57.46-.18L186.64 146l28.9-49.67 57.47.18 28.56 49.86z" fill="#78932c"/><path d="M363 143.91l-57.47-.18L277 93.87l28.89-49.68 57.47.19 28.57 49.87z" fill="#cf242a"/><path d="M333.91 311.13a8.7 8.7 0 10-8.7-8.7 8.69 8.69 0 008.7 8.7z" fill="#fff"/><path d="M343.17 198a8.62 8.62 0 00-7.78-8.52l-.27-86.82a8.65 8.65 0 10-9.4-8.56 8.47 8.47 0 00.56 2.81l-75.85 43.46a8.63 8.63 0 10-7.63 14.35l.26 86.81a8.65 8.65 0 00.58 17.29 8.54 8.54 0 006.8-3.51l77.53 46 1-1.7-77.43-45.94a8.62 8.62 0 00.8-3.55 8.76 8.76 0 00-.68-3.36l76-43.56a8.47 8.47 0 006 3.34l.26 89.35h2l-.26-89.42a8.6 8.6 0 007.51-8.47zm-92.61 47.11a8.44 8.44 0 00-5.52-3.41l-.26-86.85a8.51 8.51 0 006.08-3.29l75.26 44.71a8.43 8.43 0 00-.35 1.73 8.62 8.62 0 00.79 3.55zm76.1-50.81L252 149.87a8.54 8.54 0 00.85-3.64 8.43 8.43 0 00-1.27-4.26l75.62-43.34a8.48 8.48 0 006 3.87l.27 87a8.58 8.58 0 00-6.81 4.75z" fill="#fff"/></svg>