<svg data-name="Layer 1" xmlns="http://www.w3.org/2000/svg" viewBox="0 0 512 512"><path d="M225.06 14.07l-163 94.56a61.86 61.86 0 00-30.75 53.05V350a60.57 60.57 0 0030.75 53.05l163 94.56a60.72 60.72 0 0061.5 0l163.37-94.18a61.83 61.83 0 0030.75-53V161.68a60.58 60.58 0 00-30.75-53.05L286.56 14.07a62.62 62.62 0 00-61.5 0z" fill="#5b7bb4"/><path d="M355.29 227.06v-9.13h-199v9.13l99.52 58.43zm0 13.24l-99.52 58.89-99.52-58.89v94.49h199zm16.43-94.5v204.52h-231.9V145.8H94.63v16h29.21v204.49H387.7V161.78h29.67v-16z" fill="#fff"/></svg>