<svg data-name="Layer 1" xmlns="http://www.w3.org/2000/svg" viewBox="0 0 512 512"><defs><clipPath id="a"><path d="M440.18 127.08H71.82v257.84h368.36C479.84 384.92 512 327.2 512 256s-32.16-128.92-71.82-128.92z" fill="none"/></clipPath></defs><path d="M440.18 127.08H71.82v257.84h368.36C479.84 384.92 512 327.2 512 256s-32.16-128.92-71.82-128.92z" fill="#394d5c"/><ellipse cx="71.82" cy="256" rx="71.82" ry="128.92" fill="#7b8fa5"/><g clip-path="url(#a)" fill="#fff"><path d="M364.89 398.67v-11c37.38 0 67.79-59.08 67.79-131.7s-30.41-131.7-67.79-131.7v-11c41.83 0 75.86 64 75.86 142.67s-34.03 142.73-75.86 142.73zm-110.23 0v-11c37.38 0 67.78-59.08 67.78-131.7S292 124.3 254.66 124.3v-11c41.82 0 75.85 64 75.85 142.67s-34.03 142.7-75.85 142.7zm-102.18 0v-11c37.38 0 67.79-59.08 67.79-131.7s-30.41-131.7-67.79-131.7v-11c41.83 0 75.86 64 75.86 142.67s-34.03 142.73-75.86 142.73z"/></g></svg>