<svg data-name="Layer 1" xmlns="http://www.w3.org/2000/svg" viewBox="0 0 512 512"><defs><linearGradient id="a" x1="224.46" y1="440.1" x2="224.46" y2="201.63" gradientTransform="matrix(1 0 0 -1 0 514)" gradientUnits="userSpaceOnUse"><stop offset="0" stop-color="#0994dc"/><stop offset=".35" stop-color="#66cef5"/><stop offset=".85" stop-color="#127bca"/><stop offset="1" stop-color="#127bca"/></linearGradient><linearGradient id="b" x1="233.55" y1="459.53" x2="233.55" y2="214.99" gradientTransform="matrix(1 0 0 -1 0 514)" gradientUnits="userSpaceOnUse"><stop offset="0" stop-color="#0e76bc"/><stop offset=".36" stop-color="#36aee8"/><stop offset=".85" stop-color="#00adef"/><stop offset="1" stop-color="#00adef"/></linearGradient><linearGradient id="c" x1="282.71" y1="275.41" x2="282.71" y2="470.3" gradientTransform="matrix(1 0 0 -1 0 514)" gradientUnits="userSpaceOnUse"><stop offset="0" stop-color="#1c63b7"/><stop offset=".5" stop-color="#33bdf2"/><stop offset="1" stop-color="#33bdf2" stop-opacity=".42"/></linearGradient><linearGradient id="d" x1="269.92" y1="484.79" x2="269.92" y2="230.9" gradientTransform="matrix(1 0 0 -1 0 514)" gradientUnits="userSpaceOnUse"><stop offset="0" stop-color="#166ab8"/><stop offset=".4" stop-color="#36aee8"/><stop offset=".85" stop-color="#0798dd"/><stop offset="1" stop-color="#0798dd"/></linearGradient><linearGradient id="e" x1="249.91" y1="499.21" x2="249.91" y2="229.25" gradientTransform="matrix(1 0 0 -1 0 514)" gradientUnits="userSpaceOnUse"><stop offset="0" stop-color="#124379"/><stop offset=".39" stop-color="#1487cb"/><stop offset=".78" stop-color="#165197"/><stop offset="1" stop-color="#165197"/></linearGradient><linearGradient id="f" x1="149.53" y1="407.48" x2="187.71" y2="407.48" gradientTransform="matrix(1 0 0 -1 0 514)" gradientUnits="userSpaceOnUse"><stop offset="0" stop-color="#33bdf2" stop-opacity=".7"/><stop offset="1" stop-color="#1dacd8"/></linearGradient><linearGradient id="g" x1="428.17" y1="274.94" x2="428.17" y2="463.95" gradientTransform="matrix(1 0 0 -1 0 514)" gradientUnits="userSpaceOnUse"><stop offset="0" stop-color="#136ab4"/><stop offset=".6" stop-color="#59caf5" stop-opacity=".55"/><stop offset="1" stop-color="#59caf5" stop-opacity=".24"/></linearGradient><linearGradient id="h" x1="-3.05" y1="362.16" x2="138.49" y2="362.16" gradientTransform="matrix(1 0 0 -1 0 514)" gradientUnits="userSpaceOnUse"><stop offset="0" stop-color="#05a1e6" stop-opacity=".25"/><stop offset="1" stop-color="#05a1e6"/></linearGradient><linearGradient id="i" x1="84.39" y1="284.64" x2="84.39" y2="478.7" gradientTransform="matrix(1 0 0 -1 0 514)" gradientUnits="userSpaceOnUse"><stop offset="0" stop-color="#318ed5"/><stop offset="1" stop-color="#38a7e4"/></linearGradient><linearGradient id="j" x1="96.61" y1="268.01" x2="96.61" y2="456.73" gradientTransform="matrix(1 0 0 -1 0 514)" gradientUnits="userSpaceOnUse"><stop offset="0" stop-color="#05a1e6"/><stop offset="1" stop-color="#05a1e6" stop-opacity=".55"/></linearGradient><linearGradient id="k" x1="106.76" y1="279.42" x2="106.76" y2="439.5" gradientTransform="matrix(1 0 0 -1 0 514)" gradientUnits="userSpaceOnUse"><stop offset="0" stop-color="#1959a6"/><stop offset=".5" stop-color="#05a1e6"/><stop offset=".92" stop-color="#7ec5ea"/><stop offset="1" stop-color="#7ec5ea"/></linearGradient><linearGradient id="l" x1="119.23" y1="292.56" x2="65.09" y2="458.02" gradientTransform="matrix(1 0 0 -1 0 514)" gradientUnits="userSpaceOnUse"><stop offset="0" stop-color="#165096"/><stop offset="1" stop-color="#0d82ca"/></linearGradient><linearGradient id="m" x1="395.72" y1="356.81" x2="395.72" y2="447.41" gradientTransform="matrix(1 0 0 -1 0 514)" gradientUnits="userSpaceOnUse"><stop offset="0" stop-color="#05a1e6"/><stop offset=".87" stop-color="#0495d6"/><stop offset="1" stop-color="#0495d6"/></linearGradient><linearGradient id="n" x1="469.6" y1="471.54" x2="385.83" y2="284.69" gradientTransform="matrix(1 0 0 -1 0 514)" gradientUnits="userSpaceOnUse"><stop offset="0" stop-color="#38a7e4" stop-opacity=".33"/><stop offset=".96" stop-color="#0e88d3"/><stop offset="1" stop-color="#0e88d3"/></linearGradient><linearGradient id="o" x1="405.28" y1="466.44" x2="405.28" y2="268.92" gradientTransform="matrix(1 0 0 -1 0 514)" gradientUnits="userSpaceOnUse"><stop offset="0" stop-color="#168cd4"/><stop offset=".5" stop-color="#1c87cc"/><stop offset="1" stop-color="#154b8d"/></linearGradient><linearGradient id="p" x1="174.66" y1="471.73" x2="175.52" y2="451.04" gradientTransform="matrix(1 0 0 -1 0 514)" gradientUnits="userSpaceOnUse"><stop offset="0" stop-color="#97d6ee"/><stop offset=".7" stop-color="#55c1ea"/><stop offset="1" stop-color="#55c1ea"/></linearGradient><linearGradient id="q" x1="197.67" y1="427.68" x2="201.55" y2="449.58" gradientTransform="matrix(1 0 0 -1 0 514)" gradientUnits="userSpaceOnUse"><stop offset="0" stop-color="#7accec"/><stop offset="1" stop-color="#3fb7ed"/></linearGradient><linearGradient id="r" x1="378.62" y1="435.22" x2="378.62" y2="242.15" gradientTransform="matrix(1 0 0 -1 0 514)" gradientUnits="userSpaceOnUse"><stop offset="0" stop-color="#1da7e7"/><stop offset="1" stop-color="#37abe7" stop-opacity="0"/></linearGradient></defs><path d="M179.62 90.85c18 55.11 24.85 153.43 77.55 153.43a64 64 0 0012.12-1.16c-47.88-11.12-53.57-108.41-82.8-158.76-2.29 2.08-4.56 4.25-6.84 6.51" fill="url(#a)"/><path d="M186.49 84.34c29.23 50.35 34.91 147.57 82.8 158.76a76.29 76.29 0 0011.32-3.1c-43-21.07-54.88-115.49-88.07-160.95-2.02 1.71-4.03 3.47-6.05 5.29z" fill="url(#b)"/><path d="M228.61 54.39a65.16 65.16 0 00-12.15 1.2c-10.66 2-21.5 6.59-32.41 13.54a79.33 79.33 0 018.49 10c11.1-9.22 22.13-16 33.13-20.12A73.47 73.47 0 01238 55.59a38.39 38.39 0 00-9.42-1.16" fill="#14559a"/><path d="M314.18 220.62q6.6-5.25 13.21-11.59c-18.3-54.84-24.86-154.56-77.92-154.56A63.66 63.66 0 00238 55.53c48.37 12.02 54.56 117.18 76.18 165.09z" fill="url(#c)"/><path d="M238 55.59a37.6 37.6 0 00-9.44-1.15l20.88.07A62.69 62.69 0 00238 55.58" fill="#3092c4"/><path d="M313.25 232.27a79.4 79.4 0 01-6-6.46A110.09 110.09 0 01280.61 240a41.61 41.61 0 0018.4 4.22c9.92 0 17.76-1.17 24.44-4.38a45.74 45.74 0 01-10.2-7.57z" fill="#1969bc"/><path d="M225.67 59c43.3 22.64 47.06 125.19 81.61 166.83 2.31-1.63 4.6-3.36 6.9-5.19C292.55 172.73 286.37 67.55 238 55.53A74.67 74.67 0 00225.67 59z" fill="url(#d)"/><path d="M192.54 79.09c33.19 45.47 45.07 139.88 88.07 161a109.75 109.75 0 0026.66-14.23C272.73 184.17 269 81.62 225.67 59c-10.99 4.07-22.03 10.88-33.13 20.09z" fill="url(#e)"/><path d="M158.39 89.52c-5.2 11.73-10.52 27.24-16.95 47.42 12.78-18 25.52-33.52 38.18-46.09A134 134 0 00174 76.11a193.28 193.28 0 00-15.65 13.39" fill="url(#f)"/><path d="M178.61 72.74a151.01 151.01 0 00-4.61 3.4 137.5 137.5 0 015.62 14.66c2.3-2.25 4.59-4.43 6.85-6.51a92.17 92.17 0 00-7.89-11.6" fill="#2b74b1"/><path d="M184.05 69.11c-1.82 1.15-3.63 2.36-5.46 3.63a91.19 91.19 0 017.9 11.6c2-1.82 4-3.59 6-5.25a80 80 0 00-8.44-9.98z" fill="#125a9e"/><path d="M479.35 50.2c-24.48 94.42-75.6 170.26-118.5 189.39h-.1c-.78.35-1.55.67-2.32 1a1.33 1.33 0 01-.28.1c-.22.1-.43.17-.65.26a1.66 1.66 0 01-.31.12c-.36.13-.71.24-1.06.38-.16.07-.31.1-.44.15s-.36.13-.54.18a5.07 5.07 0 01-.51.17l-.46.16c-.31.1-.6.17-.91.28a2.6 2.6 0 00-.4.1c-.18.07-.41.11-.61.17a1.66 1.66 0 01-.42.12l-.68.17c-.21 0-.54.13-.82.18a17.38 17.38 0 006.14 1.08c40.65 0 81.65-72.86 149.52-194h-26.66z" fill="url(#g)"/><path d="M132.61 58.23s.06-.07.08-.07a.08.08 0 00.09-.07h.06c.22-.07.43-.16.65-.24h.08l.05-.06c.06 0 .12-.06.18-.07l.7-.25c.54-.16 1-.36 1.56-.55.07 0 .14-.06.23-.06s.45-.15.67-.2a1.6 1.6 0 01.31-.1c.23-.07.46-.15.67-.2a.72.72 0 00.25-.07c.76-.2 1.5-.4 2.24-.57.11 0 .2-.07.31-.08l.65-.13a1.68 1.68 0 01.32-.09c.22-.06.43-.07.67-.12h.14l1.36-.26h.28c.21-.05.41-.06.62-.1a2.32 2.32 0 01.36-.07q.3 0 .6-.09a.63.63 0 00.33-.06c.48-.07 1-.1 1.47-.14-1.41-.13-2.86-.22-4.33-.22-45.75 0-108.87 85-137.21 195h5.47c9.1-16.21 17.27-31.55 24.74-45.93 19.87-77.95 60.4-131.1 96.4-145.18" fill="url(#h)"/><path d="M158.39 89.52A193.28 193.28 0 01174 76.13a71.57 71.57 0 00-3.7-7.13c-4.18 5.08-8 11.78-11.88 20.52m3.73-30.66A38.86 38.86 0 01170.27 69a30.88 30.88 0 012.37-2.65 46 46 0 00-11.07-7.74 5.4 5.4 0 00.49.23s.06.02.09.02z" fill="#0d82ca"/><path d="M36.17 203.37C77.92 122.92 97.74 72 132.61 58.22c-36 14.09-76.54 67.23-96.44 145.15z" fill="url(#i)"/><path d="M172.63 66.34c-.81.83-1.58 1.7-2.36 2.65a72.91 72.91 0 013.73 7.12 180.6 180.6 0 014.61-3.4 62.61 62.61 0 00-6-6.43" fill="#127bca"/><path d="M55.13 249a5 5 0 01-.76.1h-.15c-.22 0-.44.06-.64.06h-.1c-.53.07-1 .07-1.54.11h-.16c42.25-1.19 61.56-22.34 71.15-53 7.29-23.27 13.27-42.86 18.52-59.3-17.7 24.91-35.48 54.6-53.36 87.87-8.62 16-21.72 22.73-33 24.16" fill="url(#j)"/><path d="M55.13 249c11.24-1.44 24.34-8.13 33-24.17 17.88-33.23 35.66-63 53.35-87.87 6.43-20.19 11.73-35.64 16.95-47.41-35.28 33.45-70.67 89.29-103.3 159.39" fill="url(#k)"/><path d="M36.17 203.37c-7.47 14.41-15.64 29.75-24.73 45.93h15.93a389.54 389.54 0 018.79-45.93" fill="#05a1e6"/><path d="M146.11 54.75c-.13 0-.22.06-.34.06a3.11 3.11 0 01-.6.09.7.7 0 00-.35.06 4.37 4.37 0 01-.63.11.43.43 0 00-.27.06l-1.36.25h-.15l-.66.12a1.35 1.35 0 01-.33.09c-.22.06-.43.09-.65.13a.51.51 0 01-.3.07c-.75.18-1.48.37-2.24.58-.08 0-.15.06-.25.07l-.68.21a1 1 0 01-.3.08l-.67.2c-.09 0-.16.07-.24.07-.52.19-1 .38-1.55.55l-.71.24-.3.12-.66.24c-.08.07-.16.07-.22.11C97.74 72 77.93 123 36.21 203.41a387.54 387.54 0 00-8.8 45.93h2.24c6.29 0 8.07-.05 15.32-.05h7c.5-.07 1-.07 1.53-.11h.1c.22 0 .43-.06.65-.06h.14a7.76 7.76 0 00.77-.1c32.63-70.08 68-125.86 103.27-159.41 3.91-8.8 7.7-15.49 11.89-20.52A38.69 38.69 0 00162.21 59a.08.08 0 01-.08-.07l-.5-.23a4.52 4.52 0 00-.49-.25l-.48-.24a4.53 4.53 0 01-.57-.23l-.44-.2c-.31-.12-.62-.24-.92-.38a3.12 3.12 0 00-.39-.15l-.7-.28a2.29 2.29 0 00-.37-.12l-1-.33h-.09c-.36-.12-.72-.21-1.1-.31a.44.44 0 00-.25-.08l-.93-.26c-.08 0-.16-.06-.22-.06-.76-.21-1.53-.37-2.32-.51-.08 0-.17-.07-.25-.07-.33-.06-.66-.12-1-.16l-.09-.05a.21.21 0 00-.11 0l-1.19-.16h-.21c-.32-.06-.62-.07-.92-.1-.5.06-1 .09-1.46.14" fill="url(#l)"/><path d="M383.71 102.5c-8 25.73-14.54 46.95-20.2 64.43 22-30.3 43.76-68.49 64.42-112.52C403.82 62 391 79.29 383.71 102.5z" fill="url(#m)"/><path d="M364.21 238c-1.12.57-2.25 1.12-3.36 1.61 42.9-19.13 94-95 118.5-189.4h-5C418.13 150.69 400.05 218 364.21 238z" fill="url(#n)"/><path d="M336.21 229.54c9.34-11.38 16.93-30.73 27.31-62.63-12 16.44-24 30.56-36.06 42.08 0 .07 0 .07-.07.11a109.57 109.57 0 008.79 20.44" fill="#079ae1"/><path d="M336.21 229.54a38.33 38.33 0 01-10.27 9c-.82.48-1.65.93-2.49 1.34a36.07 36.07 0 0013.07 4.12l2.14.18h.14a8.06 8.06 0 011 .06h3.48a.91.91 0 00.4-.06 3.34 3.34 0 00.77-.06h.38c.26 0 .54-.06.83-.09h.07c.09 0 .17-.07.25-.07.3-.06.61-.09.9-.14h.26l1-.16h.17c.67-.13 1.33-.26 2-.42-5.53-2-10.16-6.85-14.15-13.61" fill="#1969bc"/><path d="M257.16 244.26a65.19 65.19 0 0012.14-1.17 74.94 74.94 0 0011.31-3.09 41.91 41.91 0 009.93 3.39 42.4 42.4 0 008.48.83zm41.84 0c9.91 0 17.76-1.17 24.43-4.37a36.38 36.38 0 0013.1 4.11c.71.06 1.42.13 2.14.18h.14a6.45 6.45 0 011 .06z" fill="#1e5cb3"/><path d="M341 244.26h2.3a.84.84 0 00.39-.06 3 3 0 00.79-.07h.38a7.77 7.77 0 00.83-.08h.07c.07 0 .16-.06.25-.06a8.68 8.68 0 01.89-.14.37.37 0 00.27-.07l1-.16h.16c.68-.13 1.34-.26 2-.43a17.34 17.34 0 006.14 1.08l-15.45.07z" fill="#1d60b5"/><path d="M327.41 209.09V209q-6.62 6.33-13.22 11.58-3.45 2.73-6.91 5.19a81.22 81.22 0 006 6.47 46.84 46.84 0 0010.2 7.61c.83-.41 1.68-.86 2.49-1.34a38.26 38.26 0 0010.28-9 110.36 110.36 0 01-8.8-20.45" fill="#175fab"/><path d="M458.68 50.2h-25c-1.35.06-2.66.1-3.95.19-.62 1.31-1.25 2.62-1.85 3.91-20.67 44-42.39 82.19-64.42 112.52-10.37 31.9-18 51.25-27.31 62.64 4 6.85 8.63 11.59 14.15 13.62a1.67 1.67 0 01.43-.1h.09c.1 0 .21-.07.3-.07.24-.06.47-.1.7-.17s.26-.07.41-.12l.63-.16a.93.93 0 01.38-.1l.91-.29a2.69 2.69 0 01.46-.14c.18-.07.36-.12.51-.19s.37-.1.54-.18l.43-.15c.36-.13.71-.24 1.07-.39.1 0 .2-.08.31-.1l.65-.26a.73.73 0 01.28-.1c.77-.32 1.54-.64 2.32-1h.08c1.11-.49 2.24-1 3.36-1.61 35.84-20 53.93-87.29 110.19-187.78h-15.7z" fill="url(#o)"/><path d="M147.58 54.61a.39.39 0 01.25.06 2 2 0 01.65.08h.2c.39.06.79.09 1.19.15a.14.14 0 01.11 0l.09.05 1 .17c.07 0 .16.07.25.07.77.15 1.55.31 2.32.51.06 0 .13.07.2.07.32.07.62.16.93.26a.79.79 0 01.26.08c.38.1.74.18 1.11.31l.08.06 1 .33a1.74 1.74 0 00.36.13c.23.09.48.18.7.28a1.79 1.79 0 01.39.13l.92.39c.16.06.3.14.45.2l.55.23.49.23c.18.09.34.16.49.25a46.06 46.06 0 0111.07 7.75 35.67 35.67 0 013.91-3.57A43.18 43.18 0 00151 54.61c-1.13 0-2.25.06-3.39.15" fill="#7dcbec"/><path d="M172.63 66.34a62.61 62.61 0 016 6.43c1.82-1.27 3.63-2.49 5.45-3.63a56.93 56.93 0 00-7.5-6.36 33.77 33.77 0 00-3.91 3.56" fill="#5ec5ed"/><path d="M147.58 54.61c1.13-.1 2.27-.13 3.39-.13a43.25 43.25 0 0125.59 8.26c7.81-6.18 17.33-8.34 30.52-8.34h-63.83c1.47 0 2.93.08 4.33.21z" fill="url(#p)"/><path d="M207.08 54.4c-13.19 0-22.68 2.16-30.52 8.34a59.8 59.8 0 017.49 6.36c10.95-6.94 21.75-11.56 32.42-13.51a65 65 0 0112.13-1.15z" fill="url(#q)"/><path d="M363.52 166.91c5.66-17.48 12.15-38.7 20.19-64.44 7.27-23.19 20.11-40.53 44.22-48.09.63-1.3 1.24-2.63 1.85-3.91-39.3 2.35-57.66 22.35-66.93 52-16.16 51.7-26 85.22-35.4 106.57 12.05-11.51 24.09-25.65 36.07-42.07" fill="url(#r)"/><path d="M341.56 322l-21.71 59c-5.42 15.38-9.74 28.77-12.84 41.07h-.55c-3.07-12.66-7.24-26.05-12.3-41.07l-20.8-59h-20.08l-8.5 121.92h15l3.22-52.27c1.09-18.28 2-38.71 2.36-53.91h.36c3.44 14.46 8.32 30.21 14.11 47.4l19.72 58.09h11.93l21.53-59.15c6.15-16.82 11.25-32 15.39-46.31h.6c-.17 15.2.91 35.64 1.81 52.64l3.05 53.59h15.37l-7.6-122zm-146.17 52.85c-16.81-6.51-24.24-12.14-24.24-23.51 0-8.32 6.34-18.28 23-18.28a48.74 48.74 0 0123.16 5.79l4.32-12.85c-5.43-3.08-14.47-6-27-6-23.69 0-39.43 14.08-39.43 33.07 0 17.18 12.3 27.5 32.19 34.56 16.47 6.32 23 12.87 23 24.24 0 12.3-9.4 20.8-25.51 20.8a55.91 55.91 0 01-28.22-8l-4 13.24c6.52 4.34 19.36 7.77 31.12 7.77 28.76 0 42.69-16.28 42.69-35.09.04-17.82-10.47-27.78-31.08-35.74zM106.94 322l-21.71 59c-5.43 15.31-9.74 28.7-12.84 41h-.55c-3.07-12.66-7.23-26.05-12.3-41.07L38.75 322H18.66l-8.49 121.88h15l3.26-52.27c1.09-18.28 2-38.71 2.36-53.92h.36c3.43 14.47 8.32 30.26 14.11 47.45L65 443.2h11.91l21.53-59.12c6.15-16.82 11.25-32 15.38-46.31h.54c-.18 15.2.91 35.64 1.81 52.64l3.08 53.52h15.36L127 322zm-95.08-50.4v6.84h487.66v-6.84zm451 168.57c20.26-7.06 34.73-27.13 34.73-58.43 0-36-21.55-61.69-54.62-61.69s-56.8 25.15-56.8 64.22c0 39.26 24.8 60.6 53.75 61.69a23.2 23.2 0 017.41 1.81c14.11 4.87 30.21 9.76 46.67 14.1l4.5-13.2c-10.31-1.81-23.51-4.68-35.64-7.78zm-21.14-7.06c-24.6 0-38.89-23.36-38.71-49.2-.18-26.41 12.84-51 39.44-51 25.86 0 38.52 25.14 38.52 49.56.03 27.81-14.06 50.6-39.22 50.6z" fill="#258acf"/></svg>