<svg data-name="Layer 1" xmlns="http://www.w3.org/2000/svg" viewBox="0 0 512 512"><path d="M486.63 211.71a19.5 19.5 0 00-13.8-5.71H315.7a14.27 14.27 0 01-14.28-14.28V28a21.95 21.95 0 00-22-22h-56.04a22 22 0 00-22 22v162.73a15.33 15.33 0 01-15.26 15.34l-51.49.25a15.28 15.28 0 01-5.9-1.15 15.33 15.33 0 01-9.51-14.23L119.57 28a21.95 21.95 0 00-22-22h-56a22 22 0 00-21.93 22v458.47A19.53 19.53 0 0039.17 506h433.66a19.53 19.53 0 0019.53-19.53v-261a19.52 19.52 0 00-5.73-13.76zm-87.48 166.45a25.56 25.56 0 01-25.57 25.56h-44.32a25.56 25.56 0 01-25.57-25.56v-44.33a25.56 25.56 0 0125.57-25.55h44.32a25.56 25.56 0 0125.57 25.55z" fill="#f60"/></svg>