<svg width="512" height="512" viewBox="0 0 512 512" fill="none" xmlns="http://www.w3.org/2000/svg"><path d="M319.475 64.401l20.476-36.94a4.114 4.114 0 00.358-3.138 4.136 4.136 0 00-1.966-2.472 4.127 4.127 0 00-5.61 1.609l-20.702 37.35a139.556 139.556 0 00-112.059 0l-20.704-37.35a4.123 4.123 0 00-5.609-1.609 4.128 4.128 0 00-1.608 5.61l20.476 36.94a118.317 118.317 0 00-65.987 104.03h258.923a118.322 118.322 0 00-65.988-104.03zm-123.226 56.653a10.811 10.811 0 1110.811-10.811 10.822 10.822 0 01-10.811 10.811zm119.504 0a10.814 10.814 0 01-10.604-12.921 10.81 10.81 0 018.495-8.494 10.811 10.811 0 0112.921 10.604 10.822 10.822 0 01-10.812 10.811zm-189.215 245.27a31.299 31.299 0 0031.299 31.298h20.77v64.021a29.023 29.023 0 1058.046 0v-64.021h38.696v64.021a29.016 29.016 0 0017.898 26.885 29.032 29.032 0 0022.25 0 29.04 29.04 0 0015.711-15.755 29.023 29.023 0 002.187-11.13v-64.021h20.771a31.295 31.295 0 0031.298-31.298V178.673H126.538v187.651zM86.703 173.693a29.058 29.058 0 00-29.023 29.023v120.928a29.017 29.017 0 008.473 20.573 29.031 29.031 0 0041.1 0 29.027 29.027 0 008.473-20.573V202.716a29.056 29.056 0 00-29.023-29.023zm338.596 0a29.058 29.058 0 00-29.023 29.023v120.928a29.022 29.022 0 1058.046 0V202.716a29.056 29.056 0 00-29.023-29.023z" fill="#AAC148"/></svg>