<svg data-name="Layer 1" xmlns="http://www.w3.org/2000/svg" viewBox="0 0 512 512"><path d="M152.18 113.88c-1.41.11-2.83.22-4.24.23q-8.48 24.24-17.18 48.39-6.69 18.7-13.33 37.44c3.26.06 6.52.05 9.78 0 4.08 0 8.16 0 12.23.09 5.37.21 11 2.45 13.95 7.14 3.39 5.29 3.21 12.08 1.07 17.82q-6.81 19.18-13.67 38.36-8.17 22.92-16.33 45.85c-4.74.06-9.49 0-14.23 0H97.21a7.43 7.43 0 01-2.85-.34q12.18-33.63 24.1-67.35l9-25.38c-2.57-.05-5.14 0-7.71 0h-8a37.35 37.35 0 00-1.73 4.48l-.26.75q-6.39 18-12.8 35.91-8.85 24.81-17.67 49.64a3.45 3.45 0 00-.35.91c-.19.69-.39 1.41-1.15 1.42H51.54a11 11 0 01-3.44-.3q17.05-47.32 33.9-94.8 17.25-48.43 34.62-96.84c-45 9.63-83.66 43.28-100.37 86C9.36 220.24 6.38 238.52 6 256.71a187.58 187.58 0 002.79 26.1 142.51 142.51 0 00104.06 110.86q25.77-72.07 51.4-144.21l17.12-48.1.92-1.87c8.85.09 17.7.08 26.55.07h19.05c3.55-.05 7.13-.09 10.55 1 5.17 1.39 10 5.12 11.58 10.38 1.18 4.15.36 8.57-1.12 12.54-6.22 18.17-12.69 36.25-19.17 54.33q-4.32 12.06-8.63 24.16c-2.29 6.81-9.23 11.09-16.23 11.33-5.49.1-11 .08-16.48.06s-11 0-16.48.06q-13.66 38.06-27.15 76.15l-2.94 8.25a11.1 11.1 0 005.27.49 20.75 20.75 0 012.84-.06 47.5 47.5 0 008.59-.38c1.22-.13 2.45-.26 3.67-.35a142.25 142.25 0 00114.23-79.15 144.24 144.24 0 0014.22-53.51 134.23 134.23 0 01-.14-19.34A142.44 142.44 0 00160.56 114a28.71 28.71 0 00-8.38-.12z" fill="#2171b2"/><path d="M208.75 216a2.69 2.69 0 00-2.37.56q-7.5 20.92-14.94 41.87-6.9 19.43-13.85 38.84l3.78.05c4 .06 8.07.12 12.09-.16 5.36-15.58 10.92-31.1 16.47-46.61 4.12-11.49 8.24-23 12.27-34.5h-12.27a6.32 6.32 0 01-1.18-.05zm134.12-16.61h-19.33l-12.07 63.48A103.37 103.37 0 00310 278.4c0 23.3 14.06 34.38 34.88 34.21 27.44 0 43-14.88 49.42-48.43l12.4-64.79h-19.36L375 264.51c-4.31 22.81-13.89 31.9-27.61 31.9-11.4 0-18.18-7.11-18.18-18.51a72.15 72.15 0 011.32-13.55zM456.75 286l8.76 24.8H486l-21.66-56.7L506 199.39h-23l-16.86 24.46c-3.63 5.78-6.94 11.24-10.74 18h-.5c-1.33-5-2.68-9.16-4.28-14.19-.38-1.17-.76-2.39-1.17-3.66L441 199.39h-20.29l20.16 54.54-42.47 56.87h23.14l16.2-24.47c5.09-7.9 8.55-13.67 12-19.42l.05-.09h.33c2 6.29 3.98 12.24 6.63 19.18z" fill="#2171b2"/></svg>