<svg data-name="Layer 1" xmlns="http://www.w3.org/2000/svg" viewBox="0 0 512 512"><circle cx="256" cy="256" r="220.02" fill="#7db842"/><path d="M256 506A250 250 0 0179.22 79.22a250 250 0 01353.56 353.56A248.36 248.36 0 01256 506zm0-484.57C126.66 21.43 21.43 126.66 21.43 256S126.66 490.57 256 490.57 490.57 385.34 490.57 256 385.34 21.43 256 21.43z" fill="#7db842"/><path d="M234.87 321.26h-30.38l-12.07-29.76h-55.29l-11.42 29.76H96.09l53.87-131h29.53zm-51.42-51.83l-19.06-48.62-18.68 48.62zM242 321.26v-131h27.92v131zm40.47 0l47.27-68.36-42.83-62.65h32.64l27.74 42.09 27.17-42.09h32.36l-43 63.63 47.27 67.38h-33.7L346.72 276 316 321.26z" fill="#fff"/></svg>