<svg width="512" height="512" viewBox="0 0 512 512" fill="none" xmlns="http://www.w3.org/2000/svg"><path d="M146.906 16C74.694 16 16 74.694 16 146.906v218.179C16 437.306 74.694 496 146.906 496h218.179C437.306 496 496 437.306 496 365.094V146.906C496 74.694 437.306 16 365.094 16H146.906zm-36.884 164.4c7.632 0 13.316 5.453 13.316 12.653 0 7.094-5.684 12.547-13.316 12.547-7.747 0-13.401-5.462-13.401-12.547 0-7.191 5.664-12.653 13.401-12.653zm113.674 6.221c39.821 0 64.368 27.801 64.368 72.422 0 44.506-24.336 72.547-64.368 72.547-40.253 0-64.685-27.936-64.685-72.547 0-44.726 24.979-72.422 64.685-72.422zm141.072 0c28.032 0 48.528 16.349 49.834 39.696h-20.938c-2.074-12.768-13.085-20.707-29.232-20.707-17.021 0-28.253 8.054-28.253 20.601 0 9.821 7.2 15.495 25.315 19.747l15.168 3.706c28.474 6.653 40.148 18.115 40.148 38.947 0 26.506-20.516 43.085-53.357 43.085-30.653 0-51.274-15.802-52.8-40.57h21.283c1.853 13.095 14.717 21.476 33.149 21.476 17.241 0 29.894-8.938 29.894-21.264 0-10.474-7.968-16.791-26.294-21.159l-17.895-4.262c-24.979-5.895-36.432-18-36.432-38.285 0-24.643 20.199-41.011 50.41-41.011zm-141.072 19.968c-26.074 0-42.634 20.381-42.634 52.454 0 31.959 16.013 52.589 42.634 52.589 26.294 0 42.442-20.621 42.442-52.589.009-32.064-16.148-52.454-42.442-52.454zM99.779 223.936h20.515v104.4H99.779v-104.4z" fill="#606060"/></svg>