<svg data-name="bb6a3169-1892-45ef-91fa-048b6b9e7cf4" xmlns="http://www.w3.org/2000/svg" viewBox="0 0 512 512"><path d="M449.9 403.3c-1.1-1.3-2.4-2.9-2.9-3.5-2-2.6-3.5-6.6-5.3-13.9-.6-2.6-1.5-6.2-2-8.1-2.1-8.5-4.5-13.5-8.4-17.4a28.48 28.48 0 00-7.6-5.2c-1-.4-1.4-.7-1.4-.9s.5-1.6 1-3.1c6.3-20.8 5.4-43.9-2.6-68-8-23.9-22.8-48.8-45.1-75.7-4.8-5.8-11.4-14.2-15-19.2-9.6-13.4-15-24.1-17.8-35.4-2-8.2-2.1-9.4-2.1-31.2 0-18.2-.1-23.6-.7-32-2.3-30.5-10-52-23.7-65.7a55.6 55.6 0 00-15.1-10.8c-9.6-4.7-19.4-6.9-32.3-7.2-14.3-.3-28 1.8-38.9 6.1-24.1 9.5-37.5 29.7-40.7 61.6a154.77 154.77 0 00-.7 18c0 8.9.1 12.4 1.1 26.8.8 13.1.9 17 .6 20.6-1.5 19-4.9 31.9-12 45.8a108.82 108.82 0 01-13 20c-20.4 24.9-36.6 50.2-46.9 73.4-7.9 17.8-12.3 34.1-13.4 49.6a117.81 117.81 0 00.3 16.8l.3 2.8-1.8 1.9a72.67 72.67 0 00-7.7 9.6c-4.1 5.7-4.8 6.5-6.6 8.3-2.8 2.9-5.7 4.3-15.2 7.7a54.37 54.37 0 00-8.6 3.7 25.44 25.44 0 00-13.1 17.5c-.8 4.4-.6 8.1 1 19a96.4 96.4 0 011.2 10.8 21.86 21.86 0 01-1.5 10.1c-2.5 7.5-3.5 12.6-3.5 18 0 5.1.7 8.2 2.8 11.6a22.67 22.67 0 009.2 7.9c5.5 2.6 11.4 3.8 26.6 5.5 12.3 1.4 17.2 2.1 23.4 3.5a77.46 77.46 0 0119.3 7.1c12.1 6 22.5 9.1 33.9 10.4a65.37 65.37 0 0018.7-1c11.2-2.4 20.4-9.2 25-18.4l.7-1.5 2.9-.1c3.4-.2 6.5-.6 14.6-2.1 17.3-3.2 24.1-4 33.5-4 6.1 0 7.4.1 18.2 1.6 7.4 1 12.1 1.6 15.4 2 3.8.4 11.2.6 13.9.5l2.5-.1.7 2.2a43.25 43.25 0 007 12.6 53.22 53.22 0 007.7 7.3 39.56 39.56 0 0016.9 6.7 52 52 0 006.8.2 32.93 32.93 0 007.7-.6q22.8-4.35 41.6-26c6.4-7.4 12.3-12.1 22.1-17.6 1.4-.8 7.1-3.7 12.7-6.5 13.4-6.7 16.9-8.6 20.7-11.7 12.2-9.9 10.8-22.7-4.4-40.3zM346 226.3a1 1 0 01.9-.2c.6.2 7.4 7.2 9.9 10.2a119.82 119.82 0 0111 15.7h-.4a5.1 5.1 0 00-2.6 2.2c-1.5-2.7-2.7-5.4-4.4-8.1a86.56 86.56 0 00-11-13.8c-3.7-3.7-4.6-5.2-3.4-6zM253.1 99.7a41.74 41.74 0 015.4-13.7 34.25 34.25 0 017.6-7.6 17.8 17.8 0 0111.1-3.2 15.73 15.73 0 018.7 2A26.73 26.73 0 01298 89.9a35.05 35.05 0 013.9 14.8 37.58 37.58 0 01-6.4 24.1 7.89 7.89 0 01-1.2 1.5c-.1-.1-1.2-.5-2.5-1s-3.8-1.5-5.5-2.2l-3.8-1.4-.6-.2 1.6-1.7c2.3-2.4 3.3-4.9 3.8-9.5 1-8.4-2.2-16.7-7.4-19.2a8.58 8.58 0 00-5.9-.3 12.7 12.7 0 00-6.5 6.6 24 24 0 00-2.1 6.4 36.6 36.6 0 00-.2 8.1l.1.9-2.2-1a72.08 72.08 0 00-9.3-3c-1.1-.2-1.2-.3-1.4-1-.1-.4-.1-2.8-.1-5.2.2-2.3.4-4.6.8-6.9zm14.4 24.4c5.1 2.9 7 3.7 17.4 7.5 10.2 3.8 13.5 6 15.5 10.4a11.3 11.3 0 01.1 7.9 23.84 23.84 0 01-4.4 6.9c-3.3 3.7-10.1 7.8-16.4 10.1a62.43 62.43 0 00-11.5 5.9 105.37 105.37 0 01-16 7.4 23.42 23.42 0 01-12 1.3l-1.1-.2c-5-1.1-11.7-4.9-17.9-10.3a87.25 87.25 0 00-7.7-5.9c-7.9-5.2-10.7-7.9-13-12.6a7 7 0 01-1.1-4.7c0-2.9.4-4.2 2.1-6a83 83 0 017.9-6.2c3.6-2.7 8.3-6.5 10.4-8.3 5.9-5.3 9.4-7.6 14-9.3a24.52 24.52 0 0110-1.7c7.8.1 13.1 1.9 23.7 7.8zm-63-37.8a16.41 16.41 0 018.4-6.1 15.2 15.2 0 016.7.3c6 2 11.1 8.5 13.6 17.3a35.28 35.28 0 011.3 10.7v4.1l-2.1.7a39.29 39.29 0 00-6.6 3 10.91 10.91 0 01-1.1.6 32.35 32.35 0 01-.2-3.6 20 20 0 00-2-9.3c-4.9-10.3-13.7-6.9-14.3 5.7-.3 6.2 1.7 12.5 4.9 15.4a2.46 2.46 0 01.8 1 14.21 14.21 0 01-2.6 2v.1c-1.3 1-2.7 2.1-3.1 2.3l-.6.5-1.1-1.2c-3.5-3.9-6.1-9.7-7.3-16.4a53.9 53.9 0 01-.1-13.9 33.28 33.28 0 015.4-13.2zm-42.3 151.9c2.4-3.9 2.9-4.4 2.9-2.9 0 1.1-1.5 4.6-4.4 10.4-1.5 2.9-4.1 8-5.9 11.5a115 115 0 00-4.9 11.4l-.2-.2-2.6-2.3a311.66 311.66 0 0115.1-27.9zm34.5 236.2c-5.3 10.6-18.3 14.9-35.6 11.9l-1.3-.2a163 163 0 01-22.6-7.8c-15.9-6.8-20.8-8-59-13.8C63 462.1 63 459 63 454.5a61.11 61.11 0 012.3-14c2.5-8.2 2.4-13.1.8-26.7-2.3-19.7-1.2-20.6 13.5-26.8 14.3-6 16.9-8 30.5-23.9 7.3-8.5 7.4-8.5 11.4-8.5 10 0 13.7 1.4 30.7 32.1a361.09 361.09 0 0025.9 39.8c19.6 25.3 21.8 34.6 21.8 37.5 0 1.6-1.3 6.5-3.2 10.4zm120.2-112.8c-1.1 3.9-3.1 17.5-4.4 28.4-1.3 11.6-3.6 25.3-4.9 29.9-2.1 7.4-2.5 8.9-23.5 17.1-10.5 4.1-15.2 5-28.5 5.5-12.1.5-16.1.2-22.7-1.9l-2.9-1c-9.8-3.5-18.8-9.4-21.8-13.4a11.55 11.55 0 011.5-1.3 22.7 22.7 0 008.2-18.3c-.3-14.4-12.1-31.6-32.5-47.3-7.2-5.6-16.9-13-21.5-16.5l-3.6-2.8c2.7-3.5 4.6-9.5 6.1-19.1 2.8-18.4 6.7-30.2 20.9-63.4 15.5-35.9 21.1-51.1 25.1-67.7l1-4c10.9 7.8 21 11.7 30.8 11.7h.4c8.8-.1 15.2-2.6 33.9-11.8 7.6-3.8 13.8-6.7 17.7-8.6 4.5 15.1 19.9 52 28.8 71.6 7.9 17.2 17.1 39.7 20.5 50.2l5.2 16-4.5 4.8c-17.2 17.9-26 30.4-29.3 41.9zm111 81.9c-17.5 9-24.1 13.7-37.5 26.3-9.1 8.5-19.3 16.4-23.1 18.3-8.1 4.2-21.2 5.9-28.4 3.6-4.8-1.5-13.5-10.8-15.4-17.9-1.8-6.8-.2-17.1 6.8-42.6a254.7 254.7 0 006.7-38.7c1.9-21.9 3.5-28.4 7.2-33.4 2.4 6.7 7.6 14.4 11.9 17.8 10.8 8.5 30.9 5.3 45.7-7.3 3-2.5 4.5-3.2 10.2-3.2 8.3 0 10.9 0 16.5 19.5 3.6 12.4 7 19.8 12.5 27 4.8 6.4 9.1 12.7 8.5 15.7-1.1 3.9-11.3 9.5-21.6 14.9z" fill="#849fbd"/><path d="M428.4 385.9c-5.7-19.5-8.2-19.5-16.5-19.5-5.7 0-7.2.6-10.2 3.2-14.9 12.5-34.9 15.7-45.7 7.3-4.3-3.4-9.5-11-11.9-17.8-3.7 5-5.3 11.4-7.2 33.4a252.57 252.57 0 01-6.7 38.7c-7 25.5-8.6 35.9-6.8 42.6 1.9 7.1 10.5 16.4 15.4 17.9 7.2 2.3 20.3.6 28.4-3.6 3.9-1.9 14-9.8 23.1-18.3 13.4-12.6 20.1-17.3 37.5-26.3 10.4-5.4 20.6-11 21.5-14.9.7-3-3.7-9.3-8.5-15.7-5.5-7.2-8.8-14.5-12.4-27zm-276.2.8c-17-30.8-20.6-32.1-30.7-32.1-4 0-4.2 0-11.4 8.5C96.5 379 93.9 381 79.6 387c-14.8 6.2-15.8 7.1-13.5 26.8 1.6 13.7 1.7 18.5-.8 26.7a61.11 61.11 0 00-2.3 14c0 4.5 0 7.6 15.1 10 38.2 5.8 43.1 7 59 13.8a150.88 150.88 0 0022.6 7.8l1.3.2c17.2 3 30.2-1.4 35.6-11.9 2-3.9 3.2-8.7 3.2-10.4 0-2.9-2.1-12.2-21.8-37.5-7.2-9.3-18.8-27.2-25.8-39.8z" fill="#ffbc00"/><path d="M219.7 127.5c-2 1.8-6.8 5.6-10.4 8.3-3.9 2.9-7.4 5.7-7.9 6.2-1.6 1.8-2.1 3.1-2.1 6a7.16 7.16 0 001.1 4.7c2.3 4.7 5.1 7.4 13 12.6a87.25 87.25 0 017.7 5.9c6.1 5.4 12.9 9.3 17.9 10.3l1.1.2a23.42 23.42 0 0012-1.3 105.37 105.37 0 0016-7.4 59.8 59.8 0 0111.5-6c6.4-2.3 13.1-6.5 16.4-10.1a26.15 26.15 0 004.4-6.9 10.78 10.78 0 00-.1-7.9c-2.1-4.4-5.3-6.6-15.5-10.4-10.4-3.8-12.3-4.7-17.4-7.6-10.5-6-15.9-7.7-23.8-7.7a24.52 24.52 0 00-10 1.7c-4.4 1.7-8 4.1-13.9 9.4zm30.4-4.9a10.38 10.38 0 016.5.6c1.7.8 2.9 1.6 2.9 3.3a1.89 1.89 0 01-1 1.9v.1l-.6.2a3.92 3.92 0 01-1.8.4 6 6 0 01-3.1-1.2 3.7 3.7 0 00-1.8-.8c-1.7-.5-2.7-1.4-2.8-2.5a2.43 2.43 0 011.7-2zm-.8 41a85.39 85.39 0 0021-9.2c4.3-2.5 12.4-8.5 14-10.2l2.3-2.5a3.13 3.13 0 011.1-.9 4.19 4.19 0 011.5-.4c1.6 0 2.2.7 2.4 1.3.7 2-2.5 5.7-9.4 10.9-4.7 3.5-8 5.5-15.9 9.4-9.8 4.9-15.2 6.7-22.1 7.3a27.28 27.28 0 01-4.1.3 28.67 28.67 0 01-8.7-1.3c-7.5-1.9-14.5-6-22.6-13.2-4.6-4.1-5.8-5.4-6-8-.1-1.2-.2-2.5 1-2.9 2.2-.8 3.7 1.4 4.4 2.6 3.2 4.9 12.9 12.5 19.7 15.3 4.7 2 7 2.4 12.7 2.4 5-.1 5.6-.1 8.7-.9zM238.8 124a2 2 0 01-.1 1.5 3.51 3.51 0 01-2.3 1.6 18.89 18.89 0 00-2.5 1.1 6.72 6.72 0 01-2.8 1 4.19 4.19 0 01-1.6-.4 2.86 2.86 0 01-1.7-1.7 2.45 2.45 0 01.5-2c1.5-2 5.5-3 8-2.7 1.7.2 2.3 1 2.5 1.6z" fill="#ff942a"/><path d="M251.2 127.1a7.57 7.57 0 011.8.9 5 5 0 003.1 1.2 5.26 5.26 0 001.8-.4l.6-.2v-.1a1.89 1.89 0 001-1.9c0-1.7-1.2-2.5-2.9-3.3a10.32 10.32 0 00-6.5-.6c-1.5.6-1.7 1.6-1.6 2 0 1 1 1.9 2.7 2.4zm-23.4 0a2.86 2.86 0 001.7 1.7 4.19 4.19 0 001.6.4 7.26 7.26 0 002.8-1 27.18 27.18 0 012.5-1.1 3.41 3.41 0 002.3-1.6 1.6 1.6 0 00.1-1.5 2.76 2.76 0 00-2.5-1.6c-2.5-.3-6.5.7-8 2.7a2.88 2.88 0 00-.5 2zm-19.3 19.6c-.7-1.1-2.2-3.3-4.4-2.6-1.2.4-1.1 1.7-1 2.9.2 2.6 1.4 3.9 6 8 8.1 7.2 15.1 11.3 22.6 13.2a28.67 28.67 0 008.7 1.3 28.28 28.28 0 004.1-.3c6.9-.7 12.3-2.5 22.1-7.3 7.9-3.9 11.2-5.9 15.9-9.4 6.9-5.2 10-8.9 9.4-10.9-.2-.6-.8-1.3-2.4-1.3a2.82 2.82 0 00-1.5.4 2 2 0 00-1.1.9l-2.3 2.5c-1.6 1.7-9.7 7.7-14 10.2a89.32 89.32 0 01-21 9.2c-3.1.8-3.7.9-8.5.9-5.7 0-8-.4-12.7-2.4-7-2.9-16.7-10.4-19.9-15.3z" fill="#849fbd"/></svg>