<svg data-name="Layer 1" xmlns="http://www.w3.org/2000/svg" viewBox="0 0 512 512"><path d="M217.93 365.07c-14.92.35-15.28 0-15.28-14.73v-67.07H183.2c0 12.82-.11 25.16 0 37.5.13 15 .05 30.06.78 45.06.43 8.93 3.87 12.15 12.87 12.91a98.12 98.12 0 0017.81-.6c10.26-1 11-2.59 7-13.08-1.15 0-2.43-.06-3.73.01zm-86.34-83.34c-21.53-2.57-38.8 6.79-45.52 25.06-4.68 12.69-5.24 25.86-3.16 39.2 2.21 14.12 7.41 26.35 22.22 30.93 16.42 5.09 32.48 4.4 46-7.87 11.81-10.7 13.46-25.29 14.33-41.41-.35-3.31-.71-7.93-1.33-12.52-2.79-20.32-13.33-31.12-32.54-33.39zm11.19 68.88c-3 10.12-10.29 14.95-20.3 14.56-9.76-.38-15.5-5.35-18.43-15.92a43.23 43.23 0 01-1.22-5.86c-.54-4.6-.93-9.22-1.62-16.11 1-4.79 1.71-11.88 3.86-18.47 2.8-8.65 9.89-13 18.84-12.82s15.18 4.21 18.05 12.9a68.56 68.56 0 01.82 41.72zM59.93 330.3c-4.77-3.09-10.13-5.29-15.3-7.76-3.58-1.76-7.35-3.08-10.89-4.88-5.24-2.7-8-7-6.76-13 1.24-5.86 5.7-8.61 11.07-8.79 7.42-.2 14.87.6 22.8 1l2-8.95A46.9 46.9 0 0034.07 282c-11.58 1.21-21.49 5.7-26 17.51-5.38 14 0 26.07 14.65 33.21 6.55 3.18 13.44 5.69 19.9 9 4.86 2.51 7.55 6.85 6.66 12.61-.81 5.47-4.53 9.07-9.6 9.71-6.65.85-13.55.59-20.32.32-3.77-.13-7.59-1.24-11.58-2L6.17 372c13.13 7.94 30.35 9.78 43.94 5s20.11-14.44 19.59-28.8c-.27-7.64-3.47-13.82-9.77-17.9zm249.93-26.18c-1.42-8.34-5.49-15.25-13.5-18.45-18.9-7.54-37.05-3.34-55.26 3.9 1.21 4.36 2.17 7.86 2.93 10.63 9.48-1.53 18.14-3.74 26.88-4.12 16.27-.77 23.18 8.39 19.47 25.38-3.54 0-7.25-.21-10.94 0-10.89.66-21.63 2.05-31 8.38-10.32 7-14.43 19.12-11.14 32.23 2.5 9.93 10.21 16.21 21.8 17.36 10 1 19.37-.84 27.79-6.64 1.91-1.35 3.9-2.57 5.95-3.9 3.68 10.13 3.68 10.13 17.47 8.3v-64.46a52.71 52.71 0 00-.45-8.61zm-22.42 54.37c-6.14 5.65-14 8.6-22.6 6.25-5.41-1.48-8.4-5.52-9-11.07-.79-6.79.18-13.92 7.22-16.12 8-2.5 16.72-2.83 25.17-3.76.88-.1 2.71 2 2.93 3.34.45 2.79.13 5.7.13 8.57l1.65.62c-1.78 4.14-2.5 9.4-5.5 12.17zm218.46-10.81c-.68-9.34-5.6-15.78-13.54-19.83-7.08-3.62-14.62-6.25-21.73-9.76-5.28-2.61-9-6.9-7.55-13.29s6.4-8.84 12.31-9.09c4.83-.19 9.64.43 14.52.79 2.31.16 4.61.52 6.78.78 2.89-10.34 3.05-11.16-6.3-12.93-8.29-1.59-17.18-2.45-25.46-1.22-16.39 2.42-25.21 16.8-21.62 32.76 1.77 7.84 7.19 12.52 14 15.82 6.94 3.39 14.16 6.21 21.07 9.65 4.92 2.44 7.91 6.67 7.31 12.33a11.43 11.43 0 01-10.37 10.56c-6.48.81-13.14.44-19.7.12-3.82-.2-7.63-1.26-11.54-1.95-.69 3.62-1.23 6.4-1.89 9.84 15.14 7.92 30.27 9.75 45.91 4 12.6-4.64 18.78-15.12 17.8-28.58zm-83-56.09c0-2.38-.27-4.75-.43-7.47H404v93.8c4.37 0 8.33-.28 12.24.07 5.16.47 6.83-1.34 6.83-6.68-.3-26.57-.2-53.14-.2-79.72zm-42.56-9.76c-6.55-.6-11.5 2.54-15.92 6.83-2.87 2.77-5.61 5.7-8.43 8.63-1.74-5-2-10.94-4.89-12.89-3.17-2.1-8.82-.48-13.46-.48v93.66h19.12c0-19.37-.05-38 .11-56.57 0-2.35.05-5.3 1.38-6.9 6.73-8.06 12.88-17.67 26.31-13.21.58-4.62.91-8.52 1.64-12.43.86-4.88-1.81-6.26-5.89-6.64z" fill="#0a87c6"/><path d="M298.25 167c-4.45-11.92-13.9-17-25.19-18.75 3.33 4.28 7.88 8.07 9.54 12.79s.78 10.43.36 15.63c-.74 9.06-2.58 18.23 4.53 25.79 1.11 1.19 3.57 2.5 4.74 2 8.7-3.38 17.2-7.29 26.27-11.19-11.4-5.52-16.27-15.58-20.25-26.27zm-42.43 27.19c-8.87-10.43-20-12.47-33.21-8.79 15.68 1.08 19.45 12.13 21.77 24.52.53 2.8 1 6 2.68 8.12a85 85 0 0011 11.72c.86.77 4.07.31 5.05-.66 6.31-6.41 12.27-13.16 18.12-19.53-9.99-1.04-18.42-7.13-25.41-15.43zm-33 39.13c-11.62-5.51-22.14-2.91-31.79 4.58 12.44-2.17 18.72.48 26.1 11 2.91 4.1 5.65 8.64 9.56 11.72 3.6 2.83 8.48 4.3 13 5.76 1.23.4 4-.93 4.62-2.18 3.75-8.24 7.11-16.67 10.9-25.77-12.16 3.97-22.3-.38-32.41-5.16zM349 160c.53-13.6-7.06-21.94-18.56-27.88 9.86 10.36 7.8 20.68.69 31.26-2.05 3.1-4.23 6.53-4.89 10.08-.89 4.83-.64 9.94-.26 14.88.1 1.34 2.41 3.53 3.76 3.58 9.11.32 18.23.16 28.54.16C350 182 348.53 171.28 349 160zm43.61-6.11c-2 5-6.28 9.38-10.39 13.11-6.71 6.08-14.66 11.17-15.28 21.3-.14 2.15 1.56 5.61 3.36 6.45 7.93 3.71 16.23 6.68 25.39 10.32-4.49-11.77-1.58-22.18 2.94-32.55C404 160 400.7 149.05 393 139.69c0 4.49 1.34 9.98-.39 14.18zm64.78 75.43c-2.6-.41-5.46-1.16-7.88-.53a105.54 105.54 0 00-17 6c-1.26.58-2.28 4.43-1.62 6 3.49 8.26 7.54 16.31 11.72 25.1 5.27-12.1 15.61-17.54 26.66-22.41 11.65-5.11 15.25-15.43 16-27.46-5.36 13.03-15.62 15.23-27.88 13.28zm-18.29-26.25c10-9.28 11.24-20.43 7.2-32.71-1.38 12.44-8.64 18.55-20.09 21-4.48 1-9.09 2.35-12.9 5s-6.77 6.67-9.58 10.48c-.72 1-.13 4 .9 5 6.42 6.32 13.14 12.33 20.16 18.81.64-11.37 6.32-20.16 14.31-27.58z" fill="#c61808"/></svg>