<svg xmlns="http://www.w3.org/2000/svg" viewBox="0 0 48 48"><path fill="currentColor" d="M32,20.54l-10-5.78c-.61-.35-1.3-.54-2-.54-.7,0-1.39,.18-2,.53-.61,.35-1.11,.85-1.46,1.46-.35,.61-.54,1.3-.54,2v11.56c0,.7,.19,1.39,.54,2,.35,.61,.86,1.11,1.46,1.46,.61,.35,1.3,.54,2,.54s1.39-.18,2-.54l10-5.78c.61-.35,1.11-.86,1.46-1.46,.35-.61,.53-1.3,.53-2s-.18-1.39-.53-2c-.35-.61-.85-1.11-1.46-1.46h0Zm-2,3.46l-10,5.78v-11.56l10,5.78ZM24,4c-3.96,0-7.82,1.17-11.11,3.37-3.29,2.2-5.85,5.32-7.37,8.98-1.51,3.65-1.91,7.68-1.14,11.56,.77,3.88,2.68,7.44,5.47,10.24,2.8,2.8,6.36,4.7,10.24,5.47,3.88,.77,7.9,.38,11.56-1.14,3.65-1.51,6.78-4.08,8.98-7.37,2.2-3.29,3.37-7.16,3.37-11.11,0-2.63-.52-5.23-1.52-7.65-1.01-2.43-2.48-4.63-4.34-6.49-1.86-1.86-4.06-3.33-6.49-4.34-2.43-1.01-5.03-1.52-7.65-1.52h0Zm0,36c-3.16,0-6.26-.94-8.89-2.7-2.63-1.76-4.68-4.26-5.89-7.18-1.21-2.92-1.53-6.14-.91-9.24,.62-3.1,2.14-5.95,4.38-8.19,2.24-2.24,5.09-3.76,8.19-4.38,3.1-.62,6.32-.3,9.24,.91,2.92,1.21,5.42,3.26,7.18,5.89,1.76,2.63,2.7,5.72,2.7,8.89,0,4.24-1.69,8.31-4.69,11.31-3,3-7.07,4.69-11.31,4.69h0Z"/></svg>