<svg xmlns="http://www.w3.org/2000/svg" viewBox="0 0 48 48"><path fill="currentColor" d="M38,6H10c-1.6,0-3.1,.6-4.2,1.8s-1.8,2.7-1.8,4.2V28c0,1.6,.6,3.1,1.8,4.2,1.1,1.1,2.7,1.8,4.2,1.8h12v4H14c-.5,0-1,.2-1.4,.6-.4,.4-.6,.9-.6,1.4s.2,1,.6,1.4c.4,.4,.9,.6,1.4,.6h20c.5,0,1-.2,1.4-.6s.6-.9,.6-1.4-.2-1-.6-1.4-.9-.6-1.4-.6h-8v-4h12c1.6,0,3.1-.6,4.2-1.8,1.1-1.1,1.8-2.7,1.8-4.2V12c0-1.6-.6-3.1-1.8-4.2-1.1-1.1-2.7-1.8-4.2-1.8Zm2,22c0,.5-.2,1-.6,1.4s-.9,.6-1.4,.6H10c-.5,0-1-.2-1.4-.6-.4-.4-.6-.9-.6-1.4V12c0-.5,.2-1,.6-1.4,.4-.4,.9-.6,1.4-.6h28c.5,0,1,.2,1.4,.6,.4,.4,.6,.9,.6,1.4V28Z"/></svg>