<svg xmlns="http://www.w3.org/2000/svg" viewBox="0 0 48 48"><path fill="currentColor" d="M42.5,16.3c-1-2.4-2.5-4.6-4.3-6.5s-4.1-3.3-6.5-4.3c-2.4-1-5-1.5-7.7-1.5-4,0-7.8,1.2-11.1,3.4-3.3,2.2-5.9,5.3-7.4,8.9-1.5,3.7-1.9,7.7-1.1,11.6,.8,3.9,2.7,7.4,5.5,10.2,2.8,2.8,6.4,4.7,10.2,5.5,3.9,.8,7.9,.4,11.6-1.1s6.8-4.1,9-7.4c2.2-3.3,3.4-7.2,3.4-11.1s-.5-5.2-1.5-7.7h-.1Zm-7.2,19c-3,3-7.1,4.7-11.3,4.7s-6.3-.9-8.9-2.7c-2.6-1.8-4.7-4.3-5.9-7.2-1.2-2.9-1.5-6.1-.9-9.2s2.1-6,4.4-8.2c2.3-2.2,5.1-3.8,8.2-4.4s6.3-.3,9.2,.9c2.9,1.2,5.4,3.3,7.2,5.9,1.8,2.6,2.7,5.7,2.7,8.9s-1.7,8.3-4.7,11.3Zm-3.3-14.8l-10-5.8c-.6-.4-1.3-.5-2-.5s-1.4,.2-2,.5c-.6,.4-1.1,.9-1.5,1.5s-.5,1.3-.5,2v11.6c0,.7,.2,1.4,.5,2,.4,.6,.9,1.1,1.5,1.5s1.3,.5,2,.5,1.4-.2,2-.5l10-5.8c.6-.4,1.1-.9,1.5-1.5,.3-.6,.5-1.3,.5-2s-.2-1.4-.5-2-.9-1.1-1.5-1.5Zm-12,9.2v-11.5l10,5.8-10,5.8h0Z"/></svg>