<svg xmlns="http://www.w3.org/2000/svg" viewBox="0 0 48 48"><path fill="currentColor" d="M24,10c-2.8,0-5.5,.8-7.8,2.4s-4.1,3.7-5.2,6.3c-1.1,2.6-1.3,5.4-.8,8.1,.5,2.7,1.9,5.2,3.8,7.2,2,2,4.5,3.3,7.2,3.8,2.7,.5,5.5,.3,8.1-.8,2.6-1.1,4.7-2.9,6.3-5.2,1.5-2.3,2.4-5,2.4-7.8s-1.5-7.3-4.1-9.9c-2.6-2.6-6.2-4.1-9.9-4.1Zm7.1,21.1c-1.9,1.9-4.4,2.9-7.1,2.9s-3.9-.6-5.6-1.7c-1.6-1.1-2.9-2.7-3.7-4.5-.8-1.8-1-3.8-.6-5.8,.4-1.9,1.3-3.7,2.7-5.1s3.2-2.4,5.1-2.7c1.9-.4,4-.2,5.8,.6,1.8,.8,3.4,2,4.5,3.7,1.1,1.6,1.7,3.6,1.7,5.6s-1.1,5.2-2.9,7.1Zm8.5-22.6c-4.1-4.1-9.7-6.4-15.6-6.4s-8.6,1.3-12.2,3.7S5.3,11.6,3.7,15.6c-1.7,4-2.1,8.4-1.3,12.7s2.9,8.2,6,11.3c3.1,3.1,7,5.2,11.3,6,4.3,.8,8.7,.4,12.7-1.3,4-1.7,7.5-4.5,9.9-8.1,2.4-3.6,3.7-7.9,3.7-12.2s-2.3-11.4-6.4-15.6Zm-2.8,28.3c-3.4,3.4-8,5.3-12.7,5.3s-7-1.1-10-3c-3-2-5.3-4.8-6.6-8.1-1.4-3.3-1.7-6.9-1-10.4,.7-3.5,2.4-6.7,4.9-9.2s5.7-4.2,9.2-4.9c3.5-.7,7.1-.3,10.4,1,3.3,1.4,6.1,3.7,8.1,6.6,2,3,3,6.4,3,10s-1.9,9.4-5.3,12.7Zm-12.7-18.7c-1.2,0-2.3,.4-3.3,1-1,.7-1.8,1.6-2.2,2.7-.5,1.1-.6,2.3-.3,3.5,.2,1.2,.8,2.2,1.6,3.1,.8,.8,1.9,1.4,3.1,1.6,1.2,.2,2.4,.1,3.5-.3,1.1-.5,2-1.2,2.7-2.2,.7-1,1-2.1,1-3.3s-.6-3.1-1.8-4.2c-1.1-1.1-2.7-1.8-4.2-1.8Zm1.4,7.4c-.4,.4-.9,.6-1.4,.6s-.8-.1-1.1-.3c-.3-.2-.6-.5-.7-.9-.2-.4-.2-.8-.1-1.2,0-.4,.3-.7,.5-1,.3-.3,.6-.5,1-.5,.4,0,.8,0,1.2,.1,.4,.2,.7,.4,.9,.7,.2,.3,.3,.7,.3,1.1s-.2,1-.6,1.4Z"/></svg>