<svg xmlns="http://www.w3.org/2000/svg" viewBox="0 0 48 48"><path fill="currentColor" d="M31.9653 27.3359C36.2681 24.7674 41.9434 26.1993 44.5122 30.502L44.52 30.5156L44.5835 30.2646C44.8066 29.3813 45.704 28.8455 46.5874 29.0684C47.4708 29.2914 48.0065 30.1888 47.7837 31.0723L46.7456 35.1865C46.5225 36.0698 45.6251 36.6056 44.7417 36.3828L40.6284 35.3447C39.7449 35.1218 39.2093 34.2243 39.4321 33.3408C39.6551 32.4573 40.5525 31.9216 41.436 32.1445L41.686 32.207L41.6782 32.1943C40.0437 29.4565 36.3946 28.5355 33.6567 30.1699C30.919 31.8046 29.9988 35.4536 31.6333 38.1914C33.268 40.9289 36.9161 41.8492 39.6538 40.2148C40.4362 39.7479 41.4504 40.0038 41.9175 40.7861C42.3843 41.5684 42.1283 42.5816 41.3462 43.0488C37.0435 45.6176 31.3682 44.1855 28.7993 39.8828C26.2305 35.58 27.6625 29.9047 31.9653 27.3359ZM30.0005 2C30.5307 2.00013 31.0396 2.211 31.4146 2.58594C31.7895 2.96099 32.0005 3.46968 32.0005 4V5H33.9771C35.0541 4.88038 36.1448 5.00301 37.1685 5.35938C38.2028 5.71956 39.143 6.30855 39.9175 7.08301C40.692 7.85759 41.282 8.79755 41.6421 9.83203C41.9984 10.8558 42.1202 11.9464 42.0005 13.0234V22C42.0005 22.5303 41.7895 23.039 41.4146 23.4141C41.0396 23.789 40.5307 23.9999 40.0005 24C39.4702 24 38.9615 23.789 38.5864 23.4141C38.2114 23.039 38.0005 22.5304 38.0005 22V18H6.00049V34C6.00049 35.5197 6.32685 36.4845 6.92139 37.0791C7.51595 37.6735 8.48099 38 10.0005 38H22.0005C22.5307 38.0001 23.0396 38.211 23.4146 38.5859C23.7895 38.961 24.0005 39.4697 24.0005 40C24.0005 40.5303 23.7895 41.039 23.4146 41.4141C23.0396 41.789 22.5307 41.9999 22.0005 42H10.0239C8.94697 42.1197 7.85616 41.9969 6.83252 41.6406C5.79816 41.2805 4.858 40.6914 4.0835 39.917C3.30898 39.1425 2.72004 38.2024 2.35986 37.168C2.00335 36.1439 1.88061 35.053 2.00049 33.9756V13.0234C1.88079 11.9463 2.00346 10.8558 2.35986 9.83203C2.72004 8.7976 3.30898 7.85754 4.0835 7.08301C4.858 6.30858 5.79816 5.71951 6.83252 5.35938C7.85616 5.00309 8.94696 4.88033 10.0239 5H12.0005V4C12.0005 3.46958 12.2114 2.96101 12.5864 2.58594C12.9615 2.21103 13.4702 2.00002 14.0005 2C14.5307 2.00013 15.0396 2.211 15.4146 2.58594C15.7895 2.96099 16.0005 3.46968 16.0005 4V5H28.0005V4C28.0005 3.46958 28.2114 2.96101 28.5864 2.58594C28.9615 2.21103 29.4702 2.00002 30.0005 2ZM36.0005 31C36.5307 31.0001 37.0396 31.211 37.4146 31.5859C37.7895 31.961 38.0005 32.4697 38.0005 33V35.1699L39.5483 36.7227L39.6841 36.8672C39.8123 37.0186 39.9171 37.1891 39.9956 37.3721C40.1002 37.6159 40.1555 37.8782 40.1577 38.1436C40.1599 38.4091 40.1089 38.6733 40.0083 38.9189C39.9077 39.1643 39.7593 39.3877 39.5718 39.5752C39.384 39.7628 39.1602 39.9113 38.9146 40.0117C38.669 40.112 38.4054 40.1625 38.1401 40.1602C37.8748 40.1577 37.6115 40.1028 37.3677 39.998C37.1264 39.8943 36.9083 39.7429 36.7251 39.5547L34.5864 37.4131C34.401 37.228 34.2533 37.0076 34.1528 36.7656C34.0773 36.5836 34.0295 36.3917 34.0103 36.1963L34.0005 36V33C34.0005 32.4696 34.2114 31.961 34.5864 31.5859C34.9615 31.211 35.4702 31 36.0005 31ZM14.0405 29.5C14.7034 29.5001 15.3394 29.7637 15.8081 30.2324C16.2768 30.7012 16.5405 31.3371 16.5405 32C16.5405 32.4933 16.3941 32.9762 16.1206 33.3867C15.8471 33.7969 15.4583 34.1177 15.0034 34.3076C14.5482 34.4975 14.0461 34.5484 13.562 34.4541C13.0779 34.3597 12.6323 34.1234 12.2817 33.7764C11.9312 33.4293 11.6906 32.9862 11.5913 32.5029C11.4921 32.0196 11.5387 31.5178 11.7241 31.0605C11.9095 30.6035 12.2257 30.2112 12.6333 29.9336C13.0409 29.6561 13.5221 29.505 14.0151 29.5H14.0405ZM14.0405 21.5C14.7034 21.5001 15.3394 21.7637 15.8081 22.2324C16.2768 22.7012 16.5405 23.3371 16.5405 24C16.5405 24.4933 16.3941 24.9762 16.1206 25.3867C15.8471 25.7969 15.4583 26.1177 15.0034 26.3076C14.5482 26.4975 14.0461 26.5484 13.562 26.4541C13.0779 26.3597 12.6323 26.1234 12.2817 25.7764C11.9312 25.4293 11.6906 24.9862 11.5913 24.5029C11.4921 24.0196 11.5387 23.5178 11.7241 23.0605C11.9095 22.6035 12.2257 22.2112 12.6333 21.9336C13.0409 21.6561 13.5221 21.505 14.0151 21.5H14.0405ZM22.0405 21.5C22.7034 21.5001 23.3394 21.7637 23.8081 22.2324C24.2768 22.7012 24.5405 23.3371 24.5405 24C24.5405 24.4933 24.3941 24.9762 24.1206 25.3867C23.8471 25.7969 23.4583 26.1177 23.0034 26.3076C22.5482 26.4975 22.0461 26.5484 21.562 26.4541C21.0779 26.3597 20.6323 26.1234 20.2817 25.7764C19.9312 25.4293 19.6906 24.9862 19.5913 24.5029C19.4921 24.0196 19.5387 23.5178 19.7241 23.0605C19.9095 22.6035 20.2257 22.2112 20.6333 21.9336C21.0409 21.6561 21.5221 21.505 22.0151 21.5H22.0405ZM10.0005 9C8.48099 9.00001 7.51595 9.32651 6.92139 9.9209C6.32685 10.5155 6.00049 11.4803 6.00049 13V14H38.0005V13C38.0005 11.4805 37.674 10.5155 37.0796 9.9209C36.4851 9.32643 35.5199 9.00007 34.0005 9H32.0005V10C32.0005 10.5303 31.7895 11.039 31.4146 11.4141C31.0396 11.789 30.5307 11.9999 30.0005 12C29.4702 12 28.9615 11.789 28.5864 11.4141C28.2114 11.039 28.0005 10.5304 28.0005 10V9H16.0005V10C16.0005 10.5303 15.7895 11.039 15.4146 11.4141C15.0396 11.789 14.5307 11.9999 14.0005 12C13.4702 12 12.9615 11.789 12.5864 11.4141C12.2114 11.039 12.0005 10.5304 12.0005 10V9H10.0005Z"/></svg>