<svg xmlns="http://www.w3.org/2000/svg" viewBox="0 0 48 48"><path fill="currentColor" d="M44.02,28.74c0-1.01-.4-1.98-1.12-2.7-.72-.72-1.69-1.12-2.7-1.12h-11.45c-1.01,0-1.98,.4-2.7,1.12-.72,.72-1.12,1.69-1.12,2.7h-5.72v-5.72h4.44c1.66,0,3.26-.58,4.53-1.66,1.26-1.07,2.11-2.56,2.37-4.19,.27-1.64-.05-3.31-.91-4.73-.86-1.42-2.19-2.49-3.76-3.02-.87-1.82-2.3-3.31-4.07-4.27-1.78-.96-3.81-1.33-5.81-1.06-2,.27-3.86,1.17-5.32,2.57s-2.43,3.22-2.79,5.2c-1.29,.42-2.39,1.3-3.1,2.46-.71,1.16-.98,2.54-.77,3.88,.21,1.34,.9,2.57,1.93,3.45,1.03,.88,2.35,1.37,3.71,1.37h5.72v15.26c0,.51,.2,.99,.56,1.35,.36,.36,.84,.56,1.35,.56h7.63c0,1.01,.4,1.98,1.12,2.7,.72,.72,1.69,1.12,2.7,1.12h11.45c1.01,0,1.98-.4,2.7-1.12s1.12-1.69,1.12-2.7v-3.82c0-.67-.19-1.33-.53-1.91,.34-.58,.53-1.24,.53-1.91v-3.82ZM9.69,19.2c-.51,0-.99-.2-1.35-.56s-.56-.84-.56-1.35,.2-.99,.56-1.35c.36-.36,.84-.56,1.35-.56s.99-.2,1.35-.56c.36-.36,.56-.84,.56-1.35-.02-1.36,.46-2.68,1.33-3.73,.87-1.05,2.09-1.75,3.43-1.98,1.34-.23,2.72,.03,3.89,.72,1.17,.7,2.05,1.79,2.49,3.08,.11,.32,.31,.61,.57,.83,.26,.22,.58,.37,.92,.43,.75,.12,1.43,.51,1.91,1.1,.48,.59,.74,1.33,.72,2.09,0,.84-.34,1.66-.93,2.25-.6,.6-1.41,.93-2.25,.93H9.69Zm15.26,17.17h-5.72v-3.82h5.72c0,.67,.19,1.33,.53,1.91-.34,.58-.53,1.24-.53,1.91h0Zm3.82,3.82v-3.82h11.45v3.82h-11.45Zm0-7.63v-3.82h11.45v3.82h-11.45Z"/></svg>