<svg xmlns="http://www.w3.org/2000/svg" viewBox="0 0 48 48"><path fill="currentColor" d="M16.6,31.8h14.6c1,0,1.8-.8,1.8-1.8s-.8-1.8-1.8-1.8h-14.6c-1,0-1.8,.8-1.8,1.8s.8,1.8,1.8,1.8Zm7.7-6.5c4.7,0,8.6-3.9,8.6-8.6s-.1-1.6-.3-2.4c-.1-.4-.4-.8-.9-1-.4-.2-.9-.3-1.3-.1l-2.2,.7,1.2-2c.5-.8,.2-1.9-.6-2.4-1.3-.8-2.9-1.2-4.4-1.2-4.7,0-8.6,3.9-8.6,8.6s3.9,8.6,8.6,8.6Zm0-13.7c.3,0,.7,0,1,0l-2.5,4.2c-.4,.6-.3,1.4,.1,2,.4,.6,1.2,.8,1.9,.6l4.6-1.4c-.2,2.6-2.4,4.7-5.1,4.7s-5.1-2.3-5.1-5.1,2.3-5.1,5.1-5.1Zm-7.7,26.8h14.6c1,0,1.8-.8,1.8-1.8s-.8-1.8-1.8-1.8h-14.6c-1,0-1.8,.8-1.8,1.8s.8,1.8,1.8,1.8ZM37.7,2.2H10.3c-1,0-1.8,.8-1.8,1.8V44c0,1,.8,1.8,1.8,1.8h27.4c1,0,1.8-.8,1.8-1.8V4c0-1-.8-1.8-1.8-1.8Zm-1.8,40H12V5.8h23.9V42.2Z"/></svg>