<svg xmlns="http://www.w3.org/2000/svg" viewBox="0 0 48 48"><path fill="currentColor" d="M40.7822 16.6016C41.3161 16.6023 41.8286 16.8149 42.2061 17.1924C42.5833 17.5698 42.7951 18.0816 42.7959 18.6152V28.2656C42.7952 28.7995 42.5835 29.312 42.2061 29.6895C41.8286 30.0669 41.3161 30.2786 40.7822 30.2793H29.7861V32.9883H31.8262C31.9613 32.9882 32.0949 33.0197 32.2158 33.0801C32.3367 33.1404 32.4423 33.2279 32.5234 33.3359L38.8818 41.7734C38.9962 41.9249 39.0586 42.11 39.0586 42.2998V46.5635C39.0585 46.7948 38.9663 47.0171 38.8027 47.1807C38.6391 47.3442 38.4169 47.4355 38.1855 47.4355H9.68555C9.45416 47.4355 9.23201 47.3442 9.06836 47.1807C8.90476 47.0171 8.81259 46.7948 8.8125 46.5635V42.6396C8.81401 42.623 8.81683 42.6062 8.82031 42.5898C8.82672 42.5788 8.82715 42.5678 8.82715 42.5576C8.8299 42.5427 8.83315 42.5271 8.83789 42.5127C8.84074 42.5016 8.8476 42.4915 8.84766 42.4805C8.85435 42.4579 8.86259 42.4357 8.87207 42.4141C8.87617 42.4038 8.88052 42.3935 8.88574 42.3838C8.89131 42.3699 8.8978 42.3567 8.9043 42.3438L8.92188 42.3125C8.92932 42.3004 8.93694 42.2875 8.94531 42.2754L8.96289 42.248L8.97266 42.2334L15.4414 33.3447C15.5222 33.2336 15.6276 33.1425 15.75 33.0801C15.8724 33.0177 16.0082 32.9854 16.1455 32.9854H18.4404V30.2793H7.22461C6.69092 30.2785 6.1792 30.0667 5.80176 29.6895C5.42427 29.312 5.21168 28.7995 5.21094 28.2656V18.6152C5.2117 18.0814 5.42429 17.5699 5.80176 17.1924C6.17923 16.8149 6.69079 16.6023 7.22461 16.6016H40.7822ZM10.5479 43.6201V45.6904H37.3135L37.3057 43.6201H10.5479ZM16.5947 34.7305L11.3896 41.875H36.7734L31.3926 34.7305H16.5947ZM20.1855 30.2793V32.9854H28.041V30.2793H20.1855ZM7.22461 18.3477C7.1536 18.3479 7.08537 18.3756 7.03516 18.4258C6.98495 18.476 6.9573 18.5442 6.95703 18.6152V28.2656C6.95728 28.3366 6.98505 28.4049 7.03516 28.4551C7.08537 28.5053 7.1536 28.5339 7.22461 28.5342H40.7773C40.8483 28.5339 40.9166 28.5053 40.9668 28.4551C41.017 28.4048 41.0457 28.3367 41.0459 28.2656L41.0508 18.6152C41.0505 18.5442 41.0219 18.476 40.9717 18.4258C40.9215 18.3757 40.8532 18.3479 40.7822 18.3477H7.22461ZM12.2168 20.5078C13.0005 20.5078 13.7525 20.8189 14.3066 21.373C14.8608 21.9272 15.1719 22.6792 15.1719 23.4629C15.1719 24.0473 14.9985 24.6186 14.6738 25.1045C14.3491 25.5904 13.8876 25.9697 13.3477 26.1934C12.8078 26.4169 12.2137 26.4752 11.6406 26.3613C11.0674 26.2473 10.5402 25.966 10.127 25.5527C9.71369 25.1395 9.43238 24.6123 9.31836 24.0391C9.20444 23.466 9.26274 22.8719 9.48633 22.332C9.70999 21.7921 10.0892 21.3306 10.5752 21.0059C11.0611 20.6812 11.6324 20.5078 12.2168 20.5078ZM23.999 20.5078C24.7827 20.5078 25.5347 20.8189 26.0889 21.373C26.643 21.9272 26.9541 22.6792 26.9541 23.4629C26.9541 24.0473 26.7807 24.6185 26.4561 25.1045C26.1314 25.5904 25.6698 25.9697 25.1299 26.1934C24.59 26.4169 23.9959 26.4753 23.4229 26.3613C22.8498 26.2473 22.3234 25.9658 21.9102 25.5527C21.4969 25.1395 21.2146 24.6123 21.1006 24.0391C20.9867 23.466 21.0459 22.8719 21.2695 22.332C21.4932 21.7922 21.8715 21.3305 22.3574 21.0059C22.8433 20.6812 23.4146 20.5079 23.999 20.5078ZM35.7812 20.5078C36.5648 20.5078 37.3169 20.819 37.8711 21.373C38.4253 21.9272 38.7363 22.6792 38.7363 23.4629C38.7363 24.0473 38.563 24.6185 38.2383 25.1045C37.9136 25.5904 37.452 25.9697 36.9121 26.1934C36.3723 26.4168 35.7781 26.4753 35.2051 26.3613C34.632 26.2473 34.1056 25.9658 33.6924 25.5527C33.2791 25.1395 32.9978 24.6123 32.8838 24.0391C32.7698 23.4659 32.8281 22.8719 33.0518 22.332C33.2754 21.7922 33.6538 21.3305 34.1396 21.0059C34.6255 20.6812 35.197 20.5079 35.7812 20.5078ZM11.9805 22.2764C11.746 22.3231 11.5304 22.4384 11.3613 22.6074C11.1923 22.7765 11.077 22.9921 11.0303 23.2266C10.9836 23.4612 11.0081 23.7048 11.0996 23.9258C11.1912 24.1467 11.3461 24.3359 11.5449 24.4688C11.7438 24.6016 11.9777 24.6719 12.2168 24.6719C12.5374 24.6714 12.8446 24.5441 13.0713 24.3174C13.298 24.0907 13.4253 23.7835 13.4258 23.4629C13.4258 23.2238 13.3555 22.9899 13.2227 22.791C13.0898 22.5922 12.9006 22.4372 12.6797 22.3457C12.4587 22.2542 12.2151 22.2297 11.9805 22.2764ZM23.7637 22.2764C23.5293 22.323 23.3136 22.4385 23.1445 22.6074C22.9755 22.7764 22.8602 22.9922 22.8135 23.2266C22.7668 23.4612 22.7903 23.7048 22.8818 23.9258C22.9734 24.1468 23.1283 24.3359 23.3271 24.4688C23.526 24.6016 23.7599 24.6718 23.999 24.6719C24.3196 24.6714 24.6268 24.544 24.8535 24.3174C25.0802 24.0907 25.2085 23.7835 25.209 23.4629C25.209 23.2237 25.1377 22.9899 25.0049 22.791C24.872 22.5921 24.6829 22.4372 24.4619 22.3457C24.2411 22.2542 23.9981 22.2298 23.7637 22.2764ZM35.5459 22.2764C35.3114 22.323 35.0959 22.4384 34.9268 22.6074C34.7577 22.7765 34.6424 22.9921 34.5957 23.2266C34.549 23.4611 34.5726 23.7048 34.6641 23.9258C34.7556 24.1467 34.9106 24.3359 35.1094 24.4688C35.3081 24.6016 35.5422 24.6718 35.7812 24.6719C36.1018 24.6714 36.41 24.5441 36.6367 24.3174C36.8632 24.0907 36.9907 23.7834 36.9912 23.4629C36.9912 23.2237 36.92 22.9899 36.7871 22.791C36.6542 22.5922 36.4651 22.4372 36.2441 22.3457C36.0233 22.2543 35.7803 22.2298 35.5459 22.2764ZM24.0576 9.54395C25.366 9.53859 26.6617 9.80188 27.8643 10.3174C29.0669 10.8329 30.1514 11.5896 31.0498 12.541C31.2041 12.7094 31.286 12.9319 31.2783 13.1602C31.2706 13.3886 31.1733 13.6051 31.0078 13.7627C30.8424 13.9202 30.6219 14.0071 30.3936 14.0039C30.165 14.0005 29.946 13.9076 29.7852 13.7451C29.0272 12.9485 28.1118 12.3182 27.0967 11.8955C26.0815 11.4727 24.9891 11.2668 23.8896 11.29C22.7902 11.3132 21.7074 11.565 20.7109 12.0303C19.7146 12.4955 18.8262 13.1633 18.1025 13.9912C18.0284 14.0819 17.9366 14.1574 17.833 14.2119C17.7294 14.2664 17.6156 14.2989 17.499 14.3086C17.3826 14.3183 17.2653 14.305 17.1543 14.2686C17.0431 14.2319 16.9397 14.1729 16.8516 14.0957C16.7635 14.0186 16.6916 13.9247 16.6406 13.8193C16.5897 13.714 16.5605 13.5993 16.5547 13.4824C16.5489 13.3656 16.5672 13.2485 16.6074 13.1387C16.6478 13.0287 16.71 12.9272 16.79 12.8418C17.6961 11.8057 18.8132 10.9754 20.0664 10.4062C21.3198 9.8371 22.681 9.54223 24.0576 9.54199V9.54395ZM24.0576 5.02539C25.8593 5.01844 27.6437 5.38038 29.2998 6.08984C30.9559 6.79932 32.4487 7.84133 33.6865 9.15039C33.7683 9.23276 33.8334 9.33085 33.877 9.43848C33.9204 9.54599 33.942 9.6614 33.9404 9.77734C33.9388 9.89337 33.9136 10.0079 33.8672 10.1143C33.8208 10.2205 33.7538 10.3164 33.6699 10.3965C33.5859 10.4766 33.4864 10.5397 33.3779 10.5811C33.2695 10.6223 33.154 10.6416 33.0381 10.6377C32.9221 10.6338 32.8076 10.6071 32.7021 10.5586C32.5968 10.5101 32.5022 10.4409 32.4238 10.3555C31.3482 9.21712 30.0508 8.31046 28.6113 7.69336C27.1719 7.07626 25.6208 6.76174 24.0547 6.76758C22.4529 6.77002 20.8693 7.10457 19.4033 7.75C17.9374 8.39545 16.6205 9.33778 15.5371 10.5176C15.3806 10.6879 15.1627 10.7889 14.9316 10.7988C14.7006 10.8087 14.4752 10.7266 14.3047 10.5703C14.1342 10.4139 14.0325 10.196 14.0225 9.96484C14.0125 9.73363 14.0946 9.50746 14.251 9.33691C15.4987 7.97956 17.0144 6.89542 18.7021 6.15332C20.39 5.41122 22.2138 5.02723 24.0576 5.02539ZM24 0.558594C26.2968 0.550627 28.572 1.00707 30.6885 1.89941C32.8049 2.79176 34.7196 4.10194 36.3174 5.75195C36.3973 5.83423 36.4605 5.93148 36.5029 6.03809C36.5453 6.14458 36.566 6.25845 36.5645 6.37305C36.5628 6.48783 36.5386 6.6016 36.4932 6.70703C36.4478 6.81245 36.3821 6.90826 36.2998 6.98828C36.2175 7.06822 36.1203 7.13142 36.0137 7.17383C35.907 7.21624 35.7925 7.23696 35.6777 7.23535C35.5631 7.23368 35.45 7.2094 35.3447 7.16406C35.2393 7.11865 35.1435 7.05301 35.0635 6.9707C33.6298 5.48866 31.9114 4.31158 30.0117 3.50977C28.112 2.70798 26.0698 2.29803 24.0078 2.30469C21.9459 2.31138 19.9062 2.73382 18.0117 3.54785C16.1172 4.36192 14.4065 5.55073 12.9824 7.04199C12.9011 7.12702 12.8035 7.19501 12.6953 7.24121C12.5869 7.28746 12.4695 7.31074 12.3516 7.31055C12.1809 7.3107 12.0137 7.26085 11.8711 7.16699C11.7286 7.07308 11.6171 6.93909 11.5498 6.78223C11.4826 6.62532 11.4629 6.45218 11.4932 6.28418C11.5235 6.11618 11.6019 5.96043 11.7197 5.83691C13.306 4.17583 15.2121 2.85231 17.3223 1.94531C19.4322 1.03848 21.7035 0.566617 24 0.558594Z"/></svg>