<svg xmlns="http://www.w3.org/2000/svg" viewBox="0 0 48 48"><path fill="currentColor" d="M23.7422 0C24.8853 0 26.0085 0.300406 26.999 0.871094L42.2168 9.56738C43.016 10.029 43.703 10.6561 44.2402 11.4004C44.3817 11.5385 44.5051 11.6944 44.6045 11.8662C44.6884 12.0113 44.7525 12.1665 44.8008 12.3262C45.2445 13.2238 45.4777 14.2127 45.4775 15.2178V32.6152C45.478 33.7604 45.1769 34.8861 44.6045 35.8779C44.0321 36.8696 43.2084 37.6931 42.2168 38.2656L27.002 46.9482C26.312 47.3458 25.5569 47.6083 24.7764 47.7334C24.4603 47.9054 24.1037 47.999 23.7373 47.999C23.3686 47.999 23.0099 47.9046 22.6924 47.7305C21.9191 47.604 21.1712 47.3423 20.4873 46.9482L5.26953 38.2559C4.27673 37.6848 3.45188 36.8622 2.87793 35.8711C2.30388 34.8796 2.00091 33.7541 2 32.6084V15.2129C1.99963 14.1977 2.23696 13.1987 2.68945 12.2939C2.73698 12.1452 2.79925 12.001 2.87793 11.8652C2.97018 11.7055 3.08311 11.5596 3.21191 11.4287C3.75266 10.6696 4.4494 10.0319 5.26074 9.56348L20.4854 0.871094C21.4759 0.300357 22.599 2.19815e-05 23.7422 0ZM25.9121 25.1924V42.5693L40.0371 34.499C40.367 34.3077 40.641 34.0327 40.8311 33.7021C41.0211 33.3716 41.1207 32.9965 41.1201 32.6152V16.3945L25.9121 25.1924ZM6.35254 32.6104C6.35215 32.9917 6.45251 33.3667 6.64258 33.6973C6.8326 34.0277 7.10592 34.3027 7.43555 34.4941L21.5635 42.5674V25.1875L6.35254 16.3867V32.6104ZM23.7412 4.34863C23.3593 4.34878 22.984 4.44953 22.6533 4.64062L8.60547 12.668L23.7412 21.4307L38.874 12.6689L24.8359 4.64062C24.5032 4.44834 24.1255 4.34755 23.7412 4.34863Z"/></svg>