<svg xmlns="http://www.w3.org/2000/svg" viewBox="0 0 48 48"><path fill="currentColor" d="M29.7012 14.1641C31.3788 14.1641 33.2117 14.5142 33.29 14.5293C33.6613 14.601 33.9966 14.8002 34.2373 15.0918C34.4778 15.3834 34.6093 15.7499 34.6094 16.1279V17.8174C34.7427 17.8701 34.875 17.9273 35.0059 17.9893L36.2051 16.7891C36.4698 16.5239 36.8177 16.3578 37.1904 16.3193C37.5632 16.2809 37.9377 16.3726 38.251 16.5781C38.3133 16.6191 39.7914 17.5942 40.9785 18.7812C42.1652 19.968 43.2136 21.5113 43.2578 21.5771C43.4701 21.8898 43.5664 22.2672 43.5312 22.6436C43.4961 23.0198 43.3309 23.3717 43.0645 23.6396L41.7188 24.9854C41.7476 25.069 41.7799 25.1517 41.8115 25.2354H43.7227C44.0966 25.2358 44.459 25.3654 44.749 25.6016C45.039 25.8377 45.2392 26.1661 45.3154 26.5322C45.3303 26.6048 45.6855 28.3403 45.6855 30.0186C45.6855 31.6967 45.3352 33.5312 45.3203 33.6084C45.2484 33.9793 45.0492 34.3132 44.7578 34.5537C44.4664 34.7942 44.1005 34.9265 43.7227 34.9268H41.6318C41.6161 34.9648 41.5997 35.003 41.583 35.041L43.0605 36.5215C43.3258 36.7861 43.4918 37.1341 43.5303 37.5068C43.5687 37.8796 43.4772 38.2541 43.2715 38.5674C43.2306 38.6297 42.2554 40.1078 41.0684 41.2949C39.8813 42.4819 38.3366 43.5305 38.2715 43.5742C37.9584 43.7859 37.5813 43.8816 37.2051 43.8457C36.8285 43.8097 36.4755 43.6444 36.208 43.377L34.6885 41.8555L34.6113 41.8877V43.9834C34.6114 44.3538 34.4847 44.713 34.2529 45.002C34.0211 45.291 33.6977 45.493 33.3359 45.5732C33.2569 45.5909 31.3918 46 29.7656 46C28.1395 45.9999 26.2754 45.5909 26.1973 45.5732C25.8355 45.493 25.5122 45.291 25.2803 45.002C25.0485 44.713 24.9218 44.3538 24.9219 43.9834V41.9971C24.8688 41.9775 24.8167 41.956 24.7646 41.9355L23.3623 43.3379C23.1003 43.5996 22.7568 43.7643 22.3887 43.8047C22.0204 43.8451 21.6495 43.7584 21.3369 43.5596C21.269 43.5158 19.6606 42.4896 18.5107 41.3379C17.3613 40.1864 16.3332 38.5802 16.2891 38.5117C16.0904 38.1991 16.0035 37.8281 16.0439 37.46C16.0844 37.0919 16.249 36.7483 16.5107 36.4863L17.7676 35.2295C17.7221 35.1292 17.6775 35.0289 17.6348 34.9277H15.8672C15.4966 34.9278 15.1367 34.8012 14.8477 34.5693C14.5588 34.3375 14.3576 34.0139 14.2773 33.6523C14.2606 33.5733 13.8506 31.7082 13.8506 30.082C13.8506 28.4559 14.2606 26.5918 14.2773 26.5127C14.3576 26.151 14.5588 25.8276 14.8477 25.5957C15.1367 25.3638 15.4966 25.2372 15.8672 25.2373H17.4492C17.505 25.0895 17.5646 24.9418 17.626 24.7959L16.5088 23.6787C16.2472 23.4167 16.0824 23.0731 16.042 22.7051C16.0017 22.337 16.0885 21.9658 16.2871 21.6533C16.3349 21.5791 17.3614 19.9737 18.5098 18.8271C19.6605 17.6784 21.2671 16.6492 21.335 16.6055C21.6475 16.4067 22.0185 16.3209 22.3867 16.3613C22.7551 16.4018 23.0993 16.5661 23.3613 16.8281L24.4404 17.9082C24.5994 17.8385 24.7591 17.7732 24.9199 17.7109V16.1299C24.9201 15.756 25.0494 15.3927 25.2852 15.1025C25.5209 14.8127 25.8492 14.6128 26.2148 14.5361C26.2874 14.5194 28.0229 14.1641 29.7012 14.1641ZM29.7051 17.4209C29.1953 17.4244 28.6856 17.4577 28.1797 17.5205V18.8809C28.1793 19.2359 28.0632 19.5814 27.8486 19.8643C27.6341 20.1471 27.3329 20.3522 26.9912 20.4482C26.2652 20.6511 25.5652 20.9384 24.9062 21.3047C24.5971 21.4759 24.2406 21.5422 23.8906 21.4932C23.5406 21.444 23.2159 21.282 22.9658 21.0322L22.0283 20.0957C21.1642 20.7193 20.4059 21.4777 19.7822 22.3418L20.749 23.3047C20.9963 23.5525 21.1568 23.8743 21.207 24.2207C21.2572 24.5669 21.1938 24.9199 21.0273 25.2275C20.6761 25.8813 20.4007 26.5739 20.2061 27.29C20.1124 27.6349 19.9078 27.9391 19.624 28.1562C19.34 28.3735 18.9923 28.4912 18.6348 28.4912H17.2334C17.156 29.0165 17.1139 29.5472 17.1064 30.0781C17.1138 30.6099 17.1559 31.1409 17.2334 31.667H18.7686C19.1142 31.667 19.4514 31.7765 19.7305 31.9805C20.0096 32.1847 20.2166 32.4731 20.3213 32.8027C20.5334 33.472 20.8174 34.1163 21.168 34.7246C21.3485 35.0355 21.4208 35.3975 21.374 35.7539C21.3272 36.1103 21.1638 36.4415 20.9092 36.6953L19.7822 37.8223C20.406 38.6866 21.164 39.4456 22.0283 40.0693L23.2637 38.835C23.5078 38.591 23.823 38.4301 24.1641 38.377C24.5051 38.3238 24.8543 38.3809 25.1611 38.5391C25.7451 38.8398 26.3585 39.0801 26.9912 39.2568C27.3329 39.3529 27.6341 39.558 27.8486 39.8408C28.0632 40.1237 28.1793 40.4692 28.1797 40.8242V42.6152C28.7055 42.6928 29.2361 42.7358 29.7676 42.7432C30.2993 42.7361 30.8303 42.6934 31.3564 42.6162V40.7461C31.3565 40.398 31.4689 40.0593 31.6758 39.7793C31.8827 39.4992 32.1739 39.2927 32.5068 39.1904C33.1125 39.0049 33.6987 38.7605 34.2568 38.4609C34.5648 38.2946 34.9183 38.232 35.2646 38.2822C35.6109 38.3326 35.9318 38.4933 36.1797 38.7402L37.5205 40.0801C37.9558 39.7403 38.3715 39.3761 38.7656 38.9893C39.1238 38.6265 39.4605 38.2423 39.7734 37.8398L38.4531 36.5205C38.2031 36.2706 38.0414 35.9458 37.9922 35.5957C37.943 35.2456 38.0091 34.8883 38.1807 34.5791C38.493 34.0149 38.7489 33.4212 38.9443 32.8066C39.0487 32.4771 39.2553 32.1886 39.5342 31.9844C39.8132 31.7802 40.1504 31.6708 40.4961 31.6709H42.3193C42.3861 31.1221 42.4222 30.5694 42.4268 30.0166C42.4228 29.5069 42.3895 28.9971 42.3271 28.4912H40.6299C40.2739 28.4896 39.9279 28.3712 39.6455 28.1543C39.3632 27.9374 39.1598 27.6336 39.0664 27.29C38.8864 26.6292 38.6369 25.9893 38.3223 25.3809C38.164 25.0742 38.1071 24.7248 38.1602 24.3838C38.2133 24.0426 38.374 23.7265 38.6182 23.4824L39.7715 22.3291C39.4316 21.8936 39.0677 21.4772 38.6807 21.083C38.3176 20.7251 37.9335 20.3893 37.5312 20.0762L36.4785 21.1289C36.2252 21.3826 35.8945 21.5458 35.5391 21.5928C35.1838 21.6396 34.8231 21.5678 34.5127 21.3887C33.8792 21.0232 33.2062 20.7304 32.5068 20.5166C32.1739 20.4143 31.8827 20.2079 31.6758 19.9277C31.4689 19.6477 31.3565 19.309 31.3564 18.9609V17.5303C30.8085 17.4627 30.2571 17.4264 29.7051 17.4209ZM29.6328 22.1191C31.6831 22.1216 33.649 22.9369 35.0986 24.3867C36.5483 25.8365 37.364 27.8023 37.3662 29.8525C37.3662 31.3822 36.9123 32.8776 36.0625 34.1494C35.2127 35.4212 34.0049 36.4127 32.5918 36.998C31.1786 37.5834 29.6233 37.736 28.123 37.4375C26.6228 37.139 25.2446 36.402 24.1631 35.3203C23.0817 34.2387 22.3451 32.8605 22.0469 31.3604C21.7487 29.8603 21.9019 28.3055 22.4873 26.8926C23.0728 25.4795 24.0641 24.2715 25.3359 23.4219C26.6078 22.5722 28.1033 22.119 29.6328 22.1191ZM31.3457 25.7148C30.5276 25.376 29.6273 25.2872 28.7588 25.46C27.8901 25.6327 27.0921 26.0593 26.4658 26.6855C25.8396 27.3118 25.413 28.1099 25.2402 28.9785C25.0676 29.847 25.1562 30.7474 25.4951 31.5654C25.8341 32.3836 26.409 33.0833 27.1455 33.5752C27.8818 34.0669 28.7474 34.3292 29.6328 34.3291C30.8197 34.3279 31.9576 33.8558 32.7969 33.0166C33.6361 32.1773 34.1081 31.0394 34.1094 29.8525C34.1095 28.9669 33.8474 28.1007 33.3555 27.3643C32.8635 26.6279 32.1638 26.0538 31.3457 25.7148ZM18.168 2C19.8447 2.00001 21.6776 2.34977 21.7578 2.36523C22.1283 2.43776 22.4623 2.63714 22.7021 2.92871C22.942 3.22029 23.0726 3.58633 23.0723 3.96387V5.65332C23.2053 5.70819 23.3376 5.76563 23.4688 5.82422L24.6689 4.625C24.9335 4.35974 25.2816 4.1938 25.6543 4.15527C26.0272 4.1168 26.4025 4.20825 26.7158 4.41406C26.7799 4.45616 28.257 5.43179 29.4424 6.61719C30.6285 7.80333 31.678 9.34894 31.7217 9.41406C31.8807 9.64959 31.9755 9.9226 31.9961 10.2061C32.0167 10.4897 31.9624 10.7741 31.8389 11.0303C31.1303 10.952 30.418 10.9114 29.7051 10.9072C28.9119 10.9121 28.119 10.9639 27.332 11.0625L28.2305 10.1641C27.8909 9.72889 27.5263 9.31384 27.1396 8.91992C26.7767 8.56203 26.3934 8.22522 25.9912 7.91211L24.9414 8.96484C24.6881 9.21829 24.3582 9.38097 24.0029 9.42773C23.6477 9.4745 23.2868 9.4029 22.9766 9.22363C22.3425 8.85856 21.6691 8.56635 20.9697 8.35156C20.637 8.24929 20.3456 8.04261 20.1387 7.7627C19.9318 7.48282 19.8205 7.14391 19.8203 6.7959V5.36621C19.2721 5.29852 18.7203 5.2613 18.168 5.25586C17.6584 5.25985 17.1493 5.29319 16.6436 5.35547V6.71582C16.6437 7.07093 16.527 7.41624 16.3125 7.69922C16.0978 7.98227 15.7962 8.18753 15.4541 8.2832C14.7282 8.48716 14.0284 8.77471 13.3691 9.14062C13.0593 9.31308 12.7017 9.38042 12.3506 9.33105C11.9995 9.28166 11.674 9.11835 11.4238 8.86719L10.4883 7.93164C10.0627 8.24871 9.65816 8.59326 9.27832 8.96387C8.90824 9.34582 8.56372 9.75214 8.24609 10.1787L9.21289 11.1455C9.4598 11.3935 9.61965 11.7152 9.66992 12.0615C9.72009 12.4076 9.65815 12.7606 9.49219 13.0684C9.14 13.7217 8.86355 14.4144 8.66992 15.1309C8.57628 15.4757 8.37174 15.7799 8.08789 15.9971C7.8039 16.2143 7.45618 16.332 7.09863 16.332H5.69824C5.62073 16.8581 5.57767 17.3892 5.57031 17.9209C5.57762 18.4525 5.62067 18.9838 5.69824 19.5098H7.2373C7.58318 19.5097 7.92019 19.6198 8.19922 19.8242C8.47826 20.0286 8.68484 20.3167 8.78906 20.6465C9.00137 21.3155 9.28572 21.9595 9.63672 22.5674C9.81585 22.8778 9.88751 23.2384 9.84082 23.5938C9.79406 23.9491 9.63131 24.2797 9.37793 24.5332L8.25098 25.6602C8.56777 26.0859 8.91238 26.4905 9.2832 26.8701C9.6634 27.2406 10.0679 27.5855 10.4932 27.9033L10.7803 27.6201C10.6638 28.437 10.6012 29.2608 10.5938 30.0859C10.5938 30.6133 10.6265 31.1482 10.6748 31.6523C10.3659 31.6526 10.0636 31.5649 9.80273 31.3994C9.73482 31.3557 8.12643 30.3276 6.97656 29.1768C5.82672 28.026 4.79768 26.4195 4.75488 26.3516C4.55481 26.0392 4.46691 25.6677 4.50684 25.2988C4.54681 24.9301 4.71235 24.5865 4.97461 24.3242L6.23047 23.0674C6.18492 22.967 6.14042 22.866 6.09766 22.7646H4.33008C3.95976 22.7645 3.60032 22.6381 3.31152 22.4062C3.0227 22.1744 2.82145 21.8508 2.74121 21.4893C2.72354 21.4111 2.31453 19.547 2.31445 17.9209C2.31445 16.2947 2.72354 14.4297 2.74121 14.3506C2.82086 13.9877 3.02282 13.6633 3.3125 13.4307C3.60218 13.198 3.96245 13.0708 4.33398 13.0713H5.91602C5.97272 12.9235 6.03148 12.7758 6.09375 12.6299L4.97656 11.5137C4.71441 11.252 4.55024 10.9082 4.50977 10.54C4.46933 10.1718 4.55569 9.80068 4.75488 9.48828C4.79768 9.42037 5.82487 7.8149 6.97656 6.66504C8.1282 5.51526 9.7346 4.4863 9.80273 4.44336C10.1151 4.24415 10.4862 4.15683 10.8545 4.19727C11.2227 4.23773 11.5664 4.40283 11.8281 4.66504L12.9082 5.74414C13.0668 5.67476 13.2263 5.60883 13.3867 5.54688V3.96582C13.3866 3.59169 13.5159 3.22875 13.752 2.93848C13.9879 2.64839 14.3165 2.44825 14.6826 2.37207C14.7552 2.35532 16.4897 2 18.168 2ZM18.1094 9.94727C19.1287 9.95053 20.1373 10.1552 21.0771 10.5498C22.0171 10.9445 22.8699 11.5215 23.5859 12.2471C23.2567 12.499 22.9608 12.7919 22.7051 13.1182C21.7682 13.0233 20.8234 13.2014 19.9854 13.6309C19.1746 13.2524 18.2692 13.1261 17.3857 13.2676C16.5023 13.4091 15.6813 13.812 15.0293 14.4248C14.3774 15.0377 13.9234 15.832 13.7275 16.7051C13.5317 17.5783 13.6029 18.4905 13.9307 19.3232C13.7381 19.6023 13.6035 19.8094 13.5439 19.9033C12.9469 20.84 12.688 21.9525 12.8096 23.0566C12.7584 23.0976 12.7085 23.1388 12.6592 23.1816C11.9331 22.4661 11.3563 21.6135 10.9609 20.6738C10.5656 19.7342 10.3594 18.7255 10.3555 17.7061C10.3516 16.6866 10.5493 15.6761 10.9375 14.7334C11.3257 13.7908 11.8966 12.934 12.6172 12.2129C13.3378 11.4918 14.1943 10.9201 15.1367 10.5312C16.0792 10.1424 17.0899 9.94406 18.1094 9.94727Z"/></svg>