<svg xmlns="http://www.w3.org/2000/svg" viewBox="0 0 48 48"><path fill="currentColor" d="M40 26C43.3137 26 46 28.6863 46 32V40C46 43.3137 43.3137 46 40 46H8C4.68629 46 2 43.3137 2 40V32C2 28.6863 4.68629 26 8 26H40ZM8 30C6.89543 30 6 30.8954 6 32V40C6 41.1046 6.89543 42 8 42H40C41.1046 42 42 41.1046 42 40V32C42 30.8954 41.1046 30 40 30H8ZM12.0195 34C13.1241 34 14.0195 34.8954 14.0195 36C14.0195 37.1046 13.1241 38 12.0195 38H12C10.8954 38 10 37.1046 10 36C10 34.8954 10.8954 34 12 34H12.0195ZM40 2C43.3137 2 46 4.68629 46 8V16C46 19.3137 43.3137 22 40 22H8C4.68629 22 2 19.3137 2 16V8C2 4.68629 4.68629 2 8 2H40ZM8 6C6.89543 6 6 6.89543 6 8V16C6 17.1046 6.89543 18 8 18H40C41.1046 18 42 17.1046 42 16V8C42 6.89543 41.1046 6 40 6H8ZM12.0195 10C13.1241 10 14.0195 10.8954 14.0195 12C14.0195 13.1046 13.1241 14 12.0195 14H12C10.8954 14 10 13.1046 10 12C10 10.8954 10.8954 10 12 10H12.0195Z"/></svg>