<svg xmlns="http://www.w3.org/2000/svg" viewBox="0 0 48 48"><path fill="currentColor" d="M28.0996 2.15039C29.0421 2.15039 29.9687 2.39557 30.7881 2.86133C30.8097 2.87364 30.8314 2.8863 30.8525 2.89941L43.4531 10.6992L43.5996 10.7998C44.262 11.2966 44.947 12.0752 45.415 13.0195C45.456 13.0758 45.4946 13.1347 45.5303 13.1963C45.6699 13.4371 45.7532 13.6952 45.7852 13.9551C45.9212 14.4144 46 14.8991 46 15.3994V28.3994C46 29.3711 45.6361 30.3247 45.1973 31.0674C44.7499 31.8244 44.0838 32.6021 43.2285 33.1152C43.2214 33.1195 43.2142 33.1237 43.207 33.1279L22.6064 45.1279C22.6004 45.1314 22.594 45.1352 22.5879 45.1387C21.7687 45.6043 20.8426 45.8495 19.9004 45.8496C18.9579 45.8496 18.0313 45.6044 17.2119 45.1387C17.1903 45.1264 17.1686 45.1137 17.1475 45.1006L4.54688 37.3008C4.4965 37.2696 4.4478 37.2357 4.40039 37.2002C3.70653 36.6798 3.13636 35.9261 2.74414 35.207C2.35937 34.5015 2 33.5624 2 32.5996V19.3994C2.00004 18.9216 2.07536 18.443 2.21387 17.9814C2.2453 17.6937 2.33822 17.4079 2.50098 17.1455C2.54751 17.0705 2.59994 17.0012 2.6543 16.9346C3.16563 16.0091 3.94745 15.235 4.89941 14.8086L25.3936 2.87207L25.4121 2.86133C26.2314 2.39569 27.1573 2.15046 28.0996 2.15039ZM6 32.5996C6.00012 32.5996 6.00268 32.6693 6.04688 32.8115C6.09024 32.9509 6.16056 33.1173 6.25586 33.292C6.44316 33.6354 6.65015 33.8685 6.7666 33.9697L18 40.9229V29.1113L6 21.6689V32.5996ZM22 29.1523V40.8525L26 38.5225V26.833L22 29.1523ZM30 24.5137V36.1924L34 33.8613V22.1943L30 24.5137ZM38 19.874V31.5312L41.1709 29.6846C41.3156 29.5977 41.5503 29.3751 41.7529 29.0322C41.847 28.8731 41.9149 28.7206 41.9561 28.5928C41.9975 28.4643 41.9999 28.3994 42 28.3994V17.5547L38 19.874ZM28.0996 6.15039C27.8503 6.15046 27.6054 6.21566 27.3887 6.33887L27.3877 6.33789L7.52539 17.9082L20.0352 25.667L40.6875 13.6924L28.7969 6.33203C28.5834 6.21383 28.3438 6.15039 28.0996 6.15039Z"/></svg>