<svg xmlns="http://www.w3.org/2000/svg" viewBox="0 0 48 48"><path fill="currentColor" d="M29.5283 6C31.8162 6.00012 33.8716 7.2725 34.8936 9.31641L41.5781 22.6836C41.8541 23.2355 41.9999 23.8558 42 24.4717V36C42 39.308 39.308 42 36 42H12C8.692 42 6 39.308 6 36V24.4717C6.00005 23.8558 6.14592 23.2355 6.42188 22.6836L13.1064 9.31641C14.1284 7.2725 16.1838 6.00012 18.4717 6H29.5283ZM10 26V36C10 37.104 10.898 38 12 38H36C37.102 38 38 37.104 38 36V26H10ZM16 30C17.1 30 18 30.9 18 32C18 33.1 17.1 34 16 34C14.9 34 14 33.1 14 32C14 30.9 14.9 30 16 30ZM32 30C33.1 30 34 30.9 34 32C34 33.1 33.1 34 32 34H24C22.9 34 22 33.1 22 32C22 30.9 22.9 30 24 30H32ZM18.4717 10C17.7098 10.0001 17.0235 10.4245 16.6836 11.1064L11.2363 22H36.7637L31.3164 11.1064C30.9765 10.4245 30.2902 10.0001 29.5283 10H18.4717Z"/></svg>