<svg xmlns="http://www.w3.org/2000/svg" viewBox="0 0 48 48"><path fill="currentColor" d="M11.376 8C11.5618 8.00011 11.741 8.06945 11.8789 8.19336L28.7539 23.4434C28.9107 23.5863 29.001 23.7882 29.001 24C29.001 24.2118 28.9107 24.4137 28.7539 24.5566L11.8789 39.8066C11.741 39.9305 11.5618 39.9999 11.376 40H2.75098C2.44115 40 2.16388 39.8102 2.05176 39.5215C1.93982 39.2326 2.01642 38.9053 2.24414 38.6963L17.7588 24.5322C17.9137 24.3903 18.0008 24.1923 18.001 23.9805C18.001 23.7675 17.9148 23.5708 17.7578 23.4268L2.24512 9.30469C2.01642 9.09567 1.93882 8.76835 2.05176 8.47852C2.16288 8.18979 2.44115 8 2.75098 8H11.376ZM31.0371 26.1992C31.3311 25.9332 31.7793 25.9352 32.0723 26.2021L45.7568 38.6963C45.9846 38.9053 46.0622 39.2326 45.9492 39.5215C45.8371 39.8101 45.5606 39.9998 45.251 40H36.6328C36.4428 40 36.2582 39.9288 36.1162 39.8008L26.6836 31.2764C26.3456 30.9704 26.3456 30.4388 26.6836 30.1328L31.0371 26.1992ZM45.251 8C45.5606 8.00018 45.8381 8.18995 45.9492 8.47852C46.0622 8.76838 45.9846 9.09567 45.7559 9.30469L32.0527 21.7822C31.7598 22.0492 31.3116 22.0501 31.0176 21.7842L26.6836 17.8672C26.3456 17.5612 26.3456 17.0296 26.6836 16.7236L36.1221 8.19434C36.2601 8.06934 36.44 8 36.626 8H45.251Z"/></svg>