<svg xmlns="http://www.w3.org/2000/svg" viewBox="0 0 48 48"><path fill="currentColor" d="M24,25.9c1.1,0,1.9-.9,1.9-1.9V4.9c0-1.1-.9-1.9-1.9-1.9s-1.9,.9-1.9,1.9V24c0,1.1,.9,1.9,1.9,1.9Zm18.7-3.7c-.7-3.7-2.5-7.1-5.2-9.8-.7-.7-2-.7-2.7,0-.7,.7-.7,2,0,2.7,2.1,2.1,3.6,4.8,4.2,7.8,.6,3,.3,6-.9,8.8-1.2,2.8-3.1,5.2-5.6,6.9-5,3.4-11.9,3.4-17,0-2.5-1.7-4.5-4.1-5.6-6.9-1.2-2.8-1.5-5.8-.9-8.8,.6-3,2-5.7,4.2-7.8,.7-.7,.7-2,0-2.7-.7-.7-2-.7-2.7,0-2.7,2.7-4.5,6.1-5.2,9.8-.7,3.7-.4,7.5,1.1,11,1.4,3.5,3.9,6.5,7,8.6,3.1,2.1,6.8,3.2,10.6,3.2s7.5-1.1,10.6-3.2c3.2-2.1,5.6-5.1,7-8.6,1.5-3.5,1.8-7.3,1.1-11Z"/></svg>