<svg xmlns="http://www.w3.org/2000/svg" viewBox="0 0 48 48"><path fill="currentColor" d="M40.8,4.2c-.7-.3-1.6-.2-2.2,.3,0,0-1.7,1.5-6.6,1.5s-4.9-.9-7.3-1.9c-2.6-1.1-5.4-2.1-8.7-2.1-6.5,0-9,2.2-9.4,2.6s-.6,.9-.6,1.4V44c0,1.1,.9,2,2,2s2-.9,2-2v-12.9c.9-.4,2.7-1.1,6-1.1s4.9,.9,7.3,1.9c2.6,1.1,5.4,2.1,8.7,2.1,6.5,0,9-2.2,9.4-2.6s.6-.9,.6-1.4V6c0-.8-.5-1.5-1.2-1.8Zm-2.8,24.7c-.9,.4-2.7,1.1-6,1.1s-4.9-.9-7.3-1.9c-2.6-1.1-5.4-2.1-8.7-2.1s-4.6,.3-6,.8V7.1c.9-.4,2.7-1.1,6-1.1s4.9,.9,7.3,1.9c2.6,1.1,5.4,2.1,8.7,2.1s4.6-.3,6-.8V28.9Z"/></svg>