<svg xmlns="http://www.w3.org/2000/svg" viewBox="0 0 48 48"><path fill="currentColor" d="M13.7,6c-1.8,0-3.2,1.4-3.2,3.1s1.5,3.1,3.2,3.1,3.2-1.4,3.2-3.1-1.4-3.1-3.2-3.1Zm0,10c-1.8,0-3.2,1.4-3.2,3.1s1.5,3.1,3.2,3.1,3.2-1.4,3.2-3.1-1.4-3.1-3.2-3.1h0Zm20.5-3.7c1.8,0,3.2-1.4,3.2-3.1s-1.5-3.1-3.2-3.1-3.2,1.4-3.2,3.1,1.5,3.1,3.2,3.1ZM13.7,25.9c-1.8,0-3.2,1.4-3.2,3.1s1.4,3.1,3.2,3.1,3.2-1.4,3.2-3.1-1.4-3.1-3.2-3.1h0Zm10.3,9.9c-1.8,0-3.2,1.4-3.2,3.1s1.4,3.1,3.2,3.1,3.2-1.4,3.2-3.1-1.5-3.1-3.2-3.1h0Zm10.3-9.9c-1.8,0-3.2,1.4-3.2,3.1s1.4,3.1,3.2,3.1,3.2-1.4,3.2-3.1-1.5-3.1-3.2-3.1Zm0-10c-1.8,0-3.2,1.4-3.2,3.1s1.5,3.1,3.2,3.1,3.2-1.4,3.2-3.1-1.5-3.1-3.2-3.1ZM24,6c-1.8,0-3.2,1.4-3.2,3.1s1.4,3.1,3.2,3.1,3.2-1.4,3.2-3.1-1.4-3.1-3.2-3.1Zm0,19.9c-1.8,0-3.2,1.4-3.2,3.1s1.4,3.1,3.2,3.1,3.2-1.4,3.2-3.1-1.4-3.1-3.2-3.1Zm0-10c-1.8,0-3.2,1.4-3.2,3.1s1.4,3.1,3.2,3.1,3.2-1.4,3.2-3.1-1.4-3.1-3.2-3.1h0Z"/></svg>