<svg xmlns="http://www.w3.org/2000/svg" viewBox="0 0 48 48"><path fill="currentColor" d="M32,12c0-.5-.2-1-.6-1.4-.4-.4-.9-.6-1.4-.6H6c-.5,0-1,.2-1.4,.6-.4,.4-.6,.9-.6,1.4s.2,1,.6,1.4c.4,.4,.9,.6,1.4,.6h10v22c0,.5,.2,1,.6,1.4,.4,.4,.9,.6,1.4,.6s1-.2,1.4-.6c.4-.4,.6-.9,.6-1.4V14h10c.5,0,1-.2,1.4-.6,.4-.4,.6-.9,.6-1.4Zm10,10h-12c-.5,0-1,.2-1.4,.6s-.6,.9-.6,1.4,.2,1,.6,1.4,.9,.6,1.4,.6h4v10c0,.5,.2,1,.6,1.4s.9,.6,1.4,.6,1-.2,1.4-.6,.6-.9,.6-1.4v-10h4c.5,0,1-.2,1.4-.6s.6-.9,.6-1.4-.2-1-.6-1.4-.9-.6-1.4-.6Z"/></svg>