<svg xmlns="http://www.w3.org/2000/svg" viewBox="0 0 48 48"><path fill="currentColor" d="M33.4,32.5h-2.7v-2.5c0-.4-.2-.8-.5-1.1-.6-.6-1.7-.6-2.3,0-.3,.3-.5,.7-.5,1.1v4.1c0,.4,.2,.8,.5,1.1,.3,.3,.7,.5,1.1,.5h4.3c.4,0,.8-.2,1.1-.5,.3-.3,.5-.7,.5-1.1s-.2-.8-.5-1.1c-.3-.3-.7-.5-1.1-.5Zm-15.7,7.4h-7c-.3,0-.5-.2-.5-.5V15.3h27.5v5.5c.9,.6,1.8,1.3,2.6,2,.4,.4,.8,.8,1.1,1.3V12.4c0-2.1-1.7-3.8-3.8-3.8h-3.8V4.6c0-.5-.4-.9-.9-.9h-3.1c-.5,0-.9,.4-.9,.9v4.1h-10V4.6c0-.5-.4-.9-.9-.9h-3.1c-.5,0-.9,.4-.9,.9v4.1h-3.8c-2.1,0-3.8,1.7-3.8,3.8v27.5c0,2.1,1.7,3.8,3.8,3.8h10.5c-.2-.2-.4-.4-.6-.6-1-1-1.7-2-2.4-3.2Zm23-11.3c-.6-1.4-1.4-2.6-2.5-3.7-1.1-1.1-2.3-1.9-3.7-2.5-3.5-1.4-7.5-1-10.6,1-1.9,1.2-3.3,3-4.2,5.1-.9,2.1-1.1,4.3-.6,6.5,.4,2.2,1.5,4.2,3.1,5.8,1.6,1.6,3.6,2.7,5.8,3.1,.7,.1,1.5,.2,2.2,.2,1.5,0,2.9-.3,4.3-.9,2.1-.9,3.8-2.3,5.1-4.2,1.2-1.9,1.9-4,1.9-6.3s-.3-2.9-.9-4.3Zm-4.8,10c-1.5,1.5-3.5,2.3-5.6,2.3s-3.1-.5-4.4-1.3c-1.3-.9-2.3-2.1-2.9-3.6-.6-1.5-.8-3.1-.5-4.6,.3-1.6,1.1-3,2.2-4.1s2.5-1.9,4.1-2.2c.5-.1,1-.2,1.6-.2,1,0,2.1,.2,3,.6,1.5,.6,2.7,1.6,3.6,2.9,.9,1.3,1.3,2.8,1.3,4.4s-.8,4.1-2.3,5.6Z"/></svg>