<svg xmlns="http://www.w3.org/2000/svg" viewBox="0 0 48 48"><path fill="currentColor" d="M25.1,4.7h-.2c-8.6,0-16.1,5.5-18.6,13.8,0,.2,0,.3,0,.4,0,.1,.2,.2,.4,.2h3.2c.2,0,.4-.1,.5-.3,2.8-7.7,11.1-11.9,18.9-9.5,3.9,1.2,7.2,3.8,9.1,7.5s2.4,7.8,1.2,11.7c-2,6.6-7.9,11-14.8,11-6.5,0-12.2-4-14.5-10.1,0-.2-.3-.3-.5-.3h-3.2c-.2,0-.3,0-.4,.2,0,.1-.1,.3,0,.4,2.6,8.3,10.3,13.7,18.6,13.7s3.3-.2,5-.6c8.6-2.2,14.6-10,14.6-18.9,0-10.6-8.7-19.2-19.4-19.1Zm-8,24.4c-.4,.3-.6,.8-.6,1.3,0,.5,.1,1,.5,1.4,0,0,.1,.1,.2,.2,.4,.4,.9,.6,1.4,.6s1-.2,1.4-.6l6.3-6.5c.7-.8,.7-2,0-2.8l-6.3-6.1c-.4-.4-.9-.6-1.4-.6h0c-.5,0-1,.2-1.4,.6s-.6,.9-.6,1.4c0,.5,.2,1,.6,1.4l2.7,2.7H5.5c-1.1,0-2,.8-2,1.9,0,.5,.2,1,.5,1.4s.9,.6,1.5,.6h14.7l-3.1,3.1Zm13.3-7.5h0c0,0,.1,0,.2,0s.1,0,.1,0h4.4c1.1,0,2-.9,2-2s-.9-2-2-2h-4.4c-1.1,0-1.9,.8-2,1.9-.1,1,.6,1.9,1.6,2Zm-1.2,7.9c.3,.4,.7,.6,1.2,.7,0,0,0,0,0,0,0,0,.1,0,.2,0s.1,0,.1,0h4.4c1.1,0,2-.9,2-2s-.9-2-2-2h-4.4c-1.1,0-2,.8-2,1.9,0,.5,0,1,.4,1.3Z"/></svg>