<svg xmlns="http://www.w3.org/2000/svg" viewBox="0 0 48 48"><path fill="currentColor" d="M7.1,27.2l3.3,1.1-1.5,3.2c-1.9,.3-3.3,2.1-2.9,4.2s1.3,2.3,2.6,2.6c2.3,.5,4.3-1.2,4.3-3.4s-.3-1.5-.7-2.1l1.6-3.5,7.9,2.6c.2,0,.4,0,.5,0,.7,0,1.3-.4,1.6-1.1l3-6.8,5.8,2.7c.4,1.8,2.2,3,4.2,2.5s2.4-1.4,2.6-2.7-.2-2.5-1-3.2l1.5-6.6,2.9-.2c.8,0,1.5-.6,1.6-1.3,.3-1.2-.7-2.3-1.9-2.2l-1.9,.2,.7-3.2c1.5-.6,2.6-2.2,2.2-4s-1.3-2.4-2.6-2.7c-2.3-.5-4.3,1.2-4.3,3.4s.5,2,1.3,2.7l-.9,4.1-8.6,.7c-.6,0-1.2,.5-1.5,1l-1.9,4.2-5-2.3c-.5-1.8-2.4-3.1-4.5-2.5s-1.9,1.1-2.2,2.1-.1,2.6,.7,3.5l-2.2,4.7-3.8-1.2c-1.1-.4-2.3,.4-2.3,1.7s.6,1.4,1.3,1.7Zm22.7-9.6l6.5-.5-1.2,5.5c-.5,.2-.9,.4-1.3,.8l-5.4-2.5,1.5-3.3Zm-12.3,3.8c.6-.1,1.2-.4,1.6-.9l4.5,2.1-2.4,5.4-6-1.9,2.2-4.7Zm26.7,19.9H3.8c-.8,0-1.5,.5-1.8,1.2-.4,1.2,.5,2.3,1.7,2.3H44.2c.8,0,1.5-.5,1.8-1.2,.4-1.2-.5-2.3-1.7-2.3Z"/></svg>