<svg xmlns="http://www.w3.org/2000/svg" viewBox="0 0 48 48"><path fill="currentColor" d="M43.9,15.5c-.2-1.1-.7-2.2-1.7-3.1s-1.8-1.5-3.1-1.7c-.4,0-.7-.2-1.1-.2-.7,0-1.5,.2-2.2,.4-1.1,.4-2,1.3-2.8,2.2-.4,.7-.7,1.5-.9,2.2l-3.7,3.7-.4-.4c-.2-1.1-.7-2-1.5-2.8-1.1-1.1-2.6-1.8-4.2-1.8s-3.1,.6-4.2,1.8c-.7,.9-1.3,1.8-1.5,2.9l-4,4c-.9,.2-2,.7-2.8,1.5-1.1,1.1-1.8,2.6-1.8,4.2s.6,3.1,1.8,4.2c1.1,1.1,2.6,1.8,4.2,1.8s3.1-.6,4.2-1.8c.9-.9,1.5-1.8,1.7-3.1l2.4-2.4,.4,.4c.2,1.1,.7,2,1.7,2.9s2.6,1.8,4.2,1.8,3.1-.6,4.2-1.8c.7-.7,1.3-1.8,1.7-2.9l5.2-5.2c.6-.2,1.3-.4,1.8-.7,.9-.7,1.8-1.7,2.2-2.8,.2-1.3,.4-2.4,.2-3.5Zm-3.3,2.2c-.2,.6-.6,.9-1.1,1.3-.4,.4-.9,.6-1.5,.6l-6.6,6.8v.2c0,.7-.4,1.5-.7,2-.6,.6-1.3,.7-2,.7s-1.5-.4-2-.7c-.6-.6-.7-1.3-.7-2v-.2l-2.9-2.9h-.9l-5.2,4.8v.4c0,.7-.4,1.5-.7,2-.6,.4-1.3,.7-2,.7s-1.5-.4-2-.7c-.4-.6-.7-1.3-.7-2s.4-1.5,.7-2c.6-.4,1.3-.7,2-.7l5.5-5.5c0-.7,.4-1.5,.7-2,.6-.4,1.3-.7,2-.7s1.5,.4,2,.7c.6,.6,.7,1.3,.7,2l3.1,3.3h.4l6.6-6.6v-.4c0-.6,.2-1.1,.6-1.5s.7-.7,1.3-1.1c.6-.2,1.1-.2,1.7-.2,.6,.2,1.1,.4,1.5,.7s.7,.9,.7,1.5c-.2,.6-.2,1.1-.4,1.7h0Zm-1.7,21H7.7V7.4c0-.6-.2-.9-.6-1.3s-.7-.6-1.3-.6-.9,.2-1.3,.6-.6,.7-.6,1.3V40.6c0,.6,.2,.9,.6,1.3,.4,.4,.7,.6,1.3,.6H39c.6,0,.9-.2,1.3-.6s.6-.7,.6-1.3-.2-.9-.6-1.3-.7-.6-1.3-.6Z"/></svg>