<svg xmlns="http://www.w3.org/2000/svg" viewBox="0 0 48 48"><path fill="currentColor" d="M11.5,21.1h3.8c.5,0,1-.2,1.3-.5l.4-.3,2.8,3c.4,.4,.9,.6,1.4,.6s.1,0,.2,0c.6,0,1.2-.4,1.5-.9l2.7-4.5,1.6,1.9c.7,.8,1.8,.9,2.6,.3l1.9-1.4,1.2,1c.4,.3,.8,.5,1.3,.5h2.2c1.1,0,2-.9,2-2s-.9-2-2-2h-1.4l-1.8-1.6c-.7-.6-1.7-.6-2.4-.1l-1.7,1.2-2.2-2.6c-.4-.5-1-.7-1.7-.7-.6,0-1.2,.4-1.5,.9l-2.8,4.6-2.3-2.5c-.7-.8-2-.8-2.8-.1l-1.2,1.1h-3.1c-1.1,0-2,.9-2,2s.9,2,2,2ZM43,4H5c-1.1,0-2,.9-2,2V31.1c0,1.1,.9,2,2,2H22v3.1c-.7,.4-1.3,1-1.7,1.7H9.3c-1.1,0-2,.9-2,2s.9,2,2,2h11.1c.7,1.3,2.1,2.2,3.6,2.2s2.9-.9,3.6-2.2h11.1c1.1,0,2-.9,2-2s-.9-2-2-2h-11.1c-.4-.7-1-1.3-1.7-1.7v-3.1h17.1c1.1,0,2-.9,2-2V5.9c0-1.1-.9-2-2-2Zm-2,24.6H6.9V7.9H41.1V28.5Z"/></svg>