<svg xmlns="http://www.w3.org/2000/svg" viewBox="0 0 48 48"><path fill="currentColor" d="M41.4,16.1s0,0,0-.1c0,0,0-.1,0-.2,0,0,0,0,0-.1,0,0,0-.1,0-.2,0,0,0,0,0-.1,0,0,0,0,0-.1L29.5,2.6s0,0,0,0c0,0-.1-.1-.2-.1,0,0,0,0-.1,0,0,0-.1,0-.2-.1,0,0,0,0,0,0,0,0-.2,0-.3,0,0,0,0,0,0,0-.1,0-.2,0-.4,0H8.4c-1,0-1.8,.8-1.8,1.8V44.2c0,1,.8,1.8,1.8,1.8h31.2c1,0,1.8-.8,1.8-1.8V16.4c0-.1,0-.2,0-.3Zm-11.4-7.7l5.7,6.3h-5.7v-6.3Zm7.9,34.1H10.1V5.5H26.4v10.9c0,1,.8,1.8,1.8,1.8h9.6v24.2ZM15.5,27.9c0,1,.8,1.8,1.8,1.8h12c1,0,1.8-.8,1.8-1.8s-.8-1.8-1.8-1.8h-12c-1,0-1.8,.8-1.8,1.8Zm13.8,5.9h-12c-1,0-1.8,.8-1.8,1.8s.8,1.8,1.8,1.8h12c1,0,1.8-.8,1.8-1.8s-.8-1.8-1.8-1.8Z"/></svg>