<svg xmlns="http://www.w3.org/2000/svg" viewBox="0 0 48 48"><path fill="currentColor" d="m18,34.71c-.44-.29-.97-.39-1.49-.29-.53.11-.98.41-1.28.86l-2.39,3.68-.87-1.78c-.33-.69-1.03-1.14-1.79-1.14h-1.51l2.52-3.86c.2-.32.31-.69.31-1.07,0-1.1-.9-1.99-2-1.99-.71,0-1.37.38-1.68.93l-4.49,6.88c-.41.62-.44,1.43-.08,2.07.36.63,1.02,1.03,1.73,1.03h3.95l1.89,3.87c.32.64.96,1.07,1.66,1.11h.12c.68,0,1.3-.34,1.66-.9l4.31-6.61c.3-.45.41-.99.3-1.52-.11-.53-.42-.98-.87-1.27Zm26.67,2.27l-4.53-6.93c-.6-.92-1.84-1.18-2.77-.58h.01c-.45.28-.76.74-.86,1.27-.1.52,0,1.05.29,1.49l2.52,3.85h-1.52c-.76,0-1.47.45-1.78,1.13l-.88,1.8-2.41-3.68c-.29-.45-.75-.76-1.28-.86-.52-.11-1.05,0-1.5.29-.92.6-1.17,1.84-.57,2.77l4.33,6.61c.36.56,1,.91,1.67.91h.11c.74-.04,1.4-.5,1.67-1.12l1.87-3.84h3.94c.72,0,1.39-.41,1.73-1.03.39-.65.38-1.44-.04-2.08ZM23.98,11.64c-4.28,0-7.77,3.49-7.77,7.77s3.49,7.77,7.77,7.77,7.77-3.49,7.77-7.77-3.49-7.77-7.77-7.77Zm0,12.06c-2.36,0-4.28-1.92-4.28-4.28s1.92-4.28,4.28-4.28,4.28,1.92,4.28,4.28-1.92,4.28-4.28,4.28Zm7.21,9.43c.26.09.61.18,1,.16.69-.03,1.34-.31,1.83-.8.54-.54.82-1.24.79-1.95-.02-1.96,1.21-3.67,3.02-4.24.3-.08.61-.24.88-.44.56-.43.93-1.04,1.04-1.71.14-.72-.04-1.46-.5-2.1-1.17-1.57-1.18-3.67-.08-5.15l.14-.16c.09-.11.16-.22.22-.34l.21-.23v-.37c.14-.61.06-1.27-.22-1.84-.33-.66-.9-1.14-1.61-1.37-1.86-.59-3.09-2.29-3.07-4.24,0-.34-.06-.68-.15-.91-.23-.68-.71-1.23-1.42-1.58-.64-.3-1.34-.33-2.01-.11-.47.16-.95.24-1.4.24-1.45-.02-2.8-.73-3.61-1.87-.2-.29-.45-.53-.65-.65-1.23-.87-2.94-.58-3.8.65-.82,1.16-2.16,1.85-3.58,1.85-.47,0-.95-.08-1.36-.23-.98-.36-2.13-.09-2.85.65-.54.54-.81,1.24-.79,1.95.02,1.95-1.21,3.65-3.02,4.22-.31.08-.6.23-.9.44-1.2.9-1.45,2.61-.56,3.81,1.17,1.57,1.17,3.68-.04,5.3h-.03c-.15.23-.28.48-.36.73-.22.7-.16,1.42.21,2.12.35.62.9,1.07,1.56,1.3,1.86.6,3.1,2.29,3.08,4.14-.03.34.02.69.13,1.04.23.68.71,1.23,1.4,1.58.63.3,1.37.34,2.04.12,1.95-.64,3.9.06,5,1.58.18.27.42.51.67.68.47.33,1,.5,1.58.5.09,0,.17,0,.26-.02l.24-.02c.74-.14,1.36-.54,1.73-1.1,1.14-1.6,3.14-2.25,4.98-1.63Zm-7.21-1.89c-1.55-1.49-3.62-2.34-5.78-2.34-.39,0-.79.03-1.18.08-.44-2.53-2.01-4.7-4.27-5.9,1.14-2.32,1.14-5.01,0-7.33,2.28-1.21,3.85-3.37,4.28-5.9.38.05.76.08,1.15.08,2.19,0,4.27-.86,5.8-2.35,1.82,1.75,4.41,2.63,6.96,2.26.44,2.52,2.01,4.68,4.27,5.86-1.14,2.32-1.14,5.02.02,7.33v.03c-2.28,1.21-3.86,3.38-4.29,5.91-2.56-.37-5.12.47-6.96,2.27Z"/></svg>