<svg width="48" height="48" viewBox="0 0 48 48" fill="none" xmlns="http://www.w3.org/2000/svg"><path d="M2 6h44v15.4H2V6z" fill="#AECBFA"/><path d="M41.6 6H46v15.4h-4.4V6z" fill="#669DF6"/><path d="M46 6h-4.4v15.4L46 6z" fill="#4285F4"/><path d="M2 6h4.4v15.4H2V6z" fill="#669DF6"/><path d="M10.8 12.602H24v2.2H10.8v-2.2z" fill="#fff"/><path fill-rule="evenodd" clip-rule="evenodd" d="M30.6 13.698c0-1.828 1.471-3.3 3.3-3.3 1.828 0 3.3 1.472 3.3 3.3 0 1.829-1.472 3.3-3.3 3.3a3.293 3.293 0 01-3.3-3.3z" fill="#fff"/><path d="M2 25.797h44v15.4H2v-15.4z" fill="#AECBFA"/><path d="M41.6 25.797H46v15.4h-4.4v-15.4z" fill="#669DF6"/><path d="M46 25.797h-4.4v15.4l4.4-15.4z" fill="#4285F4"/><path d="M2 25.797h4.4v15.4H2v-15.4z" fill="#669DF6"/><path d="M10.8 32.398H24v2.2H10.8v-2.2z" fill="#fff"/><path fill-rule="evenodd" clip-rule="evenodd" d="M30.6 33.503c0-1.828 1.471-3.3 3.3-3.3 1.828 0 3.3 1.472 3.3 3.3 0 1.828-1.472 3.3-3.3 3.3a3.293 3.293 0 01-3.3-3.3z" fill="#fff"/></svg>