<svg width="48" height="48" viewBox="0 0 48 48" fill="none" xmlns="http://www.w3.org/2000/svg"><path d="M30.601 17.406h-13.2v13.201l6.6-6.6 6.6-6.6z" fill="#AECBFA"/><path d="M8.6 8.602v30.802h30.802V8.602H8.6zM35 35.003H13V13.002h22v22.001z" fill="#AECBFA"/><path d="M26.201 2h-4.4v6.6h4.4V2zM17.4 2H13v6.6h4.4V2zm17.602 0h-4.4v6.6h4.4V2zM8.6 21.805H2v4.4h6.6v-4.4zm0 8.797H2v4.4h6.6v-4.4zM8.6 13H2v4.4h6.6V13zm8.802 17.6h13.201l-6.6-6.6-6.6 6.6z" fill="#669DF6"/><path d="M26.201 39.398h-4.4v6.6h4.4v-6.6zm-8.801 0H13v6.6h4.4v-6.6zm17.602 0h-4.4v6.6h4.4v-6.6zm11.001-17.593h-6.6v4.4h6.6v-4.4zm0 8.797h-6.6v4.4h6.6v-4.4zm0-17.602h-6.6v4.4h6.6V13zm-15.401 4.398l-6.6 6.6 6.6 6.601V17.4z" fill="#4285F4"/></svg>