<svg width="48" height="48" viewBox="0 0 48 48" fill="none" xmlns="http://www.w3.org/2000/svg"><path fill-rule="evenodd" clip-rule="evenodd" d="M9.34 20.883v6.02l14.66 7.8v-6.02l-14.66-7.8zm0 9.297v6.02L24 44v-6.02l-14.66-7.8z" fill="#AECBFA"/><path fill-rule="evenodd" clip-rule="evenodd" d="M24 34.703l14.66-7.8v-6.02L24 28.683v6.02zM24 44l14.66-7.8v-6.02L24 37.98V44z" fill="#669DF6"/><path fill-rule="evenodd" clip-rule="evenodd" d="M38.66 17.82V11.8L24 4v6.02l14.66 7.8z" fill="#4285F4"/><path fill-rule="evenodd" clip-rule="evenodd" d="M24 4L9.34 11.8v6.02L24 10.02V4z" fill="#669DF6"/><path fill-rule="evenodd" clip-rule="evenodd" d="M9.34 11.742v6.04l14.66 7.8v-6.04l-14.66-7.8z" fill="#AECBFA"/><path fill-rule="evenodd" clip-rule="evenodd" d="M24 25.582l14.66-7.8v-6.04L24 19.542v6.04z" fill="#669DF6"/></svg>