<svg width="48" height="48" viewBox="0 0 48 48" fill="none" xmlns="http://www.w3.org/2000/svg"><path fill-rule="evenodd" clip-rule="evenodd" d="M40.54 33.337h-.038v-.975l-6.075-3.525v-9.6l-9.263 5.475v11.025l8.438-4.987 5.7 3.3 1.237-.713z" fill="#4285F4"/><path fill-rule="evenodd" clip-rule="evenodd" d="M22.875 24.712l-9.262-5.475V28.8L7.5 32.325v1.012l1.2.675 5.7-3.3-.787-.487 9.262 5.512V24.712z" fill="#669DF6"/><path d="M24.04 0l-21 12v24l21 12 20.962-12V12L24.039 0zm0 42.675l-16.5-9.337V14.662l15.412-8.738v6.45l-8.513 4.913 9.525 5.512 9.563-5.512-8.513-4.913V5.888l15.488 8.774v18.675l-16.5 9.338h.037z" fill="#AECBFA"/></svg>