<svg width="48" height="48" viewBox="0 0 48 48" fill="none" xmlns="http://www.w3.org/2000/svg"><path d="M29.92 15.751h1.342l3.824-3.824.188-1.625C28.156 4.02 17.293 4.698 11.01 11.816a17.186 17.186 0 00-3.703 6.875 2.07 2.07 0 011.341-.08l7.65-1.262s.387-.644.59-.605a9.54 9.54 0 0113.059-.993h-.027z" fill="#EA4335"/><path d="M40.535 18.693a17.217 17.217 0 00-5.192-8.373l-5.367 5.367a9.543 9.543 0 013.502 7.57v.953a4.778 4.778 0 010 9.556h-9.556l-.953.967v5.731l.953.953h9.556C40.34 41.47 45.947 35.95 46 29.088a12.43 12.43 0 00-5.465-10.395z" fill="#4285F4"/><path d="M14.352 41.353h9.556v-7.65h-9.556a4.757 4.757 0 01-1.973-.43l-1.341.418-3.851 3.824-.335 1.342a12.334 12.334 0 007.5 2.496z" fill="#34A853"/><path d="M14.353 16.54C7.489 16.578 1.961 22.174 2 29.04a12.42 12.42 0 004.852 9.775l5.541-5.541a4.779 4.779 0 01-2.387-6.32 4.779 4.779 0 018.707 0l5.542-5.542a12.398 12.398 0 00-9.902-4.873z" fill="#FBBC05"/></svg>