<svg xmlns="http://www.w3.org/2000/svg" viewBox="0 0 48 48"><path fill="currentColor" d="M34,14h2v2c0,.53,.21,1.04,.59,1.41s.88,.59,1.41,.59,1.04-.21,1.41-.59,.59-.88,.59-1.41v-2h2c.53,0,1.04-.21,1.41-.59s.59-.88,.59-1.41-.21-1.04-.59-1.41-.88-.59-1.41-.59h-2v-2c0-.53-.21-1.04-.59-1.41s-.88-.59-1.41-.59-1.04,.21-1.41,.59-.59,.88-.59,1.41v2h-2c-.53,0-1.04,.21-1.41,.59s-.59,.88-.59,1.41,.21,1.04,.59,1.41,.88,.59,1.41,.59Zm8,8c-.53,0-1.04,.21-1.41,.59s-.59,.88-.59,1.41v12c0,.53-.21,1.04-.59,1.41s-.88,.59-1.41,.59H10c-.53,0-1.04-.21-1.41-.59-.38-.38-.59-.88-.59-1.41V16.82l11.76,11.78c1.12,1.12,2.65,1.75,4.24,1.75s3.11-.63,4.24-1.75l4.94-4.94c.38-.38,.59-.89,.59-1.42s-.21-1.04-.59-1.42c-.38-.38-.89-.59-1.42-.59s-1.04,.21-1.42,.59l-4.94,4.94c-.37,.37-.88,.57-1.4,.57s-1.03-.21-1.4-.57L10.82,14h15.18c.53,0,1.04-.21,1.41-.59s.59-.88,.59-1.41-.21-1.04-.59-1.41-.88-.59-1.41-.59H10c-1.59,0-3.12,.63-4.24,1.76s-1.76,2.65-1.76,4.24v20c0,1.59,.63,3.12,1.76,4.24s2.65,1.76,4.24,1.76h28c1.59,0,3.12-.63,4.24-1.76,1.13-1.13,1.76-2.65,1.76-4.24v-12c0-.53-.21-1.04-.59-1.41s-.88-.59-1.41-.59Z"/></svg>