<svg xmlns="http://www.w3.org/2000/svg" viewBox="0 0 48 48"><path fill="currentColor" d="M40.96,27c-.53,0-1.04,.21-1.41,.59-.38,.38-.59,.88-.59,1.41v8c0,.53-.21,1.04-.59,1.41-.38,.38-.88,.59-1.41,.59H8.96c-.53,0-1.04-.21-1.41-.59-.38-.38-.59-.88-.59-1.41V17.82l11.76,11.76c1.12,1.12,2.64,1.75,4.22,1.76,.81,0,1.6-.16,2.34-.47,.74-.31,1.41-.77,1.97-1.35,.36-.37,.56-.87,.56-1.39s-.2-1.02-.56-1.39c-.19-.19-.41-.34-.65-.45-.25-.1-.51-.16-.78-.16s-.53,.05-.78,.16c-.25,.1-.47,.25-.65,.45-.37,.37-.88,.57-1.4,.57s-1.03-.21-1.4-.57L9.78,15h9.18c.53,0,1.04-.21,1.41-.59s.59-.88,.59-1.41-.21-1.04-.59-1.41-.88-.59-1.41-.59H8.96c-1.59,0-3.12,.63-4.24,1.76s-1.76,2.65-1.76,4.24v20c0,1.59,.63,3.12,1.76,4.24,1.13,1.13,2.65,1.76,4.24,1.76h28c1.59,0,3.12-.63,4.24-1.76,1.13-1.13,1.76-2.65,1.76-4.24v-8c0-.53-.21-1.04-.59-1.41-.38-.38-.88-.59-1.41-.59Zm2.93-16.66c-1.08-2.05-2.84-3.66-4.97-4.56-2.14-.9-4.52-1.02-6.74-.36s-4.14,2.08-5.43,4c-1.29,1.92-1.88,4.23-1.66,6.54,.22,2.31,1.24,4.46,2.87,6.1,1.86,1.86,4.37,2.92,7,2.94,2.32,.02,4.57-.77,6.37-2.22,1.8-1.46,3.04-3.49,3.51-5.76,.47-2.27,.13-4.63-.95-6.68Zm-14.86,3.65c.21-1.23,.81-2.35,1.69-3.23,1.12-1.13,2.65-1.76,4.24-1.76,.89,0,1.76,.21,2.56,.6l-8,8c-.53-1.12-.71-2.39-.49-3.61Zm11.86,2.02c-.21,1.23-.81,2.35-1.69,3.23-.88,.87-2,1.45-3.22,1.65-1.22,.21-2.47,.03-3.58-.49l8-8c.53,1.12,.71,2.39,.49,3.61Z"/></svg>