<svg xmlns="http://www.w3.org/2000/svg" viewBox="0 0 48 48"><path fill="currentColor" d="M39.04,26.06c-.44,0-.9-.14-1.34-.24-.89-.2-1.77-.46-2.63-.78-.93-.34-1.95-.32-2.87,.05-.92,.37-1.67,1.07-2.1,1.96l-.44,.9c-1.96-1.09-3.75-2.44-5.34-4.01-1.58-1.59-2.93-3.38-4.01-5.34l.84-.56c.89-.44,1.59-1.19,1.96-2.1,.37-.92,.39-1.94,.05-2.87-.32-.86-.58-1.74-.78-2.63-.1-.44-.18-.9-.24-1.36-.24-1.41-.98-2.69-2.09-3.61-1.1-.92-2.5-1.41-3.93-1.39h-6.02c-.87,0-1.72,.17-2.51,.52-.79,.35-1.49,.87-2.07,1.52-.57,.65-1,1.41-1.25,2.24-.25,.83-.32,1.7-.2,2.56,1.07,8.41,4.91,16.22,10.91,22.21,6,5.98,13.83,9.79,22.24,10.83h.76c1.48,0,2.91-.54,4.01-1.53,.64-.57,1.14-1.26,1.49-2.04,.35-.78,.52-1.62,.52-2.47v-6.02c-.02-1.39-.53-2.74-1.44-3.8-.9-1.06-2.15-1.78-3.52-2.02Zm1,12.04c0,.28-.06,.57-.18,.83-.12,.26-.29,.49-.5,.68-.22,.19-.49,.34-.77,.42-.28,.09-.58,.11-.88,.08-7.52-.96-14.5-4.4-19.85-9.77-5.35-5.37-8.75-12.37-9.68-19.89-.03-.29,0-.59,.08-.87,.09-.28,.23-.55,.42-.77,.19-.21,.42-.39,.68-.5,.26-.12,.54-.18,.83-.18h6.02c.47-.01,.92,.14,1.29,.43,.37,.29,.62,.7,.72,1.15,.08,.55,.18,1.09,.3,1.63,.23,1.06,.54,2.1,.92,3.11l-2.81,1.3c-.24,.11-.46,.27-.64,.46-.18,.19-.32,.42-.41,.67-.09,.25-.13,.51-.12,.78,.01,.26,.07,.52,.18,.76,2.89,6.19,7.86,11.16,14.05,14.05,.49,.2,1.04,.2,1.53,0,.25-.09,.48-.23,.68-.41,.2-.18,.36-.4,.47-.64l1.24-2.81c1.04,.37,2.1,.68,3.17,.92,.54,.12,1.08,.22,1.63,.3,.46,.1,.86,.35,1.15,.72s.44,.82,.43,1.29l.04,6.26Z"/></svg>