<svg xmlns="http://www.w3.org/2000/svg" viewBox="0 0 48 48"><path fill="currentColor" d="M34,14H14c-.53,0-1.04,.21-1.41,.59-.38,.38-.59,.88-.59,1.41s.21,1.04,.59,1.41c.38,.38,.88,.59,1.41,.59h20c.53,0,1.04-.21,1.41-.59,.38-.38,.59-.88,.59-1.41s-.21-1.04-.59-1.41c-.38-.38-.88-.59-1.41-.59Zm0,8H14c-.53,0-1.04,.21-1.41,.59-.38,.38-.59,.88-.59,1.41s.21,1.04,.59,1.41c.38,.38,.88,.59,1.41,.59h20c.53,0,1.04-.21,1.41-.59s.59-.88,.59-1.41-.21-1.04-.59-1.41-.88-.59-1.41-.59ZM38,4H10c-1.59,0-3.12,.63-4.24,1.76s-1.76,2.65-1.76,4.24V30c0,1.59,.63,3.12,1.76,4.24,1.13,1.13,2.65,1.76,4.24,1.76h23.18l7.4,7.42c.19,.19,.41,.33,.65,.43,.24,.1,.5,.15,.77,.15,.26,0,.52-.05,.76-.16,.37-.15,.68-.4,.9-.73,.22-.33,.34-.71,.34-1.11V10c0-1.59-.63-3.12-1.76-4.24-1.13-1.13-2.65-1.76-4.24-1.76Zm2,33.18l-4.58-4.6c-.19-.19-.41-.33-.65-.43-.24-.1-.5-.15-.77-.15H10c-.53,0-1.04-.21-1.41-.59-.38-.38-.59-.88-.59-1.41V10c0-.53,.21-1.04,.59-1.41,.38-.38,.88-.59,1.41-.59h28c.53,0,1.04,.21,1.41,.59,.38,.38,.59,.88,.59,1.41v27.18Z"/></svg>