<svg xmlns="http://www.w3.org/2000/svg" viewBox="0 0 48 48"><path fill="currentColor" d="M24,22c-.4,0-.8,.1-1.1,.3-.3,.2-.6,.5-.7,.9-.2,.4-.2,.8-.1,1.2,0,.4,.3,.7,.5,1,.3,.3,.6,.5,1,.5s.8,0,1.2-.1c.4-.2,.7-.4,.9-.7,.2-.3,.3-.7,.3-1.1s-.2-1-.6-1.4-.9-.6-1.4-.6Zm-8,0c-.4,0-.8,.1-1.1,.3-.3,.2-.6,.5-.7,.9-.2,.4-.2,.8-.1,1.2,0,.4,.3,.7,.5,1,.3,.3,.6,.5,1,.5s.8,0,1.2-.1c.4-.2,.7-.4,.9-.7,.2-.3,.3-.7,.3-1.1s-.2-1-.6-1.4-.9-.6-1.4-.6Zm22.1-12.1c-3.8-3.8-8.8-5.9-14.1-5.9s-5.2,.5-7.7,1.5c-2.4,1-4.6,2.5-6.5,4.3-3.8,3.8-5.9,8.8-5.9,14.1,0,4.6,1.6,9.1,4.5,12.7l-4,4c-.3,.3-.5,.6-.5,1,0,.4,0,.8,.1,1.2,.2,.4,.4,.7,.8,.9s.7,.3,1.1,.3H24c5.3,0,10.4-2.1,14.1-5.9,3.8-3.8,5.9-8.8,5.9-14.1s-2.1-10.4-5.9-14.1Zm-4,26.5c-2.9,2.4-6.4,3.6-10.1,3.6H10.8l1.9-1.9c.2-.2,.3-.4,.4-.6,.1-.2,.2-.5,.2-.8,0-.5-.2-1-.6-1.4-2.6-2.6-4.2-6.1-4.6-9.7-.4-3.7,.6-7.4,2.6-10.5,2.1-3.1,5.1-5.4,8.7-6.4s7.3-.9,10.8,.5c3.4,1.4,6.2,4,8,7.2,1.7,3.3,2.3,7,1.6,10.7-.7,3.6-2.7,6.9-5.5,9.2Zm-2.1-14.4c-.4,0-.8,.1-1.1,.3-.3,.2-.6,.5-.7,.9-.2,.4-.2,.8-.1,1.2s.3,.7,.5,1c.3,.3,.6,.5,1,.5,.4,0,.8,0,1.2-.1,.4-.2,.7-.4,.9-.7,.2-.3,.3-.7,.3-1.1s-.2-1-.6-1.4c-.4-.4-.9-.6-1.4-.6Z"/></svg>