<svg xmlns="http://www.w3.org/2000/svg" viewBox="0 0 48 48"><path fill="currentColor" d="M26,22H14c-.5,0-1,.2-1.4,.6-.4,.4-.6,.9-.6,1.4s.2,1,.6,1.4c.4,.4,.9,.6,1.4,.6h12c.5,0,1-.2,1.4-.6s.6-.9,.6-1.4-.2-1-.6-1.4-.9-.6-1.4-.6Zm8-8H14c-.5,0-1,.2-1.4,.6-.4,.4-.6,.9-.6,1.4s.2,1,.6,1.4c.4,.4,.9,.6,1.4,.6h20c.5,0,1-.2,1.4-.6,.4-.4,.6-.9,.6-1.4s-.2-1-.6-1.4c-.4-.4-.9-.6-1.4-.6Zm4-10H10c-1.6,0-3.1,.6-4.2,1.8s-1.8,2.7-1.8,4.2V30c0,1.6,.6,3.1,1.8,4.2,1.1,1.1,2.7,1.8,4.2,1.8h23.2l7.4,7.4c.2,.2,.4,.3,.7,.4,.2,0,.5,.1,.8,.1,.3,0,.5,0,.8-.2,.4-.2,.7-.4,.9-.7,.2-.3,.3-.7,.3-1.1V10c0-1.6-.6-3.1-1.8-4.2-1.1-1.1-2.7-1.8-4.2-1.8Zm2,33.2l-4.6-4.6c-.2-.2-.4-.3-.7-.4-.2,0-.5-.1-.8-.1H10c-.5,0-1-.2-1.4-.6-.4-.4-.6-.9-.6-1.4V10c0-.5,.2-1,.6-1.4,.4-.4,.9-.6,1.4-.6h28c.5,0,1,.2,1.4,.6,.4,.4,.6,.9,.6,1.4v27.2Z"/></svg>