<svg xmlns="http://www.w3.org/2000/svg" viewBox="0 0 48 48"><path fill="currentColor" d="M34,40H10c-1.59,0-3.12-.63-4.24-1.76-1.13-1.13-1.76-2.65-1.76-4.24V18c0-.53-.21-1.04-.59-1.41-.38-.38-.88-.59-1.41-.59s-1.04,.21-1.41,.59c-.38,.38-.59,.88-.59,1.41v16c0,2.65,1.05,5.2,2.93,7.07,1.88,1.88,4.42,2.93,7.07,2.93h24c.53,0,1.04-.21,1.41-.59s.59-.88,.59-1.41-.21-1.04-.59-1.41c-.38-.38-.88-.59-1.41-.59ZM42,4H14c-1.59,0-3.12,.63-4.24,1.76-1.13,1.13-1.76,2.65-1.76,4.24V30c0,1.59,.63,3.12,1.76,4.24,1.13,1.13,2.65,1.76,4.24,1.76h28c1.59,0,3.12-.63,4.24-1.76,1.13-1.13,1.76-2.65,1.76-4.24V10c0-1.59-.63-3.12-1.76-4.24-1.13-1.13-2.65-1.76-4.24-1.76h0Zm-.82,4l-11.76,11.76c-.19,.19-.41,.34-.65,.44-.24,.1-.51,.15-.77,.15s-.53-.05-.77-.15c-.24-.1-.46-.25-.65-.44L14.82,8h26.36Zm2.82,22c0,.53-.21,1.04-.59,1.41s-.88,.59-1.41,.59H14c-.53,0-1.04-.21-1.41-.59-.38-.38-.59-.88-.59-1.41V10.74l11.76,11.76c1.12,1.12,2.65,1.75,4.24,1.75s3.11-.63,4.24-1.75l11.76-11.76V30Z"/></svg>