<svg xmlns="http://www.w3.org/2000/svg" viewBox="0 0 48 48"><path fill="currentColor" d="M14,19.99h4c.53,0,1.04-.21,1.41-.59,.38-.38,.59-.88,.59-1.41s-.21-1.04-.59-1.41c-.38-.38-.88-.59-1.41-.59h-4c-.53,0-1.04,.21-1.41,.59-.38,.38-.59,.88-.59,1.41s.21,1.04,.59,1.41c.38,.38,.88,.59,1.41,.59ZM42,7.99H26v-2c0-.53-.21-1.04-.59-1.41-.38-.38-.88-.59-1.41-.59s-1.04,.21-1.41,.59c-.38,.38-.59,.88-.59,1.41v2H6c-.53,0-1.04,.21-1.41,.59-.38,.38-.59,.88-.59,1.41V29.99c0,1.59,.63,3.12,1.76,4.24,1.13,1.13,2.65,1.76,4.24,1.76h9.18l-4.6,4.58c-.19,.19-.34,.41-.44,.65-.1,.24-.15,.51-.15,.77s.05,.53,.15,.77c.1,.24,.25,.46,.44,.65,.19,.19,.41,.34,.65,.44s.51,.15,.77,.15,.53-.05,.77-.15c.24-.1,.46-.25,.65-.44l4.58-4.6v3.18c0,.53,.21,1.04,.59,1.41s.88,.59,1.41,.59,1.04-.21,1.41-.59,.59-.88,.59-1.41v-3.18l4.58,4.6c.19,.19,.41,.34,.65,.44,.24,.1,.51,.15,.77,.15s.53-.05,.77-.15c.24-.1,.46-.25,.65-.44,.19-.19,.34-.41,.44-.65,.1-.24,.15-.51,.15-.77s-.05-.53-.15-.77c-.1-.24-.25-.46-.44-.65l-4.6-4.58h9.18c1.59,0,3.12-.63,4.24-1.76,1.13-1.13,1.76-2.65,1.76-4.24V9.99c0-.53-.21-1.04-.59-1.41-.38-.38-.88-.59-1.41-.59Zm-2,22c0,.53-.21,1.04-.59,1.41s-.88,.59-1.41,.59H10c-.53,0-1.04-.21-1.41-.59-.38-.38-.59-.88-.59-1.41V11.99H40V29.99Zm-26-2h12c.53,0,1.04-.21,1.41-.59s.59-.88,.59-1.41-.21-1.04-.59-1.41-.88-.59-1.41-.59H14c-.53,0-1.04,.21-1.41,.59-.38,.38-.59,.88-.59,1.41s.21,1.04,.59,1.41c.38,.38,.88,.59,1.41,.59Z"/></svg>