<svg xmlns="http://www.w3.org/2000/svg" viewBox="0 0 48 48"><path fill="currentColor" d="M38,38c0,.53-.21,1.04-.59,1.41s-.88,.59-1.41,.59H8c-.53,0-1.04-.21-1.41-.59-.38-.38-.59-.88-.59-1.41V18.82l11.76,11.76c1.12,1.12,2.65,1.75,4.24,1.75s3.11-.63,4.24-1.75l.38-.38c-1.21-.63-2.33-1.41-3.33-2.32-.16,.13-.33,.24-.52,.31-.24,.1-.51,.15-.77,.15s-.53-.05-.77-.15c-.24-.1-.46-.25-.65-.44l-11.76-11.76h9.18c0-1.38,.18-2.72,.5-4H8c-1.59,0-3.12,.63-4.24,1.76s-1.76,2.65-1.76,4.24v20c0,1.59,.63,3.12,1.76,4.24,1.13,1.13,2.65,1.76,4.24,1.76h28c1.59,0,3.12-.63,4.24-1.76,1.13-1.13,1.76-2.65,1.76-4.24v-8.14c-1.24,.72-2.58,1.27-4,1.64v6.5ZM29,14c0,1.1,.89,2,2,2h3v3c0,1.1,.89,2,2,2s2-.9,2-2v-7h-7c-1.11,0-2,.9-2,2Zm5-10c-6.62,0-12,5.38-12,12s5.38,12,12,12,12-5.38,12-12-5.38-12-12-12Zm0,20c-4.41,0-8-3.59-8-8s3.59-8,8-8,8,3.59,8,8-3.59,8-8,8Z"/></svg>