<svg xmlns="http://www.w3.org/2000/svg" viewBox="0 0 48 48"><path fill="currentColor" d="M40.42,17.64L28,5.56c-1.05-1-2.45-1.56-3.9-1.56s-2.85,.56-3.9,1.56L7.78,17.56c-.55,.48-1,1.07-1.3,1.74-.31,.67-.47,1.39-.48,2.12v17.16c.02,1.46,.62,2.84,1.66,3.86,1.04,1.02,2.44,1.58,3.9,1.56h24.88c1.46,.02,2.86-.55,3.9-1.56,1.04-1.02,1.64-2.4,1.66-3.86V21.42c0-.7-.14-1.4-.41-2.05-.27-.65-.67-1.24-1.17-1.73ZM22.88,8.44c.31-.28,.71-.43,1.12-.43s.81,.16,1.12,.43l10.88,10.56-10.94,10.56c-.31,.28-.71,.43-1.12,.43s-.81-.16-1.12-.43l-10.82-10.56,10.88-10.56Zm15.12,30.14c-.03,.39-.2,.76-.49,1.02-.29,.26-.67,.41-1.07,.4H11.56c-.39,.01-.78-.13-1.07-.4-.29-.26-.47-.63-.49-1.02v-15.88l8.1,7.8-3.32,3.2c-.37,.37-.58,.88-.58,1.41s.21,1.04,.58,1.41c.19,.2,.41,.35,.66,.46,.25,.11,.51,.16,.78,.16,.51,0,1.01-.2,1.38-.56l3.54-3.4c.88,.54,1.89,.82,2.92,.82s2.04-.28,2.92-.82l3.54,3.4c.37,.36,.87,.56,1.38,.56,.27,0,.54-.06,.78-.16,.25-.11,.47-.26,.66-.46,.37-.37,.58-.88,.58-1.41s-.21-1.04-.58-1.41l-3.34-3.2,8-7.8v15.88Z"/></svg>