<svg xmlns="http://www.w3.org/2000/svg" viewBox="0 0 48 48"><path fill="currentColor" d="M43.41,5.59c-.38-.38-.88-.59-1.41-.59h-10c-.53,0-1.04,.21-1.41,.59-.38,.38-.59,.88-.59,1.41V23c0,.36,.1,.72,.29,1.03,.19,.31,.46,.57,.78,.73,.32,.17,.69,.25,1.05,.22,3.35-.21,6.66-.04,9.88,0,.28,0,.56-.06,.82-.18,.35-.16,.65-.41,.86-.74,.21-.32,.32-.7,.32-1.08V7c0-.53-.21-1.04-.59-1.41Zm-3.41,14.89h-6v-4h6v4Zm0-8h-6v-3.48h6v3.48Zm2,16.52c-.53,0-1.04,.21-1.41,.59-.38,.38-.59,.88-.59,1.41v6c0,.53-.21,1.04-.59,1.41-.38,.38-.88,.59-1.41,.59H10c-.53,0-1.04-.21-1.41-.59-.38-.38-.59-.88-.59-1.41V17.82l11.76,11.78c1.12,1.11,2.63,1.73,4.2,1.74,1,0,1.98-.25,2.86-.72,.23-.13,.44-.3,.6-.5,.17-.21,.29-.44,.36-.69,.07-.25,.1-.52,.07-.78-.03-.26-.11-.52-.23-.75-.13-.23-.3-.44-.5-.6-.2-.17-.44-.29-.69-.36-.25-.07-.52-.1-.78-.07-.26,.03-.52,.11-.75,.23-.37,.19-.79,.26-1.2,.2-.41-.06-.8-.25-1.1-.54L10.82,15h13.18c.53,0,1.04-.21,1.41-.59,.38-.38,.59-.88,.59-1.41s-.21-1.04-.59-1.41c-.38-.38-.88-.59-1.41-.59H10c-1.59,0-3.12,.63-4.24,1.76-1.13,1.13-1.76,2.65-1.76,4.24v20c0,1.59,.63,3.12,1.76,4.24s2.65,1.76,4.24,1.76h28c1.59,0,3.12-.63,4.24-1.76,1.13-1.13,1.76-2.65,1.76-4.24v-6c0-.53-.21-1.04-.59-1.41-.38-.38-.88-.59-1.41-.59Z"/></svg>