<svg xmlns="http://www.w3.org/2000/svg" viewBox="0 0 48 48"><path fill="currentColor" d="M27.28,17.94l-.58,3.46c-.1,.58-.03,1.18,.2,1.72,.23,.54,.61,1.01,1.09,1.34,.45,.33,.99,.52,1.55,.56,.56,.03,1.12-.1,1.61-.38l2.84-1.62,2.88,1.58c.48,.27,1.03,.41,1.58,.38,.55-.02,1.09-.21,1.54-.52,.47-.34,.84-.8,1.06-1.33,.22-.53,.29-1.12,.2-1.69l-.58-3.46,2.4-2.44c.4-.4,.67-.91,.8-1.46,.13-.55,.1-1.12-.07-1.66-.18-.54-.5-1.01-.92-1.38-.43-.37-.95-.61-1.51-.7l-3.24-.48-1.46-3.1c-.24-.52-.63-.96-1.11-1.26-.48-.31-1.04-.47-1.61-.47s-1.13,.16-1.61,.47-.87,.75-1.11,1.26l-1.46,3.1-3.24,.48c-.56,.09-1.08,.33-1.51,.7-.43,.37-.75,.85-.92,1.38-.18,.54-.2,1.11-.07,1.66,.13,.55,.41,1.05,.8,1.46l2.44,2.4Zm3.66-4.26c.49-.07,.95-.27,1.35-.56,.4-.3,.72-.69,.93-1.14l.78-1.66,.78,1.66c.21,.45,.53,.84,.93,1.14,.4,.3,.86,.5,1.35,.58l2,.28-1.46,1.48c-.34,.35-.59,.78-.74,1.24-.15,.47-.18,.96-.1,1.44l.32,2-1.58-.86c-.44-.25-.94-.37-1.44-.37s-1,.13-1.44,.37l-1.58,.86,.32-2c.08-.48,.04-.97-.1-1.43-.15-.46-.4-.88-.74-1.23l-1.46-1.5,1.88-.3Zm11.06,15.3c-.53,0-1.04,.21-1.41,.59-.38,.38-.59,.88-.59,1.41v6c0,.53-.21,1.04-.59,1.41-.38,.38-.88,.59-1.41,.59H10c-.53,0-1.04-.21-1.41-.59-.38-.38-.59-.88-.59-1.41V17.8l11.76,11.76c.55,.56,1.2,1,1.92,1.3,.72,.3,1.5,.46,2.28,.46h.54c.53-.05,1.02-.3,1.36-.7,.34-.4,.51-.93,.46-1.46-.02-.26-.1-.52-.22-.75-.12-.23-.29-.44-.49-.61-.2-.17-.44-.3-.69-.37-.25-.08-.52-.11-.78-.08-.28,.03-.57,0-.83-.1-.27-.1-.51-.25-.71-.46L10.82,14.98h7.18c.53,0,1.04-.21,1.41-.59,.38-.38,.59-.88,.59-1.41s-.21-1.04-.59-1.41-.88-.59-1.41-.59H10c-1.59,0-3.12,.63-4.24,1.76-1.13,1.13-1.76,2.65-1.76,4.24v20c0,1.59,.63,3.12,1.76,4.24s2.65,1.76,4.24,1.76h28c1.59,0,3.12-.63,4.24-1.76,1.13-1.13,1.76-2.65,1.76-4.24v-6c0-.53-.21-1.04-.59-1.41-.38-.38-.88-.59-1.41-.59Z"/></svg>