<svg xmlns="http://www.w3.org/2000/svg" viewBox="0 0 48 48"><path fill="currentColor" d="M38,8H10c-1.59,0-3.12,.63-4.24,1.76-1.13,1.13-1.76,2.65-1.76,4.24v20c0,1.59,.63,3.12,1.76,4.24,1.13,1.13,2.65,1.76,4.24,1.76h28c1.59,0,3.12-.63,4.24-1.76,1.13-1.13,1.76-2.65,1.76-4.24V14c0-1.59-.63-3.12-1.76-4.24-1.13-1.13-2.65-1.76-4.24-1.76Zm-.82,4l-11.76,11.76c-.19,.19-.41,.34-.65,.44-.24,.1-.51,.15-.77,.15s-.53-.05-.77-.15c-.24-.1-.46-.25-.65-.44L10.82,12h26.36Zm2.82,22c0,.53-.21,1.04-.59,1.41s-.88,.59-1.41,.59H10c-.53,0-1.04-.21-1.41-.59-.38-.38-.59-.88-.59-1.41V14.82l11.76,11.76c1.12,1.12,2.65,1.75,4.24,1.75s3.11-.63,4.24-1.75l11.76-11.76v19.18Z"/></svg>