<svg xmlns="http://www.w3.org/2000/svg" viewBox="0 0 48 48"><path fill="currentColor" d="M29.13,12.77c.1,.24,.25,.46,.44,.65s.41,.34,.65,.44c.24,.1,.51,.15,.77,.15s.53-.05,.77-.15c.24-.1,.46-.25,.65-.44l2.58-2.6v11.18c0,.53,.21,1.04,.59,1.41s.88,.59,1.41,.59,1.04-.21,1.41-.59,.59-.88,.59-1.41V10.82l2.58,2.6c.19,.19,.41,.33,.65,.44,.24,.1,.5,.15,.77,.15,.53,0,1.04-.21,1.42-.59,.19-.19,.33-.41,.44-.65,.1-.24,.15-.5,.15-.77,0-.53-.21-1.04-.59-1.42l-6-6c-.19-.18-.41-.32-.66-.42-.24-.11-.5-.16-.76-.16s-.52,.05-.76,.16c-.25,.1-.47,.24-.66,.42l-6,6c-.19,.19-.34,.41-.44,.65s-.15,.51-.15,.77,.05,.53,.15,.77Zm11.86,15.23c-.53,0-1.04,.21-1.41,.59s-.59,.88-.59,1.41v8c0,.53-.21,1.04-.59,1.41s-.88,.59-1.41,.59H9c-.53,0-1.04-.21-1.41-.59-.38-.38-.59-.88-.59-1.41V18.82l11.76,11.78c1.12,1.12,2.65,1.75,4.24,1.75s3.11-.63,4.24-1.75l3.28-3.28c.38-.38,.59-.89,.59-1.42s-.21-1.04-.59-1.42c-.38-.38-.89-.59-1.42-.59s-1.04,.21-1.42,.59l-3.28,3.28c-.37,.37-.88,.57-1.4,.57s-1.03-.21-1.4-.57l-11.78-11.76h13.18c.53,0,1.04-.21,1.41-.59s.59-.88,.59-1.41-.21-1.04-.59-1.41-.88-.59-1.41-.59H9c-1.59,0-3.12,.63-4.24,1.76s-1.76,2.65-1.76,4.24v20c0,1.59,.63,3.12,1.76,4.24s2.65,1.76,4.24,1.76h28c1.59,0,3.12-.63,4.24-1.76,1.13-1.13,1.76-2.65,1.76-4.24v-8c0-.53-.21-1.04-.59-1.41s-.88-.59-1.41-.59Z"/></svg>