<svg xmlns="http://www.w3.org/2000/svg" viewBox="0 0 48 48"><path fill="currentColor" d="M41,27c-.53,0-1.04,.21-1.41,.59s-.59,.88-.59,1.41v8c0,.53-.21,1.04-.59,1.41-.38,.38-.88,.59-1.41,.59H9c-.53,0-1.04-.21-1.41-.59-.38-.38-.59-.88-.59-1.41V17.82l11.76,11.76c1.12,1.12,2.64,1.75,4.22,1.76,.81,0,1.6-.16,2.35-.47,.74-.31,1.41-.77,1.97-1.35,.36-.37,.56-.87,.56-1.39s-.2-1.02-.56-1.39c-.19-.19-.41-.34-.65-.45-.25-.1-.51-.16-.78-.16s-.53,.05-.78,.16c-.25,.1-.47,.25-.65,.45-.37,.37-.88,.57-1.4,.57s-1.03-.21-1.4-.57L9.82,15h9.18c.53,0,1.04-.21,1.41-.59,.38-.38,.59-.88,.59-1.41s-.21-1.04-.59-1.41c-.38-.38-.88-.59-1.41-.59H9c-1.59,0-3.12,.63-4.24,1.76-1.13,1.13-1.76,2.65-1.76,4.24v20c0,1.59,.63,3.12,1.76,4.24,1.13,1.13,2.65,1.76,4.24,1.76h28c1.59,0,3.12-.63,4.24-1.76,1.13-1.13,1.76-2.65,1.76-4.24v-8c0-.53-.21-1.04-.59-1.41s-.88-.59-1.41-.59Zm2-22c-.53,0-1.04,.21-1.41,.59-.38,.38-.59,.88-.59,1.41-1.27-.95-2.74-1.59-4.3-1.86-1.56-.27-3.16-.16-4.68,.31-1.51,.47-2.89,1.3-4.02,2.41-1.13,1.11-1.98,2.47-2.48,3.98-.5,1.5-.64,3.1-.4,4.67,.24,1.57,.85,3.05,1.77,4.34,.93,1.29,2.15,2.33,3.56,3.05,1.41,.72,2.97,1.1,4.56,1.1,2.43,0,4.78-.91,6.6-2.52,.4-.35,.65-.84,.68-1.38,.04-.53-.14-1.05-.49-1.45-.35-.4-.85-.65-1.38-.68-.53-.04-1.05,.14-1.45,.49-.89,.79-1.99,1.29-3.16,1.45-1.17,.16-2.37-.03-3.44-.55-1.07-.52-1.96-1.34-2.56-2.36-.6-1.02-.88-2.2-.81-3.39,.07-1.18,.49-2.32,1.2-3.27,.72-.95,1.7-1.66,2.82-2.05,1.12-.39,2.33-.44,3.48-.14,1.15,.3,2.18,.93,2.97,1.82h-2.46c-.53,0-1.04,.21-1.41,.59-.38,.38-.59,.88-.59,1.41s.21,1.04,.59,1.41c.38,.38,.88,.59,1.41,.59h6c.53,0,1.04-.21,1.41-.59,.38-.38,.59-.88,.59-1.41V6.98c0-.53-.22-1.03-.59-1.4-.37-.37-.88-.58-1.41-.58Z"/></svg>