<svg xmlns="http://www.w3.org/2000/svg" viewBox="0 0 48 48"><path fill="currentColor" d="M14.6,10.48h19.46c1.1,0,2-.9,2-2s-.9-2-2-2H14.6c-1.1,0-2,.9-2,2s.88,2,2,2Zm0,7.24h19.46c1.1,0,2-.9,2-2s-.9-2-2-2H14.6c-1.1,0-2,.9-2,2s.88,2,2,2Zm0,7.24h19.46c1.1,0,2-.9,2-2s-.9-2-2-2H14.6c-1.1,0-2,.9-2,2s.88,2,2,2Zm25.38-6.1v15.9c0,1.1-.54,1.8-1.96,1.8H10.1c-1.02,0-1.98-.18-1.98-1.94v-15.76c-2.64-.1-4.12,1.06-4.12,3.66v15.18c0,2.6,1.38,3.82,4.42,3.82h31.46c3.5,0,4.12-1.96,4.12-4v-15.28c0-1.18-.32-3.38-4.02-3.38Zm-25.38,13.32h19.46c1.1,0,2-.9,2-2s-.9-2-2-2H14.6c-1.1,0-2,.9-2,2s.88,2,2,2Z"/></svg>