<svg xmlns="http://www.w3.org/2000/svg" viewBox="0 0 48 48"><path fill="currentColor" d="M32.37,17.09c.19,.19,.41,.34,.65,.44,.24,.1,.51,.15,.77,.15s.53-.05,.77-.15c.24-.1,.46-.25,.65-.44l8-8c.38-.38,.59-.89,.59-1.42s-.21-1.04-.59-1.42c-.38-.38-.89-.59-1.42-.59s-1.04,.21-1.42,.59l-6.58,6.6-2.58-2.6c-.19-.19-.41-.33-.65-.44-.24-.1-.5-.15-.77-.15-.53,0-1.04,.21-1.42,.59-.19,.19-.33,.41-.44,.65-.1,.24-.15,.5-.15,.77,0,.53,.21,1.04,.59,1.42l4,4Zm9.42-1.42c-.53,0-1.04,.21-1.41,.59-.37,.38-.59,.88-.59,1.41v18c0,.53-.21,1.04-.59,1.41-.37,.38-.88,.59-1.41,.59H9.79c-.53,0-1.04-.21-1.41-.59-.37-.37-.59-.88-.59-1.41V16.49l11.76,11.78c1.12,1.11,2.64,1.74,4.22,1.74,1.62,0,3.17-.65,4.32-1.8l3.44-3.44c.38-.38,.59-.89,.59-1.42s-.21-1.04-.59-1.42c-.38-.38-.89-.59-1.42-.59s-1.04,.21-1.42,.59l-3.5,3.5c-.37,.37-.88,.57-1.4,.57s-1.03-.21-1.4-.57L10.61,13.67h11.18c.53,0,1.04-.21,1.41-.59,.37-.38,.59-.88,.59-1.41s-.21-1.04-.59-1.41c-.37-.38-.88-.59-1.41-.59H9.79c-1.59,0-3.12,.63-4.24,1.76s-1.76,2.65-1.76,4.24v20c0,1.59,.63,3.12,1.76,4.24,1.12,1.12,2.65,1.76,4.24,1.76h27.99c1.59,0,3.12-.63,4.24-1.76s1.76-2.65,1.76-4.24V17.67c0-.53-.21-1.04-.59-1.41-.37-.38-.88-.59-1.41-.59Z"/></svg>