<svg xmlns="http://www.w3.org/2000/svg" viewBox="0 0 48 48"><path fill="currentColor" d="M4.6,16.6H43.4c1,0,1.8-.8,1.8-1.8V3.5c0-1-.8-1.8-1.8-1.8H4.6c-1,0-1.8,.8-1.8,1.8V14.9c0,1,.8,1.8,1.8,1.8ZM37.9,7.9h-1.2l-2.1-1.3c-.4-.3-1-.3-1.4,0l-2.4,1.3-2.7-2.4s0,0,0,0h13.6v7.9H23.2c.4,0,.7-.2,.9-.5l3.2-4.2,2.4,2.1c.4,.4,1.1,.5,1.6,.2l2.5-1.3,1.7,1.1c.2,.1,.5,.2,.8,.2h1.7c.8,0,1.4-.6,1.4-1.4s-.6-1.4-1.4-1.4ZM6.4,5.3H26.3c0,0-.2,.2-.3,.3l-3.3,4.2-3.1-2.6c-.5-.4-1.2-.4-1.7,0l-1.5,1h-5.8c-.8,0-1.4,.6-1.4,1.4s.6,1.4,1.4,1.4h6.2c.3,0,.6,0,.8-.2l.9-.6,3.4,2.9c.2,.2,.5,.3,.8,.3H6.4V5.3ZM44,42.7h-13.8v-4.3c0-1-.8-1.8-1.8-1.8h-2.7v-2.7h17.6c1,0,1.8-.8,1.8-1.8v-11.4c0-1-.8-1.8-1.8-1.8H4.6c-1,0-1.8,.8-1.8,1.8v11.4c0,1,.8,1.8,1.8,1.8H22.2v2.7h-2.7c-1,0-1.8,.8-1.8,1.8v4.3H4c-1,0-1.8,.8-1.8,1.8s.8,1.8,1.8,1.8H44c1,0,1.8-.8,1.8-1.8s-.8-1.8-1.8-1.8Zm-6.1-17.5h-1.2l-2.1-1.3c-.4-.3-1-.3-1.4,0l-2.4,1.3-2.7-2.4s0,0,0,0h13.6v7.9H23.2c.4,0,.7-.2,.9-.5l3.2-4.2,2.4,2.1c.4,.4,1.1,.5,1.6,.2l2.5-1.3,1.7,1.1c.2,.1,.5,.2,.8,.2h1.7c.8,0,1.4-.6,1.4-1.4s-.6-1.4-1.4-1.4ZM6.4,30.5v-7.9H26.3c0,0-.2,.2-.3,.3l-3.3,4.2-3.1-2.6c-.5-.4-1.2-.4-1.7,0l-1.5,1h-5.8c-.8,0-1.4,.6-1.4,1.4s.6,1.4,1.4,1.4h6.2c.3,0,.6,0,.8-.2l.9-.6,3.4,2.9c.2,.2,.5,.3,.8,.3H6.4Zm20.4,12.3h-5.5v-2.5h5.5v2.5Z"/></svg>