<svg xmlns="http://www.w3.org/2000/svg" viewBox="0 0 48 48"><path fill="currentColor" d="M4.6 16.6H43.4C44.4 16.6 45.2 15.8 45.2 14.8V3.49995C45.2 2.49995 44.4 1.69995 43.4 1.69995H4.6C3.6 1.69995 2.8 2.49995 2.8 3.49995V14.9C2.8 15.9 3.6 16.7 4.6 16.7V16.6ZM37.9 7.89995H36.7L34.6 6.59995C34.2 6.29995 33.6 6.29995 33.2 6.59995L30.8 7.89995L28.1 5.49995H41.7V13.4H23.2C23.6 13.4 23.9 13.2 24.1 12.9L27.3 8.69995L29.7 10.8C30.1 11.2 30.8 11.3 31.3 11L33.8 9.69995L35.5 10.8C35.7 10.9 36 11 36.3 11H38C38.8 11 39.4 10.4 39.4 9.59995C39.4 8.79995 38.8 8.19995 38 8.19995L37.9 7.89995ZM6.4 5.29995H26.3C26.3 5.29995 26.1 5.49995 26 5.59995L22.7 9.79995L19.6 7.19995C19.1 6.79995 18.4 6.79995 17.9 7.19995L16.4 8.19995H10.6C9.8 8.19995 9.2 8.79995 9.2 9.59995C9.2 10.4 9.8 11 10.6 11H16.8C17.1 11 17.4 11 17.6 10.8L18.5 10.2L21.9 13.1C22.1 13.3 22.4 13.4 22.7 13.4H6.4V5.29995ZM44 42.7H30.2V38.4C30.2 37.4 29.4 36.5999 28.4 36.5999H25.7V33.9H43.3C44.3 33.9 45.1 33.0999 45.1 32.0999V20.7C45.1 19.7 44.3 18.9 43.3 18.9H4.6C3.6 18.9 2.8 19.7 2.8 20.7V32.0999C2.8 33.0999 3.6 33.9 4.6 33.9H22.2V36.5999H19.5C18.5 36.5999 17.7 37.4 17.7 38.4V42.7H4C3 42.7 2.2 43.5 2.2 44.5C2.2 45.5 3 46.2999 4 46.2999H44C45 46.2999 45.8 45.5 45.8 44.5C45.8 43.5 45 42.7 44 42.7ZM37.9 25.2H36.7L34.6 23.9C34.2 23.6 33.6 23.6 33.2 23.9L30.8 25.2L28.1 22.7999H41.7V30.7H23.2C23.6 30.7 23.9 30.5 24.1 30.2L27.3 26L29.7 28.1C30.1 28.5 30.8 28.5999 31.3 28.2999L33.8 27L35.5 28.1C35.7 28.2 36 28.2999 36.3 28.2999H38C38.8 28.2999 39.4 27.7 39.4 26.9C39.4 26.1 38.8 25.5 38 25.5L37.9 25.2ZM6.4 30.5V22.6H26.3C26.3 22.6 26.1 22.8 26 22.9L22.7 27.1L19.6 24.5C19.1 24.1 18.4 24.1 17.9 24.5L16.4 25.5H10.6C9.8 25.5 9.2 26.1 9.2 26.9C9.2 27.7 9.8 28.2999 10.6 28.2999H16.8C17.1 28.2999 17.4 28.3 17.6 28.1L18.5 27.5L21.9 30.4C22.1 30.6 22.4 30.7 22.7 30.7H6.4V30.5ZM26.8 42.7999H21.3V40.2999H26.8V42.7999Z"/></svg>