<svg xmlns="http://www.w3.org/2000/svg" viewBox="0 0 48 48"><path fill="currentColor" d="M33.3947 6.34706C33.3947 5.91498 33.745 5.56471 34.177 5.56471C34.6091 5.56471 34.9594 5.91498 34.9594 6.34706C34.9594 7.67095 36.5601 8.33407 37.4963 7.39788C37.8018 7.09235 38.2971 7.09235 38.6027 7.39788C38.9082 7.70341 38.9082 8.19876 38.6027 8.50429C37.6664 9.44052 38.3296 11.0412 39.6535 11.0412C40.0856 11.0412 40.4359 11.3914 40.4359 11.8235C40.4359 12.2556 40.0856 12.6059 39.6535 12.6059C38.3295 12.6059 37.6666 14.2066 38.6027 15.1428C38.9082 15.4483 38.9082 15.9437 38.6027 16.2492C38.2972 16.5547 37.8018 16.5547 37.4963 16.2492C36.5601 15.313 34.9594 15.976 34.9594 17.3C34.9594 17.7321 34.6091 18.0824 34.177 18.0824C33.745 18.0824 33.3947 17.7321 33.3947 17.3C33.3947 15.976 31.7939 15.313 30.8578 16.2492C30.5522 16.5547 30.0569 16.5547 29.7514 16.2492C29.4458 15.9437 29.4458 15.4483 29.7514 15.1428C30.6875 14.2067 30.0246 12.6059 28.7006 12.6059C28.2685 12.6059 27.9182 12.2556 27.9182 11.8235C27.9182 11.3914 28.2685 11.0412 28.7006 11.0412C30.0245 11.0412 30.6876 9.44048 29.7514 8.50428C29.4459 8.19875 29.4459 7.70339 29.7514 7.39787C30.0569 7.09234 30.5523 7.09234 30.8578 7.39787C31.794 8.33403 33.3947 7.671 33.3947 6.34706ZM34.177 4C32.9395 4 31.9256 4.95784 31.8364 6.17262C30.9143 5.37675 29.5201 5.41636 28.645 6.29145C27.7699 7.16655 27.7303 8.56076 28.5262 9.48285C27.3114 9.57208 26.3535 10.5859 26.3535 11.8235C26.3535 13.0611 27.3113 14.075 28.5261 14.1642C27.7302 15.0863 27.7698 16.4805 28.6449 17.3556C29.5201 18.2307 30.9143 18.2703 31.8364 17.4744C31.9256 18.6892 32.9395 19.6471 34.177 19.6471C35.4146 19.6471 36.4285 18.6892 36.5177 17.4744C37.4398 18.2703 38.834 18.2307 39.7091 17.3556C40.5842 16.4805 40.6238 15.0863 39.828 14.1642C41.0427 14.075 42.0006 13.0611 42.0006 11.8235C42.0006 10.5859 41.0427 9.57208 39.8279 9.48285C40.6238 8.56076 40.5842 7.16656 39.7091 6.29146C38.834 5.41637 37.4398 5.37676 36.5177 6.17262C36.4285 4.95784 35.4146 4 34.177 4ZM33.0706 10.7171C33.3641 10.4237 33.7621 10.2588 34.177 10.2588C34.592 10.2588 34.99 10.4237 35.2835 10.7171C35.5769 11.0106 35.7417 11.4085 35.7417 11.8235C35.7417 12.2385 35.5769 12.6365 35.2835 12.9299C34.99 13.2234 34.592 13.3882 34.177 13.3882C33.7621 13.3882 33.3641 13.2234 33.0706 12.9299C32.7772 12.6365 32.6123 12.2385 32.6123 11.8235C32.6123 11.4085 32.7772 11.0106 33.0706 10.7171ZM34.177 8.69412C33.3471 8.69412 32.5511 9.02382 31.9642 9.6107C31.3773 10.1976 31.0476 10.9936 31.0476 11.8235C31.0476 12.6535 31.3773 13.4495 31.9642 14.0364C32.5511 14.6232 33.3471 14.9529 34.177 14.9529C35.007 14.9529 35.803 14.6232 36.3899 14.0364C36.9767 13.4495 37.3065 12.6535 37.3065 11.8235C37.3065 10.9936 36.9767 10.1976 36.3899 9.6107C35.803 9.02382 35.007 8.69412 34.177 8.69412ZM16.6 20.2C16.6 19.4268 17.2268 18.8 18 18.8C18.7732 18.8 19.4 19.4268 19.4 20.2C19.4 22.5691 22.2643 23.7557 23.9396 22.0804C24.4864 21.5337 25.3728 21.5337 25.9195 22.0804C26.4663 22.6271 26.4663 23.5136 25.9195 24.0603C24.2442 25.7357 25.431 28.6 27.8 28.6C28.5732 28.6 29.2 29.2268 29.2 30C29.2 30.7732 28.5732 31.4 27.8 31.4C25.4308 31.4 24.2444 34.2645 25.9196 35.9397C26.4664 36.4864 26.4664 37.3728 25.9196 37.9196C25.3729 38.4663 24.4865 38.4663 23.9397 37.9196C22.2645 36.2443 19.4 37.4308 19.4 39.8C19.4 40.5732 18.7732 41.2 18 41.2C17.2268 41.2 16.6 40.5732 16.6 39.8C16.6 37.4307 13.7355 36.2444 12.0602 37.9196C11.5135 38.4663 10.6271 38.4663 10.0803 37.9196C9.53361 37.3729 9.53361 36.4864 10.0803 35.9397C11.7555 34.2646 10.5693 31.4 8.2 31.4C7.4268 31.4 6.8 30.7732 6.8 30C6.8 29.2268 7.4268 28.6 8.2 28.6C10.5691 28.6 11.7558 25.7356 10.0804 24.0603C9.5337 23.5136 9.5337 22.6271 10.0804 22.0804C10.6272 21.5337 11.5136 21.5337 12.0603 22.0804C13.7356 23.7556 16.6 22.5692 16.6 20.2ZM18 16C15.7854 16 13.9711 17.714 13.8114 19.8878C12.1614 18.4636 9.6665 18.5345 8.10054 20.1005C6.53457 21.6665 6.4637 24.1614 7.88792 25.8114C5.71407 25.9711 4 27.7854 4 30C4 32.2146 5.71402 34.0289 7.88783 34.1886C6.46361 35.8386 6.53448 38.3335 8.10045 39.8995C9.66643 41.4655 12.1614 41.5364 13.8114 40.1121C13.9711 42.2859 15.7854 44 18 44C20.2146 44 22.0289 42.2859 22.1886 40.1121C23.8386 41.5363 26.3336 41.4655 27.8995 39.8995C29.4655 38.3335 29.5364 35.8386 28.1122 34.1886C30.286 34.0289 32 32.2146 32 30C32 27.7854 30.2859 25.9711 28.1121 25.8114C29.5363 24.1614 29.4654 21.6665 27.8994 20.1005C26.3335 18.5346 23.8386 18.4637 22.1886 19.8878C22.0289 17.714 20.2146 16 18 16ZM16.0201 28.0201C16.5452 27.495 17.2574 27.2 18 27.2C18.7426 27.2 19.4548 27.495 19.9799 28.0201C20.505 28.5452 20.8 29.2574 20.8 30C20.8 30.7426 20.505 31.4548 19.9799 31.9799C19.4548 32.505 18.7426 32.8 18 32.8C17.2574 32.8 16.5452 32.505 16.0201 31.9799C15.495 31.4548 15.2 30.7426 15.2 30C15.2 29.2574 15.495 28.5452 16.0201 28.0201ZM18 24.4C16.5148 24.4 15.0904 24.99 14.0402 26.0402C12.99 27.0904 12.4 28.5148 12.4 30C12.4 31.4852 12.99 32.9096 14.0402 33.9598C15.0904 35.01 16.5148 35.6 18 35.6C19.4852 35.6 20.9096 35.01 21.9598 33.9598C23.01 32.9096 23.6 31.4852 23.6 30C23.6 28.5148 23.01 27.0904 21.9598 26.0402C20.9096 24.99 19.4852 24.4 18 24.4Z"/></svg>