<svg data-name="Layer 1" xmlns="http://www.w3.org/2000/svg" viewBox="0 0 512 512"><path d="M506 103.22h-27.78V33.78H33.78v69.44H6V33.78A27.86 27.86 0 0133.78 6h444.44A27.86 27.86 0 01506 33.78zM478.22 506H33.78A27.86 27.86 0 016 478.22v-69.44h27.78v69.44h444.44v-69.44H506v69.44A27.86 27.86 0 01478.22 506z" fill="#2979ff"/><path d="M422.67 381H89.34c-8.34 0-13.89-5.55-13.89-13.89V144.89c0-8.33 5.55-13.89 13.89-13.89h333.33c8.33 0 13.89 5.56 13.89 13.89v222.22c0 8.34-5.56 13.89-13.89 13.89z" fill="#03a9f4"/><path d="M436.56 161.55L272.67 279.61a27.12 27.12 0 01-32 0L75.45 161.55v34.73l148.61 105.55c9.72 6.95 20.83 9.72 31.94 9.72s22.22-2.77 31.95-9.72l148.61-106.94z" fill="#0288d1"/></svg>