<svg data-name="Layer 1" xmlns="http://www.w3.org/2000/svg" viewBox="0 0 512 512"><path d="M440.75 68.42c-3.35-7.09-13.19-17.51-22.83-24.1-25.05-17.41-64.3-30-112.7-36.2-10.72-1.47-72-2.75-80.67-1.78-1.87.21-8.27.89-14.26 1.38-45.55 4.34-91.1 18.2-116.87 35.61-9 6.1-18.59 16-22 22.92l-2.85 5.86v366l2.85 5.7c5.9 12.19 19.8 23.7 40.86 34.19 65.61 32.66 182.61 37.37 263 10.62 33.64-11.12 57.34-26.75 65.21-42.79l2.85-5.8V74.13zm-73.07 27.4q-35.4 16.62-102.6 17.85c-45.9.89-80.08-3.25-108.89-13.19-32.37-11.21-42.5-25.77-27.75-40.12 15.45-15 52.33-24.7 107.91-28.44 9.05-.59 46 .3 58 1.42 29.9 2.87 56.85 9.06 74.46 17.32 28.48 13.34 27.99 31.48-1.13 45.16z" fill="#0079d6"/><path d="M176.48 262.88c-12.79-6-14.07-6.79-16.23-9.55-7.29-9.73 14.56-13 30.89-4.61l3.9 1.95v-26.46l-3.64-1a94.49 94.49 0 00-10.14-2c-13.57-2.15-27.83-.58-37.67 4.17-7 3.41-13.77 10.89-16 17.58-2.16 6.49-1.47 17.41 1.38 22.92 2.86 5.68 10.14 12 17.71 15.44 16.14 7.29 17.11 7.87 18.39 10.92 4.67 11-12.19 12.89-30.49 3.25-3.25-1.68-6.09-3.15-6.59-3.35s-.79 5.91-.79 13.48c0 15.84-.6 14.85 10.14 17.31 10.32 2.37 24.68 2.86 32.95 1.09 20.16-4.23 30.2-14.66 30.2-31.09-.13-13.49-6.96-22.07-24.01-30.05zm212.2 48.51l-.31-12-17.4-.3-17.52-.2v-76.72h-30.53v101.32H389zM302 337.56c-6.56-5.6-14-11.8-16.32-13.86l-4.33-3.7 4.42-2.66c6.11-3.54 13.87-12.29 17.51-19.68 3.94-8.07 6.21-20.56 5.42-29.9-2.07-24.49-16.11-41.32-38.57-46-17.61-3.78-34.42.68-46.91 12.41-6.4 5.92-10.73 13-14 22.53-2.85 8.36-2.65 26.85.39 35.7 6 17.22 21.21 29.32 40.74 32.57 2.94.58 5.31 2.55 14.56 12.39l11 11.81H295c10.53 0 19-.38 19-.79s-5.43-5.21-12-10.82zm-37.42-40.7c-6.88 3.34-12.58 2.35-18-3.35-4.93-5-6.69-11.11-6.5-22.33.2-11.82 5.12-21.17 12.6-23.43 13.57-4 23 6.2 23 24.91.03 13.58-3.03 20.17-11.1 24.2z" fill="#fff"/></svg>