<svg data-name="Layer 1" xmlns="http://www.w3.org/2000/svg" viewBox="0 0 512 512"><path d="M329.27 302.78v76.63a1.79 1.79 0 001.08 1.73 1.31 1.31 0 00.94.26 2.69 2.69 0 001.07-.13l67.05-38.51a2.08 2.08 0 001.07-1.73V264.4a2.1 2.1 0 00-1.07-1.86 2.62 2.62 0 00-2 0l-67 38.51a2.08 2.08 0 00-1.14 1.73zm-18 78.36a1.46 1.46 0 001.07.26 2.35 2.35 0 00.94-.13 2.12 2.12 0 001.07-1.87v-77.16a2.07 2.07 0 00-1.07-1.73l-67-38.38a2.08 2.08 0 00-2.15 0 1.9 1.9 0 00-.94 1.73V341a2.27 2.27 0 00.94 1.73zM253.66 248.8L321 287.44a3 3 0 001.07.27 1.89 1.89 0 00.94-.27l66.9-38.38a1.78 1.78 0 001.08-1.73 2.08 2.08 0 00-1.08-1.73l-67.31-38.52a1.83 1.83 0 00-2 0l-66.9 38.25a1.91 1.91 0 00-.94 1.73 1.69 1.69 0 00.9 1.74zm229.28-93.14h-34.6v-53.31c0-11.46-11.66-21.59-23.06-21.59h-37V27.59C388.41 16.12 376.74 6 365.21 6H26.78C15.25 6 6 16.26 6 27.59v234.27c0 11.33 9.25 21.46 20.78 21.46h39.29v53.31c0 11.32 9.25 21.45 20.78 21.45h36.87v53.44c0 11.32 9.25 21.45 20.66 21.45H267.6c12.47 43.85-4.29 50.11-77.77 50.11V506h249.93v-22.92c-73.48 0-80.72-6.26-68.11-50.11h111.29c11.39 0 23.06-10.13 23.06-21.45V177.24c0-11.32-11.66-21.58-23.06-21.58zM66.07 102.35v151.79H35V35.19l324.35-.4v46H242.79L201.9 57.31a2.6 2.6 0 00-2 0L159 80.76H86.85c-11.53 0-20.78 10.13-20.78 21.59zm57.65 74.89v151.65H95V109.94l324.21-.4v46.11H303.13L262 132.07a1.83 1.83 0 00-2 0l-41.3 23.59h-74.32c-11.38 0-20.66 10.26-20.66 21.58zM480 403.79H155.64V185l324.36-.56z" fill="#0078d7" data-name="A"/></svg>