<svg data-name="Layer 1" xmlns="http://www.w3.org/2000/svg" viewBox="0 0 512 512"><path d="M256 201.22A52.79 52.79 0 10308.79 254 53.13 53.13 0 00256 201.22zm236.06 21.91L288.87 19.94A46.88 46.88 0 00256 6c-12.95 0-23.91 5-32.87 13.94L19.94 223.13A46.88 46.88 0 006 256c0 12.95 5 23.91 13.94 32.87l203.19 203.19a45.72 45.72 0 0065.74 0l203.19-203.19C501 279.91 506 269 506 256s-5-23.91-13.94-32.87zM461.18 254l-65.74 63.74v-45.8h-69.72a73.51 73.51 0 01-49.8 49.8v46.82c10 7 24.9 21.9 24.9 39.83v.39A44.62 44.62 0 01256 453.21h-.39a44.61 44.61 0 01-44.43-44.82c0-16.93 14.93-32.86 24.9-39.83v-45.82a73.58 73.58 0 01-49.81-49.8h-69.71v46.81L50.82 254l65.74-65.74v45.82h69.72a73.56 73.56 0 0149.8-49.8v-66.72h-45.82L256 51.82l65.74 65.74h-45.82v67.73a73.53 73.53 0 0149.8 49.8h69.72v-46.81L461.18 254z" fill="#0078d7" data-name="A"/></svg>