<svg data-name="Layer 1" xmlns="http://www.w3.org/2000/svg" viewBox="0 0 512 512"><path d="M239.17 212.4a9.83 9.83 0 00-2.79-3.09c-22.26-13.29-44.73-26.24-69.8-40.83 0 25.05 1 47.44-.41 69.67-.85 13.34 3.51 20.32 15.2 26.3 19.72 10.07 38.47 22 59.24 34.13 0-28.8.11-55.5-.18-82.21a9.79 9.79 0 00-1.26-3.97zm17-101.47c-2.55-1.43-7-2.43-9.16-1.2-23.92 13.37-47.57 27.22-72.59 41.69 24.75 14.45 47.76 28 71 41.24 2.37 1.34 6.78 1.53 9 .21 23.09-13.47 45.93-27.35 70.64-42.19-24.38-14.14-46.54-27.11-68.89-39.75zM472 20.4H36.82C15 20.4 6 29.18 6 51q0 155.16.05 310.33c0 22.12 8.6 30.8 30.53 30.8 45.29 0 90.57-.09 135.85.21 4.21 0 10.43 1.42 12.27 4.34 15.3 24.42 3.45 55.32-24.47 60.82-21.48 4.21-43.65 5.68-65.59 6.3-14 .4-11.29 8.73-11.9 16.95-.72 9.29 3.9 10.86 12 10.86q151.34-.28 302.63 0c8.53 0 12.43-2.24 11.38-11.22-.87-7.4 3.17-16.23-10.79-16.5-19.75-.39-39.71-1.7-59.13-5.17-23.08-4.1-31.1-18-26.77-40.88.81-4.32 2.43-8.53 2.89-12.86 1-10 6.29-13.13 16.26-13 47.12.44 94.25.23 141.37.17 23.26 0 33.46-10.32 33.46-33.65V54.74C506 30.66 495.86 20.4 472 20.4zm-1.78 321.32c0 14.6 0 14.6-14.21 14.6H254.9c-67 0-134.07-.23-201 .26-10.9.07-14.55-2.58-14.49-14.08q.51-137 0-274c-.04-10.5 2.93-14.2 13.65-14.2q202.2.35 404.4 0c10.05 0 13 3.24 13 13.4-.41 91.3-.25 182.68-.25 274.02zm-134.55-173.8c-25.47 14.91-48.86 28.43-72 42.39-1.93 1.17-3.24 4.94-3.24 7.53-.24 26.06-.15 52.13-.15 81 19.57-11.37 36.61-22.86 55.05-31.53 16.22-7.62 22.4-17.69 20.78-35.73-1.85-20.27-.44-40.82-.44-63.66z" fill="#0078d7"/></svg>