<svg data-name="Layer 1" xmlns="http://www.w3.org/2000/svg" viewBox="0 0 512 512"><path d="M304.51 341.33c17.12 0 31.26-14.11 31.26-32.88s-14.14-31.23-32.88-31.23c-12.46 0-23.44 7.81-29.73 18.77H88.89c-31.26 0-56.32-26.58-56.32-57.82s25.07-57.8 56.32-57.8h26.57c0-6.3 3.15-12.48 4.66-18.78 1.5-1.5 1.5-4.65 3.14-6.29a74.4 74.4 0 0165.63-39.07c25.07 0 46.88 12.47 61 31.25 7.82-3.14 15.63-6.3 25.07-7.81-17.13-29.73-48.5-48.5-85.94-48.5-42.2 0-78.13 26.58-93.71 64.12h-6.42C43.54 155.3 6 192.83 6 239.69a82.45 82.45 0 0082.89 82.87h185.9c4.65 10.97 15.62 18.77 29.72 18.77zM406 213.1c-18.75-37.53-57.79-64.1-101.49-64.1-54.69 0-100 39.06-111 90.69-26.58 3.14-50 17.12-64.12 37.53h135.9c9.32-12.46 23.44-18.77 39.07-18.77 28.07 0 50 23.44 50 51.51s-23.44 51.51-50 51.51c-15.63 0-29.73-7.81-39.07-18.77H113.82c6.3 43.7 43.69 78.13 87.53 78.13h203.14c56.3 0 101.51-45.34 101.51-103.16S460.68 214.75 406 213.1z" fill="#008cdb"/></svg>