<svg data-name="Layer 1" xmlns="http://www.w3.org/2000/svg" viewBox="0 0 512 512"><path d="M354.36 244.15l-8.36-6.59c-21.51-17.11-62.11-51.36-72.65-61.23-10.09-9.44-12.07-10.54-16.46-8.57-5.48 2.64-41.47 31.39-59.5 47.42l-10.73 9.65 4.17 10.73c5.93 15.15 5.49 38-1.1 52.9-4.17 9.44-4.61 12.29-2.41 14.92 4.39 5.27 39.07 30.51 58.6 42.59l17.84 11 7.47-3.74c10.53-5.27 31.16-4.83 42.57 1.32 10.73 5.49 19.32 15.15 22.84 25.46 2.19 6.82 3.51 7.68 16 10.72 25.9 6.37 49.82 8.78 79.67 7.69l28.8-1.09A246.36 246.36 0 00489.36 341c-4.27-2.18-32.78-21.44-41.5-28.34-7.69-5.92-8.57-6.15-12.08-3.07-7 6.36-19.75 10.31-32.91 10.31-34.24 0-58.82-30.94-51.15-64.3zM180.61 20.93C185.66 29.27 248 96 250 95.11c31.62-14.26 47.63-20.41 64.75-25 18.66-4.83 25.24-5.48 61-5.7l36.93-.2c-22.54-18.47-48.15-33.49-76-43.23C318 14.6 272.19 6 255.51 6s-63.43 8.58-84.28 15.61c-.1 0-.21.09-.32.12 6.02-2.02 8.73-2.27 9.7-.8zM97.65 188.41c1.76-.44 11-1.31 20.63-1.95l17.56-1.1 19.76-18.87c11-10.54 27.65-25.24 37.31-32.92s17.55-14.71 17.55-15.61-8.78-11.85-19.31-24.38c-23.05-27.21-45.84-58.83-44.33-61.24C122.42 44.9 97.31 63.52 76.91 84l-1 16a165.76 165.76 0 002.63 38.19c4.63 25.17 14.56 51.5 19.11 50.22zm405.84 36.65c-1.32-5.25-4.18-18-6.59-28.29-7.69-34.55-24.51-67-47.26-95.14l-21.89 1.2c-36.88 2.19-81.43 14.69-119.4 33.58l-13.83 7L331.39 179c46.53 44.56 44.34 43 54.43 38.85 16.47-7 40.39-1.95 54.62 11.63 13.17 12.29 20.2 36.21 15.14 50.72-2.41 6.82-2.41 6.82 19.32 23.48L496 320c1.86-6.82 3.61-13.77 5.11-21 5.01-23.68 6.11-58.34 2.38-73.94zM398.11 434.19c-17.55-1.53-39.06-4.17-48.06-5.71l-16-3.25-10.14 8.77c-5.27 4.83-13.82 9.87-18.88 11.19-29.4 7.91-59.91-11.85-62.32-40.6-.88-11-1.32-11.63-11.2-16.9-16.89-8.78-48.77-30.28-65.62-44.11l-15.8-12.95-11.63 2.2c-6.16 1.31-14.27 2.63-18 3.07-6.15.44-6.83 1.32-11.63 18-6.59 23-11.41 55.08-11.41 76.37 0 8.68-.79 15.77-1.78 16.59 38.51 31 70.79 46 118.12 55.18 27.87 5.27 53.33 5.27 83 0 45.22-8.09 80.77-24.55 118.3-54.63 4.28-3.43 8.28-7.09 12.26-10.76zM53.53 404.36c-1.75-4.39-1.75-12.29 0-27 2.2-20.19 9.66-57.94 12.08-61.88.65-1.11-2.19-6.37-6.14-11.64a77.15 77.15 0 01-11.42-24.58c-3.51-12.73-3.73-16.89-1.54-29.19 1.32-7.9 4.83-18.88 7.69-24.58l5.48-10.31L54 196.74c-4.6-15.6-5.7-23.05-5.7-47-.13-19.37.29-28.54 4.18-36.84-1.26 1.82-2.76 3.65-3.9 5.46-54.73 86.31-56.27 183.54-4.91 268.26 5.48 9 9.87 17.12 9.87 17.77 0 3.1 1.31 3.29-.01-.03z" fill="#58b4d9"/></svg>