<svg data-name="Layer 1" xmlns="http://www.w3.org/2000/svg" viewBox="0 0 512 512"><path d="M223.3 273.47a9.362 9.362 0 005.11 2.62c.51.43 1.06.8 1.66 1.1 1.38-.91 2.52-2.14 3.31-3.59.28-.83 0-3.86-2.48-3.86-1.64-.84-3.42-1.4-5.25-1.66-2.51-.8-5.22-.8-7.73 0l2.76.28a9.463 9.463 0 002.62 5.11zm99.8-10.63h-5.24c-3.59.55-6.63 2.21-6.63 4.14-.1.96.02 1.94.36 2.85.33.91.87 1.73 1.58 2.4 1.27.28 2.59.28 3.86 0 1.87-.47 3.58-1.42 4.97-2.76l1.1-.83c.64-.4 1.18-.92 1.61-1.54.43-.62.72-1.32.87-2.05 0-2.21-2.48-2.21-2.48-2.21zM440.35 85.32c0-20.86-20.15-39.55-56.73-52.64C349.75 20.56 304.43 13.89 256 13.89s-93.75 6.67-127.62 18.79C91.8 45.77 71.65 64.46 71.65 85.32h-.12v341.24c0 20.32 19.86 38.79 55.92 52.01 33.64 12.33 78.39 19.27 126.06 19.54h2.48c48.44 0 93.78-6.68 127.66-18.8 36.63-13.11 56.81-31.84 56.81-52.75V85.32h-.12zM175.12 369.41c-9.39-3.04-20.15-22.36-29.54-53.84a339.13 339.13 0 01-13.8-61.84 55.136 55.136 0 012.25-27.35 55.232 55.232 0 0115.14-22.89 51.637 51.637 0 0130.37-8.28c12.62.05 25.17 1.91 37.27 5.52a66.496 66.496 0 00-16.01 25.95c-3.86 9.79-6.64 19.97-8.28 30.37-.83 9.18-.83 18.42 0 27.61.13 1.56.13 3.13 0 4.69v4.69l1.1-.83a51.884 51.884 0 00.54 25.9 51.758 51.758 0 0012.99 22.41c-4.14 4.69-11.32 12.7-19.05 22.09-4.42 5.8-8.84 7.18-12.98 5.8zm25.67-82.27v-19.88c2.78-2.02 5.73-3.78 8.84-5.24 4.18-1.99 8.65-3.3 13.25-3.86h5.52c2.9.81 5.56 2.33 7.73 4.42 1.91 2.04 3.08 4.67 3.31 7.45 1.66 3.04 1.66 5.8 1.66 8.28.86 10.2.86 20.45 0 30.65-1.54 5.56-3.48 11.01-5.8 16.29-2.48 6.07-6.35 11.87-6.35 16.57-3.69-.07-7.34-.82-10.77-2.21a29.541 29.541 0 01-9.66-6.9c-3.07-3.61-5.5-7.72-7.18-12.15a60.511 60.511 0 01-1.66-15.46l1.1-3.04v-10.77c.12-1.38.12-2.76 0-4.14zm45.55 70.68a16.82 16.82 0 01-5.52 8.56 46.944 46.944 0 01-10.77 7.18 32.597 32.597 0 01-19.88 0c-2.41-.49-4.68-1.53-6.63-3.04a14.33 14.33 0 017.18-2.76c13.53-2.76 15.46-4.69 20.15-10.49l3.86-4.69c.99-.92 2.25-1.5 3.59-1.66l1.1-1.38a4.16 4.16 0 014.15.56 9.873 9.873 0 012.21 3.57c.48 1.33.66 2.75.55 4.16zm76.2-11.04c-2.1 3.68-2.97 7.94-2.48 12.15-.55 8.28-4.69 42.79-6.63 55.21a28.993 28.993 0 01-8.01 18.22 35.757 35.757 0 01-12.81 7.62c-4.76 1.62-9.8 2.22-14.8 1.76-3.05-.11-6.01-1.07-8.56-2.76a14.927 14.927 0 01-6.63-5.8 180.825 180.825 0 01-6.63-67.36v-6.63h-.55c.26-2.67-.08-5.37-.98-7.9-.91-2.53-2.36-4.83-4.26-6.73a13.685 13.685 0 00-4.84-3.04c-1.81-.67-3.73-.95-5.65-.82 1.1-3.87 3.31-8.83 4.97-13.53 2.62-5.6 4.74-11.42 6.35-17.39 1.02-11.66 1.02-23.4 0-35.06.26-3.05-.08-6.12-1-9.03-.93-2.92-2.42-5.62-4.4-7.95a22.94 22.94 0 00-7.11-5.65c-2.72-1.4-5.69-2.24-8.74-2.48a45.847 45.847 0 00-27.61 6.35c1.12-9.35 3.06-18.59 5.8-27.61a58.058 58.058 0 0120.43-27.61c2.66-1.26 5.44-2.28 8.28-3.04a42.026 42.026 0 0119.33-3.04 72.744 72.744 0 0130.65 6.07 64.679 64.679 0 0118.5 11.6c.62.48 1.18 1.04 1.66 1.66l1.66 1.66 2.76 2.76a87.72 87.72 0 0117.67 31.75c-8.42-1.48-17.1-.02-24.57 4.14-14.36 9.94-8.83 26.23-4.97 37.55l1.1-1.66a147.952 147.952 0 0029.54 49.97 17.326 17.326 0 00-7.45 6.63zm9.11-81.17a169.1 169.1 0 00-2.21 19.05c1.38 3.59 1.38 8.83 1.38 13.53.18 3.04.18 6.08 0 9.11a35.338 35.338 0 01-4.97 17.95l-2.21-3.59c-.83-1.38-1.66-3.31-3.04-5.52l-2.48-4.42a213.11 213.11 0 01-9.66-23.47c-5.52-12.42-8.01-22.64 0-27.61a31.727 31.727 0 0121.81-2.48l1.1-.83c-.45 2.75-.36 5.57.28 8.28zm24.57 94.97a49.662 49.662 0 01-30.37 2.76 29.94 29.94 0 010-8.56 8.26 8.26 0 014.69-3.86 6.1 6.1 0 013.87 0 45.008 45.008 0 0031.2 0l3.86.28c-3.68 4.06-8.2 7.26-13.25 9.39zm6.9-89.73c-7 23.03-16.83 45.1-29.26 65.71l-2.76-3.31c-.05-.64-.05-1.29 0-1.93a46.336 46.336 0 006.9-23.74c0-2.48 1.38-5.52 0-9.94s-1.38-9.39-1.38-12.7c.38-5.84 1.11-11.65 2.21-17.39v-11.6c-.62-8.33-2.9-16.45-6.69-23.89a62.991 62.991 0 00-15.4-19.45 90.69 90.69 0 00-25.12-18.5 71.295 71.295 0 0140.52.89 71.193 71.193 0 0133.47 22.85c6.07 8.01 5.24 26.78-2.48 53.01zm62.34-185.53c0 26.75-69.6 56.55-169.47 56.55S86.52 112.63 86.52 85.32h-.12c0-13.95 17.11-28.07 46.94-38.74 32.32-11.56 75.87-17.93 122.65-17.93s90.33 6.37 122.65 17.93c29.83 10.67 46.94 24.79 46.94 38.74h-.12zm-78.04-29.3c-24.81-5.75-57.73-8.92-92.69-8.92s-67.89 3.2-92.83 9.02c-29.22 6.82-43.42 16.08-43.42 28.31s14.24 21.45 43.53 28.21c24.91 5.75 57.84 8.92 92.71 8.92s67.79-3.18 92.59-8.95c29.2-6.79 43.39-16.08 43.39-28.39s-14.16-21.46-43.3-28.21zm1.06 41.12c-30.52-7.37-62.1-10.7-93.74-9.86-31.23-.7-62.38 2.77-92.43 10.26-25.1-6.19-28.74-12.45-29.05-13.12.32-.71 4.33-7.78 34.02-14.4 23.63-5.27 54.69-8.18 87.45-8.18s63.85 2.87 87.37 8.09c31.01 6.88 33.85 14.26 33.86 14.26-.23 1.39-5.68 7.3-27.49 12.93z" fill="#0078d7" data-name="A"/></svg>