<svg data-name="Layer 1" xmlns="http://www.w3.org/2000/svg" viewBox="0 0 512 512"><path d="M419.41 232.51A165 165 0 11220.2 110.92a.38.38 0 00.34 0 164.34 164.34 0 01198.67 120.53 4.23 4.23 0 00.2 1.06z" fill="#0078d3"/><path d="M74.1 161.38a5.09 5.09 0 01-5.1-5.07 57.79 57.79 0 00-57.71-57.46 5.14 5.14 0 01-2-.32 5 5 0 01-1.72-1.09 5.12 5.12 0 01-1.17-1.67 5.18 5.18 0 010-4A5.08 5.08 0 019.28 89a5 5 0 012-.32A57.7 57.7 0 0069 31.27a5.08 5.08 0 0110.16 0 57.77 57.77 0 0057.64 57.59 5.08 5.08 0 012 .32 5 5 0 011.73 1.09 5.12 5.12 0 011.16 1.67 5.18 5.18 0 010 4A5.1 5.1 0 01136.8 99a57.6 57.6 0 00-57.67 57.36 5.11 5.11 0 01-1.49 3.54 5.06 5.06 0 01-3.54 1.48z" fill="#b8d432"/><path d="M430.19 485.81a3.06 3.06 0 01-1.15-.23 3 3 0 01-1-.65 3.08 3.08 0 01-.64-1 3 3 0 01-.23-1.14 34.5 34.5 0 00-34.56-34.33 3 3 0 01-2.23-.81 2.89 2.89 0 01-.69-1 2.84 2.84 0 01-.25-1.18 2.89 2.89 0 01.25-1.19 3 3 0 01.69-1 3.07 3.07 0 011-.64 2.87 2.87 0 011.2-.17 34.57 34.57 0 0034.56-34.33 3 3 0 01.18-1.2 2.89 2.89 0 01.64-1 3 3 0 011-.7 3 3 0 012.37 0A3.06 3.06 0 01433 407a3 3 0 01.18 1.2 34.45 34.45 0 0034.53 34.33 2.81 2.81 0 011.15.22 2.9 2.9 0 011 .65 3 3 0 01.65 1 3.06 3.06 0 01.23 1.15 3 3 0 01-.89 2.1 3 3 0 01-2.11.89 34.55 34.55 0 00-34.55 34.33 2.92 2.92 0 01-.8 2.08 3 3 0 01-2 .92z" fill="#0078d3"/><path d="M190.87 293.62h-6.61a43.55 43.55 0 00-32.11-52.54h-.1a39.09 39.09 0 00-10.55-1.17H97a165.49 165.49 0 0038.68 141.39h55.13a43.77 43.77 0 0043.93-43.58v-.13A43.86 43.86 0 00191 293.66zm144.51-5.12a37.3 37.3 0 00-37.3 37 36 36 0 004.49 17.58 37.09 37.09 0 0011.21 72.41h25.05q3.68-2 7.36-4.15a165.74 165.74 0 0077-123h-87.81zm87.89-33.9a161.85 161.85 0 00-3.83-22.19 4.23 4.23 0 01-.2-1.06 163.59 163.59 0 00-80-104.65l-.53-.34h-18a29.53 29.53 0 00-29.55 29.44 30 30 0 001 7.61h-18.93a45.64 45.64 0 10-6.08 91.08 44.06 44.06 0 006.08 0h150z" fill="#99cae3"/><path d="M499.42 122.76C483.64 97 444.06 91 385 105.49a482.73 482.73 0 00-54.28 17.27 163.46 163.46 0 0132 20.5c10.15-3.3 19.93-6.29 29.34-8.52a203.76 203.76 0 0148.18-6.83c19.3 0 30.08 4.79 33.6 10.55 5.86 9.61.43 34.77-33.9 74.45-6.09 7-13 14.17-20.29 21.47a687.92 687.92 0 01-124.25 95.35 686.92 686.92 0 01-141.85 67.5c-59.81 19.52-100.66 19.09-109.74 4.16s9-51.5 53.6-95.88a159.72 159.72 0 01-3.62-38.39C22.72 331.27-.35 386.93 18 417c9.6 15.67 30.6 24.52 61.31 24.52a309.94 309.94 0 00106.13-23.42 761.08 761.08 0 00125.33-62.83 757.89 757.89 0 00112.76-83.51 446.58 446.58 0 0038.82-39.25c40.16-46.07 52.84-83.88 37.07-109.75z" fill="#1566bf"/></svg>