<svg data-name="Layer 1" xmlns="http://www.w3.org/2000/svg" viewBox="0 0 512 512"><path d="M297.3 77.88l10.5 10.5a35 35 0 00-10.5-10.5zm0 0a63.13 63.13 0 00-42.06-15 101.2 101.2 0 00-21 3c6.25 7.5 12 13.5 18 21a79.49 79.49 0 0145.06-9zm21 75c1.5-1.5 1.5-1.5 1.5-3-1.5.25-1.5 1.75-1.5 3zm-15-9a14.3 14.3 0 01-19.56-3 13.8 13.8 0 01-1.5-15 302.19 302.19 0 01-25.5-21.06l-18 13.56-3 3a18.73 18.73 0 01-1.63 19.75c1.5 1.5 3 1.5 4.5 3a124.67 124.67 0 0018 12 12.53 12.53 0 0118.13 3c1.5 1.5 1.5 3 3 6.25a62.91 62.91 0 0033.06 1.5 60.88 60.88 0 007.5-14 100.6 100.6 0 01-13.5-9zm6.75 23.81a1.2 1.2 0 01-.75 0 2.88 2.88 0 00.75.25zm.75-1.25a1.37 1.37 0 010 .75 2.09 2.09 0 000-.5zm-45.06-65.87a276.52 276.52 0 0022.5 21.06 14.37 14.37 0 0118.06 4.5 11.44 11.44 0 011.5 13.5 119.54 119.54 0 0012 9 72 72 0 00-12-60.06 77.82 77.82 0 00-42.06 12zm36.06 78.12a88.54 88.54 0 01-25.56-3c-1.5 1.5-1.5 3-3 3a14.44 14.44 0 01-19.5-3 21.17 21.17 0 01-3-9 142.87 142.87 0 01-19.57-12.06c-1.5-1.5-4.5-3-6.25-4.44a19.63 19.63 0 01-9 1.44 75.13 75.13 0 00-3 30.06 63.11 63.11 0 0042.32 14.94 69.23 69.23 0 0040.56-13.5c1.5-1.44 4.5-2.94 6-4.44zm190.68 45.07L288.24 19.51a47.06 47.06 0 00-66 0L19.49 222.19a47.18 47.18 0 000 66.06L222.17 491a48.47 48.47 0 0033.07 15 46.62 46.62 0 0033-13.5l204.24-202.75a46.57 46.57 0 0013.5-33 44.12 44.12 0 00-13.5-33zm-91.62 117.06H304.8l33-33-63.06-63.07v151.88h46.87l-66.37 65.81-66.07-65.81h46.57v-150l-63.07 62.5 33 33h-93.06v-92.88l33 33 79.63-79.37a76 76 0 01-30.07-24A77.69 77.69 0 01318.3 84.13a76.82 76.82 0 01-15 108.13 40.11 40.11 0 01-15 9l79.56 79.49 33-33zM222.17 111.13l3-3a181.61 181.61 0 0118.07-16.56 118.7 118.7 0 01-18.07-22.5 26.89 26.89 0 00-10.5 7.5 32.83 32.83 0 00-7.5 6.25 42.9 42.9 0 004.5 28.56 12.82 12.82 0 0110.5-.25zm11.94-46.56l-9 4.5c9-3 9-3 9-4.5zm-31.25 55.56a45.3 45.3 0 01-3-27.06 65.58 65.58 0 000 75 60.4 60.4 0 014.5-22.56l-1.5-1.38a18.25 18.25 0 010-24zm-3.19 48.06c1.5 1.5 1.5 0 0 0z" fill="#0078d7"/></svg>