<svg data-name="Layer 1" xmlns="http://www.w3.org/2000/svg" viewBox="0 0 512 512"><path d="M132.66 250.61H26.42C15.37 250.61 6 259.94 6 270.73a20.67 20.67 0 0020.42 20.32h96.66a90.41 90.41 0 019.58-40.44zm-43.95-46.67h90.62c12.5-6.22 25.21-9.33 49.38-9.13-5.63 1.25-.83 1.25 3.95 1.25A123.89 123.89 0 01256 163.49H88.71c-10.83 0-20.21 9.34-20.21 20.12a20.64 20.64 0 0020.21 20.33zm417.29 123c0-23.44-18.75-43.56-42.29-43.56h-6.25c1.66-9.33 4.79-18.87 4.79-29.66 0-62.23-51.67-112-112.5-112-48.54 0-90.63 32.78-106.25 76.13-7.92-1.45-15.62-4.57-25-4.57-43.75 0-76.66 34.23-76.66 77.78s34.37 77.78 76.66 77.78h246.87c23.55-1.66 40.63-18.66 40.63-41.9zm-375 2.9H54.54a20.81 20.81 0 00-20.41 20.33c0 10.78 9.37 20.12 20.41 20.12h106.25c-12.5-10.79-23.54-23.23-29.79-40.45z" fill="#0078d7" data-name="A"/></svg>