<svg data-name="Layer 1" xmlns="http://www.w3.org/2000/svg" viewBox="0 0 512 512"><path d="M47.49 259a12.45 12.45 0 010-17.33l110.89-107c6.25-4.52 4.69-12.8 0-17.33-5.46-4.52-12.49-4.52-17.18 0l-107.76 101-24.21 23.35c-3.91 4.52-4.69 12.8 0 17.33l24.21 26.36.78.76 109.33 100.94c3.91 3.76 12.49 4.52 17.18 0a12.43 12.43 0 000-17.33zm333.45-75.34H276.3L377.82 33.78H225.54l-82 223 100 .75-78.1 220.71zm121.83 58l-24.21-23.35L370.79 117.4c-4.68-4.52-11.71-4.52-17.18 0-4.68 4.52-6.25 12.81 0 17.33l113.23 107a12.43 12.43 0 010 17.33L351.27 369.75a12.43 12.43 0 000 17.33c4.69 4.52 13.28 3.76 17.18 0l107-102.45.78-.76L502.77 259c4.69-4.51 3.91-12.79 0-17.32z" fill="#0078d7" data-name="A"/></svg>