<svg data-name="Layer 1" xmlns="http://www.w3.org/2000/svg" viewBox="0 0 512 512"><path d="M347.43 56.02c-24.81-5.75-57.73-8.92-92.69-8.92s-67.89 3.2-92.83 9.02c-29.22 6.82-43.42 16.08-43.42 28.31s14.24 21.45 43.53 28.21c24.91 5.75 57.84 8.92 92.71 8.92s67.79-3.18 92.59-8.95c29.2-6.79 43.39-16.08 43.39-28.39s-14.16-21.46-43.3-28.21zm1.06 41.12c-30.52-7.37-62.1-10.7-93.74-9.86-31.23-.7-62.38 2.77-92.43 10.26-25.1-6.19-28.74-12.45-29.05-13.12.32-.71 4.33-7.78 34.02-14.4 23.63-5.27 54.69-8.18 87.45-8.18s63.85 2.87 87.37 8.09c31.01 6.88 33.85 14.26 33.86 14.26-.23 1.39-5.68 7.3-27.49 12.93zm91.86-11.82c0-20.86-20.15-39.55-56.73-52.64C349.75 20.56 304.43 13.89 256 13.89s-93.75 6.67-127.62 18.79C91.8 45.77 71.65 64.46 71.65 85.32h-.12v341.24c0 20.32 19.86 38.79 55.92 52.01 33.64 12.33 78.39 19.27 126.06 19.54h2.48c48.44 0 93.78-6.68 127.66-18.8 36.63-13.11 56.81-31.84 56.81-52.75V85.32h-.12zM269.79 248.37v13.53h-.55v76.47h-32.58v-59.36l-18.5 41.69c-4.97 11.04-9.94 18.22-22.09 18.22-5.89.03-11.65-1.69-16.56-4.93a29.854 29.854 0 01-11.05-13.29l-17.39-43.34v61.57h-32.3v-91.38c0-10.77 2.21-17.12 11.87-20.15 4.51-1.67 9.28-2.51 14.08-2.49 5.1 0 10.08 1.54 14.31 4.39 4.23 2.85 7.51 6.9 9.43 11.62l27.61 52.46 21.53-52.46a25.929 25.929 0 0125.12-16.01c4.68.06 9.34.8 13.8 2.21 4.37 1.39 8.11 4.3 10.54 8.19s3.39 8.53 2.71 13.07zM391.1 349.86a33.508 33.508 0 01-7.27 11.48 33.21 33.21 0 01-11.24 7.63 33.38 33.38 0 01-13.35 2.53H285.8v-27.61h65.71c4.14-.55 7.18-11.87 7.18-11.87l-7.18 3.59h-41.14c-3.45.3-6.92-.1-10.21-1.19a25.45 25.45 0 01-8.9-5.14c-2.59-2.3-4.67-5.11-6.14-8.24a25.46 25.46 0 01-2.37-10V261.9h37.27v41.14a10.782 10.782 0 008.01 3.87h27.61v-45h37.55v74.54c.23 4.57-.49 9.14-2.1 13.42zm34.37-264.55c0 26.75-69.6 56.55-169.47 56.55S86.53 112.62 86.53 85.31h-.12c0-13.95 17.11-28.07 46.94-38.74C165.67 35.01 209.22 28.64 256 28.64s90.33 6.37 122.65 17.93c29.83 10.67 46.94 24.79 46.94 38.74h-.12z" fill="#0078d7" data-name="A"/></svg>