<svg data-name="Layer 1" xmlns="http://www.w3.org/2000/svg" viewBox="0 0 512 512"><path d="M353.91 161.58a80.72 80.72 0 00-15.54-10.26c-1.37-2.83-3.69-4.81-6.13-6.67-.87-.66-1.95-1.36-1.62-2.57s1.55-1.44 2.64-1.44c8.51 0 17-.21 25.5.15 4.54.19 5.15 3.71 3.81 7.18-1.96 5.03-4.18 10.09-8.66 13.61z" fill="#3396d8"/><path d="M506 247.85v15.7c-2.08 17.84-13.43 31.38-21.81 46.22-26.05 46.1-52.79 91.79-79.09 137.77-5.61 9.76-10.59 20-21.11 26.07-6.34 3.63-12.84 5.86-20.16 5.86-71.68-.09-143.36.15-215-.14-13.15-.06-23.61-5.86-31-16.35-11.16-15.89-19.83-33.34-29.52-50.14Q49.34 345.46 10.67 278c-5.52-9.55-4.65-19.76-4.57-30 0-11.55 7.05-20.16 12.33-29.41q46.76-81.72 93.94-163.2c2.82-4.88 5.74-9.76 9.89-13.75 7.42-7.15 16.6-8.95 26.37-9q108-.11 215.94-.09c16.44 0 27.68 7.35 35.67 21.49 16.6 29.4 33.63 58.59 50.52 87.88 16.35 28.32 32.54 56.71 49 85 3.85 6.51 4.91 13.7 6.24 20.93z" fill="#3497da"/><path d="M303.69 207.49c-7.25-5.29-9-4.92-14 2.52-13 19.33-26.16 38.6-39 58.06-2.55 3.86-4.11 4.72-7.52 1-4.85-5.31-10.36-10-15.24-15.28-4.23-4.62-7.88-4.81-11.89 0-1.25 1.5-2.82 2.75-4.12 4.2-3.28 3.63-3.58 7.3.07 10.93 9.87 9.86 19.57 19.89 29.64 29.54 6.4 6.1 11.21 5.42 16.16-1.8q26-38.08 51.91-76.17c1-1.42 1.74-3 2.59-4.49-.94-5-5.41-6.21-8.6-8.51zm50.22-45.91c-1-7-8.19-11.75-15.6-10.26-7.32-2.49-14.85-3-22.55-3-40.13.12-80.26.06-120.39.06-28.36 0-48.12 19.69-48.12 48v122.33c0 30.2 19.22 49.53 49.3 49.53h121.09c30.53 0 49.58-19.19 49.58-49.91 0-39.46-.24-78.92.14-118.39.15-14.66-3.59-27.46-13.45-38.36zm-5 96.73v62.16c-.05 18-11.47 29.42-29.45 29.44q-62.19.07-124.35 0c-18 0-29.43-11.47-29.45-29.46q-.07-62.15 0-124.3c0-18 11.44-29.39 29.46-29.42q62.17-.07 124.36 0c18 0 29.38 11.44 29.44 29.43.08 20.72-.01 41.43-.01 62.15z" fill="#fefefe"/></svg>