<svg width="512" height="512" viewBox="0 0 512 512" fill="none" xmlns="http://www.w3.org/2000/svg"><circle cx="256.5" cy="256.5" r="237.5" fill="url(#paint0_linear_2527_1705)"/><path d="M425.832 236.251h-14.916C400.882 159.322 335.163 99.75 255.612 99.75c-79.55 0-145.45 59.572-155.394 136.501H86.749c-11.21 0-20.249 9.04-20.249 20.249s9.04 20.249 20.25 20.249h13.468c10.035 76.929 75.754 136.501 155.304 136.501s145.36-59.663 155.304-136.501h14.915c11.21 0 20.25-9.04 20.25-20.249s-9.04-20.249-20.25-20.249h.091zm-54.691 40.498h16.904c-9.853 64.363-65.448 113.902-132.523 113.902s-122.67-49.539-132.523-113.902h18.35c11.21 0 20.25-9.04 20.25-20.249s-9.04-20.249-20.25-20.249h-18.35c9.853-64.363 65.448-113.902 132.523-113.902s122.67 49.539 132.523 113.902h-16.904c-11.209 0-20.249 9.04-20.249 20.249s9.04 20.249 20.249 20.249z" fill="#fff"/><defs><linearGradient id="paint0_linear_2527_1705" x1="256.5" y1="19" x2="256.5" y2="494" gradientUnits="userSpaceOnUse"><stop stop-color="#DAA8D0"/><stop offset="1" stop-color="#927CAB"/></linearGradient></defs></svg>