<svg xmlns="http://www.w3.org/2000/svg" width="512" height="512" viewBox="0 0 512 512"><path d="M327.84 236.19c-3.59-.85-7.3.88-8.95 4.19l-24.71 49.43-24.71-49.43a7.971 7.971 0 00-8.95-4.19 7.957 7.957 0 00-6.13 7.74v63.66c0 4.39 3.56 7.96 7.96 7.96s7.96-3.56 7.96-7.96v-29.95l16.75 33.51c1.35 2.7 4.1 4.4 7.12 4.4s5.77-1.7 7.12-4.4l16.76-33.51v29.95c0 4.39 3.56 7.96 7.96 7.96s7.96-3.56 7.96-7.96v-63.66c0-3.69-2.54-6.9-6.13-7.74zm14.17-40h-95.49c-8.44 0-16.54 3.35-22.51 9.32a31.835 31.835 0 00-9.32 22.51v95.49a31.818 31.818 0 0031.83 31.83h95.49a31.818 31.818 0 0031.83-31.83v-95.49a31.818 31.818 0 00-31.83-31.83zm15.92 127.32c0 4.22-1.68 8.27-4.66 11.25a15.894 15.894 0 01-11.25 4.66h-95.49c-4.22 0-8.27-1.68-11.26-4.66s-4.66-7.03-4.66-11.25v-95.49c0-4.22 1.68-8.27 4.66-11.25s7.03-4.66 11.26-4.66h95.49c4.22 0 8.27 1.68 11.25 4.66 2.98 2.98 4.66 7.03 4.66 11.25v95.49zM487.5 258.3a90.321 90.321 0 00-62.87-28.42v-2.39c0-16.54-3.26-32.92-9.59-48.21a126.002 126.002 0 00-68.18-68.18 125.996 125.996 0 00-48.21-9.59l.16.24a126.056 126.056 0 00-120.56 88.33 62.948 62.948 0 00-31.94-20.45 63.054 63.054 0 00-37.9 1.58 63.1 63.1 0 00-30.13 23.05 62.997 62.997 0 00-11.44 36.17c-.04.82-.04 1.64 0 2.47a90.328 90.328 0 00-51.72 37.18A90.352 90.352 0 00.8 332.15a90.272 90.272 0 0030.21 56.08 90.345 90.345 0 0059.71 22.2h328.57c23.9.63 47.07-8.24 64.44-24.66a90.342 90.342 0 0028.23-62.96c.7-23.89-8.09-47.09-24.46-64.52zm-1.05 63.38a66.43 66.43 0 01-20.39 45.97 66.467 66.467 0 01-46.76 18.52H90.8a66.45 66.45 0 01-42.98-16.82 66.381 66.381 0 01-21.65-40.76 66.393 66.393 0 0110.12-45.03 66.439 66.439 0 0137.01-27.58c5.19-1.41 9.76-4.54 12.95-8.87a23.9 23.9 0 004.64-15v-1.91a39.13 39.13 0 0125.97-36.55c7.55-2.7 15.75-3.01 23.49-.9a39.12 39.12 0 0119.77 12.71c2.24 2.68 5.03 4.85 8.2 6.33 3.16 1.49 6.61 2.26 10.11 2.26 1.58 0 3.15-.16 4.7-.48a23.886 23.886 0 0018.07-16.31 101.73 101.73 0 0137-51.93c17.58-12.9 38.84-19.8 60.64-19.69l-.16-.24a102.14 102.14 0 0172.17 29.93c19.14 19.14 29.9 45.1 29.93 72.17v1.99a23.877 23.877 0 0022.44 23.87c17.39.83 33.76 8.45 45.59 21.23a66.457 66.457 0 0117.66 47.09z" fill="#7b8fa5"/><path d="M429.63 339.43c13.18 0 23.87-10.69 23.87-23.87s-10.69-23.87-23.87-23.87-23.87 10.69-23.87 23.87 10.69 23.87 23.87 23.87z" fill="#67b346"/></svg>