<svg width="512" height="512" viewBox="0 0 512 512" fill="none" xmlns="http://www.w3.org/2000/svg"><circle cx="256.5" cy="256.5" r="237.5" fill="url(#paint0_linear_2527_1696)"/><path d="M421.677 209.75c-4.059-12.719-17.565-19.786-30.211-15.703-9.368 2.984-15.536 11.228-16.55 20.414l-50.509 16.174c-10.305-21.748-30.914-37.451-55.505-40.828v-53.311c8.431-3.769 14.286-12.249 14.286-22.063 0-13.348-10.773-24.183-24.044-24.183-13.272 0-24.045 10.835-24.045 24.183 0 9.893 5.855 18.294 14.286 22.063v53.39c-24.903 3.376-45.668 19.472-55.817 41.534l-50.665-15.624c-1.093-9.186-7.416-17.352-16.784-20.257-12.725-3.926-26.152 3.298-30.055 16.017-3.904 12.798 3.279 26.303 15.925 30.229 9.368 2.905 19.126-.315 25.137-7.302l50.743 15.624c-.624 3.847-1.014 7.695-1.014 11.699 0 20.178 8.196 38.472 21.39 51.663l-31.929 42.555c-8.978-2.12-18.736 1.099-24.591 8.951-7.963 10.678-5.855 25.832 4.684 33.919 10.617 8.008 25.683 5.888 33.646-4.711 5.933-7.852 6.246-18.216 1.796-26.303l31.929-42.555c10.461 5.888 22.483 9.343 35.364 9.343a71.647 71.647 0 0035.52-9.422l32.007 42.477c-4.45 8.087-4.06 18.451 1.873 26.303 8.041 10.678 23.108 12.719 33.725 4.632s12.647-23.24 4.606-33.919c-5.933-7.851-15.691-10.992-24.669-8.872l-32.007-42.477c13.115-13.19 21.234-31.406 21.234-51.506 0-4.239-.469-8.479-1.171-12.562l50.509-16.174c6.089 6.909 15.925 9.971 25.215 6.988 12.647-4.083 19.672-17.666 15.613-30.386h.078z" fill="#fff"/><defs><linearGradient id="paint0_linear_2527_1696" x1="256.5" y1="19" x2="256.5" y2="494" gradientUnits="userSpaceOnUse"><stop stop-color="#8ACCA2"/><stop offset="1" stop-color="#1AA191"/></linearGradient></defs></svg>