<svg data-name="Layer 1" xmlns="http://www.w3.org/2000/svg" viewBox="0 0 512 512"><path d="M148.18 302.17h21.93v-86.91h-21.93zm-97.11-43.46c0 28 21.62 45 46.26 45a69.9 69.9 0 0020-3.08V277.3a38.56 38.56 0 01-18.42 4.61c-14.61 0-24-10.28-24-23.2 0-13.3 9.82-23.17 24-23.17a38.09 38.09 0 0118.42 4.64V216.9a66.83 66.83 0 00-20-3.11c-26.68 0-46.26 18.98-46.26 44.92zm186.81-9l-6-1.95c-3.6-1.14-10.05-3-10.05-8.28 0-4.18 4.78-7.11 13.57-7.11 7.57 0 16.8 2.54 17.13 2.64V216.5a93.84 93.84 0 00-21.36-2.77c-20.22 0-32.39 10.91-32.39 27.16 0 14.36 10.19 21.49 22.4 25.39 1.35.44 3.35 1.07 4.68 1.52 5.42 1.71 9.76 4.25 9.76 8.65 0 4.92-5 8.11-15.93 8.11-9.58 0-18.75-2.75-20.7-3.23v19.97a131.45 131.45 0 0023.66 2.38c16.78 0 36-7.34 36-29.16-.06-10.52-6.55-20.29-20.77-24.79zm41.95 9c0 28 21.65 45 46.31 45a70.17 70.17 0 0020-3.08V277.3a38.91 38.91 0 01-18.45 4.61c-14.6 0-24-10.28-24-23.2 0-13.3 9.83-23.17 24-23.17a38.34 38.34 0 0118.45 4.64V216.9a67.07 67.07 0 00-20-3.11c-26.72 0-46.31 18.98-46.31 44.92zm135.26-44.92c-26.74 0-45.9 20.07-45.9 44.92s19.18 45 45.9 45 45.89-20.13 45.89-45-19.16-44.92-45.89-44.92zM431 274.73a22.86 22.86 0 01-15.86 6.85 22.86 22.86 0 110-45.71A22.87 22.87 0 01431 274.73z" fill="#d92844"/><path d="M315.81 155.57a10.86 10.86 0 0010.85-10.85V92A10.85 10.85 0 00305 92v52.73a10.86 10.86 0 0010.85 10.85zm52 18.71a10.92 10.92 0 003.56 2.44 10.83 10.83 0 008.46 0 10.92 10.92 0 003.56-2.44 10.65 10.65 0 002.33-3.63 10.91 10.91 0 00.74-4.26V51a10.86 10.86 0 00-21.71 0v115.39a10.84 10.84 0 003.06 7.89zM256 155.57a10.86 10.86 0 0010.85-10.85v-22.8a10.85 10.85 0 00-21.7 0v22.8A10.86 10.86 0 00256 155.57zM13.63 347.35v123.8H506.2v-123.8zm481.51-191.77A10.86 10.86 0 00506 144.72v-22.8a10.86 10.86 0 10-21.72 0v22.8a10.86 10.86 0 0010.86 10.86zm-59.75.06a10.93 10.93 0 0010.92-10.92V92a10.92 10.92 0 00-21.84 0v52.73a10.93 10.93 0 0010.92 10.92zm-410.92-3.43a10.92 10.92 0 003.3-7.49v-22.8a10.89 10.89 0 00-21.77 0v22.8a10.89 10.89 0 0018.47 7.49zm52.2 3.07a10.88 10.88 0 0010.88-10.56V92a10.89 10.89 0 00-21.77 0v52.73a10.88 10.88 0 0010.89 10.56zm59.79 22a10.89 10.89 0 0010.89-10.89V51a10.89 10.89 0 00-21.78 0v115.39a10.89 10.89 0 0010.89 10.89zm59.83-22a10.88 10.88 0 0010.88-10.56V92a10.89 10.89 0 00-21.77 0v52.73a10.9 10.9 0 0010.89 10.56z" fill="#118da3"/><path d="M209.2 404.67h-.2v-9.83h-16.35v53H209v-25.32q0-6.74 3-10.63a9.89 9.89 0 018.32-3.91 14.24 14.24 0 016.88 1.6v-15.05a10.57 10.57 0 00-4-.62q-10.11 0-14 10.76zM175.51 372a11.1 11.1 0 00-13.58 0 7.62 7.62 0 00-2.63 6 7.91 7.91 0 002.63 6 9.55 9.55 0 006.78 2.46 9.74 9.74 0 006.8-2.38 7.9 7.9 0 002.61-6.11 7.67 7.67 0 00-2.61-5.97zm-15.08 75.83h16.35v-53h-16.35zm-37-24.67a53.12 53.12 0 00-1.08 8.27h-.21a61.33 61.33 0 00-1.19-8l-12.15-49.81H90.87l-13.45 49.21a41.19 41.19 0 00-1.5 8.69h-.31a59.32 59.32 0 00-1-8.49l-10.43-49.39H45.92l19.5 74.17h19.3l12.62-47.59a51.12 51.12 0 001.34-8.32h.21a38.75 38.75 0 001.19 8.32l12.31 47.59h18.51l19.61-74.17h-16.87zm228.5-29.59a25.5 25.5 0 00-18.83 7.71q-7.65 7.71-7.65 20.89 0 12.74 7.08 19.84t19.92 7.11q11.73 0 19.08-3.93v-11.81a28.34 28.34 0 01-15.36 4.13q-13.71 0-14.53-11.53h34.55v-6.88q0-11.79-6.34-18.67t-17.95-6.88zM341.5 416a14.86 14.86 0 013.49-8.12 8.77 8.77 0 016.8-3.26q9.21 0 9.21 11.38zm79.78 5.63a19.16 19.16 0 00-4.53-3.15 46.61 46.61 0 00-5.89-2.48c-1.21-.42-2.42-.82-3.65-1.22a23.33 23.33 0 01-3.33-1.34 8.26 8.26 0 01-2.44-1.79 3.57 3.57 0 01-.93-2.48 3.17 3.17 0 01.63-1.94 4.56 4.56 0 011.7-1.4 10.13 10.13 0 012.51-.82 15.43 15.43 0 013-.29 27.71 27.71 0 016.95.91 26 26 0 016.65 2.71v-12.67a54.84 54.84 0 00-7.14-1.58 48.28 48.28 0 00-7.14-.54 38.44 38.44 0 00-8.66 1 23.76 23.76 0 00-7.4 3 15.91 15.91 0 00-5.17 5.25 14.54 14.54 0 00-1.94 7.65 16.72 16.72 0 00.86 5.64 12.28 12.28 0 002.48 4.19 15.84 15.84 0 004 3.18 39.75 39.75 0 005.56 2.56c1.31.52 2.67 1 4.09 1.4a34 34 0 013.9 1.39 10.7 10.7 0 012.93 1.81 3.39 3.39 0 011.13 2.59 3.84 3.84 0 01-2.5 3.62 16.35 16.35 0 01-6.86 1.19 26.83 26.83 0 01-7.58-1.19 34.73 34.73 0 01-8-3.62v13.24a47.42 47.42 0 0016.19 2.69 43.18 43.18 0 009.18-1 24.36 24.36 0 007.81-3.05 16.3 16.3 0 005.43-5.43 16.92 16.92 0 001-13.83 12.56 12.56 0 00-2.84-4.25zm-161-28a25.47 25.47 0 00-18.82 7.71q-7.67 7.71-7.66 20.89 0 12.74 7.09 19.84t19.91 7.11q11.75 0 19.08-3.93v-11.87a28.34 28.34 0 01-15.36 4.13q-13.72 0-14.52-11.51h34.55v-6.9q0-11.79-6.34-18.67t-17.96-6.88zM249.86 416a14.71 14.71 0 013.49-8.12 8.76 8.76 0 016.8-3.26q9.21 0 9.21 11.38zm223 9.88a12.56 12.56 0 00-2.9-4.25 19.16 19.16 0 00-4.53-3.15 46.61 46.61 0 00-5.89-2.48c-1.21-.42-2.42-.82-3.65-1.22a23.33 23.33 0 01-3.33-1.34 8.26 8.26 0 01-2.44-1.79 3.57 3.57 0 01-.93-2.48 3.17 3.17 0 01.63-1.94 4.56 4.56 0 011.7-1.4 10.13 10.13 0 012.51-.82 15.43 15.43 0 013-.29 27.71 27.71 0 016.95.91 26 26 0 016.65 2.71v-12.67a54.84 54.84 0 00-7.14-1.58 48.28 48.28 0 00-7.14-.54 38.38 38.38 0 00-8.66 1 23.76 23.76 0 00-7.4 3 15.82 15.82 0 00-5.17 5.25 14.54 14.54 0 00-1.94 7.65 16.72 16.72 0 00.86 5.64 12.28 12.28 0 002.48 4.19 15.84 15.84 0 004 3.18 39.75 39.75 0 005.56 2.56c1.31.52 2.67 1 4.09 1.4a34 34 0 013.9 1.39 10.7 10.7 0 012.93 1.81 3.39 3.39 0 011.13 2.59 3.84 3.84 0 01-2.5 3.62 16.35 16.35 0 01-6.86 1.19 26.83 26.83 0 01-7.58-1.19 34.73 34.73 0 01-8-3.62v13.24a47.42 47.42 0 0016.19 2.69 43.18 43.18 0 009.18-1 24.36 24.36 0 007.81-3.05 16.3 16.3 0 005.43-5.43 17 17 0 001-13.83zm-176.55 22h16.34V369.4h-16.3z" fill="#fff"/></svg>