<svg xmlns="http://www.w3.org/2000/svg" width="512" height="512" viewBox="0 0 512 512"><path d="M154.64 324.76h20.59v-81.6h-20.59v81.6zM31.97 145.45c-5.44 0-9.92 4.48-10.03 10.03v21.44c.11 5.65 4.8 10.13 10.45 10.03 5.44 0 9.92-4.48 10.03-10.03v-21.44c-.11-5.65-4.8-10.13-10.45-10.03zm122.67-56.43c-.11-5.65-4.8-10.13-10.45-10.03-5.44 0-9.92 4.48-10.03 10.03v108.27c.11 5.65 4.8 10.13 10.45 10.03 5.44 0 9.92-4.48 10.03-10.03V89.02zM64.18 283.9c0 26.24 20.27 42.24 43.41 42.24 6.4 0 12.69-1.07 18.77-2.88v-21.87a36.462 36.462 0 01-17.28 4.37c-12.05.43-22.08-8.96-22.61-21.01-.43-12.05 8.96-22.08 21.01-22.61h1.6c6.08 0 11.95 1.49 17.28 4.37v-21.87c-6.08-1.92-12.37-2.88-18.77-2.99-25.07 0-43.41 17.81-43.41 42.24zm361.39-97.28c5.23-.32 9.39-4.48 9.71-9.71v-49.49a10.291 10.291 0 00-10.88-9.71c-5.23.32-9.39 4.48-9.71 9.71v49.49c.32 5.65 5.12 10.03 10.88 9.71zm-337.07.32c5.44 0 9.92-4.48 10.03-10.03v-49.49c-.11-5.65-4.8-10.13-10.45-10.03-5.44 0-9.92 4.48-10.03 10.03v49.49c.11 5.65 4.8 10.13 10.45 10.03zm224.11.43c5.65.11 10.24-4.37 10.35-10.03v-49.92c.11-5.65-4.37-10.24-10.03-10.35-5.65-.11-10.24 4.37-10.35 10.03v49.92c-.11 5.65 4.37 10.24 10.03 10.35zm66.56 10.24V89.02c-.11-5.65-4.8-10.13-10.35-10.03-5.44 0-9.92 4.48-10.03 10.03v108.27c-.11 5.65 4.37 10.24 10.03 10.35 5.65.11 10.24-4.37 10.35-10.03zm28.37 44.05h-1.6c-23.36.43-41.81 19.73-41.39 43.09.43 23.36 19.73 41.81 43.09 41.39 23.04-.43 41.39-19.2 41.39-42.24.21-23.15-18.35-42.03-41.49-42.24zm19.74 42.24c0 11.73-9.71 21.23-21.44 21.12-11.73 0-21.23-9.71-21.12-21.44 0-11.63 9.6-21.12 21.23-21.12 11.63-.11 21.23 9.28 21.33 20.91v.53zm53.65-138.45c-5.44 0-9.92 4.48-10.03 10.03v21.44c-.11 5.65 4.37 10.24 10.03 10.35 5.65.11 10.24-4.37 10.35-10.03v-21.76c-.11-5.65-4.8-10.13-10.35-10.03zM279.01 283.9c0 26.24 20.27 42.24 43.41 42.24 6.4 0 12.69-1.07 18.77-2.88v-21.87a36.462 36.462 0 01-17.28 4.37c-12.05.43-22.08-8.96-22.61-21.01-.43-12.05 8.96-22.08 21.01-22.61h1.6c6.08 0 12.05 1.49 17.28 4.37v-21.87c-6.08-1.92-12.37-2.88-18.77-2.99-25.07 0-43.41 17.81-43.41 42.24zm-22.29-138.56c-5.55 0-10.13 4.59-10.13 10.13v21.44c0 5.65 4.59 10.13 10.13 10.13s10.13-4.59 10.13-10.13v-21.44c0-5.65-4.59-10.13-10.13-10.13zm-17.07 130.03l-5.65-1.81c-3.41-1.07-9.39-2.77-9.39-7.79 0-3.95 4.48-6.72 12.69-6.72 5.44.21 10.88 1.07 16.11 2.45v-17.39l-.11.11c-6.61-1.6-13.33-2.56-20.05-2.56-18.99 0-30.4 10.24-30.4 25.49 0 13.55 9.6 20.27 21.01 23.89 1.28.43 3.09.96 4.37 1.39 5.12 1.6 9.17 3.95 9.17 8.11 0 4.59-4.69 7.57-14.93 7.57-6.61-.21-13.12-1.17-19.41-2.99v18.77c7.36 1.39 14.72 2.13 22.19 2.24 15.79 0 33.81-6.93 33.81-27.41 0-9.92-6.08-19.09-19.41-23.36zm-28.91-98.45v-49.49c0-5.65-4.59-10.24-10.24-10.24s-10.24 4.59-10.24 10.24v49.49c0 5.65 4.59 10.24 10.24 10.24s10.24-4.59 10.24-10.24z" fill="#d92844"/><path d="M161.53 374.75c-5.01-2.59-10.86-3.89-17.55-3.89h-20.54v62.88h20.54c6.7 0 12.55-1.24 17.55-3.71 5.07-2.53 8.96-6.15 11.67-10.86 2.77-4.7 4.16-10.25 4.16-16.65s-1.39-11.97-4.16-16.74c-2.71-4.83-6.6-8.51-11.67-11.04zm-.63 44.61c-3.92 3.98-9.56 5.97-16.92 5.97h-10.22v-46.05h10.22c7.36 0 13 2.05 16.92 6.15 3.92 4.1 5.88 9.8 5.88 17.1s-1.96 12.85-5.88 16.83zm-59.14-18.26c-2.59-1.15-5.97-2.29-10.13-3.44-3.14-.84-5.61-1.63-7.42-2.35-1.81-.72-3.32-1.69-4.52-2.9-1.15-1.27-1.72-2.86-1.72-4.79 0-2.84.93-5.01 2.8-6.51 1.87-1.51 4.28-2.26 7.24-2.26 3.26 0 5.88.81 7.87 2.44 1.99 1.63 3.08 3.59 3.26 5.88h11.4c-.42-5.31-2.59-9.47-6.52-12.48-3.86-3.08-8.84-4.61-14.93-4.61-4.28 0-8.05.72-11.31 2.17s-5.79 3.53-7.6 6.24c-1.81 2.71-2.71 5.88-2.71 9.5 0 3.92.9 7.06 2.71 9.41 1.81 2.35 3.98 4.1 6.51 5.25 2.59 1.09 5.94 2.17 10.04 3.26 3.26.84 5.79 1.63 7.6 2.35 1.87.72 3.41 1.75 4.61 3.08 1.27 1.33 1.9 3.05 1.9 5.16 0 2.71-1 4.95-2.99 6.7-1.99 1.69-4.77 2.53-8.32 2.53s-6.12-.87-8.05-2.62c-1.87-1.75-2.93-3.98-3.17-6.7H67.27c0 3.62.97 6.79 2.9 9.5 1.93 2.72 4.58 4.83 7.96 6.33 3.38 1.45 7.18 2.17 11.4 2.17 4.46 0 8.32-.84 11.58-2.53 3.32-1.75 5.82-4.04 7.51-6.88 1.75-2.83 2.62-5.85 2.62-9.05 0-3.98-.93-7.15-2.8-9.5-1.81-2.41-4.04-4.19-6.7-5.34zm196.47 20.7l-13.12-50.94h-11.58l-14.11 51.21-13.03-51.21h-10.95l17.82 62.97 11.58-.09 14.02-47.59 13.21 47.59h11.67l18.64-62.88h-11.04l-13.12 50.94zm-109.56-16.45h37.19v-8.69h-37.19v8.69zm246.66-34.58v46.87l-31.03-46.87h-10.32v62.97h10.32v-46.96l31.03 46.96h10.31v-62.97h-10.31zm-85.62 0l-22.53 62.97h10.77l4.52-12.85h26.33l4.52 12.85h10.86l-22.53-62.97h-11.94zm-4.34 41.71l10.32-29.22 10.22 29.22h-20.54z" fill="#009ddc"/></svg>