<svg data-name="b0924588-aea4-49f9-ba72-c3c321433228" xmlns="http://www.w3.org/2000/svg" viewBox="0 0 512 512"><path d="M415.11 213.79c-26.74 0-45.9 20.05-45.9 44.92s19.19 45 45.9 45 45.89-20.14 45.89-45c0-24.71-19.15-44.92-45.89-44.92zm0 67.79a22.86 22.86 0 1122.38-23.33 22.87 22.87 0 01-22.4 23.33zm-364-22.88c0 28 21.62 45 46.26 45a69.9 69.9 0 0020-3.08V277.3a38.56 38.56 0 01-18.42 4.61c-14.58 0-24-10.28-24-23.2 0-13.3 9.79-23.17 24-23.17a38.11 38.11 0 0118.42 4.64v-23.29a66.83 66.83 0 00-20-3.11c-26.72 0-46.3 18.98-46.3 44.92zm97.11 43.47h21.93v-86.91h-21.97zm131.59-43.47c0 28 21.65 45 46.31 45a69.9 69.9 0 0020-3.08V277.3a38.91 38.91 0 01-18.45 4.61c-14.6 0-24-10.28-24-23.2 0-13.3 9.83-23.17 24-23.17a38.34 38.34 0 0118.45 4.64v-23.29a67.15 67.15 0 00-20-3.11c-26.72 0-46.31 18.98-46.31 44.92zm-42-9l-6-1.95c-3.6-1.14-10.05-3-10.05-8.28 0-4.18 4.78-7.11 13.57-7.11 7.57 0 16.8 2.54 17.13 2.64l.06-18.48a93.84 93.84 0 00-21.36-2.77c-20.22 0-32.39 10.91-32.39 27.16 0 14.39 10.19 21.49 22.4 25.39 1.35.44 3.35 1.07 4.68 1.52 5.42 1.71 9.76 4.25 9.76 8.65 0 4.92-5 8.11-15.93 8.11-9.58 0-18.75-2.75-20.7-3.23v19.95a131 131 0 0023.54 2.35c16.81 0 36-7.34 36-29.16.02-10.55-6.47-20.29-20.69-24.79z" fill="#d92844"/><path d="M315.85 155.58a10.85 10.85 0 0010.85-10.85V92a10.85 10.85 0 00-21.7 0v52.73a10.85 10.85 0 0010.85 10.85zm-59.84 0a10.84 10.84 0 0010.84-10.84v-22.8a10.85 10.85 0 00-21.7 0v22.8A10.84 10.84 0 00256 155.56zm115.4 21.16a10.8 10.8 0 008.46 0 10.92 10.92 0 003.56-2.44 10.56 10.56 0 002.33-3.63 10.88 10.88 0 00.74-4.26V51a10.86 10.86 0 00-21.71 0v115.39a10.87 10.87 0 006.62 10.33zm64-21.08a10.91 10.91 0 0010.91-10.91V92a10.92 10.92 0 00-21.84 0v52.73a10.91 10.91 0 0010.92 10.91zm-238.79-.35a10.89 10.89 0 0010.56-10.56V92a10.89 10.89 0 00-21.77 0v52.73a10.89 10.89 0 0011.2 10.56zM13.1 471.86h492.57v-123.8H13.1zm482-360.8a10.86 10.86 0 00-10.86 10.86v22.8a10.86 10.86 0 1021.72 0v-22.8a10.86 10.86 0 00-10.82-10.86zM27.77 144.72v-22.8a10.89 10.89 0 00-21.77 0v22.8a10.89 10.89 0 0021.77 0zM77 155.29a10.89 10.89 0 0010.56-10.56V92a10.89 10.89 0 00-21.77 0v52.73A10.89 10.89 0 0077 155.29zm59.47 22a10.9 10.9 0 0010.89-10.89V51a10.89 10.89 0 10-21.78 0v115.39a10.9 10.9 0 0010.88 10.89z" fill="#118da3"/><path d="M199.85 367.71h-21.11v52.5c0 4.77-.13 9.77-4.06 13.23a14.52 14.52 0 01-10.38 3.11 19 19 0 01-11.21-3.22c-3.34-2.62-3.94-5.48-3.94-13v-52.48h-21.26v47c0 10.51.24 20.89 8.35 29 9.55 9.55 23.65 10.15 27.34 10.15 4.78 0 26.84-1.32 34-21a54.16 54.16 0 002.27-18.29zm63 69.26a18 18 0 01-9.3-2.39c-4.65-2.62-9.66-7.87-11.1-19.44a40.63 40.63 0 01-.35-5.73c0-11.57 4.54-18.61 8-21.83a18.58 18.58 0 0112.76-5 19.07 19.07 0 0115.3 8.12 33.24 33.24 0 012.72 4.65l16.7-8.24a51.53 51.53 0 00-5.85-8.7A39.37 39.37 0 00262 365.29a38.19 38.19 0 00-30.54 14.55 47 47 0 00-10.25 30.06c0 6.68 1.07 31.16 23.26 41.16a43.77 43.77 0 0017.18 3.58 41.63 41.63 0 0030.8-13.84 92.54 92.54 0 005.38-7.77l-16.7-8.47c-1.91 3.23-6.35 12.44-18.28 12.44zm126.4-21.15c-4.3-10.25-15.16-12.4-18.16-13-4.53-1.07-9.31-2-14.08-2.74-7.87-1.18-12.52-1.08-15.39-4.18a6.42 6.42 0 01-1.79-4.41c0-4 3.94-9 12.53-9a32.73 32.73 0 017.87 1.2 32.38 32.38 0 0114.32 9.18l15.51-11.09a83 83 0 00-9.31-7.52 49 49 0 00-27.82-8.35c-13.83 0-22.07 4.89-26.24 8.83a23.21 23.21 0 00-7.28 13.48 49.78 49.78 0 00-.47 5.84 26.07 26.07 0 001.07 7.4 18.86 18.86 0 003.58 6.2 28.56 28.56 0 0015.86 8.83 105 105 0 0011.93 2.15c7.52 1.06 18.75 1.31 18.75 9.06 0 6.45-8.4 8.83-9 8.95a23.07 23.07 0 01-6.56.83 33.9 33.9 0 01-20.63-7 37.89 37.89 0 01-3.7-3.58l-16 10a50.26 50.26 0 006.68 7c5.49 4.53 15 10.14 31.73 10.14a66.73 66.73 0 008.47-.6c4.06-.51 19.24-2.27 26.51-15.51a27 27 0 003.29-13 25.35 25.35 0 00-1.67-9.11z" fill="#fff"/></svg>