<svg xmlns="http://www.w3.org/2000/svg" width="512" height="512" viewBox="0 0 512 512"><path d="M502.63 105.37c-6-6-14.14-9.37-22.63-9.37H32c-8.49 0-16.63 3.37-22.63 9.37S0 119.51 0 128v256c0 8.49 3.37 16.63 9.37 22.63 6 6 14.14 9.37 22.63 9.37h448c8.49 0 16.63-3.37 22.63-9.37 6-6 9.37-14.14 9.37-22.63V128c0-8.49-3.37-16.63-9.37-22.63zM488 384c0 2.12-.84 4.16-2.34 5.66A8.008 8.008 0 01480 392H32c-2.12 0-4.16-.84-5.66-2.34A8.008 8.008 0 0124 384V128c0-2.12.84-4.16 2.34-5.66S29.88 120 32 120h448a7.99 7.99 0 018 8v256zM284.65 276.42H157.1v-27.58l-39.6 39.6 39.6 39.6v-27.62h127.55c6.63 0 12-5.37 12-12s-5.37-12-12-12zm48.35-80H205.5c-6.63 0-12 5.37-12 12s5.37 12 12 12H333v27.62l39.6-39.6-39.6-39.6v27.58z" fill="#7b8fa5"/><path d="M424 352c13.25 0 24-10.75 24-24s-10.75-24-24-24-24 10.75-24 24 10.75 24 24 24z" fill="#67b346"/></svg>