<svg xmlns="http://www.w3.org/2000/svg" width="512" height="512" viewBox="0 0 512 512"><path d="M502.63 105.37c-6-6-14.14-9.37-22.63-9.37H32c-8.49 0-16.63 3.37-22.63 9.37-6 6-9.37 14.14-9.37 22.63v256c0 8.49 3.37 16.63 9.37 22.63S23.51 416 32 416h448c8.49 0 16.63-3.37 22.63-9.37 6-6 9.37-14.14 9.37-22.63V128c0-8.49-3.37-16.63-9.37-22.63zM488 384a7.99 7.99 0 01-8 8H32a7.99 7.99 0 01-8-8V128c0-2.12.84-4.16 2.34-5.66S29.88 120 32 120h448a7.99 7.99 0 018 8v256zM249.6 146.67H108.9c-22.14 0-40.15 18-40.15 40.14v140.72c0 22.15 18.01 40.15 40.15 40.15h140.71c22.14 0 40.15-18 40.15-40.15V186.81c0-22.14-18.01-40.14-40.15-40.14zm-93.52 24h46.33v25.25h-46.33v-25.25zm-63.33 16.14c0-8.9 7.24-16.14 16.15-16.14h23.19v25.25H92.76v-9.11zm0 33.11h74.5v25.25h-74.5v-25.25zm109.67 49.25v25.25h-46.33v-25.25h46.33zm-109.67 0h39.33v25.25H92.75v-25.25zm74.5 74.5H108.9c-8.91 0-16.15-7.25-16.15-16.15v-9.1h74.5v25.25zm98.5-16.15c0 8.9-7.24 16.15-16.15 16.15h-58.35v-25.25h74.5v9.1zm0-33.1h-39.33v-25.25h39.33v25.25zm0-49.25h-74.5v-25.25h74.5v25.25zm0-49.25h-39.33v-25.25h23.19c8.91 0 16.15 7.24 16.15 16.14v9.11z" fill="#7b8fa5"/><path d="M424 352c13.25 0 24-10.75 24-24s-10.75-24-24-24-24 10.75-24 24 10.75 24 24 24z" fill="#67b346"/></svg>