<svg xmlns="http://www.w3.org/2000/svg" width="512" height="512" viewBox="0 0 512 512"><path d="M282.56 242.1c-18.92-9.46-42.32-9.46-61.24 0a68.926 68.926 0 00-24.15 20.16c-4.24 5.66-3.09 13.67 2.56 17.92 5.67 4.27 13.69 3.1 17.92-2.56a42.99 42.99 0 0115.12-12.61c11.82-5.92 26.48-5.92 38.32 0 5.94 2.97 11.17 7.33 15.12 12.61 2.52 3.35 6.38 5.12 10.25 5.12 2.69 0 5.38-.83 7.69-2.56 5.65-4.25 6.79-12.26 2.56-17.92a68.904 68.904 0 00-24.17-20.16zm220.07-136.73c-6-6-14.14-9.37-22.63-9.37H32c-8.49 0-16.63 3.37-22.63 9.37-6 6-9.37 14.14-9.37 22.63v256c0 8.49 3.37 16.63 9.37 22.63S23.51 416 32 416h448c8.49 0 16.63-3.37 22.63-9.37 6-6 9.37-14.14 9.37-22.63V128c0-8.49-3.37-16.63-9.37-22.63zM488 384a7.99 7.99 0 01-8 8H32a7.99 7.99 0 01-8-8V128c0-2.12.84-4.16 2.34-5.66S29.88 120 32 120h448a7.99 7.99 0 018 8v256zm-229.66-84.98a16.772 16.772 0 00-9.65-.95c-3.24.64-6.21 2.23-8.55 4.57s-3.93 5.31-4.57 8.55c-.64 3.24-.31 6.6.95 9.65 1.27 3.05 3.4 5.66 6.15 7.49 2.75 1.83 5.98 2.81 9.28 2.81 4.43 0 8.68-1.76 11.81-4.89 3.13-3.13 4.89-7.38 4.89-11.81 0-3.3-.98-6.53-2.81-9.28s-4.44-4.89-7.49-6.15zm-6.35-130.9h-.01c-37.51 0-72.64 17.45-98.92 49.14-4.51 5.44-3.76 13.51 1.69 18.02 5.44 4.51 13.52 3.77 18.02-1.69 21.32-25.71 49.45-39.86 79.21-39.86h.01c29.74 0 57.86 14.16 79.18 39.86 2.54 3.05 6.19 4.64 9.85 4.64 2.88 0 5.77-.97 8.17-2.95 5.44-4.51 6.21-12.58 1.69-18.02-26.27-31.68-61.38-49.12-98.89-49.14z" fill="#7b8fa5"/><path d="M424 352c13.25 0 24-10.75 24-24s-10.75-24-24-24-24 10.75-24 24 10.75 24 24 24z" fill="#67b346"/></svg>