<svg xmlns="http://www.w3.org/2000/svg" width="512" height="512" viewBox="0 0 512 512"><path d="M61.25 253.78c0 26.56 20.51 42.75 43.94 42.75 6.48 0 12.85-1.08 19-2.91v-22.13a36.964 36.964 0 01-17.49 4.43c-12.2.43-22.35-9.07-22.89-21.27-.43-12.2 9.07-22.35 21.27-22.89h1.62c6.15 0 12.09 1.51 17.49 4.43v-22.13c-6.15-1.94-12.52-2.91-19-3.02-25.37 0-43.94 18.03-43.94 42.75zM152.8 56.55c-.11-5.72-4.86-10.26-10.58-10.15-5.51 0-10.04 4.53-10.15 10.15v109.57c.11 5.72 4.86 10.26 10.58 10.15 5.51 0 10.04-4.53 10.15-10.15V56.55zM28.65 113.66c-5.51 0-10.04 4.53-10.15 10.15v21.7c.11 5.72 4.86 10.26 10.58 10.15 5.51 0 10.04-4.53 10.15-10.15v-21.7c-.11-5.72-4.86-10.26-10.58-10.15zM427 155.33c5.29-.32 9.5-4.53 9.82-9.82V95.42a10.4 10.4 0 00-11.01-9.82c-5.29.32-9.5 4.53-9.82 9.82v50.09a10.4 10.4 0 0011.01 9.82zm-274.2 139.8h20.84v-82.59H152.8v82.59zM85.86 155.65c5.51 0 10.04-4.53 10.15-10.15V95.41c-.11-5.72-4.86-10.26-10.58-10.15-5.51 0-10.04 4.53-10.15 10.15v50.09c.11 5.72 4.86 10.26 10.58 10.15zm226.82.43c5.72.11 10.36-4.43 10.47-10.15V95.41c.11-5.72-4.43-10.36-10.15-10.47-5.72-.11-10.37 4.43-10.47 10.15v50.52c-.11 5.72 4.43 10.36 10.15 10.47zm-103.1-10.58V95.41c0-5.72-4.64-10.36-10.36-10.36s-10.36 4.64-10.36 10.36v50.09c0 5.72 4.64 10.36 10.36 10.36s10.36-4.64 10.36-10.36zm170.46 20.95V56.55c-.11-5.72-4.86-10.26-10.47-10.15-5.51 0-10.04 4.53-10.15 10.15v109.57c-.11 5.72 4.43 10.36 10.15 10.47 5.72.11 10.36-4.43 10.47-10.15zm-141.2 78.69l-5.72-1.84c-3.45-1.08-9.5-2.81-9.5-7.88 0-3.99 4.53-6.8 12.85-6.8 5.51.22 11.01 1.08 16.3 2.48v-17.6l-.11.11c-6.69-1.62-13.49-2.59-20.3-2.59-19.22 0-30.77 10.36-30.77 25.8 0 13.71 9.72 20.51 21.27 24.18 1.3.43 3.13.97 4.43 1.4 5.18 1.62 9.28 3.99 9.28 8.2 0 4.64-4.75 7.67-15.11 7.67-6.69-.22-13.28-1.19-19.65-3.02v19c7.45 1.4 14.9 2.16 22.45 2.27 15.98 0 34.22-7.02 34.22-27.74 0-10.04-6.15-19.32-19.65-23.64zm244.19-131.48c-5.51 0-10.04 4.53-10.15 10.15v21.7c-.11 5.72 4.43 10.36 10.15 10.47 5.72.11 10.36-4.43 10.47-10.15v-22.02c-.11-5.72-4.86-10.26-10.47-10.15zm-74.27 97.37h-1.62c-23.64.43-42.32 19.97-41.89 43.61.43 23.64 19.97 42.32 43.61 41.89 23.32-.43 41.89-19.43 41.89-42.75.22-23.43-18.57-42.53-41.99-42.75zm19.97 42.75c0 11.88-9.82 21.48-21.7 21.37-11.87 0-21.48-9.82-21.38-21.7 0-11.77 9.72-21.38 21.48-21.38 11.77-.11 21.48 9.39 21.59 21.16v.54zm-150.06 0c0 26.56 20.51 42.75 43.94 42.75 6.48 0 12.85-1.08 19-2.91v-22.13a36.964 36.964 0 01-17.49 4.43c-12.2.43-22.35-9.07-22.89-21.27-.43-12.2 9.07-22.35 21.27-22.89h1.62c6.15 0 12.2 1.51 17.49 4.43v-22.13c-6.15-1.94-12.52-2.91-19-3.02-25.37 0-43.94 18.03-43.94 42.75zm-22.56-140.23c-5.61 0-10.26 4.64-10.26 10.26v21.7c0 5.72 4.64 10.26 10.26 10.26s10.25-4.64 10.25-10.26v-21.7c0-5.72-4.64-10.26-10.25-10.26z" fill="#7b8fa5"/><path d="M249.6 408.71l-1.08-13.06h-6.05v68.01h7.34v-37.14c0-16.3 8.96-26.02 19.43-26.02 2.7 0 5.29.43 7.88 1.19v-6.91c-2.48-.76-4.97-1.08-7.45-1.08-8.96 0-16.19 4.64-20.08 15.01zm-56.67-15.01c-18.46 0-32.6 12.63-32.6 35.95s14.57 35.95 33.9 35.95c15.22 0 26.23-8.1 29.69-20.51h-7.77c-2.7 9.07-11.01 14.57-21.7 14.57-14.36 0-25.91-8.96-26.56-28.28h57.32c0-25.91-13.82-37.68-32.28-37.68zm-.11 5.73c13.39 0 23.64 8.64 24.61 26.02h-49.44c1.3-17.06 11.44-26.02 24.83-26.02zm-93.7 56.35l-36.38-86.37H51.3v94.24h7.56v-84.63l35.95 84.63h8.31l33.9-83.99v83.99h7.45v-94.24h-11.01l-34.33 86.37zm326.77 7.56h7.45v-68.01h-7.45v68.01zm-.64-94.14v9.72h8.96v-9.72h-8.96zm-13.82 26.12h-10.04l-34.22 27.75V369.2h-7.45v94.14h7.45v-35.95l38.75 35.95h10.04l-41.24-38.32 36.71-29.69zm-97.27-1.72c-15.76 0-26.66 7.99-27.74 19.65l.11-.22h7.66c.97-8.21 8.21-13.82 19.65-13.82 12.31 0 19.54 6.05 19.54 15.87v5.94l-21.48 3.45c-19.97 3.13-27.42 9.82-27.42 21.81s9.93 19.22 23.86 19.22c10.15.54 19.86-4.53 25.26-13.17l1.08 11.23h6.04v-47.61c0-13.82-10.79-22.35-26.56-22.35zm19.11 45.66c0 11.98-11.66 20.19-23.1 20.19-10.69 0-18.14-4.53-18.14-13.71 0-8.1 4.96-13.28 22.02-15.98l19.21-3.13v12.63z" fill="#3eb52d"/></svg>