<svg width="512" height="512" viewBox="0 0 512 512" fill="none" xmlns="http://www.w3.org/2000/svg"><path d="M490.665 154.138c-.106-5.653-4.8-10.133-10.346-10.027-5.44 0-9.92 4.48-10.027 10.027v21.44c-.107 5.653 4.373 10.24 10.027 10.347 5.653.106 10.24-4.374 10.346-10.027v-21.867.107zm-56-28.053a10.286 10.286 0 00-10.88-9.707 10.353 10.353 0 00-9.706 9.707v49.493a10.287 10.287 0 0010.88 9.707 10.353 10.353 0 009.706-9.707v-49.493zm-56.106-38.4c-.107-5.654-4.8-10.134-10.347-10.027-5.44 0-9.92 4.48-10.027 10.027V195.95c-.106 5.654 4.374 10.24 10.027 10.347 5.653.107 10.24-4.373 10.347-10.027V87.578v.107zm-56.214 38.4c.107-5.654-4.373-10.24-10.026-10.347-5.654-.107-10.24 4.373-10.347 10.027v49.92c-.107 5.653 4.373 10.24 10.027 10.346 5.653.107 10.24-4.373 10.346-10.026v-49.92zm-56.106 28.053c0-5.653-4.587-10.133-10.134-10.133-5.546 0-10.133 4.586-10.133 10.133v21.44c0 5.653 4.587 10.133 10.133 10.133 5.547 0 10.134-4.586 10.134-10.133v-21.44zm-56.107-28.053c0-5.654-4.587-10.24-10.24-10.24-5.653 0-10.24 4.586-10.24 10.24v49.493c0 5.653 4.587 10.24 10.24 10.24 5.653 0 10.24-4.587 10.24-10.24v-49.493zm-56.107-38.4c-.106-5.654-4.8-10.134-10.453-10.027-5.44 0-9.92 4.48-10.027 10.027V195.95c.107 5.654 4.8 10.134 10.454 10.027 5.44 0 9.92-4.48 10.026-10.027V87.578v.107zm-56.106 38.4c-.107-5.654-4.8-10.134-10.454-10.027-5.44 0-9.92 4.48-10.026 10.027v49.493c.106 5.653 4.8 10.133 10.453 10.027 5.44 0 9.92-4.48 10.027-10.027v-49.493zm-56.107 28.053c-.107-5.653-4.8-10.133-10.453-10.027-5.44 0-9.92 4.48-10.027 10.027v21.44c.107 5.653 4.8 10.133 10.453 10.027 5.44 0 9.92-4.48 10.027-10.027v-21.44zm210.88 88.747c-6.613-1.6-13.333-2.56-20.053-2.56-18.987 0-30.4 10.24-30.4 25.493 0 13.547 9.6 20.267 21.013 23.893 1.28.427 3.093.96 4.373 1.387 5.12 1.6 9.174 3.947 9.174 8.107 0 4.586-4.694 7.573-14.934 7.573-6.613-.213-13.12-1.173-19.413-2.987v18.774a129.41 129.41 0 0022.187 2.24c15.786 0 33.813-6.934 33.813-27.414 0-9.92-6.08-19.093-19.413-23.36l-5.654-1.813c-3.413-1.067-9.386-2.773-9.386-7.787 0-3.946 4.48-6.72 12.693-6.72 5.44.214 10.88 1.067 16.107 2.454v-17.387l-.107.107zm173.973 39.68c0 11.733-9.706 21.226-21.44 21.12-11.733 0-21.226-9.707-21.12-21.44 0-11.627 9.6-21.12 21.227-21.12 11.627-.107 21.227 9.28 21.333 20.906v.534zm-21.333-42.24c-23.36.426-41.813 19.733-41.387 43.093.427 23.36 19.734 41.813 43.094 41.387 23.04-.427 41.386-19.2 41.386-42.24.214-23.147-18.346-42.027-41.493-42.24h-1.6zm-279.573 2.986c-6.08-1.92-12.374-2.88-18.774-2.986-25.066 0-43.413 17.813-43.413 42.24 0 26.24 20.267 42.24 43.413 42.24 6.4 0 12.694-1.067 18.774-2.88v-21.867a36.468 36.468 0 01-17.28 4.373c-12.054.427-22.08-8.96-22.614-21.013-.426-12.053 8.96-22.08 21.014-22.613h1.6c6.08 0 11.946 1.493 17.28 4.373v-21.867zm214.826 0c-6.08-1.92-12.373-2.88-18.773-2.986-25.067 0-43.413 17.813-43.413 42.24 0 26.24 20.266 42.24 43.413 42.24 6.4 0 12.693-1.067 18.773-2.88v-21.867a36.462 36.462 0 01-17.28 4.373c-12.053.427-22.08-8.96-22.613-21.013-.427-12.053 8.96-22.08 21.013-22.613h1.6c6.08 0 12.054 1.493 17.28 4.373v-21.867zm-165.973 80.107h-20.587v-81.6h20.587v81.6z" fill="#D92844"/><path fill-rule="evenodd" clip-rule="evenodd" d="M246.223 402.233c0-6.195 1.383-11.729 4.15-16.601 2.827-4.932 6.646-8.752 11.458-11.458 4.872-2.767 10.316-4.151 16.33-4.151 7.038 0 13.203 1.805 18.496 5.414 5.293 3.609 8.992 8.601 11.097 14.977h-14.525c-1.444-3.008-3.489-5.263-6.136-6.767-2.586-1.504-5.593-2.256-9.022-2.256-3.669 0-6.947.873-9.834 2.617-2.827 1.684-5.053 4.09-6.677 7.218-1.563 3.127-2.345 6.796-2.345 11.007 0 4.15.782 7.819 2.345 11.007 1.624 3.128 3.85 5.564 6.677 7.308 2.887 1.684 6.165 2.526 9.834 2.526 3.429 0 6.436-.752 9.022-2.255 2.647-1.564 4.692-3.85 6.136-6.857h14.525c-2.105 6.436-5.804 11.458-11.097 15.067-5.233 3.549-11.398 5.323-18.496 5.323-6.014 0-11.458-1.353-16.33-4.06-4.812-2.767-8.631-6.586-11.458-11.458-2.767-4.872-4.15-10.406-4.15-16.601zm84.951-31.397v62.975h-12.631v-62.975h12.631zm-132.933 50.972h25.082l4.15 12h13.353l-22.646-63.066h-14.706l-22.646 63.066h13.263l4.15-12zm12.541-36.45l9.112 26.345h-18.225l9.113-26.345z" fill="#009DDC"/></svg>