<svg width="512" height="512" viewBox="0 0 512 512" fill="none" xmlns="http://www.w3.org/2000/svg"><circle cx="256.5" cy="256.5" r="237.5" fill="url(#paint0_linear_2527_1696)"/><path d="M183.214 242.521h59.307v-59.307l-15.2 15.2L142.907 114 114 142.907l84.414 84.482-15.2 15.2v-.068zm99.954 20.018l84.414-84.482 15.2 15.2v-59.239h-59.307l15.2 15.2-84.414 84.482 28.907 28.907v-.068zm-53.675-4.139l-84.414 84.482-15.2-15.2v59.307h59.307l-15.2-15.2 84.414-84.482-28.907-28.907zm85.025 27.279l15.2-15.2h-59.307v59.307l15.2-15.2L370.093 399 399 370.093l-84.482-84.414z" fill="#fff"/><defs><linearGradient id="paint0_linear_2527_1696" x1="256.5" y1="19" x2="256.5" y2="494" gradientUnits="userSpaceOnUse"><stop stop-color="#3FA8E2"/><stop offset="1" stop-color="#347FB5"/></linearGradient></defs></svg>