<svg width="48" height="48" viewBox="0 0 48 48" fill="none" xmlns="http://www.w3.org/2000/svg"><path fill-rule="evenodd" clip-rule="evenodd" d="M44.594 2.732v7.335a.735.735 0 01-.74.732H12.656a.74.74 0 00-.744.735v15.042a4.37 4.37 0 01-1.306 3.115L3 37.201V2.732C3 2.33 3.331 2 3.743 2h40.11c.41 0 .741.329.741.732zM20.826 20.297c0-.385.312-.696.696-.696h16.546c.384 0 .696.311.696.696v7.41a.696.696 0 01-.697.695H21.523a.696.696 0 01-.696-.696v-7.41zM10.607 44.71L3 37.2h40.853c.41 0 .741.329.741.732v7.335a.737.737 0 01-.74.732H13.761a4.472 4.472 0 01-3.155-1.29z" fill="url(#paint0_linear_1230_8345)"/><defs><linearGradient id="paint0_linear_1230_8345" x1="3" y1="2" x2="3" y2="46.003" gradientUnits="userSpaceOnUse"><stop stop-color="#409"/><stop offset=".331" stop-color="#3E0090"/><stop offset=".879" stop-color="#2C0076"/><stop offset=".996" stop-color="#280070"/></linearGradient></defs></svg>
