<svg data-name="Layer 1" xmlns="http://www.w3.org/2000/svg" viewBox="0 0 512 512"><path d="M174.15 242.32a14.76 14.76 0 0010.49 4.36 14.85 14.85 0 0010.49-25.36 86.13 86.13 0 010-121.69 14.85 14.85 0 00-21-21 115.89 115.89 0 000 163.67zM88.87 380.85H256V186.69a14.85 14.85 0 00-14.85 14.85v112.81H48.5A42.51 42.51 0 006 356.86v77.63A42.51 42.51 0 0048.5 477H256v-66.46H88.87a14.85 14.85 0 010-29.69zM139.61 285a14.76 14.76 0 005.68 1.13 14.84 14.84 0 0010.49-25.36 141.88 141.88 0 010-200.42 14.85 14.85 0 10-21-21 171.6 171.6 0 000 242.4 14.73 14.73 0 004.83 3.25z" fill="#00c8c8"/><path d="M312.77 229a14.93 14.93 0 0025.08 13.52 115.88 115.88 0 000-163.8 14.85 14.85 0 00-21 21 86.16 86.16 0 010 121.68 14.9 14.9 0 00-4.08 7.6zM387 106.36a141.69 141.69 0 01-30.76 154.44 14.85 14.85 0 0010.51 25.36 14.92 14.92 0 005.71-1.14 14.73 14.73 0 004.82-3.24 171.58 171.58 0 000-242.4 14.86 14.86 0 00-21 21A141.82 141.82 0 01387 106.36zm106.51 220.46a42.53 42.53 0 00-30-12.42H270.83V201.54A14.83 14.83 0 00256 186.69v194.16h62.89a14.85 14.85 0 110 29.69H256V477h207.47A42.51 42.51 0 00506 434.49v-77.65a42.53 42.53 0 00-12.49-30.02zm-105.64 74.55a14.84 14.84 0 01-13.72 9.17 14.85 14.85 0 01-12.34-23.1 14.85 14.85 0 0126.06 13.93zm49 0a14.84 14.84 0 01-13.71 9.17 14.85 14.85 0 01-12.35-23.1 14.85 14.85 0 0126.06 13.93z" fill="#00a0aa"/><path d="M256 216.3a55.72 55.72 0 1139.39-16.3A55.69 55.69 0 01256 216.3z" fill="#ff7045"/><path d="M256 104.82V216.3a55.75 55.75 0 100-111.48z" fill="#f64c1c"/></svg>