<svg data-name="Layer 1" xmlns="http://www.w3.org/2000/svg" viewBox="0 0 512 512"><path d="M374 68.79c7-4.87 13-10.94 19.45-16.47 7-6.35 15-12 20.53-20-2.18-2-4.46-3.92-6.76-5.66-7.83 7.68-14 16.87-20.93 25.37-4.04 5.54-8.89 10.67-12.29 16.76zm16.61-53.88a60.93 60.93 0 00-8.61-2.84c-4.59 9.86-7.69 20.53-11.48 30.79-2.3 6.88-5 13.49-6.76 20.53 4.73-6.39 8.11-13.51 12.29-20.39 4.95-9.18 11.22-17.95 14.58-28.09zM227 99.17zm158.7 185.26a49.23 49.23 0 00-42.26-.13 61.67 61.67 0 0137.56 3.37c4.46 1.89 9.45 4.46 11.48 9.31 1.1 2.84-1.89 4.61-3.63 6.22-8.38 6.07-19.72 3.92-28.24-.4-18.13-9.33-31.11-26.61-38.53-45.23-5.95-14.46-10.67-30.12-8.36-45.78 1.34-9.33 3.37-19 0-28.24-3.91-11.05-9.86-21.31-15.39-31.58-1.1 1.62-2.44 3.23-3.66 4.85h-.08c5.28 12.15 13.22 23.1 16.47 36.06 2.7 10.39-1.34 20.65-1.62 31.06-.27 11.34 2.7 22.41 6.49 32.94 5.13 13.91 12 27.55 22.54 38.09 9.85 10 22.83 18.91 37.42 18.09 9.17-.14 16.73-7.83 18.35-16.48.5-5.52-3.96-9.99-8.56-12.15zm41.85-235.5c-8.69 4.06-16.37 9.59-24.34 14.72-7.69 5.28-15.81 10-23.23 15.66 9.33-3.51 18.5-7.56 27.83-11.34 8.27-3.5 16.78-6.34 24.34-11.33a78.62 78.62 0 00-4.62-7.71zm-150.08 85.21c-13.63-11.62-28.08-23.63-35.64-40.24a19.31 19.31 0 00-8 1.06 19.58 19.58 0 00-6.86 4.2c16.47 16.06 32.94 32.26 51.84 45.77 1.22.69 2.43 1.36 3.77 2 1.36-1.62 2.72-3.37 4.06-5.13-3.09-2.53-6.05-5.1-9.17-7.66zm9.17 15.16c1.9-1.1 3.82-2.33 5.72-3.67l.67-1.09c-2.98.27-6.8.94-6.39 4.76z" fill="#f78f1e"/><path d="M213.91 364.05c6.9-2.6 15.16-2.53 21.65 1.17 4.58 2.58 7.72 7 10 11.6 5.4 0 10.8.07 16.26-.06C258 363 245.59 352.17 231.6 349.5c-9.75-1.77-20.26-.34-28.73 4.85v0a39.36 39.36 0 00-16.8 20.83 43.32 43.32 0 004.71 38.32 37.52 37.52 0 0020.15 15.23 42 42 0 0029.75-1.85 39.55 39.55 0 0021.1-24c-5.39-.15-10.85-.08-16.25-.08a27.64 27.64 0 01-5.88 8.13c-8.74 8.33-23.9 8.27-32.57-.07-8.12-7.62-10.59-20.26-7.24-30.78 2.16-7.01 7.16-13.44 14.07-16.03zm-61.85 64.48q6.76.09 13.52 0v-77.59c-4.85-.06-9.76-.06-14.61 0-.14 13.73 0 27.45-.07 41.18-.14 6.44-1.08 13.27-5.19 18.46a18.62 18.62 0 01-13.59 6.49c-5.53.35-11.75-.88-15.5-5.25-4.37-5.08-5.12-12.05-5.33-18.47-.07-14.14.06-28.28-.07-42.41-4.85-.06-9.77-.13-14.62 0h0v44c.21 9.29 1.85 19.4 8.54 26.29 8.47 8.82 22 11.13 33.53 8.14A23.86 23.86 0 00152 420.6c.13 2.66.13 5.26.06 7.93zM253.5 460.8c0-2.76.13-5.52.13-8.17-11.82-.36-23.74-.36-35.67 0 .13 15.37 0 30.75 0 46.22 11.93.13 23.74.13 35.67-.11-.13-2.52 0-5.18 0-7.68-7.71-.61-15.54.11-23.25-.49 0-3.48 0-7 .12-10.44 7.22-.13 14.57-.13 21.8-.13 0-2.74.11-5.39.11-8.15-7.34-.61-14.69.11-22-.48 0-3.48 0-7 .12-10.44 7.56-.26 15.26-.13 22.97-.13zM176.9 482c4.11-1.08 8.68-2 11.92-5 4.22-3.73 6.39-10.44 3.38-15.61-3.61-6.12-11-8.77-17.83-8.88-8-.25-16.25-.13-24.32 0-.12 15.36-.12 30.85 0 46.33q6.12.19 12.28 0c0-5.65 0-11.4.11-17.17 5.79 5.54 10.84 11.88 17 17.06a122.28 122.28 0 0014.58 0c-5.56-5.73-11.33-11.15-17.12-16.73zm-14.57-7.41v-13.67c5.66.11 12.4-1.44 17.1 2.64 3 2.39 1.94 7.21-1.21 9-4.69 2.79-10.59 1.94-15.89 2.07zm83.28-410.53c3.11 6.87 7.83 14 6.35 22-1 4.86-6.23 6.2-10 7.83 7.56 16.61 22 28.62 35.64 40.24 1.21-2 2-4.87 4.32-6.09a10.15 10.15 0 017.85 1.22c11.6 6.35 22.51 13.77 34.68 19.19a8.11 8.11 0 0010.95-3.25c1.75-3.91-1.5-7.56-3.79-10.52-7.58-9-16.65-16.76-24.34-25.66-1.48-2.29-4.46-5.68-1.62-8.12 10.4-10.67 25.92-14 37.14-23.48C348 73 343.86 62.84 337 64.06c-15.4 1.74-30.53 6.35-46 6.47a16 16 0 01-12.7-6.74c-4.06-5.94-6.9-12.69-10.81-18.9-1.22-3-4.59-1.5-6.88-1.1h0c-.93 9.19 5.27 16.76 8.11 25a3.52 3.52 0 01.28 1.75 3.57 3.57 0 01-.59 1.67 3.68 3.68 0 01-1.33 1.18 3.53 3.53 0 01-1.72.39c-6.23-7.56-8.93-17.42-15.14-25.11-2.15-2.84-6.2-1.21-8.49.41-3.8 3-8.38 6.47-7.71 11.74 3.76.95 9.98-1.63 11.59 3.24zM54.93 398.76c7.71-.49 15.91-3.57 20.35-10.26 6.35-9.91 5.12-24.51-4-32.37-7.72-6.84-18.65-8-28.55-8-11.67.08-23.27-.06-34.88.08h0v80.32q7.58.09 15.16 0c.07-23.09.07-46.24 0-69.32 3.83-.28 7.64-.08 11.47-.15 5.47.07 11-.41 16.26 1.1 4.5 1.16 9.08 3.55 11.47 7.71a12.53 12.53 0 01-1.1 14.13c-2.66 3.15-6.56 4.85-10.38 5.95-7.58 2-15.5 1.63-23.29 1.78 6.65 7.92 13.69 15.42 20.52 23.21 4.78 5.31 9.36 10.87 14.61 15.57 7.31.21 14.69.14 22 0-9.84-10.01-19.95-19.7-29.64-29.75zm240.25-256c-2.44-1.88-5.68-.95-8.52-.95-1.34 1.76-2.7 3.51-4.06 5.13.15 3 0 6.49 2.58 8.38 2.56 2.43 6.35 2 9.45 1.48 1.22-1.62 2.56-3.23 3.65-4.85a8.6 8.6 0 00-3.1-9.19zm-3.25 10.81c-3 1.48-4.87-1.62-6.49-3.65l1.21-.67c1.89-1.09 3.8-2.31 5.68-3.65 3.92.4 3.37 7.3-.4 7.99zM60.55 484.33c-3.37-10.57-7.09-21.13-10.48-31.81q-4.68-.18-9.39 0c-3.72 10.57-7 21.24-11.07 31.68-3.15-9.12-6.39-18.25-9.52-27.37-.72-1.44-.72-3.48-2.17-4.44-4-.12-8 0-11.92.13 6 15.47 12.52 31 18.91 46.32 3.25.13 6.49.13 9.75.13 3.62-10.08 7.11-20.16 10.6-30.26 3.85 9.7 6.62 19.82 10.48 29.54 3 1.57 6.74.36 10.11.59 6.15-15.47 12.77-30.72 18.67-46.32-4.22-.13-8.3-.13-12.52-.13-3.85 10.7-7.24 21.5-11.45 31.94zm47.81-31.7c.13 15.36 0 30.74 0 46.22q6.15.19 12.29 0c.25-15.48.13-31 0-46.33a81.33 81.33 0 00-12.29.11zM356.89 350.8h0zm55.33 69.74c.13 2.65.07 5.32.13 8 4.39.06 8.9.06 13.33 0 0-25.89-.06-51.71 0-77.52q-7.35-.31-14.75 0c.08 14.14 0 28.35.08 42.54-.17 6.34-1.54 13.2-6.11 18s-11.68 6.21-18 5.25a15.53 15.53 0 01-11.81-7.37c-3.89-6.62-3.61-14.61-3.55-22.06v-36.51c-4.84 0-9.76 0-14.6-.07-.15 15.17 0 30.33-.07 45.48.25 8.89 2.05 18.45 8.46 25 8.47 8.75 22.07 11.06 33.54 8.07a24 24 0 0013.35-8.81zm2.19 47.7a4 4 0 01-2.64-2.51 3.84 3.84 0 01-.2-1.87 4 4 0 01.67-1.75c3.75-4.2 11.09-2.63 13.37 2.29 3.86 1.44 8.43.36 12.54.47A14.79 14.79 0 00430 454c-8.42-3.84-19.52-3.73-26.86 2.4H403c-5.17 4.2-5.3 13.07.13 17 6 4.8 14.2 4.69 20.84 8a4.73 4.73 0 011.79 1.27 4.65 4.65 0 011 1.93 4.72 4.72 0 010 2.18 4.84 4.84 0 01-1 1.95c-4.92 4.92-14.33 3.48-16.73-3.36-4.22 0-8.31 0-12.41.11.48 7.45 7.6 12.24 14.34 13.68 8 1.45 17 .85 23.52-4.2 5.66-4.07 6.62-13.43 1.45-18.24-5.74-5.59-14.4-5.59-21.52-8.48zm80.21 5.38c-5.43-2.87-11.82-3-17.36-5.65a3.87 3.87 0 01-2.11-5.11 3.79 3.79 0 011.26-1.59 8.29 8.29 0 017.23-1.31 8.29 8.29 0 015.44 4.91c4.1.13 8.2.25 12.3 0a15.29 15.29 0 00-3.61-7.68c-6-5.88-15.42-6.73-23.26-4.92-5.53 1.33-11.68 5.41-12.05 11.64h0a11 11 0 005.07 10.33c6 3.95 13.84 3.95 20.23 7.32a4.66 4.66 0 011.67 1.45 4.69 4.69 0 01.61 4.25 4.74 4.74 0 01-1.2 1.86c-4.95 4.32-14.11 3.11-16.28-3.61a117.76 117.76 0 00-12.88.13c1 3.35 2.17 7 5.18 9.12 7.1 5.52 17 6.24 25.54 4 6.13-1.57 12.39-6.37 12.28-13.33.47-5.32-3.49-9.76-8.06-11.81zm-8.23-44.74c6.08-1.58 11.95-5 15.65-10.26 4.84-7 5.45-17 .67-24.17-3.62-5.53-9.56-8.89-15.63-11.07-4.31-1.63-8.81-2.53-13.26-3.83-2.73-.81-5.59-1.84-7.64-3.89a7.73 7.73 0 01.06-10.59c3.71-3.62 9.66-4 14.36-2.39 3.7 1.31 6 4.72 6.84 8.41 5.49.2 10.94.07 16.41.07a18.08 18.08 0 00-3.28-10.72c-3.35-4.78-8.67-7.93-14.14-9.64a35.92 35.92 0 00-22.88.62h-.05c-5.8 2.19-11.13 6.28-13.93 11.88-3.61 7.24-2.05 16.81 4.1 22.13 6.43 5.6 15 7.3 22.89 9.84 4.23 1.42 8.95 3 11.68 6.76 3.07 4.64.68 11.33-4.17 13.65-6 3-13.93 2.53-19.25-1.77-3.15-2.6-4.18-6.69-5.06-10.52-5.33.06-10.72.06-16.12.06a23.65 23.65 0 003 12.23A26 26 0 00458.12 426a41.23 41.23 0 0028.27 2.88zm-136.27-.39c-10.59-13.86-21.72-27.25-32.38-41 9.22-12.23 18.85-24.18 27.86-36.54-6-.14-12.08-.07-18.09 0-8.88 12.56-17.82 25.06-26.57 37.7q14.79 19.08 29.44 38.1c.68.81 1.29 2 2.53 1.78q8.6.05 17.21-.04zm.1 62.24v-10.6c7.13-.24 14.36-.13 21.71 0a51.93 51.93 0 000-8.64q-10.86.17-21.71 0v-10.56c7.58-.26 15.18-.13 22.76 0 .12-2.89.12-5.77 0-8.66-11.56.12-23.25.12-34.81.12v0c-.6 15.49-.24 31-.24 46.46 11.65.12 23.49.12 35.17 0 0-2.64 0-5.4-.12-8.16q-11.4.21-22.76.04zm-57.12-62.18c.06-34.49 0-69 .06-103.48-5-.27-9.9-.13-14.89-.07v103.55c4.99 0 9.91.06 14.83 0zm1.83 62.38c-.36-12.84.13-25.8-.23-38.66-4 .12-8 .12-12.05.12-.48 15.49-.13 31-.13 46.46q16.07.19 32.17 0v-7.92c-6.63-.12-13.14-.12-19.76 0zm.35-186.26c-.81-5.8-6.87-7.57-10.79-10.93-6.23-4.47-7.16-12.84-8.78-19.72-4.87-28.64-4.47-57.81-6.76-86.55 0-2.17-.67-5 1.63-6.35 3.65 2.82 4.32 7.69 5.67 11.74 5.14 18.5 7.14 37.67 10.65 56.43 2.72 13.79 3.8 29.46 14.46 39.72 6.07 6.21 15.66 5.54 23.49 3.63.55-2.7.67-5.92-2.14-7.55-5.28-1.9-11.63-1.35-15.81-5.54-6.49-6.34-7-15.8-8.78-24-6.9-36.73-13.63-73.59-19.31-110.59-18.91-13.5-35.38-29.71-51.85-45.78a218.24 218.24 0 01-89.24 12.17h0c-6.47-.14-12.82-3.24-19.17-1.36-.14 2.44-.41 5 1.22 7 4.17 6.64 10 12.82 11.33 20.94a68.52 68.52 0 01-1.21 27.68c-1.48 5.95-6.35 10-9.17 15.26.42 21.48 1.62 43.08 2 64.68 0 8.9.81 17.95-.13 26.87a43.24 43.24 0 002.41 23.04 18.59 18.59 0 0013.08 10.81c2.84-.67 2.58-4.32 2.58-6.61-.14-6.23-6.21-9.74-8.38-15a74.48 74.48 0 01.81-13.51c2.29-26.61 4.59-53.06 6.9-79.68a10.94 10.94 0 012.55-6.75c3.11-1.22 5.13 2 6.49 4.32 2.3 4.73-3.12 8.64-2.31 13.25 1.22 23.89 2.72 47.66 3.51 71.56.29 7.16-1.34 14.32 0 21.48A18.8 18.8 0 00167.7 306a13.6 13.6 0 00-4.06-13c-4.34-3.23-3.79-9-4.06-13.78.41-20.18 1.34-40.46 1.75-60.75.55-12 1.76-24.58 8.23-34.84a17.47 17.47 0 0113.11-8.24c14.05-1.62 28.09.55 41.86 3 8.9 1.62 18.07 5.13 24.16 12a29 29 0 016.49 14.85c5 24.91 7.83 50.36 11.07 75.62 1.75 8.25 5.13 16.63 11.48 22.31a15.52 15.52 0 0017.55 1.48z" fill="#009ddc" stroke="#009ddc" stroke-miterlimit="10" stroke-width=".179"/></svg>