<svg width="48" height="48" viewBox="0 0 48 48" fill="none" xmlns="http://www.w3.org/2000/svg"><path d="M31.556 26.229a5.666 5.666 0 01-1.31 2.392c-1.253 1.196-3.274 1.48-4.043 1.538l.313-1.31h.029c.768-.2 1.338-.456 1.68-.798.38-.407.646-.908.768-1.452.456-1.509.969-3.53 1.538-6.037l2.534-.37-1.509 6.037zm11.532-6.836c1.225 0 2.108.399 2.563.968.253.334.375.75.342 1.168-.114 1.196-1.51 1.652-2.164 1.765l-3.93.712c.341 2.389 4.572.263 5.152-.027l.005-.004-.427 1.68c-.598.257-2.79 1.14-4.898.684-2.107-.456-2.591-1.88-2.506-2.734a3.13 3.13 0 01.053-.488l.001-.022a4.329 4.329 0 011.737-2.449c.993-.745 2.04-1.115 3.528-1.215l.146-.038h.398zM5.161 26.458H2l2.42-6.664h3.161l-2.42 6.664zm13.328-2.253c-.142.712.57.94 1.395.883.826-.057 1.396-.598 1.453-.655.057-.057.085-.085.085-.142h.029c.083-.174.15-.355.199-.541.456-1.538.94-4.272.94-4.272h2.534c-.028.114-.968 4.386-1.253 5.24-.541 1.651-1.936 1.737-5.923 1.737a3.365 3.365 0 01-1.281-.2c-.655-.227-.969-.711-.855-1.366l1.253-5.41h2.592l-1.168 4.726zm-5.61-6.775c1.423.028 2.505.54 2.904 1.51.116.269.175.56.17.853 0 1.908-2.277 3.161-4.954 3.247a24.266 24.266 0 013.787 3.417h-3.901L7.439 23.04s5.468-1.424 5.468-3.076a.655.655 0 00-.114-.398c-.398-.74-1.902-.712-1.909-.712H2.825l.598-1.424h9.455zm14.635 9.025h-2.42l1.224-5.154 2.534-.456-1.338 5.61zm8.116 0h-2.42l1.509-6.493 2.363-.285h.143l-1.595 6.777zm6.433-3.445c2.079-.428 2.05-2.563.57-2.136-2.33.654-2.732 2.527-2.734 2.534l2.164-.398zM40.47 17c1.305.021 2.608.116 3.901.285l.798.142-1.88.057c-3.046.2-9.368.797-16.032 2.82l-.797.227.399-1.908C31.045 17.456 35.829 17 39.644 17h.826z" fill="#D5002E"/></svg>