<svg data-name="Layer 1" xmlns="http://www.w3.org/2000/svg" viewBox="0 0 512 512"><path d="M448.81 184.59h-121.4v-23.87a14.22 14.22 0 014.19-10.11l20.23-20.23a43 43 0 10-20.2-20.2l-20.23 20.23a42.51 42.51 0 00-12.55 30.31v23.87h-28.57V89.25a42.85 42.85 0 10-28.56 0v95.34h-28.57v-23.87a42.49 42.49 0 00-12.55-30.3l-20.23-20.24a43 43 0 10-20.2 20.2l20.23 20.23a14.22 14.22 0 014.19 10.11v23.87H63.19a42.9 42.9 0 00-42.85 42.85v57.12a42.9 42.9 0 0042.85 42.85h121.4v23.87a14.22 14.22 0 01-4.19 10.11l-20.23 20.23a43 43 0 1020.2 20.2l20.23-20.23a42.51 42.51 0 0012.55-30.31v-23.87h28.57v95.34a42.85 42.85 0 1028.56 0v-95.34h28.57v23.87a42.49 42.49 0 0012.55 30.3l20.23 20.24a43 43 0 1020.2-20.2l-20.23-20.23a14.22 14.22 0 01-4.19-10.11v-23.87h121.4a42.9 42.9 0 0042.85-42.85v-57.12a42.9 42.9 0 00-42.85-42.85zM370.26 77.47A14.29 14.29 0 11356 91.75a14.28 14.28 0 0114.26-14.28zM141.74 106A14.29 14.29 0 11156 91.75 14.28 14.28 0 01141.74 106zm0 328.49A14.29 14.29 0 11156 420.25a14.28 14.28 0 01-14.26 14.28zM370.26 406A14.29 14.29 0 11356 420.25 14.28 14.28 0 01370.26 406zM256 34.63a14.28 14.28 0 11-14.28 14.28A14.28 14.28 0 01256 34.63zm0 442.74a14.28 14.28 0 1114.28-14.28A14.28 14.28 0 01256 477.37zm207.09-192.81a14.3 14.3 0 01-14.28 14.29H63.19a14.3 14.3 0 01-14.28-14.29v-57.12a14.3 14.3 0 0114.28-14.29h385.62a14.3 14.3 0 0114.28 14.29zm-42.84-42.84A14.28 14.28 0 10434.53 256a14.28 14.28 0 00-14.28-14.28zm-85.7 0A14.28 14.28 0 10348.83 256a14.28 14.28 0 00-14.28-14.28zm42.85 0A14.28 14.28 0 10391.68 256a14.28 14.28 0 00-14.28-14.28z" fill="#1d83d4"/></svg>