<svg data-name="Layer 1" xmlns="http://www.w3.org/2000/svg" viewBox="0 0 512 512"><path d="M441.68 20.26H70.32A50.41 50.41 0 0020 70.61v370.78a50.41 50.41 0 0050.35 50.35h371.33A50.41 50.41 0 00492 441.39V70.61a50.41 50.41 0 00-50.32-50.35zm-104.8 118.79l-66.62 116.07L337 371.33h51v-34.14l80.86 45.55L388 428.29v-33.68h-57.79a11.62 11.62 0 01-10.09-5.85l-63.28-110.25-63.29 110.25a11.62 11.62 0 01-10.09 5.85h-57.78v33.68l-80.86-45.55 80.86-45.55v34.14h51l66.69-116.21-66.58-116.07h-51.11v34.14l-80.86-45.55 80.86-45.55v33.68h57.85a11.65 11.65 0 0110.1 5.85l63.21 110.12L320 121.62a11.65 11.65 0 0110.1-5.85H388V82.09l80.86 45.55L388 173.19v-34.14z" fill="#36c6f4"/><path d="M441.68 6.29H70.32A64.39 64.39 0 006 70.61v370.78a64.39 64.39 0 0064.32 64.32h371.36A64.39 64.39 0 00506 441.39V70.61a64.39 64.39 0 00-64.32-64.32zM492 441.39a50.41 50.41 0 01-50.35 50.35H70.32A50.41 50.41 0 0120 441.39V70.61a50.41 50.41 0 0150.32-50.35h371.36A50.41 50.41 0 01492 70.61z" fill="#1a99ce"/><path d="M468.85 127.64L388 82.09v33.68h-57.86a11.65 11.65 0 00-10.1 5.85l-63.2 110.12-63.21-110.12a11.65 11.65 0 00-10.1-5.85h-57.85V82.09l-80.86 45.55 80.86 45.55v-34.14h51.11l66.62 116.07-66.69 116.21h-51v-34.14l-80.9 45.55 80.86 45.55v-33.68h57.78a11.62 11.62 0 0010.09-5.85l63.29-110.25 63.28 110.25a11.62 11.62 0 0010.09 5.85H388v33.68l80.86-45.55L388 337.19v34.14h-51l-66.7-116.21 66.62-116.07H388v34.14z" fill="#fff"/></svg>