<svg data-name="Layer 1" xmlns="http://www.w3.org/2000/svg" viewBox="0 0 24 24"><path d="M12 15a3 3 0 00-1.67.51 3 3 0 00-1.1 1.34 3 3 0 003.92 3.92 3 3 0 001.34-1.1A3 3 0 0015 18a3 3 0 00-3-3zm.71 3.71a1 1 0 01-1.27.12.94.94 0 01-.36-.45 1 1 0 01-.08-.58 1 1 0 01.8-.8 1 1 0 01.58.06.94.94 0 01.45.36 1 1 0 01-.12 1.27zm10.12-11a1 1 0 00-.22-.33 15 15 0 00-21.22 0 1 1 0 001.42 1.43 13 13 0 0118.38 0 1 1 0 00.33.22.94.94 0 00.76 0 1 1 0 00.55-.55.94.94 0 000-.76zM17 13.05a7.06 7.06 0 00-9.95 0 1 1 0 001.41 1.41 4.92 4.92 0 011.62-1.09 5 5 0 013.84 0 4.92 4.92 0 011.62 1.09 1 1 0 00.7.3 1.08 1.08 0 00.58-.14 1.06 1.06 0 00.39-.45 1 1 0 00.07-.59 1.05 1.05 0 00-.28-.53zm2.78-2.83a11 11 0 00-15.56 0 1 1 0 00-.22.33 1 1 0 001.64 1.09 9 9 0 0112.72 0 1 1 0 00.33.22 1.07 1.07 0 00.76 0 1 1 0 00.55-.55.94.94 0 000-.76 1 1 0 00-.22-.33z" fill="#1d83d4"/></svg>