<svg data-name="Layer 1" xmlns="http://www.w3.org/2000/svg" viewBox="0 0 512 512"><path d="M130.32 218.73a31.52 31.52 0 1031.52 31.52 31.52 31.52 0 00-31.52-31.52zm0 44.42a12.9 12.9 0 1112.9-12.9 12.92 12.92 0 01-12.9 12.9zM256 218.73a31.52 31.52 0 1031.52 31.52A31.52 31.52 0 00256 218.73zm0 44.42a12.9 12.9 0 1112.9-12.9 12.92 12.92 0 01-12.9 12.9zm125.68-44.42a31.52 31.52 0 1031.52 31.52 31.52 31.52 0 00-31.52-31.52zm0 44.42a12.9 12.9 0 1112.9-12.9 12.92 12.92 0 01-12.9 12.9z" fill="#f58520"/><path d="M345.84 110.47a9.31 9.31 0 1013.47-12.85 140.61 140.61 0 00-102.71-44A142.27 142.27 0 00152 99.61a9.31 9.31 0 1013.72 12.59 123.6 123.6 0 0190.85-40 122.19 122.19 0 0189.27 38.27zM131.74 78a9.29 9.29 0 006.73-2.87A163.34 163.34 0 01374 74.37a9.31 9.31 0 1013.37-13 182 182 0 00-262.37.91A9.3 9.3 0 00131.74 78zm124.86 23.8a103 103 0 00-77.52 35.2 9.31 9.31 0 1014 12.26 84.35 84.35 0 01124.62-2.63 9.31 9.31 0 0013.48-12.84 102 102 0 00-74.58-31.97zM435 177.1H77.05a21.51 21.51 0 00-21.48 21.48v102.94A21.51 21.51 0 0077.05 323h119.63v28.86h-24.47a9.3 9.3 0 00-7.52 3.83l-69 94.82-.1.15-.19.29c-.09.13-.17.27-.25.4l-.18.33c-.07.14-.14.28-.2.43a3.13 3.13 0 00-.15.32 6 6 0 00-.26.71c0 .12-.07.23-.1.35a3.59 3.59 0 00-.12.47c0 .11 0 .23-.07.35a4.51 4.51 0 00-.08.53v.3a8.06 8.06 0 000 .85v40.7a9.31 9.31 0 009.31 9.31h304a9.31 9.31 0 009.31-9.31v-45.48a9.31 9.31 0 00-1.88-5.61l-67.83-90a9.28 9.28 0 00-7.43-3.71h-21.76V323H435a21.51 21.51 0 0021.48-21.48V198.58A21.51 21.51 0 00435 177.1zm-37 310.28H112.5V465.3h285.41zm-63.16-116.9l57.4 76.2H121.48l55.52-76.2zM215.3 351.86V323h83.79v28.86zm222.51-50.34a2.87 2.87 0 01-2.86 2.86H77.05a2.87 2.87 0 01-2.86-2.86V198.58a2.87 2.87 0 012.86-2.86H435a2.87 2.87 0 012.86 2.86z" fill="#2f81c4"/></svg>