<svg xmlns="http://www.w3.org/2000/svg" viewBox="0 0 48 48"><path fill="currentColor" d="m24.86,24.54c-.08-.31-.24-.6-.47-.83-.23-.23-.52-.39-.83-.48-.31-.08-.64-.08-.96,0L3.9,28.44c-.36.1-.68.31-.92.59-.24.29-.38.64-.42,1.01-.03.37.05.74.23,1.07.18.32.46.58.8.74l3.8,1.83-4.4,4.37c-.3.26-.54.57-.71.92-.17.35-.27.73-.29,1.13-.05,1.2.61,2.43,2.06,3.88.92.94,2.14,1.99,3.62,1.99.08,0,.17,0,.25,0,.65-.05,1.58-.34,2.39-1.41l4.16-4.27,1.68,4c.15.35.4.65.72.85.32.2.7.29,1.08.27.38-.02.74-.16,1.04-.4.3-.24.51-.56.61-.93l5.24-18.57c.09-.31.09-.64.01-.96Zm-7.35,13.51l-.73-1.72c-.12-.28-.3-.52-.54-.71-.23-.19-.51-.32-.81-.37-.3-.06-.6-.04-.89.05-.29.09-.55.25-.76.47l-6.18,6.34s-.05.06-.08.09c-.31-.23-.6-.48-.86-.76,0,0-.01-.01-.02-.02-.31-.3-.6-.63-.85-.99l6-5.96c.21-.21.36-.46.45-.74.09-.28.11-.57.06-.86-.05-.29-.17-.56-.34-.79-.18-.23-.4-.42-.67-.55l-1.76-.85,10.9-3.03-2.94,10.41Zm21.28-14.58c0-7.86-6.39-14.25-14.25-14.25s-14.21,6.35-14.25,14.18l3.71-1.03c.28-2.7,1.59-5.18,3.66-6.95,2.06-1.76,4.72-2.67,7.43-2.52,2.71.14,5.26,1.32,7.13,3.29s2.91,4.58,2.91,7.29c0,5.44-4.13,9.94-9.42,10.53l-1.05,3.73c7.8-.07,14.12-6.43,14.12-14.25Zm6.79-4.19c-.83-4.16-2.87-7.99-5.87-10.99h0c-3-2.99-6.82-5.04-10.98-5.86-4.16-.83-8.47-.4-12.4,1.22-3.92,1.62-7.27,4.37-9.63,7.9-2.36,3.53-3.62,7.67-3.62,11.92,0,.64.03,1.28.09,1.91l3.59-1c-.02-.3-.02-.6-.02-.91,0-9.81,7.98-17.8,17.8-17.8s17.8,7.98,17.8,17.8-7.98,17.8-17.8,17.8c-.29,0-.58,0-.87-.02l-1.01,3.6c.62.05,1.25.08,1.88.08,4.24,0,8.39-1.26,11.92-3.61s6.28-5.71,7.9-9.63c1.62-3.92,2.05-8.24,1.22-12.4Zm-17.71,7.06l-1.19,4.23c1.23-.37,2.35-1.06,3.23-1.99.89-.93,1.52-2.08,1.83-3.33.31-1.25.29-2.56-.06-3.8-.35-1.24-1.01-2.37-1.93-3.27-.92-.9-2.05-1.56-3.3-1.89s-2.55-.34-3.8-.01c-1.25.33-2.38.97-3.31,1.87-.92.9-1.59,2.02-1.95,3.26l4.35-1.21c.41-.11.83-.17,1.26-.18.68-.3,1.43-.39,2.16-.27.73.13,1.41.47,1.95.98.54.51.91,1.17,1.08,1.89.17.72.11,1.48-.15,2.17.02.52-.04,1.04-.18,1.54Z"/></svg>