<svg xmlns="http://www.w3.org/2000/svg" viewBox="0 0 48 48"><path fill="currentColor" d="m7.82,9.87c-.41,0-.81.17-1.09.45-.29.29-.45.69-.45,1.09v25.17c0,.41.16.8.45,1.09.58.58,1.61.58,2.19,0,.29-.29.45-.68.45-1.09V11.42c0-.41-.17-.81-.45-1.09-.29-.29-.68-.45-1.09-.45Zm33.79,13.55h0c-.07-.2-.18-.37-.33-.52l-7.19-7.19c-.15-.15-.32-.26-.5-.34-.57-.24-1.26-.1-1.69.34-.29.29-.46.68-.46,1.1s.16.81.46,1.1l4.56,4.54H15.01c-.41,0-.8.16-1.09.45-.29.29-.45.68-.45,1.09s.16.8.45,1.09c.29.29.68.45,1.09.45h21.44l-4.56,4.54c-.15.15-.26.31-.34.5-.08.19-.12.39-.12.6s.04.41.12.59c.08.19.19.36.34.5.15.15.32.26.5.34.38.16.81.16,1.19,0,.19-.08.36-.19.5-.34l7.19-7.19c.14-.14.25-.32.32-.51.16-.38.16-.8,0-1.18Z"/></svg>