<svg xmlns="http://www.w3.org/2000/svg" viewBox="0 0 48 48"><path fill="currentColor" d="M14,22h28c.4,0,.8-.1,1.1-.3,.3-.2,.6-.5,.7-.9,.2-.4,.2-.8,0-1.2,0-.4-.3-.7-.5-1l-8-8c-.2-.2-.4-.3-.7-.4-.2,0-.5-.2-.8-.2s-.5,0-.8,.2c-.2,0-.5,.3-.7,.4-.2,.2-.3,.4-.4,.7-.1,.2-.2,.5-.2,.8s0,.5,.2,.8c.1,.2,.3,.5,.4,.7l4.6,4.6H13.8c-.5,0-1,.2-1.4,.6s-.6,.9-.6,1.4,.2,1,.6,1.4,.9,.6,1.4,.6l.2-.2Zm-10,6.4c0,.4,.3,.7,.5,1l8,8c.2,.2,.4,.3,.7,.4,.2,.1,.5,.2,.8,.2,.5,0,1-.2,1.4-.6,.4-.4,.6-.9,.6-1.4s-.2-1-.6-1.4l-4.6-4.6h23.2c.5,0,1-.2,1.4-.6s.6-.9,.6-1.4-.2-1-.6-1.4c-.4-.4-.9-.6-1.4-.6H6c-.4,0-.8,.1-1.1,.3-.3,.2-.6,.5-.7,.9-.2,.4-.2,.8,0,1.2h-.1Z"/></svg>