<svg xmlns="http://www.w3.org/2000/svg" viewBox="0 0 48 48"><path fill="currentColor" d="M35.6583 22.58L27.6583 14.58C27.4718 14.3935 27.2504 14.2456 27.0068 14.1447C26.7631 14.0438 26.502 13.9918 26.2383 13.9918C25.9746 13.9918 25.7134 14.0438 25.4698 14.1447C25.2261 14.2456 25.0048 14.3935 24.8183 14.58C24.6318 14.7665 24.4839 14.9879 24.383 15.2315C24.282 15.4751 24.2301 15.7363 24.2301 16C24.2301 16.2637 24.282 16.5249 24.383 16.7685C24.4839 17.0121 24.6318 17.2335 24.8183 17.42L29.4183 22H6.23828C5.70785 22 5.19914 22.2107 4.82407 22.5858C4.44899 22.9609 4.23828 23.4696 4.23828 24C4.23828 24.5304 4.44899 25.0391 4.82407 25.4142C5.19914 25.7893 5.70785 26 6.23828 26H29.4183L24.8183 30.58C24.6308 30.7659 24.482 30.9871 24.3805 31.2308C24.279 31.4746 24.2267 31.736 24.2267 32C24.2267 32.264 24.279 32.5254 24.3805 32.7692C24.482 33.0129 24.6308 33.2341 24.8183 33.42C25.0042 33.6075 25.2254 33.7562 25.4691 33.8578C25.7128 33.9593 25.9743 34.0116 26.2383 34.0116C26.5023 34.0116 26.7637 33.9593 27.0074 33.8578C27.2512 33.7562 27.4724 33.6075 27.6583 33.42L35.6583 25.42C35.8404 25.2298 35.9831 25.0055 36.0783 24.76C36.2783 24.2731 36.2783 23.7269 36.0783 23.24C35.9831 22.9945 35.8404 22.7702 35.6583 22.58ZM42.2383 8C41.7078 8 41.1991 8.21071 40.8241 8.58579C40.449 8.96086 40.2383 9.46957 40.2383 10V38C40.2383 38.5304 40.449 39.0391 40.8241 39.4142C41.1991 39.7893 41.7078 40 42.2383 40C42.7687 40 43.2774 39.7893 43.6525 39.4142C44.0276 39.0391 44.2383 38.5304 44.2383 38V10C44.2383 9.46957 44.0276 8.96086 43.6525 8.58579C43.2774 8.21071 42.7687 8 42.2383 8V8Z"/></svg>