<svg xmlns="http://www.w3.org/2000/svg" viewBox="0 0 48 48"><path fill="currentColor" d="M42 22H18.82L23.42 17.42C23.6065 17.2335 23.7544 17.0121 23.8553 16.7685C23.9562 16.5249 24.0082 16.2637 24.0082 16C24.0082 15.7363 23.9562 15.4751 23.8553 15.2315C23.7544 14.9879 23.6065 14.7665 23.42 14.58C23.2335 14.3935 23.0121 14.2456 22.7685 14.1447C22.5249 14.0438 22.2637 13.9918 22 13.9918C21.7363 13.9918 21.4751 14.0438 21.2315 14.1447C20.9879 14.2456 20.7665 14.3935 20.58 14.58L12.58 22.58C12.3979 22.7702 12.2552 22.9945 12.16 23.24C11.96 23.7269 11.96 24.2731 12.16 24.76C12.2552 25.0055 12.3979 25.2298 12.58 25.42L20.58 33.42C20.7659 33.6075 20.9871 33.7562 21.2308 33.8578C21.4746 33.9593 21.736 34.0116 22 34.0116C22.264 34.0116 22.5254 33.9593 22.7692 33.8578C23.0129 33.7562 23.2341 33.6075 23.42 33.42C23.6075 33.2341 23.7562 33.0129 23.8578 32.7692C23.9593 32.5254 24.0116 32.264 24.0116 32C24.0116 31.736 23.9593 31.4746 23.8578 31.2308C23.7562 30.9871 23.6075 30.7659 23.42 30.58L18.82 26H42C42.5304 26 43.0391 25.7893 43.4142 25.4142C43.7893 25.0391 44 24.5304 44 24C44 23.4696 43.7893 22.9609 43.4142 22.5858C43.0391 22.2107 42.5304 22 42 22ZM6 6C5.46957 6 4.96086 6.21071 4.58579 6.58579C4.21071 6.96086 4 7.46957 4 8V40C4 40.5304 4.21071 41.0391 4.58579 41.4142C4.96086 41.7893 5.46957 42 6 42C6.53043 42 7.03914 41.7893 7.41421 41.4142C7.78929 41.0391 8 40.5304 8 40V8C8 7.46957 7.78929 6.96086 7.41421 6.58579C7.03914 6.21071 6.53043 6 6 6V6Z"/></svg>