<svg xmlns="http://www.w3.org/2000/svg" viewBox="0 0 48 48"><path fill="currentColor" d="M17.9922 36.5059C16.3356 36.5059 14.9922 37.8493 14.9922 39.5059C14.9922 41.1624 16.3356 42.5059 17.9922 42.5059C19.6488 42.5059 20.9922 41.1624 20.9922 39.5059C20.9922 37.8493 19.6488 36.5059 17.9922 36.5059ZM17.9922 21.5059C16.3356 21.5059 14.9922 22.8493 14.9922 24.5059C14.9922 26.1624 16.3356 27.5059 17.9922 27.5059C19.6488 27.5059 20.9922 26.1624 20.9922 24.5059C20.9922 22.8493 19.6488 21.5059 17.9922 21.5059ZM29.9922 12.5059C31.6488 12.5059 32.9922 11.1624 32.9922 9.50586C32.9922 7.8493 31.6488 6.50586 29.9922 6.50586C28.3356 6.50586 26.9922 7.8493 26.9922 9.50586C26.9922 11.1624 28.3356 12.5059 29.9922 12.5059ZM29.9922 21.5059C28.3356 21.5059 26.9922 22.8493 26.9922 24.5059C26.9922 26.1624 28.3356 27.5059 29.9922 27.5059C31.6488 27.5059 32.9922 26.1624 32.9922 24.5059C32.9922 22.8493 31.6488 21.5059 29.9922 21.5059ZM17.9922 6.50586C16.3356 6.50586 14.9922 7.8493 14.9922 9.50586C14.9922 11.1624 16.3356 12.5059 17.9922 12.5059C19.6488 12.5059 20.9922 11.1624 20.9922 9.50586C20.9922 7.8493 19.6488 6.50586 17.9922 6.50586ZM29.9922 36.5059C28.3356 36.5059 26.9922 37.8493 26.9922 39.5059C26.9922 41.1624 28.3356 42.5059 29.9922 42.5059C31.6488 42.5059 32.9922 41.1624 32.9922 39.5059C32.9922 37.8493 31.6488 36.5059 29.9922 36.5059Z"/></svg>