<svg xmlns="http://www.w3.org/2000/svg" viewBox="0 0 48 48"><path fill="currentColor" d="M35.42 22.58L27.42 14.58C27.2335 14.3935 27.0121 14.2456 26.7685 14.1447C26.5249 14.0438 26.2637 13.9918 26 13.9918C25.7363 13.9918 25.4751 14.0438 25.2315 14.1447C24.9879 14.2456 24.7665 14.3935 24.58 14.58C24.3935 14.7665 24.2456 14.9879 24.1447 15.2315C24.0438 15.4751 23.9918 15.7363 23.9918 16C23.9918 16.2637 24.0438 16.5249 24.1447 16.7685C24.2456 17.0121 24.3935 17.2335 24.58 17.42L29.18 22H6C5.46957 22 4.96086 22.2107 4.58579 22.5858C4.21071 22.9609 4 23.4696 4 24C4 24.5304 4.21071 25.0391 4.58579 25.4142C4.96086 25.7893 5.46957 26 6 26H29.18L24.58 30.58C24.3925 30.7659 24.2438 30.9871 24.1422 31.2308C24.0407 31.4746 23.9884 31.736 23.9884 32C23.9884 32.264 24.0407 32.5254 24.1422 32.7692C24.2438 33.0129 24.3925 33.2341 24.58 33.42C24.7659 33.6075 24.9871 33.7562 25.2308 33.8578C25.4746 33.9593 25.736 34.0116 26 34.0116C26.264 34.0116 26.5254 33.9593 26.7692 33.8578C27.0129 33.7562 27.2341 33.6075 27.42 33.42L35.42 25.42C35.6021 25.2298 35.7448 25.0055 35.84 24.76C36.04 24.2731 36.04 23.7269 35.84 23.24C35.7448 22.9945 35.6021 22.7702 35.42 22.58ZM42 8C41.4696 8 40.9609 8.21071 40.5858 8.58579C40.2107 8.96086 40 9.46957 40 10V38C40 38.5304 40.2107 39.0391 40.5858 39.4142C40.9609 39.7893 41.4696 40 42 40C42.5304 40 43.0391 39.7893 43.4142 39.4142C43.7893 39.0391 44 38.5304 44 38V10C44 9.46957 43.7893 8.96086 43.4142 8.58579C43.0391 8.21071 42.5304 8 42 8V8Z"/></svg>