<svg xmlns="http://www.w3.org/2000/svg" viewBox="0 0 48 48"><path fill="currentColor" d="M34.0017 22H10.8217L15.4217 17.42C15.6082 17.2335 15.7561 17.0121 15.8571 16.7685C15.958 16.5249 16.0099 16.2637 16.0099 16C16.0099 15.7363 15.958 15.4751 15.8571 15.2315C15.7561 14.9879 15.6082 14.7665 15.4217 14.58C15.2353 14.3935 15.0139 14.2456 14.7702 14.1447C14.5266 14.0438 14.2655 13.9918 14.0017 13.9918C13.738 13.9918 13.4769 14.0438 13.2332 14.1447C12.9896 14.2456 12.7682 14.3935 12.5817 14.58L4.58175 22.58C4.39966 22.7702 4.25693 22.9945 4.16175 23.24C3.96171 23.7269 3.96171 24.2731 4.16175 24.76C4.25693 25.0055 4.39966 25.2298 4.58175 25.42L12.5817 33.42C12.7677 33.6075 12.9889 33.7562 13.2326 33.8578C13.4763 33.9593 13.7377 34.0116 14.0017 34.0116C14.2658 34.0116 14.5272 33.9593 14.7709 33.8578C15.0146 33.7562 15.2358 33.6075 15.4217 33.42C15.6092 33.2341 15.758 33.0129 15.8595 32.7692C15.9611 32.5254 16.0133 32.264 16.0133 32C16.0133 31.736 15.9611 31.4746 15.8595 31.2308C15.758 30.9871 15.6092 30.7659 15.4217 30.58L10.8217 26H34.0017C34.5322 26 35.0409 25.7893 35.416 25.4142C35.791 25.0391 36.0017 24.5304 36.0017 24C36.0017 23.4696 35.791 22.9609 35.416 22.5858C35.0409 22.2107 34.5322 22 34.0017 22ZM42.0017 8C41.4713 8 40.9626 8.21071 40.5875 8.58579C40.2125 8.96086 40.0017 9.46957 40.0017 10V38C40.0017 38.5304 40.2125 39.0391 40.5875 39.4142C40.9626 39.7893 41.4713 40 42.0017 40C42.5322 40 43.0409 39.7893 43.416 39.4142C43.791 39.0391 44.0017 38.5304 44.0017 38V10C44.0017 9.46957 43.791 8.96086 43.416 8.58579C43.0409 8.21071 42.5322 8 42.0017 8V8Z"/></svg>