<svg xmlns="http://www.w3.org/2000/svg" viewBox="0 0 48 48"><path fill="currentColor" d="M14,24.39H6c-2.21,0-4,1.79-4,4v8c0,2.21,1.79,4,4,4H14c2.21,0,4-1.79,4-4v-8c0-2.21-1.79-4-4-4Zm0,12H6v-8H14v8Zm25.15-15.93c1.1,0,2.01-.88,2.01-1.99l.05-8c0-1.1-.88-2.01-1.99-2.01s-2.01,.88-2.01,1.99l-.02,3.17c-2.52-2.58-5.7-4.44-9.22-5.36-4.19-1.1-8.63-.81-12.65,.83-4.01,1.64-7.39,4.54-9.61,8.26-.57,.95-.26,2.18,.69,2.74,.95,.57,2.18,.26,2.74-.69,1.78-2.98,4.48-5.3,7.69-6.61,3.21-1.31,6.76-1.55,10.12-.66,2.82,.74,5.37,2.23,7.39,4.3l-3.17-.02c-1.1,0-2.01,.88-2.01,1.99,0,1.1,.88,2.01,1.99,2.01l8,.05Zm2.85,3.93h-8c-2.21,0-4,1.79-4,4v8c0,2.21,1.79,4,4,4h8c2.21,0,4-1.79,4-4v-8c0-2.21-1.79-4-4-4Zm0,12h-8v-8h8v8Z"/></svg>