<svg xmlns="http://www.w3.org/2000/svg" viewBox="0 0 48 48"><path fill="currentColor" d="M24.1,19.8c-2.2,0-4,1.8-4,4s1.8,4,4,4,4-1.8,4-4-1.8-4-4-4Zm-.2,15.1l-5.1-3.4c-1.3-.9-3.1,0-3.1,1.7v1.4h-5c-1.5,0-2.7-1.2-2.7-2.7V15.8c0-1.5,1.2-2.7,2.7-2.7h5.8c1.1,0,2-.9,2-2s-.9-2-2-2h-5.8c-3.7,0-6.7,3-6.7,6.7V32c0,3.7,3,6.7,6.7,6.7h5v1.3c0,1.6,1.8,2.6,3.1,1.7l5.1-3.4c1.2-.8,1.2-2.6,0-3.4Zm13.5-25.9h-4.9v-1.1c0-1.6-1.8-2.6-3.1-1.7l-5.1,3.4c-1.2,.8-1.2,2.6,0,3.4l5.1,3.4c1.3,.9,3.1,0,3.1-1.7v-1.6h4.9c1.5,0,2.7,1.2,2.7,2.7V32c0,1.5-1.2,2.7-2.7,2.7h-5.8c-1.1,0-2,.9-2,2s.9,2,2,2h5.8c3.7,0,6.7-3,6.7-6.7V15.8c0-3.7-3-6.7-6.7-6.7Z"/></svg>