<svg xmlns="http://www.w3.org/2000/svg" viewBox="0 0 48 48"><path fill="currentColor" d="M33.55,22.09h1.91c.51,0,.99-.2,1.35-.56s.56-.84,.56-1.35v-1.91c0-.51-.2-.99-.56-1.35-.36-.36-.84-.56-1.35-.56h-1.91c-.51,0-.99,.2-1.35,.56-.36,.36-.56,.84-.56,1.35v1.91c0,.51,.2,.99,.56,1.35s.84,.56,1.35,.56Zm-21,1.91h9.55c.51,0,.99-.2,1.35-.56s.56-.84,.56-1.35-.2-.99-.56-1.35-.84-.56-1.35-.56H12.55c-.51,0-.99,.2-1.35,.56-.36,.36-.56,.84-.56,1.35s.2,.99,.56,1.35c.36,.36,.84,.56,1.35,.56Zm30.55-15.27H4.91c-.51,0-.99,.2-1.35,.56-.36,.36-.56,.84-.56,1.35v26.73c0,.51,.2,.99,.56,1.35,.36,.36,.84,.56,1.35,.56H43.09c.51,0,.99-.2,1.35-.56s.56-.84,.56-1.35V10.64c0-.51-.2-.99-.56-1.35-.36-.36-.84-.56-1.35-.56Zm-1.91,26.73H6.82V12.55H41.18v22.91Zm-28.64-3.82h9.55c.51,0,.99-.2,1.35-.56s.56-.84,.56-1.35-.2-.99-.56-1.35-.84-.56-1.35-.56H12.55c-.51,0-.99,.2-1.35,.56-.36,.36-.56,.84-.56,1.35s.2,.99,.56,1.35c.36,.36,.84,.56,1.35,.56Z"/></svg>