<svg xmlns="http://www.w3.org/2000/svg" viewBox="0 0 48 48"><path fill="currentColor" d="M38.3,19.7c-1.1-1.1-2.7-1.7-4.3-1.7v-4c0-2.7-1-5.2-3-7-1.9-1.9-4.4-3-7-3s-5.2,1-7,3c-1.9,1.9-3,4.4-3,7v4c-1.6,0-3.1,.7-4.3,1.7s-1.7,2.7-1.7,4.3v14c0,1.6,.7,3.1,1.7,4.3s2.7,1.7,4.3,1.7h20c1.6,0,3.1-.7,4.3-1.7s1.7-2.7,1.7-4.3v-14c0-1.6-.7-3.1-1.7-4.3Zm-20.3-5.7c0-1.6,.7-3.1,1.7-4.3s2.7-1.7,4.3-1.7,3.1,.7,4.3,1.7c1.1,1.1,1.7,2.7,1.7,4.3v4h-12v-4Zm18,24c0,.6-.2,1-.6,1.4-.4,.4-.9,.6-1.4,.6H14c-.6,0-1-.2-1.4-.6-.4-.4-.6-.9-.6-1.4v-14c0-.6,.2-1,.6-1.4s.9-.6,1.4-.6h20c.6,0,1,.2,1.4,.6s.6,.9,.6,1.4v14Zm-12-12c-.6,0-1,.2-1.4,.6s-.6,.9-.6,1.4v6c0,.6,.2,1,.6,1.4s.9,.6,1.4,.6,1-.2,1.4-.6c.4-.4,.6-.9,.6-1.4v-6c0-.6-.2-1-.6-1.4s-.9-.6-1.4-.6Z"/></svg>