<svg xmlns="http://www.w3.org/2000/svg" viewBox="0 0 48 48"><path fill="currentColor" d="M24.6,33.4c-.6-.3-1.4-.3-2,0l-7.5,4.4,2.9-11.4c1.7,1,3.8,1.6,5.9,1.6s4.2-.6,5.9-1.6l3,11.6-8.3-4.6Zm-.6-25.4c4.4,0,8,3.6,8,8s-3.6,8-8,8-8-3.6-8-8,3.6-8,8-8Zm13.9,33.5l-4.6-18c1.7-2.1,2.7-4.7,2.7-7.5,0-6.6-5.4-12-12-12s-12,5.4-12,12,1,5.5,2.7,7.5l-4.6,18c-.2,.8,0,1.6,.7,2.1,.6,.5,1.5,.5,2.2,.1l10.7-6.3,11.4,6.3c.3,.2,.6,.2,1,.2s.9-.1,1.2-.4c.6-.5,.9-1.3,.7-2.1Zm-13.3-8.1c-.6-.3-1.4-.3-2,0l-7.5,4.4,2.9-11.4c1.7,1,3.8,1.6,5.9,1.6s4.2-.6,5.9-1.6l3,11.6-8.3-4.6Zm-.6-25.4c4.4,0,8,3.6,8,8s-3.6,8-8,8-8-3.6-8-8,3.6-8,8-8Zm13.9,33.5l-4.6-18c1.7-2.1,2.7-4.7,2.7-7.5,0-6.6-5.4-12-12-12s-12,5.4-12,12,1,5.5,2.7,7.5l-4.6,18c-.2,.8,0,1.6,.7,2.1,.6,.5,1.5,.5,2.2,.1l10.7-6.3,11.4,6.3c.3,.2,.6,.2,1,.2s.9-.1,1.2-.4c.6-.5,.9-1.3,.7-2.1Z"/></svg>