<svg xmlns="http://www.w3.org/2000/svg" viewBox="0 0 48 48"><path fill="currentColor" d="M25.2,26l-4.6,4.6c-.2,.2-.3,.4-.4,.7-.1,.2-.2,.5-.2,.8s0,.5,.2,.8c.1,.2,.3,.5,.4,.7,.2,.2,.4,.3,.7,.4,.2,.1,.5,.2,.8,.2s.5,0,.8-.2c.2-.1,.5-.3,.7-.4l8-8c.2-.2,.3-.4,.4-.7,.2-.5,.2-1,0-1.5,0-.2-.2-.5-.4-.7l-8-8c-.2-.2-.4-.3-.7-.4-.2-.1-.5-.2-.8-.2s-.5,0-.8,.2c-.2,.1-.5,.2-.7,.4-.2,.2-.3,.4-.4,.7-.1,.2-.2,.5-.2,.8s0,.5,.2,.8c.1,.2,.2,.5,.4,.7l4.6,4.6H6c-.5,0-1,.2-1.4,.6-.4,.4-.6,.9-.6,1.4s.2,1,.6,1.4c.4,.4,.9,.6,1.4,.6H25.2Zm-1.2-22c-3.7,0-7.4,1-10.6,3-3.2,2-5.7,4.8-7.4,8.1-.2,.5-.3,1-.1,1.5,.2,.5,.5,.9,1,1.2,.5,.2,1,.3,1.5,.1,.5-.2,.9-.5,1.2-1,1.3-2.6,3.2-4.7,5.6-6.3,2.4-1.6,5.1-2.5,8-2.6,2.8-.1,5.7,.5,8.2,1.8,2.5,1.3,4.6,3.3,6.2,5.7,1.5,2.4,2.3,5.2,2.4,8s-.6,5.7-2,8.2c-1.4,2.5-3.4,4.6-5.8,6-2.5,1.5-5.2,2.2-8.1,2.2-3,0-5.9-.8-8.4-2.4-2.5-1.6-4.6-3.8-5.9-6.5-.2-.5-.7-.8-1.2-1-.5-.2-1.1-.1-1.5,.1-.5,.2-.8,.7-1,1.2-.2,.5-.1,1.1,.1,1.5,1.6,3.2,4,5.9,7,7.8,3,1.9,6.4,3.1,10,3.2,3.6,.2,7.1-.6,10.3-2.3,3.2-1.7,5.8-4.1,7.7-7.2,1.9-3,2.9-6.5,3-10.1,0-3.6-.8-7.1-2.5-10.2-1.7-3.1-4.3-5.7-7.3-7.5-3.1-1.8-6.6-2.8-10.1-2.8Z"/></svg>