<svg xmlns="http://www.w3.org/2000/svg" viewBox="0 0 48 48"><path fill="currentColor" d="M41 30.2C40.5252 29.9642 39.9763 29.9266 39.4737 30.0953C38.9712 30.2641 38.5562 30.6255 38.32 31.1C37.0541 33.6564 35.1278 35.8279 32.7406 37.3896C30.3533 38.9512 27.592 39.8462 24.7425 39.9819C21.8931 40.1176 19.0592 39.489 16.5344 38.1612C14.0096 36.8334 11.8857 34.8548 10.3826 32.4302C8.87961 30.0056 8.05213 27.2233 7.98592 24.3714C7.9197 21.5195 8.61716 18.7018 10.006 16.21C11.3949 13.7183 13.4247 11.6432 15.8852 10.1997C18.3457 8.75619 21.1474 7.99674 24 8.00002C26.9822 7.9871 29.9077 8.81529 32.4406 10.3895C34.9736 11.9638 37.0113 14.2202 38.32 16.9C38.5587 17.3774 38.9773 17.7404 39.4836 17.9092C39.99 18.078 40.5426 18.0387 41.02 17.8C41.4974 17.5613 41.8604 17.1428 42.0292 16.6364C42.198 16.1301 42.1587 15.5774 41.92 15.1C39.9132 11.0615 36.6005 7.81974 32.5195 5.90088C28.4384 3.98202 23.8287 3.4987 19.4384 4.52937C15.0481 5.56004 11.1351 8.04421 8.33427 11.5787C5.53348 15.1131 4.0094 19.4904 4.0094 24C4.0094 28.5096 5.53348 32.8869 8.33427 36.4214C11.1351 39.9558 15.0481 42.44 19.4384 43.4707C23.8287 44.5013 28.4384 44.018 32.5195 42.0992C36.6005 40.1803 39.9132 36.9385 41.92 32.9C42.0392 32.6628 42.1099 32.4041 42.1281 32.1392C42.1463 31.8744 42.1116 31.6085 42.026 31.3572C41.9403 31.1059 41.8055 30.8741 41.6294 30.6754C41.4532 30.4768 41.2393 30.3151 41 30.2ZM42 22H22.82L27.42 17.42C27.6065 17.2335 27.7544 17.0122 27.8553 16.7685C27.9563 16.5249 28.0082 16.2637 28.0082 16C28.0082 15.7363 27.9563 15.4752 27.8553 15.2315C27.7544 14.9879 27.6065 14.7665 27.42 14.58C27.2335 14.3935 27.0122 14.2456 26.7685 14.1447C26.5249 14.0438 26.2637 13.9918 26 13.9918C25.7363 13.9918 25.4752 14.0438 25.2315 14.1447C24.9879 14.2456 24.7665 14.3935 24.58 14.58L16.58 22.58C16.3979 22.7702 16.2552 22.9945 16.16 23.24C15.96 23.7269 15.96 24.2731 16.16 24.76C16.2552 25.0055 16.3979 25.2298 16.58 25.42L24.58 33.42C24.7659 33.6075 24.9871 33.7563 25.2309 33.8578C25.4746 33.9593 25.736 34.0116 26 34.0116C26.264 34.0116 26.5254 33.9593 26.7692 33.8578C27.0129 33.7563 27.2341 33.6075 27.42 33.42C27.6075 33.2341 27.7563 33.0129 27.8578 32.7692C27.9593 32.5255 28.0116 32.264 28.0116 32C28.0116 31.736 27.9593 31.4746 27.8578 31.2309C27.7563 30.9871 27.6075 30.7659 27.42 30.58L22.82 26H42C42.5304 26 43.0392 25.7893 43.4142 25.4142C43.7893 25.0392 44 24.5305 44 24C44 23.4696 43.7893 22.9609 43.4142 22.5858C43.0392 22.2107 42.5304 22 42 22Z"/></svg>