<svg xmlns="http://www.w3.org/2000/svg" viewBox="0 0 48 48"><path fill="currentColor" d="M23.9302 21.4291C22.5536 21.4291 21.5004 22.5526 21.5004 23.9292C21.5004 25.3058 22.6239 26.4292 23.9302 26.4292C25.2365 26.4292 26.36 25.3058 26.36 23.9292C26.36 22.5526 25.3756 21.4291 23.9302 21.4291ZM43.9776 24.7104C43.1377 18.079 37.4946 13.0617 30.8366 13.0617C29.7233 13.0617 28.6202 13.1496 27.517 13.3449L28.1223 7.31896C28.2102 6.40097 27.8782 5.49235 27.2145 4.84858C26.5508 4.20482 25.6231 3.90168 24.7152 4.02825C18.0707 4.85757 13.0627 10.5022 13.0627 17.1634C13.0627 18.2767 13.1506 19.39 13.3458 20.4838L7.3243 19.8744C6.41646 19.7767 5.50862 20.1087 4.87345 20.7635C4.21929 21.4277 3.90702 22.3651 4.02421 23.2831C4.86408 29.9238 10.5072 34.9318 17.1652 34.9318C18.2785 34.9318 19.3816 34.8439 20.4848 34.6486L19.8832 40.6796C19.7856 41.5874 20.1176 42.4961 20.7715 43.1312C21.3442 43.6875 22.1098 44 22.9067 44C23.0335 44 23.1703 43.9902 23.2972 43.9805C29.9271 43.1406 34.8678 37.4959 34.8678 30.8317C34.8678 29.7184 34.7799 28.6144 34.5848 27.5113L40.6092 28.1265C41.517 28.2144 42.4256 27.8824 43.06 27.2281C43.7823 26.5699 44.0948 25.5698 43.9776 24.7104ZM31.3523 23.4213C30.4358 23.3288 29.7374 24.2253 30.0515 25.0909L30.3896 26.0245C30.9168 27.4793 31.1904 29.1012 31.1904 30.8395C31.1904 35.3123 28.027 39.16 23.7019 40.1054L24.5863 31.3473C24.6788 30.4309 23.7824 29.7324 22.9167 30.0465L21.9839 30.3846C20.5292 30.9218 18.908 31.1854 17.1705 31.1854C12.6985 31.1854 8.86559 28.0213 7.90462 23.6946L16.6549 24.579C17.5713 24.6717 18.2697 23.7751 17.9557 22.9094L17.6175 21.976C17.0863 20.5228 16.8128 18.8978 16.8128 17.1634C16.8128 12.6906 19.9762 8.85064 24.3013 7.89749L23.4224 16.6477C23.3299 17.5642 24.2263 18.2626 25.092 17.9485L26.0248 17.6106C27.4795 17.0832 29.1006 16.8098 30.8382 16.8098C35.3102 16.8098 39.1587 19.9739 40.1041 24.3006L31.3523 23.4213Z"/></svg>