<svg xmlns="http://www.w3.org/2000/svg" viewBox="0 0 48 48"><path fill="currentColor" d="M30,34c-.4,0-.8,.1-1.1,.3-.3,.2-.6,.5-.7,.9-.2,.4-.2,.8-.1,1.2,0,.4,.3,.7,.5,1,.3,.3,.6,.5,1,.5,.4,0,.8,0,1.2-.1,.4-.2,.7-.4,.9-.7,.2-.3,.3-.7,.3-1.1s-.2-1-.6-1.4-.9-.6-1.4-.6Zm-12,0h-6c-.5,0-1,.2-1.4,.6-.4,.4-.6,.9-.6,1.4s.2,1,.6,1.4c.4,.4,.9,.6,1.4,.6h6c.5,0,1-.2,1.4-.6,.4-.4,.6-.9,.6-1.4s-.2-1-.6-1.4c-.4-.4-.9-.6-1.4-.6Zm18,0c-.4,0-.8,.1-1.1,.3-.3,.2-.6,.5-.7,.9-.2,.4-.2,.8-.1,1.2,0,.4,.3,.7,.5,1,.3,.3,.6,.5,1,.5,.4,0,.8,0,1.2-.1,.4-.2,.7-.4,.9-.7,.2-.3,.3-.7,.3-1.1s-.2-1-.6-1.4-.9-.6-1.4-.6Zm-6-12c-.4,0-.8,.1-1.1,.3-.3,.2-.6,.5-.7,.9-.2,.4-.2,.8-.1,1.2s.3,.7,.5,1c.3,.3,.6,.5,1,.5s.8,0,1.2-.1c.4-.2,.7-.4,.9-.7,.2-.3,.3-.7,.3-1.1s-.2-1-.6-1.4-.9-.6-1.4-.6Zm-12,0h-6c-.5,0-1,.2-1.4,.6-.4,.4-.6,.9-.6,1.4s.2,1,.6,1.4c.4,.4,.9,.6,1.4,.6h6c.5,0,1-.2,1.4-.6,.4-.4,.6-.9,.6-1.4s-.2-1-.6-1.4c-.4-.4-.9-.6-1.4-.6Zm18-12c-.4,0-.8,.1-1.1,.3-.3,.2-.6,.5-.7,.9-.2,.4-.2,.8-.1,1.2,0,.4,.3,.7,.5,1,.3,.3,.6,.5,1,.5,.4,0,.8,0,1.2-.1,.4-.2,.7-.4,.9-.7,.2-.3,.3-.7,.3-1.1s-.2-1-.6-1.4c-.4-.4-.9-.6-1.4-.6Zm0,12c-.4,0-.8,.1-1.1,.3-.3,.2-.6,.5-.7,.9-.2,.4-.2,.8-.1,1.2,0,.4,.3,.7,.5,1,.3,.3,.6,.5,1,.5,.4,0,.8,0,1.2-.1,.4-.2,.7-.4,.9-.7,.2-.3,.3-.7,.3-1.1s-.2-1-.6-1.4-.9-.6-1.4-.6Zm8-12c0-1.6-.6-3.1-1.8-4.2-1.1-1.1-2.7-1.8-4.2-1.8H10c-1.6,0-3.1,.6-4.2,1.8s-1.8,2.7-1.8,4.2v4c0,1.5,.6,2.9,1.6,4-1,1.1-1.6,2.5-1.6,4v4c0,1.5,.6,2.9,1.6,4-1,1.1-1.6,2.5-1.6,4v4c0,1.6,.6,3.1,1.8,4.2,1.1,1.1,2.7,1.8,4.2,1.8h28c1.6,0,3.1-.6,4.2-1.8,1.1-1.1,1.8-2.7,1.8-4.2v-4c0-1.5-.6-2.9-1.6-4,1-1.1,1.6-2.5,1.6-4v-4c0-1.5-.6-2.9-1.6-4,1-1.1,1.6-2.5,1.6-4v-4Zm-4,28c0,.5-.2,1-.6,1.4s-.9,.6-1.4,.6H10c-.5,0-1-.2-1.4-.6-.4-.4-.6-.9-.6-1.4v-4c0-.5,.2-1,.6-1.4,.4-.4,.9-.6,1.4-.6h28c.5,0,1,.2,1.4,.6s.6,.9,.6,1.4v4Zm0-12c0,.5-.2,1-.6,1.4s-.9,.6-1.4,.6H10c-.5,0-1-.2-1.4-.6-.4-.4-.6-.9-.6-1.4v-4c0-.5,.2-1,.6-1.4,.4-.4,.9-.6,1.4-.6h28c.5,0,1,.2,1.4,.6s.6,.9,.6,1.4v4Zm0-12c0,.5-.2,1-.6,1.4-.4,.4-.9,.6-1.4,.6H10c-.5,0-1-.2-1.4-.6-.4-.4-.6-.9-.6-1.4v-4c0-.5,.2-1,.6-1.4,.4-.4,.9-.6,1.4-.6h28c.5,0,1,.2,1.4,.6,.4,.4,.6,.9,.6,1.4v4Zm-10-4c-.4,0-.8,.1-1.1,.3-.3,.2-.6,.5-.7,.9-.2,.4-.2,.8-.1,1.2,0,.4,.3,.7,.5,1,.3,.3,.6,.5,1,.5,.4,0,.8,0,1.2-.1,.4-.2,.7-.4,.9-.7,.2-.3,.3-.7,.3-1.1s-.2-1-.6-1.4c-.4-.4-.9-.6-1.4-.6Zm-12,0h-6c-.5,0-1,.2-1.4,.6-.4,.4-.6,.9-.6,1.4s.2,1,.6,1.4c.4,.4,.9,.6,1.4,.6h6c.5,0,1-.2,1.4-.6,.4-.4,.6-.9,.6-1.4s-.2-1-.6-1.4c-.4-.4-.9-.6-1.4-.6Z"/></svg>