<svg xmlns="http://www.w3.org/2000/svg" viewBox="0 0 48 48"><path fill="currentColor" d="M14.89,27.49c-.51-1.22-.76-2.51-.76-3.83s.26-2.61.76-3.83c.51-1.22,1.24-2.31,2.17-3.25.78-.78.78-2.05,0-2.83-.78-.78-2.05-.78-2.83,0-1.31,1.31-2.33,2.84-3.04,4.54-.71,1.71-1.07,3.51-1.07,5.36s.36,3.65,1.07,5.36c.71,1.71,1.73,3.24,3.04,4.54.39.39.9.58,1.41.58s1.02-.2,1.42-.59c.78-.78.78-2.05,0-2.83-.93-.93-1.66-2.03-2.17-3.25ZM6.13,23.67c0-4.81,1.87-9.33,5.27-12.73.78-.78.78-2.05,0-2.83-.78-.78-2.05-.78-2.83,0-4.15,4.16-6.44,9.68-6.44,15.55s2.29,11.4,6.44,15.55c.39.39.9.59,1.41.59s1.02-.2,1.41-.59c.78-.78.78-2.05,0-2.83-3.4-3.4-5.27-7.92-5.27-12.73ZM38.13,23.68c0-1.85-.36-3.65-1.07-5.36-.71-1.71-1.73-3.24-3.04-4.54-.78-.78-2.05-.78-2.83,0-.78.78-.78,2.05,0,2.83.94.94,1.67,2.03,2.17,3.25.51,1.22.76,2.51.76,3.83s-.26,2.61-.76,3.83c-.5,1.22-1.24,2.31-2.17,3.25-.78.78-.78,2.05,0,2.83.39.39.9.59,1.41.59s1.02-.2,1.41-.59c1.31-1.31,2.33-2.84,3.04-4.54.71-1.71,1.07-3.51,1.07-5.36ZM39.69,8.12c-.78-.78-2.05-.78-2.83,0-.78.78-.78,2.05,0,2.83,3.4,3.4,5.27,7.92,5.27,12.73s-1.87,9.33-5.27,12.73c-.78.78-.78,2.05,0,2.83.39.39.9.58,1.41.58s1.02-.2,1.42-.59c4.15-4.16,6.44-9.68,6.44-15.55s-2.29-11.4-6.44-15.55ZM24.13,17.67c-3.31,0-6,2.69-6,6s2.69,6,6,6,6-2.69,6-6-2.69-6-6-6ZM24.13,25.67c-1.1,0-2-.9-2-2s.9-2,2-2,2,.9,2,2-.9,2-2,2Z"/></svg>