<svg xmlns="http://www.w3.org/2000/svg" viewBox="0 0 48 48"><path fill="currentColor" d="M21.3047 4C22.6346 4 23.9047 4.52006 24.8447 5.45996L31.915 12.5303C32.8549 13.4703 33.375 14.7404 33.375 16.0703V27.75H29.625V16.5H23.375C21.995 16.5 20.875 15.38 20.875 14V7.75H8.375C7.685 7.75 7.125 8.31 7.125 9V39C7.125 39.69 7.685 40.25 8.375 40.25H12.625V44H8.375C5.615 44 3.375 41.76 3.375 39V9C3.375 6.24 5.615 4 8.375 4H21.3047ZM20.9668 31.5C21.6568 31.5 22.2168 32.06 22.2168 32.75C22.2168 33.81 21.8976 34.8505 21.3076 35.7305L19.9668 37.75L21.3076 39.7695C21.9076 40.6495 22.2168 41.69 22.2168 42.75C22.2168 43.44 21.6568 44 20.9668 44C20.277 43.9997 19.7168 43.4398 19.7168 42.75C19.7168 42.1801 19.5472 41.6301 19.2373 41.1602L18.4668 40L17.6973 41.1504C17.3874 41.6203 17.2168 42.1803 17.2168 42.7402C17.2167 43.4301 16.6567 43.9902 15.9668 43.9902C15.2771 43.99 14.7169 43.43 14.7168 42.7402C14.7168 41.6802 15.037 40.6398 15.627 39.7598L16.9668 37.75L15.627 35.7305C15.027 34.8505 14.7168 33.81 14.7168 32.75C14.7168 32.0602 15.277 31.5003 15.9668 31.5C16.6568 31.5 17.2168 32.06 17.2168 32.75C17.2168 33.32 17.3873 33.8699 17.6973 34.3398L18.4668 35.4902L19.2373 34.3398C19.5472 33.8699 19.7168 33.3099 19.7168 32.75C19.7168 32.0602 20.277 31.5003 20.9668 31.5ZM38.3477 31.5C39.0377 31.5 39.5977 32.06 39.5977 32.75V41.5H42.0977C42.7877 41.5 43.3477 42.06 43.3477 42.75C43.3477 43.44 42.7877 44 42.0977 44H38.3477C37.6577 44 37.0977 43.44 37.0977 42.75V32.75C37.0977 32.06 37.6577 31.5 38.3477 31.5ZM26.6455 31.5C27.0928 31.5 27.4106 31.5436 27.6416 31.6445C27.9015 31.76 28.1042 31.9622 28.2197 32.251C28.3063 32.4675 28.407 32.8139 28.5225 33.29L29.6777 38.0986L30.833 33.29C30.934 32.814 31.0347 32.4819 31.1357 32.251C31.2512 31.9623 31.454 31.76 31.7139 31.6445C31.9304 31.5435 32.2481 31.5 32.71 31.5H33.374C33.8504 31.5 34.2408 31.6155 34.5439 31.832C34.8759 32.0775 35.0488 32.5111 35.0488 33.1318V42.1699C35.0488 42.7041 34.9332 43.0941 34.7021 43.3828C34.4567 43.6858 34.1102 43.8447 33.7061 43.8447C33.3163 43.8447 32.9837 43.686 32.7383 43.3828C32.5074 43.0941 32.3926 42.704 32.3926 42.1699V37.4775L31.4395 41.6357C31.324 42.1266 31.2372 42.4731 31.165 42.7041C31.0928 42.9784 30.9341 43.2241 30.7031 43.4551C30.4432 43.7005 30.0964 43.8301 29.6777 43.8301C29.3602 43.83 29.0854 43.7437 28.8545 43.585C28.6381 43.4406 28.4651 43.2377 28.3496 43.0068C28.2487 42.8049 28.1622 42.5742 28.1045 42.3291L27.9307 41.6357L26.9775 37.4775V42.1699C26.9775 42.6896 26.8628 43.0941 26.6318 43.3828C26.141 43.9746 25.1733 43.989 24.668 43.3828C24.437 43.1085 24.3213 42.6896 24.3213 42.1699V33.1318C24.3213 32.5112 24.4943 32.0775 24.8262 31.832C25.1293 31.6155 25.5197 31.5 25.9961 31.5H26.6455Z"/></svg>