<svg xmlns="http://www.w3.org/2000/svg" viewBox="0 0 48 48"><path fill="currentColor" d="M36.8,19h-1.6l-1.8-2.7c-.3-.5-.9-.8-1.5-.9-.6,0-1.2,.2-1.6,.7l-1.3,1.6-2.1-4.3c-.3-.7-1.1-1.1-1.8-1.1-.8,0-1.4,.6-1.7,1.3l-2.7,7.8-2-3.9c-.3-.6-.9-1-1.6-1-.7,0-1.3,.3-1.7,.9l-1.2,2h-3c-1.1,0-1.9,.9-1.9,1.9s.9,1.9,1.9,1.9h4.1c.7,0,1.3-.3,1.6-.9h0l2.5,4.8c.3,.6,1,1,1.7,1s0,0,.1,0c.8,0,1.4-.6,1.7-1.3l2.6-7.7,1.4,2.9c.3,.6,.9,1,1.5,1.1,.6,0,1.3-.2,1.7-.7l1.5-1.9,.9,1.4c.4,.5,1,.9,1.6,.9h2.6c1.1,0,1.9-.9,1.9-1.9s-.9-1.9-1.9-1.9Zm2.4-14.1H8.7c-3.2,0-5.7,2.6-5.7,5.7V29.7c0,3.2,2.6,5.7,5.7,5.7h13.4v3.8h-5.7c-1.1,0-1.9,.9-1.9,1.9s.9,1.9,1.9,1.9h15.3c1.1,0,1.9-.9,1.9-1.9s-.9-1.9-1.9-1.9h-5.7v-3.8h13.4c3.2,0,5.7-2.6,5.7-5.7V10.6c0-3.2-2.6-5.7-5.7-5.7Zm1.9,24.8c0,1.1-.9,1.9-1.9,1.9H8.7c-1.1,0-1.9-.9-1.9-1.9V10.6c0-1.1,.9-1.9,1.9-1.9h30.5c1.1,0,1.9,.9,1.9,1.9V29.7Z"/></svg>