<svg xmlns="http://www.w3.org/2000/svg" viewBox="0 0 48 48"><path fill="currentColor" d="M42,22h-7.88c-.14-.02-.28-.02-.42,0h-.34c-.1,.06-.2,.13-.3,.2-.11,.07-.22,.15-.32,.24-.07,.08-.13,.17-.18,.26-.09,.13-.17,.26-.24,.4h0l-3.2,8.82L20.78,9.32c-.14-.39-.4-.72-.73-.96-.34-.24-.74-.36-1.15-.36s-.81,.13-1.15,.36c-.34,.24-.59,.57-.73,.96l-4.62,12.68H6c-.53,0-1.04,.21-1.41,.59-.38,.38-.59,.88-.59,1.41s.21,1.04,.59,1.41c.38,.38,.88,.59,1.41,.59H14.6c.11-.05,.22-.12,.32-.2,.11-.07,.22-.15,.32-.24l.18-.26c.1-.12,.18-.26,.24-.4l3.24-9.06,8.32,22.84c.14,.39,.4,.72,.73,.96,.34,.24,.74,.36,1.15,.36,.41,0,.81-.13,1.15-.36,.34-.24,.59-.57,.73-.96l4.6-12.68h6.42c.53,0,1.04-.21,1.41-.59s.59-.88,.59-1.41-.21-1.04-.59-1.41-.88-.59-1.41-.59Z"/></svg>