<svg xmlns="http://www.w3.org/2000/svg" viewBox="0 0 48 48"><path fill="currentColor" d="M45.7,33.1c-.3-.7-1-1.2-1.8-1.2h0c-.4-.3-.8-2.1-1-3-.7-2.9-1.7-7.4-6.4-7.4s-2.3,.5-3.2,1.3c-.4-3.5-1.4-6.9-5.1-7.2-2.4-.2-4.1,1.2-5.6,3.3-.7-4.1-1.9-7.9-5.6-8.2-5.1-.3-6,4.6-6.7,9.1-.3,1.7-.6,3.4-1,5-2,7-5.6,8.3-5.8,8.4-.5,.1-.9,.5-1.1,.9h0c0,.1,0,.2-.1,.3,0,0,0,0,0,.1,0,0,0,.2,0,.2h0c0,0,0,.1,0,.2,0,0,0,.1,0,.2,0,0,0,.1,0,.2,0,0,0,0,0,.1h0c0,.2,.1,.4,.2,.5,0,0,0,0,0,0,.1,.1,.2,.3,.4,.4,0,0,0,0,0,0,.1,0,.3,.2,.4,.2,0,0,0,0,0,0,.1,0,.3,0,.4,0,.4,0,9.7,.9,15-4.8,.7-.7,1.3-1.6,1.9-2.4,.9,2.4,2.3,4.1,5,4.1s3.6-1.1,5-2.5c.6,2,1.6,3.8,3.4,4.8,1.1,.7,2.4,1,3.9,1s4.1-.5,6.8-1.6h0s0,0,0,0c.9-.4,1.4-1.5,1-2.4Zm-29.7-3.6c-1.8,1.9-4.2,2.8-6.4,3.3,1.2-1.6,2.4-3.8,3.3-6.9,.5-1.9,.8-3.8,1.1-5.4,.8-4.9,1.3-6,2.7-5.9,1.6,.1,2.2,4.7,2.6,8,0,.6,.2,1.2,.2,1.8-1,1.9-2.1,3.7-3.5,5.2Zm9.6,.5c-1.2,0-1.8-2.4-2.2-5,0,0,0-.2,.1-.3,1.4-2.7,2.9-5.5,4.3-5.4,1.2,.1,1.5,2.6,1.9,6,0,.4,0,.8,.1,1.1-1.3,1.7-2.9,3.6-4.1,3.6Zm10.3,2.9c-1.3-.8-1.9-2.9-2.2-5.3,1-1.2,2.1-2.4,2.7-2.4,1.5,0,2,1.1,2.7,4.4,.2,1.1,.5,2.3,1,3.4-1.9,.4-3.3,.4-4.2-.1Z"/></svg>