<svg xmlns="http://www.w3.org/2000/svg" viewBox="0 0 48 48"><path fill="currentColor" d="M28.8,32.5h-11.7c-1,0-1.8,.8-1.8,1.8s.8,1.8,1.8,1.8h11.7c1,0,1.8-.8,1.8-1.8s-.8-1.8-1.8-1.8Zm-13.5-5.7c0,1,.8,1.8,1.8,1.8h11.7c1,0,1.8-.8,1.8-1.8s-.8-1.8-1.8-1.8h-11.7c-1,0-1.8,.8-1.8,1.8Zm24.6-9.9s0,0,0-.1c0,0,0-.1,0-.2,0,0,0,0,0-.1,0,0,0-.1,0-.2,0,0,0,0,0-.1,0,0,0,0,0-.1L29.1,4.6s0,0,0,0c0,0-.1-.1-.2-.2,0,0,0,0-.1,0,0,0-.1,0-.2-.1,0,0,0,0-.1,0,0,0-.2,0-.3,0,0,0,0,0,0,0-.1,0-.2,0-.4,0H10c-1,0-1.8,.8-1.8,1.8V42.2c0,1,.8,1.8,1.8,1.8h28.1c1,0,1.8-.8,1.8-1.8V17.2c0-.1,0-.2,0-.3Zm-10.2-6.3l4.4,4.8h-4.4v-4.8Zm6.6,29.8H11.8V7.6h14.2v9.6c0,1,.8,1.8,1.8,1.8h8.4v21.3Z"/></svg>