<svg xmlns="http://www.w3.org/2000/svg" viewBox="0 0 48 48"><path fill="currentColor" d="M26.4875 40.7498H12.4875C11.8975 40.7498 11.3175 40.5098 10.8975 40.0898C10.4775 39.6698 10.2375 39.0898 10.2375 38.4998V10.4998C10.2375 9.89977 10.4675 9.32977 10.8975 8.90977C11.3175 8.48977 11.8875 8.24977 12.4875 8.24977H22.7375V14.4998C22.7375 16.0398 23.3375 17.4798 24.4175 18.5698C25.5075 19.6598 26.9475 20.2498 28.4875 20.2498H34.7375V24.4998C34.7375 24.9598 34.9275 25.4098 35.2475 25.7398C35.8975 26.3898 37.0675 26.3898 37.7175 25.7398C38.0475 25.4098 38.2275 24.9598 38.2275 24.4998V18.3798C38.2075 18.2398 38.1775 18.0798 38.1175 17.9198V17.8398L38.1075 17.7198C38.0275 17.5598 37.9175 17.4098 37.7975 17.2698L25.8075 5.27977C25.6775 5.15977 25.5175 5.04977 25.3475 4.96977C25.3175 4.96977 25.2875 4.96977 25.2675 4.96977L25.1775 4.98977L25.0975 4.94977C24.9275 4.85977 24.7375 4.78977 24.5475 4.75977H12.4775C10.9375 4.75977 9.49754 5.35977 8.40754 6.44977C7.31754 7.53977 6.72754 8.97977 6.72754 10.5198V38.5198C6.72754 40.0298 7.33754 41.5198 8.40754 42.5898C9.49754 43.6798 10.9375 44.2698 12.4775 44.2698H26.4775C26.9375 44.2698 27.3875 44.0798 27.7175 43.7598C28.0475 43.4398 28.2275 42.9798 28.2275 42.5198C28.2275 42.0598 28.0375 41.6098 27.7175 41.2798C27.3975 40.9498 26.9375 40.7698 26.4775 40.7698L26.4875 40.7498ZM26.2375 10.7198L32.2675 16.7498H28.4875C27.8975 16.7498 27.3175 16.5098 26.8975 16.0898C26.4775 15.6698 26.2375 15.0898 26.2375 14.4998V10.7198ZM42.1175 37.8298C42.0275 37.6198 41.8975 37.4198 41.7375 37.2598C41.5775 37.0898 41.3875 36.9598 41.1675 36.8698C40.7375 36.6898 40.2475 36.6898 39.8175 36.8698C39.6075 36.9598 39.4075 37.0898 39.2475 37.2498L38.2375 38.2898V32.4898C38.2375 32.0298 38.0475 31.5798 37.7275 31.2498C37.0775 30.5998 35.9075 30.5998 35.2575 31.2498C34.9275 31.5798 34.7475 32.0298 34.7475 32.4898V38.2898L33.7375 37.2498C33.4175 36.9198 32.9575 36.7398 32.4975 36.7398C32.0375 36.7398 31.5875 36.9198 31.2575 37.2598C30.9275 37.5898 30.7475 38.0298 30.7475 38.4998C30.7475 38.9698 30.9275 39.4098 31.2575 39.7398L35.2575 43.7398C35.4175 43.8998 35.6175 44.0198 35.8275 44.0998C36.2675 44.2898 36.7375 44.2898 37.1575 44.0998C37.3875 44.0098 37.5775 43.8898 37.7475 43.7298L41.7475 39.7298C41.9175 39.5598 42.0375 39.3698 42.1275 39.1598C42.2175 38.9498 42.2575 38.7198 42.2575 38.4898C42.2575 38.2598 42.2075 38.0298 42.1275 37.8198L42.1175 37.8298ZM33.6775 27.7898C33.6775 27.0098 32.9975 26.2998 32.2175 26.2598H31.2075L30.0175 24.4698C29.7875 24.0798 29.3375 23.8198 28.7575 23.7298C28.2675 23.7298 27.8175 23.9298 27.5275 24.2998L26.8075 25.1798L25.4775 22.4598C25.2475 21.9198 24.6575 21.5598 24.0275 21.5598C23.4475 21.5598 22.9275 21.9598 22.6475 22.6198L20.9075 27.6398L19.7175 25.3198C19.4675 24.8198 18.9675 24.5098 18.4175 24.5098C17.8675 24.5098 17.3675 24.7598 17.0475 25.2498L16.2675 26.5498H14.2775C13.4375 26.5498 12.7475 27.2398 12.7475 28.0798C12.7475 28.9198 13.4575 29.6098 14.2775 29.6098H17.1475C17.4875 29.6098 17.7875 29.5198 18.0275 29.3598L18.2575 29.1998L19.8375 32.2398C20.0775 32.7298 20.6275 33.0498 21.2075 33.0498H21.4075C21.9375 32.9898 22.4075 32.5998 22.6675 31.9898L24.3275 27.0698L25.0975 28.6798C25.3275 29.1398 25.8075 29.4698 26.3575 29.5598C26.8775 29.5598 27.3775 29.3498 27.6675 28.9898L28.5475 27.8798L29.0575 28.6698C29.3975 29.0898 29.8775 29.3498 30.3175 29.3498H32.1375C32.9775 29.3498 33.6675 28.6598 33.6675 27.8198L33.6775 27.7898Z"/></svg>