<svg xmlns="http://www.w3.org/2000/svg" viewBox="0 0 48 48"><path fill="currentColor" d="M19.41,20.62c-.78-.78-2.05-.78-2.83,0-.78.78-.78,2.05,0,2.83l6,6c.38.38.88.59,1.41.59h0c.53,0,1.04-.21,1.41-.59l20-20.02c.78-.78.78-2.05,0-2.83-.78-.78-2.05-.78-2.83,0l-18.59,18.6-4.58-4.58ZM44,20.17c-1.1,0-2,.9-2,2v1.84c0,3.85-1.27,7.68-3.58,10.77-2.31,3.09-5.61,5.39-9.31,6.48-3.7,1.09-7.73.96-11.34-.38-3.62-1.34-6.76-3.85-8.86-7.09-2.1-3.23-3.11-7.13-2.86-10.98.25-3.85,1.77-7.58,4.28-10.51,2.5-2.93,5.96-5.01,9.72-5.86,3.76-.85,7.77-.45,11.29,1.12,1.01.45,2.19,0,2.64-1.01.45-1.01,0-2.19-1.01-2.64-4.3-1.92-9.2-2.4-13.8-1.36-4.6,1.04-8.81,3.58-11.88,7.17-3.06,3.58-4.92,8.15-5.23,12.85-.31,4.7.93,9.47,3.5,13.42,2.56,3.95,6.41,7.03,10.83,8.66,2.44.9,5.04,1.36,7.64,1.36,2.1,0,4.21-.3,6.23-.89,4.52-1.34,8.56-4.15,11.38-7.92,2.82-3.77,4.38-8.45,4.38-13.16v-1.84c0-1.1-.9-2-2-2Z"/></svg>