<svg xmlns="http://www.w3.org/2000/svg" width="445.12" height="475" viewBox="0 0 445.12 475"><path d="M401.83 0c23.88 0 43.29 19.43 43.29 43.3v179.27c0 23.87-19.41 43.28-43.29 43.28h-106.1v40.8l27.24 27.24c16.14-8.11 36.15-6.09 49.7 7.45 16.88 16.88 16.88 44.34 0 61.22-8.44 8.44-19.53 12.65-30.6 12.65-10.38 0-20.78-3.71-28.99-11.13l-1.61-1.52c-13.55-13.55-15.56-33.56-7.45-49.7l-31.18-31.18a13.41 13.41 0 01-3.93-9.49v-46.34h-32.93v124.93c17.27 5.67 29.87 21.74 29.87 40.93 0 23.87-19.41 43.3-43.28 43.3s-43.3-19.42-43.3-43.3c0-19.18 12.62-35.26 29.88-40.93V265.85h-32.93v76.23c0 3.24-1.16 6.21-3.07 8.53l-.86.95-31.19 31.18c8.12 16.14 6.11 36.15-7.44 49.7-8.44 8.44-19.53 12.65-30.6 12.65-11.08 0-22.18-4.21-30.62-12.65-16.87-16.88-16.87-44.33 0-61.2 13.55-13.55 33.55-15.56 49.69-7.45l27.27-27.26v-70.67H43.3C19.43 265.85 0 246.44 0 222.57V43.3C0 19.42 19.42 0 43.3 0h358.53zM221.6 450.35c.32.02.64.03.96.03l-1.91-.1.95.07zm.97-35.1c-9.08 0-16.47 7.38-16.47 16.45 0 9.08 7.39 16.47 16.47 16.47 9.08 0 16.46-7.39 16.46-16.47 0-9.08-7.38-16.45-16.46-16.45zm-119.52 27.63l1.72-.04h.17c-.63.03-1.26.04-1.89.04zm136.88-4.34c.03-.09.07-.17.1-.26-.03.08-.07.17-.1.26zm.29-.78c.05-.13.09-.27.13-.4-.04.13-.09.27-.13.4zm.36-1.19c-.01.06-.03.11-.05.17l.03-.12v-.05zm22.8-.24l.06-.44v-.14c-.01.2-.03.39-.06.58zm-22.6-.55c.03-.15.06-.3.09-.46l-.09.46zm.28-1.61c.11-.81.18-1.63.18-2.46l-.1 1.9c-.02.19-.05.38-.07.56zm-138.01-48.8c-3.7 0-7.38 1.24-10.4 3.69l-1.25 1.12c-6.41 6.42-6.42 16.86-.02 23.28 6.43 6.41 16.88 6.41 23.31 0 6.41-6.42 6.4-16.86-.02-23.28a16.492 16.492 0 00-11.63-4.81zm123.78 28.16l-.29-.06.29.06zm-.95-.2c-.13-.02-.27-.05-.4-.07.13.02.27.04.4.07zm-.91-.13l-.46-.06.46.06zm-.55-.07c-.3-.03-.6-.06-.9-.07l-.96-.03 1.86.1zm-139.95-9.51s.01.09.02.13c0-.06-.01-.13-.02-.19v.06zm257.61-48.11c-3.69 0-7.38 1.22-10.4 3.67l-1.25 1.14c-6.41 6.42-6.42 16.86 0 23.28l1.25 1.12c6.47 5.26 16.02 4.89 22.05-1.12l1.12-1.25c4.91-6.03 4.92-14.76 0-20.79l-1.12-1.23a16.42 16.42 0 00-11.65-4.81zm-237.47 27.73c-.22-.02-.44-.03-.66-.04l-.9-.02 1.56.06zm218.88-9.5c.04.43.1.85.17 1.28-.07-.44-.13-.89-.18-1.33v.05zm0-3.58c0 .05 0 .11-.01.16.03-.28.05-.55.09-.82l-.08.66zm21.59-16.63zm-1.34-.16c-.26-.03-.51-.05-.77-.06l-.9-.02 1.67.08zm-169.8-10.09v-.18.18zM39.11 263.44h.14c-.21-.01-.42-.04-.64-.06.17.02.33.05.5.06zm366.76 0h.15c.19-.03.38-.06.57-.08-.24.03-.48.05-.73.08zm1.47-.17c.16-.02.32-.03.48-.06l.25-.04c-.24.04-.49.07-.74.1zm-5.51-22.03l.96-.03c.27-.01.54-.05.8-.07l-1.76.1zm-361.5-.25c.34.06.68.1 1.03.14-.34-.04-.69-.08-1.03-.14zm363.54.12c.08 0 .16-.02.24-.03-.08 0-.16.02-.24.03zm-364.85-.38c.37.09.75.16 1.13.23-.38-.06-.76-.14-1.13-.23zm4.28-213.9c-9.08 0-16.47 7.39-16.47 16.47v179.27c0 9.08 7.39 16.46 16.47 16.46h358.53c9.08 0 16.47-7.38 16.47-16.46V43.3c0-9.08-7.39-16.47-16.47-16.47H43.3zm398.38 205.7l.12-.45.05-.25c-.05.23-.11.47-.17.7zm.99-5.55c0-.08.02-.15.03-.23v-.09c0 .11-.02.21-.03.32zm-22.65-.22c.08-.36.15-.72.22-1.08-.06.36-.13.72-.22 1.08zm.26-1.39zM147.86 59.74c5.86 0 11.06 3.81 12.81 9.42l37.34 119.51.34 1.32c1.37 6.66-2.52 13.42-9.15 15.48h-.01c-1.33.4-2.67.6-3.98.6-4.99 0-9.66-2.81-11.96-7.35l-.83-2.05-6.39-20.47h-51.25l-6.39 20.47c-2.23 7.05-9.81 10.98-16.8 8.79-7.07-2.2-11.02-9.72-8.8-16.79l37.35-119.51.81-2.01c2.24-4.49 6.86-7.41 11.99-7.41h14.93zm119.52 0c23.87 0 43.28 19.42 43.28 43.3 0 23.87-19.41 43.28-43.28 43.28h-31.41v46.34c0 7.4-6.01 13.41-13.41 13.41s-13.41-6.01-13.41-13.41V73.15c0-7.4 6.01-13.41 13.41-13.41h44.82zm74.69 0c7.4 0 13.41 6.01 13.42 13.41v119.51c0 7.4-6.01 13.41-13.42 13.41-7.4 0-13.41-6.01-13.41-13.41V73.15c0-7.4 6.01-13.41 13.41-13.41zM181 203.05c.79.32 1.61.56 2.45.69h.14c-.89-.12-1.76-.36-2.59-.69zm-90.25-.27c.09.04.19.08.28.13-.13-.06-.25-.11-.38-.17l.09.05zm99.02.12c.09-.04.19-.08.28-.13l.09-.05c-.12.06-.25.12-.38.17zm6.63-10.89c-.03-.52-.09-1.05-.2-1.57l-.05-.2c.13.59.21 1.18.25 1.77zm-73.25-42.63h34.5L140.4 94.19l-17.25 55.19zm148.26-5.46h.17l.63-.09-.8.09zm1.44-.17l.52-.06.25-.04c-.26.04-.51.07-.77.11zm-5.47-22.04c.63 0 1.25-.04 1.87-.1l-1.87.1zm-31.41-2.21h31.41c9.08 0 16.47-7.38 16.47-16.46 0-9.08-7.39-16.47-16.47-16.47h-31.41v32.93zm72.26-12.15s.01-.08.02-.12v-.08c0 .07 0 .14-.02.21zM150.52 62.27c-.28-.07-.56-.13-.85-.18h-.07c.31.04.62.1.92.18zm265.74-30.81s-.02-.03-.03-.04l-.04-.04s.04.05.06.08zM240.93 435.01zm-44.51-242.38c0-.2 0-.39-.02-.59.01.2.02.39.02.59z" fill="#009ddc"/></svg>