<svg data-name="Layer 1" xmlns="http://www.w3.org/2000/svg" viewBox="0 0 512 512"><path d="M433.12 79.53A250.06 250.06 0 00253.08 6C115.73 7.44 5 120.67 6.28 258.39 7.55 395 119.59 506 256.07 506h.15c67.51 0 130.57-26.24 177.58-73.74 46.35-46.87 72.57-111.11 71.91-176.25.81-65.1-25.65-129.42-72.59-176.48zm-1.58 276.39A200.29 200.29 0 01289.44 455a238.9 238.9 0 01-30.58 2.65.81.81 0 01-.39-.13 1.69 1.69 0 01.35-.24c45.77-21 78.8-54.12 98.16-98.3 22.65-51.59 23.52-102.27 2.58-150.62-16.08-37.23-47.18-59.93-89.89-65.63a111.13 111.13 0 00-83.2 22.53c-24.51 18.87-40.19 46.59-44.15 78-7.24 57.47 34.68 114.74 91.4 124.98a121.1 121.1 0 0064.9-5.81 3.4 3.4 0 011.15-.11 4.81 4.81 0 01-.41 1.37c-29.77 40.88-68.9 59.82-116.08 56.83-43.5-2.89-77.44-23.72-100.85-61.91-20.41-33.29-28-67.71-28.21-87.09C54.05 171.78 109.89 89.93 196.45 63 296.89 31.78 405.61 84.09 444 182.16a201.45 201.45 0 01-12.46 173.76zM256 322.35a66 66 0 01-47.12-19.82 65.21 65.21 0 01-19.28-46.67c.2-31.56 23.71-65.59 66.84-66.46h1.24c16.52 0 32.35 6.62 44.7 18.76a67.65 67.65 0 0120.42 47.94c-.07 36.54-30.01 66.25-66.8 66.25z" fill="#0166cb"/></svg>