<svg data-name="Layer 1" xmlns="http://www.w3.org/2000/svg" viewBox="0 0 512 512"><path d="M501.2 207.23A250 250 0 10487 351.68a250 250 0 0014.2-144.45zm-64.88 189.43l-1.84 1.84a4.81 4.81 0 00-.92 1.38 4.81 4.81 0 01-.92 1.38l-14.72 16.6A228.42 228.42 0 01256 485h-1.84c-60.75 0-116.87-23.92-160.11-67.16l-14.71-15.61a4.66 4.66 0 01-.93-1.38 4.77 4.77 0 00-.92-1.37l-1.83-1.84A227.11 227.11 0 0126 256a234.44 234.44 0 0148.73-142.59l1.84-.92a5.23 5.23 0 00.93-1.38 5.14 5.14 0 01.9-1.38L94 93.13C137.29 49.89 193.41 26.89 254.13 26H256c61.65 0 118.68 23.92 161.92 68l14.72 15.68a4.81 4.81 0 01.92 1.38 4.81 4.81 0 00.92 1.38l1.84 1.85A227.09 227.09 0 01486 256c0 51.49-17.51 102.09-49.68 140.66zM122.6 106.94a15.86 15.86 0 002.3.92 14.62 14.62 0 012.3.91c1.84.92 3.91 1.84 6 2.77s4.14 1.84 6 2.76a3.23 3.23 0 011.37.46 3.27 3.27 0 001.38.46 72.65 72.65 0 008.34 2.52c2.38.62 4.83 1.25 7.28 2.07h1.85c8.24-22.08 18.39-40.44 29.43-55.2-25.75 8.28-48.76 23-69.89 40.48a17.12 17.12 0 001.73.75 5.16 5.16 0 011.91 1.1zm230 12.46a7.11 7.11 0 011.84-.46c2.78-.93 5.33-1.62 7.89-2.32s5-1.37 7.73-2.27a3.2 3.2 0 001.38-.49 3.2 3.2 0 011.38-.49c2-.79 4-1.41 5.87-2a47.83 47.83 0 007-2.59c.92 0 2.76-.92 4.6-1.83a3.11 3.11 0 001.34-.46 3.32 3.32 0 011.42-.47c-21.16-19.31-46-34-72.68-42.26 12 14.64 22.08 34 30.38 56.11a7.11 7.11 0 001.84-.47zM157.51 393.05c-2.76.92-5.3 1.62-7.84 2.31-2.51.69-5 1.37-7.77 2.29a3.27 3.27 0 00-1.38.46 3.23 3.23 0 01-1.37.46c-2 .79-4 1.42-5.9 2a48.59 48.59 0 00-7 2.58 15.86 15.86 0 01-2.3.92 15.86 15.86 0 00-2.3.92 3.27 3.27 0 00-1.38.46 3.19 3.19 0 01-1.37.46 209.43 209.43 0 0069.91 42.32c-11-14.72-21.19-34-29.45-55.2zM256 130.86a400.27 400.27 0 0068.08-5.53c-18.4-46-44.16-72.68-69-72.68h-.92c-24.84.92-50.6 27.6-68.07 72.68a430.69 430.69 0 0069.91 5.53zm-91.09 96.24a29.42 29.42 0 00-11.21-8.31q-6.84-3-18-3h-12.2v80.82h12.59a47.7 47.7 0 0016.72-2.57 28 28 0 0011.34-7.71 33.45 33.45 0 006.85-12.9 64.57 64.57 0 002.23-18 59.51 59.51 0 00-2-15.71 33.61 33.61 0 00-6.32-12.62zm295.28 16c-2.76-42.32-19.32-82.8-46-115.91-.86.43-1.93.85-3 1.27a35.43 35.43 0 00-3.44 1.49 33 33 0 00-5 1.83 33 33 0 01-5.07 1.84 7.11 7.11 0 00-1.84.46 7.19 7.19 0 01-1.84.47 209.62 209.62 0 01-34 11c2.76 10.12 4.61 20.25 6.44 30.36h-27.6q-2.76-13.8-5.51-24.84c-23.92 3.68-49.69 6.44-76.37 6.44a433.59 433.59 0 01-78.19-7.35c-1.22 4.86-2.44 10.53-3.66 16.21-.62 2.91-1.24 5.82-1.87 8.62h-27.6v-.26c1.83-10 3.66-20.06 6.39-30.1a279.94 279.94 0 01-33-10.13 3.28 3.28 0 01-1.39-.47 3.27 3.27 0 00-1.37-.46c-1.83-.91-3.43-1.59-5-2.28s-3.25-1.39-5.11-2.32c-.86-.43-1.92-.85-3-1.27a34.39 34.39 0 01-3.44-1.49l-1 1c-26.71 32.22-42.33 72.65-45.08 115h23v26.67h-23c2.75 42.33 18.37 83.73 46 116.86a17 17 0 016.43-1.84c1.37-.46 3-1.14 4.56-1.82s3.25-1.39 4.65-1.86a4.61 4.61 0 011.85-.93 4.77 4.77 0 001.83-.91 324.22 324.22 0 0132.22-10.12c-2.77-11-5.53-22.08-7.36-34h27.6a257.22 257.22 0 006.43 28.52 426.51 426.51 0 0178.2-7.36c26.68 0 52.44 1.85 76.36 6.45 2.76-8.28 4.6-17.48 6.44-27.6h27.6c-1.84 11-4.6 22.08-7.36 33.11 3.64 1.12 7.28 2.16 10.9 3.19a216.3 216.3 0 0124.01 7.78 3.21 3.21 0 011.37.45 3.31 3.31 0 001.39.46c1.37.46 3 1.15 4.58 1.83s3.23 1.39 4.62 1.85c.57.19 1.09.38 1.6.57a16 16 0 005.76 1.28c26.71-32.2 42.33-73.62 46.92-115h-27.6v-26.7zm-266.27 39.43a47.2 47.2 0 01-12.26 19 49.1 49.1 0 01-19.43 10.79q-11.43 3.44-27.22 3.44h-28.39a7.59 7.59 0 01-5.1-1.78c-1.38-1.2-2.06-3.15-2.06-5.86V204.51c0-2.7.69-4.64 2.06-5.86a7.5 7.5 0 015.1-1.79h30.49q15.9 0 27 3.73a48.94 48.94 0 0118.65 11 47.43 47.43 0 0111.53 18.11 72.08 72.08 0 013.94 24.84q-.04 16.37-4.31 27.99zm121.36 28.52a8.5 8.5 0 01-1.95 2.76 7.43 7.43 0 01-2.93 1.59 11.87 11.87 0 01-3.45.52h-10.31a21.32 21.32 0 01-5.57-.64 11 11 0 01-4.31-2.35 20.25 20.25 0 01-3.81-4.59 82.38 82.38 0 01-4.12-7.48l-29.58-55.53q-2.58-5-5.23-10.73a183.94 183.94 0 01-4.77-11.16h-.19q.38 6.62.55 13.17c.12 4.37.18 8.9.18 13.54v62.18a2.9 2.9 0 01-.51 1.66 3.83 3.83 0 01-1.75 1.24 13.36 13.36 0 01-3.35.77 42.69 42.69 0 01-5.42.28 41.29 41.29 0 01-5.33-.28 13.78 13.78 0 01-3.3-.77 3.49 3.49 0 01-1.66-1.24 3.06 3.06 0 01-.46-1.66V205.51c0-2.93.84-5 2.52-6.48a9.28 9.28 0 016.2-2.16h13a24 24 0 015.85.6 11.84 11.84 0 014.27 1.95 15.1 15.1 0 013.54 3.81 50.16 50.16 0 013.39 6l23.16 43.46c1 2.08 2.11 4.14 3.15 6.15l.84 1.62c1.31 2.52 2.59 5.09 3.81 7.63l1.65 3.45 1.93 4c1.18 2.45 2.29 4.88 3.39 7.35h.09c-.18-4.29-.32-8.79-.41-13.41s-.13-9.09-.13-13.31v-55.7a2.7 2.7 0 01.54-1.66 4.24 4.24 0 011.84-1.28 12.38 12.38 0 013.39-.78 51.6 51.6 0 015.42-.23 47.94 47.94 0 015.23.23 10.85 10.85 0 013.27.78 3.74 3.74 0 011.61 1.28 3.16 3.16 0 01.45 1.66v106.82H316a9 9 0 01-.72 3.76zm93.6-14.52a33.9 33.9 0 01-9.46 11.79 41.21 41.21 0 01-14 7.13 59.11 59.11 0 01-17.08 2.37 60.84 60.84 0 01-11.43-1 68.41 68.41 0 01-9.33-2.43 40.56 40.56 0 01-6.74-3 20.16 20.16 0 01-3.91-2.76 7.14 7.14 0 01-1.71-3.44 32.75 32.75 0 01-.5-6.48 47.63 47.63 0 01.19-4.78 12.76 12.76 0 01.6-3.12 3.5 3.5 0 011.1-1.7 2.66 2.66 0 011.61-.51 7.53 7.53 0 013.62 1.52 65.46 65.46 0 006 3.35 54.73 54.73 0 008.78 3.34 41.33 41.33 0 0011.81 1.53 26.73 26.73 0 007.89-1.07 17.57 17.57 0 005.92-3 12.94 12.94 0 003.72-4.77 15.22 15.22 0 001.29-6.34 11.06 11.06 0 00-2.22-6.93 21.59 21.59 0 00-5.75-5.15 58.93 58.93 0 00-8-4.22q-4.5-2-9.28-4.19a84.41 84.41 0 01-9.26-5 36.88 36.88 0 01-8-6.7 32.23 32.23 0 01-5.76-9.24 33.34 33.34 0 01-2.2-12.77A33.84 33.84 0 01340 214a30.92 30.92 0 018.54-10.74 36.11 36.11 0 0112.7-6.38 57.32 57.32 0 0123.92-1.47 56 56 0 017.88 1.75 44.16 44.16 0 016.52 2.47 15 15 0 013.76 2.31 6.23 6.23 0 011.24 1.56 6.78 6.78 0 01.56 1.7 15.07 15.07 0 01.3 2.68c.07 1.06.11 2.39.11 4 0 1.78-.05 3.28-.16 4.5a17.32 17.32 0 01-.45 3 3.69 3.69 0 01-.91 1.75 2.32 2.32 0 01-1.61.55 7.62 7.62 0 01-3.23-1.28c-1.46-.86-3.28-1.79-5.41-2.81a53.48 53.48 0 00-7.43-2.76 32.33 32.33 0 00-9.33-1.23 21.65 21.65 0 00-6.88 1 13.86 13.86 0 00-4.88 2.67 10.46 10.46 0 00-2.93 4.08 13.42 13.42 0 00-1 5 11.18 11.18 0 002.15 6.84 20.3 20.3 0 005.79 5.13 59.18 59.18 0 008.23 4.23q4.58 2 9.37 4.19a93.23 93.23 0 019.36 5 37.69 37.69 0 018.18 6.71 31.15 31.15 0 015.78 9.19 31.86 31.86 0 012.17 12.44 36.72 36.72 0 01-3.46 16.45zM390.27 405a15.86 15.86 0 00-2.3-.92 15.86 15.86 0 01-2.3-.92c-2.3-.92-4.37-1.61-6.44-2.3s-4.14-1.38-6.44-2.3a3.38 3.38 0 01-1.39-.47 3.17 3.17 0 00-1.37-.45 70.55 70.55 0 00-8.4-2.55c-2.35-.61-4.79-1.24-7.22-2.05a7.11 7.11 0 01-1.84-.46 7.11 7.11 0 00-1.84-.46c-8.28 22.07-18.4 41.4-30.36 56.12 26.68-8.28 51.52-23 73.58-41.41-.71-.35-1.28-.7-1.77-1a4 4 0 00-1.91-.83zM256 382a429.55 429.55 0 00-69.91 5.51c17.47 45.08 43.23 70.84 68.07 71.76h.92c24.84 0 51.52-26.68 69-71.75A407.54 407.54 0 00256 382z" fill="#1f87d4"/></svg>