<svg data-name="Layer 1" xmlns="http://www.w3.org/2000/svg" viewBox="0 0 512 512"><path d="M355.68 368.06a17.62 17.62 0 0017.6-17.6v-29.33H385a46.93 46.93 0 100-93.85h-29.32a17.6 17.6 0 00-17.6 17.6v105.58a17.62 17.62 0 0017.6 17.6zm17.6-105.58H385a11.9 11.9 0 014.61.78 11.74 11.74 0 016.56 15.52 11.6 11.6 0 01-2.64 3.85 11.77 11.77 0 01-3.92 2.52 11.9 11.9 0 01-4.61.78h-11.72zM97.58 368.06a17.6 17.6 0 0017.6-17.6v-29.33h41.06a17.6 17.6 0 000-35.2h-41.06v-17.59a5.86 5.86 0 015.86-5.86h35.2a17.6 17.6 0 000-35.2H121a41.09 41.09 0 00-41 41.06v82.12a17.6 17.6 0 0017.59 17.6zM214.9 262.48h23.46v88a17.6 17.6 0 0035.2 0v-88H297a17.6 17.6 0 000-35.2h-82.1a17.6 17.6 0 000 35.2zM487.67 45.16a62.56 62.56 0 00-44.17-18.33h-375A62.58 62.58 0 006 89.33v333.34a62.58 62.58 0 0062.5 62.5h375a62.58 62.58 0 0062.5-62.5V89.33a62.55 62.55 0 00-18.33-44.17zm-23.34 377.51a20.86 20.86 0 01-20.83 20.83h-375a20.86 20.86 0 01-20.83-20.83V131h416.66z" fill="#2196f3"/><path d="M85.14 362.9a17.6 17.6 0 0030-12.44v-29.33h41.06a17.6 17.6 0 0017.59-17.6H80v46.93a17.56 17.56 0 005.14 12.44zm-31.36 74.49a20.84 20.84 0 01-6.11-14.72V131H256V26.83H68.5A62.58 62.58 0 006 89.33v333.34a62.58 62.58 0 0062.5 62.5H256V443.5H68.5a20.84 20.84 0 01-14.72-6.11zm284.3-133.86v46.93a17.6 17.6 0 0035.2 0v-29.33H385a46.89 46.89 0 0036.61-17.6zm-99.72 46.93a17.6 17.6 0 0035.2 0v-46.93h-35.2z" fill="#1d83d4"/></svg>