<svg data-name="Layer 1" xmlns="http://www.w3.org/2000/svg" viewBox="0 0 512 512"><path d="M99.75 68.5a10.42 10.42 0 1010.42 10.42A10.42 10.42 0 0099.75 68.5zm-41.67 0A10.42 10.42 0 1068.5 78.92 10.41 10.41 0 0058.08 68.5zm375 145.83a10.42 10.42 0 0010.42-10.41v-125a52.15 52.15 0 00-52.08-52.09H58.08A52.14 52.14 0 006 78.92v354.16a52.14 52.14 0 0052.08 52.09h333.33a52.15 52.15 0 0052.09-52.09v-62.5a10.42 10.42 0 00-20.84 0v62.5a31.29 31.29 0 01-31.25 31.25H58.08a31.29 31.29 0 01-31.25-31.25V131h395.83v72.92a10.42 10.42 0 0010.42 10.41zM26.83 110.17V78.92a31.29 31.29 0 0131.25-31.25h333.33a31.29 31.29 0 0131.25 31.25v31.25zM141.42 68.5a10.42 10.42 0 1010.41 10.42 10.41 10.41 0 00-10.41-10.42z" fill="#1d83d4"/><path d="M120.58 235.17a10.41 10.41 0 00-10.41 10.41v31.25H68.5v-31.25a10.42 10.42 0 00-20.83 0v83.34a10.42 10.42 0 0020.83 0v-31.25h41.67v31.25a10.42 10.42 0 0020.83 0v-83.34a10.42 10.42 0 00-10.42-10.41zm83.34 0h-41.67a10.42 10.42 0 100 20.83h10.42v72.92a10.42 10.42 0 0020.83 0V256h10.42a10.42 10.42 0 000-20.83zm83.33 0h-41.67a10.42 10.42 0 000 20.83H256v72.92a10.42 10.42 0 0020.83 0V256h10.42a10.42 10.42 0 100-20.83zm62.5 0h-20.83a10.42 10.42 0 00-10.42 10.41v83.34a10.42 10.42 0 0020.83 0v-31.25h10.42a31.25 31.25 0 000-62.5zm0 41.66h-10.42V256h10.42a10.42 10.42 0 110 20.83zm148.35-41.35a10.29 10.29 0 00-12.62 7.58l-20.84 83.34a10.41 10.41 0 0020.21 5l20.84-83.34a10.4 10.4 0 00-7.59-12.58zm-41.66 0a10.29 10.29 0 00-12.63 7.58L423 326.4a10.39 10.39 0 007.56 12.6 10.53 10.53 0 002.52.31 10.38 10.38 0 0010.11-7.89L464 248.1a10.39 10.39 0 00-7.56-12.62z" fill="#f58518"/><circle cx="405.13" cy="266.42" r="10.42" fill="#f58518"/><circle cx="405.13" cy="308.08" r="10.42" fill="#f58518"/></svg>