<svg data-name="Layer 1" xmlns="http://www.w3.org/2000/svg" viewBox="0 0 512 512"><path d="M397.36 473.91H335c2 7.09 10.49 16.3 15.36 17.79a27.15 27.15 0 008.19 1c6.74-.05 14.65-1.75 20.21-4.63 3.29-1.56 10.88-7.34 18.6-14.16zm-189.17.49l.24-.49h-70.81c3.47 1.2 6.89 2.6 11.07 4.39a151.22 151.22 0 0022.6 7.8l1.3.2a62.25 62.25 0 007.84.85c13.28.58 23.22-3.92 27.76-12.75z" fill="#febc11"/><path d="M245.19 118.1c-4.4 1.7-8 4.1-13.9 9.4-2 1.8-6.8 5.6-10.4 8.3-3.9 2.9-7.4 5.7-7.9 6.2a7.75 7.75 0 00-1.63 2.53 9.92 9.92 0 00-.47 3.47 7.15 7.15 0 001.1 4.7c2.3 4.7 5.1 7.4 13 12.6a87.7 87.7 0 017.7 5.9c6.1 5.4 12.9 9.3 17.9 10.3l1.1.2a23.5 23.5 0 0012-1.3 105.9 105.9 0 0016-7.4 59.32 59.32 0 0111.5-6 51.2 51.2 0 0012.22-6.48 28.65 28.65 0 004.18-3.62A26.45 26.45 0 00312 150a10.78 10.78 0 00-.1-7.9c-2.1-4.4-5.3-6.6-15.5-10.4-10.4-3.8-12.3-4.7-17.4-7.6-1.76-1-3.36-1.88-4.86-2.65a53.66 53.66 0 00-7.84-3.39h-.12l-.23-.06a33.75 33.75 0 00-10.75-1.55 24.41 24.41 0 00-10.01 1.65zm-5.3 7c1.5-2 5.5-3 8-2.7a2.7 2.7 0 011.48.43 2.11 2.11 0 011 1.17 1.6 1.6 0 01-.1 1.5 3.4 3.4 0 01-2.3 1.6 25.27 25.27 0 00-2.5 1.1 6.69 6.69 0 01-2.8 1 4.24 4.24 0 01-1.6-.4 2.86 2.86 0 01-1.7-1.7 2.44 2.44 0 01.52-2zm42 29.3c4.3-2.5 12.4-8.5 14-10.2l2.3-2.5a3.1 3.1 0 011.1-.9 4.29 4.29 0 01.5-.19 2.83 2.83 0 011.3-.31c1.6 0 2.2.7 2.4 1.3.6 2-2.5 5.7-9.4 10.9-4.7 3.5-8 5.5-15.9 9.4-1.53.75-2.94 1.41-4.28 2-7.4 3.46-12.22 4.86-18.12 5.38a28.18 28.18 0 01-4.1.3 28.85 28.85 0 01-8.7-1.3c-7.5-1.9-14.5-6-22.6-13.2-4.6-4.1-5.8-5.4-6-8-.1-1.2-.2-2.5 1-2.9l.23-.07h.07c2.2-.7 3.7 1.5 4.4 2.6 3.2 4.9 12.9 12.4 19.9 15.3 4.7 2 7 2.4 12.7 2.4 4.8 0 5.4-.1 8.5-.9a88.77 88.77 0 0011.1-4.07 85.09 85.09 0 009.6-5.04zm-20.2-31.8a10.3 10.3 0 016.5.6c1.7.8 2.9 1.6 2.9 3.3v.1a1.89 1.89 0 01-1 1.9v.1l-.6.2a5.29 5.29 0 01-1.8.4 5.05 5.05 0 01-3.1-1.2 7.58 7.58 0 00-1.8-.9h-.1a5.13 5.13 0 01-1.9-1 2.24 2.24 0 01-.8-1.47 2.43 2.43 0 011.7-2.03z" fill="#f79330"/><path d="M268.19 123.3a10.3 10.3 0 00-6.5-.6c-1.5.6-1.7 1.6-1.6 2a1.88 1.88 0 00.7 1.37 5.13 5.13 0 001.9 1h.1a7.58 7.58 0 011.8.9 5.05 5.05 0 003.1 1.2 5.29 5.29 0 001.8-.4l.6-.2v-.1a1.89 1.89 0 001-1.9c-.02-1.68-1.21-2.48-2.9-3.27zm-28.8 3.8a2.86 2.86 0 001.7 1.7 4.24 4.24 0 001.6.4 7.41 7.41 0 002.8-1 25.27 25.27 0 012.5-1.1 3.4 3.4 0 002.3-1.6 1.6 1.6 0 00.1-1.5 2.77 2.77 0 00-1-1.17 2.7 2.7 0 00-1.48-.43c-2.5-.3-6.5.7-8 2.7a2.84 2.84 0 00-.52 2zm13.3 37.3c-5.7 0-8-.4-12.7-2.4-7-2.9-16.7-10.4-19.9-15.3-.7-1.1-2.2-3.3-4.4-2.6h-.07c-1.12.43-1 1.69-.93 2.87.2 2.6 1.4 3.9 6 8 8.1 7.2 15.1 11.3 22.6 13.2a28.85 28.85 0 008.7 1.3 28.18 28.18 0 004.1-.3c5.82-.59 10.59-2 17.82-5.28 1.34-.61 2.75-1.27 4.28-2 7.9-3.9 11.2-5.9 15.9-9.4 6.9-5.2 10-8.9 9.4-10.9-.2-.6-.8-1.3-2.4-1.3a2.83 2.83 0 00-1.3.31 1.76 1.76 0 00-.2.09 2 2 0 00-1.1.9l-2.3 2.5c-1.6 1.7-9.7 7.7-14 10.2a90.76 90.76 0 01-21 9.2c-3.1.81-3.7.91-8.5.91z" fill="#849fbd"/><path d="M434.68 351.82l.21-.62c6.3-20.8 5.4-43.9-2.6-68-8-23.9-22.8-48.8-45.1-75.7-4.8-5.8-11.4-14.2-15-19.2-9.6-13.4-15-24.1-17.8-35.4-2-8.2-2.1-9.4-2.1-31.2 0-18.2-.1-23.6-.7-32-2.3-30.5-10-52-23.7-65.7a55.66 55.66 0 00-15.1-10.8c-9.6-4.7-19.4-6.9-32.3-7.2-14.3-.3-28 1.8-38.9 6.1-24.1 9.5-37.5 29.7-40.7 61.6a154.51 154.51 0 00-.7 18c0 8.9.1 12.4 1.1 26.8.8 13.1.9 17 .6 20.6-1.5 19-4.9 31.9-12 45.8a109.21 109.21 0 01-13 20c-20.4 24.9-36.6 50.2-46.9 73.4-7.9 17.8-12.3 34.1-13.4 49.6a117.78 117.78 0 00.3 16.8l.3 2.8-1.8 1.9c-.75.79-1.49 1.6-2.2 2.42H31.78v122.09h42.3c5.32 2.38 11.34 3.56 25.91 5.19 12.3 1.4 17.2 2.1 23.4 3.5a77.3 77.3 0 0119.3 7.1c12.1 6 22.5 9.1 33.9 10.4a65.54 65.54 0 0018.7-1c11.2-2.4 20.4-9.2 25-18.4l.7-1.5 2.9-.1c3.4-.2 6.5-.6 14.6-2.1s13.94-2.48 18.79-3.09h27.87c1.43.19 3.07.41 5 .69 7.4 1 12.1 1.6 15.4 2 3.8.4 11.2.6 13.9.5l2.5-.1.7 2.2a43.28 43.28 0 007 12.6 53.71 53.71 0 007.7 7.3 39.61 39.61 0 0016.9 6.7 53.22 53.22 0 006.8.2 33.14 33.14 0 007.7-.6q22.8-4.35 41.6-26c1.73-2 3.43-3.81 5.18-5.49h64.65V351.82zM357.59 226.3a1 1 0 01.9-.2c.6.2 7.4 7.2 9.9 10.2a119.53 119.53 0 0111 15.7H379a5.1 5.1 0 00-2.6 2.2c-1.5-2.7-2.7-5.4-4.4-8.1a86.11 86.11 0 00-11-13.8c-3.71-3.7-4.61-5.2-3.41-6zm-92.9-126.6a41.61 41.61 0 015.4-13.7 34 34 0 017.6-7.6 17.79 17.79 0 0111.1-3.2 15.66 15.66 0 018.7 2 26.68 26.68 0 0112.1 12.7 35 35 0 013.9 14.8 37.63 37.63 0 01-6.4 24.1 8.23 8.23 0 01-1.2 1.5c-.1-.1-1.2-.5-2.5-1s-3.8-1.5-5.5-2.2l-3.8-1.4-.6-.2 1.6-1.7c2.3-2.4 3.3-4.9 3.8-9.5 1-8.4-2.2-16.7-7.4-19.2a8.56 8.56 0 00-5.9-.3 12.7 12.7 0 00-6.5 6.6 24 24 0 00-2.1 6.4 36.57 36.57 0 00-.2 8.1l.1.9-2.2-1a72.48 72.48 0 00-9.3-3c-1.1-.2-1.2-.3-1.4-1-.1-.4-.1-2.8-.1-5.2.2-2.3.4-4.6.8-6.9zm-9.3 16.6a34.09 34.09 0 0110.55 1.7l.23.06h.12a53.66 53.66 0 017.84 3.39c1.53.77 3.16 1.65 5 2.65 5.1 2.9 7 3.7 17.4 7.5 10.2 3.8 13.5 6 15.5 10.4a11.31 11.31 0 01.1 7.9 24.05 24.05 0 01-4.4 6.9 26.82 26.82 0 01-4.28 3.72 51.2 51.2 0 01-12.26 6.48 59.32 59.32 0 00-11.5 6 105.9 105.9 0 01-16 7.4 23.5 23.5 0 01-12 1.3l-1.1-.2c-5-1-11.8-4.9-17.9-10.3a87.7 87.7 0 00-7.7-5.9c-7.9-5.2-10.7-7.9-13-12.6a7.15 7.15 0 01-1.1-4.7 9.92 9.92 0 01.47-3.47 7 7 0 011.73-2.73 81.29 81.29 0 017.9-6.2c3.6-2.7 8.3-6.5 10.4-8.3 5.9-5.3 9.4-7.6 14-9.3a24.41 24.41 0 0110-1.7zm-44.7-16.8a33.25 33.25 0 015.4-13.2 16.4 16.4 0 018.4-6.1 15.16 15.16 0 016.7.3c6 2 11.1 8.5 13.6 17.3a35.13 35.13 0 011.3 10.7v4.1l-2.1.7a38.86 38.86 0 00-6.6 3 11.72 11.72 0 01-1.1.6 33.41 33.41 0 01-.2-3.6 20.05 20.05 0 00-2-9.3c-4.9-10.3-13.7-6.9-14.3 5.7-.3 6.2 1.7 12.5 4.9 15.4a2.38 2.38 0 01.8 1 14.86 14.86 0 01-2.6 2v.1c-1.3 1-2.7 2.1-3.1 2.3l-.6.5-1.1-1.2c-3.5-3.9-6.1-9.7-7.3-16.4a53.9 53.9 0 01-.1-13.9zm-36.9 138.7c2.4-3.9 2.9-4.4 2.9-2.9 0 1.1-1.5 4.6-4.4 10.4-1.5 2.9-4.1 8-5.9 11.5a114.71 114.71 0 00-4.9 11.4l-.2-.2-2.6-2.3a312.5 312.5 0 0115.1-27.9zm34.5 236.2c-4.48 9-14.45 13.38-27.86 12.75a62.25 62.25 0 01-7.84-.85l-1.3-.2a151.22 151.22 0 01-22.6-7.8c-4.18-1.79-7.6-3.19-11.07-4.39h70.9c-.08.16-.15.33-.23.49zm-21-122.58c-4.67-3.58-9.11-7-11.81-9l-3.6-2.8c2.7-3.5 4.6-9.5 6.1-19.1 2.8-18.4 6.7-30.2 20.9-63.4 15.5-35.9 21.1-51.1 25.1-67.7l1-4c10.9 7.8 21 11.7 30.8 11.7h.4c8.8-.1 15.2-2.6 33.9-11.8 7.6-3.8 13.8-6.7 17.7-8.6 4.5 15.1 19.9 52 28.8 71.6 7.9 17.2 17.1 39.7 20.5 50.2l5.2 16-4.5 4.8c-12.49 13-20.53 23.14-25.27 32.12zm191.6 136.28c-5.59 2.89-13.55 4.6-20.31 4.63a27.15 27.15 0 01-8.19-1C345.52 490.21 337 481 335 473.91h62.42c-7.71 6.82-15.35 12.6-18.53 14.19z" fill="#849fbd"/><path d="M160.56 384.71c-6.89-5.2-15.69-7.64-29.27-7.64a143.48 143.48 0 00-21.84 1.49v70.2a140 140 0 0018.34 1.06c14 0 25.46-3 33-9.22 6.89-5.84 11.87-15.27 11.87-29-.01-12.6-4.66-21.38-12.1-26.89zm-29.27 52.49a30.54 30.54 0 01-5.62-.31v-46.77a33.5 33.5 0 017.32-.64c13.89 0 22.59 7.85 22.48 22.7 0 17.07-9.54 25.13-24.18 25.02zm263.63-54.4c-4.78-3.82-11.88-5.73-21.85-5.73a132.14 132.14 0 00-21.85 1.49v70.52h16v-25.56a39.31 39.31 0 005.51.32c9.55 0 17.71-2.33 23.23-7.53 4.24-4 6.57-10 6.57-17a20.89 20.89 0 00-7.61-16.51zm-22.27 28.63a24.61 24.61 0 01-5.41-.42v-21.1a27.31 27.31 0 016.68-.64c8.06 0 12.62 3.92 12.62 10.5 0 7.32-5.3 11.66-13.89 11.66zM314 389.8a34.9 34.9 0 0113.57 2.65l3.29-12.83c-2.87-1.49-9.23-3.18-17.61-3.18-21.63 0-39 13.57-39 38 0 20.36 12.72 35.85 37.43 35.85 8.7 0 15.38-1.7 18.35-3.18l-2.44-12.62a40.45 40.45 0 01-13.47 2.33c-14.42 0-22.9-9-22.9-23.33-.01-15.95 9.95-23.69 22.78-23.69zm-77.3 15.27h-26.62V377.6h-16.22v71.48h16.22v-29.9h26.62v29.9h16.12V377.6H236.7z" fill="#fff"/></svg>