<svg data-name="Layer 1" xmlns="http://www.w3.org/2000/svg" viewBox="0 0 512 512"><path d="M404.64 334h-5.38c-37.49 0-75 .06-112.46-.13-2.41 0-6.25-1.21-7-2.93-3.12-7.12-7.63-12.52-14.53-16.11-5.73-3-2.57-8.44-2.65-12.72 0-1.13 4.08-3.12 6.44-3.37A150.36 150.36 0 00327.52 280c51.33-29.13 81.87-88.83 72-151.88-9.76-62.7-66.3-116.66-129.86-121.57C219.4 2.67 177.21 19.27 143.51 57c-47 52.52-46.82 138.87.15 191.4 26.11 29.24 58.46 46 98.37 50.51.17 7.79 2.68 15.24-6.56 19.93-3.39 1.74-6.19 6.13-7.55 9.93-1.68 4.7-4.36 5.22-8.54 5.22q-55.21-.09-110.43 0c-2.87 0-6.34-.21-8.46 1.24-2.8 1.91-6.09 5.25-6.27 8.19s2.62 6.78 5.19 8.94c1.84 1.57 5.45 1.41 8.28 1.41q57.24.19 114.47 0c4.32 0 7.31 1 10.35 4.5a27.16 27.16 0 0020.39 9.53 27.18 27.18 0 0020.58-9.12c3.41-3.84 6.76-4.91 11.53-4.91q59.92.14 119.85.06c8.32 0 13.17-4 12.92-10.32-.22-5.87-5.15-9.45-13.14-9.51zM124.42 152c.31-72.33 59.06-130.54 131-129.84 72.2.73 130.4 59.19 129.93 130.54-.47 72.35-59.17 130.74-130.95 130.26-72.5-.44-130.29-58.62-129.98-130.96zm210.92 25.77q-29.26-17.26-58.83-33.95c-4.67-2.65-6.48-5.9-6.44-11.29q.4-40 0-80a28.35 28.35 0 00-3-12.78c-3.34-6.18-10.65-8.34-17.53-6.5-6.71 1.81-11.61 8.22-11.72 16.27-.2 14.57-.06 29.15-.06 43.72h-.1c0 12.33.24 24.67-.12 37a61.3 61.3 0 01-2.54 15.57c-4.37 14.65 6.69 28.53 22.06 27.52a16.51 16.51 0 018.74 1.95c17.37 9.78 34.58 19.87 51.88 29.81 6.11 3.52 12.54 5.23 19.09 1.32 10.97-6.56 10.37-21.64-1.43-28.62z" fill="#2196f3"/><path d="M222.36 418.06H253V506h24.27v-87.94h30.71v-19.74h-85.62zm-46.78 39.81a114.12 114.12 0 00.61 14.79H176c-1.73-2.91-3.54-5.83-5.48-8.77l-42.72-65.55h-26.13V506h22.88v-59.17q0-11.7-.6-17.4h.31a93.9 93.9 0 005.39 8.92L174 506h24.45V398.32h-22.9zm234.74-25.24q0-34.31-40.69-34.31h-38V506h24.26v-37.11h11.54q19.55 0 31.19-10a32.86 32.86 0 0011.68-26.25zm-44.89 17.87h-9.52V417h9.52q19.36 0 19.37 16.57.02 16.95-19.37 16.93z" fill="#1d83d4"/></svg>