<svg data-name="Layer 1" xmlns="http://www.w3.org/2000/svg" viewBox="0 0 512 512"><path d="M6 6h500v500H6z" fill="#0078d4"/><path d="M194.59 203.14c-5.94.62-11.77 2.75-17.41 4.81-2.05.75-4.16 1.52-6.28 2.21l-1.23-4h-15.38v115.26H171v-32.58l1.31.51c1.77.68 3.17 1.22 4.61 1.69 11 3.57 22 2.94 31-1.79s15.54-13 18.83-24a64.25 64.25 0 00-1.53-42.25c-5.51-14.35-16.39-21.38-30.63-19.86zm14.74 60.78c-2.15 6.31-7.89 11.42-15.36 13.68-7.77 2.36-15.75 1.22-21.37-3a6 6 0 01-1.53-4.05v-.38c-.08-2.4-.12-4.82-.13-7.23v.16V251c0-1.66 0-3.33.07-5a115.26 115.26 0 00-.17-11.59v-.14c-.42-5.13 1.23-8 5.5-9.67 1.38-.53 2.74-1.11 4.06-1.67a54.22 54.22 0 018.31-3c9.35-2.3 17.57 2.08 20.47 10.9a51.59 51.59 0 01.12 33.12zm-86.53-26.36a10.26 10.26 0 00-3-3.05h-.08a73.36 73.36 0 00-11-5.11l-69.27-30.7-1.79-.78-.3 1.93c-2.06 13.11-1.71 13.81 9.46 18.69L100.63 242l-11.17 4.87c-14.84 6.49-28.9 12.62-43 18.72-11.27 4.91-11.76 5.95-8.81 18.53l.41 1.76 9.66-4.28c23.7-10.49 48.21-21.34 72.17-32.2l.22-.11a9.4 9.4 0 004.19-7.4v-.3a10.3 10.3 0 00-1.5-4.03zm331.32-29.76l-1.27-.19-11.14-1.74c-6.12-1-11.85-1.85-17.57-2.72-16.93-2.54-31.58 4.32-39.19 18.36-8.95 16.54-9.21 34-.77 52 5.35 11.37 15.17 17.32 26.9 16.34 6.63-.56 13.11-2.36 19.38-4.1 2.15-.59 4.36-1.21 6.54-1.76.39 9.31-1.63 16-6 19.86-4.88 4.33-13 5.45-24.13 3.32-3.56-.68-7-1.66-10.69-2.69-2.18-.61-4.42-1.24-6.71-1.81l-1.86-.47v18.68l1.39.1c3.18.24 6.39.56 9.5.87 6.14.61 12.47 1.24 18.75 1.24h1.5c20.54-.32 33.48-12.67 34.61-33.05.73-13.13.72-26.51.72-39.45v-15.53zm-17 31v17.38c0 7.95-1.44 11.08-6.17 13.39a45.26 45.26 0 01-10.27 3.43c-10.51 2.32-18.37-1-21.57-9a42.87 42.87 0 010-33.25 19.48 19.48 0 016.59-8 29.35 29.35 0 0116.84-5.34c5 0 9.84 1.38 13.42 4.56a5.56 5.56 0 011.11 3.52c.08 4.39.06 8.95.05 13.36zm-75.75 7.06c-.09-7.13-.19-14.49-1.42-21.6-2.4-13.94-12.59-22.25-25.89-21.15-6.78.56-13.24 2.55-20.07 4.67-2.46.76-5 1.54-7.52 2.24-.17-.76-.38-1.72-.58-2.65l-.26-1.19H290v85.2h16.56v-15.35c0-14.57 0-28.33.12-42.34 0-2.86.87-5.52 1.55-5.89l1-.57c5.9-3.18 12-6.47 18.28-7.63 4.36-.81 8-.17 10.71 1.89 3 2.22 4.83 6.1 5.35 11.21a119.75 119.75 0 01.37 12.56v45.84h17.49v-15.5c.05-9.3.09-18.09 0-27.1zm-114.52-49.7h18V179h-18zm1 95h15.94v-85.07h-16z" fill="#fff"/></svg>