<svg data-name="Layer 1" xmlns="http://www.w3.org/2000/svg" viewBox="0 0 512 512"><defs><linearGradient id="a" x1="204.73" y1="309.14" x2="440.66" y2="72.99" gradientTransform="matrix(1 0 0 -1 0 514)" gradientUnits="userSpaceOnUse"><stop offset="0" stop-opacity=".1"/><stop offset="1" stop-opacity="0"/></linearGradient></defs><path d="M447.13 179.36a33 33 0 016.85 20V310a33.22 33.22 0 01-33.22 33.22H88.62a33 33 0 01-22.43-8.88l53.17 53.17h356.75a22.18 22.18 0 0022.16-22.14V230.48z" fill="url(#a)"/><path d="M420.76 309.13H88.62a11.08 11.08 0 01-11.07-11.06v12a11.1 11.1 0 0011.07 11.08h332.14A11.11 11.11 0 00431.84 310v-12a11.1 11.1 0 01-11.08 11.06z" style="isolation:isolate" opacity=".2" fill="#fff"/><path d="M121.84 254.69h265.71v-22.14H121.84zm371.94-132.31a41.7 41.7 0 00-29.45-12.21H47.67A41.7 41.7 0 006 151.83v208.34a41.7 41.7 0 0041.67 41.66h416.66A41.7 41.7 0 00506 360.17V151.83a41.71 41.71 0 00-12.22-29.45zm-8.61 237.79A20.86 20.86 0 01464.33 381H47.67a20.86 20.86 0 01-20.84-20.83V151.83A20.86 20.86 0 0147.67 131h416.66a20.86 20.86 0 0120.84 20.83zm-64.41-171.91H88.62a11.1 11.1 0 00-11.07 11.08V310a11.1 11.1 0 0011.07 11.08h332.14A11.11 11.11 0 00431.84 310V199.34a11.11 11.11 0 00-11.08-11.08zm-11.06 77.51a11.07 11.07 0 01-11.08 11.06h-33.21a11.08 11.08 0 11-22.14 0H299a11.08 11.08 0 11-22.15 0h-44.3a11.08 11.08 0 11-22.15 0h-44.28a11.07 11.07 0 11-22.14 0h-33.22a11.06 11.06 0 01-11.06-11.06v-44.29a10.8 10.8 0 01.84-4.24 11.05 11.05 0 012.39-3.6 11 11 0 017.83-3.24h287.86a11.08 11.08 0 0111.08 11.08z" fill="#1d83d4"/><path d="M121.84 242.71h265.71v-10.16H121.84zm322.41-66.86a33.22 33.22 0 00-23.49-9.73H88.62a33.2 33.2 0 00-33.21 33.22V310a33.2 33.2 0 0033.21 33.22h332.14A33.2 33.2 0 00454 310V199.34a33.25 33.25 0 00-9.75-23.49zM431.84 310a11.11 11.11 0 01-11.08 11.08H88.62A11.1 11.1 0 0177.55 310V199.34a11.1 11.1 0 0111.07-11.08h332.14a11.11 11.11 0 0111.08 11.08z" fill="#2196f3"/></svg>