<svg data-name="Layer 1" xmlns="http://www.w3.org/2000/svg" viewBox="0 0 512 512"><path d="M488.93 68H109.15c-11.83 0-23.65 9.62-26.36 21.53L6.57 422.47C3.84 434.38 11.23 444 23.07 444h379.78c11.83 0 23.65-9.65 26.36-21.56l76.22-332.91c2.73-11.91-4.66-21.53-16.5-21.53zM102.31 391c-7.2-9.92-5.47-23.46 3.9-30.27l154.58-111.97v-2.29l-97.12-103.33c-7.92-8.42-7.11-22 1.83-30.44s22.63-8.35 30.54.08l116.54 124c6.61 7 7.11 17.69 1.88 25.9-1.59 3.2-4.88 6.72-10.71 10.83L132.31 396.59c-9.31 6.81-22.79 4.29-30-5.59zM368 373.55a19.33 19.33 0 01-19.46 19.21h-92.33a19.34 19.34 0 01-19.46-19.23 19.33 19.33 0 0119.46-19.21h92.37A19.33 19.33 0 01368 373.53z" fill="#1d83d4"/></svg>