<svg xmlns="http://www.w3.org/2000/svg" viewBox="0 0 512 512"><g data-name="Layer 2"><path d="M211.81 447.66c-60 0-120 .25-180.07-.14-30.44-.2-36-7.47-29.12-37.59 23.23-102.15 47.21-204.11 69.92-306.38C78.63 76.13 91.76 64 120.81 64.27c120 1.13 240.09.37 360.14.49 30.11 0 35.16 6.55 28.4 37.44q-32.85 150.45-66.49 300.72c-8.41 37.49-18.09 44.64-57.08 44.73q-86.98.17-173.97.01z" fill="#0277bd"/><path d="M267.36 255.37c-6.48-7.37-11.87-13.51-16.36-18.47-25.91-29.09-49.64-56.19-75.31-83.9-11.75-12.68-15.49-25-1.39-37.51 13.94-12.37 27.64-11.29 40.43 3 35.61 39.63 71.18 79.31 107.38 118.4 13.52 14.59 10.36 24.52-4.52 35.34Q232 334.58 146.92 397.77c-12.75 9.45-24.92 11.82-35.23-2.15-11.36-15.4-.85-24.57 10.94-33.2q63.26-46.28 126.18-93c5.85-4.37 13.63-10.37 18.55-14.05zM232.1 394.81c-12 0-18.66-10.66-18.66-21.32s6.67-21.33 18.66-21.33h101.3c12 0 18.66 10.66 18.66 21.33s-6.67 21.32-18.66 21.32z" fill="#fafafa"/></g></svg>