<svg width="48" height="48" viewBox="0 0 48 48" fill="none" xmlns="http://www.w3.org/2000/svg"><path d="M45.3 29.03c-.09-.84-.43-1.62-1.02-2.27L41.69 24l2.48-2.79a3.97 3.97 0 00.48-4.63l-3.93-6.8c-.42-.73-1.05-1.3-1.81-1.64-.77-.34-1.61-.43-2.42-.27l-3.67.78-1.2-3.61c-.27-.79-.77-1.47-1.45-1.96-.68-.49-1.48-.74-2.31-.74h-7.83c-.86-.04-1.68.21-2.38.68-.71.48-1.25 1.2-1.54 2.07l-1.06 3.52-3.8-.75-.11-.02c-.78-.11-1.56.01-2.27.35-.71.34-1.29.88-1.71 1.57l-3.92 6.77c-.43.72-.63 1.54-.55 2.38.07.84.4 1.62.96 2.27l2.5 2.78-2.51 2.85a3.95 3.95 0 00-.95 2.26c-.07.84.12 1.66.54 2.35l3.93 6.8c.42.73 1.04 1.29 1.81 1.64.77.35 1.61.44 2.42.27l3.67-.78 1.2 3.6c.27.81.82 1.53 1.53 2.02.66.44 1.44.68 2.23.68h7.97c.83 0 1.63-.26 2.31-.74.68-.49 1.18-1.16 1.45-1.96l1.17-3.57 3.68.74c.82.17 1.67.08 2.44-.26a3.98 3.98 0 001.81-1.63l3.93-6.8c.42-.73.6-1.56.51-2.4h.01zm-7.89 7.19l-3.69-.75c-.95-.2-1.94-.04-2.78.45-.84.49-1.47 1.25-1.79 2.18l-1.17 3.57-7.93.03-1.2-3.61c-.31-.92-.94-1.69-1.79-2.17-.61-.35-1.29-.53-1.97-.53-.27 0-.53.03-.79.08l-3.67.76-3.97-6.78 2.5-2.83c.64-.72.99-1.65.99-2.62 0-.97-.35-1.89-.99-2.62L6.7 18.57l3.89-6.77 3.67.72c.95.2 1.94.04 2.78-.44.84-.48 1.48-1.25 1.8-2.23l1.05-3.52h.05l7.89-.03 1.2 3.61c.31.92.94 1.69 1.79 2.17.84.48 1.83.64 2.77.44l3.67-.76 3.93 6.78-2.52 2.84c-.64.72-.99 1.65-.99 2.62 0 .97.35 1.89.99 2.62l2.66 2.81-3.91 6.79h-.01zM15.12 18.17l-4.19 11.65h2.88l.73-2.12h4.08l.74 2.12h2.89l-4.18-11.65h-2.95zm.21 7.25l1.26-3.64 1.26 3.64h-2.52zm14.49-6.76c-.64-.31-1.42-.47-2.31-.47h-4.35v11.64h2.73v-4.28h1.62c.95 0 1.76-.17 2.39-.51.64-.34 1.12-.8 1.43-1.36.3-.56.45-1.16.45-1.8 0-.7-.16-1.34-.49-1.9-.33-.56-.82-1.01-1.47-1.33v.01zm-1.21 4.23c-.25.24-.65.36-1.2.36h-1.52v-2.74h1.52c1.07 0 1.57.44 1.57 1.38 0 .44-.12.77-.37 1.01v-.01zm4.25 6.94h2.73V18.19h-2.73v11.64z" fill="#009DDC"/></svg>