<svg xmlns="http://www.w3.org/2000/svg" width="48" height="48" viewBox="0 0 48 48"><path d="M35.82 34.21c.46 0 .87-.19 1.16-.54.16-.2.36-.55.36-1.08v-2.74h1.46c1.2 0 2.17-.38 2.87-1.13.7-.73 1.05-1.73 1.05-2.97s-.35-2.24-1.05-2.96c-.71-.74-1.67-1.11-2.88-1.11h-2.96c-.45 0-.85.18-1.13.5-.18.2-.39.56-.39 1.09v9.32c0 .53.2.88.36 1.08.28.35.69.54 1.15.54zm1.51-9.52h1.36c.7 0 1.01.15 1.01 1.06s-.31 1.09-1.01 1.09h-1.36v-2.15zM41.5 2.52h-35C3.22 2.52.56 5.17.56 8.45v31.1a5.93 5.93 0 005.93 5.93H41.5a5.93 5.93 0 005.93-5.93V8.45a5.93 5.93 0 00-5.93-5.93zm1.95 39.02H4.39V12.28h39.06v29.26zm-26.24-7.33c.47 0 .88-.2 1.16-.56.23-.29.34-.65.34-1.07v-3.26h2.81c.42 0 .81-.16 1.08-.45.18-.19.39-.53.39-1.05s-.21-.87-.4-1.08c-.19-.2-.54-.44-1.07-.44h-2.81v-1.6h3.06c.42 0 .81-.16 1.08-.45.18-.19.4-.53.4-1.06s-.22-.88-.4-1.07c-.27-.29-.66-.45-1.08-.45h-4.54c-.45 0-.85.18-1.13.5-.26.29-.39.67-.39 1.09v9.32c0 .53.2.88.36 1.08.28.35.69.54 1.15.54zm-7.5-2.99c-.74 0-1.38-.26-1.99-.82-.7-.6-1.63-.5-2.08.21-.17.26-.26.58-.26.9 0 .46.15.87.45 1.19.45.49 1.03.88 1.75 1.16.68.27 1.41.4 2.15.4.79 0 1.51-.16 2.14-.48a3.78 3.78 0 001.55-1.41c.36-.6.55-1.3.55-2.06 0-.84-.22-1.54-.65-2.09-.39-.5-.89-.88-1.48-1.12-.48-.2-1.1-.41-1.9-.64-.71-.2-1.05-.39-1.21-.52-.03-.03-.12-.09-.12-.39 0-.42.14-.59.24-.69.19-.17.51-.26.94-.26.35 0 .63.05.85.15.17.08.45.25.86.64l.11.09c.78.57 1.6.41 2.03-.26.17-.26.26-.58.26-.91 0-.42-.15-.82-.44-1.17-.44-.51-.99-.91-1.63-1.18-1.31-.55-2.94-.53-4.14.09-.66.34-1.17.83-1.54 1.45-.36.61-.55 1.32-.55 2.09 0 .83.2 1.53.59 2.09.37.53.86.94 1.45 1.22.49.23 1.11.45 1.85.66.46.12.82.24 1.08.35.16.07.28.15.36.25.02.02.03.08.03.19 0 .39-.12.54-.22.63-.24.21-.68.25-1 .25zm15.48-6.5h1.68v7.87c0 .54.21.89.38 1.1.29.34.69.53 1.14.53s.87-.19 1.15-.54c.16-.2.36-.56.36-1.08v-7.87h1.68c.42 0 .81-.16 1.08-.45.18-.19.4-.53.4-1.07s-.22-.88-.39-1.07c-.27-.29-.66-.45-1.08-.45h-6.4c-.43 0-.81.16-1.08.45-.18.19-.4.53-.4 1.07s.21.87.4 1.07c.27.29.65.45 1.08.45z" fill="#2196f3"/><path d="M16.06 33.67c.28.35.69.54 1.15.54s.88-.2 1.16-.56c.23-.29.34-.65.34-1.07v-3.26h2.81c.42 0 .81-.16 1.08-.45.1-.1.2-.25.28-.45H15.7v4.16c0 .53.2.88.36 1.08zM.56 8.45v31.1a5.93 5.93 0 005.93 5.93h17.5v-3.95H4.47V12.28H24V2.52H6.5C3.22 2.52.56 5.17.56 8.45zm9.15 22.77c-.74 0-1.38-.26-1.99-.82-.7-.6-1.63-.5-2.08.21-.17.26-.26.58-.26.9 0 .46.15.87.45 1.19.45.49 1.03.88 1.75 1.16.68.27 1.41.4 2.15.4.79 0 1.51-.16 2.14-.48a3.78 3.78 0 001.55-1.41c.36-.6.55-1.3.55-2.06s-.18-1.36-.51-1.87H6.9c.22.18.46.34.72.46.49.23 1.11.45 1.85.66.46.12.82.24 1.08.35.16.07.28.15.36.25.02.02.03.08.03.19 0 .39-.12.54-.22.63-.24.21-.68.25-1 .25zm17.17 1.37c0 .54.21.89.38 1.1.29.34.69.53 1.14.53s.87-.19 1.15-.54c.16-.2.36-.56.36-1.08v-4.16h-3.04v4.16zm7.42-4.16v4.16c0 .53.2.88.36 1.08.28.35.69.54 1.15.54s.87-.19 1.16-.54c.16-.2.36-.55.36-1.08v-2.74h1.46c1.2 0 2.17-.38 2.87-1.13.08-.09.15-.2.22-.29H34.3z" fill="#1d83d4"/></svg>