<svg data-name="Layer 1" xmlns="http://www.w3.org/2000/svg" width="48" height="48" viewBox="0 0 48 48"><path d="M40 7.11c-.58-.33-1.25-.47-1.92-.47H9.11c-.64 0-1.29.14-1.84.46-1.18.69-1.9 1.93-1.9 3.25v26.46c0 .67.14 1.34.47 1.92.69 1.2 1.93 1.9 3.25 1.9h20.09c.49 0 .89-.4.89-.89s-.4-.89-.89-.89H9.08c-.51-.01-1.01-.21-1.37-.57-.36-.36-.56-.85-.56-1.36V16H37.3c.24 0 .47-.08.64-.24.17-.16.27-.39.28-.62a.89.89 0 00-.25-.64.897.897 0 00-.62-.28H7.15v-3.87c0-.52.2-1.01.56-1.37.36-.36.86-.56 1.37-.56h29.11c.52 0 1.01.2 1.37.56s.56.85.56 1.37v14.28c0 .49.4.9.89.9s.89-.4.89-.9V10.34c0-1.31-.7-2.55-1.91-3.24z" fill="#3081c4"/><path d="M12.24 18.84c-.21-.19-.48-.29-.76-.28-.28 0-.55.12-.74.32s-.31.46-.32.74c0 .28.09.55.28.76l3.55 3.55-3.44 3.47c-.19.21-.29.48-.28.76s.12.55.32.75c.2.2.47.31.75.32.28 0 .55-.1.76-.29l4.2-4.24c.2-.21.32-.48.32-.77s-.11-.57-.32-.77l-4.32-4.32zm20.06-6.57h1.19c.14 0 .27-.05.36-.15s.15-.23.15-.36v-1.27c0-.14-.05-.27-.15-.36s-.23-.15-.36-.15H32.3c-.14 0-.27.05-.36.15-.1.1-.15.23-.15.36v1.27c0 .14.05.27.15.36.1.1.23.15.36.15zm3.44 0h1.19c.14 0 .27-.05.36-.15.1-.1.15-.23.15-.36v-1.27c0-.14-.05-.27-.15-.36-.1-.1-.23-.15-.36-.15h-1.19c-.14 0-.27.05-.36.15-.1.1-.15.23-.15.36v1.27c0 .14.05.27.15.36.1.1.23.15.36.15zm-5.69-2.3h-1.19c-.14 0-.27.05-.36.15-.1.1-.15.23-.15.36v1.27c0 .14.05.27.15.36.1.1.23.15.36.15h1.19c.14 0 .27-.05.36-.15.1-.1.15-.23.15-.36v-1.27c0-.14-.05-.27-.15-.36-.1-.1-.23-.15-.36-.15zm14.11 23.97h-.89v-2.66c0-2.44-1.99-4.43-4.43-4.43s-4.43 1.99-4.43 4.43v2.66h-.89c-.98 0-1.77.79-1.77 1.77v7.09c0 .98.79 1.77 1.77 1.77h10.63c.98 0 1.77-.79 1.77-1.77v-7.09c0-.98-.79-1.77-1.77-1.77zm-7.97-2.66c0-1.46 1.2-2.66 2.66-2.66s2.66 1.2 2.66 2.66v2.66h-5.32v-2.66zm7.97 11.52H33.53v-7.09h10.63v7.09zM25.32 27.12h-5.84c-.29 0-.57.12-.78.32-.21.21-.32.48-.32.78s.12.57.32.78c.21.21.48.32.78.32h5.84c.29 0 .57-.12.78-.32s.32-.48.32-.78-.12-.57-.32-.78a1.08 1.08 0 00-.78-.32z" fill="#f58520"/></svg>