<svg data-name="Layer 1" xmlns="http://www.w3.org/2000/svg" viewBox="0 0 512 512"><path d="M455.18 23.42H56.82A50.88 50.88 0 006 74.24v363.52a50.88 50.88 0 0050.82 50.82h398.36A50.88 50.88 0 00506 437.76V74.24a50.88 50.88 0 00-50.82-50.82zm26.4 414.34a26.43 26.43 0 01-26.4 26.4H56.82a26.43 26.43 0 01-26.4-26.4V151.67h412.52a12.21 12.21 0 100-24.41H30.42v-53a26.43 26.43 0 0126.4-26.4h398.36a26.43 26.43 0 0126.4 26.4z" fill="#2f81c4"/><path d="M100 190.23a15 15 0 00-21.18 21.18l48.52 48.52-47 47.45a15 15 0 0021.28 21.09l57.52-58a15 15 0 000-21.14zm179.06 113.22h-79.95a15 15 0 100 30h79.95a15 15 0 000-30zm64.68-234.54h-16.32a7 7 0 00-7 7v17.38a7 7 0 007 7h16.32a7 7 0 007-7V75.92a7 7 0 00-7-7.01zm94.18 0h-16.33a7 7 0 00-7 7v17.38a7 7 0 007 7h16.33a7 7 0 007-7V75.92a7 7 0 00-7-7.01zm-47.09 0H374.5a7 7 0 00-7 7v17.38a7 7 0 007 7h16.33a7 7 0 007-7V75.92a7 7 0 00-7-7.01z" fill="#f58520"/></svg>