<svg xmlns="http://www.w3.org/2000/svg" width="48" height="48" viewBox="0 0 48 48"><path d="M35.82 34.21c.46 0 .87-.19 1.16-.54.16-.2.36-.55.36-1.08v-2.74h1.46c1.2 0 2.17-.38 2.87-1.13.7-.73 1.05-1.73 1.05-2.97s-.35-2.24-1.05-2.96c-.71-.74-1.67-1.11-2.88-1.11h-2.96c-.45 0-.85.18-1.13.5-.18.2-.39.56-.39 1.09v9.32c0 .53.2.88.36 1.08.28.35.69.54 1.15.54zm1.51-9.52h1.36c.7 0 1.01.15 1.01 1.06s-.31 1.09-1.01 1.09h-1.36v-2.15zm-12.13.03h1.68v7.87c0 .54.21.89.38 1.1.29.34.69.53 1.14.53s.87-.19 1.15-.54c.16-.2.36-.56.36-1.08v-7.87h1.68c.42 0 .81-.16 1.08-.45.18-.19.4-.53.4-1.07s-.22-.88-.39-1.07c-.27-.29-.66-.45-1.08-.45h-6.4c-.43 0-.81.16-1.08.45-.18.19-.4.53-.4 1.07s.21.87.4 1.07c.27.29.65.45 1.08.45zm16.3-22.2h-35C3.22 2.52.56 5.17.56 8.45v31.1a5.93 5.93 0 005.93 5.93H41.5a5.93 5.93 0 005.93-5.93V8.45a5.93 5.93 0 00-5.93-5.93zm1.95 39.02H4.39V12.28h39.06v29.26zm-26.68-7.33c.47 0 .88-.2 1.16-.56.23-.29.34-.65.34-1.07v-3.26h2.81c.42 0 .81-.16 1.08-.45.18-.19.39-.53.39-1.05s-.21-.87-.4-1.08c-.19-.2-.54-.44-1.07-.44h-2.81v-1.6h3.06c.42 0 .81-.16 1.08-.45.18-.19.4-.53.4-1.06s-.22-.88-.4-1.07c-.27-.29-.66-.45-1.08-.45h-4.54c-.45 0-.85.18-1.13.5-.26.29-.39.67-.39 1.09v9.32c0 .53.2.88.36 1.08.28.35.69.54 1.15.54zM6.46 24.72h1.68v7.87c0 .54.21.89.38 1.1.29.34.69.53 1.14.53s.87-.19 1.15-.54c.16-.2.36-.56.36-1.08v-7.87h1.68c.42 0 .81-.16 1.08-.45.18-.19.4-.53.4-1.07s-.22-.88-.39-1.07c-.27-.29-.66-.45-1.08-.45h-6.4c-.43 0-.81.16-1.08.45-.18.19-.4.53-.4 1.07s.21.87.4 1.07c.27.29.65.45 1.08.45z" fill="#2196f3"/><path d="M.56 8.45v31.1a5.93 5.93 0 005.93 5.93h17.5v-3.95H4.47V12.28H24V2.52H6.5C3.22 2.52.56 5.17.56 8.45zm15.06 25.22c.28.35.69.54 1.15.54s.88-.2 1.16-.56c.23-.29.34-.65.34-1.07v-3.26h2.81c.42 0 .81-.16 1.08-.45.1-.1.2-.25.28-.45h-7.18v4.16c0 .53.2.88.36 1.08zm18.68-5.24v4.16c0 .53.2.88.36 1.08.28.35.69.54 1.15.54s.87-.19 1.16-.54c.16-.2.36-.55.36-1.08v-2.74h1.46c1.2 0 2.17-.38 2.87-1.13.08-.09.15-.2.22-.29H34.3zM8.52 33.69c.29.34.69.53 1.14.53s.87-.19 1.15-.54c.16-.2.36-.56.36-1.08v-4.16H8.13v4.16c0 .54.21.89.38 1.1zm18.35-1.1c0 .54.21.89.38 1.1.29.34.69.53 1.14.53s.87-.19 1.15-.54c.16-.2.36-.56.36-1.08v-4.16h-3.04v4.16z" fill="#1d83d4"/></svg>