<svg data-name="Layer 1" xmlns="http://www.w3.org/2000/svg" viewBox="0 0 512 512"><path d="M481 456h-62.5a12.5 12.5 0 01-12.5-12.5V331a25 25 0 00-50 0v150a25 25 0 0025 25h100a25 25 0 000-50zm18.12-298.9L362.87 13.77A25.05 25.05 0 00344.75 6H56A50 50 0 006 56v175a25 25 0 0050 0V81a25 25 0 0125-25h225v100a50 50 0 0050 50h100v25a25 25 0 0050 0v-56.68a25 25 0 00-6.88-17.22zM133.75 306h-5.5A22.27 22.27 0 00106 328.25V431a25 25 0 01-50 0V328.25A22.25 22.25 0 0033.75 306h-5.5A22.27 22.27 0 006 328.25v98.49c0 40.63 30.43 77 71 79.15A75 75 0 00156 431V328.25A22.25 22.25 0 00133.75 306zm196.85 67.09c-4-38.84-39.23-67.09-78.28-67.09h-49.07A22.27 22.27 0 00181 328.25v155.49A22.25 22.25 0 00203.25 506h5.5A22.24 22.24 0 00231 483.74V456h25l18.85 37.7a22.23 22.23 0 0019.9 12.3h.25a22.24 22.24 0 0019.9-32.2l-15.78-31.57a74.76 74.76 0 0031.48-69.14zM256 406h-25v-50h25a25 25 0 010 50z" fill="#1d83d4"/></svg>