<svg width="48" height="48" viewBox="0 0 48 48" fill="none" xmlns="http://www.w3.org/2000/svg"><path fill-rule="evenodd" clip-rule="evenodd" d="M24 2c12.15 0 22 9.85 22 22s-9.85 22-22 22S2 36.15 2 24 11.85 2 24 2zM6.113 26c.827 7.474 6.226 13.568 13.34 15.42A32.603 32.603 0 0114.102 26H6.113zm27.785 0a32.601 32.601 0 01-5.351 15.418C35.66 39.566 41.06 33.474 41.887 26h-7.989zM18.12 26A28.603 28.603 0 0024 40.889 28.597 28.597 0 0029.879 26h-11.76zM28.547 6.58A32.602 32.602 0 0133.898 22h7.989c-.827-7.474-6.226-13.568-13.34-15.42zM24 7.11A28.602 28.602 0 0018.12 22h11.759A28.596 28.596 0 0024 7.11zm-4.547-.532C12.34 8.43 6.94 14.526 6.113 22h7.989a32.604 32.604 0 015.351-15.422z" fill="url(#paint0_linear_1768_21201)"/><defs><linearGradient id="paint0_linear_1768_21201" x1="44.201" y1="5.702" x2="2" y2="44.389" gradientUnits="userSpaceOnUse"><stop stop-color="#009DDC"/><stop offset="1" stop-color="#7BD8FE"/></linearGradient></defs></svg>