<svg data-name="Layer 1" xmlns="http://www.w3.org/2000/svg" viewBox="0 0 512 512"><path d="M84.21 180h63.93c20.92 0 42.54-.47 63.93-.47 8 0 11.73-1.38 11.73-10.34V46.88c0-8-.93-11.27-10.81-9.88Q148.71 47.34 84.21 55.62C75.71 57 73.4 59.75 73.4 67.81c.47 33.8.47 67.37 0 100.94 0 8.49 2.77 11.25 10.81 11.25zm169.94 165.1c57.49 8.05 115.2 15.86 172.23 24.37 8.49 1.38 11.27-.45 11.27-9.43V283.5c0-25.54-.47-50.82.46-76.57 0-8.48-2.3-12.19-11.73-12.19-57.71 0-115.66 0-174.53-.46-8.95 0-11.73 2.76-11.73 11.72.46 41.16.93 82.1 0 122.8 0 11.27 3.68 14.95 14.03 16.33zM253 180c29-.47 58 0 86.93 0s57.94-.47 86.45 0c8 0 11.28-2.3 10.81-10.81-.46-13.57 0-27.14 0-40.71.47-36.79 0-74.27 0-111.06 0-5.75 1.84-12.65-8.51-11.27-59.32 9-118.61 17.24-178 25.75-7.56 1.38-10.35 4.14-10.35 12.19.47 41.15.47 82.1 0 123.72.05 10.36 3.74 12.19 12.67 12.19zM84.22 321.43q64.28 9 128.77 18.64c6.67.69 9.88 0 9.88-7.36V204.85c0-7.12-3-9.42-9.88-9.42h-64.85c-21.61 0-42.54 0-64.38-.69C75.25 194.73 73 197 73 205.54c.46 34.72.46 68.75 0 102.78 0 8.98 2.71 11.73 11.22 13.11zM439 438.22q0-30.92-36.67-30.91h-34.19v97H390v-33.42h10.41q17.59 0 28.1-9A29.6 29.6 0 00439 438.22zm-40.44 16.14H390v-30.27h8.59q17.46 0 17.46 14.95 0 15.32-17.46 15.32zm-71.3-48.66q-22.92 0-37.3 14.46t-14.37 37.75q0 21.85 12.78 35T323.51 506q17.12 0 27.73-5.15v-19.87a45.51 45.51 0 01-23.41 6.22q-13.4-.06-21.3-8.41t-7.91-22.43q0-14.67 8.41-23.26t22.05-8.59a42.37 42.37 0 0122.18 5.82v-21.05a69.57 69.57 0 00-23.97-3.58zm-89.69 1.61V446h-40.14v-38.69h-21.87v97h21.87V464.8h40.23v39.52h21.86l-.06-97zm-129.8 0H73.45v97l34.35-.08q23.49.08 37.59-13.46t14.09-36.19q0-47.27-51.68-47.27zm20.62 70.78q-8.08 8.52-22.28 8.52h-10.8v-61.49l10.69-.05q14.46 0 22.49 7.95t8 21.86q.02 14.69-8.07 23.21z" fill="#00aaf2"/></svg>