<svg data-name="Layer 1" xmlns="http://www.w3.org/2000/svg" viewBox="0 0 512 512"><path d="M506 6v490.23c0 9.77 0 9.77-9.68 9.77h-481C6 506 6 506 6 496.63V15c0-9 0-9 8.89-9zM233.77 292.88h-118a21.26 21.26 0 01-.56-2.86q0-66.57-.12-133.14c0-4.88 2.62-5.12 6.23-5.11q109.23 0 218.44-.08c5.23 0 6.59 1.85 6.49 6.84-.28 13.91-.21 27.82 0 41.72 0 1.95 1.49 5.28 2.75 5.52 6.34 1.18 12.82 1.55 19.86 2.26.14-2.71.34-4.88.35-7.08V150c0-16-6.22-22.15-22.28-22.15H114.4c-16 0-22.35 6.08-23 21.89-.07 1.84 0 3.68 0 5.52v133.81c0 2.86 0 5.73.27 8.57 1.2 13.2 7.33 18.76 20.74 18.76 32.1 0 64.21.1 96.32-.09 4.81 0 6.63 1.35 6.42 6.23a214 214 0 000 22.08c.4 6.6-2.69 10.62-8.25 12.83a38.4 38.4 0 01-10.64 2.19c-10.74 1-21.62 1-32.22 2.73-4.56.76-9.45 4.14-12.62 7.71-4.56 5.16-2 12.16 4.4 12.24 12 .13 24.53 1.17 35.73-2.06 14.79-4.28 29.29-6.84 44.56-6.13 2.29.09 4.6-.25 8.14-.47-13.1-25.86-15.08-52.11-10.48-80.78zm110.66 130.36C400.81 423.24 447 377.29 448 322c1-54-41.92-105.3-103.58-105.76-56.48-.41-103.63 46.93-103.68 103.31-.07 57.1 46.51 103.69 103.69 103.69z" fill="#0178d7"/><path d="M282.12 382a87.8 87.8 0 0062.09 25.64c49 0 87.89-38.56 87.92-87.18.06-49.05-38.92-88.63-87.5-88.63s-88.38 39.7-88.31 88.17a87.83 87.83 0 0025.8 62zm27.74-10l-6.59 6.36c-5-4.05-8.33-6.78-10.06-9.08-3.47-4.59-.59-7.54 8.16-16.29 3.4-3.38 7.07-6.52 10.93-9.82 1.53-1.31 3.1-2.65 4.69-4l-4.83-4.94-2-2.06c-5.33-5.48-10.2-10.49-15.2-15.32l-1.16-1.1c-.37-.37-.71-.71-1-1.05-2.45-2.77-2.34-4.9.9-7.87a61.46 61.46 0 006.3-7.08c.92-1.15 1.87-2.33 2.89-3.53l3.32 3.06c1.83 1.68 3.35 3.07 4.8 4.53l4.11 4.1c8.74 8.74 17.48 17.48 26 26.39 1.24 1.32 2.14 5.08 1.36 5.86q-5.42 5.43-10.89 10.78m39.28-49l3.62 3.44 4 3.8c5.72 5.47 11 10.51 16.4 15.39 3.44 3.1 3.37 5.34 0 8.4a81.25 81.25 0 00-6.39 6.74c-.93 1.05-1.85 2.11-2.82 3.16-.67-.42-1.24-.74-1.75-1a10.09 10.09 0 01-2.05-1.36l-13-13.08q-11-11.07-22-22.08c-2.4-2.39-2.56-4.13-.09-6.59q17.42-17.23 34.53-34.81a7.41 7.41 0 011.91-1.51c1.73-.92 3.2-.21 5.15 1.64l.21.2c10.84 10.31 10.91 10.37 0 21.22-.62.62-1.26 1.24-1.9 1.86-3 2.91-6.13 5.79-9.62 9-2.07 1.64-4.07 3.48-6.2 5.48z" fill="#0178d7" fill-rule="evenodd"/></svg>