<svg data-name="Layer 1" xmlns="http://www.w3.org/2000/svg" viewBox="0 0 512 512"><path d="M93.23 171.35H154c19.88 0 40.42-.44 60.74-.44 7.65 0 11.14-1.32 11.14-9.83V44.8c0-7.65-.88-10.71-10.27-9.39q-61.1 9.84-122.38 17.69C85.15 54.42 83 57 83 64.68c.44 32.17.44 64.06 0 96 0 8.05 2.59 10.67 10.23 10.67zm122.32 152c6.34.66 9.4 0 9.4-7V194.94c0-6.77-2.84-8.95-9.4-8.95h-61.61c-20.54 0-40.42 0-61.18-.65-8.08 0-10.26 2.18-10.26 10.26.43 33 .43 65.36 0 97.7 0 8.52 2.62 11.14 10.7 12.45q61.11 8.5 122.35 17.65zm38-152c27.53-.44 55.06 0 82.59 0s55.06-.43 82.15 0c7.65 0 10.71-2.19 10.27-10.26-.43-12.9 0-25.79 0-38.68.44-35 0-70.6 0-105.55 0-5.48 1.75-12-8.09-10.71-56.34 8.56-112.73 16.41-169.1 24.48-7.21 1.3-9.83 3.92-9.83 11.57.44 39.11.44 78 0 117.54.04 9.86 3.54 11.61 12.05 11.61zm158.3 278.1a44.1 44.1 0 00-9.54-7.43 104.57 104.57 0 00-12.55-6.22q-5.12-2.1-9.18-4.11a45.4 45.4 0 01-6.85-4.06 17.74 17.74 0 01-4.39-4.38 9.28 9.28 0 01-1.53-5.24 8.7 8.7 0 011.38-4.83 12.28 12.28 0 013.89-3.7 20.85 20.85 0 016.18-2.38 35.18 35.18 0 018.12-.86 52.33 52.33 0 016.85.48 54.4 54.4 0 017.26 1.51 52.82 52.82 0 017.11 2.55 39.07 39.07 0 016.37 3.58v-24.28a64.4 64.4 0 00-12.95-3.43 107.29 107.29 0 00-16.12-1.1 76.32 76.32 0 00-17.55 2 44.91 44.91 0 00-14.57 6.22 31.16 31.16 0 00-9.95 10.75 31.64 31.64 0 00-3.65 15.64 30.35 30.35 0 006.59 19.91q6.66 8.19 20.35 13.88 5.35 2.21 10 4.31a55 55 0 018 4.39 20.6 20.6 0 015.33 4.95 10.08 10.08 0 011.95 6.09 9.27 9.27 0 01-1.22 4.66 11 11 0 01-3.7 3.75 20.32 20.32 0 01-6.18 2.47 36.78 36.78 0 01-8.56.89 49 49 0 01-16.72-3.1 49.57 49.57 0 01-15.41-8.89v26.05a55.38 55.38 0 0015 4.86 98.68 98.68 0 0018.25 1.62 86 86 0 0017.74-1.71 44 44 0 0014.78-5.91 29.92 29.92 0 0010-10.72A37.81 37.81 0 00418 458.9a29 29 0 00-6.11-9.45zm17.58-252.54c0-8.09-2.18-11.58-11.14-11.58-54.84 0-109.9 0-165.83-.44-8.52 0-11.14 2.62-11.14 11.14.44 39.11.88 78 0 116.67 0 10.7 3.5 14.2 13.33 15.51 54.61 7.65 109.46 15.08 163.64 23.16 8.09 1.31 10.71-.44 10.71-9v-72.71c0-24.25-.4-48.29.47-72.75zm-134.86 255a127.65 127.65 0 00.65 16h-.32q-2.67-4.69-5.84-9.51l-46.24-70.9h-28.23v116.44h24.83V440q0-12.66-.65-18.83h.32a104.29 104.29 0 005.84 9.67L292.88 504h26.48V387.55h-24.75zm-161.41-64.4H91.91V504h41.25q28.18 0 45.13-16.24t16.93-43.44q0-56.81-62.06-56.81zm24.73 84.91q-9.63 10.26-26.75 10.27h-13v-73.83h12.83q17.39 0 27 9.55t9.62 26.19q-.08 17.54-9.7 27.82z" fill="#00aaf2"/></svg>