<svg xmlns="http://www.w3.org/2000/svg" viewBox="0 0 48 48"><path fill="currentColor" d="M24,21.58c.79,0,1.56-.23,2.22-.67,.66-.44,1.17-1.06,1.47-1.8,.3-.73,.38-1.54,.23-2.31-.15-.78-.54-1.49-1.09-2.05-.56-.56-1.27-.94-2.05-1.09-.78-.15-1.58-.08-2.31,.23-.73,.3-1.36,.82-1.8,1.47-.44,.66-.67,1.43-.67,2.22,0,1.06,.42,2.08,1.17,2.83,.75,.75,1.77,1.17,2.83,1.17Zm-1.42,13.82c.19,.19,.41,.34,.65,.44,.24,.1,.51,.15,.77,.15s.53-.05,.77-.15c.24-.1,.46-.25,.65-.44l8.18-8.2c1.9-1.9,3.19-4.32,3.72-6.95,.52-2.63,.26-5.37-.77-7.85-1.03-2.48-2.77-4.6-5-6.1-2.23-1.49-4.86-2.29-7.55-2.29s-5.31,.8-7.55,2.29c-2.23,1.49-3.97,3.61-5,6.1-1.03,2.48-1.3,5.21-.77,7.85,.52,2.63,1.82,5.05,3.72,6.95l8.18,8.2ZM14.46,16.66c.14-1.43,.59-2.8,1.33-4.03,.74-1.23,1.74-2.28,2.93-3.07,1.57-1.03,3.4-1.58,5.28-1.58s3.71,.55,5.28,1.58c1.19,.79,2.18,1.83,2.92,3.05,.74,1.22,1.19,2.59,1.33,4,.14,1.42-.03,2.85-.5,4.19-.48,1.34-1.24,2.56-2.25,3.57l-6.78,6.78-6.78-6.78c-1-1-1.77-2.21-2.25-3.55-.48-1.34-.65-2.76-.51-4.17Zm23.54,23.32H10c-.53,0-1.04,.21-1.41,.59-.38,.38-.59,.88-.59,1.41s.21,1.04,.59,1.41c.38,.38,.88,.59,1.41,.59h28c.53,0,1.04-.21,1.41-.59s.59-.88,.59-1.41-.21-1.04-.59-1.41c-.38-.38-.88-.59-1.41-.59Z"/></svg>