<svg xmlns="http://www.w3.org/2000/svg" viewBox="0 0 48 48"><path fill="currentColor" d="M40,2H8c-3.31,0-6,2.69-6,6v8c0,3.31,2.69,6,6,6h32c3.31,0,6-2.69,6-6v-8c0-3.31-2.69-6-6-6ZM42,16c0,1.1-.9,2-2,2H8c-1.1,0-2-.9-2-2v-8c0-1.1.9-2,2-2h32c1.1,0,2,.9,2,2v8ZM12.02,10h-.02c-1.1,0-1.99.9-1.99,2s.91,2,2.01,2,2-.9,2-2-.9-2-2-2ZM12.02,34h-.02c-1.1,0-1.99.89-1.99,2s.91,2,2.01,2,2-.89,2-2-.9-2-2-2ZM40,26H8c-3.31,0-6,2.69-6,6v8c0,3.31,2.69,6,6,6h32c3.31,0,6-2.69,6-6v-8c0-3.31-2.69-6-6-6ZM42,40c0,1.1-.9,2-2,2H8c-1.1,0-2-.9-2-2v-8c0-1.1.9-2,2-2h32c1.1,0,2,.9,2,2v8Z"/></svg>