<svg xmlns="http://www.w3.org/2000/svg" viewBox="0 0 48 48"><path fill="currentColor" d="M24,2C11.85,2,2,11.85,2,24s9.85,22,22,22,22-9.85,22-22S36.15,2,24,2Zm17.89,20h-7.99c-.45-5.53-2.3-10.83-5.35-15.42,7.11,1.85,12.51,7.95,13.34,15.42ZM24.01,7.1c3.33,4.3,5.38,9.47,5.88,14.9h-11.76c.5-5.43,2.54-10.6,5.88-14.9Zm-4.56-.52c-3.05,4.59-4.9,9.89-5.35,15.42H6.11c.82-7.47,6.23-13.57,13.34-15.42ZM6.11,26h7.99c.45,5.53,2.3,10.83,5.35,15.42-7.11-1.85-12.51-7.95-13.34-15.42Zm12.02,0h11.76c-.5,5.43-2.55,10.6-5.88,14.9-3.34-4.3-5.38-9.47-5.88-14.9Zm10.43,15.42c3.05-4.59,4.9-9.89,5.35-15.42h7.99c-.83,7.47-6.23,13.57-13.34,15.42Z"/></svg>