<svg data-name="Layer 26" xmlns="http://www.w3.org/2000/svg" viewBox="0 0 512 512"><defs><linearGradient id="a" x1="164.82" y1="89.81" x2="-38.37" y2="1777.17" gradientUnits="userSpaceOnUse"><stop offset="0" stop-color="#427fc2"/><stop offset="1" stop-color="#427fc2" stop-opacity="0"/></linearGradient><linearGradient id="b" x1="193.74" y1="80.02" x2="1372.24" y2="832.71" gradientUnits="userSpaceOnUse"><stop offset=".16" stop-color="#dc1e39"/><stop offset="1" stop-color="#dc1e39" stop-opacity="0"/></linearGradient><linearGradient id="c" x1="454.38" y1="245.32" x2="-647.26" y2="1266.57" gradientUnits="userSpaceOnUse"><stop offset="0" stop-color="#faa228"/><stop offset="1" stop-color="#faa228" stop-opacity="0"/></linearGradient></defs><path d="M391.57 202.71c0 92.67-55.76 172.32-135.56 207.23-79.81-34.91-135.57-114.56-135.57-207.23 0-7.18.33-14.27.99-21.27 37.98-28.89 85.36-46.03 136.74-46.03s94.91 15.78 132.07 42.57c.89 8.12 1.34 16.38 1.34 24.74z" fill="none" stroke="#e0e1e0" stroke-miterlimit="10" stroke-width="15"/><path d="M255.69 419.49c-29.42 12.86-61.91 20-96.07 20-24.25 0-47.67-3.6-69.74-10.3-31.64-30.33-54.97-69.26-66.27-113.02C18.64 296.94 16 276.78 16 256 16 148.04 87.28 56.74 185.34 26.58c-40.28 38.76-67.04 91.46-72.53 150.34-.7 7.43-1.05 14.96-1.05 22.57 0 98.38 59.21 182.94 143.93 220z" fill="url(#a)"/><path d="M496 256c0 17.81-1.94 35.17-5.62 51.87-14.19-54.99-47.4-102.35-92.18-134.63-39.44-28.44-87.87-45.2-140.21-45.2s-104.87 18.21-145.18 48.88c5.49-58.88 32.25-111.58 72.53-150.34C207.68 19.7 231.41 16 256 16s47.69 3.6 69.77 10.31C424.29 56.19 496 147.72 496 256z" fill="url(#b)"/><path d="M490.38 307.87c-10.36 47.01-34.49 88.84-67.96 121.04C379.27 470.46 320.61 496 256 496s-123-25.43-166.12-66.81c22.07 6.7 45.49 10.3 69.74 10.3 34.16 0 66.65-7.14 96.07-20 84.73-37.06 143.93-121.62 143.93-220 0-8.87-.48-17.63-1.42-26.25 44.78 32.28 77.99 79.64 92.18 134.63z" fill="url(#c)"/><path d="M256 203.68c-17.35 0-31.42 14.07-31.42 31.42 0 13.23 8.18 24.54 19.76 29.18v44.03h24v-44.3c11.22-4.79 19.09-15.93 19.09-28.91 0-17.35-14.07-31.42-31.42-31.42z" fill="#303030"/></svg>