<svg data-name="Layer 24" xmlns="http://www.w3.org/2000/svg" xmlns:xlink="http://www.w3.org/1999/xlink" viewBox="0 0 512 512"><defs><linearGradient id="c" x1="5799.64" y1="-3609.5" x2="3162.25" y2="-5562.99" gradientTransform="matrix(.32 0 0 -.31 -1088.94 -1235.15)" gradientUnits="userSpaceOnUse"><stop offset="0" stop-color="#a05ea6"/><stop offset="1" stop-color="#a5d6f4"/></linearGradient><linearGradient id="d" x1="234.25" y1="-1895.93" x2="477.08" y2="-2138.76" gradientTransform="matrix(1 0 0 -1 -4 -1618)" gradientUnits="userSpaceOnUse"><stop offset="0" stop-color="#2a2d2f"/><stop offset="1" stop-color="#010101" stop-opacity="0"/></linearGradient><linearGradient id="a" x1="3338" y1="-5814.27" x2="3897.73" y2="-5510.63" gradientTransform="matrix(.38 0 0 -.26 -990.73 -1207.12)" gradientUnits="userSpaceOnUse"><stop offset="0" stop-color="#fff"/><stop offset="1" stop-color="#dbdada"/></linearGradient><linearGradient id="e" x1="3844.67" y1="-5713.66" x2="3431.94" y2="-5202.75" gradientTransform="matrix(.35 0 0 -.28 -1036.27 -1218.9)" xlink:href="#a"/><linearGradient id="f" x1="3276.67" y1="-5708.48" x2="2689.71" y2="-5966.38" gradientTransform="matrix(.43 0 0 -.23 -915.51 -1191.13)" gradientUnits="userSpaceOnUse"><stop offset="0" stop-color="#d0d1d1"/><stop offset="1" stop-color="#fff"/></linearGradient><linearGradient id="b" x1="3366.43" y1="-5750.45" x2="2714.43" y2="-6553.44" gradientTransform="matrix(.37 0 0 -.27 -1011.39 -1212.23)" gradientUnits="userSpaceOnUse"><stop offset="0" stop-color="#ffdc69"/><stop offset="1" stop-color="#cc4827"/></linearGradient><linearGradient id="g" x1="1098.97" y1="-8589.06" x2="948.74" y2="-8634.87" gradientTransform="matrix(.67 0 0 -.15 -518.71 -1143.79)" xlink:href="#b"/><linearGradient id="h" x1="2169.62" y1="-6762.13" x2="1619.5" y2="-7606.94" gradientTransform="matrix(.47 0 0 -.21 -843.08 -1178.76)" xlink:href="#b"/></defs><ellipse cx="256" cy="255.44" rx="242.72" ry="239.44" fill="url(#c)" stroke="#a3a3a2" stroke-width="5"/><path d="M440.76 200.64l-212.31-90.89-106.54 5.88 57.98 57.79L77.11 309.16l19.15 19.14 22.92 36.42-5.67 84.27c3.17 2.29 6.4 4.51 9.68 6.64l287.79-16.27.05.05c54.61-44.78 86.61-110.9 87.55-180.96l-57.82-57.82z" style="isolation:isolate" fill="url(#d)" opacity=".4"/><g fill-rule="evenodd"><path d="M98.08 489.53s75.85-266.66 371.11-232.75c0 0-187.65-111.92-369.81 38.96-53.81 125.2-1.3 193.78-1.3 193.78z" fill="url(#a)"/><path d="M120.66 453.8s79.14-191.71 290.4-195.08c-160.58 39.3.27 178.65.27 178.65S284.31 552.99 120.66 453.8z" fill="url(#e)"/><path d="M76.58 308.84s158.08-174.69 394.15-53.99c-4.23-32.83-32.15-69.89-82.2-80.47-11.07-5.29-92.21-131.29-266.63-58.77 53.65 4.2 76.67 11.75 77.99 17.48-92.8-16.03-120.3 116.63-123.31 175.75z" fill="url(#f)"/><path d="M303.3 160.64s40.44-14.55 45.71 28.74c-39.88 3.76-45.71-28.74-45.71-28.74z" fill="#202020"/><path d="M97.02 490.38s69.13-226.59 300.31-235.36c0 0-187.59-34.38-320.08 176.47-.73 29.83 19.77 58.91 19.77 58.91z" fill="url(#b)"/><path d="M122.09 115.63s57.67 3.38 78.25 17.61c8.6-1.78 15.91-7.7 17.13-15.75-7.37-3.07-74.88-8.58-95.37-1.86h-.01z" fill="url(#g)"/><path d="M77.11 309.15s72.19-87.12 217.92-97.52c0 0-198.39 9.01-215.03 65.29-4.64 13.54-2.89 32.24-2.89 32.24z" fill="url(#h)"/></g></svg>