<svg data-name="Layer 8" xmlns="http://www.w3.org/2000/svg" viewBox="0 0 512 512"><path d="M496 256c0 7.39-.33 14.69-.99 21.91-1.44 16-4.46 31.55-8.9 46.49C456.67 423.62 364.79 496 256 496c-90.35 0-169.04-49.93-209.99-123.69a248.08 248.08 0 01-4.74-8.99C25.1 331.03 16 294.58 16 256c0-14.25 1.24-28.22 3.63-41.79 1.21-6.94 2.73-13.77 4.53-20.49C51.59 91.36 144.99 16 256 16c132.55 0 240 107.45 240 240z" fill="#4684c5"/><path d="M495.01 277.91c-1.44 16-4.46 31.55-8.9 46.49-104.08-102.06-259.26-101.32-440.1 47.91a248.08 248.08 0 01-4.74-8.99c101.9-128.04 76.08-154.07-21.64-149.11 1.21-6.94 2.73-13.77 4.53-20.49a323.27 323.27 0 01118.22-57.22 323.487 323.487 0 01134.89-4.88c44.8 7.88 87.44 25.12 125.13 50.6a323.214 323.214 0 0192.61 95.69z" fill="#f5f5f5"/></svg>