<svg data-name="Layer 1" xmlns="http://www.w3.org/2000/svg" width="512" height="512" viewBox="0 0 512 512"><defs><linearGradient id="a" x1="1.49" y1="515.54" x2="7.45" y2="515.54" gradientTransform="matrix(0 73.26 73.26 0 -37548.26 -71.02)" gradientUnits="userSpaceOnUse"><stop offset="0" stop-color="#ff1b2d"/><stop offset=".3" stop-color="#ff1b2d"/><stop offset=".61" stop-color="#ff1b2d"/><stop offset="1" stop-color="#a70014"/></linearGradient><linearGradient id="b" x1="1.89" y1="517.32" x2="7.84" y2="517.32" gradientTransform="matrix(0 64.79 64.79 0 -33186.68 -58.24)" gradientUnits="userSpaceOnUse"><stop offset="0" stop-color="#9c0000"/><stop offset=".7" stop-color="#ff4b4b"/><stop offset="1" stop-color="#ff4b4b"/></linearGradient></defs><path d="M256 31.01c-124.26 0-225 100.73-225 225s95 219.15 214.28 224.73c3.56.17 7.13.26 10.72.26 57.61 0 110.14-21.66 149.95-57.26-26.37 17.49-57.21 27.55-90.16 27.55-53.58 0-101.57-26.58-133.84-68.5-24.88-29.37-40.99-72.78-42.09-121.5v-10.6c1.1-48.72 17.21-92.14 42.08-121.5 32.28-41.92 80.26-68.5 133.84-68.5 32.96 0 63.8 10.06 90.18 27.57C366.35 52.82 314.13 31.21 256.85 31c-.29 0-.57-.01-.85-.01z" fill="url(#a)"/><path d="M181.94 129.22c20.65-24.38 47.31-39.07 76.45-39.07 65.5 0 118.59 74.26 118.59 165.87s-53.09 165.87-118.59 165.87c-29.13 0-55.8-14.69-76.44-39.07 32.27 41.92 80.26 68.5 133.84 68.5 32.96 0 63.79-10.06 90.16-27.55C452 382.57 481 322.69 481 256.03S452.01 129.5 405.96 88.3c-26.38-17.5-57.22-27.57-90.18-27.57-53.58 0-101.57 26.58-133.84 68.5" fill="url(#b)"/></svg>