<svg width="512" height="512" viewBox="0 0 512 512" fill="none" xmlns="http://www.w3.org/2000/svg"><g clip-path="url(#clip0_4571_4893)"><path d="M249.417.087c67.87-1.736 133.654 23.426 182.88 69.951 49.225 46.525 77.86 110.601 79.605 178.133 1.744 67.532-23.544 132.987-70.302 181.967-46.758 48.98-111.156 77.472-179.026 79.207-67.871 1.736-133.654-23.426-182.88-69.951C30.47 392.87 1.834 328.793.09 261.261c-1.744-67.532 23.544-132.987 70.302-181.967C117.149 30.314 181.547 1.823 249.417.087z" fill="url(#paint0_linear_4571_4893)"/><path opacity=".7" d="M247.496 501.494c3.794 0 5.44 1.967 2.557 3.066-1.125.429-2.148.744-2.27.69-.12-.056-.93-.409-1.827-.771-2.768-1.107-1.793-2.985 1.54-2.985zm51.583-14.013c-1.66.265-2.17 2.568-.615 4.12 1.365 1.355 3.652.185 3.652-1.856 0-.998-1.017-1.985-2.267-2.219-.283-.056-.535-.081-.77-.045zm-35.186-10.538c.763 0 1.009.585.568 1.295-.442.712-1.065 1.291-1.38 1.291-.313 0-.567-.579-.567-1.291 0-.71.622-1.295 1.379-1.295zm102.019-5.206c.488-.06.921.032 1.21.322.348.344-.227 1.333-1.252 2.179-1.278 1.057-2.093 1.101-2.683.163-.627-1.025 1.245-2.494 2.725-2.664zm-16.395-2.264c-1.4.145-2.578 2.512-2.598 5.858-.027 3.89 2.283 3.686 4.141-.364 1.138-2.5 1.127-3.643-.08-4.846-.488-.485-.996-.693-1.463-.648zm18.91-10.612c.315 0 .57.576.57 1.29 0 .708-.63 1.291-1.38 1.291-.762 0-1.017-.583-.575-1.291.443-.714 1.072-1.29 1.385-1.29zm-70.608-9.811c-.086.009-.159.063-.239.119-.724.438-1.299 1.641-1.299 2.664 0 1.021.575 1.856 1.299 1.856.708 0 1.296-1.199 1.296-2.664 0-1.284-.466-2.09-1.057-1.975zm34.413-6.985c-2.317.013-2.477.271-.897 1.291 2.557 1.644 5.567 1.644 4.55 0-.443-.712-2.088-1.306-3.653-1.291zm-17.855 0c-1.393 0-2.517.226-2.517.523 0 .294-.375 1.46-.816 2.581-.937 2.437-.367 2.522 3.935.567 3.626-1.641 3.3-3.671-.602-3.671zm39.562-.486c.696-.003 1.5.471 2.876 1.37 1.687 1.099 3.094 2.991 3.094 4.239 0 4.496-3.059 5.098-6.74 1.335-3.152-3.226-3.27-3.733-1.427-5.574.925-.913 1.502-1.37 2.197-1.37zm-41.31-9.407c-.462-.078-.77.201-.77.768 0 .753.585 1.37 1.3 1.37.708 0 1.298-.253 1.298-.565 0-.315-.59-.934-1.298-1.372a1.503 1.503 0 00-.53-.201zm52.553-8.075c.843-.047 1.767.587 3 1.814 1.081 1.078 2.435 1.875 3.003 1.737 1.827-.436 8.145 3.108 7.469 4.198-.356.576-1.479.742-2.479.364-.995-.379-3.056-.045-4.581.768-2.104 1.117-3.227 1.121-4.592 0-.99-.821-2.51-1.047-3.36-.524-1.125.683-.87 1.429.885 2.706 1.88 1.365 2.146 2.303 1.095 3.955-2.688 4.25-5.713 3.366-5.713-1.655 0-1.826-1.065-3.224-2.926-3.836l-2.923-.929 2.923-.605c1.614-.315 3.829-2.281 4.907-4.36 1.257-2.409 2.207-3.577 3.292-3.633zm9.657-3.794c.126-.004.233.012.368.038 1.098.214 2.195.98 2.435 1.694.561 1.711-4.437 4.802-5.36 3.314-1.137-1.833.595-4.997 2.557-5.046zm8.438-.204c.716 0 1.298.583 1.298 1.291 0 .711-.582 1.291-1.298 1.291a1.3 1.3 0 01-1.297-1.291c0-.708.587-1.291 1.297-1.291zm7.588-2.221c.717-.083 1.768.033 3.125.323 2.325.496 4.21.956 4.225 1.048.012.096.721 2.088 1.538 4.403 1.298 3.674 1.165 4.375-.936 5.492-3.875 2.065-5.462.791-2.597-2.062 2.283-2.268 0-6.983-3.367-6.983-1.698 0-3.085-.647-3.085-1.413 0-.449.382-.724 1.097-.808zm18.873-2.504c.12.017.247.221.4.607.375.93.308 2.033-.12 2.462-.428.43-.75-.335-.69-1.696.042-.94.208-1.404.41-1.373zm-273.174-3.03c.71 0 1.299.583 1.299 1.297a1.298 1.298 0 01-2.597 0c0-.714.581-1.297 1.298-1.297zm-5.682-1.331c.487-.058.924.029 1.219.323.34.344-.235 1.336-1.259 2.18-1.278 1.056-2.094 1.099-2.683.163-.63-1.025 1.243-2.494 2.723-2.666zm93.856-7.104c.241.022.508.098.778.199 1.07.409 1.945.976 1.945 1.253 0 .279-.875.525-1.945.525-1.073 0-1.955-.563-1.955-1.253 0-.514.48-.8 1.177-.724zm-145.552-9.205c1.533-.107 2.81.279 3.607 1.088 2.543 2.57 5.656 9.099 4.913 10.297-1.928 3.101-10.873-1.188-10.873-5.21 0-1.238-.617-2.87-1.38-3.632-.99-.989-.375-1.632 2.148-2.264.57-.14 1.07-.246 1.585-.279zm329.543-11.59c.16-.008.347.051.527.16.718.44 1.3 1.352 1.3 2.021 0 .67-.582 1.211-1.3 1.211-.715 0-1.297-.911-1.297-2.019 0-.83.3-1.353.77-1.373zm21.709-2.946c1.176-.179 1.88.74 1.833 2.783-.042 1.601.375 3.915.923 5.17 1.285 2.901-8.886 12.599-13.223 12.599-1.605 0-2.918.529-2.918 1.208 0 .683-1.612 1.184-3.574 1.092-1.968-.092-5.179.293-7.146.847-2.639.743-3.567.531-3.567-.766 0-1.193-1.922-1.821-5.965-1.979-3.283-.127-6.23-.462-6.536-.768-1.427-1.423 1.371-4.455 6.698-7.269 5.702-3.01 5.95-3.05 10.065-.846 5.326 2.858 10.266 2.235 11.925-1.533.71-1.6 1.915-2.907 2.678-2.907.777 0 2.715-1.746 4.31-3.879 1.7-2.293 3.323-3.575 4.497-3.752zm-9.57-2.304c1.606 0 2.678 1.072 2.678 2.91 0 1.123-1.285 1.855-3.253 1.855-3.629 0-4.47-3.144-1.179-4.401.642-.244 1.217-.364 1.754-.364zm-10.882-2.986c.32 0 .57.583.57 1.291 0 .71-.623 1.293-1.38 1.293-.757 0-1.01-.583-.568-1.293.441-.708 1.065-1.291 1.378-1.291zm15.418-2.582c1.005.015 2.149.398 2.597 1.128.402.635-.095 1.478-1.092 1.858-1.907.726-3.364-.121-3.364-1.938 0-.724.856-1.068 1.859-1.048zm-9.368-2.222c1.05-.08 2.342.226 3.733.968l2.919 1.576-3.165 1.695c-4.463 2.459-6.372 2.253-6.372-.766 0-2.108 1.132-3.343 2.885-3.473zm22.317-2.826c.528.044.768.522.528 1.252-.314.932-1.338 1.946-2.276 2.26-.977.322-1.457-.163-1.137-1.132.315-.933 1.339-1.95 2.275-2.26.24-.08.43-.138.61-.12zm-152.459-7.873c-.717 0-1.297.579-1.297 1.291 0 .708.58 1.291 1.297 1.291a1.3 1.3 0 001.3-1.291c0-.712-.584-1.291-1.3-1.291zm101.282-3.229c.952 0 1.982.724 2.275 1.61.322.963-.601 1.619-2.275 1.619-1.673 0-2.596-.656-2.275-1.619.302-.886 1.327-1.61 2.275-1.61zm-44.836-23.461c-.466.089-1.23.641-1.913 1.454-1.017 1.228-1.097 1.977-.242 1.977 1.575 0 3.42-2.453 2.517-3.348-.08-.083-.207-.114-.362-.083zm42.241-4.2c-.87.024-1.94 1.243-3.205 3.677-2.088 4.014-2.59 8.084-1.131 9.527 1.458 1.459 2.811 1 5.595-1.979 1.551-1.659 2.348-3.693 1.866-4.845-.455-1.092-1.145-2.997-1.5-4.239-.42-1.447-.943-2.161-1.625-2.141zm-107.615-1.414c.173-.02.376 0 .569 0 1.123 0 1.859 1.282 1.859 3.233 0 3.755-.053 3.741-3.196 1.452-2.412-1.749-1.855-4.363.768-4.685zm152.948-.04l.888 4.685c.63 3.329.347 5.005-.93 5.813-5.258 3.312-7.428-1.858-2.965-7.024l3.007-3.474zm-159.607-3.835c1.407 0 2.765 3.848 1.877 5.289-.403.647-1.247 1.172-1.877 1.172-.628 0-1.458-.525-1.858-1.172-.898-1.441.455-5.289 1.858-5.289zm9.865-16.11c.429-.049.884.027 1.339.203 2.63 1.001 2.168 5.276-.729 6.821-3.553 1.891-3.983 1.695-3.983-1.655 0-2.932 1.507-5.143 3.373-5.369zm161.545-4.562c.717 0 1.3.873 1.3 1.939 0 1.065-.583 1.938-1.3 1.938-.709 0-1.297-.873-1.297-1.938 0-1.066.588-1.939 1.297-1.939zm14.408-1.29c.637 0 1.172.832 1.172 1.857 0 2.084-1.82 3.632-2.957 2.501-1.018-1.009.347-4.358 1.785-4.358zm9.978-.407c.63-.166 1.5.786 2.397 2.91.903 2.128 3.273 4.917 5.273 6.175 2.977 1.864 3.587 3.077 3.252 6.502-.347 3.573 0 4.199 2.395 4.199 2.438 0 2.696.471 1.861 3.551-.523 1.954-1.358 5.64-1.861 8.197-1.19 6.043-4.577 10.391-11.402 14.699-3.04 1.914-5.521 4.203-5.521 5.087 0 .882-2.297 3.442-5.114 5.692-2.816 2.251-5.44 4.118-5.843 4.118-1.618 0-.58-3.749 1.942-6.945 3.519-4.448 2.851-7.796-1.7-8.316-4.062-.469-3.987-.29-2.315-4.683.697-1.826 2.155-3.314 3.253-3.314 1.52 0 1.98-1.565 1.98-6.74 0-6.762-3.292-17.809-5.313-17.809-1.07 0-.977-.804.777-5.813.869-2.497.936-2.487 2.021.324 1.297 3.325 5.327 3.832 7.715.969.892-1.067 2.422-1.938 3.405-1.938 1.012 0 1.788-1.329 1.788-3.03 0-2.361.382-3.665 1.01-3.835zm-166.538-4.035a1.62 1.62 0 011.097.362c.803.619 3.067 1.512 5.035 1.978 1.967.467 3.572 1.401 3.572 2.102 0 .694.938 1.289 2.068 1.289 1.707 0 1.893.953 1.13 5.491-.495 3.021-1.445 6.509-2.1 7.755-1.867 3.527-2.395 2.725-2.395-3.597 0-4.035-.637-6.106-1.995-6.621-2.798-1.07-6.025 2.014-5.113 4.888.428 1.32.161 2.419-.602 2.419-.765 0-1.38-1.209-1.38-2.663 0-1.585-1.565-3.526-3.893-4.845-4.376-2.472-5.167-5.409-1.467-5.409 1.345 0 3.165-.905 4.064-1.981.614-.75 1.324-1.141 1.979-1.168zm47.728-4.241c.281-.073.785.269 1.58.929 1.07.885 1.947 1.83 1.947 2.098 0 .268-.877.484-1.947.484-1.072 0-1.947-.945-1.947-2.097 0-.859.074-1.342.367-1.414zm25.806-4.685c-.522-.01-1.352.23-2.635.769-5.369 2.264-5.997 3.197-4.217 6.498 1.392 2.591 1.23 3.723-1.178 7.794-1.552 2.613-3.294 4.765-3.895 4.765-2.377 0-2.664-2.894-.617-6.016 2.41-3.649 1.888-5.083-1.378-3.836-1.412.54-1.913 1.722-1.458 3.472.414 1.572-.202 3.593-1.499 4.884-1.868 1.858-1.955 2.658-.575 5.371 2.167 4.254 2.082 6.365-.281 7.267-1.072.409-1.949 1.721-1.949 2.907 0 1.188-1.82 3.734-4.015 5.652-2.818 2.461-3.768 4.196-3.204 5.936.574 1.798-.979 4.371-5.724 9.408-7.307 7.761-8.303 10.66-3.285 9.409 2.303-.578 3.448-.226 4.015 1.251.878 2.275 2.557 2.731 3.653.969.382-.619 2.49-1.505 4.667-1.938 3.875-.773 3.968-.929 3.605-7.589-.28-5.353.053-6.786 1.593-6.786 1.259 0 2.009 1.359 2.1 3.876.088 2.133.228 4.388.33 5.007.275 1.776 4.062-1.914 4.062-3.955 0-1.009 1.258-3.499 2.798-5.574 2.368-3.182 2.542-4.118 1.097-5.853-2.517-3.011 1.258-6.342 7.013-6.179 4.697.134 7.541-2.959 3.982-4.321-3.054-1.164-2.228-4.049 1.666-5.892 5.407-2.57 5.595-8.676.362-11.751-3.868-2.271-4.585-4.805-4.297-14.696.013-.571-.215-.835-.736-.849zm-72.634-5.652c1.055.009 1.163 1.092-.284 2.825-1.779 2.138-3.004 2.464-4.348 1.133-.468-.471.362-1.722 1.834-2.747 1.19-.833 2.153-1.215 2.798-1.211zm-45.815-4.24c.75 0 1.38.583 1.38 1.293 0 .712-.255 1.291-.57 1.291-.315 0-.943-.579-1.38-1.291-.44-.71-.193-1.293.57-1.293zm83.39-4.965c-.501.005-1.225.315-2.108 1.052-1.165.958-3.547 1.327-5.768.883-5.16-1.025-8.367 2.429-4.705 5.087 3.004 2.19 9.776 2.385 9.776.285 0-.833.965-2.572 2.157-3.876 1.76-1.934 1.753-3.442.648-3.431zm-4.663-6.663c-1.12 0-2.035.583-2.035 1.291 0 .714.548 1.293 1.216 1.293.671 0 1.592-.579 2.036-1.293.442-.708-.107-1.291-1.217-1.291zm102.87-.079c1.203-.281 4.168 4.181 3.405 5.409-.382.606-1.157 1.132-1.747 1.132-1.285 0-2.863-5.426-1.866-6.422a.38.38 0 01.208-.119zm-124.299-5.127c-.273-.027-.561.072-.856.362-.428.425-.307 1.521.248 2.423.815 1.317 1.104 1.313 1.547 0 .467-1.407-.122-2.709-.939-2.785zm-29.137-2.061c.16-.004.308.051.488.163.73.445.977 1.355.568 2.017-1.11 1.791-1.873 1.462-1.873-.809 0-.828.349-1.355.817-1.371zm-51.744-2.664c.95-.1 2.035.592 2.845 2.097 1.278 2.374 1.07 2.668-1.947 2.668-2.465 0-3.266-.616-2.958-2.181.308-1.622 1.11-2.488 2.06-2.584zm94.233-1.454c-1.118.096-2.31.795-2.725 2.019-.315.945.57 1.616 2.157 1.616 1.592 0 2.715-.862 2.715-2.061 0-1.185-1.032-1.672-2.147-1.574zm-64.767-1.213c4.277-.306 6.867 2.209 5.152 4.969-1.237 1.99-3.907 1.307-6.778-1.737l-2.719-2.908 4.345-.324zm139.718-4.198c.755 0 1.01.583.567 1.291-.442.714-1.072 1.293-1.377 1.293-.323 0-.577-.579-.577-1.293 0-.708.629-1.291 1.387-1.291zm-153.556-2.26c1.398-.183 2.843 1.092 2.843 2.986 0 2.177-3.36 2.494-4.632.446-.481-.772-.28-2.018.449-2.746.408-.407.878-.626 1.34-.686zm52.429-7.472c-.843.065-2.006.978-3.371 2.827-2.408 3.287-2.423 3.422-.08 5.128 2.905 2.114 4.201 1.069 4.75-3.915.3-2.751-.227-4.116-1.299-4.04zm37.41-.605c-.709 0-1.299.583-1.299 1.291 0 .714.59 1.293 1.299 1.293a1.292 1.292 0 100-2.584zm-7.83-3.189c-1.432.016-1.86 2.141-.4 3.593 1.458 1.454 3.038.971 3.038-.927 0-.991-.87-2.137-1.941-2.543a1.878 1.878 0 00-.697-.123zm101.572-3.955c.75.014 1.995 1.286 2.965 3.149 1.178 2.268 2.723 3.615 3.727 3.229 2.503-.954 5.233 2.834 4.023 5.571-.557 1.255-1.039 2.692-1.092 3.189-.066.499-.843 1.6-1.713 2.463-1.232 1.233-2.102.3-4.095-4.318-1.392-3.238-3.16-6.269-3.935-6.745-1.742-1.067-1.887-5.462-.202-6.498.082-.054.215-.044.322-.04zm-93.742-5.776c-.71 0-1.3.583-1.3 1.293 0 .711.59 1.291 1.3 1.291a1.292 1.292 0 100-2.584zm-25.565-.886c-.868.054-2.06.697-3.037 1.695-2.328 2.361-3.171 5.905-2.763 11.789.14 1.978 1.037 2.907 2.804 2.907 2.008 0 2.596-.857 2.596-3.796 0-2.088.582-4.161 1.298-4.602 1.747-1.073 1.66-6.734-.12-7.834-.201-.119-.483-.179-.778-.159zm108.554-.406c5.586 0 9.028 9.403 4.022 10.984-1.432.449-2.597 1.647-2.597 2.662 0 1.937-1.587 2.464-3.052 1.014-.47-.471-.155-1.659.657-2.628 1.11-1.338.895-2.36-.817-4.238-2.705-2.977-1.593-7.794 1.787-7.794zm68.786-1.291c.635 0 1.527.954 1.982 2.141.895 2.319-.765 4.924-2.23 3.471-1.292-1.287-1.117-5.612.248-5.612zm-202.854-.929c-.871.196-.804 1.847.406 4.765 1 2.395 2.605 3.917 4.097 3.917 3.398 0 3.031-2.865-.81-6.462-1.752-1.637-3.01-2.37-3.693-2.22zm36.076-9.41c-2.175 0-3.58 2.172-2.517 3.881.764 1.228 5.842 1.856 5.842.725 0-2.025-1.873-4.606-3.325-4.606zm-151.487-11.544l3.453 3.149 3.413 3.189-2.891 3.875c-2.315 3.128-3.827 3.919-7.75 3.919-8.023 0-8.285-4.964-.56-10.822l4.335-3.31zm108.519-1.375c4.281 0 4.918 1.112 2.595 4.645-2.864 4.345-5.647 3.977-5.647-.766 0-3.2.549-3.879 3.052-3.879zm122.993-2.26c.876.049 1.74.632 2.108 1.737.235.695-.388 2.403-1.418 3.796-1.74 2.354-1.942 2.386-2.759.282-.488-1.244-.563-3.196-.118-4.321.4-1.059 1.31-1.541 2.187-1.494zm-95.081-4.159c1.692-.08 3.279.809 3.735 2.544.373 1.422 1.632 2.606 2.803 2.626 1.164.015 3.802 1.762 5.877 3.875 2.087 2.112 4.2 3.836 4.712 3.836.508 0 1.276 1.188 1.665 2.667.435 1.648 1.586 2.563 3.045 2.38 3.868-.482 6.931 1.468 6.931 4.442 0 1.528 1.099 3.488 2.437 4.321 2.075 1.287 2.665 1.005 3.935-1.779 1.138-2.466 2.04-3.015 3.735-2.22 1.23.58 7.641 1.284 14.246 1.534 6.607.25 12.014.79 12.014 1.213 0 .422-1.407 3.148-3.087 6.054-1.685 2.903-3.385 7.957-3.813 11.228-.77 5.826-.689 6.005 4.463 9.364 5.581 3.638 8.272 4.241 9.576 2.141 1.365-2.197 3.345-1.469 7.262 2.703 2.342 2.494 3.773 5.419 3.773 7.715 0 2.3.91 4.19 2.437 5.005 1.478.786 2.776 3.247 3.205 6.175 1.587 10.821 2.657 14.022 5.601 16.757 1.765 1.643 3.907 2.544 5.072 2.101 1.713-.652 1.895 0 1.098 4.237-.523 2.76-1.675 5.63-2.556 6.342-1.459 1.17-2.77 5.976-3.533 12.878-.389 3.502 4.134 3.641 10.881.322 6.745-3.321 9.328-1.503 5.233 3.676-1.526 1.922-2.763 4.531-2.763 5.813 0 1.284-.584 2.711-1.3 3.15-.715.44-1.297 1.957-1.297 3.391 0 2.228-.57 2.505-3.895 1.779-2.456-.536-3.894-.353-3.894.523 0 .768-.651 1.414-1.426 1.414-.818 0-1.22-1.994-.971-4.808.423-4.706.381-4.753-4.624-5.087-3.828-.251-4.705.047-3.573 1.172 2.428 2.418 1.707 3.66-1.62 2.827-5.018-1.252-4.871 1.175.28 4.605 5.923 3.94 6.673 4.994 6.694 9.082.046 6.83-4.244 9.627-16.677 10.983-4.19.456-4.323.338-3.775-3.394.32-2.133.067-4.194-.522-4.56-1.533-.94-3.641 5.152-2.843 8.196.815 3.103-6.258 11.379-8.888 10.377-3.272-1.248-13.243 4.591-15.507 9.085-2.24 4.472-8.176 10.616-10.263 10.616-.67 0-1.218.873-1.218 1.983 0 1.753.535 1.74 4.228-.284 2.315-1.279 5.206-3.119 6.411-4.078 1.927-1.545 2.089-1.422 1.459.968-.549 2.074-.12 2.704 1.862 2.704 3.868 0 6.036-3.136 3.573-5.166-2.583-2.137-2.464-3.776.32-4.765 1.258-.444 3.479-2.276 4.953-4.038 2.262-2.704 3.105-2.959 5.4-1.735 1.853.985 2.497 2.263 2.028 4.035-.71 2.703 1.445 3.625 2.924 1.253.568-.926 1.426-.877 2.676.163 2.552 2.102 11.507.521 16.11-2.867 2.04-1.501 4.575-2.426 5.646-2.021 1.072.409 2.672-.134 3.567-1.21 2.202-2.64 11.023-7.002 12.053-5.974 1.432 1.425-6.023 8.113-9.048 8.113-1.651 0-4.028 1.483-5.48 3.472-1.405 1.921-5.373 4.998-8.846 6.825-5.737 3.019-6.297 3.709-5.922 7.387.315 3.129-.19 4.212-2.195 4.848-1.433.449-2.78 2.115-3 3.672-.602 4.138-4.951 4.596-4.951.525 0-3.987-3.507-12.517-5.154-12.517-2.18 0-3.946 4.83-3.172 8.722.669 3.315.254 3.976-3.318 5.45-3.133 1.288-4.818 1.331-7.308.203-1.787-.809-4.845-1.434-6.773-1.414-3.197.04-3.292.172-1.217 1.738 1.243.944 2.268 2.38 2.268 3.189 0 1.996-3.539 1.898-4.263-.121-.963-2.693-1.847-.659-2.555 5.893l-.69 6.219 6.248-.323c3.69-.195 7.075.337 8.28 1.331 1.7 1.402 2.624 1.34 5.354-.442 1.813-1.179 3.854-1.802 4.551-1.374 2.435 1.497 1.217 4.583-2.315 5.894-1.97.73-4.538 2.592-5.723 4.118-1.86 2.404-2.45 2.538-4.303 1.009-1.847-1.523-2.504-1.383-4.872.969-2.275 2.271-2.475 3.031-1.09 4.687 1.975 2.374.937 5.934-1.747 5.934-1.043 0-3.546.609-5.555 1.373-3.143 1.191-3.386 1.603-1.673 2.905 1.099.838 1.82 2.435 1.585 3.558-.42 2.012 4.478 5.085 8.118 5.085 1.005 0 2.355.996 3.038 2.22.966 1.699.364 3.233-2.556 6.541-3.92 4.453-3.92 7.378 0 6.136 1.5-.471 3.238.563 5.16 3.147 3.433 4.627 4.906 4.81 8.888 1.09 1.652-1.543 3.371-2.416 3.855-1.938 1.197 1.188-4.758 7.353-7.1 7.353-1.407 0-1.673.994-1.098 3.871.65 3.227.08 4.508-3.414 7.711-2.303 2.123-7.683 5.692-11.964 7.912-6.432 3.343-9.61 4.107-18.182 4.486-10.768.474-14.931-.096-14.931-2.059 0-.628 2.028-1.518 4.496-1.978 2.797-.523 4.792-1.796 5.282-3.314.435-1.343 1.52-2.423 2.435-2.423.916 0 3.265-1.452 5.193-3.229 1.929-1.774 4.21-3.229 5.114-3.229 5.779 0 11.678-22.228 6.409-24.18-1.278-.478-3.083-1.903-4.013-3.195-2.063-2.846-4.906-3.04-5.925-.402-.413 1.065-1.631 1.938-2.715 1.938-1.1 0-1.995.601-1.995 1.376 0 .85-2.122 1.232-5.395.966-5.233-.42-5.433-.276-7.708 5.047-2.29 5.333-2.302 5.536.12 6.821 2.015 1.076 2.772.761 4.015-1.615 2.11-4.026 1.948-3.96 4.993-2.338 2.189 1.165 2.877 1.076 3.494-.527.413-1.095 1.846-1.977 3.198-1.977 1.618 0 2.475-.94 2.475-2.706 0-2.012.683-2.571 2.805-2.26 4.758.694 4.25 3.562-1.057 5.773-4.98 2.076-4.987 2.058-2.068 3.997 3.451 2.291 3.587 3.754.895 9.124-1.845 3.665-2.275 3.888-5.239 2.544-2.696-1.221-2.931-1.653-1.258-2.582 1.105-.616 2.027-1.96 2.027-2.99 0-2.143-2.047-2.49-3.245-.562-.44.707-1.967 1.292-3.365 1.292-2.042 0-2.375.608-1.747 3.107.595 2.338.209 3.251-1.587 3.711-2.013.52-1.988.644.369.771 2.308.123 4.385 2.36 4.385 4.765 0 .297-1.942.561-4.299.561-4.718 0-7.386 1.925-7.386 5.288 0 1.206-.872 2.497-1.957 2.909-1.068.412-1.805 1.446-1.618 2.263.723 3.2-2.488 2.027-6.898-2.504-6.192-6.353-13.9-10.817-16.967-9.85-1.858.587-2.433.105-2.433-1.943 0-1.474.693-3.77 1.545-5.125 1.98-3.151-.557-6.592-4.545-6.175-1.847.192-2.916-.562-3.245-2.302-.268-1.421-1.358-3.278-2.435-4.12-1.467-1.135-1.735-2.841-1.092-6.622.657-3.919.254-6.098-1.793-9.442l-2.678-4.323-.81 4.159c-.46 2.291-1.297 4.198-1.825 4.198-.522 0-1.982 2.764-3.245 6.137-3.34 8.941-4.545 9.475-4.545 2.098 0-3.552-.702-7.117-1.54-7.952-1.177-1.166-1.015-2.054.603-3.838 1.165-1.276 2.482-4.788 2.965-7.79.87-5.422.877-5.451-3.085-5.451-2.195 0-4.358-.616-4.833-1.373-.56-.905-1.678-.682-3.238.726-2.242 2.02-2.502 1.911-4.552-2.015-2.16-4.163-1.771-5.281 2.397-6.746.59-.204.362-1.941-.522-3.877-1.605-3.484-5.473-4.71-7.027-2.218-1.828 2.941-3.426 1.128-2.556-2.907 1.19-5.516 2.745-7.316 5.721-6.543 1.587.415 2.952-.298 3.902-2.055 1.257-2.347.802-3.406-3.453-7.675-6.865-6.885-11.463-9.634-14.488-8.679-2.015.637-2.442.329-1.947-1.534.36-1.369-.481-3.41-2.028-4.805-1.472-1.325-2.685-3.163-2.685-4.118 0-2.339 4.525-2.207 6.948.2 2.3 2.298 6.918 2.566 7.628.445.287-.867 2.275.221 4.705 2.584 4.732 4.598 10.593 5.551 10.593 1.735 0-1.279-.736-3.053-1.626-3.955-.89-.906-1.037-1.548-.327-1.416 4.042.766 5.848-.228 5.848-3.269 0-2.03.75-3.229 1.987-3.229 1.09 0 2.63-1.454 3.447-3.229.818-1.778 2.543-3.232 3.855-3.232 1.311 0 2.396-.524 2.396-1.128 0-.611 1.459-2.648 3.252-4.566 1.78-1.918 3.238-4.361 3.238-5.409 0-1.045 1.46-2.434 3.253-3.109 3.827-1.449 4.304-5.75 1.052-9.325-1.735-1.909-1.855-2.698-.57-3.959 1.278-1.253 1.975-1.168 3.212.362 2.448 3.046 7.013 5.174 9.248 4.321 2.623-1.001 4.583-4.623 4.583-8.558 0-2.076 1.078-3.602 3.287-4.605 2.918-1.319 3.227-2.023 2.476-6.013-.869-4.61 1.297-6.584 2.837-2.586.417 1.069 2.168 1.938 3.855 1.938 3.715 0 5.408 4.774 3.173 8.924-2.075 3.849-.683 5.288 5.192 5.288 4.511 0 5.182-.407 5.843-3.553.415-1.954 1.318-4.424 1.987-5.488.676-1.067 1.728-3.126 2.357-4.566.628-1.434 2.676-3.406 4.543-4.4 2.128-1.132 3.406-2.92 3.406-4.765 0-3.995 2.369-5.17 4.59-2.26 2.222 2.926 2.437.5.36-4.038-2.126-4.662.049-6.353 8.409-6.619 3.731-.12 7.199-.286 7.708-.366.508-.076 1.513-2.437 2.268-5.246.763-2.813 1.988-5.471 2.685-5.896.688-.426 1.256-2.081 1.256-3.675 0-1.592.537-3.441 1.219-4.12 1.485-1.485 2.275-10.452 1.01-11.707-.495-.491-2.342.655-4.102 2.542-1.753 1.889-4.416 3.434-5.883 3.434-1.465 0-2.635.826-2.635 1.858 0 1.03-.963 2.41-2.15 3.068-1.538.853-2.275 3.354-2.555 8.64-.443 8.087-.852 9.128-3.093 7.754-.95-.59-1.172-2.76-.602-6.099.777-4.562.59-5.087-1.54-4.682-1.33.254-2.983 2.241-3.693 4.441-1.145 3.5-1.645 3.854-4.142 2.743-1.566-.691-3.901-.798-5.193-.239-2.765 1.192-4.96.962-9.818-.929-4.324-1.68-4.617-3.315-.695-3.879 3.358-.48 5.928-7.377 6.09-16.269.108-6.143 2.623-8.232 6.773-5.652 3.853 2.396 2.996-1.282-.97-4.16-3.253-2.355-3.353-2.35-5.233.325-1.052 1.497-3.06 2.747-4.465 2.747-1.567 0-3.627 1.773-5.274 4.56-3.36 5.65-5.501 5.179-5.728-1.252-.135-3.839-1.038-5.566-4.256-8.076-2.397-1.862-4.095-4.396-4.095-6.056 0-1.569-1.179-3.829-2.604-5.047-1.573-1.342-2.598-3.796-2.598-6.259 0-6.983-2.642-13.424-6.616-16.066-3.707-2.474-4.894-4.446-2.639-4.446.645 0 1.527-1.415 1.957-3.106.427-1.695 1.94-3.345 3.363-3.714 1.425-.373 3.207-2.246 3.935-4.16.732-1.914 2.477-3.788 3.903-4.158 2.93-.766 3.294-3.153 1.011-6.783-1.284-2.049-1.144-2.938.769-5.048 1.286-1.412 3.092-2.318 3.975-1.979.897.341 2.369-.275 3.294-1.373 1.03-1.24 2.408-1.876 3.731-1.939h-.006zM66.332 182.528c.395-.036.783.054 1.098.362.442.44.155 1.42-.608 2.182-.937.926-1.649.962-2.195.078-.69-1.11.535-2.512 1.706-2.622zm220.966-26.002c.675 0 1.218.58 1.218 1.293 0 .708-.917 1.291-2.03 1.291-1.11 0-1.66-.583-1.217-1.291.44-.713 1.35-1.293 2.029-1.293zm25.282-11.023c.91-.004 1.907.56 1.907 1.413 0 .313-.917.565-2.035.565-1.11 0-1.658-.609-1.217-1.331.28-.449.795-.647 1.345-.647zm-68.132-12.035c.548.078 1.285.626 2.435 1.659 1.473 1.325 2.678 2.913 2.678 3.511 0 1.615-3.078 1.322-5.561-.525-1.507-1.116-1.84-2.208-1.01-3.512.508-.805.903-1.206 1.458-1.133zm170.431-19.781c1.227-.059 2.203.2 3.167.725 3.995 2.191 8.88 8.794 9.088 12.316.113 1.914 2.055 4.743 4.87 7.108 2.86 2.396 5.108 5.715 5.763 8.475.59 2.492 1.272 5.357 1.54 6.383.269 1.022-.47 2.047-1.62 2.3-1.458.319-2.343-.699-2.883-3.392-.517-2.548-2.097-4.596-4.625-5.892-2.115-1.089-5.193-4.346-6.82-7.23-2.028-3.587-5.227-6.497-10.145-9.246-7.908-4.415-11.723-7.313-11.723-8.923 0-.579.78-.769 1.747-.403.955.365 4.088-.14 6.971-1.132 1.969-.67 3.44-1.029 4.67-1.089zm-25.44-7.549c.098-.026.2 0 .32 0 1.132 0 5.233 6.517 5.233 8.316 0 1.731-2.61.483-4.456-2.137-2.142-3.046-2.61-5.848-1.097-6.179zm-12.14-17.606c-.146-.005-.308.054-.483.163-.715.44-1.297 1.35-1.297 2.02 0 .667.582 1.209 1.297 1.209.71 0 1.3-.907 1.3-2.017 0-.832-.348-1.355-.817-1.375zm67.65-1.775c.333 0 1.225 1.163 1.987 2.584 1.111 2.061.983 2.583-.604 2.583-1.13 0-1.993-1.121-1.993-2.583 0-1.421.28-2.584.61-2.584zm-42.529-8.721c-.535.14-.93.64-.93 1.494 0 1.125.935 2.057 2.067 2.057 1.131 0 1.821-.688 1.538-1.53-.493-1.5-1.785-2.251-2.675-2.021zm20.011-.324c1.771 0 4.93 3.875 4.99 6.139.04 1.664-.32 1.73-4.182.726-2.523-.656-3.258-6.865-.808-6.865zm-30.035-6.458c-.709 0-1.297 1.2-1.297 2.664 0 1.465.588 2.296 1.297 1.858.716-.44 1.298-1.643 1.298-2.664 0-1.027-.582-1.858-1.298-1.858zm-18.055-2.463c-.38-.054-.73.04-1.017.323-.395.396-.375 1.608.04 2.705.977 2.516 3.453 2.64 3.453.161 0-1.544-1.338-3.03-2.476-3.189zm48.33-2.182c.856-.096 4.584 2.461 8.646 5.976 6.008 5.201 7.768 7.544 7.468 9.812-.575 4.257-1.251 4.464-4.872 1.695-2.745-2.093-2.836-2.477-.816-2.505 3.205-.036 1.988-3.133-1.418-3.63-1.547-.23-3.347-2.038-4.257-4.24-.883-2.11-2.543-4.368-3.693-5.007-1.152-.641-1.714-1.57-1.217-2.061.025-.029.105-.033.159-.04zm-162.845-1.816c.348-.027.79.259 1.42.847 2.107 1.972.709 5.614-2.155 5.614-1.212 0-3.28.962-4.578 2.137-2.237 2.01-2.355 1.961-2.355-.686 0-1.78 1.11-3.253 3.078-3.995 1.712-.649 3.4-1.934 3.735-2.869.24-.653.507-1.023.855-1.048zm128.353-7.671c-.387.13-.455.912-.08 2.34.35 1.341.014 2.813-.735 3.272-.736.456-.99 1.722-.563 2.827.67 1.731 1.098 1.695 3.286-.486 2.202-2.19 2.317-2.895.81-5.291-1.205-1.916-2.215-2.829-2.718-2.662zm-157.451-1.373c1.072 0 1.95.833 1.95 1.854 0 2.163-1.869 3.59-3.087 2.386-1.551-1.545-.816-4.24 1.137-4.24zm-59.571-3.837c1.191-.127 1.786.239 1.786 1.092 0 1.695-3.245 2.644-5.111 1.494-1.205-.743-1.045-1.2.568-1.817 1.125-.43 2.048-.693 2.757-.77zm95.603-1.089c1.165-.05 2.389.227 3.412.888.985.637 1.385 1.796.899 2.584-.496.79-2.639 1.452-4.792 1.452-3.025 0-3.829-.509-3.493-2.262.308-1.58 2.048-2.578 3.974-2.662zm-41.463-1.293c.268.035.668.304 1.13.766.85.844 1.225 1.815.85 2.18-.862.864-2.388-.655-2.388-2.379 0-.406.14-.6.408-.567zm163.043-3.59c1.114-.072 2.772 1.587 7.15 5.972 3.853 3.875 8.228 8.084 9.73 9.328 1.512 1.245 2.763 3.674 2.763 5.409 0 1.735.588 3.52 1.297 3.959 3.098 1.908 3.682 5.3 1.628 9.529-1.593 3.272-1.768 4.85-.658 6.62 2.893 4.595-2.535 5.44-6.202.97-2.168-2.643-2.443-2.705-3.246-.645-.489 1.24-1.74 2.26-2.757 2.26-1.016 0-2.195.872-2.597 1.937-1.058 2.733-3.051 2.414-3.051-.487 0-3.877-3.025-5.616-5.962-3.431-2.335 1.736-2.357 2.053-.408 5.534 1.968 3.496 1.933 3.917-.682 7.185-3.22 4.01-3.748 4.156-5.93 1.536-1.928-2.314-5.381-2.52-7.47-.447-1.137 1.133-1.973 1.11-3.365-.04-1.01-.835-2.723-1.18-3.815-.764-3.258 1.24-8.725-7.085-8.725-13.283 0-4.615.315-5.198 2.604-4.606 3.245.846 3.451-1.934.321-4.237-1.78-1.31-1.963-1.992-.738-3.233 1.245-1.25 2.01-1.255 3.573.044 1.675 1.378 2.197 1.151 3.173-1.416 1.232-3.253.255-6.112-3.011-8.802-1.774-1.464-1.66-1.92 1.098-4.078 1.713-1.338 3.8-2.424 4.632-2.424.828 0 2.373-.868 3.445-1.938 2.783-2.77 3.426-2.49 6.331 2.827 2.884 5.277 4.244 6.119 7.1 4.322 1.607-1.008 1.225-1.943-2.275-5.53-2.718-2.794-4.176-5.643-4.176-7.997 0-3.566.046-3.566 3.164-1.534 3.006 1.96 3.314 1.907 5.194-.766.743-1.06 1.198-1.735 1.866-1.779l-.001.004zm-180.577-4.282c1.218-.094 3.145.766 6.653 2.583 4.47 2.318 5.031 3.056 3.893 5.166-.721 1.355-2.663 2.465-4.295 2.465-3.721 0-9.208-5.638-8.158-8.356.449-1.157.957-1.789 1.907-1.858zm162.442-.12c2.384 0 6.612 2.5 6.612 3.914 0 2.14-3.385 1.373-5.85-1.33-1.463-1.62-1.76-2.583-.762-2.583zm-16.114-.084l4.873 3.473c2.675 1.905 4.87 3.966 4.87 4.563 0 1.692-5.74 1.272-8.323-.604-1.352-.984-2.13-2.9-1.86-4.566l.44-2.866zm33.928-1.049c1.38-.098 8.032 3.533 8.928 4.968.442.715.628 1.265.4 1.211-5.821-1.481-10.908-4.734-9.528-6.097a.32.32 0 01.2-.082zm-62.656-7.43c.463.023.81.543.81 1.376 0 1.108-.582 2.017-1.299 2.017-.71 0-1.298-.543-1.298-1.213 0-.668.588-1.577 1.298-2.015.182-.11.337-.17.489-.165zm36.519-5.45c.388.024 1.043.176 1.953.446 5.688 1.672 10.493 4.574 9.692 5.853-.417.683-.872 1.212-1.012 1.172-1.487-.446-9.428-5.363-10.511-6.502-.659-.697-.752-1.006-.122-.968zm-10.305-5.248c.71-.009 2.34.607 4.468 1.815 2.077 1.186 2.51 1.833 1.212 1.858-1.11.027-3.158-.771-4.543-1.818-1.614-1.212-1.842-1.847-1.137-1.855zm-18.505-6.54c.367.006 1.079.226 2.188.566 7.697 2.343 11.867 4.6 11.324 6.136-.322.905-2.1 1.46-4.015 1.25-1.9-.206-4.485.2-5.722.89-1.895 1.056-1.318 1.637 3.607 3.754 6.853 2.937 11.028 7.088 9.945 9.891-1.077 2.798-4.392 2.501-6.045-.565-.769-1.421-2.722-2.584-4.342-2.584-5.186 0-10.005-5.912-7.146-8.761.883-.877.843-1.606-.162-2.222-1.032-.636-.783-1.422.817-2.582 2.033-1.478 2.075-1.954.403-3.956-1.085-1.301-1.46-1.825-.852-1.818zM256.054 2.572a258.511 258.511 0 00-53.241 5.532c10.063-2.01 20.415-3.066 36.029-3.997 28.532-1.706 46.482-.682 66.558 3.796 15.861 3.538 27.637 7.46 23.049 7.67-2.623.122-2.945 1.511-.817 3.636 1.117 1.106 1.072 2.515-.201 5.568-1.419 3.416-1.377 4.241.161 5.21 2.65 1.664.569 1.438-3.406-.362-2.599-1.179-3.622-1.159-4.344 0-.628 1.016-3.198-.536-7.828-4.685-5.715-5.116-8.768-6.715-17.495-9.125-12.193-3.365-13.208-3.423-23.207-2.097-6.303.833-7.468.636-7.468-1.052 0-1.1 1.212-2.364 2.677-2.827 4.571-1.442 1.968-3.816-4.623-4.238-4.666-.3-6.587.12-7.424 1.616-.83 1.465-3.185 2.017-8.603 2.017-8.287 0-11.203 1.657-9.25 5.29.817 1.52.777 2.59-.126 3.149-2.029 1.246-7.992-.569-9.737-2.947-2.157-2.933-6.198-1.178-5.114 2.22.682 2.161.249 2.624-2.716 2.624-1.962 0-7.148 1.382-11.483 3.11-4.94 1.965-13.237 3.717-22.164 4.684-9.851 1.062-15.384 2.324-17.814 3.995-1.934 1.335-4.31 2.424-5.274 2.424-.963 0-2.878.856-4.257 1.897-1.391 1.042-4.403 1.915-6.697 1.938-5.622.056-17.715 4.667-22.319 8.519-2.06 1.72-4.63 3.15-5.726 3.15-1.092 0-3.079 1.305-4.379 2.906-2.863 3.525-8.74 7.432-11.201 7.432-.984 0-2.85 1.16-4.137 2.582-1.297 1.422-3.024 2.584-3.813 2.584-.804 0-4.94 2.582-9.216 5.775-12.179 9.095-14.944 7.68-4.824-2.463 20.758-20.815 57.524-42.074 91.87-53.135 5.385-1.735 10.103-3.162 14.566-4.36C81.637 38.877.04 138.61.04 257.29c0 140.67 114.635 254.694 256.009 254.694 141.376 0 255.971-114.016 255.971-254.694 0-140.668-114.593-254.732-255.971-254.732" fill="url(#paint1_linear_4571_4893)"/><path d="M233.081 508.77c3.28.267 6.574.499 9.89.64-1.491-.451-4.474-.602-9.89-.64zm108.68-14.496c-2.502.749-5.623 1.841-8.718 3.008a246.59 246.59 0 008.718-3.008zm-214.697-18.431a254.022 254.022 0 0053.602 23.047c-3.747-1.978-9.025-4.373-12.314-5.542-3.553-1.259-7.666-3.333-9.117-4.617-3.287-2.898-27.111-12.645-30.921-12.645-.358 0-.79-.099-1.25-.243zm-11.54-7.067a273.767 273.767 0 007.626 4.738 12.87 12.87 0 01-.639-.641c-1.671-1.769-3.794-3.215-4.724-3.215-.387 0-1.253-.362-2.263-.882zm82.163-4.58c-.411.246-.863 1.846-1.089 3.856-.4 3.695-.107 4.178 2.668 4.178 1.725 0 3.52.576 3.953 1.284 1.218 1.952 5.81 1.502 5.81-.564 0-1.902-7.108-8.43-9.159-8.43-.652 0-1.53-.148-1.982-.324a.273.273 0 00-.201 0zm-10.408-8.308c-.572-.045-1.131.05-1.571.32-.619.38-.766 1.535-.366 2.572.927 2.399 5.612 2.462 5.612.077 0-1.482-1.957-2.836-3.675-2.969zm-22.114-2.289c-.181.019-.367.077-.487.2-.46.461-.186 1.621.607 2.568 1.629 1.956 3.714 2.296 3.714.605 0-1.468-2.551-3.528-3.834-3.373zm-18.809-7.831c-3.614.306-3.533 3.195.686 7.388 4.446 4.417 6.576 4.248 8.318-.642 1.486-4.185.4-5.395-5.896-6.506-1.225-.215-2.275-.31-3.108-.24zm-30.953-8.23c-2.834 0-2.375 1.467 1.492 4.778 1.888 1.61 4.358 2.88 5.497 2.851 1.258-.031.679-.795-1.497-1.969-1.952-1.052-3.548-2.737-3.548-3.775 0-1.037-.88-1.885-1.944-1.885zm30.348-5.139c-.706 0-1.291.904-1.291 2.005 0 1.104.585 1.642 1.291 1.207.711-.436 1.292-1.34 1.292-2.008 0-.665-.581-1.204-1.292-1.204zm-28.006-8.513a1.347 1.347 0 00-.525.198c-.672.415-.858 1.297-.446 1.969.42.668 1.305.893 1.984.483.664-.416.851-1.299.438-1.967a1.461 1.461 0 00-1.451-.683zm34.993-8.794c-1.536.116-1.824.739-1.824 2.086 0 1.351 1.019 2.777 2.262 3.216 1.239.436 3.13 1.558 4.194 2.444 1.065.894 3.394 1.85 5.17 2.171l4.201.763c1.79.328.918-4.302-1.332-7.067-1.517-1.86-4.192-2.941-8.359-3.373-2.022-.211-3.394-.312-4.312-.24zm-8.279-16.985c-1.611-.004-2.409 1.097-1.73 2.851.905 2.361 2.282 2.369 4.192.079 1.144-1.376 1.012-1.954-.606-2.57a5.179 5.179 0 00-1.856-.36zm40.795-1.165c.965.067 1.825.992 1.825 2.249 0 .589-.547 1.081-1.211 1.081-1.758 0-2.914-2.268-1.577-3.087.312-.193.645-.266.963-.243zM56.036 369.435c-2.646 0-2.501 3.132.28 5.904 2.142 2.132 2.303 2.114 2.709 0 .631-3.262-.726-5.904-2.989-5.904zm122.482-12.366c.467.018.813.539.813 1.364 0 1.102-.586 2.01-1.29 2.01-.719 0-1.291-.54-1.291-1.205 0-.666.572-1.57 1.291-2.008.172-.108.325-.168.477-.161zm-6.854-13.33c-2.502 0-3.034 3.731-.971 6.863 1.823 2.777 1.758 3.228-.693 5.663l-2.621 2.651 3.794 1.966c2.102 1.079 4.565 2.871 5.49 3.977.925 1.106 3.387 2.006 5.45 2.006 2.715 0 4.026.798 4.846 2.934.612 1.619 2.09 3.715 3.222 4.655 2.606 2.153 2.655 3.975.125 3.975-3.499 0-7.101 4.881-7.101 9.639 0 2.483-.712 5.646-1.577 7.026-1.352 2.155-1.046 3.079 2.176 6.427 2.063 2.142 4.413 3.894 5.204 3.894 3.035 0 5.676-3.38 6.056-7.712.359-4.063.826-4.565 4.725-4.936 3.846-.368 4.226-.126 3.475 2.247-.545 1.69-.308 2.689.679 2.689 2.176 0 4.997-3.996 5.043-7.144.041-2.441-.571-2.583-8.352-2.089-7.659.486-8.392.289-8.392-2.008 0-1.387 1.159-3.538 2.583-4.82 1.423-1.279 2.582-3.103 2.582-4.056 0-.987 1.384-1.725 3.227-1.725 2.51 0 3.227-.668 3.227-2.97 0-3.395-7.785-12.448-10.686-12.448-1.191 0-2.25-1.709-2.748-4.378-1.128-5.989-3.789-8.009-7.993-6.106-4.933 2.239-6.27 1.839-7.867-2.366-.805-2.118-2.116-3.854-2.903-3.854zm-70.625-1.566c.784-.104 1.345.092 1.61.519.452.726-.585 2.676-2.301 4.377-2.436 2.427-3.448 2.791-4.679 1.566-2.344-2.33-1.95-3.231 2.295-5.339 1.265-.627 2.282-1.023 3.075-1.123zm44.231-.765c1.105.096 2.329.791 2.742 2.01.313.94-.56 1.607-2.143 1.607-1.584 0-2.701-.86-2.701-2.052 0-1.178.99-1.66 2.102-1.565zm76.51-.243c1.696 0 4.125 3.325 3.153 4.299-1.77 1.758-4.277.742-4.277-1.725 0-1.414.505-2.574 1.124-2.574zm-25.862-3.571c1.716-.016 3.426.524 4.598 1.685 1.258 1.25 2.016 3.811 1.857 6.224-.154 2.259.154 4.807.686 5.663 1.698 2.737-2.296 1.644-5.005-1.365-1.417-1.576-4.04-3.808-5.81-4.98-2.661-1.758-2.996-2.543-1.816-4.495 1.059-1.758 3.28-2.712 5.49-2.732zm-115.137-1.285c.708.065 1.173 1.659 2.093 5.825.863 3.866-.82 3.654-2.983-.366-1.31-2.433-1.398-3.589-.279-4.697.483-.486.845-.792 1.17-.762zm75.021-2.53c.838-.122 1.569.564 1.569 2.129 0 1.578-.81 2.689-2.01 2.689-1.199 0-1.863-.901-1.617-2.169.313-1.612 1.225-2.526 2.058-2.649zm-15.655-1.324c1.957.014 3.023 1.245 3.023 3.572 0 3.778-1.944 4.052-5.085.722l-2.901-3.049 2.7-.845c.846-.268 1.606-.407 2.263-.4zm68.482-11.405c.373.039.733.34 1.052.842.512.832.347 2.064-.366 2.772-.858.857-1.598.805-2.215-.202-.522-.826-.353-2.101.36-2.811.423-.427.796-.637 1.169-.601zm-189.433-3.973c-.707.115-1.291 1.01-1.291 2.768 0 2.161.699 3.333 2.014 3.333 1.353 0 1.892-.958 1.619-2.811-.348-2.314-1.438-3.443-2.343-3.29zm12.391-.405l-1.656 2.933c-.898 1.603-1.63 4.526-1.658 6.504-.047 3.798 3.188 11.176 5.61 12.769 6.655 4.381 7.527-11.663 1.013-18.63l-3.309-3.576zm471.113-5.059c-.431.774-1.211 1.286-2.343 1.286-2.528 0-5.097 9.321-4.08 14.735.724 3.865.18 5.927-3.068 11.645-2.168 3.831-3.953 7.843-3.953 8.915 0 1.072-.584 1.969-1.292 1.969-.71 0-1.291.76-1.291 1.723 0 .967-1.164 3.226-2.581 5.02-1.423 1.799-2.583 4.219-2.583 5.345 0 1.316-1.144 2.046-3.195 2.046-3.406 0-5.841 3.168-5.841 7.627 0 4.632-7.336 17.336-12.838 22.286-2.897 2.606-5.251 5.934-5.251 7.35 0 1.999-.839 2.57-3.834 2.57-3.181 0-4.301.852-6.455 5.061-1.432 2.795-2.623 7.166-2.623 9.716 0 3.023-1.218 6.305-3.515 9.394-9.215 12.439-35.299 34.266-52.496 43.966-4.886 2.756-10.629 6.455-13.724 8.838 65.62-34.042 114.451-95.707 130.956-169.491l.007-.001zm-309.263 0c.666 0 1.576.58 2.018 1.286.438.707-.102 1.284-1.211 1.284-1.113 0-2.018-.577-2.018-1.284 0-.706.545-1.286 1.211-1.286zm10.449-7.426c.54-.004 1.064.29 1.738.841 1.897 1.569 1.897 2.023-.121 5.423-2.509 4.222-2.895 4.331-6.097 2.006-2.203-1.606-2.123-1.844.925-5.379 1.731-2.005 2.663-2.887 3.555-2.891zm23.287-14.417c.671 0 1.211.577 1.211 1.286 0 .705-.913 1.284-2.017 1.284-1.106 0-1.65-.579-1.211-1.284.438-.709 1.343-1.286 2.017-1.286zm-69.448-8.994c.065.006.105.033.159.08.905.909 1.41 9.945 1.045 19.513-.205 5.45-.766 7.39-2.136 7.39-1.025 0-2.223-.579-2.661-1.285-.442-.707-2.197-1.284-3.875-1.284-3.208 0-3.773-1.03-5.25-9.316-.673-3.755-.407-4.964 1.21-5.583 1.406-.537 1.837-1.731 1.332-3.735-.925-3.651 1.178-5.187 3.426-2.486 1.504 1.798 1.944 1.727 3.961-.924 1.084-1.43 2.242-2.417 2.782-2.37h.007zm-20.266-5.903c.154-.038.353.014.527.122.704.436 1.29 1.632 1.29 2.65 0 1.019-.586 1.846-1.29 1.846-.706 0-1.291-1.194-1.291-2.648 0-1.093.306-1.851.764-1.97zm10.855-4.095c1.365.037 2.581 1.284 2.581 3.013 0 2.356-1.835 2.337-3.792 0-1.034-1.239-1.086-2.041-.159-2.61.452-.279.917-.414 1.37-.403zm322.131-.924c-.4-.123-1.026.178-1.977.684-1.471.785-3.442 1.126-4.4.762-.957-.364-2.382.094-3.148 1.003-1.019 1.221-.684 2.44 1.211 4.62 1.418 1.628 2.583 3.744 2.583 4.698 0 .949.733 1.724 1.658 1.724 3.099 0 4.804-3.06 4.804-8.67 0-3.28-.065-4.616-.731-4.818v-.003zm-312.843-6.545c.592-.113 1.045.693 1.045 1.969 0 1.453-.572 2.649-1.291 2.649-.706 0-1.29-.829-1.29-1.848 0-1.016.584-2.211 1.29-2.649.094-.056.159-.103.246-.119v-.002zm330.356-3.733c-1.05 0-2.127 1.068-2.383 2.368-.333 1.718.214 2.219 1.937 1.887 2.829-.54 3.217-4.255.446-4.255zm-339.354-1.929c1.599-.113 3.687.423 5.617 1.886 2.17 1.649 2.237 2.1.559 3.216-2.608 1.738-5.622 1.625-7.506-.243-2.675-2.667-1.318-4.672 1.33-4.859zm-9.316-1.286c.704 0 1.291.58 1.291 1.286 0 .708-.587 1.288-1.291 1.288-.706 0-1.291-.58-1.291-1.288 0-.706.585-1.286 1.291-1.286zm275.36-3.532c-2.269-.007-5.232 3.997-5.73 8.231-.435 3.676.152 5.251 3.026 8.111 1.957 1.955 4.466 3.918 5.564 4.339 3.295 1.254 2.411 4.697-1.211 4.697-4.199 0-4.085 1.702.326 4.98 4.334 3.211 4.998 3.274 6.012.643.557-1.437 1.703-1.819 3.831-1.286 3.894.971 5.018-2.417 2.994-8.994-1.609-5.219-4.038-6.725-7.425-4.62-1.772 1.099-2.423 1.036-2.948-.322-.38-.969-2.004-1.976-3.595-2.208-3.814-.555-4.558-3.198-1.206-4.254 2.882-.909 3.823-7.515 1.293-9.075a1.83 1.83 0 00-.931-.242zm-284.881-8.833c.361-.027.686.083.886.402.387.625.253 1.925-.319 2.852-.798 1.275-1.292 1.284-2.024.119-.519-.843-.345-2.105.366-2.811.366-.36.733-.535 1.091-.562zm318.823-1.765c-1.152 0-1.733.576-1.291 1.284.438.706 1.017 1.286 1.291 1.286.266 0 .85-.58 1.29-1.286.44-.708-.147-1.284-1.29-1.284zm-241.42-16.706c1.019 0 1.852 1.158 1.852 2.568 0 1.414.585 2.574 1.29 2.574.712 0 1.293.829 1.293 1.844 0 2.149-1.865 3.568-3.063 2.37-.452-.45-.811-1.792-.811-3.013 0-1.217-.905-2.586-2.016-3.009-2.35-.897-1.285-3.334 1.455-3.334zm45.482-6.946c-.697-.07-1.184.854-1.656 3.011-1.258 5.709.42 11.625 3.667 12.931 4.645 1.86 5.843 1.45 8.001-2.692 1.877-3.613 1.882-4.193.038-6.225-1.117-1.224-2.022-3.27-2.022-4.536 0-1.735-.679-2.082-2.822-1.526-1.564.407-3.58.148-4.446-.56-.28-.239-.534-.38-.76-.403zm-43.144-.283c.472.018.805.54.805 1.369 0 2.255-.785 2.582-1.889.8-.413-.654-.16-1.562.557-2.005.188-.113.375-.168.527-.164zm-104.844-2.891c.154 0 .306.004.485.042 2.103.434 3.68 2.91 8.153 12.646 3.288 7.163 5.701 10.259 8.033 10.32.986.03 0 .848-2.223 1.808-4.067 1.761-5.664 5.536-6.375 15.177-.147 1.945-.321 4.403-.4 5.464-.279 3.24-4.04 2.228-4.04-1.086 0-3.123-3.561-7.269-6.256-7.269-.845 0-3.787-1.466-6.502-3.25l-4.918-3.255 1.25-6.062c.672-3.337 1.272-8.25 1.333-10.923.098-4.122.592-4.976 3.387-5.579 6.029-1.301 6.541-1.695 6.541-5.059 0-2.066.46-2.974 1.532-2.974zm-9.883-11.722c3.473-.027 5.761 2.354 5.761 6.022 0 4.146-3.394 3.718-4.47-.563-.493-1.936-1.597-3.97-2.423-4.496-.946-.599-.532-.951 1.132-.963zm23.478-1.126c1.079-.079 1.332.415.852 1.646-.919 2.378-4.825 2.806-4.033.443.294-.884 1.478-1.82 2.661-2.049.188-.036.373-.027.52-.04zm378.674-22.928c2.076 7.969 3.913 16.543 5.403 25.338.785 4.592 2.295 11.243 3.395 14.776 1.389 4.483 2.154 13.612 2.502 30.195.505 24.694-.813 36.653-5.365 48.747-1.729 4.574-1.83 6.283-.612 8.551.552 1.019.791 1.974.813 2.811 3.752-17.309 5.729-35.255 5.729-53.687 0-26.744-4.145-52.527-11.865-76.731zm-374.456-5.259c.107 0 .239.04.36.079.891.294 1.61 1.304 1.61 2.248 0 .944-.719 1.954-1.61 2.248-.957.318-1.612-.593-1.612-2.248 0-1.45.481-2.345 1.252-2.327zm22.762-2.372c.147.027.344.094.518.204.711.432 1.293 1.052 1.293 1.363 0 .312-.581.562-1.293.562-.706 0-1.29-.618-1.29-1.367 0-.558.305-.837.772-.762zm-82.492-3.013c.274-.021.58 0 .925 0 2.962 0 7.188 2.934 7.188 4.982 0 .515-.671 1.592-1.49 2.409-1.138 1.126-1.138 1.956.08 3.413 2.489 2.99.63 6.278-5.372 9.437-3.028 1.592-5.955 2.893-6.502 2.889-1.25-.005.32-10.545 1.825-12.167.611-.672 1.13-3.417 1.13-6.102 0-3.773.292-4.692 2.216-4.861zm18.52-1.284c.667 0 1.214.58 1.214 1.284 0 .71-.913 1.286-2.017 1.286-1.113 0-1.65-.576-1.21-1.286.437-.704 1.35-1.284 2.014-1.284zm42.702-4.535c1.477-.265 5.003 2.777 5.003 4.495 0 .6.333 2.014.766 3.132.992 2.583-.686 2.603-4.359.04-2.914-2.03-3.861-6.257-1.689-7.588.073-.05.178-.063.279-.079zm32.523-.04c1.651-.208 3.759 1.762 2.909 3.132-1.278 2.063-4.607 1.778-4.607-.405 0-1.016.447-2.138 1.014-2.489.204-.126.452-.209.684-.238zm282.946-.765c-.686.139-.927 2.241-.127 5.221 1.691 6.28-.306 9.482-5.164 8.27-3.023-.754-3.12-.565-2.297 3.815.594 3.119.194 5.912-1.211 8.715-1.137 2.267-2.056 6.872-2.056 10.24 0 5.38.639 6.788 5.244 11.683 4.567 4.855 5.124 6.105 4.44 9.797-.867 4.656.139 9.275 2.016 9.275.664 0 1.211-.864 1.211-1.929 0-1.059.625-1.925 1.372-1.925.759 0 1.037.495.652 1.126-.4.628.651 2.029 2.335 3.132 1.685 1.098 4.346 4.617 5.89 7.791 3.196 6.552 8.371 8.752 13.803 5.858 1.689-.9 3.382-1.332 3.753-.961 1.65 1.64 2.21 17.725.693 19.553-1.146 1.364-1.225 2.551-.248 4.218 1.265 2.163 1.379 2.181 1.412.079.06-3.247 5.265-2.942 6.136.362.38 1.443.979 2.32 1.33 1.969.353-.349.209-1.664-.325-2.934-.533-1.264-1.157-8.011-1.371-14.977-.4-13.343-.132-12.716-7.586-17.786-.852-.58-.28-1.698 1.53-2.973 1.603-1.119 2.916-3.354 2.916-4.937 0-1.664 2.168-5.003 5.164-7.91 4.646-4.522 5.084-5.466 4.351-9.557-.44-2.504-1.31-5.11-1.929-5.782-.627-.671-1.132-2.447-1.132-3.976s-1.176-4.241-2.583-6.023c-2.528-3.195-2.506-3.254-.039-3.897 1.372-.356 3.527.123 4.798 1.086 1.271.964 2.69 1.785 3.148 1.808.939.047-.644-7.906-2.016-10.118-1.403-2.258-3.307-1.674-3.307 1.004 0 4.201-3.673 4.194-7.427 0-2.543-2.837-4.334-3.752-6.537-3.334-2.22.423-5.164-1.079-10.9-5.662-4.313-3.447-9.151-6.264-10.735-6.264-1.577 0-3.221-.868-3.628-1.927-.606-1.563-1.171-2.213-1.576-2.13zm-8.232-4.979c-1.472.044-2.623.984-2.623 2.612 0 2.001.86 2.57 3.873 2.57 4.127 0 4.812-1.117 2.303-3.617-1.092-1.084-2.409-1.593-3.553-1.565zm46.772-1.685l-.892 2.771c-.48 1.522-.518 3.341-.08 4.056.958 1.533 4.087 1.745 4.965.321.346-.55-.411-2.406-1.69-4.096l-2.303-3.052zm-185.519-5.74c3.3-.157 3.342.727 1.903 3.413-.918 1.707-.933 2.851-.08 3.369.704.438 1.843 1.882 2.541 3.175 1.039 1.947.373 2.902-3.88 5.702-4.491 2.954-5.143 3.107-5.163 1.122-.022-1.264-1.837-3.098-4.12-4.175-9.356-4.419-7.135-10.607 4.366-12.127 1.877-.249 3.34-.431 4.433-.479zm48.309-9.239c1.43 0 2.583.859 2.583 1.927 0 1.957-2.749 2.609-4.321 1.046-1.636-1.628-.838-2.973 1.738-2.973zm-48.63-1.285c1.531.011 3.662.589 4.724 1.285 1.718 1.125 1.718 1.408 0 2.53-3.14 2.046-6.096 1.516-6.827-1.245-.52-1.986-.053-2.584 2.103-2.57zM186.4 129.236c.93-.046 1.83.056 2.621.361 3.195 1.222 2.317 5.874-1.37 7.268-6.363 2.406-9.212.96-7.668-3.895.654-2.052 3.635-3.595 6.417-3.734zm122.602-9.999c.239-.012.559.193 1.012.643 1.211 1.198 1.211 1.893 0 3.093-1.206 1.197-1.531.873-1.531-1.528 0-1.5.126-2.188.519-2.208zm-69.653-1.606c-1.73-.069-3.287.322-3.834 1.207-.425.691-.114 2.481.694 3.972 1.136 2.128 2.183 2.52 4.876 1.846 4.52-1.129 5.885-3.456 3.189-5.458-1.29-.957-3.195-1.497-4.925-1.567zm193.72-14.213c.697-.119 1.331.363 1.331 1.523 0 .827-.781 1.771-1.738 2.089-1.086.36-1.569-.225-1.291-1.567.254-1.204.998-1.928 1.698-2.045zm-2.789-4.739c-2.715.067-4.274 1.464-4.274 4.137 0 1.976-.738 3.211-1.942 3.211-2.842 0-2.357 4.823.652 6.422 1.491.794 2.583 2.669 2.583 4.459 0 1.706.771 3.57 1.69 4.137.93.562 2.675 3.698 3.913 6.986 1.477 3.903 3.793 7.026 6.709 8.994 2.439 1.661 4.472 3.474 4.472 4.016.006.541 1.888 2.127 4.2 3.534 2.307 1.405 5.064 2.201 6.128 1.765 1.07-.434 2.942-1.057 4.166-1.405 2.995-.861 3.54-3.294 3.142-13.891-.293-7.798-.925-9.884-4.56-15.141-2.315-3.348-5.758-7.063-7.665-8.27-1.912-1.21-3.76-2.553-4.122-2.969-.351-.422-3.419-2.084-6.813-3.696-3.341-1.587-6.158-2.341-8.279-2.289zm-188.182-6.786c-.985 0-2.13.866-2.543 1.927-.505 1.311.094 1.925 1.823 1.925 1.399 0 2.545-.863 2.545-1.925 0-1.06-.828-1.927-1.825-1.927zm-8.511-7.712c-.713 0-1.292.868-1.292 1.93 0 1.06.579 1.928 1.292 1.928.71 0 1.289-.868 1.289-1.927 0-1.063-.579-1.931-1.289-1.931zm-140.24-4.897c-.058-.02-.132.007-.2.04-.532.272-3.294 1.504-6.135 2.772-7.614 3.396-10.973 6.998-10.973 11.724 0 2.231.373 4.427.843 4.899 1.619 1.61 3.096.886 4.56-2.33.811-1.766 2.21-3.212 3.115-3.212.89 0 3.38-1.504 5.563-3.333 2.809-2.352 3.992-4.467 3.992-7.186 0-1.853-.318-3.237-.765-3.374zm97.626-6.663c.704 0 1.291.574 1.291 1.284 0 .706-.587 1.284-1.291 1.284-.713 0-1.29-.578-1.29-1.284 0-.71.577-1.284 1.29-1.284zm125.464-5.142c-2.861 0-6.655 3.85-6.655 6.746 0 1.715-.638 2.279-1.983 1.765-1.078-.41-4 .245-6.536 1.447-4.438 2.109-4.776 2.069-9.437-.602-2.661-1.524-8.31-3.175-12.551-3.656-7.708-.863-7.74-.834-11.954 3.937-3.432 3.897-4.165 5.745-3.993 10.078.308 7.854.147 8.551-1.977 8.551-1.062 0-1.935.69-1.935 1.527 0 .838-1.265 2.808-2.782 4.418l-2.742 2.932 4.033 2.329c4.773 2.694 5.059 3.366 6.656 16.583.673 5.56 1.596 12.258 2.061 14.896.666 3.791.407 4.937-1.251 5.459-1.158.369-3.06.991-4.239 1.369-1.562.497-1.803 1.059-.765 2.089.825.821 2.423.994 3.794.401 1.292-.561 3.087-.911 3.993-.765.905.146 2.541-.636 3.674-1.765 3.088-3.072 3.62-1.385.97 3.089-1.504 2.523-3.374 3.976-5.211 3.976-1.576 0-3.235.579-3.672 1.284-1.112 1.789-7.567 1.591-9.444-.28-1.205-1.198-1.529-.915-1.529 1.284 0 1.556-.487 2.854-1.093 2.854-.607 0-2.636 1.391-4.479 3.089-2.655 2.453-3.296 4.128-3.069 8.151l.282 5.063-4.035-1.689c-3.194-1.328-4.932-1.353-8.107-.159-2.221.836-4.038 1.977-4.038 2.53 0 2.095-5.239.886-6.783-1.567-1.996-3.187-2.248-3.182-11.459.159-6.641 2.411-7.36 3.009-6.216 5.142.719 1.325 2.35 2.408 3.633 2.408 1.285 0 3.368 1.133 4.646 2.53 2.502 2.75 2.676 2.592-4.159 4.618-3.041.9-1.758 4.416 1.616 4.416 3.7 0 4.319 3.107 1.412 7.067-1.571 2.129-1.524 2.691.319 4.056 2.782 2.062 1.051 5.019-5.731 9.716-6.701 4.643-8.404 4.576-7.42-.281.558-2.791.274-3.867-1.011-3.854-2.688.031-5.671 2.262-5.697 4.257-.012.975-1.717 3.253-3.835 5.059-3.68 3.152-3.765 3.372-1.609 5.742 2.914 3.206 2.849 4.214-.319 4.214-1.424 0-2.583.243-2.583.564 0 1.133 10.261 15.164 13.19 18.031 1.725 1.682 4.035 2.671 5.532 2.367 4.393-.888 7.539-.85 13.078.122 5.082.893 5.455.715 8.065-3.496 1.512-2.427 2.748-5.291 2.748-6.382 0-1.09 1.745-3.438 3.874-5.22 2.137-1.784 3.875-4.189 3.875-5.343 0-1.378.776-1.896 2.263-1.482l4.957 1.403c2.037.576 3.059-.04 4.205-2.531 2.397-5.237 1.79-7.164-3.513-11.683-3.946-3.358-5.231-5.592-6.256-10.761-1.437-7.203-1.964-6.303 10.49-17.669 5.96-5.433 14.48-5.851 21.587-1.044 4.207 2.845 4.893 2.957 7.349 1.244 1.664-1.162 3.993-1.585 6.015-1.082 4.353 1.086 14.822-1.972 14.003-4.096-.346-.882.559-2.651 2.018-3.895 1.738-1.477 2.427-3.19 1.975-4.98-.411-1.626.134-3.424 1.332-4.418 1.118-.916 2.024-3.416 2.024-5.579 0-2.273 1.158-5.19 2.78-6.905l2.823-2.973-2.823-2.97c-1.542-1.637-2.78-3.629-2.78-4.418 0-2.257 4.751-3.218 11.539-2.291 3.752.517 8.321.24 11.541-.72 2.926-.875 5.694-1.239 6.136-.802 1.424 1.416-.826 7.346-2.782 7.346-1.085 0-1.904 1.173-1.904 2.693 0 1.549-1.025 2.927-2.422 3.29-1.331.348-3.101 2.086-3.914 3.854-1.263 2.761-1.012 3.736 1.738 6.986 1.761 2.082 3.759 5.8 4.438 8.235.679 2.429 2.469 6.134 3.993 8.27 1.532 2.136 3.108 5.912 3.514 8.392.586 3.577 1.325 4.537 3.594 4.537 1.572 0 3.894 1.134 5.164 2.528 1.264 1.398 3.394 2.875 4.727 3.296 1.315.416 2.414 1.848 2.414 3.172 0 3.38 1.216 3.818 11.787 4.416 9.225.52 9.416.627 14.729 6.467l5.371 5.898 4.152-2.287c3.859-2.129 4.127-2.702 3.593-7.67-.319-2.967.067-6.007.845-6.785.778-.778 1.725-4.419 2.096-8.111l.694-6.705 5.81.401c3.193.222 6.395 1.111 7.101 2.008.711.895 3.54 1.706 6.295 1.805 2.755.101 6.095.547 7.429.965 2.554.807 3.364-1.262 1.049-2.689-.917-.567-.733-1.552.558-2.973 1.066-1.169 2.27-5.311 2.704-9.194.44-3.885 1.077-8.868 1.417-11.081.533-3.505.192-4.126-2.749-4.861-1.957-.49-4.178-.198-5.244.68-2.742 2.266-3.354.75-2.382-5.739.704-4.629 1.443-5.911 3.633-6.224 4.446-.634 3.826-4.004-1.171-6.464-2.509-1.239-5.423-2.248-6.495-2.248-3.589 0-9.358-3.811-10.248-6.748-.487-1.599-2.304-4.419-4.035-6.264-2.394-2.55-2.956-4.169-2.3-6.744.823-3.298.657-3.374-5.127-3.374-5.091 0-5.937.371-5.937 2.569 0 3.05-1.636 3.322-3.871.642-.88-1.058-2.424-1.927-3.436-1.927-1.41 0-1.504.553-.438 2.531 1.41 2.615.48 9.035-1.292 9.035-.547 0-1.731-.891-2.621-1.966-.898-1.077-2.596-1.666-3.794-1.286-1.258.398-3.195-.388-4.565-1.888-1.465-1.619-3.289-2.35-4.759-1.885-2.056.648-2.335 0-2.335-5.063 0-4.506-.586-6.122-2.585-7.188-1.423-.756-2.588-2.335-2.588-3.494 0-1.154-1.01-3.167-2.216-4.495-1.35-1.484-2.083-4.142-1.902-6.867.174-2.437-.255-4.416-.965-4.416-.708 0-3.196-1.662-5.531-3.652-2.33-1.994-6.203-4.388-8.593-5.346-4.264-1.696-9.19-7.86-9.204-11.48-.014-2.508-3.867-6.506-6.257-6.506zm21.839-6.141c-.699-.043-.873.733-.487 2.208.385 1.453 1.258 2.647 1.936 2.647 1.718 0 .726-4.201-1.124-4.817-.119-.038-.226-.033-.325-.038zM164.86 59.77c-1.29.148-2.861 1.048-4.311 2.65-2.071 2.27-2.145 2.8-.532 3.851 3.073 2.005-2.323 5.362-7.342 4.58-3.521-.549-4.704.126-9.164 5.06-4.406 4.88-5.677 5.572-8.877 4.94-4.751-.944-20.618 5.903-21.589 9.316-2.022 7.128-2.236 10.959-.766 12.727.871 1.048 1.323 2.008 1.052 2.169-.279.158-2.229 1.277-4.359 2.449-3.421 1.882-4.992 3.98-8.439 11.364-.494 1.059-2.516 2.215-4.512 2.568-3.516.62-3.568.71-1.333 2.931 1.271 1.271 1.957 2.669 1.532 3.092-1.385 1.381-16.838 1.59-17.678.243-.83-1.336.614-10.46 2.705-17.066.756-2.419.644-4.652-.28-6.426-2.077-3.964-2.104-3.949-4.846-1.484-3.076 2.763-5.271 1.679-4.28-2.087.592-2.258.3-2.63-1.536-1.929-6.057 2.312-8.466 2.424-8.466.362 0-1.136-.212-2.05-.453-2.05-1.158 0-13.604 12.642-15.573 15.824-1.244 2.003-2.623 3.334-3.029 2.928-.085-.081-.085-.221-.077-.399-3.662 5.43-7.089 11.029-10.336 16.743.237-.236.425-.4.57-.4.28 0 .174 1.589-.286 3.532-.452 1.943-1.977 4.692-3.386 6.102-2.49 2.499-2.543 2.512-1.657-.441-11.627 22.547-19.987 47.041-24.378 72.88.665 3.944 1.769 21.034 1.781 29.231.015 10.327 3.769 21.04 7.382 21.04 2.961 0 6.822 3.795 6.822 6.705 0 1.351 1.664 3.827 3.714 5.542 3.939 3.305 4.585 5.307 7.021 22.083 1.39 9.581 1.937 10.892 5.89 14.174 2.395 1.99 4.433 4.916 4.526 6.506.092 1.695 1.491 3.556 3.38 4.496 1.784.88 3.994 3.162 4.924 5.098 2.13 4.414 22.94 20.187 26.596 20.16 1.49-.014 3.513-.53 4.525-1.166 1.29-.814 2.534-.295 4.192 1.809 1.305 1.639 2.384 3.499 2.384 4.095.005.596.632 3.251 1.37 5.9 1.425 5.082 5.085 6.709 5.085 2.251 0-1.453.865-2.57 1.983-2.57 1.085 0 2.288-.866 2.7-1.93.414-1.057 2.131-1.926 3.835-1.926 3.14 0 3.833-2.494 3.147-11.162-.166-2.071.891-3.148 4.08-4.297 2.343-.847 5.311-2.9 6.576-4.578 2.104-2.788 2.131-3.384.319-6.864-3.56-6.854 3.075-6.919 8.154-.083 1.57 2.117 3.972 3.858 5.329 3.858 2.876 0 4.527 1.996 2.623 3.172-2.183 1.34-1.477 5.549 1.37 8.191 1.765 1.635 2.536 3.695 2.265 6.022-.361 2.997-1.333 3.807-6.504 5.3-6.82 1.971-9.324 5.173-8.471 10.92.306 2.073.105 4.056-.487 4.421-2.015 1.234-1.11 4.281 2.583 8.512 2.029 2.321 3.468 4.84 3.189 5.622-.566 1.601 9.125 10.799 11.38 10.799.811 0 2.183-.973 3.027-2.129 1.419-1.927 1.864-1.873 5.332.321 2.062 1.314 4.205 3.103 4.759 3.976 1.082 1.713 10.055 4.566 11.094 3.534.345-.346-.042-1.292-.887-2.129-.838-.834-1.537-2.583-1.537-3.854 0-2.698 5.017-3.208 7.468-.766 1.211 1.204 1.577.888 1.577-1.482 0-1.676.938-4.106 2.096-5.381 1.957-2.145 1.971-2.556-.08-5.661-2.841-4.32-1.904-5.134 5.856-4.9 3.488.106 6.335-.209 6.335-.722s-1.448-2.275-3.233-3.935c-1.77-1.661-3.221-3.676-3.221-4.458 0-.781-3.036-2.325-6.748-3.414-5.858-1.719-7.243-2.767-10.368-8.069l-3.594-6.105 2.908-3.734c1.817-2.318 3.833-3.533 5.29-3.213 1.286.283 2.636-.32 3.021-1.323.388-1.007 1.412-1.809 2.263-1.809.853 0 2.516-.72 3.675-1.604 1.942-1.481 1.904-2.025-.406-6.666-3.168-6.373-3.135-7.148.245-7.148 2.277 0 2.45-.337 1.131-1.927-1.89-2.258-.849-5.785 1.692-5.785.978 0 3.126-1.154 4.764-2.568 1.638-1.414 3.421-2.57 3.995-2.57 2.688 0 4.978 17.396 2.621 19.959-2.315 2.519-2.729 9.408-.686 11.441 1.093 1.086 2.496 2.008 3.108 2.008.614 0 1.492 1.225 1.978 2.731.898 2.807 13.583 15.771 20.744 21.198 5.204 3.952 7.614 4.079 5.565.281l-1.492-2.77 4.565 2.77c4.16 2.563 4.724 2.64 6.614.766 1.133-1.126 2.058-2.595 2.058-3.251 0-.659 1.086-1.165 2.422-1.165 1.338 0 3.148-.868 4.04-1.927.88-1.063 2.882-1.927 4.473-1.927 1.596 0 4.413-1.16 6.216-2.572 1.81-1.414 4.219-2.57 5.37-2.57 1.151 0 2.415-.866 2.829-1.927.4-1.059 2.21-1.927 3.993-1.927 3.115 0 3.213-.214 2.382-6.105-1.45-10.189-1.703-10.615-6.016-9.758l-3.872.765.157-6.264c.075-3.448-.291-8.466-.771-11.121-.592-3.317-.213-6.164 1.213-9.158 2.274-4.751 2.788-7.708.811-4.615-1.037 1.615-1.651 1.638-3.913.239-1.492-.915-3.767-1.325-5.045-.922-3.021.954-5.711-2.35-4.646-5.704.939-2.926 6.99-3.585 12.751-1.403 3.907 1.475 5.552-1.249 3.116-5.141-1.905-3.024-2.728-3.095-4.846-.561-.883 1.059-2.847 1.911-4.359 1.886-5.624-.081-9.043-5.277-9.164-13.934-.053-3.917-.587-4.517-5.85-6.464-3.76-1.39-5.955-3.013-6.249-4.657-.599-3.242-5.283-8.313-7.673-8.313-1.006 0-2.105 1.086-2.456 2.449-.36 1.363-1.384 2.224-2.264 1.887-.883-.335-2.315.242-3.195 1.285-1.296 1.563-1.003 2.307 1.745 4.099 2.795 1.82 3.222 2.818 2.583 6.22-.652 3.427-.027 4.884 3.874 9.115 2.541 2.764 5.137 6.997 5.81 9.397 1.017 3.685.738 5.128-1.939 9.356-3.645 5.742-5.736 6.421-5.736 1.848 0-1.911-1.797-4.96-4.512-7.672-2.489-2.473-4.526-5.088-4.526-5.821 0-.731-1.357-1.323-3.021-1.323-1.665 0-4.139-1.245-5.491-2.731-1.351-1.487-3.993-3.461-5.849-4.417-2.157-1.106-3.681-3.235-4.201-5.823-.697-3.501-1.097-3.831-2.827-2.408-1.099.908-1.825 3.092-1.611 4.857.211 1.763-.252 3.429-1.052 3.694-.863.292-1.783-2.082-2.302-5.943-.465-3.532-1.437-6.757-2.131-7.188-2.188-1.34.054-3.171 3.876-3.171 1.994 0 4.291-.814 5.124-1.809 2.986-3.585-1.618-12.958-8.08-16.421-2.091-1.122-2.305-.774-1.932 3.013l.442 4.254-6.138.04c-3.799.027-6.129-.523-6.129-1.443 0-2.219-3.495-4.742-4.438-3.215-.467.755-2.571.146-5.206-1.527-3.26-2.062-4.485-3.751-4.525-6.343-.053-3.389-.313-3.533-6.735-3.533-5.431 0-13.869-1.81-16.425-3.492-1.271-.838 3.036-4.215 5.363-4.215 1.439 0 3.342-1.03 4.241-2.251.898-1.219 3.014-2.229 4.679-2.249 1.823-.02 3.034-.767 3.034-1.927 0-1.427-1.425-1.929-5.497-1.848-5.405.11-6.942-.973-3.953-2.81 1.051-.642.745-1.208-.965-1.804-1.378-.481-3.515-.272-4.719.481-3.001 1.86-4.806-.272-1.984-2.329 2.882-2.096 2.849-2.701-.478-7.35-2.384-3.324-2.523-4.248-1.093-6.906 1.459-2.716 1.305-3.328-1.291-5.421-2.702-2.178-2.774-2.538-.85-4.456 1.149-1.145 1.743-2.955 1.33-4.016-.565-1.47.639-2.12 5.005-2.772 4.885-.728 6.044-1.486 7.827-5.217 1.743-3.635 2.782-4.378 6.216-4.378 2.463 0 5.337 1.116 7.108 2.773 2.755 2.576 3.354 2.658 8.145 1.083 2.847-.939 5.211-2.531 5.211-3.534 0-1.331.978-1.623 3.627-1.046 4.339.947 8.64-2.855 7.467-6.583-.4-1.288-.212-3.121.407-4.099 1.376-2.184 4.118-.774 3.186 1.65-1.131 2.934 1.618 3.427 4.073.722 2.983-3.269 5.777-3.245 5.777.04 0 3.025 2.877 3.384 5.164.641.887-1.059 2.41-1.927 3.394-1.927 1.159 0 1.772-1.506 1.772-4.337 0-4.423 2.728-8.104 5.005-6.703.692.427.965 2.797.565 5.26-.786 4.811-.094 5.254 5.204 3.251 1.857-.702 3.389-2.413 3.635-4.095.246-1.675 1.609-3.215 3.187-3.613 1.504-.384 4.312-2.59 6.256-4.9 2.929-3.48 3.401-4.973 2.702-8.674-.825-4.364-1.006-4.457-7.062-4.457-6.928 0-12.485-2.331-18.402-7.707l-3.993-3.656 5.326-5.502c2.928-3.033 5.323-6.618 5.323-7.949 0-1.331 2.036-4.195 4.525-6.385 2.484-2.191 4.513-5.035 4.513-6.303 0-3.847-3.939-12.389-6.089-13.21-2.681-1.027-3.812.265-1.897 2.168.838.834 1.531 3.148 1.531 5.178 0 2.788-.552 3.613-2.217 3.292-2.974-.571-4.924-9.638-2.668-12.407 1.377-1.683 1.31-1.86-.56-1.165-3.499 1.306-3.966-1.232-.811-4.376 1.97-1.958 2.954-4.605 3.115-8.39.207-4.977-.2-5.814-4-8.152-2.324-1.43-4.559-3.453-4.959-4.499-.931-2.404-7.76-2.487-9.729-.119-1.164 1.394-.893 1.89 1.252 2.45 1.769.46 2.554 1.529 2.263 3.052-.574 2.977-5.977 3.874-7.029 1.164-.651-1.686-1.093-1.562-2.983.763l-2.262 2.768-5.362-3.01c-3.895-2.175-5.372-3.83-5.372-5.982 0-2.143-1.204-3.166-2.869-2.973l-.002.005zm21.71-8.834c-1.837.157-4.634 1.453-4.634 2.486 0 1.656 4.808 1.487 5.845-.199.472-.754.539-1.635.166-2.006-.253-.254-.758-.333-1.377-.28z" fill="url(#paint2_linear_4571_4893)"/><path d="M148.102 448.106a249.415 249.415 0 0010.158 4.784c-1.587-.73-3.192-1.464-4.65-2.16-1.881-.896-3.73-1.798-5.508-2.624zm6.946-33.227c-.939.024-.97.741-.351 2.358.826 2.146 3.985 2.547 5.161.652.423-.683-.518-1.722-2.098-2.316-1.273-.477-2.15-.708-2.712-.694zm-12.024-62.396c1.407 0 2.559.554 2.559 1.234 0 .678-.805 1.236-1.786 1.236-.983 0-2.142-.558-2.563-1.236-.416-.68.383-1.234 1.79-1.234zm50.809-1.158c-.652.008-1.482.781-2.327 2.354-1.601 2.963-.332 8.744 2.367 10.804 2.827 2.17 3.453 1.925 4.106-1.468.358-1.845-.065-3.273-1.087-3.666-.921-.35-1.663-2.3-1.663-4.358 0-2.406-.564-3.675-1.396-3.666zm-4.081-26.898c-2.801.93-2.021 4.523 1.676 7.793 2.085 1.855 3.801 4.337 3.801 5.521 0 1.848.434 1.961 3.094.732 4.031-1.859 3.921-2.96-.575-5.518-2.034-1.158-4.369-3.662-5.155-5.556-.793-1.894-2.072-3.223-2.841-2.972zm-92.384-5.249c-.932.11-.856 1.092.038 3.051.782 1.696 2.15 3.086 3.071 3.086 2.329 0 2.072-4.531-.313-5.44-1.324-.511-2.232-.762-2.796-.697zm152.081-2.471c.849-.168 1.63.466 1.63 1.738 0 .976-.53 2.079-1.164 2.47-1.476.907-2.955-1.381-1.944-3.012.434-.687.967-1.093 1.478-1.196zm238.382-4.824c-3.628 8.487-8.878 19.093-12.139 23.926-5.4 7.989-7.907 11.833-10.325 15.901-1.247 2.105-3.851 5.864-5.814 8.336-1.964 2.471-4.778 6.778-6.25 9.568-1.456 2.793-3.109 5.094-3.683 5.094-2.444 0-9.875 9.419-9.888 12.543-.011 5.456-13.1 19.885-30.407 33.533-2.571 2.025-4.311 3.387-6.665 5.248 38.737-28.517 68.705-68.14 85.171-114.149zm-246.625-8.451c1.111.111 1.816 1.103 1.816 2.816 0 1.295-.973 2.551-2.175 2.78-2.743.526-4.401-3.348-2.045-4.824.92-.582 1.732-.839 2.404-.772zm-78.084-.348c1.766 0 2.327.904 2.327 3.704 0 3.14-.473 3.704-3.133 3.704-1.727 0-3.486-.862-3.882-1.89-.935-2.421 1.713-5.518 4.688-5.518zm40.884-4.938c-.64 0-1.515.554-1.938 1.234-.423.679.096 1.236 1.164 1.236 1.061 0 1.938-.557 1.938-1.236 0-.68-.526-1.234-1.164-1.234zm288.79-1.738c-.442.625-.783 1.837-.898 3.05.308-1.016.602-2.032.898-3.05zM43.86 292.24c-.486.052-.935.364-1.317.964-1.74 2.737-1.448 7.026.74 11.23 3.007 5.786 6.23 4.298 5.778-2.66-.348-5.26-3.098-9.747-5.201-9.534zm163.792-.271c-.679 0-1.241.557-1.241 1.235a1.24 1.24 0 002.481 0c0-.678-.557-1.235-1.24-1.235zm-12.8-4.939c-.901-.017-.242 6.185 1.203 11.426.326 1.186 1.458 2.16 2.519 2.16 1.554 0 1.632-.367.43-1.814-.948-1.13-1.202-3.263-.666-5.712.819-3.707-.499-6.001-3.486-6.06zm-48.873-2.005a1.42 1.42 0 011.401.654 1.366 1.366 0 01-.428 1.893c-.646.399-1.496.179-1.9-.463a1.36 1.36 0 01.428-1.891c.16-.1.327-.166.499-.193zm74.156-.31c-.358-.008-.798.131-1.278.427-.736.454-.973 1.39-.538 2.084.525.84 1.204.809 2.093-.079 1.195-1.188.805-2.399-.277-2.432zm-46.345-6.328c.077-.023.115 0 .192 0 .614 0 1.445.817 1.83 1.814.741 1.933-.813 3.557-2.138 2.239-1.105-1.104-.952-3.73.116-4.053zm-48.053-2.47c.682 0 1.24.557 1.24 1.234a1.24 1.24 0 01-1.24 1.236 1.24 1.24 0 01-1.242-1.236 1.24 1.24 0 011.242-1.234zm107.472-9.146c-.397.017-.832.102-1.319.192-3.025.576-4.502 2.782-1.86 2.782.748 0 1.208 2.267 1.042 5.322-.32 6.215.653 8.261 3.92 8.261 1.299 0 2.938 1.079 3.646 2.389.71 1.314 2.79 2.565 4.657 2.781 2.75.316 3.46 1.067 3.684 3.975.378 5.066-1.484 7.859-6.708 10.032-3.877 1.611-4.811 1.623-6.283.157-1.482-1.469-1.228-2.129 1.625-4.363 4.337-3.391 3.314-6.342-2.175-6.29-4.683.046-8.416 2.392-8.416 5.326 0 1.114-1.178 3.179-2.597 4.592-2.468 2.462-2.482 2.669-.385 4.979 1.204 1.324 4.619 3.005 7.561 3.742 6.255 1.568 6.755 3.421 1.746 6.368-4.444 2.609-7.438 2.71-8.372.27-.395-1.018-2.034-1.852-3.645-1.852-2.7 0-2.943.459-2.719 5.518.134 3.166.953 5.788 1.86 6.138.877.334 1.586 1.4 1.586 2.392 0 .99 1.458 2.953 3.262 4.36 1.799 1.405 3.469 2.584 3.686 2.584.218 0 2.787-1.643 5.743-3.628 2.95-1.982 7.299-3.787 9.658-4.012 3.006-.287 4.683-1.251 5.693-3.282.881-1.755 1.783-2.36 2.29-1.542 1.355 2.186 3.152 1.541 4.617-1.658 1.127-2.456.819-4.064-1.587-8.954-2.507-5.073-2.935-7.879-2.994-18.869l-.074-12.89-6.741-1.31-6.795-1.278v-4.938c-.012-5.546-.818-7.413-3.606-7.294zm-50.889-.734c.705-.072 1.703.63 2.176 1.856.397 1.018.273 1.852-.269 1.852-1.291 0-2.641-1.397-2.641-2.702 0-.656.313-.959.734-1.006zm48.023-11.115c-1.836.071-1.817.493-.858 2.972 1.08 2.8 4.227 2.432 4.227-.499 0-1.647-.824-2.473-2.481-2.473-.339 0-.633-.008-.888 0zm-69.706-3.47c-.217.022-.485.091-.843.231-1.088.414-2.278.771-2.603.771-.327 0-.224.557.197 1.234 1.139 1.833 2.738 1.483 3.608-.77.417-1.091.32-1.541-.359-1.466zm5.085-2.432a3.315 3.315 0 00-1.08.232c-1.907.727-1.943 1.028-.397 2.006 1.011.632 2.93 1.147 4.273 1.158 2.251.019 2.263-.134.384-2.005-.934-.936-2.079-1.429-3.18-1.391zm57.559-2.738c-2.724 0-3.544 7.333-1.202 10.881 1.957 2.969 2.098 3.016 3.721.811 2.917-3.964 1.254-11.692-2.519-11.692zm-88.855 0c.141-.021.319 0 .499 0 1.011 0 2.111.422 2.443.964.341.54.141 1.713-.421 2.624-.793 1.277-1.35 1.071-2.444-.968-1.011-1.871-1.074-2.497-.077-2.62zm43.319-8.61c-.997.004-2.582.869-4.457 2.626-3.685 3.438-3.632 4.068.774 8.76 2.731 2.909 3.319 4.291 2.322 5.48-.73.877-2.068 1.623-2.982 1.623-2.623 0-4.054 3.789-6.05 16.09-1.933 11.848-1.766 13.546 1.279 13.546.998 0 2.482 1.388 3.256 3.086 1.696 3.692 2.961 3.879 4.657.732 1.886-3.515 12.108-9.056 15.011-8.142 2.098.665 2.423.194 2.443-3.318.013-2.253.575-4.924 1.242-5.942.934-1.438 1.188-1.082 1.202 1.62.026 4.445 2.903 7.652 4.81 5.366.716-.866 1.03-2.716.652-4.132-.371-1.416-.116-2.923.588-3.356 1.58-.974-3.479-9.264-5.706-9.34-.851-.029-1.546 1.352-1.546 3.048 0 2.318-.679 3.09-2.636 3.09-2.227 0-2.495-.521-1.792-3.322.666-2.629.526-3.048-.772-2.004-3.142 2.524-6.903-.296-7.99-6.02-.557-2.934-1.016-6.16-1.049-7.179-.024-1.018-.743-3.019-1.547-4.435-.819-1.419-1.163-3.78-.782-5.251.462-1.75.064-2.627-.927-2.626zM51.737 235.63c.441.019.767.515.767 1.312 0 1.059-.55 1.928-1.24 1.928-.68 0-1.243-.519-1.243-1.156 0-.639.564-1.511 1.242-1.93.18-.106.32-.163.474-.154zm58.944-5.402c-2.89 0-2.992 2.134-.268 5.132 2.456 2.702 4.152 2.902 4.152.5 0-3.405-1.555-5.632-3.884-5.632zm36.23-8.684c-.257-.026-.539.069-.819.346-.409.409-.296 1.456.236 2.318.787 1.257 1.055 1.253 1.476 0 .448-1.343-.114-2.588-.893-2.664zm-20.13-.58l-1.785 4.13c-.973 2.287-1.745 5.48-1.745 7.1 0 2.068.685 2.972 2.327 2.972 3.774 0 4.868-4.637 2.521-10.726l-1.318-3.476zm75.005-11.228c-.421.127-.435.776.236 1.852.449.725 1.41 1.349 2.131 1.349.825 0 .71-.717-.268-1.891-.852-1.021-1.668-1.438-2.099-1.31zm-66.863-4.093c-.167-.012-.346.038-.576.117-.895.296-1.88 1.271-2.174 2.162-.308.926.153 1.387 1.087 1.078.896-.296 1.867-1.268 2.168-2.16.238-.694 0-1.152-.505-1.197zm62.567-11.229c-3.224-.029-3.914 2.244-1.715 5.598 2.552 3.868 4.121 3.822 5.937-.157 1.579-3.445.05-5.402-4.222-5.441zm44.597-.77c-1.489.134-2.609 1.549-1.63 3.124.999 1.598 5.668 1.825 5.668.27 0-.593-.889-1.793-1.943-2.662-.68-.562-1.414-.796-2.095-.732zm197.223-5.211a.912.912 0 00-.466.27c-.507.502-.098 1.402.888 2.008 2.316 1.424 3.351.36 1.476-1.506-.594-.594-1.349-.881-1.898-.772zm-404.565-3.472c.908.091 1.355 1.27.767 2.778-.364.952-1.17 1.737-1.776 1.737-1.42 0-1.453-3.378-.04-4.245.384-.239.742-.302 1.049-.27zm93.076-.66l-3.608 3.628c-3.569 3.557-3.6 3.711-1.739 8.145 2.046 4.88 2.982 5.347 5.974 2.969 4.055-3.216 4.552-6.025 1.899-10.493l-2.526-4.245v-.004zm247.496-5.826a1.11 1.11 0 00-.971.31c-.379.379-.358 1.54.037 2.586.934 2.406 3.302 2.523 3.302.152 0-1.473-1.274-2.894-2.368-3.048zm53.952-2.582c-.301 0-.898.552-1.319 1.234-.421.676-.179 1.234.545 1.234.723 0 1.318-.558 1.318-1.234 0-.682-.245-1.234-.544-1.234zm-204.015-6.254c-.793-.061-1.478.751-1.478 2.626 0 1.402-.602 3.693-1.356 5.094-1.017 1.897-.986 2.753.115 3.434 1.011.619.275 1.762-2.246 3.549-3.639 2.58-3.649 2.714-2.127 7.874 1.258 4.275 2.134 5.354 4.808 5.672 1.816.218 3.928 1.591 4.727 3.088 1.108 2.051 1.593 2.262 2.054.886.332-.995 1.675-2.684 2.992-3.744 2.098-1.696 2.201-2.322.812-5.365-1.125-2.449-1.195-3.727-.236-4.32 1.24-.767 2.086-4.847 1.752-8.452-.077-.803-1.656-1.636-3.53-1.852-2.846-.326-3.479-1.056-3.799-4.398-.244-2.501-1.465-4.016-2.488-4.092zm205.679-7.254c-.639.107-1.124 1.139-1.124 3.01 0 1.7-.565 3.086-1.242 3.086-.686 0-1.24.923-1.24 2.046 0 1.814.313 1.765 2.786-.308 1.536-1.286 2.994-2.46 3.226-2.588.231-.124.064-1.367-.392-2.778-.569-1.776-1.374-2.577-2.014-2.468zm-295.892-2.546c-1.024 0-1.854.554-1.854 1.234 0 .679.83 1.234 1.854 1.234 1.023 0 1.868-.555 1.868-1.234 0-.68-.845-1.234-1.868-1.234zm-27.888-2.24c.358-.017.729.089 1.087.308.743.456 1.355 1.925 1.355 3.242 0 2.868-3.465 3.183-4.533.424-.722-1.886.557-3.908 2.091-3.974zm284.649-1.467c-2.11 0-2.215 1.467-.275 3.395.786.788 1.9 1.146 2.443.812 1.503-.924-.204-4.207-2.168-4.207zm-274.567-1.235c1.809 0 2.32.542 1.783 1.932-.409 1.071-.736 2.183-.736 2.47 0 1.061-3.606.488-4.342-.694-1.166-1.882.447-3.708 3.295-3.708zm290.222-1.116c-.825.095-1.241 1.089-1.241 2.93a5.03 5.03 0 01-2.68 4.438l-2.712 1.43 3.034 2.314c3.567 2.735 2.774 2.576 6.624 1.12 3.954-1.497 4.293-6.309.704-9.881-1.664-1.652-2.905-2.448-3.729-2.351zm-169.298-1.198c-3.261-.076-4.707.542-6.394 2.432-1.773 1.982-1.978 2.835-.82 3.24 1.107.384 1.349 1.88.78 4.9-.576 3.067-.319 4.68.896 5.44 2.52 1.591 4.804 1.355 4.804-.498 0-.895 1.86-2.543 4.149-3.628 3.749-1.779 4.132-2.441 3.878-6.714-.282-4.679-.358-4.732-5.776-5.094a32.874 32.874 0 00-1.517-.078zm15.133-.696c-1.19.096-1.381.949-.16 2.16 1.209 1.2 4.153 1.006 4.153-.27 0-.598-1.114-1.381-2.483-1.734-.614-.159-1.113-.189-1.51-.156zm126.862-.694a1.24 1.24 0 011.238 1.234 1.24 1.24 0 01-2.48 0c0-.676.561-1.234 1.242-1.234zm-24.359-3.704c2.444 0 3.404 3.173 2.021 6.79-.652 1.693-2.11 3.086-3.223 3.086-1.336 0-1.778-.676-1.279-1.966.414-1.075.78-3.295.78-4.941 0-1.728.702-2.969 1.701-2.969zm-189.387-.81c-.512.038-1.152.18-1.938.384-1.503.392-2.431 1.174-2.053 1.776.934 1.511 3.926 1.364 4.925-.233.875-1.413.588-2.039-.934-1.927zm277.121-.31c-.83.064-1.418 1.241-1.931 3.59-.454 2.043-1.943 4.296-3.3 5.014-1.766.942-2.11 1.728-1.202 2.82.696.833 1.675 3.86 2.136 6.714.755 4.729.583 5.208-1.83 5.208-2.903 0-3.646 3.43-1.24 5.83 1.061 1.05 1.988.747 3.646-1.276 2.034-2.47 2.29-2.513 3.069-.538 1.191 3.049-.301 6.25-2.519 5.4-3.018-1.148-2.155.9 1.893 4.439 2.379 2.078 4.566 3.029 5.898 2.545 1.891-.684 1.879-.49-.154 1.814-2.215 2.511-2.18 2.653.459 5.289 2.374 2.358 2.54 3.116 1.247 5.942l-1.515 3.24-1.548-2.892c-2.443-4.535-3.511.026-1.126 4.786 1.778 3.553 2.022 3.668 3.532 1.62 1.555-2.117 1.751-2.106 4.303.194 2.284 2.056 2.848 2.119 3.876.58 3.232-4.829 3.577-6.069 2.444-9.032-.85-2.243-.722-3.458.506-4.477 1.413-1.167 1.394-1.88 0-4.552-1.029-1.974-1.24-3.975-.582-5.21 5.532-10.42 7.553-18.153 5.314-20.379-.492-.489-.908-2.096-.934-3.589-.024-2.086-.689-2.609-2.827-2.313-2.724.376-11.871-5.055-15.132-8.953-1.037-1.254-1.831-1.86-2.483-1.814zm-285.345-4.748c-.475-.031-1.242.192-2.443.504-2.967.773-3.66 3.524-1.163 4.553 2.992 1.228 5.281.101 4.846-2.355-.339-1.954-.435-2.648-1.24-2.702zm-117.867-.308c.162.034.339.14.475.27.282.287-.29 1.585-1.28 2.895-1.592 2.088-1.83 2.141-1.867.308-.033-1.791 1.572-3.719 2.672-3.473zm25.835-2.238c1.183-.051 1.158 1.085.078 3.897-1.261 3.298-3.065 4.215-4.346 2.161-1.02-1.653.448-4.781 2.676-5.634.684-.262 1.202-.407 1.592-.424zm204.982-3.935c-2.469.134-2.712.982-3.372 5.941-.722 5.393-1.24 6.16-5.039 7.524-6.423 2.31-5.353 5.692 2.635 8.489 4.996 1.75 6.536 1.761 7.099.08.354-1.059 1.114-1.059 3.104 0 3.844 2.046 10.328 1.743 12.958-.616 2.98-2.686 2.917-3.085-1.439-7.991-2.042-2.297-3.474-4.83-3.179-5.633.295-.817-1.016-1.807-2.987-2.239-2.027-.442-3.794-1.785-4.151-3.163-.449-1.718-1.701-2.392-4.427-2.392-.447 0-.844-.02-1.202 0zm-179.685-.811c-.186-.03-.352.413-.392 1.31-.05 1.301.244 2.034.66 1.623.415-.411.48-1.464.121-2.355-.154-.369-.281-.563-.39-.578zm208.039-1.659c-1.445 0-2.287.554-1.866 1.235.421.678 1.268 1.235 1.866 1.235.602 0 1.435-.557 1.856-1.235.423-.681-.408-1.235-1.856-1.235zm-136.759-.735c-.543-.009-1.195.067-1.974.27-3.379.879-3.679 2.935-.432 2.935 1.294 0 2.676.833 3.072 1.851 1.164 3.036 3.544 2.189 2.596-.926-.906-2.988-1.63-4.101-3.262-4.13zm238.169-.194c.857-.22 2.087.5 2.559 1.932.274.804-.39 1.467-1.47 1.467a1.989 1.989 0 01-1.977-1.971c0-.817.376-1.295.888-1.428zm3.884-5.052c.084 0 .178.005.273.038.731.24 1.357.972 1.357 1.618 0 .647-.626 1.341-1.357 1.582-.741.246-1.324-.448-1.324-1.582 0-.988.442-1.667 1.051-1.656zm-39.291-.888c1.636.008 2.583 7.643 1.087 10.418-.769 1.428-1.919 2.624-2.519 2.624-.602 0-1.844.258-2.757.579-2.182.771-5.967-1.514-5.967-3.589 0-3.026 3.656-5.037 6.241-3.436 1.919 1.196 2.417 1.018 3.059-1.002.427-1.335.434-2.951.036-3.59-.395-.637-.153-1.487.513-1.89.113-.071.197-.118.307-.114zm-86.067-1.586c-.6-.005-1.047.672-1.047 1.662 0 1.132.588 1.826 1.322 1.582.736-.242 1.357-.936 1.357-1.582 0-.647-.621-1.378-1.357-1.62a.853.853 0 00-.275-.038v-.004zm-59.61-2.35c-.422.015-.824.24-1.202.618-1.318 1.31-5.885 13.268-5.973 15.624-.02.632 1.355-.138 3.068-1.733 1.703-1.597 3.099-3.676 3.099-4.595 0-.917 1.398-2.171 3.107-2.816 3.761-1.423 3.875-2.627.575-5.598-1.139-1.029-1.957-1.53-2.674-1.5zm-104.985-2.626c.78-.069 1.944.341 2.789 1.04.972.803 2.903 1.098 4.304.66 2.284-.722 2.559-.296 2.559 4.244 0 3.704-.583 5.267-2.168 5.826-1.197.42-3.013 1.495-4.037 2.356-2.29 1.917-11.172 3.664-11.172 2.198.01-2.38 6.153-15.869 7.411-16.286.097-.029.2-.029.314-.038zm91.996-1.39c-1.275-.015-4.153 6.081-4.153 8.802 0 1.381 2.801 1.332 6.635-.12 2.423-.915 2.935-1.774 2.366-4.01-.762-3.002-2.47-4.641-4.848-4.672zm133.574-1.118c.812-.017 1.586.436 2.948 1.426 1.357.99 1.869 2.371 1.357 3.708-1.037 2.679-5.918 2.778-8.112.152-1.405-1.688-1.304-2.243.705-3.704 1.445-1.056 2.289-1.561 3.095-1.582h.007zm-25.872-.886c-.672-.03-1.268.043-1.627.266-.574.357-.739 1.184-.351 1.818.91 1.459 6.788 1.492 6.788.038 0-.994-2.791-2.041-4.81-2.122zm32.466-6.638c3.095 0 7.599 4.337 6.435 6.21-.96 1.548-1.778 1.432-5.859-.77-4.163-2.254-4.504-5.44-.576-5.44zm-188.108-2.242c.327.026.344.667.344 1.892 0 1.38.355 4.248.783 6.37.498 2.49.28 3.856-.628 3.856-.767 0-1.393-1.21-1.393-2.66 0-1.454-.87-3.275-1.94-4.054-1.733-1.26-1.663-1.648.621-3.704 1.253-1.132 1.881-1.724 2.213-1.7zm-78.465-1.466c2.315 0 2.315 1.42.038 6.832-1.759 4.201-3.558 5.355-4.925 3.162-1.113-1.802 2.89-9.994 4.887-9.994zm48.719-6.172c1.376 0 .416 7.178-1.087 8.104-.609.369-1.081 2.323-1.081 4.32 0 3.221-.434 3.628-3.768 3.628-4.957 0-5.66-2.371-2.52-8.49 2.36-4.6 5.661-7.562 8.456-7.562zm167.082-3.32c.448-.086.782.186.782.695 0 .68-.565 1.587-1.242 2.007-.69.42-1.247.179-1.247-.503 0-.677.557-1.546 1.247-1.966.167-.106.315-.205.46-.233zm42.395-5.132c.332-.012.663.025 1.009.156 2.688 1.023 2.622 5.72-.122 7.793-2.065 1.561-2.065 1.661 0 1.699 2.526.044 2.956 4.05.621 5.864-2.36 1.839-7.049 2.723-7.828 1.466-.384-.614-1.818-1.116-3.185-1.116-1.369 0-2.15-.547-1.746-1.196.401-.653 1.605-.834 2.678-.428 2.471.946 4.12-1.644 4.146-6.48.026-4.234 2.098-7.66 4.427-7.757zm-164.022-.155c.915-.113 1.945.493 2.482 1.892.411 1.073.774 2.186.774 2.47 0 .283-1.12.541-2.48.541-1.658 0-2.483-.826-2.483-2.473 0-1.463.787-2.316 1.707-2.43zm266.44-3.01c-1.016-.099-1.804.45-3.057 1.698-2.917 2.899-5.091 16.155-2.88 17.519.807.49 1.459 2.003 1.478 3.358.021 1.359 2.196 4.734 4.812 7.486 2.616 2.754 4.918 5.02 5.121 5.02.199 0 2.418-.876 4.963-1.932 4.415-1.836 4.586-2.122 3.84-6.482-.435-2.512-.922-6.602-1.088-9.108-.346-5.17-6.358-14.37-10.938-16.711-.934-.476-1.637-.79-2.251-.848zm-110.69-7.95c.64-.106 1.567.697 3.263 2.278 1.7 1.592 3.095 4.17 3.095 5.751 0 3.547-1.204 3.602-5.464.27-2.481-1.942-3.095-3.264-2.481-5.251.602-1.956.947-2.942 1.587-3.048zM200.53 77.138c-.961.086-1.792.469-2.251 1.197-1.088 1.749 2.167 8.643 4.079 8.643.858 0 1.548.555 1.548 1.234 0 1.613-3.34 1.582-4.344-.038-1.348-2.174-3.101.024-3.101 3.897 0 2.046-.832 4.532-1.869 5.556-2.059 2.058-1.259 4.67 1.164 3.744.853-.324 2.342-.104 3.302.504.96.604 2.084 1.108 2.519 1.116 1.017.026 2.291-4.654 2.329-8.604.019-2.309 1.31-3.818 5.116-5.982l5.078-2.895-3.563-2.16c-1.95-1.184-4.303-3.078-5.236-4.206-1.191-1.434-3.167-2.152-4.771-2.006zm89.824-2.164c-.997-.035-2.175.64-3.492 2.046-1.945 2.089-2.339 3.638-1.739 6.831.652 3.464.36 4.274-1.745 4.94-1.388.438-2.528 1.698-2.528 2.776 0 1.775-.205 1.76-2.169.04-1.195-1.047-3.843-2.265-5.888-2.702l-3.723-.77.344 8.376c.416 9.533 3.429 16.73 6.55 15.743 1.101-.347 2.989.483 4.234 1.852 3.25 3.573 6.865 3.28 6.865-.579 0-1.7.447-3.086 1.003-3.086.562 0 2.238 1.386 3.723 3.086 1.482 1.699 3.972 3.077 5.511 3.086 1.536.01 3.634.576 4.657 1.236 1.025.657 3.116 1.185 4.652 1.196 3.498.024 3.869-4.405.466-5.48-2.047-.646-2.239-1.709-1.708-9.145.551-7.653.351-8.668-2.283-11.115-1.598-1.48-3.99-2.543-5.323-2.354-2.507.357-2.616.1-4.029-9.957-.556-3.945-1.715-5.96-3.378-6.02zm14.086-.346c-.686 0-1.241 1.424-1.241 3.165 0 1.792.538 2.827 1.241 2.394.678-.42 1.242-1.849 1.242-3.168 0-1.317-.564-2.391-1.242-2.391zm-7.063-6.02c-1.124-.038-1.623.652-1.623 2.198 0 1.769.781 2.588 2.559 2.588 3.173 0 2.801-4.09-.435-4.707-.179-.038-.339-.072-.501-.08zm-16.794 0a36.265 36.265 0 00-2.521.08c-7.444.425-8.807 2.554-5.041 7.754 3.07 4.239 6.692 3.529 9.307-1.814 1.171-2.377 2.143-4.78 2.169-5.324.026-.41-1.587-.677-3.914-.696zM94.955 66.294c-.716.03-1.803.64-3.058 1.89l-2.717 2.74h2.794c1.536 0 3.12-.881 3.531-1.932.69-1.81.378-2.74-.55-2.698zm226.771-2.82c-1.624-.137-1.433 1.42.23 4.672 2.098 4.091 2.169 4.773.505 5.981-1.49 1.082-1.745 3.036-1.157 9.454.396 4.456.217 9.072-.435 10.228-.773 1.381-.612 4.852.511 10.184 1.352 6.432 1.376 8.319.155 9.07-.851.521-1.139 1.305-.666 1.776.482.472 1.715.164 2.757-.694 1.599-1.319 1.9-1.141 1.9 1.158 0 2.352.485 2.641 3.569 1.966 2.698-.589 3.774-.277 4.388 1.314.92 2.393-1.42 10.38-3.033 10.38-.582 0-1.214 1.528-1.431 3.395-.32 2.727-.941 3.322-3.185 3.01-1.869-.257-2.791.251-2.791 1.546 0 1.059.884 1.928 1.983 1.928 1.202 0 1.716.687 1.319 1.738-.371.954.421 2.709 1.74 3.894 1.316 1.191 2.404 3.498 2.404 5.136 0 3.16 1.856 7.287 4.425 9.838.86.853 1.806 2.267 2.093 3.126.774 2.293 4.182-.798 5.16-4.668.948-3.765 5.578-4.111 8.725-.656 3.095 3.404 2.034 6.947-2.021 6.675-2.327-.155-3.523.539-4.182 2.47-1.548 4.532-1.357 4.914 4.265 8.18 2.999 1.745 7.042 3.211 8.961 3.282 3.173.118 3.403-.175 2.751-3.396-.691-3.439 1.151-7.216 3.529-7.216.635 0 1.99 1.944 2.989 4.321.996 2.378 2.609 4.325 3.561 4.325 2.943 0 5.667-1.44 5.667-2.974 0-.804 1.108-3.645 2.482-6.328 1.377-2.686 2.239-5.602 1.905-6.485-.344-.881.327-1.989 1.512-2.43 1.174-.44 2.724-1.468 3.413-2.314.679-.85 2.917-1.717 4.965-1.932 2.435-.251 4.118-1.342 4.925-3.162 1.689-3.838 8.437-3.864 11.128-.038 2.227 3.16 2.334 2.835 1.983-6.794-.153-4.064.365-7.914 1.204-8.912.798-.968 1.099-2.311.69-2.972-.408-.661.371-1.973 1.752-2.934 2.469-1.722 2.475-1.769.115-3.898-1.388-1.244-3.37-1.845-4.693-1.429-2.483.785-11.501-5.747-11.52-8.334-.019-2.218-10.389-12.492-10.938-10.844-.268.793.269 2.326 1.158 3.396 1.369 1.635 1.254 2.22-.729 3.666-1.305.945-2.79 1.736-3.262 1.736-.475 0-1.101 1.035-1.433 2.317-.461 1.762-1.439 2.171-3.914 1.697-1.802-.341-3.589-1.099-3.961-1.697-.376-.598-1.63-1.081-2.794-1.081-1.164 0-4.062-1.302-6.433-2.896-2.381-1.592-5.708-3.245-7.407-3.666-4.182-1.028-6.679-5.113-5.009-8.218 1.848-3.434 1.592-4.637-1.202-5.366-1.363-.353-2.475-1.642-2.482-2.892-.006-1.253-1.127-3.946-2.482-5.982-1.355-2.037-2.476-4.952-2.481-6.447-.014-2.885-3.985-6.274-13.885-11.884-3.674-2.077-6.026-3.21-7.293-3.32zM157.359 57.34c-1.381.012-4.95 1.68-7.955 3.704-3.007 2.027-5.968 3.704-6.587 3.704-.628 0-.846.973-.475 2.164.372 1.187.269 2.762-.23 3.508-1.484 2.238-6.409 4.357-8.686 3.747-9.044-2.431-9.146-2.381-8.378 1.965 1.041 5.92-.845 11.378-4.068 11.848-2.892.422-7.688 5.644-7.688 8.373 0 .918-1.612 4.328-3.601 7.564-3.961 6.451-5.175 12.677-2.987 15.322.767.933 1.585 2.793 1.823 4.13.364 2.052-.532 2.552-5.737 3.319-8.2 1.203-10.9-.761-6.21-4.477 2.844-2.256 3.171-3.163 2.45-7.022l-.858-4.478-4.887 1.928c-3.09 1.206-5.347 1.475-6.09.736-1.713-1.705-1.713-8.556 0-18.18.82-4.635 1.192-8.728.814-9.106-1.388-1.38-9.255 3.427-12.492 7.64-4.057 5.295-5.66 5.517-5.66.736 0-3.493-.173-3.605-4.652-2.936-4.873.733-12.727 6.896-12.727 9.996 0 .949-1.023 2.615-2.282 3.744-1.269 1.127-2.963 4.398-3.768 7.256-.795 2.854-2.763 6.746-4.337 8.642-3.224 3.879-4.842 6.866-11.052 20.146-2.392 5.094-4.733 11.41-5.207 14.048-.768 4.311-.588 4.683 1.439 3.856 5.104-2.077 6.005-1.485 5.584 3.669-.217 2.709-.518 5.07-.66 5.21-.133.137-2.308-.214-4.802-.774-5.226-1.171-5.431-.957-6.717 8.684-.683 5.146-.511 6.266.896 5.788.999-.337 1.752-2.238 1.74-4.478-.013-4.948 3.825-5.422 5.629-.694 1.016 2.668.689 3.803-1.907 6.872-1.713 2.027-3.096 4.689-3.096 5.902 0 1.215-1.17 3.671-2.596 5.482-2.162 2.72-2.482 4.418-1.906 9.762.384 3.544.671 8.804.666 11.69-.014 4.471.357 5.251 2.519 5.251 2.891 0 3.6 4.634 1.08 7.14-1.145 1.139-.33 1.947 3.691 3.628 3.172 1.324 5.22 3.006 5.231 4.282.014 1.149.5 2.378 1.09 2.74.587.363.805 1.982.497 3.59-.409 2.167.46 3.783 3.453 6.29 3.801 3.179 4.16 4.166 6.012 17.17l1.983 13.817 5.271.346c4.132.3 5.271.904 5.271 2.664 0 1.238.755 2.835 1.677 3.59.906.753 2.315 3.603 3.131 6.328 1.101 3.643 2.163 4.979 4.005 4.979 2.573 0 8.456 5.657 8.533 8.219.076 2.99 8.353 10.303 11.665 10.303 3.596 0 3.852-.754 2.024-5.557-.922-2.417-.755-4.153.657-6.868 2.143-4.118 3.984-4.643 5.162-1.466.434 1.187 2.117 3.389 3.722 4.9 2.175 2.052 2.718 3.541 2.13 5.867-.486 1.928-.268 3.124.582 3.124.755 0 1.395-.578 1.395-1.272 0-.694 1.408-1.916 3.147-2.702 1.726-.786 2.899-2.011 2.596-2.74a270.28 270.28 0 01-1.317-3.242c-1.037-2.553 7.343-6.189 12.064-5.248 3.171.632 3.389.405 3.133-2.895-.6-7.922 4.17-8.788 10.822-1.97 4.041 4.137 5.36 4.698 12.179 5.252 7.317.591 7.644.74 8.032 4.129.25 2.183 1.294 3.758 2.714 4.127 3.07.799 3.978 3.555 1.783 5.365-2.679 2.214-7.117.5-9.613-3.704-2.533-4.26-5.821-4.976-5.821-1.275 0 1.358.511 2.471 1.127 2.471.613 0 1.714 1.703 2.443 3.78 1.854 5.302-.294 8.144-7.568 9.996l-5.928 1.504v5.83c0 3.21-.358 6.71-.779 7.794-.5 1.298.824 3.429 3.837 6.174 3.031 2.757 4.094 4.471 3.147 5.057-.986.603-.37 2.001 1.975 4.435 3.961 4.109 5.232 4.36 7.33 1.506 1.62-2.199 2.112-2.036 9.933 2.701l4.965 3.01.613-3.357c.539-2.816 1.191-3.303 4.037-2.97 1.874.218 3.408-.217 3.408-.966 0-.744 1.465-1.906 3.262-2.586 3.121-1.181 3.16-1.347 1.125-3.586-3.056-3.367-1.936-6.574 2.75-7.914 2.213-.63 4.036-1.532 4.036-2.004 0-1.935-5.307-5.468-8.294-5.522-2.361-.041-3.838-1.176-5.553-4.358-1.278-2.378-3.479-5.21-4.924-6.292-3.427-2.577-2.38-5.914 3.914-12.311 3.108-3.152 5.961-4.862 7.995-4.862 3.5 0 4.351-3.001 1.202-4.206-1.279-.485-1.707-1.584-1.202-3.162.499-1.563-.141-3.304-1.783-4.938-1.402-1.395-2.528-3.346-2.528-4.364 0-2.096-1.938-2.485-3.096-.616-1.15 1.845-4.35 1.473-4.35-.504 0-.945-.869-2.061-1.93-2.47-1.145-.436-1.785-1.845-1.561-3.432.435-2.979-5.207-7.083-10.464-7.643-4.312-.456-5.897-1.849-5.897-5.055 0-1.831-.896-3.098-2.482-3.511-3.307-.859-3.608-7.417-.313-6.791 1.195.225 2.353 1.581 2.564 3.01.365 2.552 5.718 5.956 7.56 4.824.512-.322.691-2.231.385-4.285-.359-2.418.396-5.359 2.136-8.296 2.301-3.888 2.494-5.018 1.24-8.028-1.847-4.44-5.52-4.891-4.425-.542 1.023 4.03-.218 6.908-3.018 6.908-2.125 0-4.889-3.308-4.889-5.864 0-1.362 3.647-5.163 7.907-8.218 2.392-1.715 2.929-2.762 1.983-3.898-1.573-1.886-6.25-.857-8.265 1.812-1.143 1.522-1.79 1.631-2.98.463-1.12-1.091-1.164-1.925-.16-3.125.774-.919.915-2.364.351-3.28-1.452-2.336-6.279.461-6.279 3.627 0 2.655-1.85 3.252-3.226 1.042-.586-.952-1.202-.759-1.974.619-.621 1.104-1.957 2.005-2.95 2.005-.99 0-1.783.519-1.783 1.157 0 .641-2.925.92-6.48.656-3.558-.264-7.138.106-7.943.774-1.037.848-2.253.225-4.083-2.084-1.432-1.817-2.596-4.02-2.596-4.862 0-.844-.812-2.215-1.816-3.049-1.395-1.148-1.536-2.105-.55-3.936 1.817-3.367-.692-6.188-4.613-5.212-3.613.904-3.817-.697-.464-3.548 2.569-2.191 3.312-4.594 1.393-4.594-.602 0-.986-1.805-.812-4.014.236-3.025.991-4.138 2.987-4.434 3.288-.493 3.319-2.231.153-6.988-1.357-2.037-2.474-5.315-2.48-7.255 0-2.285-1.095-4.369-3.104-5.941-3.561-2.788-3.855-4.348-1.317-7.139 2.513-2.766-.134-8.068-4.038-8.068-1.532 0-3.312-.832-3.95-1.852-1.216-1.935-.92-2.046-8.495 2.626-1.395.855-4.08 1.059-6.87.54l-4.616-.848.626-7.332c.318-4.031 1.445-8.554 2.519-10.074 1.068-1.518 1.938-3.977 1.938-5.442 0-1.462.838-3.321 1.863-4.167 2.32-1.917 2.327-4.618.076-8.913-1.504-2.868-1.471-3.539.037-4.785 1.395-1.15 1.747-1.01 1.747.578 0 1.18 1.017 2.007 2.482 2.007 2.604 0 3.62-4.372 1.202-5.173-1.862-.615.012-8.414 2.014-8.414 1.216 0 1.484 1.047.936 3.784-.756 3.773-.756 3.794 3.645 2.972 4.171-.779 4.425-.615 4.81 2.702.236 2.049 1.202 3.556 2.29 3.628 1.022.065 3.083.202 4.58.308 3.388.235 4.566 3.693 4.258 12.54-.204 5.947-.741 7.165-4.106 9.956-3.73 3.093-3.76 3.297-1.79 6.291 1.124 1.7 3.44 3.831 5.16 4.748 2.067 1.097 3.027 2.563 2.796 4.244-.28 2.065.473 2.664 3.992 3.162 3.965.565 4.502 1.165 6.28 6.794 1.541 4.846 2.623 6.266 4.925 6.6 3.62.526 6.012-2.479 5.245-6.524-.409-2.096.191-3.484 1.97-4.59 3.141-1.947 1.376-4.748-2.98-4.748-1.586 0-3.225-.554-3.646-1.234-.461-.746 1.22-1.236 4.259-1.236 4.836 0 6.523-1.443 3.729-3.162-.869-.535-.621-1.598.736-3.089 2.352-2.588 1.489-4.862-1.823-4.862-1.632 0-2.437-1.29-2.987-4.63-.8-4.911.973-8.369 2.789-5.442 1.771 2.845 6.325-.518 6.325-4.67 0-1.93.812-4.175 1.823-5.016 1.522-1.253 2.622-.852 6.205 2.276 3.492 3.051 4.937 3.605 7.176 2.74 2.865-1.106 2.982-1.551 1.47-5.401-.638-1.658-.165-2.414 1.83-2.933 3.276-.854 2.712-3.476-.743-3.476-3.543 0-6.587-2.915-6.587-6.286 0-2.069-.536-2.709-1.867-2.202-1.202.46-1.854-.017-1.854-1.388 0-1.458.607-1.887 2.007-1.352 2.188.834 7.049-2.622 6.012-4.284-1.484-2.388 2.272-2.316 5.706.114 4.144 2.938 4.272 5.712.23 5.134-1.408-.201-2.942.251-3.408 1.006-1.145 1.841 1.745 8.64 3.682 8.64 2.349 0 8.104-4.908 8.104-6.906 0-2.928 4.9-2.004 6.359 1.196 1.483 3.23 6.787 6.274 7.879 4.516 1.152-1.859-.254-17.502-1.706-18.946-1.806-1.795-1.747-7.873.076-8.993.793-.487 2.162.166 3.064 1.467.895 1.292 2.251 3.049 3.026 3.936.773.888 1.091 2.832.733 4.322-.914 3.796 2.098 14.515 4.58 16.322 1.138.828 2.055 2.2 2.055 3.086 0 3.1 1.553.03 2.442-4.822.812-4.436.576-5.123-2.634-7.487-3.961-2.908-4.453-6.135-1.632-10.418 2.078-3.154.907-8.518-2.137-9.838-1.215-.532-1.055-1.096.704-2.278 6.384-4.293 8.596-6.83 7.79-8.918-.677-1.762-1.714-1.992-5.775-1.31-4.817.812-4.964.703-4.964-2.702 0-8.415-14.831-26.38-21.715-26.317" fill="url(#paint3_linear_4571_4893)"/></g><defs><linearGradient id="paint0_linear_4571_4893" x1="47.424" y1="488.957" x2="583.857" y2="147.016" gradientUnits="userSpaceOnUse"><stop stop-color="#000832"/><stop offset=".312" stop-color="#3B72A9"/><stop offset=".788" stop-color="#E5F4FA"/><stop offset=".93" stop-color="#86B2D4"/><stop offset="1" stop-color="#051E55"/></linearGradient><linearGradient id="paint1_linear_4571_4893" x1="0" y1="257.274" x2="511.991" y2="257.274" gradientUnits="userSpaceOnUse"><stop stop-color="#000832"/><stop offset=".312" stop-color="#3B72A9"/><stop offset=".788" stop-color="#E5F4FA"/><stop offset=".93" stop-color="#86B2D4"/><stop offset="1" stop-color="#051E55"/></linearGradient><linearGradient id="paint2_linear_4571_4893" x1="3.203" y1="280.173" x2="508.79" y2="280.173" gradientUnits="userSpaceOnUse"><stop stop-color="#000832"/><stop offset=".275" stop-color="#3B72A9"/><stop offset=".576" stop-color="#E5F4FA"/><stop offset=".904" stop-color="#86B2D4"/><stop offset="1" stop-color="#051E55"/></linearGradient><linearGradient id="paint3_linear_4571_4893" x1="19.2" y1="255.117" x2="492.784" y2="255.117" gradientUnits="userSpaceOnUse"><stop stop-color="#000832"/><stop offset=".275" stop-color="#3B72A9"/><stop offset=".576" stop-color="#E5F4FA"/><stop offset=".904" stop-color="#86B2D4"/><stop offset="1" stop-color="#051E55"/></linearGradient><clipPath id="clip0_4571_4893"><path fill="#fff" d="M0 0h512v512H0z"/></clipPath></defs></svg>