<svg width="512" height="512" viewBox="0 0 512 512" fill="none" xmlns="http://www.w3.org/2000/svg"><g clip-path="url(#clip0_4563_4481)"><path d="M166.92 19.521c51.24-19.16 108.48-20.96 161.24-7.12 64.16 17.08 118.16 62.96 151.44 119.68 20.08 34.4 29.6 74 32.4 113.44v23.96c-3.8 46.12-17.16 92.16-44.68 129.88-45.68 65.4-122.36 110.84-203.24 109.4-58.6 2.76-117.64-17.04-162.84-54.48 1.68-1.2 5.08-3.68 6.76-4.88 8.92 6.52 17.8 13.12 27.28 18.8 31.12 18.64 66.64 30.4 102.96 32.4 25.84.6 52.08 1.04 77.36-5.4 65.2-14.8 121.04-60 155.16-116.68 16.52-27.2 26.72-58.08 30.4-89.6 1.24-10.88 2.12-21.84 2.36-32.8-.8-12.76-1.8-25.56-3.04-38.28-27.2 3.6-53.36 12.44-78.2 23.92 4.36-25.84 2.08-52.72-5.6-77.72-4.92-19.2-21.2-34.32-40.2-39.4 12.8-12.92 33.08-32.48 19.6-51.52 4.12-2.88 8.28-5.8 12.4-8.68-20.92-17.56-45-31.84-71.2-39.84-64-20.24-136.92-16.64-196.16 16.2-42 22.68-75.2 59.32-98.88 100.32-15.12 26.16-21.6 56.04-25.8 85.64-1.52 9.28-2.08 18.64-2.16 28.04.12 9.68.6 19.36 1.48 29 4.68 56 31.84 108.84 72.16 147.6-2.36 1.56-4.76 3.08-7.16 4.56-33-32.52-57.88-73.92-68.28-119.28-13.68-59.48-7.28-124.28 21.6-178.44 29.2-52.92 75.96-97 132.84-118.72z" fill="#06067D"/><path d="M141.118 40.8c59.24-32.84 132.16-36.44 196.16-16.2-43.92 21.68-90.36 37.24-134.76 57.72-21.68 9.32-44.68 15.4-65.68 26.32-18.16 9.48-37.96 15.12-56.52 23.68-11.24 4.8-22.24 10.72-34.24 13.36-.96-1.12-2.88-3.4-3.84-4.56 23.68-41 56.88-77.64 98.88-100.32z" fill="#272793"/><path d="M337.281 24.602c26.2 8 50.28 22.28 71.2 39.84-4.12 2.88-8.28 5.8-12.4 8.68-18.28-17.96-46.68-10.36-66.96-.16-22.08 10.76-34.76 33.04-45 54.28-5.88.32-11.96.44-17.36 3.12-50.2 22.68-101.92 41.92-152.6 63.4-14.8 7.04-30.56 11.6-46.08 16.64 4.24 1.56 8.56 3.04 12.88 4.44-8.52 1.2-17 2.8-25.52 4.32-13.16 1.68-26.16 4.28-39 7.6 4.2-29.6 10.68-59.48 25.8-85.64.96 1.16 2.88 3.44 3.84 4.56 12-2.64 23-8.56 34.24-13.36 18.56-8.56 38.36-14.2 56.52-23.68 21-10.92 44-17 65.68-26.32 44.4-20.48 90.84-36.04 134.76-57.72z" fill="#1B1B8B"/><path d="M306.562 102.322c14.84-20.44 40-33.24 65.36-31.92 7.76 0 15.76 3.44 20.28 9.96 4.32 16.72-11.32 29.4-21.2 40.68.72 2.64 2.2 7.92 2.96 10.56-4.6-.16-9.16-.8-13.68-1.6-1.4-11.56 7-19.16 13.68-27.24 5.16-5.96 9.04-12.88 10.56-20.68l-.48-.28c-11.44-8.76-27.28-4.12-39.68.04-24.24 8.32-38.52 31.84-48.24 54.16-13.68 31.16-18.44 65.12-30.76 96.72-7.68 9.6-11.04 21.64-16.52 32.48-13.84 28.76-29.64 56.92-50.08 81.6-9.68 12.72-21.4 23.8-30.6 36.92 16.96-7.36 31.96-18.36 47.92-27.56 30.56-17.92 60.12-38.44 83.12-65.72l1.36 3.88c-4.24 8.52-10.16 16.44-11.56 26.08 4.96 2.48 9.88 4.92 14.88 7.36-4.76 3.56-9.56 7.08-14.36 10.56.92-9.4-.24-18.68-4.76-27.04-14.24 16.24-33.24 26.8-51.24 38.24-5.56 3.52-5.96 11.08-8.68 16.48-4.8.36-9.56-.12-14.32-.4-4.04 4.12-8.12 8.2-12.32 12.16-13.56-.28-22.4 11.68-33.68 17.36-3.24 2.48-5.92 5.6-8.64 8.64-43.96 35.2-91.08 74.32-148.96 81.12l3.4-3.16c85.48-33.32 154.64-99.16 204.96-174.6 24.32-36.64 43.68-76.8 55.16-119.32 8.16-29.84 17.92-60.08 36.12-85.48z" fill="#2388FF"/><path d="M344.359 81.84c12.4-4.16 28.24-8.8 39.68-.04-14.36 2.08-29.56.72-42.84 7.56-18.92 9.12-31.2 27.759-38.96 46.679-7.84 19.56-18.28 38.68-21.16 59.84-4.6 15.04-11.96 29.12-15.48 44.48-.08-1.88-.16-5.72-.24-7.64 12.32-31.6 17.08-65.56 30.76-96.72 9.72-22.32 24-45.84 48.24-54.16z" fill="#fff"/><path d="M384.038 81.8l.48.28c-1.52 7.8-5.4 14.72-10.56 20.681-26.6 4.6-45.36 27.56-71.72 33.28 7.76-18.92 20.04-37.56 38.96-46.68 13.28-6.84 28.48-5.48 42.84-7.56z" fill="#ACD5FF"/><path d="M302.238 136.042c26.36-5.72 45.12-28.68 71.72-33.28-6.68 8.08-15.08 15.68-13.68 27.24-6.6-.8-13.2-.48-19.8-.16-1.08 13.44-.44 27.04-2.72 40.36-18.2 9.88-35.2 24.32-56.68 25.68 2.88-21.16 13.32-40.28 21.16-59.84z" fill="#80BEFF"/><path d="M266.758 130.358c5.4-2.68 11.48-2.8 17.36-3.12-14.92 30.84-19.72 65.2-33.04 96.64-11.56 1.88-22.48 6.16-33.44 10.16-43.72-15.68-90.28-22.6-136.68-19.2-4.32-1.4-8.64-2.88-12.88-4.44 15.52-5.04 31.28-9.6 46.08-16.64 50.68-21.48 102.4-40.72 152.6-63.4z" fill="#0E0E82"/><path d="M340.479 129.838c6.6-.32 13.2-.64 19.8.16 4.52.8 9.08 1.44 13.68 1.6 20.32 2.16 34.12 21.68 38.04 40.44 11.6 46.84 6.16 100.76-25.12 139.12-31.6 39.04-79.56 59.92-126.8 73.2-34.16 9.12-68.96 16.04-104.2 19.4 2.72-3.04 5.4-6.16 8.64-8.64 1.48.8 4.48 2.32 5.96 3.08 33.68-4.6 66.88-12.24 99.68-21.16 1.56-.48 4.64-1.44 6.2-1.92 6.08-1.96 12.12-4.08 18.08-6.36 3.92-1.64 7.88-3.32 11.72-5.12 5.24-2.44 10.4-4.92 15.56-7.48 3.68-1.88 7.32-3.88 10.96-5.88 7.32-4.08 14.64-8.28 21.2-13.56 2.76-2.24 5.52-4.56 8.24-6.92 9.56-8.72 19.52-17.44 26.28-28.64l1.12-1.76c8.56-13.56 16.72-27.92 19.36-43.96.12-.88.4-2.68.52-3.56 4.24-25.6 5.68-52.52-1.44-77.76-.24-.88-.68-2.6-.92-3.48-2.4-14.44-14.08-24.72-25.6-32.4-12.64-1.28-25.6.04-38.32.44 10.88 4.36 22.6 1.12 33.8 3 .32 1.76.96 5.28 1.24 7.04-9.64-1.04-19.48-3.64-29.12-1.32-.56 2.28-1.68 6.88-2.24 9.2-2.84 18.36-1.44 37.24-6.32 55.32-3.04 13.32-9.4 25.96-10 39.8-.24 11.72 2.92 23.08 5.04 34.52 5.72-.12 11.4-.32 17.12-.56-5.2 6.4-10.12 13-15.76 19-5.08-10.48-9.04-23.36-20.4-28.72-2.04 9.04-2.48 18.32-1.72 27.56 4.48 2.92 8.92 5.84 13.44 8.72-5.32 4.48-10.6 9-16.2 13.16-2.72-10.72-6.4-21.2-11.44-31.08l-1.36-3.88c9.36-12.96 17.84-26.56 24.52-41.08-27.28 17.28-54.68 34.84-83.88 48.64 6.52-20.16 21-36.8 25.76-57.64 3.52-15.36 10.88-29.44 15.48-44.48 21.48-1.36 38.48-15.8 56.68-25.68 2.28-13.32 1.64-26.92 2.72-40.36z" fill="#4DA1FF"/><path d="M343.121 138.681c12.72-.4 25.68-1.72 38.32-.44 11.52 7.68 23.2 17.96 25.6 32.4-8.16-.2-18.6 2-24.12-5.76-2.64-5.04-3.6-10.68-4.76-16.16-.28-1.76-.92-5.28-1.24-7.04-11.2-1.88-22.92 1.36-33.8-3z" fill="#C8E0F9"/><path d="M349.042 147.4c9.64-2.32 19.48.28 29.12 1.32 1.16 5.48 2.12 11.12 4.76 16.16 5.52 7.76 15.96 5.56 24.12 5.76.24.88.68 2.6.92 3.48-8.48-.32-16.96-.48-25.44-.56-4.96 18.72 12.44 29.6 26.12 37.68-8.88-1.92-17.72-4.04-26.6-5.8-.28 6.52-.4 13-.36 19.48 7.56 10.6 17.64 18.92 27.72 26.96-.12.88-.4 2.68-.52 3.56-10.32-6.84-20.64-16.04-33.56-16.64-6.88 21.56 9.4 40.48 14.2 60.6l-1.12 1.76c-8.04-9.48-16.36-18.72-25.28-27.44-2.68 2.92-5.28 5.88-7.88 8.88l-2.6 3.08c-5.72.24-11.4.44-17.12.56-2.12-11.44-5.28-22.8-5.04-34.52 12.6 3.84 22.72 12.28 32.64 20.52 1.04-4.36 2.08-8.72 3.04-13.08-16.8.88-32.16-17.92-22.88-33.48 12.48 2.44 24.28 7.24 36.52 10.64-2.88-12.16-17.32-11.6-25.68-18.16-6.96-3.28-4.8-12.12-6.24-18.24 12.44.08 24.64 2.8 37 4.04-6.84-13.4-25.08-8.48-34.6-18.56-.92-3.96-1.6-8-2.04-12.08 11.12-.92 22.28-.92 33.4-1.32-1.48-9.12-11.36-5.6-17.8-7.08-6.64-.16-11.84-4.8-17.04-8.32.56-2.32 1.68-6.92 2.24-9.2z" fill="#88BEF9"/><path d="M340.48 211.922c4.88-18.08 3.48-36.96 6.32-55.32 5.2 3.52 10.4 8.16 17.04 8.32 6.44 1.48 16.32-2.04 17.8 7.08-11.12.4-22.28.4-33.4 1.32.44 4.08 1.12 8.12 2.04 12.08 9.52 10.08 27.76 5.16 34.6 18.56-12.36-1.24-24.56-3.96-37-4.04 1.44 6.12-.72 14.96 6.24 18.24 8.36 6.56 22.8 6 25.68 18.16-12.24-3.4-24.04-8.2-36.52-10.64-9.28 15.56 6.08 34.36 22.88 33.48-.96 4.36-2 8.72-3.04 13.08-9.92-8.24-20.04-16.68-32.64-20.52.6-13.84 6.96-26.48 10-39.8z" fill="#50A0F8"/><path d="M408.641 211.239c-13.68-8.08-31.08-18.96-26.12-37.68 8.48.08 16.96.24 25.44.56 7.12 25.24 5.68 52.16 1.44 77.76-10.08-8.04-20.16-16.36-27.72-26.96-.04-6.48.08-12.96.36-19.48 8.88 1.76 17.72 3.88 26.6 5.8z" fill="#C5DEF9"/><path d="M55.441 219.159c8.52-1.52 17-3.12 25.52-4.32 46.4-3.4 92.96 3.52 136.68 19.2l-2.44.8c-28.6 9.2-60.12 7.8-88.6-1.24-22.72-8.64-46.64-15.08-71.16-14.44z" fill="#5454B7"/><path d="M16.441 226.761c12.84-3.32 25.84-5.92 39-7.6 24.52-.64 48.44 5.8 71.16 14.44 28.48 9.04 60 10.44 88.6 1.24 9.56 1.56 18.76 4.72 27.96 7.68-8.28 17.88-17.64 35.32-28.04 52.08-28.52-4.92-56.48-12.36-83.64-22.4-37-14.88-77.56-19.56-117.2-17.4.08-9.4.64-18.76 2.16-28.04z" fill="#8788FE"/><path d="M422.282 241.76c24.84-11.48 51-20.32 78.2-23.92 1.24 12.72 2.24 25.52 3.04 38.28-27.8-2.28-55.92-2.76-83.6.88 1-5.04 1.76-10.16 2.36-15.24z" fill="#8B8CFE"/><path d="M217.639 234.039c10.96-4 21.88-8.28 33.44-10.16-2.52 6.24-5.08 12.48-7.92 18.64-9.2-2.96-18.4-6.12-27.96-7.68l2.44-.8z" fill="#3F3FAB"/><path d="M248.84 265.199c5.48-10.84 8.84-22.88 16.52-32.48.08 1.92.16 5.76.24 7.64-4.76 20.84-19.24 37.48-25.76 57.64 29.2-13.8 56.6-31.36 83.88-48.64-6.68 14.52-15.16 28.12-24.52 41.08-23 27.28-52.56 47.8-83.12 65.72-15.96 9.2-30.96 20.2-47.92 27.56 9.2-13.12 20.92-24.2 30.6-36.92 20.44-24.68 36.24-52.84 50.08-81.6z" fill="#6EB4FF"/><path d="M375.319 238.801c12.92.6 23.24 9.8 33.56 16.64-2.64 16.04-10.8 30.4-19.36 43.96-4.8-20.12-21.08-39.04-14.2-60.6z" fill="#C2DDF9"/><path d="M14.281 254.8c39.64-2.16 80.2 2.52 117.2 17.4-23.24 7.48-46.48 17.04-71.32 16.92-15 .56-29.72-2.92-44.4-5.32-.88-9.64-1.36-19.32-1.48-29z" fill="#595AFD"/><path d="M419.921 256.998c27.68-3.64 55.8-3.16 83.6-.88-.24 10.96-1.12 21.92-2.36 32.8-28.88-3.68-55.04-17.32-83.52-22.6.56-2.32 1.68-7 2.28-9.32z" fill="#5252FE"/><path d="M285.361 383.64c57.24-18.68 114.68-56.52 132.28-117.32 28.48 5.28 54.64 18.92 83.52 22.6-3.68 31.52-13.88 62.4-30.4 89.6-19.36-1.16-33.68 13.96-49.64 22.44-34.04 18.92-67.44 39-101.16 58.52-26.88 14.4-52.44 31.76-81.72 41.12-36.32-2-71.84-13.76-102.96-32.4 44.04-17.52 81.44-47.6 123.92-68.12 9.52-4.2 21.6-5.6 26.16-16.44z" fill="#1D1DE3"/><path d="M131.482 272.199c27.16 10.04 55.12 17.48 83.64 22.4-33.84 52.6-76.32 100.12-127.2 136.8-40.32-38.76-67.48-91.6-72.16-147.6 14.68 2.4 29.4 5.88 44.4 5.32 24.84.12 48.08-9.44 71.32-16.92z" fill="#0202DE"/><path d="M316.479 275.961c11.36 5.36 15.32 18.24 20.4 28.72-.64.56-1.88 1.72-2.52 2.32l-3.48 3-2.68 2.24c-4.52-2.88-8.96-5.8-13.44-8.72-.76-9.24-.32-18.52 1.72-27.56z" fill="#7CB9F9"/><path d="M355.238 282.599c2.6-3 5.2-5.96 7.88-8.88 8.92 8.72 17.24 17.96 25.28 27.44-6.76 11.2-16.72 19.92-26.28 28.64-.52-15.96-3.4-31.68-6.88-47.2z" fill="#BFDBF9"/><path d="M352.639 285.682l2.6-3.08c3.48 15.52 6.36 31.24 6.88 47.2-2.72 2.36-5.48 4.68-8.24 6.92-5.52-10.52-11.92-20.6-19.52-29.72.64-.6 1.88-1.76 2.52-2.32 5.64-6 10.56-12.6 15.76-19z" fill="#A4CBF6"/><path d="M300.56 294.32c5.04 9.88 8.72 20.36 11.44 31.08 5.6-4.16 10.88-8.68 16.2-13.16l2.68-2.24c-.8 13.44-.04 26.96 1.8 40.28-3.64 2-7.28 4-10.96 5.88-3.4-10.2-6.72-20.68-13.12-29.48-3.88 11.96-4.36 24.64-2.44 36.96-3.84 1.8-7.8 3.48-11.72 5.12-1.16-9.48-2.8-18.92-6.84-27.64-8.04 9.52-10.52 21.88-11.24 34-1.56.48-4.64 1.44-6.2 1.92-.84-8.24-1.92-16.4-3.36-24.52-13.44 6.04-27.36 11-41.96 13.48 2.72-5.4 3.12-12.96 8.68-16.48 18-11.44 37-22 51.24-38.24 4.52 8.36 5.68 17.64 4.76 27.04 4.8-3.48 9.6-7 14.36-10.56-5-2.44-9.92-4.88-14.88-7.36 1.4-9.64 7.32-17.56 11.56-26.08z" fill="#9BC7F6"/><path d="M334.359 307c7.6 9.12 14 19.2 19.52 29.72-6.56 5.28-13.88 9.48-21.2 13.56-1.84-13.32-2.6-26.84-1.8-40.28l3.48-3z" fill="#BDDAF9"/><path d="M308.601 326.68c6.4 8.8 9.72 19.28 13.12 29.48-5.16 2.56-10.32 5.04-15.56 7.48-1.92-12.32-1.44-25 2.44-36.96z" fill="#BFDBF9"/><path d="M266.601 333.239c8.12-2 13.88.08 17.28 6.28-6.36 4.4-13.04 12.16-21.76 8.96 1.44-5.12 2.92-10.2 4.48-15.24z" fill="#5CA5F6"/><path d="M276.359 375.121c.72-12.12 3.2-24.48 11.24-34 4.04 8.72 5.68 18.16 6.84 27.64-5.96 2.28-12 4.4-18.08 6.36z" fill="#C1DCF8"/><path d="M245.44 347.839c6.16-6 13.96 4.24 5.2 7.32-6.28 5.92-13.16-3.52-5.2-7.32z" fill="#56A2F6"/><path d="M224.84 366c14.6-2.48 28.52-7.44 41.96-13.48 1.44 8.12 2.52 16.28 3.36 24.52-32.8 8.92-66 16.56-99.68 21.16-1.48-.76-4.48-2.28-5.96-3.08 11.28-5.68 20.12-17.64 33.68-17.36 4.2-3.96 8.28-8.04 12.32-12.16 4.76.28 9.52.76 14.32.4z" fill="#C6DFF8"/><path d="M421.118 400.96c15.96-8.48 30.28-23.6 49.64-22.44-34.12 56.68-89.96 101.88-155.16 116.68-25.28 6.44-51.52 6-77.36 5.4 29.28-9.36 54.84-26.72 81.72-41.12 33.72-19.52 67.12-39.6 101.16-58.52z" fill="#2C2CE5"/><path d="M161.4 409.961c42-4.88 83.88-12.48 123.96-26.32-4.56 10.84-16.64 12.24-26.16 16.44-42.48 20.52-79.88 50.6-123.92 68.12-9.48-5.68-18.36-12.28-27.28-18.8 18.08-12.76 35.24-26.88 53.4-39.44z" fill="#1111E2"/></g><defs><clipPath id="clip0_4563_4481"><path fill="#fff" d="M0 0h512v512H0z"/></clipPath></defs></svg>