<svg data-name="Layer 1" xmlns="http://www.w3.org/2000/svg" width="512" height="512" viewBox="0 0 512 512"><defs><linearGradient id="a" x1="256" y1="-3.08" x2="256" y2="519.31" gradientUnits="userSpaceOnUse"><stop offset=".14" stop-color="#60ccf1"/><stop offset=".41" stop-color="#55a3d7"/><stop offset=".75" stop-color="#4874b9"/><stop offset=".92" stop-color="#4463ae"/></linearGradient></defs><path d="M338.6 399.36H189.07s-5.2-6.51-13.65-14.96c0-91.01 52.01-133.26 76.06-167.07-23.4 12.36-44.21 19.51-55.92 20.16-7.16 11.05-29.25 37.72-35.76 42.25-7.8 16.91-20.16 20.8-33.16 20.8-45.52 0-53.96-47.45-51.36-53.96s58.52-91.01 68.25-111.82c9.74-20.8 2.6-14.96 13-32.52 10.4-18.2 33.16-35.12 37.72-38.36-9.76-7.16-31.2-33.8-33.8-46.16-3.91-23.4 11.05-6.51 28.6 5.2 10.4 7.16 31.85 20.16 43.56 25.36 89.72 0 142.38 57.85 142.38 126.77 0 53.96-21.45 111.82-21.45 185.27v24.05l-14.94 14.98zm27.94-26v-13c0-38.36 5.85-72.17 11.05-104.66 5.2-27.96 9.76-54.61 9.76-80.61 0-38.36-14.31-72.81-40.96-98.81-27.96-26-65.65-40.96-111.17-41.61h-.64c6.51-8.45 18.2-16.91 22.11-17.56 5.85-1.31 14.31-1.31 19.51-2.6 5.85-1.31 9.76-5.2 24.71-5.2 11.71 0 27.31 4.56 27.31 7.8 0 4.56-16.91 1.96-27.31 13-2.6 3.91 5.85-.64 10.4-.64 3.91-.64 11.05-1.31 21.45 1.31 7.16 1.96 15.6 3.91 29.91.64 4.56-1.31 14.31 0 2.6 10.4-7.8 6.51-11.71 9.11-14.31 11.05-3.91 2.6 17.56-8.45 40.32 12.36 12.36 10.4 29.91 23.4 18.2 28.6-6.51 3.25-15.6 0-22.11 1.96-5.2 1.96 11.71 1.31 16.25 4.56 2.6 2.6 3.91 10.4 8.45 14.96 5.2 4.56 10.4 5.2 14.31 11.71 3.91 5.85 12.36 24.05 0 17.56-8.45-4.56-15.6-7.8-24.05-7.16-6.51 0 13 5.2 20.8 18.2 4.56 8.45 0 11.71 2.6 18.85 2.6 5.85 8.45 10.4 10.4 15.6 3.25 8.45-1.96 39.65-5.85 48.12-3.25 7.8-6.51 13-10.4 8.45-3.25-3.91-9.76-3.91-12.36-3.91 4.56 7.16 1.31 11.71 3.91 17.56 3.25 7.16 8.45 11.05 8.45 18.2 0 6.51-3.91 22.76-9.76 22.76-7.16 0-15.6-10.4-19.51-7.8-5.2 2.6 13 15.6 14.96 24.05 2.6 10.4-6.51 18.2-8.45 24.71s0 18.85-5.85 24.71c-4.56 4.56-8.45 6.51-24.71 6.51l-.02-.06zm-171.62 43.56h137.82l48.12 53.32-6.51 35.76H153.96l-4.56-37.72 45.52-51.36z" fill="url(#a)"/></svg>