<svg id="Layer_27" data-name="Layer 27" xmlns="http://www.w3.org/2000/svg" viewBox="0 0 512 512"><defs><linearGradient id="linear-gradient" x1="-3187.85" y1="-549.37" x2="-3187.57" y2="-549.66" gradientTransform="matrix(743.38232 744.6809 743.38346 -744.68204 2778540.4 1964750.63)" gradientUnits="userSpaceOnUse"><stop offset="0" stop-color="#32429b"/><stop offset=".5" stop-color="#282f6b"/><stop offset=".99" stop-color="#282f6b"/><stop offset="1" stop-color="#282f6b"/></linearGradient><linearGradient id="linear-gradient-2" x1="-3188.41" y1="-543.28" x2="-3187.47" y2="-543.28" gradientTransform="matrix(0 413.39 412.8 0 224576.5 1318169.44)" gradientUnits="userSpaceOnUse"><stop offset="0" stop-color="#fff"/><stop offset=".78" stop-color="#c3d4d9"/><stop offset="1" stop-color="#c3d4d9"/></linearGradient><linearGradient id="linear-gradient-3" x1="-3189.72" y1="-554.82" x2="-3188.78" y2="-554.82" gradientTransform="matrix(0 836.82 -835.61 0 -463382.3 2669373.76)" gradientUnits="userSpaceOnUse"><stop offset="0" stop-color="#52c0a8"/><stop offset=".11" stop-color="#52c0a8"/><stop offset=".92" stop-color="#2d5eab"/><stop offset="1" stop-color="#2d5eab"/></linearGradient><linearGradient id="linear-gradient-4" x1="-3185.29" y1="-568.1" x2="-3184.35" y2="-568.1" gradientTransform="matrix(0 186.88 -186.61 0 -105760.17 595450.52)" gradientUnits="userSpaceOnUse"><stop offset="0" stop-color="#46bfae"/><stop offset=".18" stop-color="#36459c"/><stop offset=".19" stop-color="#36459c"/><stop offset=".53" stop-color="#1e2452"/><stop offset=".99" stop-color="#1e2452"/><stop offset="1" stop-color="#1e2452"/></linearGradient><linearGradient id="linear-gradient-5" x1="-3191.93" y1="-547.98" x2="-3191" y2="-547.98" gradientTransform="matrix(0 -1061.8 1060.27 0 581099.59 -3387881.86)" gradientUnits="userSpaceOnUse"><stop offset="0" stop-color="#010101"/><stop offset="1" stop-color="#010101" stop-opacity="0"/><stop offset="1" stop-color="#010101" stop-opacity="0"/></linearGradient><style>.cls-2{fill:#fff}.cls-3{fill:none}</style></defs><path d="M256.01 16c-81.1 0-151.57 39.35-194.8 99.36-1.47 2.04-1.5 4.8-2.9 6.88-12.59 18.68-2.55 72.91-9.52 94.78-7.37 23.14-18.49 29.13-18.49 54.62 0 46.1 17.44 62.38 40.34 95.71 42.34 61.65 99.41 106.9 186.81 106.9 134.66 0 217.13-84.13 217.13-215.51 0-26.98-12.8-52.36-15.4-77.43-2.34-22.54 5.32-44.5-7.73-63.07-.24-.33.53-1.27.29-1.6C408.59 55.91 337.69 16 256.01 16z" fill="url(#linear-gradient)"/><path class="cls-2" d="M451.75 116.68c-2.16-.26-4.51-.44-6.68-.64-3.66-.33-7.35-.54-11.06-.69-2.9-.11-5.8-.19-8.73-.18-9.53 0-19.06.64-28.51 1.88-20.71 2.71-40.62 8.26-59 16.15-12.47 5.36-30.47 15.9-39.55 22.09-17.54 11.98-39.09 28.5-57.62 43.46-26.47 21.38-56.68 43.09-88.57 44.34-52.82 2.07-96.6-41.57-96.66-94.5a96.168 96.168 0 013.28-25.09c.71-2.65 1.54-5.26 2.47-7.81l.1-.34c-28.44 39.49-45.21 87.97-45.21 140.37 0 21.93 2.96 43.17 8.46 63.36.07.24.15.47.22.71 1.4 5.06 2.96 10.07 4.69 15.03.48 1.38 1.04 2.73 1.54 4.1 1.4 3.79 2.84 7.55 4.43 11.24.7 1.65 1.46 3.26 2.21 4.89 1.53 3.36 3.11 6.7 4.79 9.98.87 1.68 1.75 3.36 2.66 5.02 1.71 3.15 3.48 6.27 5.33 9.34.98 1.64 1.97 3.26 2.99 4.87 1.94 3.06 3.96 6.06 6.04 9.02 1.04 1.49 2.06 2.98 3.13 4.45 2.29 3.13 4.69 6.17 7.13 9.18.96 1.18 1.88 2.4 2.86 3.56 3.13 3.72 6.38 7.34 9.73 10.86.36.38.69.78 1.05 1.15 3.83 3.98 7.8 7.82 11.89 11.52.06.06.12.12.18.17s0 .02-.01.02c-22.25 22.16-49.23 39.56-79.29 50.56 20.24 7.28 45.15 11.26 67.89 11.26 27.97 0 55.08-7.15 79.27-18.65.04-.02.08-.05.13-.07 28.54 11.99 59.83 18.71 92.71 18.71 132.55 0 240-107.57 240-240.27 0-51.82-16.39-99.81-44.25-139.05"/><path class="cls-3" d="M367.51 156.16c-32.78 28.99-55.01 87.57-66.95 119.04l-3.51 9.23c-10.7 28.13-25.35 66.66-48.36 90.49-38.63 40.02-92.93 72.6-119.15 82.96l1.22 2.74-.12.05c10.4 6.39 21.27 11.97 32.51 16.7 28.56 12.01 59.93 18.65 92.84 18.65 132.55 0 240-107.57 240-240.27 0-51.81-16.38-99.8-44.24-139.04s-2.27-.06-2.27-.06c-1.85.35-44.14 6.07-81.97 39.52z"/><path d="M367.51 156.16c-32.78 28.99-55.01 87.57-66.95 119.04l-3.51 9.23c-10.7 28.13-25.35 66.66-48.36 90.49-38.63 40.02-92.93 72.6-119.15 82.96l1.22 2.74-.12.05c10.4 6.39 21.27 11.97 32.51 16.7 28.56 12.01 59.93 18.65 92.84 18.65 132.55 0 240-107.57 240-240.27 0-51.81-16.38-99.8-44.24-139.04s-2.27-.06-2.27-.06c-1.85.35-44.14 6.07-81.97 39.52" fill="url(#linear-gradient-2)"/><path class="cls-2" d="M267.57 68.95c3.04 0 5.51-2.47 5.51-5.51s-2.47-5.51-5.51-5.51-5.51 2.47-5.51 5.51 2.47 5.51 5.51 5.51m-20.06 64.63a3.329 3.329 0 100-6.66c-1.84 0-3.33 1.49-3.33 3.33s1.49 3.33 3.33 3.33m-85.11 38.65c2.75 0 4.98-2.24 4.99-4.99 0-2.76-2.24-4.99-4.99-4.99s-4.99 2.24-4.99 4.99c0 2.76 2.24 4.99 4.99 4.99m-43.19-29.72c1.47 0 2.66-1.19 2.66-2.66s-1.19-2.66-2.66-2.66-2.66 1.19-2.66 2.66 1.19 2.66 2.66 2.66m209.45-58.38c1.36 0 2.45-1.1 2.46-2.46 0-1.36-1.1-2.46-2.46-2.46-1.36 0-2.45 1.1-2.46 2.46 0 1.36 1.1 2.46 2.46 2.46m-148.75 46.52a1.9 1.9 0 100-3.8 1.9 1.9 0 100 3.8m13.73-21.87c2.12 0 3.83-1.72 3.83-3.84s-1.72-3.83-3.83-3.84c-2.12 0-3.83 1.72-3.83 3.84s1.72 3.84 3.83 3.84"/><path class="cls-3" d="M425.27 115.17c-9.53 0-19.05.64-28.51 1.88-20.71 2.71-40.62 8.26-59 16.15-12.47 5.36-30.47 15.89-39.55 22.09-17.54 11.98-39.09 28.5-57.62 43.46-26.47 21.38-56.68 43.09-88.57 44.34-52.82 2.07-96.6-41.57-96.66-94.5a96.168 96.168 0 013.28-25.09c.71-2.65 1.54-5.26 2.47-7.81l.1-.34C32.77 154.84 16 203.32 16 255.72c0 70.82 30.62 134.46 79.31 178.44s0 .02-.01.02c-22.25 22.16-49.23 39.56-79.29 50.56C36.25 492.02 61.16 496 83.9 496c27.97 0 55.08-7.15 79.27-18.65 24.9-11.84 46.69-28.3 63.06-46.36 21.78-24.03 43.18-70.7 58.22-107.47 6.73-14.92 12.27-29.83 17.1-42.47 11.13-29.17 33.97-92.59 67.95-122.65 37.57-33.23 81.8-41.64 82.07-41.69l.19-.04c-2.15-.26-4.51-.44-6.68-.64-3.66-.33-7.35-.54-11.06-.69-2.82-.11-5.65-.18-8.49-.18h-.24z"/><path d="M425.27 115.17c-9.53 0-19.05.64-28.51 1.88-20.71 2.71-40.62 8.26-59 16.15-12.47 5.36-30.47 15.89-39.55 22.09-17.54 11.98-39.09 28.5-57.62 43.46-26.47 21.38-56.68 43.09-88.57 44.34-52.82 2.07-96.6-41.57-96.66-94.5a96.168 96.168 0 013.28-25.09c.71-2.65 1.54-5.26 2.47-7.81l.1-.34C32.77 154.84 16 203.32 16 255.72c0 70.82 30.62 134.46 79.31 178.44s0 .02-.01.02c-22.25 22.16-49.23 39.56-79.29 50.56C36.25 492.02 61.16 496 83.9 496c27.97 0 55.08-7.15 79.27-18.65 24.9-11.84 46.69-28.3 63.06-46.36 21.78-24.03 43.18-70.7 58.22-107.47 6.73-14.92 12.27-29.83 17.1-42.47 11.13-29.17 33.97-92.59 67.95-122.65 37.57-33.23 81.8-41.64 82.07-41.69l.19-.04c-2.15-.26-4.51-.44-6.68-.64-3.66-.33-7.35-.54-11.06-.69-2.82-.11-5.65-.18-8.49-.18h-.24" fill="url(#linear-gradient-3)"/><ellipse class="cls-3" cx="254.33" cy="257.83" rx="13.14" ry="14.74"/><path d="M241.19 257.83c0 8.14 5.88 14.74 13.14 14.74s13.14-6.6 13.14-14.74-5.88-14.74-13.14-14.74-13.14 6.6-13.14 14.74" fill="url(#linear-gradient-4)"/><path class="cls-3" d="M24.45 319.09H156.1v115.07H24.45z"/><path class="cls-3" d="M24.45 319.09c12.26 44.99 37.25 84.72 70.86 115.07 30.82-30.69 52.51-70.52 60.8-115.07H24.45z"/><path d="M24.45 319.09c12.26 44.99 37.25 84.72 70.86 115.07 30.82-30.69 52.51-70.52 60.8-115.07H24.45z" fill="url(#linear-gradient-5)"/></svg>