<svg xmlns="http://www.w3.org/2000/svg" viewBox="0 0 48 48"><path fill="currentColor" d="M43.6,20.1c-.8-3.9-2.7-7.4-5.4-10.2,0,0,0,0,0,0s0,0,0,0c-7.8-7.8-20.4-7.8-28.2,0,0,0,0,0,0,0s0,0,0,0c-7.8,7.8-7.8,20.5,0,28.3,7.8,7.8,20.5,7.8,28.3,0,4.7-4.7,6.7-11.4,5.4-18h0Zm-12.7,18.3c-6.7,3.2-14.7,1.4-19.4-4.4h8c2.2,2.5,5.9,2.7,8.4,.5,.2-.2,.4-.3,.5-.5h8c-1.5,1.9-3.4,3.4-5.5,4.4Zm-8.9-8.4c0-1.1,.9-2,2-2,1.1,0,2,.9,2,2,0,1.1-.9,2-2,2-.5,0-1-.2-1.4-.6-.4-.4-.6-.9-.6-1.4Zm14.6-4.6c.4,.4,.9,.6,1.4,.6h1.9c-.2,1.4-.5,2.7-1,4h-8.8c0-2.5-1.6-4.8-4-5.6v-6.4c0-1.1-.9-2-2-2s-2,.9-2,2v6.4c-2.4,.8-4,3.1-4,5.6H9.2c-.5-1.3-.9-2.6-1-4h1.9c1.1,0,2-.9,2-2s-.9-2-2-2h-1.9c.4-2.8,1.5-5.5,3.2-7.8l1.3,1.3c.8,.8,2.1,.8,2.8,0,.8-.8,.8-2,0-2.8l-1.3-1.3c2.3-1.8,4.9-2.9,7.8-3.2v1.9c0,1.1,.9,2,2,2s2-.9,2-2v-1.9c2.8,.4,5.5,1.5,7.8,3.2l-1.3,1.3c-.8,.8-.8,2,0,2.8s2,.8,2.8,0c0,0,0,0,0,0l1.3-1.3c1.8,2.3,2.9,5,3.2,7.8h-1.9c-1.1,0-2,.9-2,2,0,.5,.2,1,.6,1.4h0Z"/></svg>