<svg xmlns="http://www.w3.org/2000/svg" viewBox="0 0 48 48"><path fill="currentColor" d="M38.16,21.19c-1.57,0-2.99,.62-4.04,1.63-.71,.68-1.25,1.52-1.54,2.48-4.99-.26-6.8-2.38-6.8-7.69V9.12l2.55,2.74,1.28,1.38c.37,.39,.87,.59,1.37,.59,.46,0,.91-.17,1.27-.5,.75-.7,.8-1.88,.1-2.63l-4.02-4.32-3.05-3.28c-.35-.38-.85-.59-1.36-.59h0c-.52,0-1.02,.22-1.37,.6l-3.04,3.31-3.9,4.25c-.7,.76-.65,1.94,.11,2.63,.76,.7,1.94,.65,2.63-.11l1.16-1.26,2.55-2.78v8.45c0,7.35,3.48,11.09,10.62,11.42,.36,.99,.97,1.85,1.77,2.51,1.01,.83,2.3,1.34,3.71,1.34,3.22,0,5.84-2.62,5.84-5.84s-2.62-5.84-5.84-5.84Zm0,7.95c-.16,0-.31-.02-.46-.06-.94-.21-1.65-1.05-1.65-2.06,0-.95,.63-1.74,1.5-2.01,.2-.06,.4-.1,.62-.1,1.16,0,2.11,.95,2.11,2.11s-.95,2.11-2.11,2.11Zm-12.38,4.98v-4.18c-2.88-1.49-4.53-3.84-5.41-6.44-1.06,1.09-2.66,1.64-4.96,1.79-.74-2.37-2.96-4.1-5.57-4.1-3.22,0-5.84,2.62-5.84,5.84s2.62,5.84,5.84,5.84c2.52,0,4.66-1.61,5.48-3.84,2.82-.15,5.06-.84,6.73-2.09v7.18c-2.31,.78-3.98,2.96-3.98,5.53,0,3.22,2.62,5.84,5.84,5.84s5.84-2.62,5.84-5.84c0-2.57-1.67-4.75-3.98-5.53Zm-15.94-4.98c-1.16,0-2.11-.95-2.11-2.11s.95-2.11,2.11-2.11,2.11,.95,2.11,2.11-.95,2.11-2.11,2.11Zm14.08,12.62c-1.16,0-2.11-.95-2.11-2.11s.95-2.11,2.11-2.11,2.11,.95,2.11,2.11-.95,2.11-2.11,2.11Z"/></svg>