<svg xmlns="http://www.w3.org/2000/svg" viewBox="0 0 48 48"><path fill="currentColor" d="M42.9,28.1h-2v-4.8c0-1-.8-1.8-1.8-1.8h-11.5c-.3-.7-.8-1.2-1.5-1.6v-3.5h9.8c2.5,0,4.6-2.1,4.6-4.6V7c0-2.5-2.1-4.6-4.6-4.6H12.3c-2.5,0-4.6,2.1-4.6,4.6v4.8c0,2.5,2.1,4.6,4.6,4.6h10.3v3.7c-.5,.4-.9,.8-1.2,1.4H9.1c-1,0-1.8,.8-1.8,1.8v4.8h-2.3c-1.7,0-3.1,1.4-3.1,3.1v5.5c0,1.7,1.4,3.1,3.1,3.1h2.2v2.3h-1.4c-1,0-1.8,.8-1.8,1.8s.8,1.8,1.8,1.8h6.3c1,0,1.8-.8,1.8-1.8s-.8-1.8-1.8-1.8h-1.4v-2.3h2.2c1.7,0,3.1-1.4,3.1-3.1v-5.5c0-1.7-1.4-3.1-3.1-3.1h-2.2v-3h11.1c.6,.7,1.5,1.2,2.6,1.2s2-.5,2.6-1.2h10.2v3h-2.4c-1.7,0-3.1,1.4-3.1,3.1v5.5c0,1.7,1.4,3.1,3.1,3.1h2.2v2.3h-1.4c-1,0-1.8,.8-1.8,1.8s.8,1.8,1.8,1.8h6.3c1,0,1.8-.8,1.8-1.8s-.8-1.8-1.8-1.8h-1.4v-2.3h2.2c1.7,0,3.1-1.4,3.1-3.1v-5.5c0-1.7-1.4-3.1-3.1-3.1Zm-30.3,3.5v4.6H5.5v-4.6h7.1Zm-.3-18.7c-.6,0-1.1-.5-1.1-1.1V7c0-.6,.5-1.1,1.1-1.1h23.6c.6,0,1.1,.5,1.1,1.1v4.8c0,.6-.5,1.1-1.1,1.1H12.3Zm30.2,23.3h-7.1v-4.6h7.1v4.6ZM17.6,7.7c-1,0-1.8,.8-1.8,1.8s.8,1.8,1.8,1.8,1.8-.8,1.8-1.8-.8-1.8-1.8-1.8Zm6.5,0c-1,0-1.8,.8-1.8,1.8s.8,1.8,1.8,1.8,1.8-.8,1.8-1.8-.8-1.8-1.8-1.8Zm6.5,0c-1,0-1.8,.8-1.8,1.8s.8,1.8,1.8,1.8,1.8-.8,1.8-1.8-.8-1.8-1.8-1.8Z"/></svg>