<svg xmlns="http://www.w3.org/2000/svg" viewBox="0 0 48 48"><path fill="currentColor" d="M22,9c-4.42,0-8,3.58-8,8,0,.06,0,.13,0,.2,.02,.93-.6,1.75-1.5,1.98-2.59,.67-4.5,3.02-4.5,5.81,0,3.31,2.69,6,6,6h2c1.1,0,2,.9,2,2s-.9,2-2,2h-2c-5.52,0-10-4.48-10-10,0-4.13,2.5-7.66,6.06-9.19,.6-6.07,5.72-10.81,11.94-10.81,4.45,0,8.33,2.42,10.4,6.01,6.44,.21,11.6,5.5,11.6,11.99s-5.37,12-12,12c-1.1,0-2-.9-2-2s.9-2,2-2c4.42,0,8-3.58,8-8s-3.58-8-8-8c-.22,0-.44,0-.66,.03-.85,.07-1.66-.41-2-1.2-1.23-2.84-4.06-4.83-7.35-4.83Zm.59,10.59c.78-.78,2.05-.78,2.83,0l4,4c.78,.78,.78,2.05,0,2.83-.78,.78-2.05,.78-2.83,0l-.59-.59v15.17c0,1.1-.9,2-2,2s-2-.9-2-2v-15.17l-.59,.59c-.78,.78-2.05,.78-2.83,0-.78-.78-.78-2.05,0-2.83l4-4Z"/></svg>