<svg xmlns="http://www.w3.org/2000/svg" viewBox="0 0 48 48"><path fill="currentColor" d="M17.04,11.86c2.13-1.21,4.54-1.84,7-1.84s4.86,.64,7,1.84c.23,.13,.48,.22,.74,.25,.26,.03,.53,.02,.78-.05,.25-.07,.49-.19,.7-.35,.21-.16,.38-.36,.51-.59,.26-.46,.33-1,.19-1.51-.14-.51-.47-.94-.93-1.21-2.74-1.55-5.84-2.37-9-2.37s-6.25,.82-9,2.37c-.46,.26-.79,.7-.93,1.21-.14,.51-.07,1.05,.19,1.51,.13,.23,.31,.43,.51,.59,.21,.16,.45,.28,.7,.35s.52,.09,.78,.05c.26-.03,.51-.12,.74-.25Zm19.83,10.53c-.21-.49-.45-.96-.72-1.42-.14-.23-.32-.42-.53-.58-.21-.16-.45-.27-.71-.33-.26-.06-.52-.07-.78-.03s-.51,.13-.73,.27c-.45,.28-.77,.72-.89,1.23-.12,.51-.04,1.05,.23,1.51,.31,.53,.56,1.1,.76,1.68,.11,.34,.32,.65,.59,.89,.27,.24,.61,.39,.96,.45,1.39,.24,2.65,.96,3.56,2.04,.91,1.08,1.41,2.44,1.41,3.86,0,1.59-.63,3.12-1.76,4.24-1.12,1.12-2.65,1.76-4.24,1.76H11.37c-.82-.13-1.57-.5-2.17-1.07-.59-.57-1-1.31-1.15-2.13-.12-.59-.11-1.19,.04-1.78,.15-.58,.42-1.12,.81-1.58s.87-.83,1.41-1.08c.55-.25,1.14-.37,1.74-.36,.53,0,1.04-.21,1.41-.59,.37-.37,.59-.88,.59-1.41,0-1.75,.46-3.47,1.34-4.98,.13-.23,.22-.48,.25-.74,.03-.26,.02-.53-.05-.78-.07-.25-.19-.49-.35-.7-.16-.21-.36-.38-.59-.51-.46-.26-1-.33-1.51-.19-.51,.14-.94,.47-1.21,.93-.94,1.59-1.53,3.36-1.76,5.2-1.67,.41-3.16,1.34-4.26,2.66-.93,1.1-1.55,2.42-1.79,3.84-.24,1.42-.1,2.88,.42,4.22,.52,1.34,1.39,2.52,2.52,3.41,1.13,.89,2.48,1.46,3.91,1.64h23.07c2.4,0,4.71-.87,6.52-2.45,1.81-1.57,3-3.74,3.34-6.11,.34-2.37-.18-4.79-1.47-6.81-1.29-2.02-3.26-3.51-5.56-4.2h0Zm-7.1-4.42v-.12c.1-.12,.19-.26,.26-.4,.19-.49,.18-1.04-.04-1.52-.21-.48-.61-.86-1.1-1.05-1.12-.42-2.29-.67-3.48-.76h-.6c-.54-.04-1.08-.04-1.62,0-.21-.01-.41-.01-.62,0-1.19,.09-2.36,.34-3.48,.76-.48,.21-.86,.59-1.05,1.07-.2,.48-.2,1.02,0,1.5,.07,.13,.15,.26,.24,.38,0,.07,0,.15,0,.22,.13,.23,.31,.43,.52,.59s.45,.28,.7,.34c.25,.07,.52,.08,.78,.05,.26-.04,.51-.12,.74-.26,.92-.51,1.95-.78,3-.78s2.08,.27,3,.78c.23,.13,.49,.22,.76,.25,.27,.03,.54,0,.79-.06,.26-.07,.5-.2,.7-.37,.21-.17,.38-.38,.5-.61h0Zm-7.74,6c0,.4,.12,.78,.34,1.11,.22,.33,.53,.59,.9,.74,.37,.15,.77,.19,1.15,.11,.39-.08,.74-.27,1.02-.55,.28-.28,.47-.64,.55-1.02,.08-.39,.04-.79-.11-1.15s-.41-.68-.74-.9c-.33-.22-.72-.34-1.11-.34-.53,0-1.04,.21-1.41,.59s-.59,.88-.59,1.41Z"/></svg>