<svg xmlns="http://www.w3.org/2000/svg" viewBox="0 0 48 48"><path fill="currentColor" d="M44.96,10.89c-.9-1.49-2.3-2.62-3.95-3.17-.82-1.72-2.13-3.17-3.75-4.18-1.62-1.01-3.5-1.53-5.41-1.5-1.91,.03-3.77,.6-5.37,1.65-1.59,1.05-2.85,2.54-3.63,4.29H13.98c-1.59,0-3.12,.63-4.24,1.76s-1.76,2.65-1.76,4.24v8c0,.53,.21,1.04,.59,1.41,.37,.37,.88,.59,1.41,.59s1.04-.21,1.41-.59c.37-.38,.59-.88,.59-1.41v-8c0-.53,.21-1.04,.59-1.41s.88-.59,1.41-.59h5.56c-1,1.09-1.55,2.52-1.56,4,0,1.59,.63,3.12,1.76,4.24s2.65,1.76,4.24,1.76h14.65c1.74,.01,3.43-.6,4.76-1.72,1.33-1.12,2.22-2.68,2.51-4.4,.29-1.72-.05-3.48-.94-4.97Zm-3.24,5.03c-.17,.41-.41,.77-.72,1.08-.31,.31-.68,.56-1.08,.72-.41,.17-.84,.25-1.28,.25h-14.65c-.53,0-1.04-.21-1.41-.59s-.59-.88-.59-1.41,.21-1.04,.59-1.41c.37-.37,.88-.59,1.41-.59s1.04-.21,1.41-.59c.37-.37,.59-.88,.59-1.41-.02-1.43,.48-2.81,1.39-3.91,.91-1.1,2.19-1.83,3.59-2.07,1.41-.24,2.85,.03,4.08,.76,1.23,.73,2.15,1.87,2.61,3.22,.11,.34,.32,.65,.59,.89,.27,.24,.61,.39,.97,.45,.78,.13,1.49,.54,2,1.15s.78,1.38,.76,2.17c0,.44-.09,.87-.25,1.28Zm-3.74,10.06c-.53,0-1.04,.21-1.41,.59-.37,.37-.59,.88-.59,1.41v6c0,.53-.21,1.04-.59,1.41-.37,.37-.88,.59-1.41,.59h-4.52c-.39-.99-.98-1.88-1.75-2.62-.77-.74-1.68-1.3-2.69-1.64-.91-1.92-2.4-3.51-4.27-4.52-1.87-1.01-4.01-1.41-6.12-1.12-2.11,.29-4.07,1.23-5.6,2.71-1.53,1.48-2.55,3.4-2.91,5.49-1.35,.44-2.51,1.36-3.25,2.57-.74,1.22-1.03,2.66-.8,4.07,.22,1.41,.94,2.69,2.02,3.62,1.08,.93,2.46,1.44,3.89,1.44h14.65c1.71,0,3.37-.6,4.68-1.7,1.31-1.1,2.2-2.62,2.51-4.3h4.14c1.59,0,3.12-.63,4.24-1.76,1.12-1.12,1.76-2.65,1.76-4.24v-6c0-.53-.21-1.04-.59-1.41-.37-.38-.88-.59-1.41-.59Zm-12.25,13.93c-.17,.41-.41,.77-.72,1.08s-.68,.56-1.08,.72c-.41,.17-.84,.25-1.28,.25H7.98c-.53,0-1.04-.21-1.41-.59-.37-.38-.59-.88-.59-1.41s.21-1.04,.59-1.41c.37-.38,.88-.59,1.41-.59s1.04-.21,1.41-.59c.37-.38,.59-.88,.59-1.41-.02-1.43,.48-2.81,1.39-3.91,.91-1.1,2.19-1.83,3.59-2.07,1.41-.24,2.85,.03,4.08,.76,1.23,.73,2.15,1.87,2.61,3.22,.11,.34,.32,.65,.59,.89,.27,.24,.61,.39,.97,.45,.78,.13,1.49,.54,2,1.15,.51,.61,.78,1.38,.76,2.17,0,.44-.09,.87-.25,1.28Z"/></svg>