<svg xmlns="http://www.w3.org/2000/svg" viewBox="0 0 48 48"><path fill="currentColor" d="M30 2C32.2091 2 34 3.79086 34 6H36C37.5913 6 39.117 6.63259 40.2422 7.75781C41.3674 8.88303 42 10.4087 42 12V40C42 41.5913 41.3674 43.117 40.2422 44.2422C39.117 45.3674 37.5913 46 36 46H12C10.4087 46 8.88303 45.3674 7.75781 44.2422C6.63259 43.117 6 41.5913 6 40V12C6 10.4087 6.63259 8.88303 7.75781 7.75781C8.88303 6.63259 10.4087 6 12 6H14C14 3.79086 15.7909 2 18 2H30ZM12 10C11.4696 10 10.961 10.2109 10.5859 10.5859C10.2109 10.961 10 11.4696 10 12V40C10 40.5304 10.2109 41.039 10.5859 41.4141C10.961 41.7891 11.4696 42 12 42H36C36.5304 42 37.039 41.7891 37.4141 41.4141C37.7891 41.039 38 40.5304 38 40V12C38 11.4696 37.7891 10.961 37.4141 10.5859C37.039 10.2109 36.5304 10 36 10H34C34 12.2091 32.2091 14 30 14H18C15.7909 14 14 12.2091 14 10H12ZM16.0195 30C17.1241 30 18.0195 30.8954 18.0195 32C18.0195 33.1046 17.1241 34 16.0195 34H16C14.8954 34 14 33.1046 14 32C14 30.8954 14.8954 30 16 30H16.0195ZM32 30C33.1046 30 34 30.8954 34 32C34 33.1046 33.1046 34 32 34H24C22.8954 34 22 33.1046 22 32C22 30.8954 22.8954 30 24 30H32ZM16.0195 20C17.1241 20 18.0195 20.8954 18.0195 22C18.0195 23.1046 17.1241 24 16.0195 24H16C14.8954 24 14 23.1046 14 22C14 20.8954 14.8954 20 16 20H16.0195ZM32 20C33.1046 20 34 20.8954 34 22C34 23.1046 33.1046 24 32 24H24C22.8954 24 22 23.1046 22 22C22 20.8954 22.8954 20 24 20H32ZM18 10H30V6H18V10Z"/></svg>