<svg xmlns="http://www.w3.org/2000/svg" viewBox="0 0 48 48"><path fill="currentColor" d="M38.27,3.04H9.73c-3.71,0-6.73,3.02-6.73,6.73V29.99c0,3.71,3.02,6.73,6.73,6.73h9.3l7.89,7.67c.37,.36,.87,.56,1.37,.56,.26,0,.52-.05,.77-.16,.73-.31,1.2-1.03,1.2-1.81v-6.26h8c3.71,0,6.73-3.02,6.73-6.73V9.78c0-3.71-3.02-6.73-6.73-6.73Zm2.8,19.05H11.44l9.59,8.18v-4.12h20.03v3.82c0,1.54-1.25,2.79-2.79,2.79h-9.98c-1.08,0-1.97,.89-1.97,1.97v3.56l-5.12-4.98c-.36-.35-.86-.56-1.37-.56H9.73c-1.54,0-2.79-1.25-2.79-2.79v-11.86h28.69l-9.59-8.17v4.12H6.95v-4.31c0-1.54,1.25-2.79,2.79-2.79h28.54c1.54,0,2.79,1.25,2.79,2.79v12.34Z"/></svg>