<svg xmlns="http://www.w3.org/2000/svg" viewBox="0 0 48 48"><path fill="currentColor" d="M12.69,18.8c.19-.32.29-.68.29-1.05v-6.58l5.58-3.14c.48-.28.83-.73.98-1.27.15-.54.07-1.1-.21-1.59-.28-.48-.73-.83-1.27-.98-.53-.14-1.11-.07-1.58.2l-6.56,3.75c-.31.18-.58.44-.76.76-.18.31-.28.67-.28,1.04v6.58l-5.83,3.31c-.31.18-.58.44-.76.76-.18.31-.28.67-.28,1.04v8.14c0,.56.22,1.08.61,1.47.39.39.92.61,1.47.61s1.09-.22,1.47-.61c.39-.39.61-.92.61-1.47v-6.94l5.74-3.29c.32-.18.59-.44.78-.76ZM45.71,29.05c-.19-.32-.45-.58-.77-.76l-5.75-3.29v-6.59c0-.37-.1-.73-.29-1.05-.19-.32-.45-.58-.77-.76l-6.79-3.89c-.63-.37-1.46-.36-2.08,0l-6.79,3.89c-.32.18-.59.44-.78.76-.19.32-.29.68-.29,1.05v6.59l-5.75,3.3c-.32.18-.58.45-.76.76-.18.32-.28.68-.28,1.04v7.8c0,.36.1.72.28,1.04.18.31.45.58.76.76l6.8,3.89c.63.36,1.46.36,2.08,0l5.77-3.3,5.76,3.29c.31.19.67.29,1.07.29.36,0,.71-.11,1.01-.29l6.81-3.9c.32-.18.58-.44.76-.76.18-.31.28-.67.28-1.04v-7.79c0-.37-.1-.73-.29-1.05ZM28.46,36.55l-4.96,2.83-4.71-2.69v-5.41l5.01-2.87,4.67,2.72v5.42ZM30.29,28.02l-4.71-2.76v-5.65l4.72-2.71,4.72,2.71v5.69l-4.73,2.72ZM41.78,36.68l-4.71,2.69-4.95-2.83v-5.37l4.74-2.73,4.92,2.82v5.41ZM19.11,23.14c.19-.32.28-.68.29-1.05v-6.58l5.44-3.1c.24-.14.45-.31.62-.53.17-.22.3-.47.37-.73.07-.27.09-.54.06-.82-.03-.27-.12-.53-.26-.77-.14-.24-.32-.45-.53-.61-.22-.17-.47-.29-.73-.36-.27-.07-.54-.09-.81-.05-.27.04-.53.12-.77.26l-6.51,3.75c-.32.18-.58.45-.77.77-.18.32-.28.68-.28,1.04v6.55l-5.76,3.3c-.33.19-.6.46-.78.79-.18.33-.27.7-.26,1.05v8.16c0,.56.22,1.08.61,1.47.39.39.92.61,1.47.61s1.08-.22,1.47-.61c.39-.39.61-.92.61-1.47v-6.95l5.74-3.33c.32-.18.59-.44.78-.76Z"/></svg>