<svg xmlns="http://www.w3.org/2000/svg" viewBox="0 0 48 48"><path fill="currentColor" d="M42.89,18.58c.52,0,1.02-.21,1.39-.58,.37-.37,.58-.87,.58-1.39V4.97c0-.52-.21-1.02-.58-1.39-.37-.37-.87-.58-1.39-.58h-11.52c-.52,0-1.02,.21-1.39,.58-.37,.37-.58,.87-.58,1.39v3.27h-10.8v-3.27c0-.52-.21-1.02-.58-1.39-.37-.37-.87-.58-1.39-.58H5.11c-.52,0-1.02,.21-1.39,.58-.37,.37-.58,.87-.58,1.39v11.64c0,.52,.21,1.02,.58,1.39,.37,.37,.87,.58,1.39,.58h3.59v10.83h-3.59c-.52,0-1.02,.21-1.39,.58-.37,.37-.58,.87-.58,1.39v11.64c0,.52,.21,1.02,.58,1.39,.37,.37,.87,.58,1.39,.58h11.52c.52,0,1.02-.21,1.39-.58,.37-.37,.58-.87,.58-1.39v-3.27h10.8v3.27c0,.52,.21,1.02,.58,1.39,.37,.37,.87,.58,1.39,.58h11.52c.52,0,1.02-.21,1.39-.58,.37-.37,.58-.87,.58-1.39v-11.64c0-.52-.21-1.02-.58-1.39-.37-.37-.87-.58-1.39-.58h-3.59v-10.83h3.59ZM7.08,14.64V6.94h7.58v7.7H7.08Zm7.58,26.42H7.08v-7.7h7.58v7.7Zm14.74-9.67v4.43h-10.8v-4.43c0-.52-.21-1.02-.58-1.39-.37-.37-.87-.58-1.39-.58h-3.94v-10.83h3.94c.52,0,1.02-.21,1.39-.58,.37-.37,.58-.87,.58-1.39v-4.43h10.8v4.43c0,.52,.21,1.02,.58,1.39,.37,.37,.87,.58,1.39,.58h3.94v10.83h-3.94c-.52,0-1.02,.21-1.39,.58-.37,.37-.58,.87-.58,1.39Zm11.52,1.97v7.7h-7.58v-7.7h7.58Zm-7.58-18.71V6.94h7.58v7.7h-7.58Z"/></svg>