<svg xmlns="http://www.w3.org/2000/svg" viewBox="0 0 48 48"><path fill="currentColor" d="M14,29c-.26,0-.52,.05-.77,.15-.24,.1-.46,.25-.65,.43-.19,.19-.33,.41-.43,.65-.1,.24-.15,.5-.15,.77v3.56c-2.58-2.92-4-6.67-4-10.56,0-.59,.03-1.18,.11-1.76,.03-.26,.01-.53-.06-.78-.07-.25-.19-.49-.35-.7-.16-.21-.36-.38-.59-.51-.23-.13-.48-.21-.74-.24-.26-.03-.53-.01-.78,.06-.25,.07-.49,.19-.7,.35-.21,.16-.38,.36-.51,.59-.13,.23-.21,.48-.24,.74-.09,.74-.14,1.49-.13,2.24,0,4.77,1.72,9.39,4.83,13h-2.83c-.53,0-1.04,.21-1.41,.59-.38,.37-.59,.88-.59,1.41s.21,1.04,.59,1.41c.38,.37,.88,.59,1.41,.59h8c.31,0,.62-.08,.9-.23,.28-.15,.51-.36,.69-.61,.02-.03,.05-.05,.07-.09,.01-.02,.01-.04,.03-.06,.1-.16,.17-.34,.21-.52,.03-.1,.05-.21,.06-.31,0-.06,.04-.12,.04-.18v-8c0-.26-.05-.52-.15-.77-.1-.24-.25-.46-.43-.65-.19-.19-.41-.33-.65-.43-.24-.1-.5-.15-.77-.15h0Zm3-17h-3.56c2.92-2.58,6.67-4,10.56-4,.59,0,1.18,.03,1.76,.11,.26,.03,.53,.01,.78-.06,.25-.07,.49-.19,.7-.35,.21-.16,.38-.36,.51-.59,.13-.23,.21-.48,.24-.74,.03-.26,.01-.53-.06-.78s-.19-.49-.35-.7c-.16-.21-.36-.38-.59-.51-.23-.13-.48-.21-.74-.24-.74-.09-1.49-.13-2.24-.13-4.77,0-9.39,1.72-13,4.83v-2.83c0-.53-.21-1.04-.59-1.41-.38-.38-.88-.59-1.41-.59s-1.04,.21-1.41,.59c-.38,.38-.59,.88-.59,1.41v8c.01,.13,.04,.26,.08,.39h0c.05,.25,.14,.48,.28,.69l.02,.03c.13,.19,.3,.36,.49,.49,.02,.02,.03,.04,.06,.06,.03,.02,.06,.02,.09,.04,.11,.07,.23,.12,.36,.17,.17,.06,.35,.09,.52,.11,.03,0,.06,.02,.1,.02h8c.53,0,1.04-.21,1.41-.59,.38-.38,.59-.88,.59-1.41s-.21-1.04-.59-1.41-.88-.59-1.41-.59h0Zm23.92,21.61c-.05-.25-.14-.48-.28-.69l-.02-.03c-.13-.19-.3-.36-.49-.49-.02-.02-.03-.04-.06-.06-.02-.01-.05-.01-.07-.03-.25-.14-.53-.23-.82-.27-.06,0-.12-.04-.18-.04h-8c-.53,0-1.04,.21-1.41,.59s-.59,.88-.59,1.41,.21,1.04,.59,1.41c.37,.38,.88,.59,1.41,.59h3.56c-2.92,2.58-6.67,4-10.56,4-.59,0-1.18-.03-1.76-.11-.53-.06-1.06,.08-1.48,.41-.42,.33-.69,.81-.75,1.33-.06,.53,.08,1.06,.41,1.48,.33,.42,.81,.69,1.33,.75,.74,.09,1.49,.13,2.24,.13,4.77,0,9.39-1.72,13-4.83v2.83c0,.53,.21,1.04,.59,1.41,.37,.37,.88,.59,1.41,.59s1.04-.21,1.41-.59c.37-.38,.59-.88,.59-1.41v-8c-.01-.13-.04-.26-.08-.39h0Zm1.08-22.61c.53,0,1.04-.21,1.41-.59,.37-.38,.59-.88,.59-1.41s-.21-1.04-.59-1.41c-.37-.38-.88-.59-1.41-.59h-8c-.13,.01-.26,.04-.38,.08h-.01c-.24,.05-.47,.15-.68,.28l-.04,.03c-.19,.13-.36,.3-.49,.49-.02,.02-.04,.03-.05,.05-.01,.02-.01,.05-.03,.07-.14,.26-.24,.54-.27,.83,0,.06-.04,.11-.04,.18v8c0,.53,.21,1.04,.59,1.41,.37,.38,.88,.59,1.41,.59s1.04-.21,1.41-.59c.37-.38,.59-.88,.59-1.41v-3.57c2.58,2.92,4,6.67,4,10.57,0,.59-.03,1.18-.11,1.76-.06,.53,.08,1.06,.41,1.47s.81,.69,1.33,.75c.08,0,.16,.01,.24,.01,.49,0,.96-.18,1.32-.5,.37-.32,.6-.77,.66-1.26,.09-.74,.14-1.49,.13-2.24,0-4.77-1.72-9.39-4.83-13h2.83Z"/></svg>