<svg xmlns="http://www.w3.org/2000/svg" viewBox="0 0 48 48"><path fill="currentColor" d="M19,24.4c-1.49,0-2.91,.59-3.96,1.64-1.05,1.05-1.64,2.47-1.64,3.96s.59,2.91,1.64,3.96c1.05,1.05,2.47,1.64,3.96,1.64s2.91-.59,3.96-1.64c1.05-1.05,1.64-2.47,1.64-3.96s-.59-2.91-1.64-3.96c-1.05-1.05-2.47-1.64-3.96-1.64Zm1.98,7.58c-.53,.53-1.24,.82-1.98,.82s-1.45-.29-1.98-.82c-.53-.53-.82-1.24-.82-1.98s.3-1.45,.82-1.98c.53-.53,1.24-.82,1.98-.82s1.45,.3,1.98,.82c.53,.52,.82,1.24,.82,1.98s-.3,1.45-.82,1.98Zm8.13-6.17c1.42-1.65,1.35-4.15-.21-5.71-1.57-1.57-4.06-1.64-5.71-.21-.16-2.17-1.97-3.89-4.19-3.89s-4.03,1.71-4.19,3.89c-1.65-1.42-4.14-1.35-5.71,.21-1.57,1.57-1.64,4.06-.21,5.71-2.17,.16-3.89,1.97-3.89,4.19s1.71,4.03,3.89,4.19c-1.42,1.65-1.35,4.14,.21,5.71,1.57,1.57,4.06,1.64,5.71,.21,.16,2.17,1.97,3.89,4.19,3.89s4.03-1.71,4.19-3.89c1.65,1.42,4.14,1.35,5.71-.21s1.64-4.06,.21-5.71c2.17-.16,3.89-1.97,3.89-4.19s-1.71-4.03-3.89-4.19Zm-.31,5.59c-2.37,0-3.56,2.86-1.88,4.54,.55,.55,.55,1.43,0,1.98-.55,.55-1.43,.55-1.98,0-1.68-1.68-4.54-.49-4.54,1.88,0,.77-.63,1.4-1.4,1.4s-1.4-.63-1.4-1.4c0-2.37-2.86-3.56-4.54-1.88-.55,.55-1.43,.55-1.98,0-.55-.55-.55-1.43,0-1.98,1.68-1.68,.49-4.54-1.88-4.54-.77,0-1.4-.63-1.4-1.4s.63-1.4,1.4-1.4c2.37,0,3.56-2.86,1.88-4.54-.55-.55-.55-1.43,0-1.98,.55-.55,1.43-.55,1.98,0,1.68,1.68,4.54,.49,4.54-1.88,0-.77,.63-1.4,1.4-1.4s1.4,.63,1.4,1.4c0,2.37,2.86,3.56,4.54,1.88,.55-.55,1.43-.55,1.98,0,.55,.55,.55,1.43,0,1.98-1.68,1.68-.49,4.54,1.88,4.54,.77,0,1.4,.63,1.4,1.4s-.63,1.4-1.4,1.4Zm14.2-19.58c0-1.24-.96-2.25-2.17-2.34,.8-.92,.76-2.32-.12-3.19-.88-.88-2.27-.91-3.19-.12-.09-1.21-1.1-2.17-2.34-2.17s-2.25,.96-2.34,2.17c-.92-.8-2.32-.76-3.19,.12-.88,.88-.91,2.27-.12,3.19-1.21,.09-2.17,1.1-2.17,2.34s.96,2.25,2.17,2.34c-.8,.92-.76,2.32,.12,3.19,.88,.88,2.27,.91,3.19,.12,.09,1.21,1.1,2.17,2.34,2.17s2.25-.96,2.34-2.17c.92,.8,2.32,.76,3.19-.12,.88-.88,.91-2.27,.12-3.19,1.21-.09,2.17-1.1,2.17-2.34Zm-2.35,.78c-1.32,0-1.99,1.6-1.05,2.54,.31,.31,.31,.8,0,1.11-.31,.31-.8,.31-1.11,0-.94-.94-2.54-.27-2.54,1.05,0,.43-.35,.78-.78,.78s-.78-.35-.78-.78c0-1.32-1.6-1.99-2.54-1.05-.31,.31-.8,.31-1.11,0-.31-.31-.31-.8,0-1.11,.94-.94,.27-2.54-1.05-2.54-.43,0-.78-.35-.78-.78s.35-.78,.78-.78c1.32,0,1.99-1.6,1.05-2.54-.31-.31-.31-.8,0-1.11,.31-.31,.8-.31,1.11,0,.94,.94,2.54,.27,2.54-1.05,0-.43,.35-.78,.78-.78s.78,.35,.78,.78c0,1.32,1.6,1.99,2.54,1.05,.31-.31,.8-.31,1.11,0,.31,.31,.31,.8,0,1.11-.94,.94-.27,2.54,1.05,2.54,.43,0,.78,.35,.78,.78s-.35,.78-.78,.78Zm-5.48-3.91c-.83,0-1.63,.33-2.21,.92-.59,.59-.92,1.38-.92,2.21s.33,1.63,.92,2.21c.59,.59,1.38,.92,2.21,.92s1.63-.33,2.21-.92c.59-.59,.92-1.38,.92-2.21s-.33-1.63-.92-2.21c-.59-.59-1.38-.92-2.21-.92Zm1.11,4.24c-.29,.29-.69,.46-1.11,.46s-.81-.16-1.11-.46c-.29-.29-.46-.69-.46-1.11s.17-.81,.46-1.11,.69-.46,1.11-.46,.81,.16,1.11,.46,.46,.69,.46,1.11-.16,.81-.46,1.11Z"/></svg>