<svg xmlns="http://www.w3.org/2000/svg" viewBox="0 0 48 48"><path fill="currentColor" d="M31.59,28.12v6.45c0,.06,.03,.12,.09,.15,.02,.02,.05,.03,.08,.02,.03,0,.06,0,.09-.01l5.53-3.22c.05-.03,.09-.09,.09-.15v-6.45c0-.07-.03-.13-.09-.16-.06-.02-.12-.02-.17,0l-5.53,3.22c-.06,.03-.09,.09-.1,.15Zm-1.94,6.62s.06,.03,.09,.02c.03,0,.06,0,.08-.01,.06-.03,.09-.1,.09-.16v-6.51c0-.06-.04-.12-.09-.15l-5.68-3.23c-.06-.03-.13-.03-.19,0-.05,.03-.08,.09-.08,.15v6.51c0,.06,.03,.11,.08,.15l5.69,3.23Zm-4.73-11.46l5.83,3.34s.06,.02,.09,.02c.03,0,.06,0,.08-.02l5.66-3.22c.06-.03,.1-.09,.09-.15,0-.06-.04-.12-.09-.15l-5.82-3.33c-.05-.03-.12-.03-.17,0l-5.66,3.21c-.05,.03-.08,.09-.08,.15,0,.06,.02,.12,.08,.15Zm19.71-8.44h-2.51v-4.13c0-1.23-1.18-2.35-2.48-2.35h-2.72V4.24c0-.57-.23-1.12-.68-1.57-.48-.49-1.16-.78-1.8-.78H3.15C1.91,1.89,.87,2.96,.87,4.24V24.51c0,1.27,1.04,2.34,2.28,2.34h3.92v4.13c0,1.27,1.04,2.34,2.28,2.34h3.71v4.14c0,1.27,1.04,2.34,2.27,2.34h10.29c.3,1.18,.28,1.91-.05,2.35-.65,.86-2.8,1.03-6.31,1.03h-.48v2.95h22.59v-2.95h-.48c-3.17,0-5.12-.14-5.64-.84-.34-.45-.21-1.34,.12-2.54h9.26c1.3,0,2.48-1.11,2.48-2.34V17.19c0-1.21-1.2-2.35-2.48-2.35ZM7.06,10.71v12.65h-2.73V5.38l29.1-.03v3.02h-9.48l-3.48-1.99c-.17-.07-.37-.07-.6,.03l-3.43,1.96h-7.11c-1.24,0-2.28,1.08-2.28,2.35Zm5.99,6.48v12.64h-2.52V11.84l28.09-.03v3.03h-9.43l-3.42-1.96c-.21-.14-.49-.14-.68-.02l-3.46,1.98h-6.3c-1.23,0-2.27,1.08-2.27,2.35Zm30.83,19.12H16.78V18.34l27.1-.05v18.02Z"/></svg>