<svg xmlns="http://www.w3.org/2000/svg" viewBox="0 0 48 48"><path fill="currentColor" d="M43.32,13.31h-.01c-.04-.15-.11-.29-.19-.43-.09-.15-.2-.3-.33-.42-.49-.69-1.13-1.26-1.86-1.69L26.99,2.8c-.91-.52-1.94-.8-2.99-.8s-2.08,.28-2.99,.8L7.06,10.77c-.75,.43-1.39,1.02-1.88,1.71-.12,.12-.22,.25-.3,.4-.07,.13-.13,.26-.18,.4-.41,.83-.63,1.74-.63,2.67v15.95c0,1.05,.28,2.08,.8,2.99,.52,.91,1.28,1.66,2.19,2.19l13.95,7.97c.63,.36,1.32,.61,2.03,.72,.29,.16,.62,.24,.95,.24s.66-.08,.95-.24c.72-.11,1.41-.36,2.05-.72l13.95-7.96c.91-.52,1.66-1.28,2.19-2.19,.52-.91,.8-1.94,.8-2.99V15.95c0-.92-.21-1.82-.61-2.64Zm-21.33,27.71h0l-12.94-7.4c-.3-.18-.55-.43-.73-.73-.17-.3-.27-.65-.27-1v-14.87l13.94,8.07v15.92h0Zm2.02-19.37h-.01L10.13,13.61l12.88-7.36c.3-.18,.65-.27,1-.27s.7,.09,1,.27l12.87,7.36-13.87,8.03Zm15.65,11.25c-.17,.3-.43,.55-.73,.73l-12.95,7.4v-15.93l13.94-8.07v14.87h.01c0,.35-.09,.69-.27,1Z"/></svg>