<svg xmlns="http://www.w3.org/2000/svg" viewBox="0 0 48 48"><path fill="currentColor" d="M14.31,10.48h19.46c1.1,0,2-.9,2-2s-.9-2-2-2H14.31c-1.1,0-2,.9-2,2s.9,2,2,2ZM14.31,17.72h19.46c1.1,0,2-.9,2-2s-.9-2-2-2H14.31c-1.1,0-2,.9-2,2s.9,2,2,2ZM14.31,32.18h19.46c1.1,0,2-.9,2-2s-.9-2-2-2H14.31c-1.1,0-2,.9-2,2s.9,2,2,2ZM14.31,24.96h19.46c1.1,0,2-.9,2-2s-.9-2-2-2H14.31c-1.1,0-2,.9-2,2s.9,2,2,2ZM43.08,20.11c-.57-.73-1.53-1.15-2.87-1.23l-.53-.03v15.92c0,.57-.15,1.02-.45,1.31-.32.32-.83.49-1.51.49H9.81c-.49,0-1-.04-1.37-.31-.41-.29-.61-.83-.61-1.69v-15.72h-.51c-1.09.04-1.94.32-2.54.84-.71.61-1.07,1.57-1.07,2.84v15.18c0,1.32.35,2.26,1.07,2.89.72.63,1.82.93,3.35.93h31.46c1.61,0,2.71-.4,3.37-1.23.51-.64.75-1.52.75-2.77v-15.28c0-.9-.2-1.59-.62-2.13Z"/></svg>