<svg xmlns="http://www.w3.org/2000/svg" viewBox="0 0 48 48"><path fill="currentColor" d="M40.3,32.7c-.5,0-.9,0-1.4,.2l-1.1-1.7c1.4-1.4,2.3-3.3,2.3-5.4,0-3.6-2.5-6.7-5.9-7.5v-3.2c2.7-.7,4.8-3.2,4.8-6.1s-2.8-6.3-6.3-6.3-6.3,2.8-6.3,6.3,1.9,5.2,4.4,6v3.3c-1.1,.3-2.1,.7-2.9,1.4L15.7,9.8c.2-.5,.3-1.1,.3-1.7,0-3-2.5-5.5-5.5-5.5s-5.5,2.5-5.5,5.5,2.5,5.5,5.5,5.5,2.2-.4,3.1-1l11.9,9.8c-.2,.4-.3,.8-.5,1.2l-11,2.6c-1.1-1.8-3.1-3-5.4-3-3.5,0-6.3,2.8-6.3,6.3s2.8,6.3,6.3,6.3,6.3-2.8,6.3-6.3l9.9-2.3c.2,1.2,.7,2.2,1.4,3.1l-4,4.5c-.6-.2-1.2-.4-1.9-.4-3,0-5.5,2.5-5.5,5.5s2.5,5.5,5.5,5.5,5.5-2.5,5.5-5.5-.3-2.1-.9-2.9l4-4.5c1,.5,2.2,.8,3.4,.8s1.7-.1,2.4-.4l1.2,1.8c-.8,.9-1.2,2.1-1.2,3.4,0,3,2.5,5.5,5.5,5.5s5.5-2.5,5.5-5.5-2.5-5.5-5.5-5.5ZM10.5,10c-1.1,0-2-.9-2-2s.9-2,2-2,2,.9,2,2-.9,2-2,2Zm-1.9,22.3c-1.6,0-2.8-1.3-2.8-2.8s1.3-2.8,2.8-2.8,2.8,1.3,2.8,2.8-1.3,2.8-2.8,2.8Zm11.7,9.7c-1.1,0-2-.9-2-2s.9-2,2-2,2,.9,2,2-.9,2-2,2ZM29.7,8.9c0-1.6,1.3-2.8,2.8-2.8s2.8,1.3,2.8,2.8-1.3,2.8-2.8,2.8-2.8-1.3-2.8-2.8Zm2.7,21c-2.3,0-4.2-1.9-4.2-4.2s1.9-4.2,4.2-4.2,4.2,1.9,4.2,4.2-1.9,4.2-4.2,4.2Zm7.9,10.3c-1.1,0-2-.9-2-2s.9-2,2-2,2,.9,2,2-.9,2-2,2Z"/></svg>