<svg xmlns="http://www.w3.org/2000/svg" viewBox="0 0 48 48"><path fill="currentColor" d="M20 8C15.5817 8 12 11.5817 12 16C12 20.4183 15.5817 24 20 24C24.4183 24 28 20.4183 28 16C28 11.5817 24.4183 8 20 8ZM8 16C8 9.37258 13.3726 4 20 4C26.6274 4 32 9.37258 32 16C32 22.6274 26.6274 28 20 28C13.3726 28 8 22.6274 8 16ZM43.3287 22.5052C44.1543 23.239 44.2287 24.5032 43.4948 25.3287L38.1615 31.3287C37.7819 31.7557 37.2379 32 36.6667 32C36.0954 32 35.5514 31.7557 35.1718 31.3287L32.5052 28.3287C31.7713 27.5032 31.8457 26.239 32.6713 25.5052C33.4968 24.7713 34.761 24.8457 35.4948 25.6713L36.6667 26.9896L40.5052 22.6713C41.239 21.8457 42.5032 21.7713 43.3287 22.5052ZM13 36C10.4811 36 8 38.4271 8 42C8 43.1046 7.10457 44 6 44C4.89543 44 4 43.1046 4 42C4 36.7364 7.78693 32 13 32H27C32.2131 32 36 36.7364 36 42C36 43.1046 35.1046 44 34 44C32.8954 44 32 43.1046 32 42C32 38.4271 29.5189 36 27 36H13Z"/></svg>