<svg xmlns="http://www.w3.org/2000/svg" viewBox="0 0 512 512"><path fill="currentColor" d="M235.53,355.09l-65.6-22.4-16.59,3.07-55.1,9.34c-2.72.46-4.71,2.82-4.71,5.57v94.05c0,2.75,1.92,5.12,4.61,5.69l1.74.37c.81.44,1.68.78,2.62.98l67.5,14.39,66.08-26.47c5.05-2.02,8.32-6.85,8.32-12.29v-59.89c0-5.61-3.57-10.6-8.88-12.42ZM125.93,441.47l-19.13-3.78v-80.5l19.13-3.07v87.35ZM159.38,447.58l-24.69-3.98v-91.06l24.69-4.25v99.29ZM232.41,427.39c0,.51-.31.96-.78,1.15l-61.36,24.59v-107.65l61.38,20.96c.45.15.76.58.76,1.06v59.89ZM263.49,163.57l1.74.37c.81.44,1.68.78,2.62.98l67.5,14.39,66.08-26.47c5.05-2.02,8.32-6.85,8.32-12.29v-59.89c0-5.61-3.57-10.6-8.88-12.42l-65.6-22.4-16.59,3.07-55.1,9.34c-2.72.46-4.71,2.82-4.71,5.57v94.05c0,2.75,1.92,5.12,4.61,5.69ZM335.61,58.64l61.38,20.96c.45.15.76.58.76,1.06v59.89c0,.51-.31.96-.78,1.15l-61.36,24.59V58.64ZM300.03,65.69l24.69-4.25v99.29l-24.69-3.98v-91.06ZM272.14,70.34l19.13-3.07v87.35l-19.13-3.78v-80.5ZM486.36,212.23l-65.6-22.4-16.59,3.07-55.1,9.34c-2.72.46-4.71,2.82-4.71,5.57v94.05c0,2.75,1.92,5.12,4.61,5.69l1.74.37c.81.44,1.68.78,2.62.98l67.5,14.39,66.08-26.47c5.05-2.02,8.32-6.85,8.32-12.29v-59.89c0-5.61-3.57-10.6-8.88-12.42ZM376.76,298.61l-19.13-3.78v-80.5l19.13-3.07v87.35ZM410.21,304.72l-24.69-3.98v-91.06l24.69-4.25v99.29ZM483.24,284.53c0,.51-.31.96-.78,1.15l-61.36,24.59v-107.65l61.38,20.96c.45.15.76.58.76,1.06v59.89ZM399.87,355.09l-65.6-22.4-16.59,3.07-55.1,9.34c-2.72.46-4.71,2.82-4.71,5.57v94.05c0,2.75,1.92,5.12,4.61,5.69l1.74.37c.81.44,1.68.78,2.62.98l67.5,14.39,66.08-26.47c5.05-2.02,8.32-6.85,8.32-12.29v-59.89c0-5.61-3.57-10.6-8.88-12.42ZM290.27,441.47l-19.13-3.78v-80.5l19.13-3.07v87.35ZM323.72,447.58l-24.69-3.98v-91.06l24.69-4.25v99.29ZM396.75,427.39c0,.51-.31.96-.78,1.15l-61.36,24.59v-107.65l61.38,20.96c.45.15.76.58.76,1.06v59.89ZM99.15,163.57l1.74.37c.81.44,1.68.78,2.62.98l67.5,14.39,66.08-26.47c5.05-2.02,8.32-6.85,8.32-12.29v-59.89c0-5.61-3.57-10.6-8.88-12.42l-65.6-22.4-16.59,3.07-55.1,9.34c-2.72.46-4.71,2.82-4.71,5.57v94.05c0,2.75,1.92,5.12,4.61,5.69ZM171.27,58.64l61.38,20.96c.45.15.76.58.76,1.06v59.89c0,.51-.31.96-.78,1.15l-61.36,24.59V58.64ZM135.69,65.69l24.69-4.25v99.29l-24.69-3.98v-91.06ZM107.8,70.34l19.13-3.07v87.35l-19.13-3.78v-80.5ZM331.97,284.53v-59.89c0-5.61-3.57-10.6-8.88-12.42l-65.6-22.4-16.59,3.07-55.1,9.34c-2.72.46-4.71,2.82-4.71,5.57v94.05c0,2.75,1.92,5.12,4.61,5.69l1.74.37c.81.44,1.68.78,2.62.98l67.5,14.39,66.08-26.47c5.05-2.02,8.32-6.85,8.32-12.29ZM213.49,298.61l-19.13-3.78v-80.5l19.13-3.07v87.35ZM246.94,304.72l-24.69-3.98v-91.06l24.69-4.25v99.29ZM319.97,284.53c0,.51-.31.96-.78,1.15l-61.36,24.59v-107.65l61.38,20.96c.45.15.76.58.76,1.06v59.89ZM167.63,284.53v-59.89c0-5.61-3.57-10.6-8.88-12.42l-65.6-22.4-16.59,3.07-55.1,9.34c-2.72.46-4.71,2.82-4.71,5.57v94.05c0,2.75,1.92,5.12,4.61,5.69l1.74.37c.81.44,1.68.78,2.62.98l67.5,14.39,66.08-26.47c5.05-2.02,8.32-6.85,8.32-12.29ZM49.15,298.61l-19.13-3.78v-80.5l19.13-3.07v87.35ZM82.6,304.72l-24.69-3.98v-91.06l24.69-4.25v99.29ZM155.63,284.53c0,.51-.31.96-.78,1.15l-61.36,24.59v-107.65l61.38,20.96c.45.15.76.58.76,1.06v59.89Z"/></svg>