<svg xmlns="http://www.w3.org/2000/svg" viewBox="0 0 48 48"><path fill="currentColor" d="M23.8,10.62c-.23-.13-.62-.22-.82-.11-2.15,1.2-4.28,2.45-6.53,3.74,2.22,1.3,4.29,2.52,6.38,3.71,.21,.12,.61,.14,.81,.02,2.08-1.22,4.13-2.46,6.35-3.79-2.19-1.27-4.18-2.44-6.2-3.57h0Zm-1.53,9.42c-.07-.11-.15-.21-.25-.27-2-1.19-4.02-2.37-6.27-3.67,0,2.26,.09,4.27-.03,6.26-.08,1.2,.32,1.83,1.37,2.37,1.77,.91,3.46,1.98,5.33,3.07,0-2.6,0-4.99-.01-7.39-.01-.12-.05-.25-.11-.36h-.02Zm8.68-4c-2.29,1.34-4.39,2.55-6.47,3.81-.18,.11-.3,.45-.3,.68-.02,2.34-.01,4.69-.01,7.28,1.76-1.02,3.3-2.06,4.95-2.84,1.46-.69,2.01-1.59,1.87-3.21-.16-1.82-.04-3.67-.04-5.73ZM43.21,1.97H4.08C1.84,1.97,.8,3.01,.8,5.23v27.91c0,2.27,1.01,3.28,3.26,3.28h2.19c3.34,0,6.68,0,10.02,.02,.3,0,.61,.1,.67,.15,.58,.93,.69,2.05,.28,3-.38,.89-1.16,1.51-2.15,1.7-2.08,.41-4.2,.51-5.81,.56-1.54,.04-1.55,1.11-1.55,1.66v.33c-.03,.49,.07,.87,.31,1.12,.33,.36,.81,.41,1.28,.41,9.08-.01,18.14-.01,27.21,0,.42,0,.93-.04,1.26-.42,.24-.27,.33-.65,.27-1.16-.01-.12,0-.24,0-.36,0-.36,.02-.82-.32-1.17-.25-.26-.62-.39-1.15-.39-2.06-.04-3.72-.19-5.23-.46-.85-.15-1.42-.46-1.75-.92-.34-.49-.42-1.22-.24-2.16,.03-.14,.07-.3,.11-.44,.07-.25,.13-.5,.16-.77,.05-.54,.23-.72,.95-.71,3.46,.03,6.91,.02,10.37,.02h2.34c2.37,0,3.51-1.16,3.51-3.54V5.57c0-2.45-1.14-3.6-3.57-3.6h-.01Zm-1.43,30.21H19.22c-4.54,0-9.08,0-13.61,.02-.47,0-.62-.05-.68-.11-.04-.04-.12-.19-.11-.65,.03-8.18,.03-16.47,0-24.65,0-.44,.07-.59,.12-.65,.04-.04,.18-.12,.6-.12,12.12,.02,24.24,.02,36.36,0,.58,0,.66,.02,.66,.69-.03,6.43-.02,12.87-.02,19.3v5.34h0c0,.36,0,.73,.02,.77-.09,.04-.45,.04-.79,.04Z"/></svg>