<svg xmlns="http://www.w3.org/2000/svg" viewBox="0 0 48 48"><path fill="currentColor" d="M42.06,20.96c1.07,0,1.94-.88,1.94-1.97v-5.61c0-1.09-.87-1.97-1.94-1.97h-5.51c-.48,0-.91,.18-1.25,.47l-3.04-1.91c.02-.12,.04-.25,.04-.38V3.97c0-1.09-.87-1.97-1.94-1.97h-5.51c-1.07,0-1.94,.88-1.94,1.97v5.61c0,.36,.09,.69,.25,.98l-5.64,6.53H5.94c-1.07,0-1.94,.88-1.94,1.97v12.16c0,1.09,.87,1.97,1.94,1.97h10.16l6.81,6.73v4.1c0,1.09,.87,1.97,1.94,1.97h5.51c1.07,0,1.94-.88,1.94-1.97v-5.27l3.16-2.5c.31,.22,.69,.34,1.09,.34h5.51c1.07,0,1.94-.88,1.94-1.97v-5.61c0-1.09-.87-1.97-1.94-1.97h-1.62v-6.08h1.62Zm-11.96-9.41l4.51,2.84v1.84l-3.76,1.42-3.72-6.1h2.97Zm4.27,7.44l-1.19,2.49-1.01-1.66,2.2-.83Zm-2.48,5.18l-2.17,4.55-9.9-2.07v-2.16l9.97-3.77,2.1,3.45Zm-7.11-11.67l3.69,6.05-8.65,3.27v-2.76c0-.24-.04-.47-.12-.68l5.08-5.88Zm1.27,23.95h-1.2c-.52,0-.99,.21-1.34,.55h0l-4.34-4.3c.4-.36,.66-.89,.66-1.48v-2.01l8.79,1.84-2.57,5.4Zm8.56-2.71l-3.58,2.83c-.21-.08-.43-.12-.67-.12h-1.54l2.32-4.87,3.47,.73v1.43Zm0-4.73v.74l-2.37-.5,1.21-2.53,1.19,1.95c-.02,.11-.03,.22-.03,.34Zm3.33-1.97h-1.37l-1.83-3.01,1.48-3.1c.11,.02,.22,.03,.33,.03h1.39v6.08Z"/></svg>