<svg xmlns="http://www.w3.org/2000/svg" viewBox="0 0 48 48"><path fill="currentColor" d="M23.7012 7.27877C23.889 7.17257 24.1187 7.17385 24.3047 7.28365L37.5049 15.0835C37.6871 15.1908 37.7987 15.3878 37.7988 15.6001V29.8364C39.3018 30.3626 40.6601 31.6071 40.6602 33.8139C40.6602 36.8955 38.1292 37.9157 36.79 38.0249L27.668 38.0161L22.7607 40.7251C22.6707 40.7749 22.5709 40.8003 22.4707 40.8003C22.3742 40.8002 22.2772 40.7767 22.1885 40.7299L7.51758 32.9292C7.32212 32.8254 7.1994 32.6221 7.19922 32.4008V15.6001C7.19932 15.3878 7.31123 15.1908 7.49414 15.0835L20.6934 7.28365C20.88 7.17385 21.1091 7.17257 21.2969 7.27877C21.4834 7.38556 21.5986 7.58491 21.5986 7.80025V15.0005C21.5986 15.205 21.4941 15.3965 21.3213 15.5063L14.999 19.5288V28.436L20.3662 31.2446C20.8258 30.617 21.4705 30.1302 22.2793 29.8344C22.2775 29.7691 22.2764 29.7035 22.2764 29.6381C22.2764 28.5805 22.6274 27.5053 23.208 26.5874L20.999 24.0005V28.8003H19.7988V18.6001H20.999V22.8003L24.707 18.7202H26.3047L22.2061 23.4721L24.0215 25.5776C24.4954 25.0971 25.0341 24.6971 25.6279 24.4458C27.321 23.7294 29.0885 23.8291 30.5986 24.6713V19.5444L23.6963 15.518C23.5117 15.4106 23.3994 15.2133 23.3994 15.0005V7.80025C23.3995 7.58496 23.5141 7.38558 23.7012 7.27877ZM8.39941 15.9428V32.0395L22.4658 39.518L25.1885 38.0141L23.8398 38.0131C21.6669 38.0106 19.8066 36.373 19.6055 34.2846C19.5899 34.1239 19.5811 33.9569 19.5811 33.7837C19.5811 33.2497 19.6696 32.7554 19.8232 32.3012L19.7393 32.2553L14.1221 29.3325C13.9241 29.2287 13.7988 29.0241 13.7988 28.8003V19.2006C13.7988 18.9954 13.9043 18.8036 14.0771 18.6938L20.3994 14.6713V8.85201L8.39941 15.9428ZM31.1104 26.5522C30.4516 25.891 28.6463 24.4724 26.0957 25.5512C24.6269 26.1734 23.4756 27.9683 23.4756 29.6381C23.4756 29.8216 23.4865 30.0027 23.5068 30.1801C23.511 30.2083 23.5127 30.2369 23.5127 30.2651C23.5126 30.5535 23.3087 30.7974 23.0342 30.854C22.1804 31.0796 20.7803 31.7581 20.7803 33.7837C20.7803 33.9172 20.7869 34.046 20.7988 34.1694C20.9422 35.6494 22.2786 36.8109 23.8408 36.813L36.7422 36.8266C36.9744 36.8032 39.4609 36.5037 39.4609 33.8139C39.4609 31.5106 37.5509 30.934 36.7295 30.7924C36.4189 30.7389 36.2048 30.4537 36.2354 30.143C36.1513 29.1249 35.6854 28.398 34.9834 28.1928C34.4105 28.0249 33.7928 28.2513 33.4111 28.7671C33.2798 28.9458 33.0575 29.0366 32.8398 29.0044C32.6203 28.972 32.4367 28.8201 32.3623 28.6108C32.0713 27.7858 31.6497 27.0928 31.1104 26.5522ZM24.5986 14.6557L31.502 18.6821C31.6859 18.7895 31.7988 18.9872 31.7988 19.2006V25.5639C31.8516 25.6137 31.9084 25.653 31.96 25.7046C32.4327 26.1785 32.8303 26.7403 33.1465 27.3823C33.7842 26.9559 34.5693 26.8225 35.3203 27.0415C35.8288 27.1903 36.2574 27.4822 36.5986 27.8803V15.9428L24.5986 8.85201V14.6557Z"/></svg>