<svg xmlns="http://www.w3.org/2000/svg" viewBox="0 0 48 48"><path fill="currentColor" d="M35.0069 12.6019C34.8128 12.4078 34.5822 12.2541 34.3281 12.1491C34.0741 12.0441 33.8022 11.9897 33.5284 11.9906H24.7422C24.1881 11.9906 23.6566 12.2109 23.2647 12.6028C22.8728 12.9947 22.6525 13.5263 22.6525 14.0803V22.8703C22.6525 23.6616 21.9072 23.6156 21.9072 23.6156H13.5991C13.3244 23.6156 13.0525 23.67 12.7994 23.775C12.5453 23.88 12.3156 24.0338 12.1216 24.2278C11.9275 24.4219 11.7738 24.6525 11.6688 24.9056C11.5638 25.1588 11.5094 25.4306 11.5094 25.7053V34.4944C11.5094 34.7691 11.5637 35.0409 11.6678 35.2941C11.7728 35.5481 11.9266 35.7778 12.1206 35.9728C12.3147 36.1669 12.5453 36.3206 12.7984 36.4256C13.0525 36.5306 13.3234 36.585 13.5981 36.585H22.3872C22.6619 36.585 22.9338 36.5306 23.1869 36.4256C23.4409 36.3206 23.6706 36.1669 23.8647 35.9728C24.0587 35.7788 24.2125 35.5481 24.3175 35.2941C24.4225 35.04 24.4769 34.7681 24.4759 34.4944V25.7053C24.4759 25.7053 24.43 24.96 25.0272 24.96H33.5275C33.8022 24.96 34.0741 24.9056 34.3272 24.8016C34.5812 24.6966 34.8109 24.5428 35.0059 24.3488C35.2 24.1547 35.3537 23.9241 35.4587 23.6709C35.5637 23.4178 35.6181 23.1459 35.6181 22.8713V14.0813C35.6181 13.8066 35.5637 13.5347 35.4587 13.2816C35.3537 13.0275 35.2 12.7978 35.0059 12.6038L35.0069 12.6019ZM44.0481 3.66188C42.985 2.59782 41.5422 2.00063 40.0384 1.99969H19.0094C17.5047 1.99969 16.0628 2.59688 14.9988 3.66094C13.9347 4.72501 13.3375 6.16688 13.3375 7.67157V13.6228H7.96094C7.21656 13.6228 6.47875 13.77 5.79062 14.055C5.1025 14.34 4.47719 14.7581 3.95031 15.2841C2.88625 16.3481 2.28906 17.79 2.28906 19.2947V40.3275C2.28906 41.8322 2.88625 43.2741 3.95031 44.3381C4.47719 44.865 5.1025 45.2822 5.79062 45.5672C6.47875 45.8522 7.21656 45.9984 7.96094 45.9984H28.99C30.4947 45.9984 31.9366 45.4013 33.0006 44.3372C34.0647 43.2731 34.6619 41.8313 34.6619 40.3266V34.3734H40.0366C40.7819 34.3734 41.5187 34.2263 42.2069 33.9422C42.895 33.6572 43.5203 33.2391 44.0472 32.7131C44.5741 32.1863 44.9912 31.5609 45.2762 30.8728C45.5612 30.1847 45.7084 29.4469 45.7084 28.7025V7.67157C45.7084 6.16782 45.1112 4.72501 44.0481 3.66188ZM39.7534 25.4606C39.7516 26.3475 39.3981 27.1969 38.7709 27.8231C38.1437 28.4494 37.2934 28.8019 36.4075 28.8038H28.7059V37.0819C28.7059 37.5216 28.6197 37.9566 28.4509 38.3625C28.2831 38.7685 28.0366 39.1378 27.7253 39.4481C27.415 39.7584 27.0456 40.005 26.6397 40.1728C26.2337 40.3406 25.7988 40.4269 25.3591 40.4269H10.8203C10.3806 40.4269 9.94562 40.3406 9.53969 40.1728C9.13375 40.005 8.76437 39.7584 8.45406 39.4481C8.14375 39.1378 7.89719 38.7685 7.72844 38.3625C7.56063 37.9566 7.47344 37.5216 7.47344 37.0819V22.5384C7.47344 21.6516 7.82688 20.8013 8.455 20.1741C9.08219 19.5469 9.93344 19.1953 10.8203 19.1953H18.5219V10.9172C18.5219 10.0303 18.8744 9.17907 19.5016 8.55188C20.1288 7.9247 20.98 7.57219 21.8669 7.57219H36.4066C37.2944 7.57219 38.1447 7.9247 38.7728 8.55188C39.4 9.17907 39.7534 10.0303 39.7534 10.9172V25.4606Z"/></svg>