<svg xmlns="http://www.w3.org/2000/svg" viewBox="0 0 48 48"><path fill="currentColor" d="M32.7393 28.8069C32.9446 28.7258 33.1746 28.7258 33.3799 28.8069L37.6934 30.5324C38.0212 30.6644 38.2363 30.9814 38.2363 31.3342V37.3733C38.2363 37.7261 38.0212 38.043 37.6934 38.175L33.3799 39.9006C33.2772 39.9412 33.1683 39.9621 33.0596 39.9621C32.9509 39.9621 32.8419 39.9411 32.7393 39.9006L28.7461 38.3029V43.4133C28.746 43.7661 28.5309 44.0831 28.2031 44.2151L23.8896 45.9397C23.787 45.9802 23.678 46.0012 23.5693 46.0012C23.4606 46.0012 23.3517 45.9802 23.249 45.9397L18.9355 44.2151C18.6078 44.0831 18.3927 43.7661 18.3926 43.4133V38.3029L14.3984 39.9006C14.296 39.941 14.1876 39.9621 14.0791 39.9621C13.9704 39.9621 13.8614 39.9411 13.7588 39.9006L9.44531 38.175C9.11746 38.043 8.90234 37.7261 8.90234 37.3733V31.3342C8.9024 30.9814 9.11751 30.6644 9.44531 30.5324L13.7588 28.8069C13.9639 28.7259 14.1933 28.726 14.3984 28.8069L18.7129 30.5324C19.0407 30.6644 19.2548 30.9814 19.2549 31.3342V36.4445L23.249 34.8469C23.4544 34.7658 23.6843 34.7658 23.8896 34.8469L27.8828 36.4445V31.3342C27.8829 30.9814 28.098 30.6644 28.4258 30.5324L32.7393 28.8069ZM20.1182 42.8293L22.7061 43.8645V39.6838L20.1182 38.6477V42.8293ZM24.4316 39.6838V43.8645L27.0205 42.8293V38.6477L24.4316 39.6838ZM21.5781 37.3733L23.5693 38.1701L25.5605 37.3733L23.5693 36.5774L21.5781 37.3733ZM10.6279 36.7893L13.2158 37.8254V33.6438L10.6279 32.6086V36.7893ZM14.9414 33.6438V37.8254L17.5303 36.7893V32.6086L14.9414 33.6438ZM29.6084 36.7893L32.1973 37.8254V33.6438L29.6084 32.6086V36.7893ZM33.9229 33.6438V37.8254L36.5107 36.7893V32.6086L33.9229 33.6438ZM12.0879 31.3342L14.0791 32.1311L16.0703 31.3342L14.0791 30.5383L12.0879 31.3342ZM31.0684 31.3342L33.0596 32.1311L35.0508 31.3342L33.0596 30.5383L31.0684 31.3342ZM37.6191 14.0949C42.4678 15.5366 45.1385 17.6568 45.1387 20.0647C45.1387 25.1075 34.0252 27.8293 23.5693 27.8293C13.1134 27.8293 2 25.1075 2 20.0647C2.00014 17.6568 4.67013 15.5366 9.51855 14.0949L10.0107 15.7492C6.13365 16.9018 3.72579 18.5557 3.72559 20.0647C3.72559 22.9213 11.8745 26.1047 23.5693 26.1047C35.2641 26.1047 43.4131 22.9213 43.4131 20.0647C43.4129 18.5558 41.0049 16.9018 37.1279 15.7492L37.6191 14.0949ZM23.2598 2.05685C23.4598 1.98108 23.6789 1.98102 23.8789 2.05685L35.0947 6.3713C35.4278 6.49986 35.6484 6.81978 35.6484 7.17697V18.9524C35.6483 20.4551 34.7649 21.8164 33.3984 22.4211C31.5021 23.2692 28.2548 24.2834 23.5693 24.2834C18.8837 24.2834 15.6363 23.269 13.7373 22.4192C12.3734 21.8161 11.4904 20.4551 11.4902 18.9524V7.17697C11.4902 6.81978 11.7109 6.49986 12.0439 6.3713L23.2598 2.05685ZM13.2158 18.9524C13.216 19.7726 13.6958 20.5152 14.4375 20.843C16.0681 21.5729 18.7996 22.4214 22.7061 22.5354V12.0832L13.2158 8.4338V18.9524ZM24.4316 12.0832V22.5354C28.3382 22.4215 31.0701 21.5731 32.6973 20.8449C33.4426 20.5154 33.9227 19.7727 33.9229 18.9524V8.4338L24.4316 12.0832ZM14.7568 7.17697L23.5693 10.5666L32.3818 7.17697L23.5693 3.78732L14.7568 7.17697Z"/></svg>