<svg xmlns="http://www.w3.org/2000/svg" viewBox="0 0 48 48"><path fill="currentColor" d="M34.94,17.01l-10.34-5.97c-.37-.21-.82-.21-1.18,0l-10.34,5.97c-.37.21-.59.61-.59,1.03v11.94c0,.42.23.8.59,1l10.34,5.97c.37.21.82.21,1.18,0l10.34-5.97c.37-.21.59-.61.59-1.03v-11.91c0-.43-.22-.82-.59-1.03ZM33.55,28.83l-3.61-2.07v-5.5l-5.32,3.04v6.18l4.76-2.75,3.61,2.07-8.93,5.17-8.93-5.17,3.61-2.07,4.76,2.75v-6.15l-5.32-3.04v5.47l-3.61,2.07v-10.32l8.93-5.17v4.17l-4.76,2.75,5.32,3.04,5.32-3.04-4.76-2.75v-4.17l8.93,5.17v10.32ZM46.78,21.22l-9.04-15.72c-.96-1.67-2.74-2.73-4.7-2.77H14.93c-1.92.04-3.71,1.1-4.66,2.76L1.23,21.19c-.97,1.68-.97,3.76,0,5.43l9.03,15.78c.93,1.7,2.72,2.8,4.71,2.86h18.13c1.94-.06,3.73-1.16,4.65-2.84l9.04-15.72c.96-1.69.96-3.79,0-5.48ZM44.17,25.22l-9.05,15.74c-.43.78-1.24,1.28-2.08,1.31H15.01c-.89-.03-1.7-.53-2.14-1.33L3.83,25.12c-.43-.75-.43-1.68,0-2.43L12.87,7c.44-.76,1.25-1.24,2.09-1.26h18.05c.88.02,1.69.5,2.13,1.26l9.03,15.7h0c.44.78.44,1.75,0,2.52Z"/></svg>