<svg xmlns="http://www.w3.org/2000/svg" viewBox="0 0 48 48"><path fill="currentColor" d="M1.32563 26.003C4.20844 26.4014 7.11 26.8308 10.0106 27.2592C10.4616 27.3052 10.6781 27.2592 10.6781 26.7614L10.6725 18.1364C10.6725 17.6592 10.4719 17.4998 10.005 17.4998H5.63437C4.17562 17.4998 2.76469 17.4998 1.29187 17.4539C0.72 17.4558 0.5625 17.6133 0.5625 18.187C0.594375 20.5308 0.594375 22.8239 0.5625 25.1198C0.5625 25.717 0.75 25.9102 1.32563 26.003ZM12.7762 27.5967C16.6547 28.1395 20.5472 28.6692 24.3947 29.2411C24.9666 29.3348 25.1569 29.2092 25.1569 28.6045V23.4436C25.1569 21.7214 25.1269 20.0105 25.1887 18.278C25.1887 17.7061 25.0331 17.4558 24.3984 17.4558C20.505 17.4558 16.5956 17.4558 12.6244 17.4248C12.0197 17.4248 11.8341 17.6123 11.8341 18.2161C11.8659 20.993 11.8969 23.753 11.8341 26.4989C11.8322 27.2592 12.0787 27.5077 12.7762 27.6005V27.5967ZM12.705 16.4611C14.6588 16.4292 16.6144 16.4611 18.5681 16.4611C20.5219 16.4611 22.4775 16.4292 24.4003 16.4611C24.9422 16.4611 25.1625 16.3036 25.1288 15.7317C25.0978 14.8158 25.1288 13.9008 25.1288 12.9848C25.1597 10.4995 25.1288 7.97485 25.1288 5.49422C25.1288 5.10516 25.2544 4.63641 24.5569 4.7311C20.5519 5.34328 16.5469 5.90578 12.5419 6.47485C12.03 6.5686 11.8434 6.7561 11.8434 7.29703C11.8753 10.0739 11.8753 12.8339 11.8434 15.6408C11.8472 16.3392 12.1003 16.4648 12.705 16.4648V16.4611ZM6.075 35.303H2.55V31.9073H0.632812V40.4189H2.55V36.9502H6.075V40.4189H7.99781V31.9073H6.075V35.303ZM1.32094 16.4639H5.63344C7.04438 16.4639 8.50406 16.433 9.94594 16.433C10.4878 16.433 10.7372 16.3392 10.7372 15.7355V7.48547C10.7372 6.94172 10.6744 6.72235 10.0069 6.81797C7.11625 7.28297 4.22094 7.70078 1.32094 8.07141C0.748125 8.16516 0.591562 8.35266 0.591562 8.89453C0.620625 11.1745 0.620625 13.4377 0.591562 15.7036C0.591562 16.2773 0.777187 16.4639 1.32094 16.4639ZM35.3119 37.8314H38.5584V36.5189H35.3119V37.8314ZM45.4313 31.9073L43.6687 37.807C43.5792 38.0915 43.5164 38.3837 43.4812 38.6798H43.4456C43.4168 38.3935 43.359 38.1108 43.2731 37.8361L41.4984 31.912H39.4359L42.3328 40.4236H44.505L47.4375 31.9073H45.4313ZM12.5447 38.0508C12.4601 38.3129 12.3946 38.5808 12.3488 38.8523H12.3253C12.2929 38.5768 12.2371 38.3046 12.1584 38.0386L11.025 34.3411H8.9475L11.4169 40.4058L11.0963 41.1558C10.9088 41.6114 10.5725 41.8389 10.0875 41.8383C9.80191 41.8419 9.52069 41.768 9.27375 41.6245V43.1198C9.63757 43.2335 10.0178 43.2857 10.3987 43.2745C11.5937 43.2745 12.4881 42.4852 13.0819 40.9064L15.5503 34.3439H13.6875L12.5447 38.0508ZM32.3147 35.4689H32.2913V34.3439H30.4163V40.4217H32.2913V37.5155C32.2913 37.0017 32.4059 36.5955 32.6353 36.2967C32.7465 36.1505 32.8915 36.0333 33.0579 35.9553C33.2243 35.8772 33.407 35.8406 33.5906 35.8486C33.8653 35.8437 34.1368 35.9082 34.38 36.0361V34.3055C34.2318 34.2516 34.0744 34.2274 33.9169 34.2342C33.1456 34.2342 32.6116 34.6458 32.3147 35.4689ZM20.1562 34.193C19.3175 34.193 18.6666 34.547 18.2034 35.2552H18.18V34.3411H16.305V43.2183H18.18V39.713H18.2034C18.5866 40.2823 19.1444 40.567 19.8769 40.567C20.7088 40.567 21.3747 40.2605 21.8747 39.6473C22.3747 39.0342 22.6247 38.2217 22.6247 37.2098C22.6247 36.2798 22.41 35.5448 21.9806 35.0048C21.5513 34.4648 20.9431 34.1942 20.1562 34.193ZM20.3438 38.6358C20.2332 38.7955 20.084 38.9247 19.9101 39.0112C19.7362 39.0978 19.5432 39.1389 19.3491 39.1308C19.1829 39.1361 19.0179 39.103 18.8666 39.034C18.7154 38.9651 18.5821 38.8622 18.4772 38.7333C18.2547 38.4677 18.1437 38.1239 18.1444 37.702V37.2183C18.1444 36.7395 18.2659 36.3545 18.5091 36.0633C18.6216 35.9238 18.7647 35.812 18.9272 35.7364C19.0897 35.6609 19.2674 35.6235 19.4466 35.6273C20.2772 35.6273 20.6925 36.1614 20.6925 37.2295C20.6969 37.8364 20.5806 38.3052 20.3438 38.6358ZM26.5134 34.193C26.1126 34.1848 25.7144 34.2591 25.3435 34.4111C24.9726 34.5632 24.6369 34.7899 24.3572 35.077C23.7722 35.6664 23.4794 36.4658 23.4788 37.4752C23.4788 38.4483 23.75 39.207 24.2925 39.7514C24.835 40.2958 25.5966 40.5677 26.5772 40.567C27.4753 40.567 28.2053 40.4167 28.7672 40.1161V38.7633C28.2368 39.086 27.6254 39.2505 27.0047 39.2377C25.9559 39.2377 25.4 38.7964 25.3369 37.9139H29.3016V37.1245C29.3016 36.2227 29.0591 35.5086 28.5741 34.9823C28.0891 34.4561 27.4031 34.193 26.5162 34.193H26.5134ZM25.32 36.7627C25.3555 36.4184 25.4955 36.0932 25.7212 35.8308C25.8152 35.7142 25.934 35.6201 26.0689 35.5552C26.2038 35.4903 26.3515 35.4564 26.5012 35.4558C27.2056 35.4558 27.5578 35.8911 27.5578 36.7617L25.32 36.7627Z"/></svg>