<svg xmlns="http://www.w3.org/2000/svg" viewBox="0 0 48 48"><path fill="currentColor" d="M35.54,31.87l-2.37,2.37v-10.24c0-1.01-.82-1.83-1.83-1.83s-1.83,.82-1.83,1.83v10.24l-2.37-2.37c-.72-.72-1.88-.72-2.59,0-.72,.72-.72,1.88,0,2.59l5.5,5.5c.72,.72,1.88,.72,2.59,0l5.5-5.5c.72-.72,.72-1.88,0-2.59-.72-.72-1.88-.72-2.59,0Zm-4.2-15.2c-.62,0-1.23,.04-1.83,.11v-1.95c0-2.03-1.64-3.67-3.67-3.67h-5.5V5.67c0-2.03-1.64-3.67-3.67-3.67H5.67c-2.03,0-3.67,1.64-3.67,3.67v11c0,2.03,1.64,3.67,3.67,3.67h5.5v5.5c0,2.03,1.64,3.67,3.67,3.67h1.95c-.07,.6-.11,1.21-.11,1.83,0,8.1,6.57,14.67,14.67,14.67s14.67-6.57,14.67-14.67-6.57-14.67-14.67-14.67Zm-20.17-1.83v1.83H5.67V5.67h11v5.5h-1.83c-2.03,0-3.67,1.64-3.67,3.67Zm3.67,11V14.83h11v2.9c-3.68,1.49-6.61,4.42-8.1,8.1h-2.9Zm16.5,16.5c-3.32,0-6.3-1.47-8.32-3.8-1.67-1.93-2.68-4.45-2.68-7.2,0-6.08,4.92-11,11-11,2.75,0,5.27,1.01,7.2,2.68,2.33,2.02,3.8,4.99,3.8,8.32,0,6.08-4.92,11-11,11Z"/></svg>