<svg xmlns="http://www.w3.org/2000/svg" viewBox="0 0 48 48"><path fill="currentColor" d="M6,4H30c.53,0,1.04,.21,1.41,.59,.38,.38,.59,.88,.59,1.41V14h4c.53,0,1.04,.21,1.41,.59,.38,.38,.59,.88,.59,1.41v8h4c.53,0,1.04,.21,1.41,.59s.59,.88,.59,1.41v16c0,.53-.21,1.04-.59,1.41s-.88,.59-1.41,.59H26c-.53,0-1.04-.21-1.41-.59s-.59-.88-.59-1.41v-4h-8c-.53,0-1.04-.21-1.41-.59-.38-.38-.59-.88-.59-1.41v-4H6c-.53,0-1.04-.21-1.41-.59-.38-.38-.59-.88-.59-1.41V6c0-.53,.21-1.04,.59-1.41,.38-.38,.88-.59,1.41-.59h0ZM28,40h12v-12h-12v12Zm-10-6h6v-8c0-.53,.21-1.04,.59-1.41s.88-.59,1.41-.59h8v-6h-16v16Zm-10-6h6v-12c0-.53,.21-1.04,.59-1.41,.38-.38,.88-.59,1.41-.59h12V8H8V28Z"/></svg>