<svg xmlns="http://www.w3.org/2000/svg" viewBox="0 0 48 48"><path fill="currentColor" d="M21.3406 15.35H26.7606C27.8606 15.35 28.7606 14.45 28.7606 13.35C28.7606 12.25 27.8606 11.35 26.7606 11.35H21.3406C20.2406 11.35 19.3406 12.25 19.3406 13.35C19.3406 14.45 20.2406 15.35 21.3406 15.35ZM24.0006 32.65C22.6906 32.65 21.6306 33.71 21.6306 35.02C21.6306 36.33 22.6906 37.39 24.0006 37.39C25.3106 37.39 26.3706 36.33 26.3706 35.02C26.3706 33.71 25.3106 32.65 24.0006 32.65ZM8.89063 15.35C9.99063 15.35 10.8906 14.45 10.8906 13.35C10.8906 12.25 9.99063 11.35 8.89063 11.35H4.61063C3.08063 11.35 1.89062 12.67 1.89062 14.35V41.67C1.89062 43.35 3.09063 44.67 4.61063 44.67H8.89063C9.99063 44.67 10.8906 43.77 10.8906 42.67C10.8906 41.57 9.99063 40.67 8.89063 40.67H5.88063V15.35H8.89063ZM31.4806 3.33002H16.5306C14.8806 3.33002 13.5306 4.68002 13.5306 6.33002V41.66C13.5306 43.31 14.8806 44.66 16.5306 44.66H31.4806C33.1306 44.66 34.4806 43.31 34.4806 41.66V6.33002C34.4806 4.68002 33.1306 3.33002 31.4806 3.33002ZM30.4806 40.67H17.5306V7.33002H30.4806V40.66V40.67ZM43.3906 11.35H39.1106C38.0106 11.35 37.1106 12.25 37.1106 13.35C37.1106 14.45 38.0106 15.35 39.1106 15.35H42.1206V40.67H39.1106C38.0106 40.67 37.1106 41.57 37.1106 42.67C37.1106 43.77 38.0106 44.67 39.1106 44.67H43.3906C44.9206 44.67 46.1106 43.35 46.1106 41.67V14.35C46.1106 12.67 44.9106 11.35 43.3906 11.35Z"/></svg>