<svg xmlns="http://www.w3.org/2000/svg" viewBox="0 0 48 48"><path fill="currentColor" d="M23.73,16.9c-3.7,0-6.7,3-6.7,6.7s3,6.7,6.7,6.7,6.7-3,6.7-6.7-3-6.7-6.7-6.7Zm0,9.4c-1.49,0-2.7-1.21-2.7-2.7s1.21-2.7,2.7-2.7,2.7,1.21,2.7,2.7-1.21,2.7-2.7,2.7Zm17.05-4.63l-3.56-8.6,2.13-2.13-2.83-2.83-2.18,2.18-8.54-3.54V3.67h-4v3.14l-8.51,3.52-2.22-2.22-2.83,2.83,2.22,2.22-3.62,8.73v-.22H3.79v4h3.05v-.1l3.58,8.64-2.18,2.18,2.83,2.83,2.13-2.13,8.6,3.56v3.01h4v-2.96l8.63-3.58,2.09,2.09,2.83-2.83-2.09-2.09,3.58-8.63h2.96v-4h-3.01Zm-6.59,9.57l-2.34-2.34c-.74,1.13-1.7,2.09-2.83,2.83l2.34,2.34-7.51,3.11-7.6-3.15,2.25-2.25c-1.13-.73-2.11-1.68-2.85-2.8l-2.17,2.17-3.07-7.42,3.11-7.51,2.09,2.09c.74-1.13,1.7-2.09,2.83-2.83l-2.09-2.09,7.51-3.11,7.42,3.07-2.17,2.17c1.12,.75,2.08,1.72,2.8,2.85l2.25-2.25,3.15,7.6-3.11,7.51Z"/></svg>