<svg xmlns="http://www.w3.org/2000/svg" viewBox="0 0 48 48"><path fill="currentColor" d="M32,16c-.68,0-1.34,.04-2,.12v-2.12c0-2.21-1.79-4-4-4h-6V4c0-2.21-1.79-4-4-4H4C1.79,0,0,1.79,0,4v12c0,2.21,1.79,4,4,4h6v6c0,2.21,1.79,4,4,4h2.12c-.08,.66-.12,1.32-.12,2,0,8.84,7.16,16,16,16s16-7.16,16-16-7.16-16-16-16Zm-22-2v2H4V4h12v6h-2c-2.21,0-4,1.79-4,4Zm4,12V14h12v3.16c-4.01,1.62-7.21,4.83-8.84,8.84h-3.16Zm18,18c-3.62,0-6.87-1.61-9.07-4.15-1.82-2.1-2.93-4.85-2.93-7.85,0-6.63,5.37-12,12-12,3,0,5.75,1.1,7.85,2.93,2.54,2.2,4.15,5.45,4.15,9.07,0,6.63-5.37,12-12,12Zm4.5-19.32l-7.84,10.32-1.17-2.32c-.73-.83-2-.9-2.82-.17s-.9,2-.17,2.82l2.67,4c.38,.43,.92,.67,1.49,.67s1.12-.24,1.5-.67l9.33-12c.73-.83,.66-2.09-.17-2.82s-2.09-.66-2.82,.17Z"/></svg>