<svg xmlns="http://www.w3.org/2000/svg" viewBox="0 0 48 48"><path fill="currentColor" d="M35.92,1.94c-2.26,0-4.37,.64-6.18,1.72L24.94,.92c-.99-.57-2.11-.87-3.25-.87s-2.26,.3-3.25,.87L3.25,9.6c-.81,.47-1.51,1.11-2.05,1.87-.13,.13-.24,.27-.33,.43-.08,.14-.14,.28-.19,.43C.23,13.23,0,14.22,0,15.23v17.36c0,1.14,.3,2.27,.88,3.26s1.4,1.81,2.39,2.38l15.18,8.67c.68,.39,1.43,.66,2.21,.79,.32,.17,.67,.26,1.04,.26s.72-.09,1.03-.26c.78-.12,1.54-.39,2.23-.79l15.18-8.66c.99-.57,1.81-1.39,2.38-2.38s.87-2.11,.87-3.25v-9.09c2.81-2.21,4.62-5.64,4.62-9.48,0-6.66-5.42-12.08-12.08-12.08ZM19.52,42.53l-14.1-8.06c-.33-.19-.6-.47-.79-.79-.19-.33-.29-.7-.29-1.08V16.41l15.18,8.78v17.34Zm2.17-21.09L6.59,12.69,20.61,4.69c.33-.19,.7-.29,1.09-.29,.38,0,.76,.1,1.09,.29l3.54,2.02c-1.55,2.03-2.49,4.56-2.49,7.31,0,1.95,.47,3.79,1.3,5.42l-3.44,1.99Zm17.34,11.16c0,.38-.1,.75-.29,1.08-.19,.33-.46,.6-.79,.79l-14.09,8.05V25.19l3.92-2.27c2.15,1.97,5,3.18,8.14,3.18,1.08,0,2.12-.16,3.11-.42v6.91Zm-3.11-10.52c-4.44,0-8.05-3.61-8.05-8.05s3.61-8.05,8.05-8.05,8.05,3.61,8.05,8.05-3.61,8.05-8.05,8.05Zm2.49-11.12l-3.33,3.8-1.66-1.39c-.85-.71-2.1-.59-2.81,.26-.71,.85-.59,2.11,.26,2.81l3.16,2.63c.37,.31,.82,.46,1.28,.46,.56,0,1.11-.23,1.5-.68l4.62-5.27c.73-.83,.64-2.09-.19-2.82-.83-.72-2.09-.65-2.82,.19Z"/></svg>