<svg xmlns="http://www.w3.org/2000/svg" viewBox="0 0 48 48"><path fill="currentColor" d="M13.62,34.37c-.28-.28-.65-.48-1.04-.56s-.8-.04-1.18,.12-.69,.42-.91,.75c-.22,.33-.34,.73-.34,1.13,0,.54,.22,1.06,.6,1.44,.38,.38,.9,.6,1.44,.6,.4,0,.8-.12,1.13-.34,.33-.22,.6-.54,.75-.91s.19-.78,.12-1.18c-.08-.39-.27-.76-.56-1.04ZM31.33,7.5c-1.01,0-1.83,.82-1.83,1.83v9.17c0,1.01,.82,1.83,1.83,1.83s1.83-.82,1.83-1.83V9.33c0-1.01-.82-1.83-1.83-1.83Zm-2.85,26.28h-8.15c-.54,0-1.06,.21-1.44,.6-.38,.38-.6,.9-.6,1.44s.21,1.06,.6,1.44c.38,.38,.9,.6,1.44,.6h8.15c.54,0,1.06-.21,1.44-.6,.38-.38,.6-.9,.6-1.44s-.21-1.06-.6-1.44c-.38-.38-.9-.6-1.44-.6ZM31.33,2c-5.43,0-10.17,2.95-12.7,7.33h-3.93c-1.14,0-2.25,.31-3.22,.91-.97,.6-1.75,1.45-2.25,2.47L2.43,26.33c-.28,.57-.43,1.19-.43,1.82v11.73c0,1.62,.64,3.18,1.79,4.32,1.15,1.15,2.7,1.79,4.32,1.79h24.45c1.62,0,3.17-.65,4.32-1.79,1.15-1.15,1.79-2.7,1.79-4.32v-10.52c4.38-2.54,7.33-7.28,7.33-12.7,0-8.1-6.57-14.67-14.67-14.67ZM12.88,14.53c.17-.34,.43-.63,.75-.82s.69-.3,1.07-.3h2.33c-.24,1.05-.36,2.14-.36,3.26,0,3.38,1.14,6.48,3.06,8.96H7.33l5.55-11.1Zm21.71,25.35c0,.54-.22,1.06-.6,1.44s-.9,.6-1.44,.6H8.11c-.54,0-1.06-.22-1.44-.6-.38-.38-.6-.9-.6-1.44v-10.18H24.61c2.01,1.04,4.3,1.63,6.73,1.63,1.12,0,2.21-.13,3.26-.36v8.92Zm-3.26-12.22c-6.08,0-11-4.92-11-11s4.92-11,11-11,11,4.92,11,11-4.92,11-11,11Zm0-5.5c-1.01,0-1.83,.82-1.83,1.83s.82,1.83,1.83,1.83,1.83-.82,1.83-1.83-.82-1.83-1.83-1.83Z"/></svg>