<svg xmlns="http://www.w3.org/2000/svg" viewBox="0 0 48 48"><path fill="currentColor" d="M35.81,1.86c-2.31,0-4.47,.66-6.31,1.78L24.87,.99c-.99-.57-2.1-.87-3.24-.87s-2.25,.3-3.24,.87L3.24,9.64c-.81,.47-1.51,1.1-2.04,1.86-.13,.13-.23,.27-.33,.43-.08,.14-.14,.28-.19,.43C.23,13.26,0,14.25,0,15.26v17.3c0,1.14,.3,2.26,.87,3.25s1.39,1.8,2.38,2.37l15.14,8.65c.68,.39,1.43,.66,2.2,.78,.31,.17,.67,.26,1.03,.26s.71-.09,1.03-.26c.78-.12,1.53-.39,2.22-.79l15.13-8.64c.99-.57,1.81-1.39,2.37-2.38,.57-.99,.87-2.11,.87-3.24v-8.88c2.88-2.23,4.75-5.72,4.75-9.64,0-6.72-5.47-12.19-12.19-12.19ZM19.46,42.47l-14.05-8.03c-.33-.19-.6-.46-.79-.79-.19-.33-.29-.7-.29-1.08V16.43l15.13,8.75v17.29Zm2.17-21.02L6.57,12.73l13.97-7.99c.33-.19,.7-.29,1.08-.29,.38,0,.76,.1,1.09,.29l3.4,1.95c-1.56,2.05-2.5,4.6-2.5,7.36,0,1.97,.48,3.83,1.31,5.48l-3.31,1.91Zm17.29,11.13c0,.38-.1,.75-.29,1.08-.19,.33-.46,.6-.79,.79l-14.05,8.03V25.19l3.77-2.18c2.17,2,5.07,3.24,8.25,3.24,1.07,0,2.11-.15,3.1-.42v6.74Zm-3.1-10.39c-4.48,0-8.13-3.65-8.13-8.13s3.65-8.13,8.13-8.13,8.13,3.65,8.13,8.13-3.65,8.13-8.13,8.13Zm4.75-12.88c-.76-.76-2-.76-2.77,0l-1.99,1.99-1.99-1.99c-.76-.76-2-.76-2.77,0-.76,.76-.76,2,0,2.77l1.99,1.99-1.99,1.99c-.76,.76-.76,2,0,2.77,.38,.38,.88,.57,1.38,.57s1-.19,1.38-.57l1.99-1.99,1.99,1.99c.38,.38,.88,.57,1.38,.57s1-.19,1.38-.57c.76-.76,.76-2,0-2.77l-1.99-1.99,1.99-1.99c.76-.76,.76-2,0-2.77Z"/></svg>