<svg xmlns="http://www.w3.org/2000/svg" viewBox="0 0 48 48"><path fill="currentColor" d="M43.1,4.6h-7.7c-1,0-1.9,.8-1.9,1.9v11.1c0,1,.8,1.9,1.9,1.9h2v3.5h-11.6v-3.5h2c1,0,1.9-.8,1.9-1.9V6.5c0-1-.8-1.9-1.9-1.9h-7.7c-1,0-1.9,.8-1.9,1.9v11.1c0,1,.8,1.9,1.9,1.9h2v3.5H10.6v-3.5h2c1,0,1.9-.8,1.9-1.9V6.5c0-1-.8-1.9-1.9-1.9H4.9c-1,0-1.9,.8-1.9,1.9v11.1c0,1,.8,1.9,1.9,1.9h1.9v5.4c0,1,.8,1.9,1.9,1.9h13.4v2.5c-3.1,.8-5.4,3.6-5.4,6.9s3.2,7.2,7.2,7.2,7.2-3.2,7.2-7.2-2.2-6-5.2-6.9v-2.6h13.4c1,0,1.9-.8,1.9-1.9v-5.4h2c1,0,1.9-.8,1.9-1.9V6.5c0-1-.8-1.9-1.9-1.9ZM6.7,15.7v-7.4h3.9v7.4h-3.9Zm20.6,20.4c0,1.9-1.5,3.4-3.4,3.4s-3.4-1.5-3.4-3.4,1.5-3.4,3.4-3.4,3.4,1.5,3.4,3.4Zm-5.3-20.4v-7.4h3.9v7.4h-3.9Zm19.2,0h-3.9v-7.4h3.9v7.4Z"/></svg>