<svg xmlns="http://www.w3.org/2000/svg" viewBox="0 0 48 48"><path fill="currentColor" d="M21.8,25.1c-.3-.1-.5-.1-.8-.1h-7.9c-.6,0-1,.2-1.4,.6s-.6,.9-.6,1.4,.2,1,.6,1.4c.4,.4,.9,.6,1.4,.6h3.1l-11.5,11.5c-.2,.2-.4,.4-.5,.7s-.2,.5-.2,.8,0,.6,.2,.8c0,.3,.3,.5,.5,.7s.4,.4,.7,.5h.7c.3,0,.6,0,.8-.2,.3,0,.5-.3,.7-.5l11.6-11.6v3.1c0,.6,.2,1,.6,1.4s.9,.6,1.4,.6,1-.2,1.4-.6c.4-.4,.6-.9,.6-1.4v-8c0-.3,0-.5-.2-.8-.3-.3-.7-.7-1.2-.9h0ZM43.8,5.3c0-.3-.3-.5-.5-.7s-.4-.4-.7-.5c-.2-.1-.4-.1-.7-.1s-.6,0-.8,.2c-.3,0-.5,.3-.7,.5l-11.5,11.5v-3.1c0-.6-.2-1-.6-1.4s-.9-.6-1.4-.6-1,.2-1.4,.6-.6,.9-.6,1.4v8c0,.3,0,.5,.2,.8,.2,.5,.6,.9,1,1,.3,.1,.5,.2,.8,.2h8c.6,0,1-.2,1.4-.6s.6-.9,.6-1.4-.2-1-.6-1.4-.9-.6-1.4-.6h-3.1l11.5-11.6c.2-.2,.4-.4,.5-.7,.1-.3,.2-.5,.2-.8s0-.5-.2-.7Z"/></svg>