<svg xmlns="http://www.w3.org/2000/svg" viewBox="0 0 48 48"><path fill="currentColor" d="M12 14.8284V18C12 19.1046 11.1046 20 10 20C8.89543 20 8 19.1046 8 18L8 10C8 8.89543 8.89543 8 10 8L18 8C19.1046 8 20 8.89543 20 10C20 11.1046 19.1046 12 18 12H14.8284L19.4142 16.5858C20.1953 17.3668 20.1953 18.6332 19.4142 19.4142C18.6332 20.1953 17.3668 20.1953 16.5858 19.4142L12 14.8284ZM30 12C28.8954 12 28 11.1046 28 10C28 8.89543 28.8954 8 30 8H38C39.1046 8 40 8.89543 40 10V18C40 19.1046 39.1046 20 38 20C36.8954 20 36 19.1046 36 18V14.8284L31.4142 19.4142C30.6332 20.1953 29.3668 20.1953 28.5858 19.4142C27.8047 18.6332 27.8047 17.3668 28.5858 16.5858L33.1716 12H30ZM10 28C11.1046 28 12 28.8954 12 30L12 33.1716L16.5858 28.5858C17.3668 27.8047 18.6332 27.8047 19.4142 28.5858C20.1953 29.3668 20.1953 30.6332 19.4142 31.4142L14.8284 36H18C19.1046 36 20 36.8954 20 38C20 39.1046 19.1046 40 18 40H10C9.46957 40 8.96086 39.7893 8.58579 39.4142C8.21071 39.0391 8 38.5304 8 38L8 30C8 28.8954 8.89543 28 10 28ZM28.5858 31.4142C27.8047 30.6332 27.8047 29.3668 28.5858 28.5858C29.3668 27.8047 30.6332 27.8047 31.4142 28.5858L36 33.1716V30C36 28.8954 36.8954 28 38 28C39.1046 28 40 28.8954 40 30V38C40 39.1046 39.1046 40 38 40H30C28.8954 40 28 39.1046 28 38C28 36.8954 28.8954 36 30 36H33.1716L28.5858 31.4142Z"/></svg>