<svg xmlns="http://www.w3.org/2000/svg" viewBox="0 0 48 48"><path fill="currentColor" d="M21,25c-.6,0-1,.2-1.4,.6l-11.6,11.5v-3.1c0-.6-.2-1-.6-1.4-.4-.4-.9-.6-1.4-.6s-1,.2-1.4,.6-.6,.8-.6,1.4v8c0,.3,0,.5,.2,.8,.2,.5,.6,.9,1,1,.3,.1,.5,.2,.8,.2H14c.6,0,1-.2,1.4-.6,.5-.4,.6-.8,.6-1.4s-.2-1-.6-1.4c-.3-.4-.8-.6-1.4-.6h-3.1l11.6-11.6c.4-.4,.6-.9,.6-1.4s-.2-1-.6-1.4c-.4-.5-.8-.6-1.5-.6h0ZM43.9,5.2c-.2-.5-.6-.9-1-1s-.6-.2-.9-.2h-8c-.6,0-1,.2-1.4,.6s-.6,.8-.6,1.4,.2,1,.6,1.4c.4,.4,.9,.6,1.4,.6h3.1l-11.5,11.6c-.2,.2-.4,.4-.5,.7-.1,.3-.2,.5-.2,.8s0,.6,.2,.8c.1,.3,.3,.5,.5,.7s.4,.4,.7,.5c.3,.1,.5,.2,.8,.2s.6,0,.8-.2c.3-.1,.5-.3,.7-.5l11.4-11.7v3.1c0,.6,.2,1,.6,1.4,.4,.4,.9,.6,1.4,.6s1-.2,1.4-.6c.5-.4,.6-.8,.6-1.4V6c0-.3,0-.5,0-.8Z"/></svg>