<svg xmlns="http://www.w3.org/2000/svg" viewBox="0 0 48 48"><path fill="currentColor" d="M8.8,35.3l1.4-1.6c.3-.3,.4-.7,.4-1.1v-.3c0-.6-.3-.9-.9-.9H5.2c-.3,0-.6,.3-.6,.6v1.2c0,.3,.3,.6,.6,.6h1.8c-.3,.3-.6,.6-.9,1l-.4,.5c-.3,.4-.4,.8-.2,1.2v.2c.3,.5,.6,.6,1,.6h.4c.8,0,1.2,.2,1.2,.7s-.3,.6-1.1,.6c-.4,0-.8,0-1.2-.2-.5-.3-.9-.3-1.2,.2l-.4,.7c-.3,.5-.3,.9,.2,1.2,.6,.4,1.6,.7,2.9,.7,2.7,0,3.8-1.8,3.8-3.4,0-1.1-.7-2.3-2.2-2.7Zm33.9-.7H17.8c-.7,0-1.2,.6-1.2,1.2v1.2c0,.7,.6,1.2,1.2,1.2h25c.7,0,1.2-.6,1.2-1.2v-1.2c0-.7-.6-1.2-1.2-1.2Zm0-25H17.8c-.7,0-1.2,.6-1.2,1.2v1.2c0,.7,.6,1.2,1.2,1.2h25c.7,0,1.2-.6,1.2-1.2v-1.2c0-.7-.6-1.2-1.2-1.2Zm0,12.5H17.8c-.7,0-1.2,.6-1.2,1.2v1.2c0,.7,.6,1.2,1.2,1.2h25c.7,0,1.2-.6,1.2-1.2v-1.2c0-.7-.6-1.2-1.2-1.2ZM5.2,16.5h5c.3,0,.6-.3,.6-.6v-1.2c0-.3-.3-.6-.6-.6h-1.2V7.1c0-.3-.3-.6-.6-.6h-1.9c-.2,0-.5,.1-.6,.3l-.6,1.2c-.2,.3,0,.7,.3,.8,0,0,.2,0,.3,0h.6v5h-1.2c-.3,0-.6,.3-.6,.6v1.2c0,.3,.3,.6,.6,.6Zm-.3,12.5h5.3c.3,0,.6-.3,.6-.6v-1.2c0-.3-.3-.6-.6-.6h-3c.3-.8,3.8-1.5,3.8-4.4s-2-3.1-3.5-3.1-2.6,.8-3.2,1.5c-.3,.4-.2,.8,.2,1.2l.7,.5c.4,.4,.9,.2,1.3-.2,.2-.2,.5-.3,.7-.3,.3,0,.7,.1,.7,.7,0,1-4,1.7-4,5.4v.3c0,.6,.4,.9,.9,.9Z"/></svg>