<svg xmlns="http://www.w3.org/2000/svg" viewBox="0 0 48 48"><path fill="currentColor" d="M42.9788 6.00021H4.55184C4.14647 5.99479 3.75548 6.15031 3.46458 6.43269C3.17369 6.71507 3.00662 7.10127 3 7.50662V40.4944C3.00142 40.7385 3.06274 40.9785 3.17858 41.1933C3.29442 41.4082 3.46124 41.5913 3.66438 41.7266V41.9651H4.21681C4.32586 41.9885 4.43708 42.0002 4.5486 42H42.9755C43.0865 42.0002 43.1972 41.9886 43.3057 41.9651H43.3868V41.9424C43.7113 41.8613 43.9999 41.6749 44.2074 41.4126C44.4149 41.1502 44.5297 40.8265 44.5338 40.492V7.50419C44.527 7.09855 44.3594 6.71223 44.0677 6.43019C43.7761 6.14815 43.3844 5.99348 42.9788 6.00021ZM9.13354 40.6729H4.43746C4.40554 40.6551 4.37885 40.6293 4.36006 40.5979C4.34127 40.5666 4.33103 40.5309 4.33038 40.4944V36.5852H9.13354V40.6729ZM9.13354 35.2864H4.33038V31.0479H9.13354V35.2864ZM9.13354 29.7572H4.33038V25.2826H9.13354V29.7572ZM9.13354 23.992H4.33038V19.1507H9.13354V23.992ZM9.13354 17.8609H4.33038V13.1299H9.13354V17.8609ZM20.3201 40.6647H10.4558V36.5738H20.3233L20.3201 40.6647ZM20.3201 35.2783H10.4558V31.0398H20.3233L20.3201 35.2783ZM20.3201 29.7499H10.4558V25.2753H20.3233L20.3201 29.7499ZM20.3201 23.9847H10.4558V19.1434H20.3233L20.3201 23.9847ZM20.3201 17.8528H10.4558V13.1194H20.3233L20.3201 17.8528ZM20.3201 11.8287H10.4558V7.27137H20.3233L20.3201 11.8287ZM31.6267 40.6566H21.6489V36.5738H31.6267V40.6566ZM31.6267 35.271H21.6489V31.0325H31.6267V35.271ZM31.6267 29.7418H21.6489V25.2672H31.6267V29.7418ZM31.6267 23.9766H21.6489V19.1329H31.6267V23.9766ZM31.6267 17.8447H21.6489V13.1113H31.6267V17.8447ZM31.6267 11.8206H21.6489V7.26326H31.6267V11.8206ZM43.1929 40.4676C43.1919 40.5042 43.1815 40.5398 43.1626 40.5711C43.1437 40.6024 43.1169 40.6282 43.085 40.6461H32.9571V36.5617H43.1905L43.1929 40.4676ZM43.1929 35.2678H32.9587V31.0325H43.1929V35.2678ZM43.1929 29.7386H32.9587V25.2672H43.1929V29.7386ZM43.1929 23.9733H32.9587V19.1329H43.1929V23.9733ZM43.1929 17.8422H32.9587V13.1113H43.1929V17.8422ZM43.1929 11.8182H32.9587V7.26326H42.9715C43.0279 7.26296 43.0824 7.28432 43.1236 7.32295C43.1648 7.36159 43.1896 7.41455 43.1929 7.47093V11.8182Z"/></svg>