<svg xmlns="http://www.w3.org/2000/svg" viewBox="0 0 48 48"><path fill="currentColor" d="M22.6713 4.50518C23.4291 3.83161 24.571 3.83161 25.3287 4.50518L43.3288 20.5052C44.1543 21.239 44.2287 22.5032 43.4948 23.3287C42.761 24.1543 41.4969 24.2287 40.6713 23.4948L40 22.8981V38C40 40.2091 38.2092 42 36 42H12C9.79088 42 8.00002 40.2091 8.00002 38V22.8981L7.32875 23.4948C6.50318 24.2287 5.23904 24.1543 4.5052 23.3287C3.77137 22.5032 3.84573 21.239 4.67129 20.5052L22.6713 4.50518ZM12 19.3426V38H18V28C18 26.8954 18.8955 26 20 26H28C29.1046 26 30 26.8954 30 28V38H36V19.3426L24 8.67591L12 19.3426ZM26 38V30H22V38H26Z"/></svg>