<svg xmlns="http://www.w3.org/2000/svg" viewBox="0 0 48 48"><path fill="currentColor" d="M5,17.7l18,10.4c.3,.2,.6,.3,1,.3s.7,0,1-.3l18-10.4c.3-.2,.6-.4,.7-.7,.2-.3,.3-.6,.3-1,0-.4,0-.7-.3-1-.2-.3-.4-.6-.7-.7L25,3.9c-.3-.2-.6-.3-1-.3s-.7,0-1,.3L5,14.3c-.3,.2-.6,.4-.7,.7-.2,.3-.3,.7-.3,1,0,.3,0,.7,.3,1,.2,.3,.4,.6,.7,.7ZM24,8l14,8-14,8-14-8,14-8Zm17,14.3l-17,9.7L7,22.3c-.2-.1-.5-.2-.7-.3-.3,0-.5,0-.8,0-.3,0-.5,.2-.7,.3-.2,.2-.4,.4-.5,.6-.3,.5-.3,1-.2,1.5s.5,.9,.9,1.2l18,10.4c.3,.2,.6,.3,1,.3s.7,0,1-.3l18-10.4c.5-.3,.8-.7,.9-1.2,.1-.5,0-1.1-.2-1.5-.1-.2-.3-.4-.5-.6-.2-.2-.4-.3-.7-.3-.3,0-.5,0-.8,0-.3,0-.5,.1-.7,.3h0Zm0,8.1l-17,9.7L7,30.3c-.2-.1-.5-.2-.7-.3-.3,0-.5,0-.8,0-.3,0-.5,.2-.7,.3-.2,.2-.4,.4-.5,.6-.3,.5-.3,1-.2,1.5s.5,.9,.9,1.2l18,10.4c.3,.2,.6,.3,1,.3s.7,0,1-.3l18-10.4c.5-.3,.8-.7,.9-1.2,.1-.5,0-1.1-.2-1.5-.1-.2-.3-.4-.5-.6-.2-.2-.4-.3-.7-.3-.3,0-.5,0-.8,0-.3,0-.5,.1-.7,.3h0Z"/></svg>