<svg xmlns="http://www.w3.org/2000/svg" viewBox="0 0 48 48"><path fill="currentColor" d="M38,4H18c-1.6,0-3.1,.6-4.2,1.8-1.1,1.1-1.8,2.7-1.8,4.2v2h-2c-1.6,0-3.1,.6-4.2,1.8-1.1,1.1-1.8,2.7-1.8,4.2v20c0,1.6,.6,3.1,1.8,4.2,1.1,1.1,2.7,1.8,4.2,1.8H30c1.6,0,3.1-.6,4.2-1.8,1.1-1.1,1.8-2.7,1.8-4.2v-2h2c1.6,0,3.1-.6,4.2-1.8,1.1-1.1,1.8-2.7,1.8-4.2V10c0-1.6-.6-3.1-1.8-4.2-1.1-1.1-2.7-1.8-4.2-1.8Zm-6,34c0,.5-.2,1-.6,1.4-.4,.4-.9,.6-1.4,.6H10c-.5,0-1-.2-1.4-.6-.4-.4-.6-.9-.6-1.4v-14H32v14Zm0-18H8v-2c0-.5,.2-1,.6-1.4,.4-.4,.9-.6,1.4-.6H30c.5,0,1,.2,1.4,.6,.4,.4,.6,.9,.6,1.4v2Zm8,10c0,.5-.2,1-.6,1.4-.4,.4-.9,.6-1.4,.6h-2v-14c0-.7-.1-1.4-.4-2h4.4v14Zm0-18H16v-2c0-.5,.2-1,.6-1.4,.4-.4,.9-.6,1.4-.6h20c.5,0,1,.2,1.4,.6,.4,.4,.6,.9,.6,1.4v2Z"/></svg>