<svg xmlns="http://www.w3.org/2000/svg" viewBox="0 0 48 48"><path fill="currentColor" d="M44,30h-4v-6c0-.5-.2-1-.6-1.4s-.9-.6-1.4-.6h-12v-4h4c.5,0,1-.2,1.4-.6,.4-.4,.6-.9,.6-1.4V4c0-.5-.2-1-.6-1.4-.4-.4-.9-.6-1.4-.6h-12c-.5,0-1,.2-1.4,.6-.4,.4-.6,.9-.6,1.4v12c0,.5,.2,1,.6,1.4,.4,.4,.9,.6,1.4,.6h4v4H10c-.5,0-1,.2-1.4,.6-.4,.4-.6,.9-.6,1.4v6H4c-.5,0-1,.2-1.4,.6-.4,.4-.6,.9-.6,1.4v12c0,.5,.2,1,.6,1.4,.4,.4,.9,.6,1.4,.6h12c.5,0,1-.2,1.4-.6,.4-.4,.6-.9,.6-1.4v-12c0-.5-.2-1-.6-1.4-.4-.4-.9-.6-1.4-.6h-4v-4h24v4h-4c-.5,0-1,.2-1.4,.6s-.6,.9-.6,1.4v12c0,.5,.2,1,.6,1.4s.9,.6,1.4,.6h12c.5,0,1-.2,1.4-.6s.6-.9,.6-1.4v-12c0-.5-.2-1-.6-1.4s-.9-.6-1.4-.6Zm-30,4v8H6v-8H14Zm6-20V6h8V14h-8Zm22,28h-8v-8h8v8Z"/></svg>