<svg xmlns="http://www.w3.org/2000/svg" viewBox="0 0 48 48"><path fill="currentColor" d="M24.68,13c0-1.09,.89-1.98,1.98-1.98h19.36c1.09,0,1.98,.89,1.98,1.98s-.89,1.98-1.98,1.98H26.65c-1.09,0-1.98-.89-1.98-1.98h.01Zm-7.4-.94c-.7-.84-1.94-.95-2.78-.25s-.95,1.94-.25,2.78l6.06,7.23H1.98c-1.09,0-1.98,.89-1.98,1.98s.89,1.98,1.98,1.98H20.32l-6.07,7.28c-.7,.84-.59,2.09,.25,2.78,.84,.7,2.09,.59,2.78-.25l8.77-10.52c.61-.73,.61-1.8,0-2.53l-8.77-10.47h-.01Zm14.52,6.27c-1.09,0-1.98,.89-1.98,1.98s.89,1.98,1.98,1.98h14.22c1.09,0,1.98-.89,1.98-1.98s-.89-1.98-1.98-1.98h-14.22Zm-1.98,9.31c0-1.09,.89-1.98,1.98-1.98h14.22c1.09,0,1.98,.89,1.98,1.98s-.89,1.98-1.98,1.98h-14.22c-1.09,0-1.98-.89-1.98-1.98Zm-3.17,5.36c-1.09,0-1.98,.89-1.98,1.98s.89,1.98,1.98,1.98h19.36c1.09,0,1.98-.89,1.98-1.98s-.89-1.98-1.98-1.98H26.65Z"/></svg>