<svg xmlns="http://www.w3.org/2000/svg" viewBox="0 0 48 48"><path fill="currentColor" d="M38.2422 3.25781C39.5465 3.2579 40.7974 3.77601 41.7197 4.69824C42.6422 5.62067 43.1602 6.87224 43.1602 8.17676V17.5039C43.9826 17.5462 44.7635 17.8914 45.3486 18.4766C45.9742 19.1022 46.3252 19.9512 46.3252 20.8359V41.4072C46.3252 42.292 45.9742 43.1409 45.3486 43.7666C44.723 44.3922 43.874 44.7431 42.9893 44.7432H30.3301C29.4453 44.7432 28.5964 44.3922 27.9707 43.7666C27.345 43.1409 26.9932 42.2921 26.9932 41.4072V38.4141H8.17578C6.45167 38.414 4.79826 37.7289 3.5791 36.5098C2.35999 35.2906 1.67489 33.6372 1.6748 31.9131V30.3301C1.67487 29.4454 2.02675 28.5973 2.65234 27.9717C3.23749 27.3865 4.01745 27.0403 4.83984 26.998V8.17676C4.83984 6.87224 5.35784 5.62067 6.28027 4.69824C7.2027 3.77587 8.45432 3.25781 9.75879 3.25781H38.2422ZM30.501 41.2354H42.8174V21.0068H30.501V41.2354ZM36.6592 34.9062C37.6278 34.9062 38.4131 35.6915 38.4131 36.6602C38.413 37.6287 37.6278 38.4141 36.6592 38.4141C35.6907 38.4139 34.9054 37.6286 34.9053 36.6602C34.9053 35.6916 35.6907 34.9064 36.6592 34.9062ZM5.18262 31.9131C5.1827 32.7069 5.49827 33.468 6.05957 34.0293C6.6209 34.5906 7.38197 34.9062 8.17578 34.9062H26.9932V30.502H5.18262V31.9131ZM9.75879 6.76562C9.38462 6.76562 9.02534 6.91416 8.76074 7.17871C8.49613 7.44332 8.34766 7.80254 8.34766 8.17676V26.9941H26.9932V20.8359C26.9932 19.9511 27.345 19.1022 27.9707 18.4766C28.5964 17.851 29.4453 17.5 30.3301 17.5H39.6523V8.17676C39.6523 7.80254 39.5039 7.44332 39.2393 7.17871C38.9747 6.91429 38.6162 6.76572 38.2422 6.76562H9.75879Z"/></svg>