<svg xmlns="http://www.w3.org/2000/svg" viewBox="0 0 48 48"><path fill="currentColor" d="M19.11,22.98c0-1-.8-1.8-1.8-1.8H5.8c-1-.02-1.8,.8-1.8,1.8s.8,1.8,1.8,1.8h11.49c1,0,1.82-.8,1.82-1.8Zm.25,5.64c0-1-.8-1.8-1.8-1.8H8.24c-1,0-1.8,.8-1.8,1.8s.8,1.8,1.8,1.8h9.33c1,0,1.8-.8,1.8-1.8ZM29.8,11.38v-3.05h1.36c1,0,1.8-.8,1.8-1.8s-.8-1.82-1.8-1.82h-6.33c-1,0-1.8,.8-1.8,1.8s.8,1.8,1.8,1.8h1.36v3.07c-3.31,.38-6.44,1.76-8.93,4.02-.75,.67-.8,1.82-.13,2.55,.67,.75,1.82,.8,2.55,.13,2.27-2.05,5.22-3.18,8.29-3.18,6.84,0,12.4,5.56,12.4,12.4s-5.56,12.4-12.4,12.4c-4.44,0-8.56-2.4-10.78-6.27-.47-.87-1.58-1.18-2.45-.67-.87,.49-1.16,1.6-.67,2.45,2.85,4.98,8.18,8.09,13.91,8.09,8.84,0,16.02-7.18,16.02-16,0-8.22-6.22-15-14.2-15.91Zm5.49,12.95c.75-.65,.82-1.8,.16-2.55-.65-.75-1.8-.82-2.55-.16l-5.51,4.84-2.02-2.07c-.71-.71-1.84-.73-2.55-.04-.71,.69-.73,1.84-.04,2.55l4.42,4.51,8.07-7.07Z"/></svg>