<svg xmlns="http://www.w3.org/2000/svg" viewBox="0 0 48 48"><path fill="currentColor" d="M44,20.2c-1.1,0-2,.9-2,2v1.8c0,3.9-1.3,7.7-3.6,10.8s-5.6,5.4-9.3,6.5-7.7,1-11.3-.4-6.8-3.9-8.9-7.1c-2.1-3.2-3.1-7.1-2.9-11,.3-3.8,1.8-7.6,4.3-10.5s6-5,9.7-5.9c3.8-.8,7.8-.5,11.3,1.1,1,.5,2.2,0,2.6-1,.4-1,0-2.2-1-2.6-4.3-1.9-9.2-2.4-13.8-1.4-4.6,1-8.8,3.6-11.9,7.2-3.1,3.6-4.9,8.1-5.2,12.8-.3,4.7,.9,9.5,3.5,13.4,2.6,4,6.4,7,10.8,8.7,2.4,.9,5,1.4,7.6,1.4s4.2-.3,6.2-.9c4.5-1.3,8.6-4.2,11.4-7.9,2.8-3.8,4.4-8.4,4.4-13.2v-1.8c0-1.1-.9-2-2-2Zm-24.6,.4c-.8-.8-2-.8-2.8,0-.8,.8-.8,2,0,2.8l6,6c.4,.4,.9,.6,1.4,.6h0c.5,0,1-.2,1.4-.6L45.4,9.4c.8-.8,.8-2,0-2.8-.8-.8-2-.8-2.8,0L24,25.2l-4.6-4.6Z"/></svg>