<svg xmlns="http://www.w3.org/2000/svg" viewBox="0 0 48 48"><path fill="currentColor" d="M8.6,19.6c0-7.29,5.91-13.2,13.2-13.2,5.78,0,10.69,3.71,12.48,8.88,6.6.73,11.72,6.33,11.72,13.12,0,7.29-5.91,13.2-13.2,13.2H13c-6.08,0-11-4.92-11-11,0-4.52,2.73-8.41,6.63-10.1-.02-.3-.03-.6-.03-.9ZM21.8,10.8c-4.86,0-8.8,3.94-8.8,8.8,0,.67.07,1.31.21,1.93.27,1.19-.48,2.36-1.67,2.63-2.95.66-5.15,3.3-5.15,6.44,0,3.65,2.95,6.6,6.6,6.6h19.8c4.86,0,8.8-3.94,8.8-8.8s-3.94-8.8-8.8-8.8c-.06,0-.12,0-.18,0-1.06.02-1.99-.72-2.2-1.76-.81-4.02-4.37-7.04-8.62-7.04Z"/></svg>