<svg xmlns="http://www.w3.org/2000/svg" viewBox="0 0 48 48"><path fill="currentColor" d="M8.85,25.7c0,.7.6,1.3,1.3,1.3s1.3-.6,1.3-1.3-.6-1.3-1.3-1.3-1.3.6-1.3,1.3ZM8.85,35.1c0,.7.6,1.3,1.3,1.3s1.3-.6,1.3-1.3-.6-1.3-1.3-1.3-1.3.6-1.3,1.3ZM5.85,18h-.1v-3.1c0-.7.5-1.2,1.2-1.2h34.4l-.5-1c0-.1,0-.2-.1-.3v-.2l-4.8-7.7c-.9-1.5-2.5-2.4-4.2-2.4H11.75c-1.7,0-3.3.9-4.2,2.4l-4.9,7.8v.2c-.4.7-.6,1.6-.6,2.4v3.1c0,.8.2,1.6.6,2.3.2.3.3.6.5.8-.2.3-.4.5-.5.8-.4.7-.6,1.5-.6,2.3v3.1c0,.8.2,1.6.6,2.3.2.3.3.6.5.8-.2.3-.4.5-.5.8-.4.7-.6,1.5-.6,2.3v3.1c0,2.8,2.2,5,5,5h7.4v-3.8h-7.4c-.7,0-1.2-.5-1.2-1.2v-3.1c0-.7.5-1.2,1.2-1.2h7.4v-3.8h-7.4c-.7,0-1.2-.5-1.2-1.2v-3.1c0-.7.5-1.2,1.2-1.2h7.4v-3.8h-7.4c-.7,0-1.2-.5-1.2-1.2ZM10.75,6.5c.2-.4.6-.6,1-.6h19.8c.4,0,.8.2,1,.6l2.1,3.4H8.65l2.1-3.4ZM32.31,30.23c.27-.16.68-.17.95-.02.11.06.2.16.27.3l.11.22h1.62l-.21-.54c-.18-.46-.48-.83-.88-1.08-.73-.47-1.77-.51-2.57-.06-.37.21-.67.5-.89.87-.22.37-.33.79-.33,1.25s.11.88.33,1.26c.22.37.52.66.89.87.37.21.78.31,1.22.31.5,0,.95-.13,1.34-.37.41-.25.71-.62.89-1.08l.21-.54h-1.62l-.11.22c-.07.14-.16.24-.27.3-.26.15-.68.14-.94-.02-.14-.09-.26-.2-.34-.36-.08-.16-.13-.36-.13-.59s.04-.42.12-.59c.08-.16.19-.27.34-.35ZM8.85,16.4c0,.7.6,1.3,1.3,1.3s1.3-.6,1.3-1.3-.6-1.3-1.3-1.3-1.3.6-1.3,1.3ZM36.01,33.57h1.46v-4.79h-1.46v4.79ZM44.5,33.35c.51,0,1.02-.21,1.38-.57s.57-.86.57-1.38-.2-1.01-.57-1.38-.87-.57-1.38-.57h-2.4v-1.9h2.4c.51,0,1.02-.21,1.38-.57s.57-.86.57-1.38-.2-1.01-.57-1.38c-.36-.36-.87-.57-1.38-.57h-2.82c-.24-.55-.58-1.05-1.01-1.47-.42-.42-.92-.77-1.47-1.01v-2.82c0-.52-.2-1.01-.57-1.38-.73-.73-2.03-.73-2.76,0-.37.37-.57.86-.57,1.38v2.4h-1.9v-2.4c0-.52-.2-1.01-.57-1.38-.74-.74-2.02-.74-2.76,0-.37.37-.57.86-.57,1.38v2.4h-1.9v-2.4c0-.52-.2-1.01-.57-1.38-.74-.74-2.02-.74-2.76,0-.37.37-.57.86-.57,1.38v2.82c-.55.24-1.05.59-1.47,1.01-.42.42-.77.92-1.01,1.47h-2.82c-.52,0-1.01.2-1.38.57-.37.37-.57.86-.57,1.38s.2,1.01.57,1.38c.37.37.86.57,1.38.57h2.4v1.9h-2.4c-.52,0-1.01.2-1.38.57-.37.37-.57.86-.57,1.38s.2,1.01.57,1.38c.37.37.86.57,1.38.57h2.4v1.9h-2.4c-.52,0-1.01.2-1.38.57-.37.37-.57.86-.57,1.38s.21,1.02.57,1.38.86.57,1.38.57h2.82c.24.55.59,1.05,1.01,1.47s.92.77,1.47,1.01v2.82c0,.51.21,1.02.57,1.38.74.74,2.02.74,2.76,0,.36-.36.57-.87.57-1.38v-2.4h1.9v2.4c0,.51.21,1.02.57,1.38.74.74,2.02.74,2.76,0,.36-.36.57-.87.57-1.38v-2.4h1.9v2.4c0,.51.21,1.02.57,1.38s.86.57,1.38.57,1.01-.2,1.38-.57c.37-.37.57-.86.57-1.38v-2.82c.54-.24,1.05-.58,1.47-1.01.42-.42.77-.93,1.01-1.47h2.82c.52,0,1.01-.2,1.38-.57.37-.37.57-.86.57-1.38s-.2-1.01-.57-1.38-.87-.57-1.38-.57h-2.4v-1.9h2.4ZM38.2,37.2c0,.25-.1.49-.28.67-.18.18-.42.28-.67.28h-11.6c-.25,0-.49-.1-.67-.28-.18-.18-.28-.42-.28-.67v-11.6c0-.25.1-.49.28-.67s.42-.28.67-.28h11.6c.25,0,.5.1.67.28.18.18.28.42.28.67v11.6ZM28.03,30.49h-1.08v-1.71h-1.46v4.79h1.46v-1.75h1.08v1.75h1.46v-4.79h-1.46v1.71Z"/></svg>