<svg xmlns="http://www.w3.org/2000/svg" viewBox="0 0 48 48"><path fill="currentColor" d="M28.1,23.5l-2.2,2.1V7.5c0-1.1-.9-2-2-2s-2,.9-2,2V25.6l-2.1-2.1c-.4-.4-.9-.7-1.5-.7s-.8,.1-1.1,.3c-.9,.6-1.2,1.9-.5,2.8,0,.1,.2,.2,.3,.3l5.6,5.5c.8,.8,2,.8,2.8,0l5.6-5.5c.8-.8,.8-2.1,0-2.8-.8-.8-2.1-.8-2.8,0h0Zm7.9-8.1h-6.2v4h6.2c.8,0,1.4,.6,1.4,1.4v16.3c0,.8-.6,1.4-1.4,1.4H12c-.8,0-1.4-.6-1.4-1.4V20.7c0-.8,.6-1.4,1.4-1.4h6.4v-4h-6.4c-3,0-5.4,2.4-5.4,5.4v16.3c0,3,2.4,5.4,5.4,5.4h24c3,0,5.4-2.4,5.4-5.4V20.7c0-3-2.4-5.4-5.4-5.4Z"/></svg>