<svg xmlns="http://www.w3.org/2000/svg" viewBox="0 0 48 48"><path fill="currentColor" d="M40.5,29.9c-2.2,0-4,1.3-4.8,3.2h-2.2v-5.3h3.4c5,0,9.1-4.1,9.1-9.1s-2.8-7.7-6.7-8.8c-.9-4.6-5-8-9.8-8s-3.7,.5-5.3,1.5c-1.7-1.5-3.9-2.4-6.2-2.4-5,0-9,4-9.1,8.9-3.9,1-6.9,4.6-6.9,8.8s4.1,9.1,9.1,9.1h3.6v5.3h-2.4c-.8-1.9-2.7-3.2-4.8-3.2s-5.2,2.4-5.2,5.2,2.4,5.2,5.2,5.2,4.1-1.4,4.9-3.3h4.3c1.1,0,2-.9,2-2v-7.3h3.4v9c-1.9,.8-3.3,2.7-3.3,4.9s2.4,5.2,5.2,5.2,5.2-2.4,5.2-5.2-1.3-4-3.2-4.8v-9h3.3v7.3c0,1.1,.9,2,2,2h4.2c.8,1.9,2.7,3.3,4.9,3.3s5.2-2.4,5.2-5.2-2.4-5.2-5.2-5.2ZM7.5,36.9c-1,0-1.7-.8-1.7-1.7s.8-1.7,1.7-1.7,1.7,.8,1.7,1.7-.8,1.7-1.7,1.7Zm16.6,6.5c-1,0-1.7-.8-1.7-1.8s.8-1.7,1.7-1.7,1.7,.8,1.7,1.7-.8,1.8-1.7,1.8ZM11.1,23.9c-2.8,0-5.1-2.3-5.1-5.1s2.3-5.1,5-5.1c.6,0,1.2-.3,1.5-.8,.4-.5,.5-1.1,.4-1.7,0-.3-.1-.7-.1-1,0-2.8,2.3-5.1,5.1-5.1s3.3,.8,4.3,2.3c.3,.5,.9,.8,1.4,.9,.6,0,1.2-.1,1.6-.5,1.1-1.1,2.6-1.7,4.2-1.7,3.2,0,5.9,2.6,6,5.8,0,1,.8,1.8,1.8,1.9,2.7,.2,4.7,2.4,4.7,5.1s-2.3,5.1-5.1,5.1H11.1Zm29.3,13c-1,0-1.7-.8-1.7-1.7s.8-1.7,1.7-1.7,1.7,.8,1.7,1.7-.8,1.7-1.7,1.7Z"/></svg>