<svg xmlns="http://www.w3.org/2000/svg" width="512" height="512" viewBox="0 0 512 512"><path d="M365.51 263.91c12.39 0 22.44 10.03 22.44 22.42 0 12.39-10.03 22.44-22.42 22.44H146.48c-12.39 0-22.44-10.03-22.44-22.42 0-12.39 10.03-22.44 22.42-22.44h219.05zm22.44-200.55h-263.9c-31.9 0-58.36 24.7-60.55 56.52l-.14 4.16v184.72c0 31.91 24.7 58.38 56.54 60.57l4.15.14h263.89c31.91 0 58.37-24.71 60.55-56.54l.14-4.16V124.05c0-31.91-24.71-58.37-56.54-60.55l-4.16-.14zm0-44.86c58.31 0 105.55 47.26 105.55 105.55v184.72c0 58.31-47.25 105.55-105.55 105.55H282.4v30.35c0 1.33-.12 2.65-.35 3.95H418.3c12.39 0 22.43 10.05 22.42 22.44 0 12.38-10.04 22.42-22.42 22.42H93.71c-12.39 0-22.43-10.05-22.42-22.44 0-12.38 10.04-22.42 22.42-22.42h136.22c-.23-1.31-.35-2.63-.34-3.95v-30.35H124.06c-58.31 0-105.55-47.26-105.55-105.55V124.05c0-58.31 47.26-105.55 105.55-105.55h263.89z" fill="#009ddc"/></svg>