<svg data-name="Layer 1" xmlns="http://www.w3.org/2000/svg" viewBox="0 0 512 512"><path d="M498.09 193.69c-14.26-54-43.1-98.61-86.8-133.4-40.59-32.32-87-50-138.78-53.61a242.13 242.13 0 00-78.11 7.14q-81 20.9-133.31 85.95c-33.67 41.8-51.65 89.8-54.68 143.3a240 240 0 007.51 75.19c14.2 53.62 42.81 98.09 86.17 132.79q59.63 47.63 135.79 53.77l13.84 1.12h12.51a28.72 28.72 0 013.35-.47A234.7 234.7 0 00317.5 498c54-14 98.62-42.68 133.56-86.06 33.63-41.8 51.56-89.85 54.54-143.35a239.58 239.58 0 00-7.51-74.9zM97.42 135.07h317.14c-1.57 1.34-2.6 2.23-3.66 3.1l-119.42 97.4c-11.16 9.1-22.36 18.16-33.47 27.34a4.46 4.46 0 01-.69.45c-1.2.78-2.12.61-3.42-.45l-133-108.57q-10-8.16-20.06-16.35c-.94-.76-1.86-1.57-3.39-2.87h.08zm229.16 104.14l87.73-68.93v162.98l-87.73-94zm-229 96.17V170.2l87.82 69-87.79 96.16zm317.06 37.25H99.35l.05-.05L206 255.61l50 41.65 50.08-41.64 108.63 117h-.09z" fill="#3497da"/></svg>