<svg xmlns="http://www.w3.org/2000/svg" width="512" height="512" viewBox="0 0 512 512"><path d="M465.56 242.03v-52.82l-49.93-12.48a166.93 166.93 0 00-10.46-25.24l26.48-44.14-54.94-54.94-44.14 26.48a166.93 166.93 0 00-25.24-10.46L294.85 18.5h-77.7l-12.48 49.93a166.93 166.93 0 00-25.24 10.46l-44.14-26.48-54.94 54.94 26.48 44.14a166.93 166.93 0 00-10.46 25.24l-49.93 12.48v52.82H18.5V493.5h475V242.03h-27.94zm-391.18-31l44.51-11.13 2.12-7.95c6.05-22.69 15.78-36.34 18.13-40.91l-23.61-39.35 24.09-24.09 39.35 23.61 7.13-4.13c20.32-11.77 36.85-14.56 41.74-16.12l11.13-44.51h34.07l11.13 44.51c4.84 1.55 21.41 4.35 41.74 16.12l7.13 4.13 39.35-23.61 24.09 24.09-23.61 39.35c2.3 4.46 12.07 18.21 18.13 40.91l2.12 7.95 44.51 11.13v31H324.45c8.87-43.4-24.49-83.82-68.43-83.82s-77.3 40.42-68.43 83.82H74.41v-31zm223.53 17.03c0 4.78-.82 9.5-2.4 13.97h-79.03c-1.58-4.47-2.4-9.2-2.4-13.97 0-23.11 18.8-41.91 41.91-41.91s41.91 18.8 41.91 41.91zm167.65 237.5H46.44V269.97h419.12v195.59zm-279.41-55.88h-41.91v-27.94h27.94V353.8h-27.94v-27.94h41.91v-27.94H116.3v139.71h69.85v-27.94zm55.88-27.94H256c7.7 0 13.97 6.27 13.97 13.97v41.91h27.94v-41.91c0-10.73-4.05-20.52-10.71-27.94 6.65-7.42 10.71-17.21 10.71-27.94 0-23.11-18.8-41.91-41.91-41.91h-41.91v139.71h27.94v-55.88zm0-55.89H256c7.7 0 13.97 6.27 13.97 13.97s-6.27 13.97-13.97 13.97h-13.97v-27.94zm111.76 55.89h13.97c23.11 0 41.91-18.8 41.91-41.91s-18.8-41.91-41.91-41.91h-41.91v139.71h27.94v-55.88zm0-55.89h13.97c7.7 0 13.97 6.27 13.97 13.97s-6.27 13.97-13.97 13.97h-13.97v-27.94z" fill="#009ddc"/></svg>