<svg data-name="Layer 1" xmlns="http://www.w3.org/2000/svg" viewBox="0 0 512 512"><path d="M270.36 504.81h15.08V456h-15.08zm-45.81-167.27q-9.51 0-15 8.44h-.19v-30.72h-15.11v72.32h15.08v-27.86a11.55 11.55 0 012.48-7.63 8 8 0 016.49-3q7.81 0 7.82 10.74v27.76h15v-30q.03-20.04-16.57-20.05zM58.3 359.43h22.37v-12.49H58.3v-15.22h24v-12.55H42.89v68.41h41v-12.5H58.3zM113.83 370h.17q1.2 2.85 2 4.43l7.06 13.17h17.36l-16-25.19 16.12-23.66h-16.36l-7.11 13.6a32.82 32.82 0 00-2 4.67h-.19a30.07 30.07 0 00-2-4.58l-7-13.69H88.45l15.55 24.5-16.5 24.33h17.31l7.11-13.31a31.48 31.48 0 001.91-4.27zm100.63 84.79a17.29 17.29 0 00-15.7 8.92h-.19V456H183.5v48.85h15.07V477a11.47 11.47 0 012.53-7.63 8 8 0 016.44-3q8.1 0 8.11 11.35v27.15h15V474.9q.03-20.14-16.19-20.13zm69.81-19.89a10.19 10.19 0 00-12.52 0 7 7 0 00-2.43 5.53 7.32 7.32 0 002.43 5.56 8.85 8.85 0 006.25 2.26 9 9 0 006.27-2.19 7.26 7.26 0 002.41-5.63 7 7 0 00-2.41-5.55zm-143.37.38q-15.51 0-24.9 10t-9.4 26.24c0 10.23 3.09 18.56 9.26 24.93S130 506 139.8 506q15.09 0 24.45-9.87t9.37-26q0-15.7-9-25.28t-23.72-9.59zm11.83 51.68a16.47 16.47 0 01-25.14-.16q-4.77-5.91-4.77-16.08t4.77-16.1a15.53 15.53 0 0112.88-6.08 14.78 14.78 0 0112.4 5.91q4.53 5.91 4.53 16.56 0 10.16-4.67 15.93zm21.11-137.86a17.29 17.29 0 0110.54 3.53v-12.8q-3.87-2.29-12.5-2.29c-8.33 0-15 2.41-20 7.18s-7.47 11.33-7.47 19.63q0 10.77 7 17.6t18.22 6.82q9.65 0 14.74-3V373.7a19.82 19.82 0 01-11 3.53q-6.35 0-10-3.7c-2.42-2.46-3.62-5.87-3.62-10.18 0-4.47 1.26-8 3.79-10.48s5.97-3.79 10.3-3.79zm68.76 155.71h15.08v-72.32H242.6zM398.37 58.54H280.15c-7.56 0-7.85-.25-7.85-7.6 0-10.92.1-21.84 0-32.76-.11-13.45 2.18-13.72-13-10.44-.68.16-1.43.21-2.17.33L153 25.19c-17.51 2.88-35 6.06-52.56 8.53-5.5.78-7.13 2.61-7.13 7.8.22 25.77.1 51.55.1 77.33q.1 70.62 0 141.26c0 3.64.2 6.48 5.13 7.25 24.37 3.82 48.7 7.84 73 11.87q47.31 7.8 94.56 15.83c4.82.82 6.35-.72 6.28-5.26-.22-12-.07-24-.07-36 0-7.5.25-7.71 8.33-7.71h117.64c10.27 0 13.18-2.86 13.18-12.87V71.03c-.01-9.38-3.26-12.49-13.09-12.49zm-193.79 142.4c-.05 2.62-1.29 3.83-4.27 3.53-13.59-1.35-27.16-2.87-40.79-3.72-5.12-.31-5.67-2.54-5.67-6.46.12-14.85.05-29.72.05-44.57 0-14.33.15-28.65-.05-43-.08-4.72.89-7.13 6.59-7.37 12.15-.52 24.27-1.68 36.39-2.71 3.25-.27 4.47 1.27 4.47 4.05v12.89c0 3.2-1.67 4.24-4.93 4.24-6 0-12 .48-18 .61-3.21.06-4.84 1.15-4.7 4.47.19 4 .19 8.2 0 12.34-.15 3.39 1.5 4.33 4.76 4.25 6.06-.1 12 .14 18 0 3.37-.07 4.83 1.33 4.83 4.44v.54c1.43 16.44 1.43 16.33-15.94 16.19-13.79-.11-11.52-1.59-11.61 10.95-.1 11.35-1.12 9.52 10.08 10.06 5.24.3 10.46.79 15.7 1 3.35.16 5.25 1.38 5.16 4.85-.07 4.48 0 8.94-.07 13.42zm197.71 30.47c0 4.75-1.29 6.64-6.62 6.64-38.8-.17-77.61-.1-116.42-.1-6.48 0-6.92-.54-6.92-7.43 0-7.32.32-8.05 7.08-7.72a15.62 15.62 0 007.9-1.33 14.64 14.64 0 006-5.06q16.28-22.15 32.51-44.33a4.46 4.46 0 001.08-1.87 37.2 37.2 0 000-4.48c-1.4.52-3.16.65-4.12 1.56-6.18 5.78-12.08 11.76-18.13 17.62-5.52 5.36-11 10.78-16.69 16a14.85 14.85 0 01-5.54 3.43c-7.39 2.07-10.05.07-10.05-7.26q-.09-18.25 0-36.51c0-2.07.35-4.14.67-7.49 4.65 2.66 8.37 4.84 12.12 6.91a80.88 80.88 0 008.88 4.7c1.61.64 3.67.25 5.54.34-.75-1.46-1.16-3.3-2.3-4.34-6.88-6.58-14.16-12.8-20.79-19.61a14.93 14.93 0 01-4-8.81c-.52-8.74-.07-17.53-.21-26.3-.08-4.25 1.48-5.81 6.15-6.22 8.45-.76 14.3 3 20 9.42 2.41-3 4.65-5.07 5.79-7.52.69-1.48.46-4.32-.62-5.43-4.21-4.31-8.52-8.74-13.59-12-2.92-1.83-7.41-2.2-11.14-2.08-6.55.22-6.56-3.36-6.64-7.93s.64-7.36 6.6-7.36q58.48.17 117 0c4.83 0 6.44 1.52 6.44 6.22q-.19 79.14.02 158.34zm-14.64-48.22a14.34 14.34 0 00-4.45-9.27c-15.27-13-31.66-24.64-49.87-33.71-1.57-.8-3.71-.55-5.59-.8.83 1.73 1.26 3.86 2.58 5.13 9.13 8.74 18 17.71 27.81 25.82 7.66 6.37 11.37 13.3 10.52 23.26-.92 11-.21 11-11.87 11-10.18 0-21.1 2.2-27.9-9.62-2.26 2.81-3.38 4.44-4.75 5.86-3.29 3.44-3.33 6.24.83 9.28 3.7 2.7 6.63 6.37 10.36 9a16.48 16.48 0 008.37 3.27c12.37.35 24.74.08 37.11.2 5 0 7.16-2 7.1-6.74-.15-10.87.29-21.78-.25-32.68zm81.46 177.91c0-7.25-1.94-13-5.85-17.22s-9.4-6.34-16.53-6.34a23.57 23.57 0 00-17.36 7.11q-7 7.11-7.06 19.27 0 11.73 6.53 18.29t18.37 6.56c7.23 0 13.09-1.22 17.6-3.62v-10.88a26 26 0 01-14.17 3.82q-12.61 0-13.4-10.64h31.87zm-32-2.91a13.79 13.79 0 013.22-7.49 8.14 8.14 0 016.28-3q8.5 0 8.49 10.49zm-164.29-20.65a46.16 46.16 0 00-9.94 1.24 38.21 38.21 0 00-8.62 2.86V353a29.8 29.8 0 0116.61-5.2q8.67 0 8.68 8l-13.26 1.76q-16.85 2.19-16.84 16.41c0 4.49 1.36 8.06 4.08 10.76s6.45 4 11.18 4a15.93 15.93 0 0014.55-8.2h.19v7h14.26v-29.2q0-20.77-20.89-20.79zm6.73 30.19a10.64 10.64 0 01-2.67 7.42 8.92 8.92 0 01-6.92 2.94 6.85 6.85 0 01-4.84-1.65 5.45 5.45 0 01-1.79-4.22c0-3.79 2.44-6 7.34-6.63l8.88-1.15zm77.36-268.06c11.52.74 11.57.16 11.52 10.88-.07 9.85 2.49 20.49-10.19 27.11 3.18 2.27 5.06 3.42 6.74 4.83 3.31 2.89 6 2.72 8.91-.67 3.46-4 7.57-7.47 11-11.48a11.69 11.69 0 002.89-6.62c.28-11.8.07-23.61.16-35.41 0-4.53-2.13-6.47-6.82-6.47-12 .08-24-.24-36 .22a14.53 14.53 0 00-9.18 4c-13.67 14.77-26 30.47-35.49 48.1-.69 1.27-.3 3.08-.41 4.64 1.57-.6 3.53-.82 4.62-1.86 9.58-9 19.43-17.9 28.32-27.54 6.55-7.17 13.83-10.4 23.93-9.73zm-20.32 237.87q-10.3 0-15.7 8.92h-.19v-7.73h-15.07v48.85h15.07v-27.86a11.53 11.53 0 012.53-7.63 8 8 0 016.44-3c5.42 0 8.11 3.79 8.11 11.36v27.14h15v-29.92q.03-20.12-16.19-20.13zm-7.52 117.23q-10.29 0-15.69 8.92h-.19V456h-15.07v48.85h15.07V477a11.53 11.53 0 012.53-7.63 8 8 0 016.44-3q8.11 0 8.11 11.35v27.15h15V474.9q.02-20.14-16.2-20.13zm49.66 0a23.49 23.49 0 00-17.36 7.11q-7 7.11-7.06 19.27 0 11.73 6.53 18.29t18.37 6.56q10.85 0 17.6-3.63V491.5a26 26 0 01-14.17 3.81q-12.61 0-13.4-10.63h31.87v-6.35q0-10.87-5.85-17.22t-16.53-6.34zm-9.59 20.65a13.79 13.79 0 013.22-7.49 8.14 8.14 0 016.28-3q8.5 0 8.49 10.49zm28.41-131h-.19c-3-4.58-7.39-6.87-13.36-6.87a20 20 0 00-16.07 7.3q-6.09 7.29-6.11 19.7 0 11.06 5.49 17.65t14.83 6.58c6.73 0 11.79-2.74 15.22-8.2h.19v3.86c0 4.6-1.38 8.25-4.2 10.95s-6.72 4-11.83 4a30 30 0 01-15.21-4.39v12.69c3.86 1.88 9.06 2.81 15.64 2.81q15 0 22.8-7.46t7.88-21.04v-43.27h-15.08zm.19 19.7c0 3.93-.95 7.11-2.88 9.52a9.2 9.2 0 01-7.56 3.6 8.91 8.91 0 01-7.45-3.56q-2.72-3.54-2.72-9.66c0-4.74 1-8.39 2.87-11a9.24 9.24 0 017.87-3.91 8.86 8.86 0 017.13 3.27 11.85 11.85 0 012.74 7.89z" fill="#2172b9"/></svg>