<svg data-name="Layer 1" xmlns="http://www.w3.org/2000/svg" viewBox="0 0 512 512"><path d="M77.67 393.73l-10.16 31.61c-3.1 10.58-6.35 23.13-9 34.14h-.42c-2.12-11.15-5.08-23.14-8-34l-9.31-31.75H12.07L6 488.82h19.89l1.69-36.12c.71-11.85 1.13-26.52 1.7-39.36h.28c2.26 12.42 5.5 26 8.61 37.25l10.15 36.68h16.79l11.57-37.11c3.67-11.14 7.62-24.68 10.58-36.82h.42c0 13.83.43 27.65.85 39.08l1.41 36.4h21l-5.22-95.09zM391.91 220a16.28 16.28 0 00-4.76-10.38c-16.31-14.57-33.8-27.58-53.29-37.74-1.69-.89-4-.62-6-.89.91 1.94 1.35 4.32 2.76 5.74 9.76 9.79 19.33 19.83 29.72 28.89 8.19 7.15 12.15 14.89 11.25 26.06-1 12.28-.22 12.39-12.69 12.34-10.88 0-22.55 2.47-29.82-10.77-2.41 3.15-3.61 5-5.05 6.56-3.52 3.89-3.56 7 .89 10.39 3.95 3 7.09 7.14 11.06 10.12 2.51 1.89 5.89 3.58 8.94 3.67 13.21.39 26.44.08 39.66.22 5.33 0 7.64-2.18 7.57-7.56-.15-12.19.33-24.45-.24-36.65zm-93.63-49.68c1.68-.67 3.76-.9 4.93-2.07 10.24-10.16 20.76-20.06 30.26-30.85 7.08-8 14.8-11.66 25.6-10.91 12.3.81 12.37.19 12.3 12.18-.06 11 2.66 22.94-10.88 30.35 3.4 2.55 5.41 3.83 7.17 5.44 3.54 3.24 6.39 3 9.54-.76 3.69-4.46 8.07-8.35 11.72-12.85a13.32 13.32 0 003.09-7.41c.3-13.21.08-26.43.18-39.64 0-5.07-2.31-7.24-7.31-7.24-12.82.08-25.64-.28-38.42.24a15.23 15.23 0 00-9.83 4.48c-14.6 16.49-27.77 34.15-37.92 53.84-.71 1.45-.31 3.47-.43 5.22zM77.52 147.94v158.14c0 4.1.21 7.3 5.48 8.16 26 4.28 52.06 8.78 78 13.29q50.55 8.73 101.05 17.74c5.14.91 6.78-.82 6.7-5.91-.23-13.43-.07-26.86-.07-40.29.06-8.4.31-8.63 8.94-8.63h125.65c11 0 14.09-3.2 14.09-14.39v-90.2q0-45.66-.07-91.42c0-10.51-3.49-14-14-14H277.05c-8.09 0-8.4-.27-8.4-8.5 0-12.22.11-24.45 0-36.67-.12-15.05 2.32-15.36-13.92-11.69-.75.18-1.56.23-2.37.37q-55.57 9.55-111.16 19.14c-18.71 3.22-37.38 6.79-56.2 9.56-5.87.86-7.66 2.94-7.61 8.72.26 28.85.13 57.72.13 86.58zM275.67 89.6q62.52.2 125 0c5.17 0 6.88 1.73 6.88 7q-.21 88.68 0 177.34c0 5.32-1.38 7.44-7.06 7.44-41.47-.19-82.95-.12-124.42-.12-6.93 0-7.4-.6-7.4-8.32 0-8.18.35-9 7.57-8.64 6.52.33 11.29-2 14.88-7.15q17.38-24.79 34.74-49.64a5.16 5.16 0 001.15-2.07 49.42 49.42 0 00-.05-5c-1.49.56-3.38.72-4.42 1.74-6.55 6.48-12.87 13.17-19.36 19.73-5.91 6-11.81 12-17.87 17.87a15.47 15.47 0 01-5.91 3.84c-7.9 2.36-10.74.14-10.74-8.07q-.09-20.45 0-40.88c0-2.32.38-4.63.71-8.38 5 3 9 5.39 13 7.73a82 82 0 009.47 5.18c1.73.73 3.93.3 5.92.39-.81-1.62-1.22-3.65-2.43-4.87-7.36-7.31-15.14-14.3-22.22-21.92a17 17 0 01-4.23-9.87c-.57-9.79-.08-19.63-.24-29.44-.08-4.73 1.58-6.47 6.59-6.94 9-.81 15.27 3.32 21.32 10.56 2.59-3.39 5-5.69 6.22-8.48.73-1.66.48-4.83-.67-6.07-4.49-4.83-9.09-9.79-14.51-13.43-3.13-2.11-7.92-2.52-11.91-2.39-7 .24-7-3.77-7.1-8.88s.72-8.26 7.09-8.26zm-133.57 93c0-16 .18-32.08 0-48.1-.08-5.31.95-8 7.05-8.26 13-.61 25.9-1.93 38.89-3 3.48-.32 4.77 1.43 4.77 4.55v14.43c0 3.58-1.75 4.75-5.26 4.75-6.4 0-12.79.54-19.2.68-3.39.07-5.17 1.28-5 5 .19 4.58.19 9.21 0 13.81-.17 3.8 1.6 4.84 5.08 4.76 6.41-.13 12.83.14 19.24 0 3.62-.09 5.17 1.52 5.17 5v.6c1.48 18.41 1.48 18.28-17 18.13-14.77-.12-12.3-1.8-12.42 12.26-.1 12.7-1.19 10.65 10.78 11.26 5.61.3 11.18.85 16.79 1.11 3.59.17 5.61 1.54 5.51 5.43-.13 5-.05 10-.13 15-.05 2.93-1.38 4.28-4.56 4-14.52-1.52-29-3.21-43.6-4.16-5.46-.35-6.05-2.84-6.05-7.22.03-16.79-.06-33.45-.06-50.08zm179.64 235.68c-9.59 0-16.78 3.81-20.88 9.73h-.28v-39.36h-21.44v79.57c0 7.76-.28 16.09-.57 20.6h18.2l.85-9.59h.28c4.94 8.18 12.7 11.14 20.74 11.14 15.8 0 31.6-12.41 31.6-37.24.14-21.13-11.99-34.85-28.5-34.85zm-8.18 55.16A13 13 0 01301 463.28a15.22 15.22 0 01-.43-3.8v-10.16a17.39 17.39 0 01.43-3.95c1.41-6.21 6.77-10.58 12.55-10.58 10 0 14.82 8.46 14.82 19.18.01 12.42-5.64 19.47-14.81 19.47zm83.24-55.16c-22.15 0-36.82 14.25-36.82 36.54s15.52 35.55 35.69 35.55c18.48 0 36.4-11.57 36.4-36.82 0-20.74-14.07-35.27-35.27-35.27zm-.56 56.72c-9.18 0-14.11-8.88-14.11-20.73 0-10.16 3.81-20.74 14.11-20.74 9.73 0 13.68 10.44 13.68 20.74 0 12.4-5.36 20.73-13.68 20.73zm109.48-55.16h-23.28L476.37 431c-1.83 3.38-3.52 6.91-5.36 10.58h-.28c-1.83-3.25-3.67-6.77-5.64-10.3l-6.77-11.43h-24l22.86 33.86-23.42 35.13h23.56l6.49-12.42c1.69-3.38 3.53-6.77 5.22-10.43h.42c1.69 3.52 3.39 7 5.36 10.43l6.91 12.42H506l-23-36.14zm-321 28.22c0-16.23-7.34-29.77-30.33-29.77-12.56 0-22 3.39-26.81 6.07l4 13.82a38.86 38.86 0 0119.03-5.18c10.58 0 12.56 5.22 12.56 8.89v1c-24.41-.14-40.49 8.46-40.49 26.38 0 11 8.32 21.16 22.29 21.16 8.18 0 15.23-3 19.75-8.46h.42l1.27 6.91h19.33a106.32 106.32 0 01-1-16.79zm-20.88 15.66a15.51 15.51 0 01-.42 3.67 11.73 11.73 0 01-11.15 7.9c-4.79 0-8.46-2.68-8.46-8.19 0-8.32 8.74-11 20-10.86zm48.54-73.93c-6.92 0-11.43 4.66-11.29 10.87-.14 5.92 4.37 10.72 11.15 10.72 7 0 11.56-4.8 11.56-10.72-.11-6.22-4.48-10.88-11.39-10.88zm-10.73 99h21.45v-69h-21.42zm38.66 0h21.44V388.65h-21.41z" fill="#2273ba"/></svg>