<svg data-name="Layer 1" xmlns="http://www.w3.org/2000/svg" viewBox="0 0 512 512"><path d="M151.41 365.39h.32l.94 5.15h14.4a80.25 80.25 0 01-.73-12.5v-17.86c0-12.09-5.47-22.18-22.6-22.18-9.35 0-16.39 2.53-20 4.52l2.94 10.3a28.91 28.91 0 0114.19-3.89c7.88 0 9.35 3.89 9.35 6.62v.74c-18.18-.11-30.16 6.3-30.16 19.65 0 8.19 6.2 15.76 16.6 15.76 6.14 0 11.39-2.21 14.75-6.31zm-9.24-4.93c-3.58 0-6.31-2-6.31-6.1 0-6.2 6.52-8.19 14.92-8.09v5.57a11.42 11.42 0 01-.31 2.73 8.73 8.73 0 01-8.3 5.89zm40.61 72.75h-.21c-2.63-4.2-7-7.25-14.08-7.25-12.61 0-23.33 10.51-23.33 27 0 14.82 9 25.12 21.75 25.12 5.89 0 10.83-2.42 13.87-6.73h.22v3.37c0 9.45-5.78 13.55-13.34 13.55a31.58 31.58 0 01-14.92-3.89l-3.15 12.09c4.62 2.62 11.76 4 18.49 4 7.56 0 15.24-1.47 20.91-6.3 5.78-5.15 7.78-13.24 7.78-23.12v-28.7c0-7.67.21-12 .42-15.23h-13.88zm-2 22.38a13.52 13.52 0 01-.52 4.2 8.67 8.67 0 01-8.41 6.52c-6.72 0-10.51-6-10.51-13.66 0-9.35 4.73-14.61 10.51-14.61 4.42 0 7.46 2.84 8.62 7a12.72 12.72 0 01.31 2.95zm30.95-113.52v28.47h16v-30.47c0-15.13-7.89-22.07-18.39-22.07a18.81 18.81 0 00-15.87 8.2h-.32l-.73-7h-13.89c.21 4.52.42 10 .42 16.39v35h16v-29.68a11.37 11.37 0 01.63-4 8.53 8.53 0 018.09-6c5.75.02 8.06 4.54 8.06 11.16zm-127 28.47h16v-26.06a18.84 18.84 0 01.31-3.57c1-4.94 5-8.09 10.93-8.09a15.85 15.85 0 014.31.53v-15.14a16.47 16.47 0 00-3.36-.21c-4.94 0-11.25 3.16-13.87 10.62h-.42l-.63-9.46H84.27c.21 4.41.42 9.35.42 16.92zm369.58-18.6c0 7.26 1.47 12.19 4.42 15.24 2.52 2.63 6.83 4.52 12 4.52a30.86 30.86 0 0010.4-1.47l-.13-12.09a19.91 19.91 0 01-4.73.42c-4.83 0-6.3-2.83-6.3-9v-18.6h11.45v-11.8h-11.49v-14l-15.66 4.3v9.67h-6.83v11.77h6.83zM46.38 448.55h26.06v-13H46.38v-14.74H74v-13.13H30.3v70.82h45.19v-13.14H46.38zM27.94 313.17H47v57.37h16v-57.37h19.37v-13.45H27.94zm107.34 90.72h-16v27.85h-.21c-2.31-3.57-7.25-5.78-13.56-5.78-12.29 0-23.11 10-23 27.32 0 16 9.77 26.37 22 26.37 6.62 0 12.82-2.94 16.08-8.72h.21l.73 7.57h14.17c-.21-3.47-.42-9.56-.42-15.34zm-16 51.7a13.83 13.83 0 01-.42 3.68 9.36 9.36 0 01-9.25 7.67c-6.62 0-10.93-5.46-10.93-14.19 0-8.09 3.79-14.6 11-14.6a9.6 9.6 0 019.42 7.85 27.12 27.12 0 01.21 2.84zM373.09 426c-16.5 0-27.42 10.61-27.42 27.21s11.55 26.48 26.58 26.48c13.77 0 27.11-8.61 27.11-27.42 0-15.49-10.51-26.27-26.27-26.27zm-.42 42.24c-6.83 0-10.51-6.62-10.51-15.45 0-7.56 2.84-15.44 10.51-15.44 7.25 0 10.19 7.77 10.19 15.44 0 9.21-3.99 15.41-10.19 15.41zm36.57 10.3h16v-74.65h-16zM373.78 318c-16.5 0-27.43 10.62-27.43 27.22s11.56 26.48 26.59 26.48c13.76 0 27.11-8.62 27.11-27.43 0-15.44-10.51-26.27-26.27-26.27zm-.42 42.25c-6.83 0-10.51-6.62-10.51-15.45 0-7.57 2.84-15.45 10.51-15.45 7.25 0 10.19 7.78 10.19 15.45 0 9.25-3.99 15.45-10.19 15.45zm110.7 91.35c0-12.72-6.3-25.64-22.91-25.64-17.86 0-25.95 14.4-25.95 27.43 0 16.07 10 26.26 27.42 26.26a50.68 50.68 0 0018.6-3.25l-2.1-10.83a45.12 45.12 0 01-14.18 2.11c-7.46 0-14-3.16-14.5-9.78h33.09a37.73 37.73 0 00.53-6.3zm-33.73-4.6c.42-4.31 3.15-10.41 9.88-10.41 7.35 0 9 6.52 9 10.41zm-125.26-1.69V445c6.09-2.21 12.5-8.41 12.5-17.44 0-6.52-2.31-11.46-6.51-14.82-5.05-4-12.4-5.57-22.91-5.57a140.84 140.84 0 00-21.33 1.47v69.86h15.87v-27.85h4.83c6.51.11 9.56 2.52 11.45 11.35 2.1 8.72 3.79 14.4 4.94 16.5h16.39c-1.36-2.73-3.57-12-5.78-20-1.78-6.5-4.52-11.21-9.45-13.21zM309 439.09h-6.3v-19.54a39.75 39.75 0 017.25-.53c7.35.11 11.76 3.37 11.76 9.88-.01 6.2-4.71 10.19-12.71 10.19zm132.45-105.74v-15.14a16.42 16.42 0 00-3.36-.21c-4.94 0-11.24 3.16-13.87 10.62h-.42l-.53-9.46h-13.76c.21 4.41.42 9.35.42 16.92v34.46h16v-26.06a18.8 18.8 0 01.32-3.57c1-4.94 5-8.09 10.92-8.09a15.79 15.79 0 014.28.53zm-179 5.78c-6.3-2.21-8.3-3.47-8.3-5.89 0-2.63 2.21-4.2 6.1-4.2a25.2 25.2 0 0111.17 2.96l2.84-11a34.39 34.39 0 00-14.5-2.95c-12.71 0-20.91 7.26-20.91 16.92-.11 6 4 11.77 14.61 15.34 6 2 7.56 3.26 7.56 5.89s-2 4.31-6.83 4.31a31.27 31.27 0 01-13.76-3.89L237.59 368a36.33 36.33 0 0016.6 3.68c14.71 0 22.28-7.15 22.28-16.71-.11-7.54-4.21-12.48-13.98-15.84zm39.62 52.22v-25.53h.21c2.31 3.36 7.15 5.88 13.35 5.88 11.45 0 23.32-8.83 23.32-27.53 0-16.39-10.08-26.17-21.33-26.17-7.46 0-13.34 2.84-17.13 8.31h-.21l-.73-7.15h-13.83c.21 4.73.42 10.51.42 17.23v55zm0-49.91a12.36 12.36 0 01.32-2.84 10 10 0 019.56-8.09c7.14 0 10.82 6.2 10.82 14.39 0 8.73-4.1 14.51-11 14.51a9.66 9.66 0 01-9.35-7.57 15.9 15.9 0 01-.32-3.36zm44.26-245c9.95.65 10 .15 9.95 9.85-.05 8.93 2.15 18.56-8.8 24.56 2.75 2.06 4.38 3.1 5.8 4.4 2.86 2.62 5.17 2.45 7.72-.62 3-3.6 6.53-6.75 9.48-10.39a10.77 10.77 0 002.5-6c.25-10.69.06-21.38.14-32.07 0-4.11-1.86-5.86-5.91-5.86-10.37.06-20.74-.23-31.09.19a12.35 12.35 0 00-8 3.63c-11.81 13.35-22.47 27.63-30.68 43.57-.6 1.15-.26 2.79-.35 4.2 1.36-.54 3-.73 4-1.67 8.29-8.22 16.8-16.24 24.49-25 5.8-6.5 12.05-9.43 20.79-8.82zM232.59 426c-17.86 0-26 14.4-26 27.43 0 16.07 10 26.26 27.42 26.26a50.68 50.68 0 0018.6-3.25l-2.1-10.83a45.14 45.14 0 01-14.19 2.11c-7.46 0-14-3.16-14.5-9.78H255a37.73 37.73 0 00.53-6.3c-.03-12.76-6.34-25.64-22.94-25.64zm-10.82 21c.42-4.31 3.15-10.41 9.88-10.41 7.35 0 9 6.52 9 10.41zm151.17-274.93a13.2 13.2 0 00-3.85-8.4c-13.2-11.79-27.35-22.32-43.12-30.54-1.37-.72-3.21-.5-4.84-.72.73 1.57 1.09 3.5 2.24 4.65 7.89 7.92 15.63 16 24 23.38 6.63 5.78 9.83 12.05 9.1 21.08-.79 9.94-.17 10-10.27 10-8.79 0-18.24 2-24.12-8.71-1.95 2.54-2.92 4-4.09 5.3-2.85 3.15-2.88 5.65.72 8.41 3.2 2.45 5.73 5.77 8.95 8.18a13.83 13.83 0 007.23 3c10.69.32 21.4.06 32.1.17 4.31 0 6.18-1.76 6.12-6.11-.11-9.92.29-19.83-.17-29.69zm20.59 45.34v-73q0-36.94-.06-74c0-8.5-2.82-11.31-11.32-11.31H280c-6.54 0-6.79-.22-6.79-6.88 0-9.89.08-19.79 0-29.67-.1-12.18 1.87-12.43-11.27-9.46-.61.14-1.26.19-1.92.3q-45 7.71-89.94 15.48c-15.15 2.6-30.25 5.49-45.45 7.73-4.76.7-6.2 2.38-6.17 7.06.2 23.34.09 46.7.09 70.06v128c0 3.32.17 5.9 4.43 6.6 21.06 3.46 42.12 7.1 63.15 10.76q40.89 7.05 81.76 14.35c4.16.74 5.49-.66 5.43-4.78-.19-10.87-.06-21.73-.06-32.6 0-6.8.24-7 7.23-7h101.64c8.87 0 11.4-2.58 11.4-11.64zm-178.9-29.26c0 2.37-1.11 3.46-3.69 3.19-11.74-1.22-23.49-2.59-35.27-3.36-4.42-.29-4.9-2.3-4.9-5.85.1-13.44 0-26.92 0-40.38 0-13 .13-26 0-38.92-.07-4.29.77-6.47 5.71-6.68 10.5-.5 21-1.56 31.47-2.47 2.81-.26 3.85 1.16 3.85 3.68V109c0 2.89-1.41 3.84-4.25 3.84-5.18 0-10.35.44-15.53.55-2.75.06-4.19 1-4.07 4 .16 3.71.16 7.45 0 11.17-.13 3.08 1.31 3.92 4.12 3.85 5.19-.1 10.38.12 15.57 0 2.92-.06 4.18 1.24 4.18 4v.59c1.2 14.9 1.2 14.8-13.79 14.67-12-.1-10-1.45-10.06 9.92-.07 10.28-1 8.62 8.73 9.12 4.53.24 9.05.68 13.58.89 2.9.14 4.54 1.25 4.46 4.4-.11 4-.04 8.1-.11 12.15zm64.61 33.47c-5.61 0-6-.49-6-6.74 0-6.62.28-7.28 6.12-7a12.86 12.86 0 0012.05-5.78q14.07-20.07 28.1-40.17a4.17 4.17 0 00.94-1.68 39.28 39.28 0 000-4.06c-1.21.45-2.74.59-3.58 1.41-5.3 5.24-10.41 10.65-15.67 16-4.78 4.87-9.55 9.73-14.45 14.45a12.59 12.59 0 01-4.79 3.12c-6.39 1.9-8.68.1-8.68-6.54q-.08-16.53 0-33.07c0-1.88.3-3.75.57-6.79 4 2.41 7.26 4.36 10.51 6.26a67 67 0 007.64 4.17c1.39.59 3.18.25 4.79.32-.66-1.32-1-3-2-3.94-5.95-5.92-12.24-11.58-18-17.74a13.75 13.75 0 01-3.43-8c-.45-7.92-.06-15.88-.19-23.82-.07-3.83 1.28-5.23 5.33-5.61 7.3-.66 12.36 2.68 17.26 8.54 2.09-2.74 4-4.6 5-6.86.6-1.34.4-3.91-.54-4.92-3.63-3.91-7.35-7.92-11.74-10.86-2.53-1.71-6.4-2-9.64-1.93-5.66.19-5.67-3.06-5.74-7.19s.56-6.66 5.71-6.66q50.6.17 101.18 0c4.18 0 5.57 1.4 5.57 5.66q-.18 71.74 0 143.49c0 4.3-1.12 6-5.72 6-33.48-.12-67.04-.06-100.6-.06z" fill="#2273ba"/></svg>