<svg data-name="Layer 1" xmlns="http://www.w3.org/2000/svg" viewBox="0 0 512 512"><path d="M26.41 419.89L6 486.67h15.66l4.75-17.14h19.12l5.16 17.14h16.25l-20.71-66.78zm2.18 38.35l4-14.17c1.09-3.87 2.09-8.92 3.08-12.88h.19c1 4 2.18 8.91 3.37 12.88l4.16 14.17zM373.68 185.8a13.23 13.23 0 00-3.87-8.46c-13.28-11.86-27.53-22.46-43.39-30.73-1.38-.73-3.24-.51-4.87-.73.73 1.58 1.1 3.52 2.25 4.67 7.94 8 15.73 16.15 24.2 23.54 6.66 5.82 9.89 12.12 9.15 21.21-.8 10-.17 10.09-10.33 10-8.85 0-18.36 2-24.28-8.76-2 2.56-2.94 4-4.11 5.34-2.87 3.17-2.9 5.68.72 8.46 3.22 2.46 5.77 5.81 9 8.23a13.79 13.79 0 007.28 3c10.75.32 21.53.06 32.29.17 4.35.05 6.22-1.77 6.17-6.15-.11-9.9.26-19.88-.21-29.79zm-274 262.92a20.63 20.63 0 018.42 1.49l2.38-11.2a35.18 35.18 0 00-11.5-1.88c-18 0-27.74 11.59-27.74 25.76 0 15.26 10 24.87 25.66 24.87a36.41 36.41 0 0013.48-2.28l-1.78-11.19a21.3 21.3 0 01-8.62 1.58c-7.34 0-13.28-4.65-13.28-13.57-.14-7.93 5.01-13.58 12.94-13.58zm43.6 0a20.63 20.63 0 018.42 1.49L154 439a35.18 35.18 0 00-11.5-1.88c-18 0-27.74 11.59-27.74 25.76 0 15.26 10 24.87 25.66 24.87a36.41 36.41 0 0013.48-2.28l-1.78-11.19a21.32 21.32 0 01-8.63 1.58c-7.33 0-13.27-4.65-13.27-13.57-.06-7.92 5.09-13.57 13.02-13.57zM219 389.88h15.06v-48.45H219zm-51.33-55.39a32.65 32.65 0 0112.68 2.51l3.07-12c-2.68-1.39-8.62-3-16.45-3-20.21 0-36.46 12.68-36.46 35.47 0 19 11.89 33.49 35 33.49 8.13 0 14.37-1.59 17.14-3l-2.27-11.79a38 38 0 01-12.59 2.18c-13.47 0-21.4-8.43-21.4-21.8-.03-14.83 9.28-22.06 21.27-22.06zm129.77-189.15c1.37-.55 3.07-.74 4-1.69 8.34-8.27 16.91-16.34 24.64-25.12 5.76-6.55 12-9.49 20.84-8.88 10 .66 10.08.15 10 9.91 0 9 2.17 18.68-8.86 24.72 2.77 2.07 4.41 3.12 5.84 4.43 2.88 2.64 5.21 2.47 7.77-.62 3-3.63 6.57-6.8 9.54-10.46a10.87 10.87 0 002.52-6c.25-10.76.06-21.52.14-32.28 0-4.13-1.88-5.9-6-5.9-10.43.07-20.87-.22-31.29.2a12.43 12.43 0 00-8 3.65c-11.89 13.43-22.61 27.81-30.87 43.85-.52 1.12-.17 2.77-.27 4.19zm-70.92 175c-4.85 0-8 3.27-7.92 7.63-.1 4.16 3.07 7.53 7.82 7.53 5 0 8.13-3.37 8.13-7.53-.1-4.38-3.17-7.65-8.03-7.65zM117.67 127.1v128.78c0 3.33.17 5.94 4.46 6.64 21.2 3.48 42.39 7.15 63.55 10.82q41.16 7.11 82.28 14.44c4.2.75 5.53-.66 5.47-4.8-.19-10.94-.06-21.88-.06-32.81.05-6.84.25-7 7.28-7h102.29c8.94 0 11.47-2.6 11.47-11.72V158q0-37.18-.06-74.45c0-8.56-2.84-11.39-11.39-11.39H280.15c-6.58 0-6.84-.22-6.84-6.92 0-10 .09-19.91 0-29.87-.09-12.25 1.89-12.51-11.33-9.52-.61.15-1.27.19-1.93.31q-45.27 7.74-90.52 15.54c-15.24 2.63-30.44 5.53-45.74 7.79-4.79.7-6.24 2.39-6.2 7.1.19 23.5.08 47 .08 70.51zM279 79.59q50.91.16 101.82 0c4.21 0 5.61 1.41 5.61 5.69q-.18 72.21 0 144.41c0 4.33-1.13 6.06-5.76 6.06-33.77-.15-67.54-.09-101.31-.09-5.64 0-6-.49-6-6.78 0-6.67.29-7.33 6.16-7a13 13 0 0012.12-5.88q14.17-20.19 28.29-40.42a4.21 4.21 0 00.94-1.69 39.86 39.86 0 000-4.09c-1.22.46-2.75.59-3.6 1.42-5.33 5.27-10.48 10.72-15.77 16.07-4.81 4.9-9.61 9.79-14.54 14.55a12.72 12.72 0 01-4.86 3.16c-6.43 1.92-8.74.11-8.74-6.58q-.08-16.64 0-33.28c0-1.89.3-3.78.57-6.83 4.07 2.42 7.31 4.39 10.58 6.3a67.85 67.85 0 007.72 4.22c1.4.59 3.2.24 4.82.31-.67-1.32-1-3-2-4-6-5.95-12.32-11.65-18.09-17.85a13.85 13.85 0 01-3.45-8c-.46-8-.06-16-.19-24-.07-3.85 1.29-5.26 5.36-5.65 7.35-.66 12.44 2.7 17.37 8.6 2.1-2.76 4-4.63 5.06-6.9.6-1.35.39-3.94-.54-4.95-3.66-3.93-7.41-8-11.82-10.93-2.55-1.72-6.45-2-9.7-2-5.7.2-5.71-3.07-5.78-7.23s.57-6.64 5.73-6.64zm-108.74 75.69c0-13.06.14-26.13 0-39.17-.07-4.32.77-6.51 5.74-6.73 10.57-.49 21.09-1.56 31.67-2.48 2.83-.26 3.88 1.17 3.88 3.71v11.75c0 2.91-1.42 3.86-4.28 3.86-5.21 0-10.42.45-15.63.56-2.77.06-4.22 1-4.09 4.07.16 3.72.16 7.49 0 11.24-.13 3.09 1.31 3.94 4.14 3.87 5.22-.11 10.45.12 15.67 0 2.94-.07 4.21 1.24 4.21 4v.49c1.2 15 1.2 14.89-13.88 14.76-12-.1-10-1.46-10.12 10-.08 10.34-1 8.67 8.78 9.17 4.56.24 9.11.69 13.67.9 2.92.14 4.57 1.26 4.49 4.43-.11 4.07 0 8.16-.11 12.23 0 2.39-1.12 3.49-3.71 3.22-11.83-1.24-23.65-2.61-35.5-3.39-4.45-.29-4.94-2.31-4.94-5.88.08-13.5.01-27.07.01-40.61zm212.92 222.91a19.52 19.52 0 01-4.46.39c-4.56 0-5.94-2.67-5.94-8.52v-17.54h10.8v-11.09h-10.8v-13.18L358 332.31v9.12h-6.44v11.09H358v19.82c0 6.84 1.39 11.5 4.16 14.37a15.72 15.72 0 0011.3 4.26 29.13 29.13 0 009.81-1.39zm18.18 58.94c-15.55 0-25.86 10-25.86 25.66s10.9 25 25.07 25c13 0 25.56-8.12 25.56-25.86 0-14.59-9.9-24.8-24.77-24.8zM401 477c-6.44 0-9.91-6.24-9.91-14.56 0-7.14 2.67-14.57 9.91-14.57 6.83 0 9.61 7.33 9.61 14.57-.03 8.68-3.8 14.56-9.61 14.56zm105-15.65c0-12-5.94-24.18-21.6-24.18-16.84 0-24.47 13.58-24.47 25.86 0 15.16 9.41 24.77 25.86 24.77a47.75 47.75 0 0017.53-3.07l-2-10.2a42.87 42.87 0 01-13.37 2c-7 0-13.18-3-13.68-9.22h31.23a35.45 35.45 0 00.5-6zM474.19 457c.4-4.06 3-9.81 9.32-9.81 6.93 0 8.52 6.14 8.52 9.81zm-291.32-19.87c-16.84 0-24.47 13.58-24.47 25.86 0 15.16 9.41 24.77 25.86 24.77a47.81 47.81 0 0017.54-3.07l-2-10.2a42.94 42.94 0 01-13.38 2c-7 0-13.18-3-13.67-9.22H204a35.71 35.71 0 00.49-5.94c-.02-12.01-5.96-24.2-21.62-24.2zM172.67 457c.4-4.06 3-9.81 9.31-9.81 6.94 0 8.52 6.14 8.52 9.81zm262.78 29.72h15.06v-70.4h-15.06zm-79.37-31.31v-.29c5.75-2.09 11.79-7.93 11.79-16.45 0-6.15-2.18-10.8-6.14-14-4.76-3.77-11.69-5.25-21.6-5.25a133.28 133.28 0 00-20.13 1.36v65.89h15v-26.25h4.56c6.15.1 9 2.37 10.8 10.7 2 8.22 3.57 13.57 4.66 15.55h15.46c-1.29-2.57-3.37-11.29-5.45-18.82-1.72-6.15-4.29-10.6-8.95-12.49zm-15.16-5.84H335v-18.48a37.47 37.47 0 016.84-.5c6.94.1 11.1 3.17 11.1 9.32-.03 5.84-4.49 9.61-12.02 9.61zm-149.18-59.69h15.06v-70.35h-15.06zM329.38 363v26.85h15.06v-28.7c0-14.27-7.44-20.81-17.34-20.81a17.74 17.74 0 00-15 7.73h-.29l-.7-6.64h-13.05c.2 4.26.4 9.41.4 15.45v33h15.06v-27.94a10.65 10.65 0 01.6-3.77 8 8 0 017.63-5.65c5.45 0 7.63 4.27 7.63 10.48zm-95.18 94c-5.94-2.08-7.82-3.27-7.82-5.55 0-2.48 2.08-4 5.74-4a23.81 23.81 0 0110.51 2.77l2.67-10.4a32.44 32.44 0 00-13.67-2.78c-12 0-19.72 6.84-19.72 15.95-.1 5.65 3.76 11.1 13.77 14.47 5.65 1.88 7.14 3.07 7.14 5.55s-1.89 4.06-6.44 4.06a29.48 29.48 0 01-13-3.66l-2.68 10.79a34.12 34.12 0 0015.66 3.47c13.87 0 21-6.73 21-15.75-.08-7.04-3.94-11.7-13.16-14.87zm43 0c-5.95-2.08-7.83-3.27-7.83-5.55 0-2.48 2.08-4 5.75-4a23.77 23.77 0 0110.5 2.77l2.67-10.4a32.4 32.4 0 00-13.67-2.78c-12 0-19.72 6.84-19.72 15.95-.1 5.65 3.77 11.1 13.78 14.47 5.64 1.88 7.13 3.07 7.13 5.55s-1.88 4.06-6.44 4.06a29.48 29.48 0 01-13-3.66l-2.68 10.79a34.15 34.15 0 0015.66 3.47c13.87 0 21-6.73 21-15.75-.06-7.04-3.93-11.7-13.14-14.87zm9.56-69.15l-2-10.21a42.58 42.58 0 01-13.37 2c-7 0-13.18-3-13.68-9.21H289a36.89 36.89 0 00.49-5.95c0-12-5.94-24.17-21.6-24.17-16.84 0-24.47 13.57-24.47 25.86 0 15.16 9.41 24.77 25.86 24.77a47.84 47.84 0 0017.49-3.04zM267 350.34c6.93 0 8.52 6.15 8.52 9.81h-17.89c.37-4.06 2.98-9.81 9.37-9.81z" fill="#2273ba"/></svg>