<svg data-name="Layer 1" xmlns="http://www.w3.org/2000/svg" viewBox="0 0 512 512"><path d="M229.2 330.31h-17.49v56.25h17.49zm12.65 116.91c-18.06 0-30 11.62-30 29.79s12.65 29 29.1 29c15.07 0 29.68-9.43 29.68-30-.02-16.94-11.53-28.79-28.78-28.79zm-.46 46.24c-7.48 0-11.5-7.24-11.5-16.91 0-8.28 3.1-16.9 11.5-16.9 7.94 0 11.16 8.51 11.16 16.9 0 10.13-4.37 16.91-11.16 16.91zM110.59 309l-8.28 25.77c-2.53 8.62-5.17 18.86-7.36 27.83h-.35c-1.72-9.08-4.14-18.86-6.55-27.72L80.46 309H57.11l-5 77.53h16.27l1.38-29.45c.57-9.66.92-21.62 1.38-32.09h.23c1.84 10.12 4.49 21.17 7 30.37l8.28 29.91h13.69l9.45-30.27c3-9.08 6.21-20.13 8.63-30h.34c0 11.27.35 22.55.69 31.86l1.15 29.68h17.14L133.48 309zm78.69 159.36V468c6.72-2.37 13.72-9.16 13.72-19 0-7.13-2.53-12.54-7.14-16.22-5.52-4.37-13.57-6.1-25.07-6.1a154.09 154.09 0 00-23.35 1.61v76.5h17.37v-30.54h5.29c7.13.12 10.47 2.76 12.54 12.43 2.3 9.54 4.14 15.75 5.4 18.06h18c-1.5-3-3.91-13.12-6.33-21.86-2.03-7.13-5.03-12.31-10.43-14.49zm-17.6-6.79h-6.9V440.2a43.86 43.86 0 017.93-.57c8.06.11 12.89 3.68 12.89 10.81 0 6.79-5.18 11.16-13.92 11.16zm-24.39-91c0 9 6.79 17.25 18.18 17.25 6.67 0 12.42-2.41 16.1-6.9h.35l1 5.64h15.76a87.91 87.91 0 01-.8-13.69v-19.55c0-13.23-6-24.27-24.74-24.27-10.23 0-17.94 2.76-21.85 4.94l3.22 11.28a31.54 31.54 0 0115.56-4.27c8.63 0 10.24 4.26 10.24 7.25v.8c-19.9-.05-33.02 6.95-33.02 21.52zM180.88 360v6.09a12.59 12.59 0 01-.34 3 9.56 9.56 0 01-9.09 6.44c-3.91 0-6.9-2.19-6.9-6.67 0-6.8 7.13-8.99 16.33-8.86zm39.46-36.58c5.75 0 9.43-3.91 9.43-8.74-.11-5.06-3.68-8.86-9.31-8.86s-9.32 3.8-9.21 8.86c-.11 4.82 3.57 8.73 9.09 8.73zm117.91 123.8c-19.56 0-28.41 15.76-28.41 30 0 17.6 10.93 28.76 30 28.76a55.27 55.27 0 0020.36-3.57l-2.3-11.84a49.73 49.73 0 01-15.53 2.3c-8.17 0-15.3-3.45-15.87-10.7h36.23a41.34 41.34 0 00.58-6.9c.02-13.9-6.89-28.05-25.06-28.05zm-11.85 23c.46-4.72 3.45-11.39 10.81-11.39 8.06 0 9.9 7.13 9.9 11.39zm44.4-141.18c-18.06 0-30 11.62-30 29.79s12.65 29 29.1 29c15.07 0 29.68-9.43 29.68-30-.02-16.93-11.52-28.78-28.78-28.78zm-.46 46.24c-7.47 0-11.5-7.25-11.5-16.91 0-8.28 3.11-16.91 11.5-16.91 7.94 0 11.16 8.51 11.16 16.91 0 10.13-4.37 16.92-11.16 16.92zm-37.5-17.83c.12-17.26-9.78-28.41-23.24-28.41-7.82 0-13.68 3.1-17 7.93h-.23v-32.08h-17.5v64.88c0 6.32-.23 13.11-.46 16.79h14.84l.69-7.82h.23c4 6.67 10.35 9.08 16.91 9.08 12.92 0 25.76-10.12 25.76-30.36zM302.93 374a10.57 10.57 0 01-10.23-8.28 12.86 12.86 0 01-.35-3.11v-8.28a14.58 14.58 0 01.35-3.22 10.84 10.84 0 0110.23-8.63c8.17 0 12.08 6.91 12.08 15.65-.01 10.14-4.6 15.87-12.08 15.87zm-59.7-69.13v81.67h17.49v-81.65zm197.86 52.22l18.52-26.8h-19l-4.95 9.09c-1.49 2.76-2.87 5.64-4.37 8.63h-.23c-1.49-2.65-3-5.53-4.6-8.4l-5.46-9.3h-19.59L420 357.92l-19 28.64h19.21l5.29-10.12c1.38-2.76 2.87-5.52 4.25-8.51h.35c1.38 2.87 2.76 5.75 4.37 8.51l5.64 10.12h19.78zm-143.21-228.7c1.39-.55 3.1-.74 4.06-1.7 8.43-8.36 17.09-16.52 24.91-25.4 5.82-6.61 12.17-9.58 21.06-9 10.13.67 10.18.15 10.13 10-.05 9.09 2.19 18.88-9 25 2.79 2.1 4.45 3.16 5.9 4.48 2.9 2.67 5.26 2.49 7.84-.63 3-3.67 6.65-6.87 9.65-10.57a11.06 11.06 0 002.55-6.1c.24-10.87.06-21.75.14-32.62 0-4.18-1.9-6-6-6-10.54.07-21.09-.22-31.62.21a12.49 12.49 0 00-8.08 3.68c-12 13.58-22.86 28.11-31.21 44.31-.58 1.24-.21 2.95-.33 4.34zm77.06 40.89a13.43 13.43 0 00-3.91-8.55c-13.43-12-27.83-22.69-43.86-31-1.39-.74-3.27-.51-4.92-.74.74 1.6 1.11 3.56 2.27 4.72 8 8.06 15.9 16.32 24.46 23.79 6.73 5.88 10 12.25 9.25 21.44-.81 10.11-.18 10.2-10.44 10.16-9 0-18.56 2-24.54-8.86-2 2.58-3 4.09-4.16 5.4-2.9 3.2-2.93 5.74.73 8.54 3.26 2.49 5.84 5.88 9.11 8.33a14 14 0 007.35 3c10.87.32 21.77.06 32.64.17 4.39.05 6.29-1.79 6.24-6.21-.16-10.08.25-20.16-.22-30.19zm-101.41 65.06c0-6.92.24-7.1 7.35-7.1h103.41c9 0 11.6-2.64 11.6-11.85v-74.23q0-37.59-.06-75.25c0-8.64-2.88-11.5-11.52-11.5h-103.9c-6.66 0-6.91-.23-6.91-7 0-10.06.09-20.13 0-30.18-.1-12.39 1.9-12.65-11.5-9.63-.61.15-1.28.2-2 .31q-45.75 7.86-91.48 15.74c-15.4 2.66-30.77 5.59-46.23 7.87-4.84.71-6.31 2.42-6.27 7.18.2 23.74.09 47.5.09 71.26v130.15c0 3.37.18 6 4.51 6.71 21.43 3.53 42.85 7.23 64.23 10.94q41.61 7.19 83.16 14.6c4.24.75 5.59-.67 5.52-4.86-.14-11.05 0-22.11 0-33.16zm-59.6-48.71c0 2.42-1.14 3.53-3.76 3.25-11.95-1.25-23.89-2.64-35.88-3.42-4.49-.29-5-2.34-5-6 .11-13.68 0-27.38 0-41.07 0-13.2.14-26.41 0-39.59-.08-4.36.78-6.57 5.8-6.8 10.68-.5 21.31-1.58 32-2.5 2.86-.27 3.92 1.18 3.92 3.74v11.88c0 2.94-1.44 3.9-4.33 3.9-5.27 0-10.53.45-15.8.57-2.79.06-4.26 1-4.13 4.11.16 3.76.16 7.57 0 11.36-.13 3.12 1.32 4 4.18 3.91 5.28-.11 10.56.12 15.84 0 3-.07 4.26 1.26 4.26 4.08v.5c1.21 15.15 1.21 15.05-14 14.92-12.16-.1-10.13-1.48-10.22 10.09-.08 10.46-1 8.77 8.87 9.27 4.62.25 9.21.7 13.82.91 2.95.15 4.62 1.27 4.53 4.48-.1 4.16-.03 8.29-.1 12.41zM273.51 98c-.06-3.89 1.31-5.32 5.42-5.71 7.43-.67 12.57 2.73 17.56 8.69 2.12-2.79 4.08-4.68 5.11-7 .61-1.36.4-4-.55-5-3.69-4-7.48-8.06-11.94-11.05-2.58-1.73-6.52-2.07-9.8-2-5.77.2-5.78-3.1-5.84-7.31s.56-6.77 5.8-6.77q51.47.16 102.91 0c4.26 0 5.67 1.43 5.67 5.76q-.18 73 0 146c0 4.37-1.14 6.12-5.82 6.12-34.13-.16-68.26-.1-102.39-.1-5.7 0-6.09-.49-6.09-6.85 0-6.73.28-7.41 6.22-7.1a13.1 13.1 0 0012.23-5.85q14.33-20.42 28.59-40.85a4.19 4.19 0 00.95-1.71 37.91 37.91 0 000-4.13c-1.23.46-2.78.59-3.64 1.43-5.39 5.33-10.59 10.84-15.93 16.24-4.87 4.95-9.72 9.9-14.7 14.7a12.81 12.81 0 01-4.87 3.17c-6.5 1.94-8.84.11-8.84-6.65q-.07-16.82 0-33.64c0-1.91.31-3.81.58-6.9 4.12 2.45 7.39 4.44 10.69 6.37a68.52 68.52 0 007.8 4.26c1.42.6 3.24.25 4.87.32-.67-1.33-1-3-2-4-6.06-6-12.46-11.77-18.29-18a14 14 0 01-3.48-8.12c-.48-8.11-.09-16.21-.22-24.32zm7.91 406.7h17.49v-81.63h-17.49z" fill="#2273ba"/></svg>