<svg xmlns="http://www.w3.org/2000/svg" width="512" height="512" viewBox="0 0 512 512"><path d="M267.5 117.08l24.69 42.67c-23.47 13.88-53.76 6.11-67.64-17.36-13.88-23.47-6.11-53.76 17.36-67.64a49.252 49.252 0 0118.51-6.43l7.12 48.76h-.04z" fill="#009ddc" fill-rule="evenodd"/><path d="M329.23 389.29c-.52-.54-.99-1.14-1.4-1.77-.39-.63-.74-1.29-1.03-1.98-2.7-6.48.36-13.93 6.84-16.63a12.71 12.71 0 0111.43.83c.71.42 1.37.92 1.98 1.48 3.46 3.33 4.57 4.12 8.23 7.45l3.33 3 27.12-29.13c11.48-11.81 29.79 5.47 18.35 17.57l-33.58 36.34-1.73 1.77c-4.73 5.01-12.58 5.35-17.74.78l-2.72-2.55-6.46-5.64c-5.02-4.36-7.94-6.75-12.63-11.48v-.04z" fill="#89c540" fill-rule="evenodd"/><path d="M450.29 434.55a99.756 99.756 0 0016.24-54.51c.03-55.11-44.62-99.81-99.73-99.85-19.62.01-38.8 5.81-55.14 16.67-45.89 30.49-58.37 92.4-27.88 138.28 30.49 45.89 92.4 58.37 138.28 27.88l41.64 45.8 29.79-27.24-43.21-47.03zm-83.41 25.23c-43.84 0-79.38-35.54-79.38-79.38v-.04c.02-43.82 35.56-79.34 79.38-79.34s79.38 35.54 79.38 79.38-35.54 79.38-79.38 79.38zM164.67 107.61h22.96c1.23 0 2.22.99 2.22 2.22v45.27c0 1.23-.99 2.22-2.22 2.22h-22.96c-1.23 0-2.22-.99-2.22-2.22v-45.27c0-1.23.99-2.22 2.22-2.22z" fill="#f58518" fill-rule="evenodd"/><path d="M380.62 72.18h37.45c14.65.07 26.52 11.93 26.58 26.58v138.1c-.78 8.23-21.23 8.44-22.96 0V98.76c.01-1-.37-1.96-1.07-2.67-.71-.73-1.7-1.14-2.72-1.11h-37.28v141.89c-1.98 7.53-19.01 8.68-22.84 0V29.75c.05-2.02-1.55-3.7-3.58-3.75H44.96c-1-.01-1.96.37-2.67 1.07-.73.7-1.13 1.67-1.11 2.67v360.23a3.756 3.756 0 003.7 3.79h181.59c11.52 1.15 11.85 21.03 0 22.8H104.91v42.38c-.02 1.02.38 2.01 1.11 2.72.71.7 1.68 1.08 2.67 1.07h117.77c8.23.95 11.03 19.88 0 22.84H109.02c-7.05.04-13.82-2.78-18.76-7.82a26.42 26.42 0 01-7.86-18.81v-42.38H45.08c-14.65-.07-26.52-11.93-26.58-26.58V29.75a26.185 26.185 0 017.82-18.76c4.96-5 11.72-7.81 18.76-7.82H354.2c7.05-.02 13.82 2.79 18.76 7.82a26.45 26.45 0 017.65 18.76v42.43z" fill="#009ddc" fill-rule="evenodd"/><path d="M80.23 235.3c-5.56-.36-9.77-5.15-9.42-10.71.32-5.06 4.36-9.09 9.42-9.42H261.7c5.56.36 9.77 5.15 9.42 10.71-.32 5.06-4.36 9.09-9.42 9.42H80.23zm0 52.51c-5.57 0-10.08-4.51-10.08-10.08s4.51-10.08 10.08-10.08h151.6c5.57 0 10.08 4.51 10.08 10.08s-4.51 10.08-10.08 10.08H80.23zm1.15 58.06c-5.57 0-10.08-4.51-10.08-10.08s4.51-10.08 10.08-10.08h113.37c5.57 0 10.08 4.51 10.08 10.08s-4.51 10.08-10.08 10.08H81.38z" fill="#009ddc" fill-rule="evenodd"/><path d="M82.45 79.83h23c1.23 0 2.22.99 2.22 2.22v72.92c-.02 1.22-1 2.2-2.22 2.22H82.69c-1.23 0-2.22-.99-2.22-2.22V82.05c0-1.23.99-2.22 2.22-2.22h-.25zm41.15-15.59h22.96c1.23 0 2.22.99 2.22 2.22v88.51c0 1.23-.99 2.22-2.22 2.22h-22.88c-1.23 0-2.22-.99-2.22-2.22V66.46c0-1.23.99-2.22 2.22-2.22h-.08zm154.15 54.93h45.97a45.776 45.776 0 01-20.58 38.06l-25.39-38.06zm50.9-9.83l-.25-3.29c-2.1-27.71-25.38-49.02-53.17-48.68l-5.39.25 2.76 52.55.16-.08v3.37l55.88-4.12zm-7.36-6.05l-42.34 3.13-2.22-42.39c22.46.41 41.33 17.03 44.57 39.26z" fill="#f58518" fill-rule="evenodd"/></svg>