<svg data-name="ec82c463-fa4f-45fb-907f-806dc55aa8f1" xmlns="http://www.w3.org/2000/svg" viewBox="0 0 512 512"><path d="M504.76 194.32a76 76 0 00-3.22-13.13c-33.18 31.45-64.63 60.68-95.34 90.64a22.55 22.55 0 00-4.46 15.36v140.16c0 16.1-2.23 16.84-18.08 14.61-35.91-5.2-71.82-11.39-108-13.37a584.82 584.82 0 00-222.85 39.13 52.52 52.52 0 01-16.6 0h4l37.89-16.59a539.18 539.18 0 01290.24-22.29 110.69 110.69 0 0022.29 0V116.06c0-3.71-3.47-7.43-5.2-10.9a42.3 42.3 0 00-8.18 9.42 600.81 600.81 0 01-107.51 165.67 32.91 32.91 0 00-6.68 19.07V387c0 11.64-4.21 15.35-15.11 16.09-15.6 0-31.45 3-47 5.2a546.84 546.84 0 00-152.3 51 36.31 36.31 0 017.18-5.7 422.54 422.54 0 01180.53-59.68c13.13-1.48 17.34-5.45 17.09-18.82v-338c0-6.44 3-15.6-8.67-14.11-9.41 28.23-15.6 56.71-25.51 84A919.88 919.88 0 0123.09 432.55 56.71 56.71 0 007.73 487l20.06-8.67a36.9 36.9 0 007.43 0c35.91-7.43 71.82-15.85 108-21.79a693.69 693.69 0 01185-3 759.07 759.07 0 01160.47 33.93C499.81 491 506 490 506 475.89c-1.24-94.6-1-187.96-1.24-281.57z" fill="#007aff"/></svg>