<svg data-name="Layer 1" xmlns="http://www.w3.org/2000/svg" viewBox="0 0 512 512"><path d="M343.29 182.63a43.6 43.6 0 0017.39-3.51 44.81 44.81 0 00-.05-82.56 43.54 43.54 0 00-17.4-3.51A43 43 0 00326 96.56c-4.08 1.75-5.36 4-11 6.74v69.08c5.62 2.75 6.88 5 11 6.74a42.92 42.92 0 0017.29 3.51zM6 452.62l292.13 50.56V8.82L6 59.38zm78.66-283.91l134.82-8.21v33.69l-50.56 2.25v147.48l-33.7-2V197.77l-50.56 2zm344.55 28.91a44.71 44.71 0 10-9.62-14.26 45.77 45.77 0 009.62 14.26zM315 409.62c5.62 1.22 7.64 2.17 11.63 2.71a94 94 0 0013.19 1 98.64 98.64 0 0020.26-2.18 59.74 59.74 0 0019.21-7.49 44.22 44.22 0 0014.31-14.26 40.9 40.9 0 005.65-22.34v-156H315zm101.11-170.47V374h22.46a127.43 127.43 0 0023-2.19 71.71 71.71 0 0021.78-7.59 48.64 48.64 0 0016.23-14.32 37.13 37.13 0 006.4-22.36v-88.39z" fill="#5558af"/></svg>