<svg xmlns="http://www.w3.org/2000/svg" width="512" height="512" viewBox="0 0 512 512"><path fill="#f58518" d="M410 150.79h27.84V74.16h-76.63V102H410v48.79zM410 410h-48.79v27.84h76.63v-76.63H410V410z"/><path d="M18.5 18.5v475h475v-475h-475zm447.17 447.17H46.33V46.33h419.34v419.34z" fill="#009ddc"/><path fill="#f58518" d="M150.79 410H102v-48.79H74.16v76.63h76.63V410zM102 102h48.79V74.16H74.16v76.63H102V102z"/><path d="M138.1 196.18c-32.99 0-59.83 26.84-59.83 59.82s26.84 59.83 59.83 59.83 59.82-26.84 59.82-59.83-26.84-59.82-59.82-59.82zm0 91.81c-17.64 0-31.99-14.35-31.99-31.99s14.35-31.99 31.99-31.99 31.99 14.35 31.99 31.99-14.35 31.99-31.99 31.99zm271.39-19.11c14.21-5.67 24.23-19.19 24.23-34.93 0-20.83-17.55-37.78-39.13-37.78h-38.35v119.65h27.83v-33.74l34.38 39.46 20.98-18.28-29.95-34.38zM394.6 243.9c-1.75 0-4.2 0-6.86.02l-.33-.37-.43.38c-.91 0-1.84 0-2.78.01-.02-3.85-.03-7.61-.03-9.98 0-2.05 0-5.91-.02-9.95h10.44c6.12 0 11.3 4.55 11.3 9.95s-5.17 9.95-11.3 9.95zm-90.76 36.11c-.72.86-1.5 1.67-2.32 2.4-4.17 3.71-9.53 5.59-15.94 5.59-17.64 0-31.99-14.35-31.99-31.99s14.35-31.99 31.99-31.99c6.41 0 12.59 1.89 17.88 5.46l11.53 7.79 15.58-23.06-11.53-7.79c-9.9-6.69-21.47-10.23-33.46-10.23-32.99 0-59.82 26.84-59.82 59.83s26.84 59.82 59.82 59.82c13.25 0 25.17-4.37 34.45-12.64 1.82-1.62 3.55-3.4 5.14-5.29l8.94-10.66-21.32-17.89-8.94 10.66z" fill="#009ddc"/></svg>