<svg data-name="Layer 1" xmlns="http://www.w3.org/2000/svg" viewBox="0 0 512 512"><path d="M196.64 184.83l105 62.85 62.5-26.36a101.16 101.16 0 0140.3-8.32c2.32 0 4.6.1 6.84.24a156.25 156.25 0 00-281.88-47.03l1.61-.05a124.44 124.44 0 0165.63 18.67z" fill="#0364b8"/><path d="M196.66 184.81A124.52 124.52 0 00131 166.16l-1.59.05A124.94 124.94 0 0028.47 362.63L121 323.68l41.16-17.31 91.6-38.56 47.86-20.13z" fill="#0078d4"/><path d="M411.28 213.31c-2.29-.16-4.57-.25-6.84-.25a101.25 101.25 0 00-40.24 8.31l-62.59 26.31 18.14 10.86 59.45 35.62 25.94 15.55 88.7 53.13a101.56 101.56 0 00-82.56-149.53z" fill="#1490df"/><path d="M405.13 309.71l-25.93-15.52-59.46-35.63-18.12-10.85-47.85 20.13-91.61 38.53L121 323.68l-92.53 38.95A124.84 124.84 0 00131 416.16h273.44a101.55 101.55 0 0089.42-53.37z" fill="#28a8ea"/></svg>