<svg xmlns="http://www.w3.org/2000/svg" width="512" height="512" viewBox="0 0 512 512"><path d="M476.54 441.9v-67.15c0-9.37-7.59-16.96-16.96-16.96H323.87c-9.38 0-16.96 7.6-16.96 16.96v67.15c-9.38 0-16.96 7.6-16.96 16.96 0 19.09 15.54 34.63 34.64 34.63h134.29c19.1 0 34.64-15.54 34.64-34.63 0-9.37-7.59-16.96-16.96-16.96zm-33.93 0H340.82v-50.19h101.79v50.19zm33.93-423.4H306.9c-9.38 0-16.96 7.6-16.96 16.96v101.79c0 9.37 7.59 16.96 16.96 16.96h67.86c-9.38 0-16.96 7.6-16.96 16.96s7.59 16.96 16.96 16.96h33.93c9.38 0 16.96-7.6 16.96-16.96s-7.59-16.96-16.96-16.96h67.86c9.38 0 16.96-7.6 16.96-16.96V35.47c0-9.37-7.59-16.96-16.96-16.96zm-16.97 101.79H323.86V52.43h135.71v67.86z" fill="#f58518"/><path d="M256 442.61h-84.82v-16.96c0-9.37-7.6-16.96-16.96-16.96s-16.96 7.6-16.96 16.96v33.93c0 9.37 7.6 16.96 16.96 16.96h101.79c9.37 0 16.96-7.6 16.96-16.96s-7.6-16.96-16.96-16.96zM154.22 103.32c9.37 0 16.96-7.6 16.96-16.96V69.4H256c9.37 0 16.96-7.6 16.96-16.96s-7.6-16.96-16.96-16.96H154.21c-9.37 0-16.96 7.6-16.96 16.96v33.93c0 9.37 7.6 16.96 16.96 16.96zm1.05 101.79c-28.06 0-50.89 22.83-50.89 50.89s22.83 50.89 50.89 50.89 50.89-22.83 50.89-50.89-22.83-50.89-50.89-50.89zm0 67.85c-9.35 0-16.96-7.61-16.96-16.96s7.61-16.96 16.96-16.96 16.96 7.61 16.96 16.96-7.61 16.96-16.96 16.96zm236.44-67.85c-9.38 0-16.96 7.6-16.96 16.96v101.79c0 9.37 7.59 16.96 16.96 16.96s16.96-7.6 16.96-16.96V222.07c0-9.37-7.59-16.96-16.96-16.96zm-110.19 66.23l-9.85-5.74c.27-3.22.41-6.41.41-9.6s-.13-6.38-.41-9.6l9.85-5.74c8.05-4.69 10.8-14.99 6.18-23.08l-33.64-58.76a16.914 16.914 0 00-10.33-7.96c-4.33-1.16-9.01-.56-12.92 1.72l-9.77 5.68c-5.14-3.57-10.56-6.72-16.23-9.43v-11.59c0-9.37-7.6-16.96-16.96-16.96h-67.26c-9.37 0-16.96 7.6-16.96 16.96v11.59c-5.66 2.71-11.08 5.86-16.23 9.43l-9.77-5.68c-3.9-2.29-8.58-2.89-12.92-1.72a16.97 16.97 0 00-10.33 7.96l-33.63 58.76c-4.63 8.09-1.87 18.39 6.18 23.08l9.84 5.74c-.27 3.22-.41 6.41-.41 9.6s.13 6.38.41 9.6l-9.84 5.74c-8.05 4.69-10.81 14.99-6.18 23.08l33.63 58.76c2.24 3.93 5.96 6.79 10.33 7.96 4.36 1.19 9.04.56 12.92-1.72l9.77-5.68c5.14 3.57 10.56 6.72 16.23 9.43v11.59c0 9.37 7.6 16.96 16.96 16.96h67.26c9.37 0 16.96-7.6 16.97-16.96v-11.59c5.66-2.71 11.08-5.86 16.23-9.43l9.77 5.68c3.9 2.29 8.57 2.91 12.92 1.72 4.36-1.17 8.09-4.03 10.33-7.96l33.64-58.76c4.62-8.09 1.87-18.39-6.18-23.08zm-44.86-30.85c1 5.43 1.48 10.51 1.48 15.51s-.48 10.07-1.48 15.51a16.97 16.97 0 008.15 17.71l5.07 2.96-16.78 29.32-4.85-2.82a16.974 16.974 0 00-19.61 1.81 83.552 83.552 0 01-26.5 15.41 16.98 16.98 0 00-11.26 15.98v5.91h-33.33v-5.92c0-7.17-4.51-13.56-11.26-15.98-9.77-3.49-18.68-8.67-26.5-15.41a16.941 16.941 0 00-19.61-1.81l-4.85 2.82-16.78-29.32 5.07-2.96a16.947 16.947 0 008.15-17.71c-1-5.43-1.48-10.51-1.48-15.51s.48-10.07 1.48-15.51a16.97 16.97 0 00-8.15-17.71l-5.07-2.96 16.78-29.32 4.85 2.82a16.924 16.924 0 0019.61-1.81 83.552 83.552 0 0126.5-15.41 16.98 16.98 0 0011.26-15.98v-5.91h33.33v5.92c0 7.17 4.51 13.56 11.26 15.98 9.77 3.49 18.68 8.67 26.5 15.41 5.48 4.72 13.35 5.43 19.61 1.81l4.85-2.82 16.78 29.32-5.07 2.96a16.947 16.947 0 00-8.15 17.71z" fill="#009ddc"/></svg>