<svg xmlns="http://www.w3.org/2000/svg" width="512" height="512" viewBox="0 0 512 512"><path d="M100.24 309.41c-8.21 0-14.86 6.8-14.86 15.18s6.65 15.18 14.86 15.18 14.86-6.8 14.86-15.18-6.65-15.18-14.86-15.18zm348.71-60.6l.13-.03h-17.3c-.32-4.95-.8-9.9-1.57-14.92l29.91-17.51c7.12-4.2 9.56-13.51 5.46-20.79l-49.65-87.06c-4.11-7.21-13.13-9.67-20.22-5.51l-30.1 17.64c-13.64-11.08-28.82-20-45.03-26.46V59.22c0-8.36-6.64-15.15-14.86-15.18h-99.3c-8.18 0-14.83 6.79-14.86 15.18v34.95a174.723 174.723 0 00-45.03 26.46l-30.1-17.64c-7.06-4.16-16.11-1.67-20.22 5.51l-49.65 87.06c-4.11 7.28-1.67 16.59 5.46 20.79l29.91 17.51c-.74 5.02-1.22 9.97-1.57 14.92h-17.3c-24.58 0-44.52 20.4-44.55 45.51v75.84c0 25.12 19.96 45.48 44.55 45.51h137.43c20.03 30.72 60.37 39.54 90.96 19.87h.1l27.44 28c5.81 5.9 15.21 5.9 20.99 0 5.78-5.94 5.78-15.51 0-21.41l-25.87-26.43h134.86c24.58 0 44.51-20.4 44.55-45.51v-75.84c0-25.12-19.96-45.48-44.55-45.51zM79.74 197.63h.03l34.69-60.83 26.32 15.41c5.55 3.25 12.52 2.49 17.27-1.84 15.28-14.07 33.31-24.66 52.89-31.05 6.16-2 10.33-7.84 10.33-14.43V74.4h69.61v30.49c0 6.59 4.17 12.43 10.33 14.43 19.58 6.43 37.61 17.02 52.89 31.05 4.78 4.36 11.71 5.08 17.27 1.84l26.32-15.41 34.69 60.83-26.06 15.25c-5.62 3.28-8.5 9.87-7.16 16.33 1.32 6.46 2.21 13.02 2.7 19.58h-38.77c-6.16-60.4-59.05-104.27-118.17-97.98-50.61 5.38-90.64 46.27-95.9 97.98h-38.77c.48-6.59 1.38-13.12 2.7-19.58 1.35-6.46-1.54-13.05-7.16-16.33l-26.06-15.25zm253.38 51.15H179.03c6.1-43.48 45.51-73.68 88.07-67.45 34.21 5.02 61.11 32.46 66.02 67.45zm-77.02 166.8c-20.51 0-37.1-16.99-37.1-37.9s16.62-37.91 37.1-37.91 37.1 16.99 37.1 37.91-16.62 37.9-37.1 37.9zm207.84-45.48h-.03c0 8.36-6.64 15.15-14.86 15.18H322.44c4.11-37.45-22.27-71.19-58.93-75.42-36.65-4.2-69.68 22.76-73.82 60.2a70.31 70.31 0 000 15.21H63.14c-8.18 0-14.83-6.79-14.86-15.18v-75.84c0-8.36 6.64-15.15 14.86-15.18h385.94c8.18 0 14.83 6.79 14.86 15.18v75.84z" fill="#009ddc"/></svg>