<svg data-name="Layer 1" xmlns="http://www.w3.org/2000/svg" viewBox="0 0 512 512"><path d="M490.27 220.81a44.74 44.74 0 00-38.06-10.57 123.77 123.77 0 00-67.35-69.43 49.57 49.57 0 00-.85-21.06c-4.72-18.23-21.44-33.06-40.43-34.1-13.31-1.23-26.45 4.44-35.89 13.7v65.36c9.54 9.63 23.24 15.49 36.84 14a45.13 45.13 0 0029.18-15.21c26 10.2 46.76 32 56.21 58.18-10.21 10.3-16.16 25.13-14.27 39.77 1.14 11.05 6.61 21.26 14.27 29.19A99.12 99.12 0 01374 348.52c-8.22-8.6-19.55-14.74-31.74-15-12.84-.66-25.5 5-34.38 14.26v64.9a44 44 0 0018.7 12.08c15.59 5.3 34 .95 45.43-10.86 11.06-11 15.68-27.3 13-42.5 30.6-12.57 55.26-38.35 67.06-69.24 19.27 4 40.05-6.52 48.74-24.09 9.77-18.72 5.42-43.56-10.54-57.26zM6 442.6c91.81 16.24 183.43 32.77 275.05 49V20.36L6 69.59zM97.62 176c8.79-10.67 22.2-16.91 35.89-18.7 13.51-1 27.68-.47 40.43 4.72v40.38c-7.65-6.05-16.91-10.49-26.73-11.53-8-.94-17.38-.47-23.52 5.48-7.37 7-7.55 19.08-2.55 27.58 4.25 6.24 10.58 10.39 16.91 14.27 11.71 7 23.23 14.92 31.83 25.78 9.82 13 12.47 30.13 10.2 46-1.61 13.6-8.12 27-19.36 35.23-9 6.71-20.22 9.26-31.27 9.54-15.58.1-31.92-3.3-44.58-12.94l-.09-40.71c8.59 9.73 19.64 17.76 32.68 19.65 7.74 1.32 17.19.85 22.67-5.76 6.89-8.22 5.19-21-1.7-28.62-9.17-10.2-22.2-15.49-32.4-24.18-11.15-9.36-19.37-22.86-21.03-37.59-2.11-16.91 1.38-35.33 12.62-48.6z" fill="#0072c6"/></svg>