<svg data-name="Layer 1" xmlns="http://www.w3.org/2000/svg" viewBox="0 0 512 512"><path d="M256 326.31c7.85-1.15 15.89-1.72 23.6-3.65a79.28 79.28 0 0045-30.57 14.82 14.82 0 003.49-10.91 14.9 14.9 0 00-1.64-5.61 15.06 15.06 0 00-3.66-4.55c-6-4.76-14.23-3.39-20.18 3.28a81.28 81.28 0 01-7.83 8.66 59 59 0 01-85-8.45 18.63 18.63 0 00-9.49-6 11.91 11.91 0 00-14 6.55 15.08 15.08 0 001.85 17.32C205.3 314.5 228 325.3 256 326.31zm-21.39-108.26a21.44 21.44 0 00-21.1-22.4 22.41 22.41 0 00-22.64 22.61 21.55 21.55 0 001.69 8.54 21.8 21.8 0 0020.8 13.39c12.44-.05 21.25-9.25 21.25-22.14zm86.3.15c0-13.06-9.16-22.67-21.54-22.55A21.39 21.39 0 00278 217.91c0 13.35 8.6 22.25 21.66 22.28 12.77 0 21.34-8.95 21.34-22z" fill="#fff"/><path d="M256 326.32c-28-1-50.59-11.91-67.88-33.81a15.08 15.08 0 01-1.85-17.32 11.91 11.91 0 0114-6.55 18.63 18.63 0 019.49 6 59 59 0 0085 8.45 80.43 80.43 0 007.83-8.67c5.95-6.66 14.28-8 20.18-3.26a14.88 14.88 0 014.65 16 14.73 14.73 0 01-2.84 5.1 79.32 79.32 0 01-44.93 30.48c-7.72 1.85-15.76 2.42-23.65 3.58z" fill="#f68b1f"/><path d="M228.79 202.39a21.44 21.44 0 00-15.28-6.74 22.41 22.41 0 00-22.65 22.61 21.81 21.81 0 0022.5 21.93c12.32-.05 21.25-9.25 21.25-22.14a21.66 21.66 0 00-1.32-8.41 21.3 21.3 0 00-4.5-7.25zm247.63 147a16.36 16.36 0 013-17.86c17.35-22 26.22-47.4 26.61-80.13a215.64 215.64 0 00-3.54-23.33c-8.84-35.74-31-62-60.47-82.79-28.93-20.41-61.48-31.93-96.27-37.14a245 245 0 00-72.4-.45c-6.25.92-12.83 3-18.78 1.91-43.27-8-86.15-6.79-127.51 8.09-16.13 5.78-28.57 4.85-42.92-3.45s-29.9-14.64-44.78-21.9a14.89 14.89 0 00-16.76 1.49c-5.3 4.37-5.83 10.08-4.49 16.27a55.49 55.49 0 001.89 5.97c5.51 17 10.89 34 16.64 50.89a10.23 10.23 0 01.72 5.83 10.12 10.12 0 01-2.6 5.27C9.81 209.4.22 244.6 9.45 283.8 17.33 317.9 38 344 66 364.14c52 37.38 110.64 48.12 173.13 40.89 6.49-.74 13.19-3.33 19.35-2.38a297.69 297.69 0 0071.12 3.24 245.66 245.66 0 0071-16.6 12.27 12.27 0 0111 .27c20.27 10 40.69 19.7 61 29.6 5.77 2.84 11.43 3.81 16.6-.83a15 15 0 004.2-17.37c-5.7-17.18-10.88-34.53-16.98-51.55zm-292.56 27.5h-.09c-8.24-1.25-16.33-2.15-24.28-3.83-36.4-7.63-69.25-22.12-95.23-49.56-18.66-19.68-29.64-42.8-28.68-70.5.83-24.44 11-45 27.31-62.5 6.73-7.23 8.63-14.19 4.91-23.39-3.3-8.11-5.65-16.72-8.36-25.11-.68-2.06-1.19-4.17-2.26-8l20.09 9.55c6.48 3.12 13 6 19.4 9.41a19.41 19.41 0 0018.27.47 219.34 219.34 0 0166.24-17.86 34.15 34.15 0 014 .27c-3 2.36-4.79 4-6.84 5.33a161.52 161.52 0 00-52.89 53.57A119.94 119.94 0 00136.85 334a177.1 177.1 0 0042.34 37.43c1.82 1.17 3.51 2.47 5.27 3.72zm78.66-6.34a27.63 27.63 0 01-13.13.15c-28.69-7.32-54.84-19.79-76.89-39.91-17.27-15.74-29.88-34.52-34.26-57.87-5.36-28.34 2.15-53.76 20-75.95 24.49-30.8 57.88-47.17 95.23-56.54a10.32 10.32 0 014.88 0c34.91 9.11 66.9 23.84 91.45 51.45 16.22 18.3 25.68 39.43 26.07 64.22-.39 25-9.88 46.36-26.4 64.76-23.47 26.14-53.54 41.02-86.95 49.71zm192-53.74c-10.15 11-12.56 21.33-6.61 34.84a268.52 268.52 0 018.75 26.6c-3.69-1.31-5.74-1.81-7.62-2.73-11-5.21-21.93-10.35-32.73-15.83a20 20 0 00-18.81-.39 215.48 215.48 0 01-65.08 17.53 35 35 0 01-4.68-.44c2.86-2.12 4.47-3.46 6.2-4.59 22.43-14.52 41.63-32.29 54.72-55.8 25.53-45.83 20.86-96.65-12.14-137.72a175.67 175.67 0 00-42.2-37.53c-1.81-1.15-3.57-2.43-5.35-3.69l.71-2.23c10.21 1.79 20.53 3.1 30.62 5.51 33 7.8 62.82 21.87 87 46.21 16.66 16.82 27.88 36.67 30.5 60.47a86.94 86.94 0 01-23.27 69.79zM299.46 195.65a21.38 21.38 0 00-21.37 22.25c-.09 13.37 8.6 22.29 21.66 22.29 12.56 0 21.25-8.95 21.25-22s-9.17-22.66-21.54-22.54z" fill="#0086c3"/></svg>