<svg xmlns="http://www.w3.org/2000/svg" viewBox="0 0 48 48"><path fill="currentColor" d="M19.57,25.54V12.69h-2.71v12.85h2.71Zm16.83-.36l-7.24,6.52-1.81-2.53c-.54-.72-1.63-.9-2.35-.36-.72,.54-.9,1.63-.36,2.35l2.9,4.16c.36,.36,.72,.72,1.27,.72h.18c.36,0,.9-.18,1.09-.36l8.69-7.78c.72-.72,.72-1.81,.18-2.53-.72-.72-1.81-.9-2.53-.18Zm-11.04-4.16h2.17c1.45,0,2.71-.36,3.62-1.09,.9-.72,1.27-1.81,1.27-2.9,0-.9-.18-1.63-.54-2.17-.36-.72-.9-1.27-1.63-1.63-.72-.36-1.63-.54-2.53-.54h-5.07v12.85h2.71v-4.52Zm0-6.15h2.35c.72,0,1.09,.18,1.45,.54s.54,.9,.54,1.45c.18,.72,0,1.27-.54,1.63-.36,.36-.9,.54-1.63,.54h-2.17v-4.16Zm10.86-5.79c-3.08-3.26-7.42-5.07-12.13-5.07s-9.41,1.81-12.49,4.89c-2.9,3.08-4.16,7.06-3.98,11.76,.52,8.41,13.25,20.57,15.02,22.26,.1,.09,.16,.15,.19,.18l1.09,.9,1.09-.9s.1-.09,.21-.2c.63-.6,2.55-2.4,4.86-4.87-.36,.18-.9,.18-1.27,.18h-.54c-.72-.18-1.45-.36-1.99-.9-.9,.9-1.63,1.63-2.35,2.17-4.34-3.98-12.67-13.21-13.03-19-.18-3.8,.9-6.88,3.08-9.23,2.35-2.53,5.97-3.98,9.95-3.98s7.42,1.45,9.95,3.98c2.35,2.35,3.44,5.61,3.26,9.41,0,.54-.18,1.27-.36,1.99,1.09-.18,2.17,0,3.26,.72,.03-.13,.05-.26,.08-.39,.15-.73,.28-1.38,.28-2.15,.18-4.71-1.27-8.69-4.16-11.76Z"/></svg>