<svg xmlns="http://www.w3.org/2000/svg" viewBox="0 0 48 48"><path fill="currentColor" d="M34.4775 2C34.6896 2.07445 34.8894 2.11615 35.1006 2.2002C35.7326 2.45046 36.2488 2.92674 36.5498 3.53613C36.6441 3.73086 36.7924 4.14493 36.8008 4.36035C36.8551 5.77845 36.8315 7.21204 36.8154 8.63184C36.8086 9.25327 36.4818 9.77573 36.123 10.252C36.8746 11.1631 36.8309 11.7437 36.8301 12.8535L36.8281 14.2402C36.8273 14.7256 36.8552 15.5892 36.8105 16.04C36.7364 16.7646 36.3748 17.4294 35.8066 17.8848C34.8766 18.6411 33.9704 18.5083 32.8525 18.5078H26.584C26.1804 18.5079 25.284 18.5345 24.9141 18.5039L24.917 20.8184C24.917 21.2299 24.9308 21.7508 24.9121 22.1533C26.6196 22.1628 26.7742 22.2125 26.751 23.9961L34.4424 24L36.6221 23.998C36.9008 23.9978 37.2034 23.9998 37.4824 23.998C38.6299 23.9918 38.6772 24.5771 38.668 25.5098C38.6551 26.7789 38.6806 28.0572 38.666 29.3271C38.6656 29.3823 38.6618 29.4373 38.6562 29.4922C40.32 29.5246 41.9932 29.4867 43.6582 29.498C44.4099 29.5032 44.9173 29.4938 45.4893 30.0645C45.8314 30.4059 45.8159 30.6446 46 31.0312V40.7949C45.9167 41.0291 45.8433 41.2594 45.7129 41.4727C45.4114 41.9645 44.8673 42.2941 44.291 42.3311C43.8961 42.3562 43.4956 42.3469 43.0996 42.3467L41.1045 42.3457L39.5049 42.3477C39.289 42.3481 38.8776 42.3605 38.6758 42.3389C38.6556 42.9313 38.6902 43.5823 38.6621 44.1533C39.0041 44.1576 39.3465 44.1591 39.6885 44.1582C39.971 44.1571 40.238 44.1533 40.5225 44.1709C41.3474 44.2217 41.7125 45.1624 41.1279 45.7354C40.967 45.893 40.8702 45.8941 40.708 46H34.7881C34.3924 45.7543 34.037 45.6166 34.0889 45.0322C34.1752 44.0566 35.0899 44.1487 35.8086 44.1592C36.1383 44.1639 36.4908 44.142 36.8232 44.1699C36.8381 43.5666 36.8294 42.9527 36.833 42.3477C35.6488 42.3758 34.4329 42.3321 33.2441 42.3447C32.6554 42.3512 31.462 42.4007 30.9346 42.2891C30.6044 42.2173 30.3007 42.054 30.0586 41.8184C29.5897 41.363 29.5055 40.9272 29.501 40.3018L29.5 32.125C29.5 31.758 29.4833 31.2862 29.5449 30.9287C29.6502 30.3186 30.2888 29.6375 30.9111 29.5498C31.5552 29.4594 32.2953 29.4998 32.9531 29.5L36.8232 29.502C36.8084 28.3149 36.8263 27.0391 36.833 25.8477C36.1315 25.8648 35.3362 25.8457 34.6289 25.8457L27.917 25.8467C27.6456 25.8478 26.999 25.8702 26.7568 25.835C26.7373 26.3377 26.8518 27.0291 26.4883 27.3818C26.2016 27.6598 25.973 27.676 25.6025 27.6797L23.3311 27.6816C22.0154 27.684 21.1224 27.8715 21.249 26.1729C21.2557 26.0829 21.2503 25.9471 21.251 25.8525C20.6423 25.8654 19.9547 25.8459 19.3369 25.8457H12.502C12.1235 25.8464 11.5357 25.8689 11.1758 25.8389C11.1387 26.689 11.1835 27.603 11.168 28.46C11.1618 28.8021 11.1794 29.1502 11.1562 29.4922C13.0231 29.5352 14.9089 29.4652 16.7744 29.5088C17.5689 29.5275 18.3609 30.2081 18.4609 30.9961C18.5253 31.5041 18.5017 32.0945 18.502 32.6172V38.7598C18.5018 39.3853 18.5143 40.0232 18.4863 40.6455C18.455 41.4165 17.8078 42.1431 17.0557 42.292C16.6472 42.3727 16.1255 42.3473 15.7002 42.3467L14.0107 42.3457L12.2441 42.3467C11.9334 42.3478 11.4764 42.3638 11.1758 42.3389C11.1512 42.9358 11.1765 43.5516 11.1621 44.1533C11.5314 44.1587 11.9012 44.1604 12.2705 44.1572C12.5842 44.1566 12.9117 44.134 13.2246 44.207C13.753 44.3305 14.0216 44.8607 13.8691 45.3691C13.7661 45.7124 13.4978 45.8428 13.207 46H7.28809C6.89297 45.7545 6.53699 45.6162 6.58887 45.0322C6.67573 44.0571 7.58812 44.1489 8.30664 44.1592C8.63809 44.1639 8.98831 44.1433 9.32324 44.1699C9.33803 43.5672 9.32903 42.9519 9.33203 42.3477C8.28016 42.3726 7.17363 42.3298 6.11328 42.3457C5.3468 42.3403 4.58178 42.3591 3.81543 42.3379C3.1189 42.3186 2.46223 41.9268 2.17969 41.2793C2.12542 41.155 2.07163 40.9777 2.01562 40.8691L2 40.8389V30.9883C2.04073 30.9278 2.08325 30.7871 2.11426 30.71C2.22321 30.4389 2.34682 30.2175 2.55566 30.0098C2.79981 29.7706 3.10976 29.6086 3.44531 29.5439C3.8229 29.4695 5.03521 29.4996 5.49414 29.5L9.33301 29.5029C9.3297 29.4765 9.325 29.4402 9.3252 29.4141C9.33149 28.5018 9.33336 27.5858 9.33203 26.6738L9.33008 25.5244C9.32929 25.0784 9.26796 24.6117 9.60254 24.2695C9.91666 23.9483 10.3112 24.0061 10.7217 23.9971C10.9385 23.9923 11.1564 23.9978 11.3721 23.998H21.2461C21.247 22.9431 21.1252 22.0992 22.5244 22.1562C22.7049 22.1636 22.8871 22.1545 23.0732 22.1699C23.1022 20.9722 23.0417 19.6907 23.0869 18.5117L16.4512 18.5068L14.708 18.5088C14.3449 18.5092 13.8189 18.5217 13.4707 18.4648C12.9969 18.3869 12.5521 18.1844 12.1816 17.8789C11.0293 16.9181 11.1586 15.8518 11.1641 14.498C11.1656 14.1141 11.1618 13.7024 11.1621 13.3184C11.1632 12.1008 11.0373 11.2488 11.873 10.2549C11.5046 9.78921 11.2315 9.31892 11.1895 8.70801C11.1567 7.97477 11.1497 7.22054 11.1621 6.48535C11.1733 5.81878 11.1194 5.03873 11.1963 4.38672C11.2314 4.10427 11.3112 3.82873 11.4326 3.57129C11.7161 2.96031 12.2181 2.47768 12.8398 2.21875C13.0611 2.12797 13.2772 2.08078 13.499 2H34.4775ZM3.83398 31.3447C3.80256 33.4635 3.82873 35.6437 3.8291 37.7666V39.5195C3.82913 39.8093 3.83888 40.2049 3.82324 40.4883C5.29483 40.5332 6.93782 40.4988 8.41992 40.499L16.6602 40.5C16.6485 39.8111 16.6639 39.0833 16.6641 38.3896V33.8076C16.6643 33.0169 16.6838 32.1331 16.6572 31.3506L5.13672 31.3467C4.83951 31.3469 4.07709 31.3705 3.83398 31.3447ZM31.334 31.3447C31.3026 33.4605 31.3287 35.6379 31.3291 37.7578V39.5088C31.3291 39.8025 31.3389 40.2011 31.3232 40.4883C32.0566 40.5104 32.8206 40.5 33.5576 40.5L41.8896 40.498C42.5228 40.498 43.1559 40.498 43.7891 40.5029C43.8729 40.5036 44.0988 40.5192 44.1533 40.4688L44.1553 40.377C44.1804 38.5452 44.1629 36.6833 44.1631 34.8496L44.1641 32.6689C44.1643 32.2478 44.1735 31.7682 44.1553 31.3516L32.6104 31.3467C32.3175 31.3469 31.5742 31.37 31.334 31.3447ZM23.4883 24.0107C23.3418 24.0155 23.2237 24.0199 23.0771 24.0117C23.0907 24.5711 23.0872 25.2558 23.0762 25.8174C23.5719 25.8391 24.0884 25.8326 24.5859 25.8311L24.9219 25.832C24.9064 25.6576 24.9064 25.4627 24.9111 25.2861C24.9221 24.8661 24.9005 24.4353 24.917 24.0166C24.4409 24.0067 23.9646 24.0045 23.4883 24.0107ZM15.4473 11.1777C15.0259 11.1776 14.5147 11.1651 14.0996 11.1846C13.7703 11.1902 13.5003 11.193 13.2549 11.4521C13.1417 11.5718 13.0407 11.7666 13.0244 11.9297C12.977 12.4061 13.005 12.9183 13.002 13.3965C12.997 14.1694 12.9989 14.9343 13.0029 15.7061C13.0046 15.9841 13.0904 16.2273 13.2988 16.4209C13.4379 16.5508 13.6162 16.6309 13.8057 16.6484C14.0461 16.6711 14.3716 16.6624 14.6172 16.6621L15.9307 16.6602H33.9531C34.2668 16.6511 34.4975 16.6241 34.7324 16.3818C34.9996 16.1064 35.0039 15.749 35.002 15.3916C34.9962 14.3235 35.0026 13.2545 35 12.1865C34.9987 11.6757 34.7161 11.2225 34.167 11.1885C33.8093 11.1712 33.4459 11.1787 33.0889 11.1787L15.4473 11.1777ZM19.2402 12.1006C20.1638 11.9793 20.4107 12.7675 20.3301 13.5156C20.2408 14.3441 20.6616 15.3806 19.624 15.7305C18.131 15.9364 18.5659 14.1828 18.498 13.292C18.4546 12.7225 18.6323 12.2608 19.2402 12.1006ZM15.5693 12.1016C16.1705 12.0258 16.6224 12.3751 16.6621 12.9902C16.6766 13.3455 16.6679 13.7062 16.666 14.0615C16.6625 14.7587 16.8006 15.4399 15.9775 15.7236C14.3684 15.9712 14.9203 13.8705 14.8438 12.9131C14.8134 12.5341 15.2003 12.2006 15.5693 12.1016ZM28.4951 13.0078C28.9964 12.9604 29.4413 13.328 29.4902 13.8291C29.539 14.3302 29.1737 14.7767 28.6729 14.8271C28.1697 14.8778 27.7212 14.51 27.6719 14.0068C27.6225 13.5036 27.9917 13.0556 28.4951 13.0078ZM32.1602 13.0078C32.4889 12.9764 32.8094 13.1254 32.998 13.3965C33.1863 13.6676 33.214 14.0193 33.0703 14.3164C32.9264 14.6134 32.6331 14.8097 32.3037 14.8301C31.8061 14.8606 31.375 14.4864 31.3359 13.9893C31.2971 13.4923 31.6638 13.0554 32.1602 13.0078ZM14.9717 3.84473C14.6517 3.84468 14.2324 3.83404 13.918 3.85645C12.9767 3.91429 13.0013 4.57552 13.001 5.29297L13 7.72266C13.0002 7.96109 12.9902 8.29863 13.0146 8.53027C13.0416 8.76669 13.1611 8.9829 13.3467 9.13184C13.6998 9.41257 14.4894 9.33238 14.9443 9.33203L32.7568 9.33105C33.1934 9.33098 33.6951 9.34232 34.125 9.32617C35.1152 9.18685 35.0012 8.38317 35.001 7.62598L35.002 5.32129C35.0013 4.83398 35.0566 4.27882 34.5762 3.98438C34.4068 3.88058 34.2466 3.85463 34.0518 3.85156C33.5568 3.84085 33.0581 3.84465 32.5625 3.84473H14.9717ZM15.6797 4.75586C16.3974 4.75176 16.6926 5.24216 16.6689 5.90137C16.6479 6.46734 16.6952 7.04625 16.6514 7.60938C16.6162 8.06059 16.2584 8.32154 15.8525 8.42383C14.7746 8.43738 14.7942 7.50695 14.8311 6.7168C14.8682 5.91964 14.5865 4.9321 15.6797 4.75586ZM19.335 4.75684C20.7442 4.72239 20.2302 6.44175 20.332 7.33203C20.3946 7.87966 20.0607 8.28858 19.5225 8.42383C19.0841 8.43769 18.5908 8.17051 18.5332 7.71777C18.4613 7.15322 18.5139 6.5108 18.5 5.94043C18.4846 5.30905 18.6432 4.87421 19.335 4.75684ZM28.4346 5.68262C28.9309 5.60229 29.3993 5.93782 29.4824 6.43359C29.5653 6.92929 29.2324 7.39946 28.7373 7.48535C28.238 7.57187 27.7635 7.23504 27.6797 6.73535C27.5961 6.23591 27.9347 5.76377 28.4346 5.68262ZM32.1035 5.68066C32.6035 5.60141 33.0729 5.944 33.1504 6.44434C33.2277 6.94488 32.8836 7.41298 32.3828 7.48828C31.8849 7.56305 31.4204 7.22134 31.3438 6.72363C31.2669 6.22602 31.6064 5.75964 32.1035 5.68066Z"/></svg>