<svg xmlns="http://www.w3.org/2000/svg" viewBox="0 0 48 48"><path fill="currentColor" d="M35.42,22.58l-5-5c-.38-.38-.89-.59-1.42-.59s-1.04,.21-1.42,.59-.59,.89-.59,1.42,.21,1.04,.59,1.42l1.6,1.58h-10.36l1.6-1.58c.38-.38,.59-.89,.59-1.42s-.21-1.04-.59-1.42-.89-.59-1.42-.59-1.04,.21-1.42,.59l-5,5c-.18,.19-.32,.41-.42,.66-.2,.49-.2,1.03,0,1.52,.1,.25,.24,.47,.42,.66l5,5c.19,.19,.41,.34,.65,.44,.24,.1,.51,.15,.77,.15s.53-.05,.77-.15c.24-.1,.46-.25,.65-.44,.19-.19,.34-.41,.44-.65,.1-.24,.15-.51,.15-.77s-.05-.53-.15-.77c-.1-.24-.25-.46-.44-.65l-1.6-1.58h10.36l-1.6,1.58c-.19,.19-.34,.41-.44,.65-.1,.24-.15,.51-.15,.77s.05,.53,.15,.77c.1,.24,.25,.46,.44,.65,.19,.19,.41,.34,.65,.44,.24,.1,.51,.15,.77,.15s.53-.05,.77-.15c.24-.1,.46-.25,.65-.44l5-5c.18-.19,.32-.41,.42-.66,.2-.49,.2-1.03,0-1.52-.1-.25-.24-.47-.42-.66ZM6,12c-.53,0-1.04,.21-1.41,.59-.38,.38-.59,.88-.59,1.41v20c0,.53,.21,1.04,.59,1.41,.38,.38,.88,.59,1.41,.59s1.04-.21,1.41-.59c.38-.38,.59-.88,.59-1.41V14c0-.53-.21-1.04-.59-1.41-.38-.38-.88-.59-1.41-.59Zm36,0c-.53,0-1.04,.21-1.41,.59-.38,.38-.59,.88-.59,1.41v20c0,.53,.21,1.04,.59,1.41s.88,.59,1.41,.59,1.04-.21,1.41-.59,.59-.88,.59-1.41V14c0-.53-.21-1.04-.59-1.41-.38-.38-.88-.59-1.41-.59Z"/></svg>