<svg xmlns="http://www.w3.org/2000/svg" viewBox="0 0 48 48"><path fill="currentColor" d="M33.58,5.79c-1.06,0-1.92,.86-1.92,1.92v4.79c0,1.06,.86,1.92,1.92,1.92s1.92-.86,1.92-1.92V7.71c0-1.06-.86-1.92-1.92-1.92Zm11.5,6.72c0-6.36-5.15-11.51-11.5-11.51-5.01,0-9.27,3.2-10.85,7.67H14.42c-1.53,0-2.99,.61-4.07,1.69-1.08,1.08-1.68,2.54-1.68,4.07v11.51h-1.92c-.51,0-1,.2-1.36,.56-.36,.36-.56,.85-.56,1.36s.2,1,.56,1.36c.36,.36,.85,.56,1.36,.56h13.42v6.1c-.8,.29-1.53,.75-2.14,1.35-.6,.6-1.06,1.33-1.35,2.14H4.83c-.51,0-1,.2-1.36,.56s-.56,.85-.56,1.36,.2,1,.56,1.36c.36,.36,.85,.56,1.36,.56h11.85c.4,1.11,1.14,2.07,2.1,2.75,.97,.68,2.12,1.04,3.3,1.04s2.33-.36,3.3-1.04c.97-.68,1.7-1.64,2.1-2.75h11.84c.51,0,1-.2,1.36-.56,.36-.36,.56-.85,.56-1.36s-.2-1-.56-1.36c-.36-.36-.85-.56-1.36-.56h-11.84c-.29-.8-.75-1.54-1.35-2.14-.6-.6-1.33-1.07-2.14-1.35v-6.1h13.42c.51,0,1-.2,1.36-.56,.36-.36,.56-.85,.56-1.36s-.2-1-.56-1.36c-.36-.36-.85-.56-1.36-.56h-1.92v-2.08c5.44-.91,9.58-5.65,9.58-11.35Zm-21.64,30.13c-.36,.36-.85,.56-1.36,.56-.38,0-.75-.11-1.06-.32-.32-.21-.56-.51-.71-.86-.15-.35-.18-.74-.11-1.11,.07-.37,.26-.71,.52-.98,.27-.27,.61-.45,.98-.53,.37-.07,.76-.04,1.11,.11,.35,.15,.65,.39,.86,.71,.21,.32,.32,.69,.32,1.07,0,.51-.2,1-.56,1.36Zm8.23-16.7H12.5V14.43c0-.51,.2-1,.56-1.36s.85-.56,1.36-.56h7.67c0,5.7,4.14,10.44,9.58,11.35v2.08Zm1.92-5.76c-4.23,0-7.67-3.44-7.67-7.67s3.43-7.67,7.67-7.67,7.67,3.44,7.67,7.67-3.43,7.67-7.67,7.67Zm0-4.81c-1.06,0-1.92,.86-1.92,1.92s.86,1.92,1.92,1.92,1.92-.86,1.92-1.92-.86-1.92-1.92-1.92Z"/></svg>