<svg xmlns="http://www.w3.org/2000/svg" viewBox="0 0 48 48"><path fill="currentColor" d="M30 34C29.6044 34 29.2178 34.1173 28.8889 34.3371C28.56 34.5568 28.3036 34.8692 28.1522 35.2346C28.0009 35.6001 27.9613 36.0022 28.0384 36.3902C28.1156 36.7781 28.3061 37.1345 28.5858 37.4142C28.8655 37.6939 29.2219 37.8844 29.6098 37.9616C29.9978 38.0387 30.3999 37.9991 30.7654 37.8478C31.1308 37.6964 31.4432 37.44 31.6629 37.1111C31.8827 36.7822 32 36.3956 32 36C32 35.4696 31.7893 34.9609 31.4142 34.5858C31.0391 34.2107 30.5304 34 30 34ZM18 34H12C11.4696 34 10.9609 34.2107 10.5858 34.5858C10.2107 34.9609 10 35.4696 10 36C10 36.5304 10.2107 37.0391 10.5858 37.4142C10.9609 37.7893 11.4696 38 12 38H18C18.5304 38 19.0391 37.7893 19.4142 37.4142C19.7893 37.0391 20 36.5304 20 36C20 35.4696 19.7893 34.9609 19.4142 34.5858C19.0391 34.2107 18.5304 34 18 34ZM36 34C35.6044 34 35.2178 34.1173 34.8889 34.3371C34.56 34.5568 34.3036 34.8692 34.1522 35.2346C34.0009 35.6001 33.9613 36.0022 34.0384 36.3902C34.1156 36.7781 34.3061 37.1345 34.5858 37.4142C34.8655 37.6939 35.2219 37.8844 35.6098 37.9616C35.9978 38.0387 36.3999 37.9991 36.7654 37.8478C37.1308 37.6964 37.4432 37.44 37.6629 37.1111C37.8827 36.7822 38 36.3956 38 36C38 35.4696 37.7893 34.9609 37.4142 34.5858C37.0391 34.2107 36.5304 34 36 34ZM30 22C29.6044 22 29.2178 22.1173 28.8889 22.3371C28.56 22.5568 28.3036 22.8692 28.1522 23.2346C28.0009 23.6001 27.9613 24.0022 28.0384 24.3902C28.1156 24.7781 28.3061 25.1345 28.5858 25.4142C28.8655 25.6939 29.2219 25.8844 29.6098 25.9616C29.9978 26.0387 30.3999 25.9991 30.7654 25.8478C31.1308 25.6964 31.4432 25.44 31.6629 25.1111C31.8827 24.7822 32 24.3956 32 24C32 23.4696 31.7893 22.9609 31.4142 22.5858C31.0391 22.2107 30.5304 22 30 22ZM18 22H12C11.4696 22 10.9609 22.2107 10.5858 22.5858C10.2107 22.9609 10 23.4696 10 24C10 24.5304 10.2107 25.0391 10.5858 25.4142C10.9609 25.7893 11.4696 26 12 26H18C18.5304 26 19.0391 25.7893 19.4142 25.4142C19.7893 25.0391 20 24.5304 20 24C20 23.4696 19.7893 22.9609 19.4142 22.5858C19.0391 22.2107 18.5304 22 18 22ZM36 10C35.6044 10 35.2178 10.1173 34.8889 10.3371C34.56 10.5568 34.3036 10.8692 34.1522 11.2346C34.0009 11.6001 33.9613 12.0022 34.0384 12.3902C34.1156 12.7781 34.3061 13.1345 34.5858 13.4142C34.8655 13.6939 35.2219 13.8844 35.6098 13.9616C35.9978 14.0387 36.3999 13.9991 36.7654 13.8478C37.1308 13.6964 37.4432 13.44 37.6629 13.1111C37.8827 12.7822 38 12.3956 38 12C38 11.4696 37.7893 10.9609 37.4142 10.5858C37.0391 10.2107 36.5304 10 36 10ZM36 22C35.6044 22 35.2178 22.1173 34.8889 22.3371C34.56 22.5568 34.3036 22.8692 34.1522 23.2346C34.0009 23.6001 33.9613 24.0022 34.0384 24.3902C34.1156 24.7781 34.3061 25.1345 34.5858 25.4142C34.8655 25.6939 35.2219 25.8844 35.6098 25.9616C35.9978 26.0387 36.3999 25.9991 36.7654 25.8478C37.1308 25.6964 37.4432 25.44 37.6629 25.1111C37.8827 24.7822 38 24.3956 38 24C38 23.4696 37.7893 22.9609 37.4142 22.5858C37.0391 22.2107 36.5304 22 36 22ZM44 10C44 8.4087 43.3679 6.88258 42.2426 5.75736C41.1174 4.63214 39.5913 4 38 4H10C8.4087 4 6.88258 4.63214 5.75736 5.75736C4.63214 6.88258 4 8.4087 4 10V14C4.00882 15.4801 4.56442 16.9047 5.56 18C4.56442 19.0953 4.00882 20.5199 4 22V26C4.00882 27.4801 4.56442 28.9047 5.56 30C4.56442 31.0953 4.00882 32.5199 4 34V38C4 39.5913 4.63214 41.1174 5.75736 42.2426C6.88258 43.3679 8.4087 44 10 44H38C39.5913 44 41.1174 43.3679 42.2426 42.2426C43.3679 41.1174 44 39.5913 44 38V34C43.9912 32.5199 43.4356 31.0953 42.44 30C43.4356 28.9047 43.9912 27.4801 44 26V22C43.9912 20.5199 43.4356 19.0953 42.44 18C43.4356 16.9047 43.9912 15.4801 44 14V10ZM40 38C40 38.5304 39.7893 39.0391 39.4142 39.4142C39.0391 39.7893 38.5304 40 38 40H10C9.46957 40 8.96086 39.7893 8.58579 39.4142C8.21071 39.0391 8 38.5304 8 38V34C8 33.4696 8.21071 32.9609 8.58579 32.5858C8.96086 32.2107 9.46957 32 10 32H38C38.5304 32 39.0391 32.2107 39.4142 32.5858C39.7893 32.9609 40 33.4696 40 34V38ZM40 26C40 26.5304 39.7893 27.0391 39.4142 27.4142C39.0391 27.7893 38.5304 28 38 28H10C9.46957 28 8.96086 27.7893 8.58579 27.4142C8.21071 27.0391 8 26.5304 8 26V22C8 21.4696 8.21071 20.9609 8.58579 20.5858C8.96086 20.2107 9.46957 20 10 20H38C38.5304 20 39.0391 20.2107 39.4142 20.5858C39.7893 20.9609 40 21.4696 40 22V26ZM40 14C40 14.5304 39.7893 15.0391 39.4142 15.4142C39.0391 15.7893 38.5304 16 38 16H10C9.46957 16 8.96086 15.7893 8.58579 15.4142C8.21071 15.0391 8 14.5304 8 14V10C8 9.46957 8.21071 8.96086 8.58579 8.58579C8.96086 8.21071 9.46957 8 10 8H38C38.5304 8 39.0391 8.21071 39.4142 8.58579C39.7893 8.96086 40 9.46957 40 10V14ZM30 10C29.6044 10 29.2178 10.1173 28.8889 10.3371C28.56 10.5568 28.3036 10.8692 28.1522 11.2346C28.0009 11.6001 27.9613 12.0022 28.0384 12.3902C28.1156 12.7781 28.3061 13.1345 28.5858 13.4142C28.8655 13.6939 29.2219 13.8844 29.6098 13.9616C29.9978 14.0387 30.3999 13.9991 30.7654 13.8478C31.1308 13.6964 31.4432 13.44 31.6629 13.1111C31.8827 12.7822 32 12.3956 32 12C32 11.4696 31.7893 10.9609 31.4142 10.5858C31.0391 10.2107 30.5304 10 30 10ZM18 10H12C11.4696 10 10.9609 10.2107 10.5858 10.5858C10.2107 10.9609 10 11.4696 10 12C10 12.5304 10.2107 13.0391 10.5858 13.4142C10.9609 13.7893 11.4696 14 12 14H18C18.5304 14 19.0391 13.7893 19.4142 13.4142C19.7893 13.0391 20 12.5304 20 12C20 11.4696 19.7893 10.9609 19.4142 10.5858C19.0391 10.2107 18.5304 10 18 10Z"/></svg>