<svg xmlns="http://www.w3.org/2000/svg" viewBox="0 0 48 48"><path fill="currentColor" d="M31.8594 5C32.8593 5.00009 33.6592 5.82036 33.6592 6.82031C33.659 7.82011 32.8592 8.62003 31.8594 8.62012H30.499V11.6797C38.479 12.5897 44.6991 19.3699 44.6992 27.5898C44.6992 36.4097 37.5195 43.5896 28.6797 43.5898C22.9497 43.5898 17.6196 40.4799 14.7695 35.5C14.2795 34.65 14.5695 33.5398 15.4395 33.0498C16.3094 32.54 17.4197 32.8498 17.8896 33.7197C20.1096 37.5896 24.229 39.9901 28.6689 39.9902C35.5089 39.9902 41.0693 34.4298 41.0693 27.5898C41.0693 20.7499 35.5089 15.1904 28.6689 15.1904C25.599 15.1905 22.6488 16.3202 20.3789 18.3701C19.6489 19.0399 18.499 18.9901 17.8291 18.2402C17.1592 17.5103 17.2093 16.3605 17.959 15.6904C20.449 13.4304 23.5796 12.0499 26.8896 11.6699V8.59961H25.5293C24.5293 8.59961 23.7295 7.7998 23.7295 6.7998C23.7296 5.7999 24.5294 5 25.5293 5H31.8594ZM11.498 18.0879C12.1619 17.424 13.2385 17.424 13.9023 18.0879L19.9023 24.0879C20.221 24.4067 20.4004 24.8393 20.4004 25.29C20.4003 25.7408 20.2211 26.1735 19.9023 26.4922L13.9023 32.4922C13.2385 33.1558 12.1619 33.1558 11.498 32.4922C10.8342 31.8284 10.8343 30.7518 11.498 30.0879L14.5957 26.9902H4.7002C3.76144 26.9902 3.00021 26.2287 3 25.29C3 24.3512 3.76131 23.5898 4.7002 23.5898H14.5957L11.498 20.4922C10.8342 19.8284 10.8343 18.7518 11.498 18.0879ZM33.5996 21.9102C34.3496 21.2503 35.4995 21.3204 36.1494 22.0703C36.8092 22.8203 36.7392 23.9702 35.9893 24.6201L35.9688 24.6299L27.8994 31.7002L23.4795 27.1904C22.7895 26.4804 22.8095 25.3296 23.5195 24.6396C24.2295 23.95 25.3594 23.9699 26.0693 24.6797L28.0889 26.75L33.5996 21.9102Z"/></svg>