<svg xmlns="http://www.w3.org/2000/svg" viewBox="0 0 48 48"><path fill="currentColor" d="M31.47,14.57c-.77-.38-1.71-.58-2.82-.58h-5.51v13.95h3.4v-5.01h2.11c1.14,0,2.09-.21,2.86-.62s1.34-.95,1.71-1.61v.02c.37-.68,.56-1.42,.56-2.23,0-.87-.19-1.65-.58-2.33-.38-.68-.96-1.21-1.73-1.59Zm-1.63,5.22c-.32,.3-.8,.46-1.45,.46h-1.85v-3.5h1.85c.65,0,1.13,.15,1.45,.46,.32,.3,.48,.74,.48,1.29s-.16,.99-.48,1.29Zm-12.56,8.17h3.4V14.01h-3.4v13.95Zm23.54-8.68c-.28-2.91-1.31-5.69-2.98-8.08h-.01c-1.67-2.38-3.93-4.3-6.57-5.55s-5.55-1.81-8.46-1.6c-2.91,.2-5.72,1.16-8.15,2.77-2.08,1.39-3.84,3.24-5.13,5.39-1.29,2.16-2.09,4.57-2.34,7.07-.25,2.48,.06,4.99,.91,7.34,.85,2.35,2.21,4.48,3.98,6.24l10.54,10.56c.19,.18,.41,.33,.65,.43,.24,.1,.5,.15,.76,.15s.52-.05,.76-.15c.25-.1,.47-.24,.65-.43l10.5-10.56c1.78-1.76,3.13-3.89,3.98-6.24,.84-2.35,1.15-4.86,.91-7.34Zm-4.65,5.98c-.64,1.8-1.68,3.44-3.03,4.79l-9.14,9.14h-.01l-9.14-9.14c-1.35-1.35-2.38-2.98-3.02-4.77-.64-1.8-.88-3.71-.69-5.61,.18-1.93,.8-3.79,1.79-5.45,.99-1.66,2.34-3.08,3.95-4.15,2.11-1.4,4.58-2.15,7.12-2.15s5.01,.75,7.12,2.15c1.6,1.07,2.95,2.49,3.94,4.14,.99,1.65,1.61,3.5,1.8,5.42,.19,1.91-.05,3.83-.69,5.63Z"/></svg>