<svg xmlns="http://www.w3.org/2000/svg" viewBox="0 0 48 48"><path fill="currentColor" d="M22.64,9.23c-.72-.36-1.63-.54-2.53-.54h-5.07v12.85h2.71v-4.52h2.17c1.45,0,2.71-.36,3.62-1.09,.9-.72,1.27-1.81,1.27-2.9,0-.9-.18-1.63-.54-2.17-.36-.72-.9-1.27-1.63-1.63Zm-1.09,5.25c-.36,.36-.9,.54-1.63,.54h-2.17v-4.16h2.35c.72,0,1.09,.18,1.45,.54s.54,.9,.54,1.45c.18,.72,0,1.27-.54,1.63Zm-.72,18.1l-1.63,.18c-1.09,1.09-1.99,1.99-2.9,2.9C11.96,31.49,3.64,22.26,3.27,16.47c-.18-3.8,.9-6.88,3.08-9.23,2.35-2.53,5.97-3.98,9.95-3.98s7.42,1.45,9.95,3.98c1.81,1.99,2.9,4.52,3.26,7.42l2.17-1.27c.36-.18,.54-.36,.91-.36-.54-3.08-1.81-5.79-3.98-7.96C25.54,1.81,21.19,0,16.49,0S7.08,1.81,4,4.89C1.1,7.96-.16,11.95,.02,16.65c.54,8.87,14.66,21.9,15.2,22.44l1.09,.9,1.09-.9c.36-.36,4.71-4.16,8.69-9.05l-3.62,2.17c-.54,.18-1.09,.36-1.63,.36Zm-8.87-11.04V8.69h-2.71v12.85h2.71Zm23.89-3.98c-.54-.72-1.45-1.09-2.17-.54l-1.63,1.09,1.81,2.71,1.63-.9c.72-.72,.91-1.63,.36-2.35Zm-17.01,8.14l-2.53,3.44,4.16-.54,11.76-7.06-1.81-2.71-11.58,6.88Z"/></svg>