<svg xmlns="http://www.w3.org/2000/svg" viewBox="0 0 48 48"><path fill="currentColor" d="M21.3,34.8c-.5,0-1,.1-1.4,.5l-3.6,3.5c-.9,.9-2.2,1.5-3.5,1.5s-2.6-.5-3.5-1.5c-.9-.9-1.5-2.2-1.5-3.5s.5-2.6,1.5-3.5l9.1-9.2c.9-.9,2.1-1.4,3.4-1.5,1.3,0,2.5,.4,3.4,1.3l.2,.2c.4,.4,.9,.6,1.4,.6,.5,0,1-.2,1.4-.6,.4-.4,.6-.9,.6-1.4,0-.5-.2-1-.6-1.4-.1-.1-.2-.3-.4-.4-1.7-1.5-3.9-2.3-6.2-2.2s-4.4,1-6,2.6L6.4,28.9c-1.6,1.7-2.4,4-2.4,6.3,0,2.3,1,4.5,2.6,6.2,1.6,1.6,3.9,2.6,6.2,2.6,2.3,0,4.6-.8,6.3-2.4l3.5-3.4c.3-.4,.5-.9,.5-1.4,0-.5-.2-1-.5-1.4-.3-.4-.8-.6-1.3-.6ZM41.4,6.6c-1.7-1.7-4-2.6-6.4-2.6s-4.7,.9-6.4,2.6l-3.5,3.4c-.3,.4-.5,.9-.5,1.4,0,.5,.2,1,.5,1.4s.8,.6,1.3,.6c.5,0,1-.1,1.4-.5l3.5-3.5c.9-.9,2.2-1.5,3.5-1.5s2.6,.5,3.5,1.5c.9,.9,1.5,2.2,1.5,3.5s-.5,2.6-1.5,3.5l-9.1,9.2c-.9,.9-2.1,1.4-3.4,1.5-1.3,0-2.5-.4-3.4-1.3l-.2-.2c-.4-.4-.9-.6-1.4-.6-.5,0-1,.2-1.4,.6-.4,.4-.6,.9-.6,1.4,0,.5,.2,1,.6,1.4,.1,.1,.3,.3,.5,.4,1.7,1.5,3.9,2.3,6.2,2.2,2.3,0,4.4-1,6-2.6l9.2-9.2c1.7-1.7,2.7-4,2.7-6.4,0-2.4-.9-4.7-2.6-6.4Z"/></svg>