<svg xmlns="http://www.w3.org/2000/svg" viewBox="0 0 48 48"><path fill="currentColor" d="M32.4 12C32.4 10.8954 33.2954 10 34.4 10C35.6735 10 36.9249 10.2559 38.1428 10.743C39.4682 11.2732 40.4884 12.06 41.4142 12.9858C42.34 13.9116 43.1268 14.9318 43.657 16.2572C44.1441 17.4751 44.4 18.7265 44.4 20C44.4 21.2735 44.1441 22.5249 43.657 23.7428C43.1334 25.0516 42.3597 26.0628 41.449 26.9793L39.4799 29.1453C39.4585 29.1688 39.4366 29.1918 39.4142 29.2142L33.0142 35.6142C32.0884 36.54 31.0682 37.3268 29.7428 37.857C28.5249 38.3441 27.2735 38.6 26 38.6C24.7265 38.6 23.4751 38.3441 22.2572 37.857C20.9318 37.3268 19.9116 36.54 18.9858 35.6142C18.06 34.6884 17.2732 33.6682 16.743 32.3428C16.2465 31.1014 16 29.8489 16 28.4C16 27.1265 16.2559 25.8751 16.743 24.6572C17.2732 23.3318 18.06 22.3116 18.9858 21.3858L21.1858 19.1858C21.9668 18.4047 23.2332 18.4047 24.0142 19.1858C24.7953 19.9668 24.7953 21.2332 24.0142 22.0142L21.8142 24.2142C21.14 24.8884 20.7268 25.4682 20.457 26.1428C20.1441 26.9249 20 27.6735 20 28.4C20 29.3511 20.1535 30.0986 20.457 30.8572C20.7268 31.5318 21.14 32.1116 21.8142 32.7858C22.4884 33.46 23.0682 33.8732 23.7428 34.143C24.5249 34.4559 25.2735 34.6 26 34.6C26.7265 34.6 27.4751 34.4559 28.2572 34.143C28.9318 33.8732 29.5116 33.46 30.1858 32.7858L36.5521 26.4194L38.5201 24.2547C38.5415 24.2312 38.5634 24.2082 38.5858 24.1858C39.26 23.5116 39.6732 22.9318 39.943 22.2572C40.2559 21.4751 40.4 20.7265 40.4 20C40.4 19.2735 40.2559 18.5249 39.943 17.7428C39.6732 17.0682 39.26 16.4884 38.5858 15.8142C37.9116 15.14 37.3318 14.7268 36.6572 14.457C35.8751 14.1441 35.1265 14 34.4 14C33.2954 14 32.4 13.1046 32.4 12ZM22.6 15C21.8735 15 21.1249 15.1441 20.3428 15.457C19.6682 15.7268 19.0884 16.14 18.4142 16.8142L11.8479 23.3806L9.87988 25.5453C9.85854 25.5688 9.83665 25.5918 9.81421 25.6142C9.13999 26.2884 8.72678 26.8682 8.45695 27.5428C8.14411 28.3249 8 29.0735 8 29.8C8 30.5265 8.14411 31.2751 8.45695 32.0572C8.72678 32.7318 9.13999 33.3116 9.81421 33.9858C10.4884 34.66 11.0682 35.0732 11.7428 35.343C12.5249 35.6559 13.2735 35.8 14 35.8C15.1046 35.8 16 36.6954 16 37.8C16 38.9046 15.1046 39.8 14 39.8C12.7265 39.8 11.4751 39.5441 10.2572 39.057C8.93179 38.5268 7.91156 37.74 6.98579 36.8142C6.06001 35.8884 5.27322 34.8682 4.74305 33.5428C4.25589 32.3249 4 31.0735 4 29.8C4 28.5265 4.25589 27.2751 4.74305 26.0572C5.26657 24.7484 6.04032 23.7372 6.95102 22.8207L8.92012 20.6547C8.94146 20.6312 8.96335 20.6082 8.98579 20.5858L15.5858 13.9858C16.5116 13.06 17.5318 12.2732 18.8572 11.743C20.0751 11.2559 21.3265 11 22.6 11C23.8735 11 25.1249 11.2559 26.3428 11.743C27.6682 12.2732 28.6884 13.06 29.6142 13.9858C30.54 14.9116 31.3268 15.9318 31.857 17.2572C32.3441 18.4751 32.6 19.7265 32.6 21C32.6 22.2735 32.3441 23.5249 31.857 24.7428C31.3329 26.053 30.558 27.065 29.646 27.9824L27.4743 30.3514C26.7279 31.1657 25.4628 31.2207 24.6486 30.4743C23.8343 29.7279 23.7793 28.4628 24.5257 27.6486L26.7257 25.2486C26.7453 25.2272 26.7653 25.2063 26.7858 25.1858C27.46 24.5116 27.8732 23.9318 28.143 23.2572C28.4559 22.4751 28.6 21.7265 28.6 21C28.6 20.2735 28.4559 19.5249 28.143 18.7428C27.8732 18.0682 27.46 17.4884 26.7858 16.8142C26.1116 16.14 25.5318 15.7268 24.8572 15.457C24.0751 15.1441 23.3265 15 22.6 15Z"/></svg>