<svg xmlns="http://www.w3.org/2000/svg" viewBox="0 0 48 48"><path fill="currentColor" d="M39.98,32.01c-1.24,0-2.45,.4-3.46,1.12l-4.9-2.9c.23-.72,.35-1.47,.36-2.22,0-1.77-.6-3.48-1.68-4.88-1.09-1.4-2.6-2.39-4.31-2.84v-4.64c1.33-.47,2.46-1.4,3.17-2.62,.72-1.22,.98-2.65,.74-4.05-.24-1.39-.96-2.66-2.05-3.57-1.08-.91-2.45-1.41-3.87-1.41s-2.78,.5-3.87,1.41c-1.08,.91-1.81,2.18-2.05,3.57-.24,1.39,.02,2.83,.74,4.05,.72,1.22,1.84,2.15,3.17,2.62v4.64c-1.71,.44-3.23,1.44-4.31,2.84-1.09,1.4-1.68,3.11-1.68,4.88,0,.75,.13,1.5,.36,2.22l-4.9,2.9c-1.01-.72-2.22-1.11-3.46-1.12-1.19,0-2.35,.35-3.33,1.01-.99,.66-1.75,1.6-2.21,2.69-.45,1.1-.57,2.3-.34,3.47,.23,1.16,.8,2.23,1.64,3.07,.84,.84,1.91,1.41,3.07,1.64,1.16,.23,2.37,.11,3.47-.34,1.1-.45,2.03-1.22,2.69-2.21,.66-.99,1.01-2.15,1.01-3.33,0-.54-.09-1.08-.24-1.6l4.6-2.74c1.5,1.49,3.53,2.33,5.64,2.33s4.14-.84,5.64-2.33l4.6,2.74c-.34,1.21-.28,2.5,.15,3.67,.43,1.18,1.23,2.19,2.27,2.89,1.04,.7,2.28,1.06,3.53,1.03,1.26-.04,2.47-.47,3.47-1.23,1-.76,1.73-1.82,2.1-3.02s.34-2.49-.06-3.68c-.4-1.19-1.17-2.22-2.2-2.95-1.02-.73-2.25-1.12-3.5-1.11h0Zm-31.99,8c-.4,0-.78-.12-1.11-.34-.33-.22-.58-.53-.74-.9-.15-.37-.19-.77-.11-1.16,.08-.39,.27-.74,.55-1.02,.28-.28,.64-.47,1.02-.55,.39-.08,.79-.04,1.16,.11,.37,.15,.68,.41,.9,.74,.22,.33,.34,.72,.34,1.11,0,.53-.21,1.04-.59,1.41-.37,.38-.88,.59-1.41,.59ZM23.99,8.02c.4,0,.78,.12,1.11,.34,.33,.22,.58,.53,.74,.9,.15,.37,.19,.77,.11,1.16-.08,.39-.27,.74-.55,1.02-.28,.28-.64,.47-1.02,.55s-.79,.04-1.16-.11c-.37-.15-.68-.41-.9-.74-.22-.33-.34-.72-.34-1.11,0-.53,.21-1.04,.59-1.41,.37-.37,.88-.59,1.41-.59h0Zm0,23.99c-.79,0-1.56-.23-2.22-.67-.66-.44-1.17-1.06-1.47-1.79-.3-.73-.38-1.53-.23-2.31,.15-.78,.54-1.49,1.09-2.05s1.27-.94,2.05-1.09c.78-.15,1.58-.07,2.31,.23,.73,.3,1.36,.82,1.79,1.47,.44,.66,.67,1.43,.67,2.22,0,1.06-.42,2.08-1.17,2.83-.75,.75-1.77,1.17-2.83,1.17Zm15.99,8c-.4,0-.78-.12-1.11-.34-.33-.22-.58-.53-.74-.9-.15-.37-.19-.77-.11-1.16,.08-.39,.27-.74,.55-1.02,.28-.28,.64-.47,1.02-.55,.39-.08,.79-.04,1.16,.11,.37,.15,.68,.41,.9,.74,.22,.33,.34,.72,.34,1.11,0,.53-.21,1.04-.59,1.41-.37,.38-.88,.59-1.41,.59Z"/></svg>