<svg xmlns="http://www.w3.org/2000/svg" viewBox="0 0 48 48"><path fill="currentColor" d="M45.44,42.06l-.22,.11-8.1-7.99c3.17-3.94,4.71-8.97,4.27-14.01-.44-5.03-2.74-9.74-6.46-13.02-3.72-3.28-8.65-5.14-13.68-5.03-5.03,.11-9.85,2.19-13.35,5.69S2.21,16.23,2.1,21.26c-.11,5.03,1.64,9.85,5.03,13.68,3.28,3.72,7.99,6.02,13.02,6.46,5.03,.44,9.96-1.09,14.01-4.27l7.99,7.99c.22,.22,.44,.44,.77,.55s.55,.22,.88,.22,.66,0,.88-.22c.33,0,.55-.33,.77-.55,.44-.44,.66-.98,.66-1.53s-.22-1.09-.66-1.53Zm-12.8-9.3c-2.95,2.95-6.79,4.49-10.83,4.49s-5.91-.98-8.54-2.63c-2.52-1.64-4.49-4.05-5.58-6.89-1.09-2.85-1.42-5.8-.88-8.86,.66-2.95,2.08-5.69,4.16-7.77,2.19-2.19,4.92-3.61,7.77-4.16,2.95-.66,6.02-.33,8.86,.88s5.25,3.17,6.89,5.58c1.64,2.52,2.63,5.47,2.63,8.54s-1.53,7.88-4.49,10.83Zm-.84-10.11h-1.56v-2.55c0-.37-.15-.72-.41-.98-.27-.26-.61-.4-.97-.4h-5.5v-1.17h1.57c.37,0,.72-.15,.97-.41,.26-.26,.41-.61,.41-.98v-5.9c0-.37-.15-.73-.41-.98-.26-.26-.61-.41-.98-.41h-5.9c-.37,0-.73,.15-.98,.41-.26,.26-.41,.61-.41,.98v5.9c0,.37,.15,.73,.41,.98,.26,.26,.61,.41,.98,.41h1.57v1.17h-5.5c-.37,0-.72,.15-.98,.41-.26,.26-.41,.61-.41,.98v2.55h-1.57c-.37,0-.73,.15-.98,.41-.26,.26-.41,.61-.41,.98v5.9c0,.37,.15,.73,.41,.98,.26,.26,.61,.41,.98,.41h5.9c.37,0,.73-.15,.98-.41,.26-.26,.41-.61,.41-.98v-5.9c0-.37-.15-.73-.41-.98-.26-.26-.61-.41-.98-.41h-1.57v-1.17h10.99v1.17h-1.57c-.37,0-.73,.15-.98,.41-.26,.27-.4,.61-.4,.97v5.9c0,.37,.15,.72,.41,.98,.27,.26,.61,.4,.97,.4h5.9c.37,0,.72-.15,.98-.41,.26-.27,.4-.61,.4-.97v-5.9c0-.37-.15-.73-.41-.98-.27-.26-.61-.4-.97-.4Zm-15.14,2.77v3.13h-3.13v-3.13h3.13Zm3.75-10.63v-3.13h3.13v3.13h-3.13Zm10.01,13.76h-3.13v-3.13h3.13v3.13Z"/></svg>