<svg xmlns="http://www.w3.org/2000/svg" viewBox="0 0 48 48"><path fill="currentColor" d="M44,12.2h-8v-2.8c0-1-.8-1.8-1.8-1.8h-1.4v-2.6c0-1-.8-1.8-1.8-1.8h-14c-1,0-1.8,.8-1.8,1.8v2.6h-1.8c-1,0-1.8,.8-1.8,1.8v2.8H4c-1,0-1.8,.8-1.8,1.8v29c0,1,.8,1.8,1.8,1.8H44c1,0,1.8-.8,1.8-1.8V14c0-1-.8-1.8-1.8-1.8Zm-1.8,29H5.8V15.8h7.6c1,0,1.8-.8,1.8-1.8v-2.8h1.8c1,0,1.8-.8,1.8-1.8v-2.6h10.4v2.6c0,1,.8,1.8,1.8,1.8h1.4v2.8c0,1,.8,1.8,1.8,1.8h8v25.4ZM9.8,22.2v13.2c0,1,.8,1.8,1.8,1.8h25.2c1,0,1.8-.8,1.8-1.8v-13.2c0-1-.8-1.8-1.8-1.8H11.6c-1,0-1.8,.8-1.8,1.8Zm3.6,1.8h21.6v9.6h-4.4v-3.2c0-1-.8-1.8-1.8-1.8s-1.8,.8-1.8,1.8v3.2h-5.4v-3.2c0-1-.8-1.8-1.8-1.8s-1.8,.8-1.8,1.8v3.2h-4.6v-9.6Z"/></svg>