<svg xmlns="http://www.w3.org/2000/svg" viewBox="0 0 48 48"><path fill="currentColor" d="M30,11.01h6.01c1.11,0,2-.9,2-2s-.9-2-2-2h-6.01c-1.11,0-2,.9-2,2s.9,2,2,2Zm16.03,1c0-6.63-5.38-12.01-12.01-12.01h-.01c-5.23,0-9.68,3.34-11.33,8.01H13.99c-1.59,0-3.12,.63-4.25,1.76s-1.76,2.65-1.76,4.25v12.01h-2c-.53,0-1.04,.21-1.42,.59s-.59,.88-.59,1.42,.21,1.04,.59,1.42,.88,.59,1.42,.59h14.01v6.37c-.84,.3-1.6,.78-2.23,1.41s-1.11,1.39-1.41,2.23H3.98c-.53,0-1.04,.21-1.42,.59s-.59,.88-.59,1.42,.21,1.04,.59,1.42,.88,.59,1.42,.59h12.37c.42,1.16,1.19,2.16,2.2,2.87,1.01,.71,2.21,1.09,3.45,1.09s2.44-.38,3.45-1.09c1.01-.71,1.78-1.71,2.2-2.87h12.37c.53,0,1.04-.21,1.42-.59s.59-.88,.59-1.42-.21-1.04-.59-1.42c-.38-.38-.88-.59-1.42-.59h-12.37c-.3-.84-.78-1.6-1.41-2.23s-1.39-1.11-2.23-1.41v-6.37h14.01c.53,0,1.04-.21,1.42-.59s.59-.88,.59-1.42-.21-1.04-.59-1.42-.88-.59-1.42-.59h-2v-2.17c5.68-.95,10.01-5.89,10.01-11.85Zm-22.61,31.44c-.38,.38-.89,.59-1.42,.59-.39,0-.78-.12-1.11-.34h-.01c-.33-.21-.59-.52-.74-.89-.15-.37-.19-.77-.11-1.16,.08-.39,.27-.75,.55-1.03,.29-.28,.64-.47,1.03-.55s.79-.04,1.16,.11,.68,.41,.9,.74c.22,.33,.34,.71,.34,1.11,0,.54-.21,1.04-.59,1.42Zm8.59-17.42H11.99V14.01c0-.53,.21-1.04,.59-1.42,.38-.38,.88-.59,1.42-.59h8c0,5.96,4.33,10.9,10.01,11.86v2.17Zm2-6.01c-4.42,0-8.01-3.59-8.01-8.01s3.59-8.01,8.01-8.01,8.01,3.59,8.01,8.01-3.59,8.01-8.01,8.01Zm4-7h-8.01c-1.11,0-2,.9-2,2s.9,2,2,2h8.01c1.11,0,2-.9,2-2s-.9-2-2-2Z"/></svg>