<svg xmlns="http://www.w3.org/2000/svg" viewBox="0 0 48 48"><path fill="currentColor" d="M24,4c-5.13,.01-10.05,2-13.76,5.54v-3.54c0-.53-.21-1.04-.59-1.41-.38-.38-.88-.59-1.41-.59s-1.04,.21-1.41,.59c-.38,.38-.59,.88-.59,1.41V15c0,.53,.21,1.04,.59,1.41,.38,.38,.88,.59,1.41,.59h9c.53,0,1.04-.21,1.41-.59,.38-.38,.59-.88,.59-1.41s-.21-1.04-.59-1.41c-.38-.38-.88-.59-1.41-.59h-4.8c2.57-2.69,6-4.39,9.69-4.83,3.69-.43,7.42,.43,10.55,2.45,3.12,2.02,5.45,5.06,6.57,8.61,1.12,3.55,.98,7.37-.42,10.82-1.39,3.45-3.94,6.31-7.21,8.08-3.27,1.77-7.06,2.35-10.71,1.63-3.65-.72-6.94-2.68-9.29-5.56-2.36-2.88-3.64-6.48-3.63-10.2,0-.53-.21-1.04-.59-1.41-.38-.37-.88-.59-1.41-.59s-1.04,.21-1.41,.59c-.38,.37-.59,.88-.59,1.41,0,3.96,1.17,7.82,3.37,11.11,2.2,3.29,5.32,5.85,8.98,7.37,3.65,1.51,7.68,1.91,11.56,1.14,3.88-.77,7.44-2.68,10.24-5.47,2.8-2.8,4.7-6.36,5.47-10.24,.77-3.88,.38-7.9-1.14-11.56-1.51-3.65-4.08-6.78-7.37-8.98-3.29-2.2-7.16-3.37-11.11-3.37Zm0,12c-.53,0-1.04,.21-1.41,.59-.37,.38-.59,.88-.59,1.41v6c0,.53,.21,1.04,.59,1.41s.88,.59,1.41,.59h4c.53,0,1.04-.21,1.41-.59s.59-.88,.59-1.41-.21-1.04-.59-1.41-.88-.59-1.41-.59h-2v-4c0-.53-.21-1.04-.59-1.41-.37-.38-.88-.59-1.41-.59Z"/></svg>