<svg xmlns="http://www.w3.org/2000/svg" viewBox="0 0 48 48"><path fill="currentColor" d="M46,12.01c0-6.63-5.37-12.01-12-12.01-5.22,0-9.67,3.34-11.32,8.01H14c-1.59,0-3.12,.63-4.24,1.76-1.13,1.13-1.76,2.65-1.76,4.25v12.01h-2c-.53,0-1.04,.21-1.41,.59-.38,.38-.59,.88-.59,1.42s.21,1.04,.59,1.42c.38,.38,.88,.59,1.41,.59h14v6.37c-.84,.3-1.6,.78-2.23,1.41s-1.11,1.39-1.41,2.23H4c-.53,0-1.04,.21-1.41,.59-.38,.38-.59,.88-.59,1.42s.21,1.04,.59,1.42c.38,.38,.88,.59,1.41,.59h12.36c.42,1.16,1.19,2.16,2.2,2.87,1.01,.71,2.21,1.09,3.44,1.09s2.43-.38,3.44-1.09c1.01-.71,1.78-1.71,2.2-2.87h12.36c.53,0,1.04-.21,1.41-.59,.38-.38,.59-.88,.59-1.42s-.21-1.04-.59-1.42-.88-.59-1.41-.59h-12.36c-.3-.84-.78-1.6-1.41-2.23s-1.39-1.11-2.23-1.41v-6.37h14c.53,0,1.04-.21,1.41-.59,.38-.38,.59-.88,.59-1.42s-.21-1.04-.59-1.42c-.38-.38-.88-.59-1.41-.59h-2v-2.17c5.68-.95,10-5.89,10-11.85Zm-4,0c0,1.49-.41,2.88-1.11,4.07l-4.06-4.07,4.06-4.07c.71,1.19,1.11,2.58,1.11,4.07Zm-8.01-8.01c1.48,0,2.87,.41,4.06,1.11l-4.06,4.07-4.06-4.07c1.19-.71,2.58-1.11,4.06-1.11Zm-6.89,3.94l4.06,4.07-4.06,4.07c-.7-1.19-1.11-2.58-1.11-4.07s.4-2.88,1.11-4.07Zm-3.7,35.51c-.37,.38-.88,.59-1.41,.59-.39,0-.78-.12-1.11-.34h-.01c-.33-.21-.59-.52-.74-.89-.15-.37-.19-.77-.11-1.16,.08-.39,.27-.75,.55-1.03s.63-.47,1.02-.55c.39-.08,.79-.04,1.16,.11s.68,.41,.9,.74c.22,.33,.34,.71,.34,1.11,0,.54-.21,1.04-.59,1.42Zm8.59-17.42H12V14.01c0-.53,.21-1.04,.59-1.42,.38-.38,.88-.59,1.41-.59h7.99c0,5.96,4.32,10.9,10,11.86v2.17Zm2.01-6.01c-1.48,0-2.87-.41-4.06-1.11l4.06-4.07,4.06,4.07c-1.19,.71-2.58,1.11-4.06,1.11Z"/></svg>