<svg xmlns="http://www.w3.org/2000/svg" viewBox="0 0 48 48"><path fill="currentColor" d="M12,4c-4.41,0-8,3.59-8,8,0,3.72,2.56,6.82,6,7.72v22.28c0,1.11,.9,2,2,2s2-.89,2-2V19.72c3.44-.89,6-4,6-7.72,0-4.41-3.59-8-8-8Zm0,12c-2.21,0-4-1.79-4-4s1.79-4,4-4,4,1.79,4,4-1.79,4-4,4Zm26,12.28v-12.28c0-1.6-.62-3.11-1.76-4.24s-2.64-1.76-4.24-1.76h-6c-1.1,0-2,.9-2,2s.9,2,2,2h6c.54,0,1.04,.21,1.41,.58,.38,.38,.59,.88,.59,1.42v12.28c-3.44,.89-6,4-6,7.72,0,4.41,3.59,8,8,8s8-3.59,8-8c0-3.72-2.56-6.82-6-7.72Zm-2,11.72c-2.21,0-4-1.79-4-4s1.79-4,4-4,4,1.79,4,4-1.79,4-4,4Z"/></svg>