<svg xmlns="http://www.w3.org/2000/svg" viewBox="0 0 48 48"><path fill="currentColor" d="M17.84,33.88c-.39,0-.77,.12-1.1,.33-.33,.22-.58,.53-.73,.89-.15,.36-.19,.76-.11,1.14,.08,.38,.26,.74,.54,1.01,.28,.28,.63,.46,1.01,.54,.38,.08,.78,.04,1.14-.11,.36-.15,.67-.4,.89-.73,.22-.33,.33-.71,.33-1.1,0-.52-.21-1.03-.58-1.4-.37-.37-.87-.58-1.4-.58Zm-5.93,0c-.39,0-.77,.12-1.1,.33-.33,.22-.58,.53-.73,.89-.15,.36-.19,.76-.11,1.14,.08,.38,.26,.74,.54,1.01,.28,.28,.63,.46,1.01,.54,.38,.08,.78,.04,1.14-.11,.36-.15,.67-.4,.89-.73,.22-.33,.33-.71,.33-1.1,0-.52-.21-1.03-.58-1.4-.37-.37-.87-.58-1.4-.58Zm11.87,0c-.39,0-.77,.12-1.1,.33-.33,.22-.58,.53-.73,.89-.15,.36-.19,.76-.11,1.14s.26,.74,.54,1.01c.28,.28,.63,.46,1.01,.54,.38,.08,.78,.04,1.14-.11,.36-.15,.67-.4,.89-.73,.22-.33,.33-.71,.33-1.1,0-.52-.21-1.03-.58-1.4-.37-.37-.87-.58-1.4-.58Zm6.13-16.81c.17-.3,.42-.55,.72-.72,.3-.17,.64-.26,.99-.26s.69,.09,.99,.26c.3,.17,.55,.42,.72,.72,.26,.45,.69,.78,1.19,.92,.5,.14,1.04,.07,1.5-.19,.23-.12,.44-.29,.61-.49,.17-.2,.29-.44,.37-.69,.08-.25,.1-.52,.07-.78-.03-.26-.11-.52-.24-.75-.52-.9-1.27-1.65-2.17-2.18-.9-.52-1.93-.8-2.97-.8s-2.07,.27-2.97,.8c-.9,.52-1.65,1.27-2.17,2.18-.17,.44-.17,.92-.02,1.36,.15,.44,.46,.81,.86,1.05,.4,.24,.88,.32,1.34,.24,.46-.08,.88-.32,1.18-.68Zm13.84-5.93c-1.22-2.1-2.96-3.85-5.07-5.06-2.1-1.21-4.49-1.85-6.92-1.85s-4.81,.64-6.92,1.85c-2.1,1.21-3.85,2.96-5.07,5.06-.13,.23-.22,.48-.25,.73-.03,.26-.02,.52,.05,.77,.07,.25,.19,.49,.34,.69,.16,.21,.36,.38,.58,.51,.27,.15,.58,.24,.89,.26,.35,0,.69-.09,.99-.26,.3-.17,.55-.42,.73-.73,.87-1.5,2.12-2.75,3.62-3.62,1.5-.87,3.21-1.32,4.94-1.32s3.44,.46,4.94,1.32c1.5,.87,2.75,2.12,3.62,3.62,.13,.23,.3,.43,.51,.58,.21,.16,.44,.28,.69,.34s.51,.09,.77,.05c.26-.03,.51-.12,.73-.25,.23-.12,.44-.29,.6-.5,.17-.2,.29-.44,.36-.69,.07-.25,.1-.52,.07-.78-.03-.26-.11-.51-.24-.74h0Zm-8.11,16.81h-1.98v-5.93c0-.52-.21-1.03-.58-1.4-.37-.37-.87-.58-1.4-.58s-1.03,.21-1.4,.58c-.37,.37-.58,.87-.58,1.4v5.93H9.93c-1.57,0-3.08,.63-4.19,1.74-1.11,1.11-1.74,2.62-1.74,4.19v3.96c0,1.57,.63,3.08,1.74,4.2,1.11,1.11,2.62,1.74,4.19,1.74h25.71c1.57,0,3.08-.62,4.19-1.74,1.11-1.11,1.74-2.62,1.74-4.2v-3.96c0-1.57-.63-3.08-1.74-4.19-1.11-1.11-2.62-1.74-4.19-1.74Zm1.98,9.89c0,.52-.21,1.03-.58,1.4-.37,.37-.87,.58-1.4,.58H9.93c-.52,0-1.03-.21-1.4-.58-.37-.37-.58-.87-.58-1.4v-3.96c0-.52,.21-1.03,.58-1.4,.37-.37,.87-.58,1.4-.58h25.71c.52,0,1.03,.21,1.4,.58,.37,.37,.58,.87,.58,1.4v3.96Z"/></svg>