<svg xmlns="http://www.w3.org/2000/svg" viewBox="0 0 48 48"><path fill="currentColor" d="M25.37,21.17h2.19c1.46,0,2.74-.37,3.65-1.1,.91-.73,1.28-1.83,1.28-2.92,0-.91-.18-1.64-.55-2.19-.37-.73-.91-1.1-1.64-1.46-.73-.37-1.64-.55-2.56-.55h-5.11v12.97h2.74v-4.75Zm0-6.21h2.37c.73,0,1.1,.18,1.46,.55,.37,.37,.55,.91,.55,1.46s-.18,1.1-.55,1.46c-.37,.37-.91,.55-1.64,.55h-2.19v-4.02Zm12.42,14.61c0-.91-.73-1.64-1.64-1.64h-9.68c-.73,0-1.28,.37-1.46,.91-.18,.55-.18,1.28,.37,1.83l4.93,5.3-4.93,5.3c-.37,.55-.55,1.1-.37,1.83,.18,.55,.91,.91,1.46,.91h9.68c.91,0,1.64-.73,1.64-1.64s-.73-1.83-1.64-1.83h-6.03l3.29-3.65c.55-.55,.55-1.64,0-2.19l-3.29-3.65h6.03c.91,.18,1.64-.55,1.64-1.46Zm-1.46-20.64c-3.11-3.11-7.49-4.93-12.24-4.93s-9.5,1.83-12.6,4.93c-2.92,3.11-4.2,7.12-4.02,11.87,.37,7.49,10.23,17.72,14.06,21.19,0-1.28,.55-2.37,1.28-3.29-4.57-4.38-11.69-12.79-12.05-18.08-.18-3.84,.91-6.94,3.11-9.32,2.37-2.56,6.03-4.02,10.05-4.02s7.49,1.46,10.05,4.02c2.37,2.37,3.47,5.66,3.29,9.5,0,1.1-.37,2.56-1.1,3.84,1.1,0,2.19,.37,3.11,1.1,.73-1.64,1.28-3.29,1.28-4.75,.18-4.93-1.28-8.95-4.2-12.05ZM19.34,25.74V12.77h-2.56v12.97h2.56Z"/></svg>