<svg xmlns="http://www.w3.org/2000/svg" viewBox="0 0 48 48"><path fill="currentColor" d="M31.01,29.06c-1.1,0-2,.9-2,2v12c0,1.1,.9,2,2,2s2-.9,2-2v-12c0-1.1-.9-2-2-2Zm-13.42,1.58c-.78,.78-.78,2.04,0,2.82l3.58,3.58-3.58,3.58c-.78,.78-.78,2.04,0,2.82,.4,.4,.9,.58,1.42,.58s1.02-.2,1.42-.58l6.42-6.42-6.42-6.42c-.78-.78-2.04-.78-2.82,0l-.02,.04Zm12.26-13.1c0-.88-.2-1.66-.58-2.34s-.96-1.22-1.74-1.6-1.72-.58-2.84-.58h-5.54v14.04h3.42v-5.04h2.12c1.14,0,2.1-.2,2.88-.62s1.34-.96,1.72-1.62c.38-.68,.56-1.42,.56-2.24Zm-3.96,1.3c-.32,.3-.8,.46-1.46,.46h-1.86v-3.52h1.86c.66,0,1.14,.16,1.46,.46s.48,.74,.48,1.3-.16,1-.48,1.3Zm14.94,18.22l3.58-3.58c.78-.78,.78-2.04,0-2.82s-2.04-.78-2.82,0l-6.42,6.42,6.42,6.42c.4,.4,.9,.58,1.42,.58s1.02-.2,1.42-.58c.78-.78,.78-2.04,0-2.82l-3.58-3.58-.02-.04Zm-3.9-18.74c-.28-2.92-1.32-5.72-3-8.12-1.68-2.4-3.96-4.34-6.62-5.6-2.66-1.26-5.58-1.82-8.52-1.62-2.92,.2-5.76,1.16-8.2,2.8-2.1,1.4-3.86,3.26-5.16,5.42s-2.1,4.6-2.36,7.12c-.24,2.5,.06,5.02,.92,7.38,.86,2.36,2.22,4.5,4,6.28l7.38,7.4c.12-.18,.28-.34,.44-.5l1.82-1.82-1.82-1.82c-.66-.66-1.06-1.46-1.24-2.3l-3.78-3.78c-1.36-1.36-2.4-3-3.04-4.8-.64-1.8-.88-3.74-.7-5.64,.18-1.94,.8-3.8,1.8-5.48s2.36-3.1,3.98-4.18c2.12-1.4,4.62-2.16,7.16-2.16s5.04,.76,7.16,2.16c1.62,1.08,2.96,2.5,3.96,4.16s1.62,3.52,1.82,5.46c.2,1.92-.04,3.84-.68,5.66-.28,.78-.62,1.52-1.04,2.22,1.44,.06,2.72,.82,3.48,1.92,.52-.88,.96-1.82,1.3-2.8,.86-2.36,1.16-4.88,.92-7.38l.02,.02Zm-20.26,8.74V13.02h-3.42v14.04h3.42Z"/></svg>