<svg xmlns="http://www.w3.org/2000/svg" viewBox="0 0 48 48"><path fill="currentColor" d="M29.64,31.72c-.53-.68-1.53-3.38-1.53-7.72s.99-7.04,1.53-7.72l.02-.02c.37.46.92,1.86,1.26,4h2.36c-.21-1.54-.52-2.97-.92-4.1-.64-1.79-1.49-2.99-2.45-3.16H12.71c-1.14,0-2.61,2.8-2.61,10.98s1.46,11,2.61,11.02h17.18c.96-.19,1.81-1.38,2.45-3.16.37-1.04.67-2.32.87-3.71h-2.38c-.34,1.93-.85,3.16-1.19,3.59ZM7.67,22.77H2v3.02h5.68c-.04-.58-.04-1.16-.04-1.79,0-.43.02-.82.02-1.23ZM35.11,19.03s1.07,2.07,1.07,3.64h-5.88v3.02h5.83c-.32,1.91-1.03,3.09-1.03,3.09l10.89-4.87h.02l-10.89-4.87Z"/></svg>