<svg xmlns="http://www.w3.org/2000/svg" viewBox="0 0 48 48"><path fill="currentColor" d="M24,30c-1.19,0-2.35,.35-3.33,1.01-.99,.66-1.76,1.6-2.21,2.69-.45,1.1-.57,2.3-.34,3.47,.23,1.16,.8,2.23,1.64,3.07,.84,.84,1.91,1.41,3.07,1.64,1.16,.23,2.37,.11,3.47-.34,1.1-.45,2.03-1.22,2.69-2.21,.66-.99,1.01-2.15,1.01-3.33,0-1.59-.63-3.12-1.76-4.24-1.12-1.12-2.65-1.76-4.24-1.76Zm0,8c-.4,0-.78-.12-1.11-.34-.33-.22-.58-.53-.74-.9-.15-.37-.19-.77-.11-1.16,.08-.39,.27-.74,.55-1.02,.28-.28,.64-.47,1.02-.55,.39-.08,.79-.04,1.16,.11,.37,.15,.68,.41,.9,.74,.22,.33,.34,.72,.34,1.11,0,.53-.21,1.04-.59,1.41-.37,.38-.88,.59-1.41,.59Zm0-15.99c-3.71,.01-7.26,1.49-9.9,4.1-.37,.37-.58,.88-.58,1.41s.21,1.04,.58,1.41c.37,.37,.88,.58,1.41,.58s1.03-.21,1.41-.58c.93-.93,2.03-1.67,3.25-2.17,1.21-.5,2.52-.76,3.83-.76s2.62,.26,3.83,.76c1.21,.5,2.32,1.24,3.25,2.17,.37,.38,.87,.59,1.4,.6,.41,.02,.81-.08,1.16-.29,.35-.21,.62-.52,.79-.9,.16-.37,.21-.78,.14-1.18-.08-.4-.27-.77-.56-1.05-1.32-1.31-2.88-2.34-4.59-3.04-1.72-.7-3.55-1.06-5.41-1.06Zm0-8c-5.83,.02-11.42,2.33-15.55,6.44-.19,.19-.33,.41-.44,.65-.1,.24-.15,.5-.15,.77,0,.53,.21,1.04,.59,1.42,.38,.38,.89,.59,1.42,.59s1.04-.21,1.42-.59c3.37-3.37,7.95-5.26,12.72-5.26s9.34,1.89,12.72,5.26c.19,.19,.41,.33,.65,.43s.5,.15,.77,.15c.26,0,.52-.05,.77-.15,.24-.1,.47-.25,.65-.43,.19-.19,.34-.41,.44-.65,.1-.24,.15-.5,.15-.77s-.05-.53-.15-.77c-.1-.24-.25-.46-.44-.65-4.14-4.11-9.72-6.42-15.55-6.44Zm21.21,.78c-2.78-2.79-6.09-5-9.73-6.51-3.64-1.51-7.54-2.28-11.48-2.28s-7.84,.78-11.48,2.28c-3.64,1.51-6.95,3.72-9.73,6.51-.38,.38-.59,.89-.59,1.42s.21,1.04,.59,1.42c.38,.38,.89,.59,1.42,.59s1.04-.21,1.42-.59c4.87-4.87,11.48-7.61,18.37-7.61s13.5,2.74,18.37,7.61c.19,.19,.41,.34,.65,.44,.24,.1,.51,.15,.77,.15s.53-.05,.77-.15c.24-.1,.46-.25,.65-.44,.19-.19,.34-.41,.44-.65,.1-.24,.15-.5,.15-.77s-.05-.53-.15-.77c-.1-.24-.25-.46-.44-.65Z"/></svg>