<svg xmlns="http://www.w3.org/2000/svg" viewBox="0 0 48 48"><path fill="currentColor" d="M35.59,7.59l-6,6.01c-.78,.78-.78,2.05,0,2.83,.78,.78,2.05,.78,2.83,0l6-6.01c.78-.78,.78-2.05,0-2.83s-2.05-.78-2.83,0Zm10.41,4.42c0-6.63-5.37-12.01-12-12.01-5.22,0-9.67,3.34-11.32,8.01H14c-1.59,0-3.12,.63-4.24,1.76s-1.76,2.65-1.76,4.25v12.01h-2c-.53,0-1.04,.21-1.41,.59-.38,.38-.59,.88-.59,1.42s.21,1.04,.59,1.42c.38,.38,.88,.59,1.41,.59h14v6.37c-.84,.3-1.6,.78-2.23,1.41-.63,.63-1.11,1.39-1.41,2.23H4c-.53,0-1.04,.21-1.41,.59-.38,.38-.59,.88-.59,1.42s.21,1.04,.59,1.42c.38,.38,.88,.59,1.41,.59h12.36c.42,1.16,1.19,2.16,2.2,2.87,1.01,.71,2.21,1.09,3.44,1.09s2.43-.38,3.44-1.09c1.01-.71,1.78-1.71,2.2-2.87h12.36c.53,0,1.04-.21,1.41-.59,.38-.38,.59-.88,.59-1.42s-.21-1.04-.59-1.42c-.38-.38-.88-.59-1.41-.59h-12.36c-.3-.84-.78-1.6-1.41-2.23-.63-.63-1.39-1.11-2.23-1.41v-6.37h14c.53,0,1.04-.21,1.41-.59,.38-.38,.59-.88,.59-1.42s-.21-1.04-.59-1.42c-.38-.38-.88-.59-1.41-.59h-2v-2.17c5.68-.95,10-5.89,10-11.85Zm-22.59,31.45c-.38,.38-.88,.59-1.41,.59-.4,0-.78-.12-1.11-.34-.33-.22-.59-.53-.74-.9-.15-.37-.19-.77-.11-1.16,.08-.39,.27-.74,.55-1.02,.28-.28,.64-.47,1.02-.55,.39-.08,.79-.04,1.16,.11,.37,.15,.68,.41,.9,.74,.22,.33,.34,.72,.34,1.11,0,.53-.21,1.04-.59,1.42Zm8.59-17.43H12V14.01c0-.53,.21-1.04,.59-1.42,.38-.38,.88-.59,1.41-.59h8c0,5.95,4.32,10.89,10,11.85v2.17Zm2-6.01c-4.42,0-8-3.59-8-8.01s3.58-8.01,8-8.01,8,3.59,8,8.01-3.58,8.01-8,8.01Z"/></svg>