<svg xmlns="http://www.w3.org/2000/svg" viewBox="0 0 48 48"><path fill="currentColor" d="M44,4h-12c-2.7,0-5.2,1-7.1,2.9-.3,.3-.6,.7-.9,1.1-.3-.4-.6-.8-.9-1.1-1.9-1.9-4.4-2.9-7.1-2.9H4c-1.1,0-2,.9-2,2v30c0,1.1,.9,2,2,2h14c1.1,0,2.1,.4,2.8,1.2,.8,.8,1.2,1.8,1.2,2.8s.9,2,2,2,2-.9,2-2,.4-2.1,1.2-2.8,1.8-1.2,2.8-1.2h14c1.1,0,2-.9,2-2V6c0-1.1-.9-2-2-2Zm-22,31.1c-1.2-.7-2.6-1.1-4-1.1H6V8h10c1.6,0,3.1,.6,4.2,1.8s1.8,2.6,1.8,4.2v21.1Zm20-1.1h-12c-1.4,0-2.8,.4-4,1.1V14c0-1.6,.6-3.1,1.8-4.2,1.1-1.1,2.7-1.8,4.2-1.8h10v26Z"/></svg>