<svg xmlns="http://www.w3.org/2000/svg" viewBox="0 0 48 48"><path fill="currentColor" d="M37.9,11.7l-6.6-6.6c-.7-.7-1.7-1.1-2.6-1.1H12.7c-2.1,0-3.7,1.7-3.7,3.8V40.3c0,2.1,1.7,3.7,3.7,3.7h22.5c2.1,0,3.8-1.7,3.8-3.7V14.3c0-1-.4-2-1.1-2.7Zm-8.9-3.6l5.9,5.9h-5.9v-5.9h0Zm6.3,32.2H12.7V7.8h12.5V15.9c0,1,.8,1.9,1.9,1.9h8.1v22.5Zm-8.8-15.6v1.6c0,2.8,1,5.4,2.8,7.4,.2,.3,.6,.4,.9,.4s.7-.1,.9-.4c1.8-2,2.8-4.6,2.8-7.4v-1.6c0-.3-.3-.6-.6-.6h-1.2c-.3,0-.6,.3-.6,.6v1.6c0,1.6-.4,3.1-1.2,4.4-.8-1.3-1.2-2.9-1.2-4.4v-1.6c0-.3-.3-.6-.6-.6h-1.2c-.3,0-.6,.3-.6,.6Zm-8.1-.6h-.6c-2.1,0-3.8,1.7-3.8,3.8v2.5c0,2.1,1.7,3.8,3.8,3.8h.6c.3,0,.6-.3,.6-.6v-1.2c0-.3-.3-.6-.6-.6h-.6c-.7,0-1.2-.6-1.2-1.2v-2.5c0-.7,.6-1.2,1.2-1.2h.6c.3,0,.6-.3,.6-.6v-1.2c0-.3-.3-.6-.6-.6Zm4.6,3.3c-.1,0-.2-.2-.2-.3,0-.2,.3-.5,.8-.5h1c.3,0,.6-.3,.6-.6v-1.2c0-.3-.3-.6-.6-.6h-1c-1.8,0-3.3,1.4-3.3,3s.4,1.6,1,2.2l1.7,1.5c.1,0,.2,.2,.2,.3,0,.2-.3,.5-.8,.5h-1c-.3,0-.6,.3-.6,.6v1.2c0,.3,.3,.6,.6,.6h1c1.8,0,3.3-1.4,3.3-3s-.4-1.6-1-2.2l-1.7-1.5h0Z"/></svg>