<svg xmlns="http://www.w3.org/2000/svg" viewBox="0 0 48 48"><path fill="currentColor" d="M10.5 40.25H16.75V44H10.5C7.74219 44 5.5 41.7578 5.5 39V9C5.5 6.24219 7.74219 4 10.5 4H23.4297C24.7578 4 26.0312 4.52344 26.9687 5.46094L34.0391 12.5312C34.9766 13.4687 35.5 14.7422 35.5 16.0703V27.75H31.75V16.5H25.5C24.1172 16.5 23 15.3828 23 14V7.75H10.5C9.8125 7.75 9.25 8.3125 9.25 9V39C9.25 39.6875 9.8125 40.25 10.5 40.25ZM23 32.75C23 33.3203 23.1719 33.875 23.4844 34.3437L24.25 35.4922L25.0156 34.3437C25.3281 33.8672 25.5 33.3125 25.5 32.75C25.5 32.0625 26.0625 31.5 26.75 31.5C27.4375 31.5 28 32.0625 28 32.75C28 33.8125 27.6875 34.8516 27.0937 35.7344L25.75 37.75L27.0937 39.7656C27.6875 40.6484 28 41.6875 28 42.75C28 43.4375 27.4375 44 26.75 44C26.0625 44 25.5 43.4375 25.5 42.75C25.5 42.1797 25.3281 41.625 25.0156 41.1563L24.25 40L23.4844 41.1484C23.1719 41.625 23 42.1797 23 42.7422C23 43.4297 22.4375 43.9922 21.75 43.9922C21.0625 43.9922 20.5 43.4297 20.5 42.7422C20.5 41.6797 20.8125 40.6406 21.4063 39.7578L22.75 37.75L21.4063 35.7344C20.8125 34.8516 20.5 33.8125 20.5 32.75C20.5 32.0625 21.0625 31.5 21.75 31.5C22.4375 31.5 23 32.0625 23 32.75ZM30.5 42.75V32.75C30.5 32.0625 31.0625 31.5 31.75 31.5C32.4375 31.5 33 32.0625 33 32.75V41.5H35.5C36.1875 41.5 36.75 42.0625 36.75 42.75C36.75 43.4375 36.1875 44 35.5 44H31.75C31.0625 44 30.5 43.4375 30.5 42.75ZM37.375 35.0703C37.375 33.1016 38.9688 31.5 40.9453 31.5H43C43.6875 31.5 44.25 32.0625 44.25 32.75C44.25 33.4375 43.6875 34 43 34H40.9453C40.3594 34 39.875 34.4766 39.875 35.0703C39.875 35.4766 40.1016 35.8437 40.4688 36.0234L42.9062 37.2422C44.1172 37.8437 44.875 39.0781 44.875 40.4297C44.875 42.3984 43.2812 44 41.3047 44H39.25C38.5625 44 38 43.4375 38 42.75C38 42.0625 38.5625 41.5 39.25 41.5H41.3047C41.8906 41.5 42.375 41.0234 42.375 40.4297C42.375 40.0234 42.1484 39.6563 41.7812 39.4766L39.3438 38.2578C38.1406 37.6563 37.375 36.4219 37.375 35.0703Z"/></svg>