<svg xmlns="http://www.w3.org/2000/svg" viewBox="0 0 48 48"><path fill="currentColor" d="M37.9,11.7l-6.6-6.6c-.7-.7-1.7-1.1-2.6-1.1H12.8c-2.1,0-3.7,1.7-3.7,3.8V40.3c0,2.1,1.7,3.7,3.7,3.7h22.5c2.1,0,3.7-1.7,3.7-3.7V14.3c0-1-.4-2-1.1-2.7Zm-3,2.4h-5.9v-5.9l5.9,5.9ZM12.8,40.3V7.8h12.5V15.9c0,1,.8,1.9,1.9,1.9h8.1v22.5H12.8Zm19.5-11.2c-1-.9-3.7-.7-5-.5-1.3-.8-2.2-2-2.9-3.6,.3-1.3,.8-3.2,.4-4.4-.3-2-3-1.8-3.3-.5-.3,1.3,0,3,.5,5.2-.8,1.9-1.9,4.4-2.8,5.8-1.6,.8-3.7,2-4,3.6-.3,1.2,2,4.3,5.9-2.4,1.7-.6,3.7-1.3,5.3-1.6,1.5,.8,3.2,1.3,4.4,1.3,2,0,2.2-2.2,1.4-3Zm-15.5,6.1c.4-1.1,1.9-2.3,2.4-2.7-1.5,2.4-2.4,2.8-2.4,2.7Zm6.4-14.9c.6,0,.5,2.5,.1,3.2-.3-1.1-.3-3.2-.1-3.2Zm-1.9,10.7c.8-1.3,1.4-2.9,1.9-4.3,.6,1.2,1.5,2.1,2.4,2.8-1.6,.3-3,1-4.3,1.5Zm10.3-.4s-.4,.5-2.9-.6c2.7-.2,3.2,.4,2.9,.6Z"/></svg>