<svg xmlns="http://www.w3.org/2000/svg" viewBox="0 0 48 48"><path fill="currentColor" d="M20.65,35.34c-.17.21-.25.51-.25.89v2.02h-2.64v-2.02c0-.39-.09-.69-.26-.89-.37-.43-1.1-.42-1.44,0-.17.21-.25.5-.25.89v6.24c0,.38.08.68.25.89.35.44,1.07.45,1.44,0,.18-.21.27-.51.27-.9v-2.41h2.64v2.41c0,.38.08.68.25.89.18.22.43.34.72.34s.54-.11.72-.33c.18-.21.27-.51.27-.9v-6.24c0-.39-.09-.69-.26-.89-.37-.43-1.08-.43-1.44,0ZM31.09,16.14v16.25h3.75V15.71c0-1.33-.52-2.6-1.46-3.54l-7.07-7.07c-.94-.94-2.21-1.46-3.54-1.46h-12.93c-2.76,0-5,2.24-5,5v30c0,2.76,2.24,5,5,5h3.75v-3.75h-3.75c-.69,0-1.25-.56-1.25-1.25V8.64c0-.69.56-1.25,1.25-1.25h12.5v6.25c0,1.38,1.12,2.5,2.5,2.5h6.25ZM44.62,42.01c-.17-.17-.42-.26-.72-.26h-2.7v-5.51c0-.39-.09-.69-.26-.89-.37-.43-1.08-.43-1.44,0-.17.21-.26.51-.26.89v6.09c0,.41.09.71.27.92.19.21.48.32.87.32h3.52c.3,0,.55-.08.72-.25.17-.17.26-.39.26-.65s-.09-.48-.26-.65ZM36.71,35.15h-.45c-.32,0-.54.03-.69.1-.18.08-.32.22-.4.42-.07.16-.14.39-.21.72l-.8,3.33-.8-3.33c-.08-.33-.15-.57-.21-.72-.08-.2-.22-.34-.4-.42-.16-.07-.38-.1-.69-.1h-.45c-.33,0-.6.08-.81.23-.23.17-.35.47-.35.9v6.26c0,.36.08.65.24.84.35.42,1.02.41,1.36,0,.16-.2.24-.48.24-.84v-3.25l.66,2.88.12.48c.04.17.1.33.17.47.08.16.2.3.35.4.16.11.35.17.57.17.29,0,.53-.09.71-.26.16-.16.27-.33.32-.52.05-.16.11-.4.19-.74l.66-2.88v3.25c0,.37.08.64.24.84.17.21.4.32.67.32.28,0,.52-.11.69-.32.16-.2.24-.47.24-.84v-6.26c0-.43-.12-.73-.35-.9-.21-.15-.48-.23-.81-.23ZM28.74,35.15h-4.63c-.3,0-.55.08-.72.25-.18.17-.27.39-.27.67s.09.48.25.66c.17.17.42.25.73.25h1.34v5.5c0,.39.09.69.26.89.18.22.43.33.72.33s.53-.11.71-.33c.17-.21.26-.51.26-.9v-5.5h1.34c.31,0,.56-.08.73-.25.17-.17.26-.39.26-.66s-.09-.49-.26-.66c-.17-.17-.42-.26-.74-.26Z"/></svg>