<svg xmlns="http://www.w3.org/2000/svg" viewBox="0 0 48 48"><path fill="currentColor" d="M46,19.88c-.02-.18-.06-.36-.12-.54v-.18c-.1-.21-.22-.39-.38-.56l-12-12c-.17-.16-.35-.28-.56-.38h-.18c-.2-.12-.43-.19-.66-.22H16c-1.59,0-3.12,.63-4.24,1.76-1.13,1.13-1.76,2.65-1.76,4.24v2h-2c-1.59,0-3.12,.63-4.24,1.76-1.13,1.13-1.76,2.65-1.76,4.24v16c0,1.59,.63,3.12,1.76,4.24,1.13,1.13,2.65,1.76,4.24,1.76h24c1.59,0,3.12-.63,4.24-1.76,1.13-1.13,1.76-2.65,1.76-4.24v-2h2c1.59,0,3.12-.63,4.24-1.76,1.13-1.13,1.76-2.65,1.76-4.24v-8.12Zm-12-7.06l5.18,5.18h-3.18c-.53,0-1.04-.21-1.41-.59-.38-.38-.59-.88-.59-1.41v-3.18Zm0,23.18c0,.53-.21,1.04-.59,1.41s-.88,.59-1.41,.59H8c-.53,0-1.04-.21-1.41-.59-.38-.38-.59-.88-.59-1.41V20c0-.53,.21-1.04,.59-1.41,.38-.38,.88-.59,1.41-.59h2v10c0,1.59,.63,3.12,1.76,4.24,1.13,1.13,2.65,1.76,4.24,1.76h18v2Zm8-8c0,.53-.21,1.04-.59,1.41s-.88,.59-1.41,.59H16c-.53,0-1.04-.21-1.41-.59-.38-.38-.59-.88-.59-1.41V12c0-.53,.21-1.04,.59-1.41,.38-.38,.88-.59,1.41-.59h14v6c0,1.59,.63,3.12,1.76,4.24,1.13,1.13,2.65,1.76,4.24,1.76h6v6Z"/></svg>