<svg xmlns="http://www.w3.org/2000/svg" viewBox="0 0 48 48"><path fill="currentColor" d="M27.4,27.31c.37-.38,.59-.88,.59-1.41s-.21-1.04-.59-1.41-.88-.59-1.41-.59H15.99c-.53,0-1.04,.21-1.41,.59-.38,.37-.59,.88-.59,1.41s.21,1.04,.59,1.41,.88,.59,1.41,.59h10c.53,0,1.04-.21,1.41-.59Zm-5.41,12.69v-.1H11.99c-.53,0-1.04-.21-1.41-.59-.38-.37-.59-.88-.59-1.41V9.9c0-.53,.21-1.04,.59-1.41s.88-.59,1.41-.59h10v6c0,1.59,.63,3.12,1.76,4.24,1.13,1.13,2.65,1.76,4.24,1.76h6c0,.53,.21,1.04,.59,1.41s.88,.59,1.41,.59,1.04-.21,1.41-.59,.59-.88,.59-1.41v-2.12c-.02-.18-.06-.36-.12-.54v-.18c-.1-.21-.22-.39-.38-.56L25.49,4.5c-.17-.16-.35-.28-.56-.38-.07-.01-.13-.01-.2,0-.17-.06-.34-.1-.52-.12H11.99c-1.59,0-3.12,.63-4.24,1.76-1.13,1.13-1.76,2.65-1.76,4.24v28c0,1.59,.63,3.12,1.76,4.24,1.13,1.13,2.65,1.76,4.24,1.76h10c.53,0,1.04-.21,1.41-.59s.59-.88,.59-1.41-.21-1.04-.59-1.41c-.38-.37-.88-.59-1.41-.59Zm4-29.28l5.18,5.18h-3.18c-.53,0-1.04-.21-1.41-.59s-.59-.88-.59-1.41v-3.18Zm-10,9.18h2c.53,0,1.04-.21,1.41-.59,.38-.38,.59-.88,.59-1.41s-.21-1.04-.59-1.41c-.38-.38-.88-.59-1.41-.59h-2c-.53,0-1.04,.21-1.41,.59-.38,.38-.59,.88-.59,1.41s.21,1.04,.59,1.41c.38,.38,.88,.59,1.41,.59Zm0,12c-.53,0-1.04,.21-1.41,.59-.38,.37-.59,.88-.59,1.41s.21,1.04,.59,1.41,.88,.59,1.41,.59h2c.53,0,1.04-.21,1.41-.59,.38-.37,.59-.88,.59-1.41s-.21-1.04-.59-1.41-.88-.59-1.41-.59h-2Zm25.68,6.46c-.31-.7-.82-1.3-1.46-1.73-.64-.42-1.4-.65-2.17-.65l-.04-.06v-.02c-.86,0-1.69,.28-2.37,.78l-3.5-1.6,3.82-1.76c.6,.37,1.29,.57,2,.58,.79,0,1.56-.23,2.22-.67,.66-.44,1.17-1.06,1.47-1.8,.3-.73,.38-1.54,.23-2.31-.15-.78-.54-1.49-1.09-2.05-.56-.56-1.27-.94-2.05-1.09-.78-.15-1.58-.08-2.31,.23-.73,.3-1.36,.82-1.79,1.47-.44,.66-.67,1.43-.67,2.22l-3.78,1.74c-.52-.37-1.12-.61-1.74-.7-.63-.09-1.27-.03-1.87,.18-.6,.21-1.14,.55-1.58,1.01s-.77,1.01-.95,1.62-.22,1.25-.1,1.88c.12,.62,.38,1.21,.76,1.72,.39,.5,.89,.91,1.46,1.18,.57,.27,1.21,.4,1.84,.38,.64,0,1.28-.17,1.84-.48l4.2,2c.09,.77,.4,1.49,.89,2.08s1.14,1.04,1.87,1.27c.73,.23,1.52,.25,2.26,.05s1.41-.62,1.93-1.19c.51-.57,.85-1.28,.97-2.04,.12-.76,.02-1.54-.29-2.24Z"/></svg>