<svg xmlns="http://www.w3.org/2000/svg" viewBox="0 0 48 48"><path fill="currentColor" d="M37.67 35.0098C36.61 34.3398 35.28 33.9898 34.05 33.6698C33.02 33.3998 32.04 33.1398 31.5 32.7998C31.32 32.6798 31.27 32.6098 31.27 32.6098C31.27 32.5998 31.25 32.5198 31.28 32.3398C31.33 32.0698 31.43 31.9798 31.54 31.9098C31.67 31.8198 31.99 31.6698 32.63 31.6198C33.55 31.5398 34.81 31.6898 36.26 32.0398C37.26 32.2898 38.28 31.6698 38.52 30.6698C38.64 30.1798 38.56 29.6798 38.3 29.2498C38.04 28.8198 37.63 28.5198 37.14 28.3998C36.54 28.2498 35.97 28.1398 35.43 28.0498V27.6398C35.43 26.6098 34.59 25.7698 33.56 25.7698C32.53 25.7698 31.69 26.6098 31.69 27.6398V27.9498C30.83 28.0898 30.09 28.3598 29.48 28.7598C28.47 29.4198 27.82 30.4098 27.59 31.6398C27.41 32.5898 27.51 33.4698 27.89 34.2298C28.22 34.9098 28.75 35.4898 29.48 35.9498C30.54 36.6198 31.87 36.9698 33.1 37.2898C34.13 37.5598 35.11 37.8198 35.65 38.1598C35.83 38.2798 35.88 38.3498 35.88 38.3498C35.88 38.3498 35.9 38.4498 35.87 38.6198C35.85 38.6998 35.81 38.9198 35.3 39.1198C34.69 39.3598 33.78 39.4098 32.79 39.2698C32.12 39.1698 31.02 38.9198 30.15 38.5398C29.69 38.3398 29.18 38.3298 28.71 38.5198C28.24 38.7098 27.88 39.0598 27.68 39.5298C27.28 40.4798 27.72 41.5798 28.66 41.9798C29.79 42.4698 30.99 42.7498 31.71 42.8798V43.3198C31.71 44.3498 32.55 45.1898 33.58 45.1898C34.61 45.1898 35.45 44.3498 35.45 43.3198V42.9398C35.88 42.8598 36.28 42.7498 36.66 42.5998C38.23 41.9798 39.26 40.8198 39.55 39.2998C39.73 38.3498 39.63 37.4698 39.25 36.7098C38.92 36.0298 38.38 35.4498 37.66 34.9998L37.67 35.0098ZM39.88 16.1398V15.9598C39.78 15.7498 39.65 15.5598 39.5 15.3798L27.5 3.3798C27.32 3.2298 27.13 3.0998 26.92 2.9998C26.86 2.9998 26.8 2.9998 26.74 2.9998L26.12 2.7998H14C12.41 2.7998 10.88 3.4298 9.76 4.5598C8.64 5.6898 8 7.2098 8 8.7998V38.7998C8 40.3898 8.63 41.9198 9.76 43.0398C10.89 44.1598 12.41 44.7998 14 44.7998H24C24.53 44.7998 25.04 44.5898 25.41 44.2098C25.78 43.8298 26 43.3298 26 42.7998C26 42.2698 25.79 41.7598 25.41 41.3898C25.03 41.0198 24.53 40.7998 24 40.7998H14C13.47 40.7998 12.96 40.5898 12.59 40.2098C12.21 39.8298 12 39.3298 12 38.7998V8.7998C12 8.2698 12.21 7.7598 12.59 7.3898C12.97 7.0098 13.47 6.7998 14 6.7998H24V12.7998C24 14.3898 24.63 15.9198 25.76 17.0398C26.89 18.1598 28.41 18.7998 30 18.7998H36V22.7998C36 23.3298 36.21 23.8398 36.59 24.2098C36.97 24.5798 37.47 24.7998 38 24.7998C38.53 24.7998 39.04 24.5898 39.41 24.2098C39.78 23.8298 40 23.3298 40 22.7998V16.6798C39.98 16.4998 39.94 16.3198 39.88 16.1398ZM30 14.7998C29.47 14.7998 28.96 14.5898 28.59 14.2098C28.22 13.8298 28 13.3298 28 12.7998V9.6198L33.18 14.7998H30ZM16.5 15.3798H19.68C20.78 15.3798 21.68 14.4798 21.68 13.3798C21.68 12.2798 20.78 11.3798 19.68 11.3798H16.5C15.4 11.3798 14.5 12.2798 14.5 13.3798C14.5 14.4798 15.4 15.3798 16.5 15.3798ZM16.5 22.8298H23.18C24.28 22.8298 25.18 21.9298 25.18 20.8298C25.18 19.7298 24.28 18.8298 23.18 18.8298H16.5C15.4 18.8298 14.5 19.7298 14.5 20.8298C14.5 21.9298 15.4 22.8298 16.5 22.8298Z"/></svg>