<svg xmlns="http://www.w3.org/2000/svg" viewBox="0 0 48 48"><path fill="currentColor" d="M14.58,27.41c.38,.38,.88,.59,1.41,.59h12c.53,0,1.04-.21,1.41-.59s.59-.88,.59-1.41-.21-1.04-.59-1.41-.88-.59-1.41-.59H15.99c-.53,0-1.04,.21-1.41,.59s-.59,.88-.59,1.41,.21,1.04,.59,1.41Zm5.41,12.59H11.99c-.53,0-1.04-.21-1.41-.59s-.59-.88-.59-1.41V10c0-.53,.21-1.04,.59-1.41s.88-.59,1.41-.59h10v6c0,1.59,.63,3.12,1.76,4.24s2.65,1.76,4.24,1.76h6v2c0,.53,.21,1.04,.59,1.41s.88,.59,1.41,.59,1.04-.21,1.41-.59,.59-.88,.59-1.41v-4.12c-.02-.18-.06-.36-.12-.54v-.18c-.1-.21-.22-.39-.38-.56L25.49,4.6c-.17-.16-.35-.28-.56-.38-.06,0-.12,0-.18,0l-.64-.22H11.99c-1.59,0-3.12,.63-4.24,1.76s-1.76,2.65-1.76,4.24v28c0,1.59,.63,3.12,1.76,4.24,1.13,1.13,2.65,1.76,4.24,1.76h8c.53,0,1.04-.21,1.41-.59s.59-.88,.59-1.41-.21-1.04-.59-1.41-.88-.59-1.41-.59Zm6-29.18l5.18,5.18h-3.18c-.53,0-1.04-.21-1.41-.59s-.59-.88-.59-1.41v-3.18Zm-10,9.18h2c.53,0,1.04-.21,1.41-.59,.38-.38,.59-.88,.59-1.41s-.21-1.04-.59-1.41c-.38-.38-.88-.59-1.41-.59h-2c-.53,0-1.04,.21-1.41,.59s-.59,.88-.59,1.41,.21,1.04,.59,1.41,.88,.59,1.41,.59Zm25.86,14.07c-.1-.24-.25-.46-.44-.65l-4.84-4.84c-.19-.19-.41-.34-.65-.44-.24-.1-.51-.15-.77-.15s-.53,.05-.77,.15c-.24,.1-.46,.25-.65,.44l-7.16,7.16c-.19,.19-.33,.41-.43,.65-.1,.24-.15,.5-.15,.77v4.84c0,.53,.21,1.04,.59,1.41s.88,.59,1.41,.59h4.84c.26,0,.52-.05,.77-.15,.24-.1,.47-.25,.65-.43l7.16-7.16c.19-.19,.34-.41,.44-.65,.1-.24,.15-.51,.15-.77s-.05-.53-.15-.77Zm-9.86,5.93h-2v-2l5.16-5.16,2,2-5.16,5.16Zm-12-8h-4c-.53,0-1.04,.21-1.41,.59s-.59,.88-.59,1.41,.21,1.04,.59,1.41,.88,.59,1.41,.59h4c.53,0,1.04-.21,1.41-.59s.59-.88,.59-1.41-.21-1.04-.59-1.41-.88-.59-1.41-.59Z"/></svg>