<svg xmlns="http://www.w3.org/2000/svg" viewBox="0 0 48 48"><path fill="currentColor" d="M27.99,23.99H16c-.53,0-1.04,.21-1.41,.59-.37,.37-.59,.88-.59,1.41s.21,1.04,.59,1.41c.37,.37,.88,.59,1.41,.59h12c.53,0,1.04-.21,1.41-.59s.59-.88,.59-1.41-.21-1.04-.59-1.41-.88-.59-1.41-.59Zm10.82,14l2.6-2.58c.38-.38,.59-.89,.59-1.42s-.21-1.04-.59-1.42c-.38-.38-.89-.59-1.42-.59s-1.04,.21-1.42,.59l-2.58,2.6-2.58-2.6c-.38-.38-.89-.59-1.42-.59s-1.04,.21-1.42,.59c-.38,.38-.59,.89-.59,1.42s.21,1.04,.59,1.42l2.6,2.58-2.6,2.58c-.19,.19-.34,.41-.44,.65-.1,.24-.15,.51-.15,.77s.05,.53,.15,.77c.1,.24,.25,.46,.44,.65,.19,.19,.41,.34,.65,.44,.24,.1,.51,.15,.77,.15s.53-.05,.77-.15c.24-.1,.46-.25,.65-.44l2.58-2.6,2.58,2.6c.19,.19,.41,.34,.65,.44,.24,.1,.51,.15,.77,.15s.53-.05,.77-.15c.24-.1,.46-.25,.65-.44,.19-.19,.34-.41,.44-.65,.1-.24,.15-.51,.15-.77s-.05-.53-.15-.77c-.1-.24-.25-.46-.44-.65l-2.6-2.58Zm-14.82,2H12c-.53,0-1.04-.21-1.41-.59-.37-.37-.59-.88-.59-1.41V10c0-.53,.21-1.04,.59-1.41,.37-.37,.88-.59,1.41-.59h10v6c0,1.59,.63,3.12,1.76,4.24,1.12,1.12,2.65,1.76,4.24,1.76h6v6c0,.53,.21,1.04,.59,1.41s.88,.59,1.41,.59,1.04-.21,1.41-.59,.59-.88,.59-1.41v-8.12c-.02-.18-.06-.36-.12-.54v-.18c-.1-.21-.22-.39-.38-.56L25.49,4.6c-.17-.16-.35-.28-.56-.38-.07-.01-.13-.01-.2,0-.19-.1-.4-.18-.62-.22H12c-1.59,0-3.12,.63-4.24,1.76s-1.76,2.65-1.76,4.24v27.99c0,1.59,.63,3.12,1.76,4.24,1.12,1.12,2.65,1.76,4.24,1.76h12c.53,0,1.04-.21,1.41-.59s.59-.88,.59-1.41-.21-1.04-.59-1.41-.88-.59-1.41-.59Zm2-29.17l5.18,5.18h-3.18c-.53,0-1.04-.21-1.41-.59-.37-.37-.59-.88-.59-1.41v-3.18Zm-10,5.18c-.53,0-1.04,.21-1.41,.59-.37,.37-.59,.88-.59,1.41s.21,1.04,.59,1.41c.37,.37,.88,.59,1.41,.59h2c.53,0,1.04-.21,1.41-.59,.37-.37,.59-.88,.59-1.41s-.21-1.04-.59-1.41c-.37-.37-.88-.59-1.41-.59h-2Zm8,16h-8c-.53,0-1.04,.21-1.41,.59-.37,.37-.59,.88-.59,1.41s.21,1.04,.59,1.41c.37,.37,.88,.59,1.41,.59h8c.53,0,1.04-.21,1.41-.59s.59-.88,.59-1.41-.21-1.04-.59-1.41-.88-.59-1.41-.59Z"/></svg>