<svg xmlns="http://www.w3.org/2000/svg" viewBox="0 0 48 48"><path fill="currentColor" d="M22.99,39.99H11c-.53,0-1.04-.21-1.41-.59-.37-.37-.59-.88-.59-1.41V10c0-.53,.21-1.04,.59-1.41,.37-.37,.88-.59,1.41-.59h10v6c0,1.59,.63,3.12,1.76,4.24,1.12,1.12,2.65,1.76,4.24,1.76h6v10c0,.53,.21,1.04,.59,1.41s.88,.59,1.41,.59,1.04-.21,1.41-.59,.59-.88,.59-1.41v-12.12c-.02-.18-.06-.36-.12-.54v-.18c-.1-.21-.22-.39-.38-.56h0L24.49,4.6c-.17-.16-.35-.28-.56-.38-.07-.01-.13-.01-.2,0-.19-.1-.4-.18-.62-.22H11c-1.59,0-3.12,.63-4.24,1.76s-1.76,2.65-1.76,4.24v27.99c0,1.59,.63,3.12,1.76,4.24,1.12,1.12,2.65,1.76,4.24,1.76h12c.53,0,1.04-.21,1.41-.59s.59-.88,.59-1.41-.21-1.04-.59-1.41-.88-.59-1.41-.59Zm2-29.17l5.18,5.18h-3.18c-.53,0-1.04-.21-1.41-.59-.37-.37-.59-.88-.59-1.41v-3.18ZM15,27.99h12c.53,0,1.04-.21,1.41-.59s.59-.88,.59-1.41-.21-1.04-.59-1.41-.88-.59-1.41-.59H15c-.53,0-1.04,.21-1.41,.59-.37,.37-.59,.88-.59,1.41s.21,1.04,.59,1.41c.37,.37,.88,.59,1.41,.59Zm8,4h-8c-.53,0-1.04,.21-1.41,.59-.37,.37-.59,.88-.59,1.41s.21,1.04,.59,1.41c.37,.37,.88,.59,1.41,.59h8c.53,0,1.04-.21,1.41-.59s.59-.88,.59-1.41-.21-1.04-.59-1.41-.88-.59-1.41-.59Zm-8-12h2c.53,0,1.04-.21,1.41-.59,.37-.37,.59-.88,.59-1.41s-.21-1.04-.59-1.41c-.37-.37-.88-.59-1.41-.59h-2c-.53,0-1.04,.21-1.41,.59-.37,.37-.59,.88-.59,1.41s.21,1.04,.59,1.41c.37,.37,.88,.59,1.41,.59Zm27.41,12.58c-.19-.19-.41-.34-.65-.44-.24-.1-.51-.15-.77-.15s-.53,.05-.77,.15c-.24,.1-.46,.25-.65,.44l-6.58,6.6-2.58-2.6c-.19-.19-.41-.33-.65-.44-.24-.1-.5-.15-.77-.15s-.52,.05-.77,.15c-.24,.1-.47,.25-.65,.44-.19,.19-.33,.41-.44,.65-.1,.24-.15,.5-.15,.77s.05,.52,.15,.77c.1,.24,.25,.47,.44,.65l4,4c.19,.19,.41,.34,.65,.44,.24,.1,.51,.15,.77,.15s.53-.05,.77-.15c.24-.1,.46-.25,.65-.44l8-8c.19-.19,.34-.41,.44-.65,.1-.24,.15-.51,.15-.77s-.05-.53-.15-.77c-.1-.24-.25-.46-.44-.65h0Z"/></svg>