<svg xmlns="http://www.w3.org/2000/svg" viewBox="0 0 48 48"><path fill="currentColor" d="M38,11h-12.6l-.6-2c-.4-1.2-1.2-2.2-2.2-2.9-1-.7-2.2-1.1-3.5-1.1H10c-1.6,0-3.1,.6-4.2,1.8s-1.8,2.7-1.8,4.2v26c0,1.6,.6,3.1,1.8,4.2,1.1,1.1,2.7,1.8,4.2,1.8h28c1.6,0,3.1-.6,4.2-1.8,1.1-1.1,1.8-2.7,1.8-4.2V17c0-1.6-.6-3.1-1.8-4.2-1.1-1.1-2.7-1.8-4.2-1.8Zm2,26c0,.5-.2,1-.6,1.4-.4,.4-.9,.6-1.4,.6H10c-.5,0-1-.2-1.4-.6-.4-.4-.6-.9-.6-1.4V11c0-.5,.2-1,.6-1.4s.9-.6,1.4-.6h9.1c.4,0,.8,.1,1.2,.4,.3,.2,.6,.6,.7,1l1.1,3.3c.1,.4,.4,.7,.7,1,.3,.2,.8,.4,1.2,.4h14c.5,0,1,.2,1.4,.6,.4,.4,.6,.9,.6,1.4v20Z"/></svg>