<svg xmlns="http://www.w3.org/2000/svg" viewBox="0 0 48 48"><path fill="currentColor" d="M42,36.02h-12.36c-.3-.84-.78-1.6-1.41-2.23-.63-.63-1.39-1.11-2.23-1.41v-4.36h7.34c1.23,0,2.42-.5,3.29-1.37,.87-.87,1.37-2.05,1.37-3.29V12.68c0-1.23-.5-2.42-1.37-3.29-.87-.87-2.05-1.37-3.29-1.37h-8l-.26-.82c-.31-.91-.89-1.71-1.67-2.28-.78-.57-1.71-.88-2.67-.9h-6c-.62,0-1.23,.11-1.8,.34-.57,.23-1.1,.57-1.54,1.01-.44,.43-.79,.95-1.03,1.52s-.37,1.18-.37,1.8v14.68c0,1.23,.5,2.42,1.37,3.29,.87,.87,2.05,1.37,3.29,1.37h7.34v4.36c-.84,.3-1.6,.78-2.23,1.41-.63,.63-1.11,1.39-1.41,2.23H6c-.53,0-1.04,.21-1.41,.59-.38,.37-.59,.88-.59,1.41s.21,1.04,.59,1.41c.38,.37,.88,.59,1.41,.59h12.36c.42,1.16,1.19,2.16,2.2,2.87,1.01,.71,2.21,1.09,3.44,1.09s2.43-.38,3.44-1.09c1.01-.71,1.78-1.71,2.2-2.87h12.36c.53,0,1.04-.21,1.41-.59s.59-.88,.59-1.41-.21-1.04-.59-1.41c-.37-.38-.88-.59-1.41-.59ZM14.66,24.02c-.18,0-.34-.07-.47-.19-.12-.12-.19-.29-.19-.47V8.68c0-.18,.07-.34,.19-.47,.12-.12,.29-.19,.47-.19h6c.14,0,.28,.04,.4,.12,.12,.08,.2,.2,.24,.34l.72,2.18c.14,.41,.41,.77,.76,1.01,.36,.25,.78,.37,1.22,.35h9.34c.17,0,.34,.07,.47,.19,.12,.12,.19,.29,.19,.47v10.68c0,.17-.07,.34-.19,.47-.12,.12-.29,.19-.47,.19H14.66Zm9.34,16c-.4,0-.78-.12-1.11-.34-.33-.22-.59-.53-.74-.9-.15-.37-.19-.77-.11-1.16s.27-.74,.55-1.02c.28-.28,.64-.47,1.02-.55,.39-.08,.79-.04,1.16,.11,.37,.15,.68,.41,.9,.74,.22,.33,.34,.72,.34,1.11,0,.53-.21,1.04-.59,1.41s-.88,.59-1.41,.59Z"/></svg>