<svg xmlns="http://www.w3.org/2000/svg" viewBox="0 0 48 48"><path fill="currentColor" d="M40,17.88c-.02-.18-.06-.36-.12-.54v-.18c-.1-.21-.22-.39-.38-.56L27.5,4.6c-.17-.16-.35-.28-.56-.38h-.18l-.64-.22H14c-1.59,0-3.12,.63-4.24,1.76-1.13,1.13-1.76,2.65-1.76,4.24v28c0,1.59,.63,3.12,1.76,4.24,1.13,1.13,2.65,1.76,4.24,1.76h20c1.59,0,3.12-.63,4.24-1.76s1.76-2.65,1.76-4.24V17.88Zm-12-7.06l5.18,5.18h-5.18v-5.18Zm8,27.18c0,.53-.21,1.04-.59,1.41-.38,.37-.88,.59-1.41,.59H14c-.53,0-1.04-.21-1.41-.59-.38-.38-.59-.88-.59-1.41V10c0-.53,.21-1.04,.59-1.41,.38-.38,.88-.59,1.41-.59h10v10c0,.53,.21,1.04,.59,1.41s.88,.59,1.41,.59h10v18Z"/></svg>