<svg xmlns="http://www.w3.org/2000/svg" viewBox="0 0 48 48"><path fill="currentColor" d="M40.5,25.1c-.2-.2-.4-.3-.7-.4-.2-.1-.5-.2-.8-.2s-.5,0-.8,.2c-.2,.1-.5,.3-.7,.4h0l-12.6,12.6c-1.6,1.5-3.8,2.2-6,2.2-2.2,0-4.3-1-5.9-2.5-1.6-1.6-2.5-3.7-2.5-5.9,0-2.2,.7-4.4,2.2-6L29.1,9.3c1-.9,2.3-1.4,3.6-1.4s2.6,.5,3.6,1.4c.9,1,1.5,2.3,1.5,3.6s-.5,2.6-1.5,3.6l-14,14c-.1,.1-.3,.3-.5,.4-.2,0-.4,.1-.6,.1-.2,0-.4,0-.6,0-.2,0-.4-.2-.5-.3-.1-.1-.3-.3-.4-.5,0-.2-.1-.4-.1-.6,0-.2,0-.4,0-.6,0-.2,.2-.4,.3-.5l10.4-10.4c.4-.4,.6-.9,.6-1.4s-.2-1.1-.6-1.4c-.4-.4-.9-.6-1.4-.6s-1.1,.2-1.4,.6l-10.4,10.5c-.5,.5-.9,1.1-1.2,1.8s-.4,1.4-.4,2.1,.1,1.5,.4,2.1,.7,1.3,1.2,1.8c1.1,1,2.5,1.6,4,1.6s2.9-.6,4-1.6l14-14c1.6-1.7,2.5-4,2.5-6.4,0-2.4-1-4.6-2.7-6.3-1.7-1.7-3.9-2.6-6.3-2.7-2.4,0-4.7,.8-6.4,2.5L9.8,22.7c-2.2,2.4-3.4,5.6-3.3,8.9,0,3.3,1.4,6.4,3.8,8.7s5.5,3.6,8.7,3.7c3.3,0,6.4-1.2,8.9-3.4l12.6-12.6c.2-.2,.3-.4,.4-.7,.1-.2,.2-.5,.2-.8s0-.5-.2-.8c-.1-.2-.3-.5-.4-.7Z"/></svg>