<svg xmlns="http://www.w3.org/2000/svg" viewBox="0 0 48 48"><path fill="currentColor" d="M6.58545 6.58594C7.3665 5.80489 8.6335 5.80489 9.41455 6.58594L41.4146 38.5859C42.1953 39.3669 42.1953 40.6331 41.4146 41.4141C40.6335 42.1951 39.3665 42.1951 38.5854 41.4141L35.1714 38H30.9292C30.444 41.3922 27.5268 43.9998 24.0005 44C20.474 44 17.556 41.3923 17.0708 38H8.02588C7.83113 38.0027 7.63491 37.9772 7.44385 37.9219C7.19216 37.8491 6.96051 37.7277 6.76025 37.5693C6.33334 37.2316 6.04736 36.7234 6.00537 36.1475C5.98703 35.9017 6.0138 35.6515 6.08838 35.4102C6.14846 35.2152 6.23804 35.0326 6.35107 34.8682L10.0005 29.3945V20C10.0005 17.8998 10.4628 15.9071 11.2915 14.1191L6.58545 9.41406C5.80477 8.63308 5.80477 7.36692 6.58545 6.58594ZM21.1704 38C21.5822 39.1652 22.6943 40 24.0005 40C25.3065 39.9998 26.4178 39.1651 26.8296 38H21.1704ZM14.3911 17.2197C14.1362 18.1023 14.0005 19.0353 14.0005 20V30C14.0005 30.3948 13.8835 30.7809 13.6646 31.1094L11.7368 34H31.1714L14.3911 17.2197ZM24.0005 4C25.6775 4.00017 27.1132 5.03241 27.7075 6.49609C33.6401 8.12129 38.0005 13.5516 38.0005 20V28.6865L34.0005 24.6865V20C34.0005 14.4773 29.5231 10.0002 24.0005 10C22.6177 10 21.2999 10.2806 20.1021 10.7881L17.1187 7.80469C18.1079 7.24528 19.1723 6.80296 20.2925 6.49609C20.8868 5.03226 22.3233 4 24.0005 4Z"/></svg>