<svg data-name="Layer 1" xmlns="http://www.w3.org/2000/svg" width="48" height="48" viewBox="0 0 48 48"><path d="M29.97 19.13h-3.28v3.26l-4.52 3.56-.87-.68 4.52-3.56-1.83-1.43-4.52 3.55-.87-.68 4.52-3.55-1.83-1.44-4.93 3.88c-.6-1.5-2.2-2.91-4.41-2.91H7.73v9.4h4.22c1.98 0 3.7-1.19 4.41-2.9l4.93 3.88 5.39-4.25v3.27h6.55v-2.75h-3.27v-6.66zM11.6 25.82h-.71v-4h.73c1.2 0 2.04.72 2.04 2 0 1.39-.95 2-2.06 2zM24 2.15C11.94 2.15 2.15 11.93 2.15 24S11.94 45.85 24 45.85 45.85 36.07 45.85 24 36.07 2.15 24 2.15zm13.78 35.63c-3.52 3.53-8.4 5.71-13.78 5.71s-10.25-2.19-13.78-5.71C6.69 34.26 4.51 29.38 4.51 24s2.18-10.26 5.71-13.78c3.53-3.53 8.4-5.71 13.78-5.71s10.26 2.18 13.78 5.71c3.53 3.52 5.7 8.4 5.7 13.78s-2.18 10.25-5.7 13.78zm-.39-12v-6.66h-3.28v9.41h6.55v-2.75h-3.27z" fill="#007db8"/></svg>