<svg data-name="Layer 1" xmlns="http://www.w3.org/2000/svg" width="512" height="512" viewBox="0 0 512 512"><path fill="#474c4f" d="M0 0h512v512H0z"/><path d="M397.57 280.73c.17.06.33.13.49.21 1.88.9 3.11 2.72 4.26 4.46 6.5 9.89 13 19.77 19.5 29.66 6.85-10.33 13.71-20.66 20.56-30.98.78-1.18 1.61-2.4 2.85-3.08 1.3-.72 2.86-.73 4.35-.72 5.7.02 11.39.05 17.09.07-10.85 15.81-21.69 31.62-32.54 47.43 11.32 16.41 22.64 32.83 33.96 49.24h-17.5c-1.62 0-3.33-.03-4.72-.87-1.13-.69-1.89-1.84-2.61-2.96-7.13-11.02-14.25-22.04-21.38-33.06-15.77 23.04-31.55 46.07-47.32 69.11-1.01 1.48-2.04 2.97-3.41 4.13-5.27 4.44-13.19 2.36-19.68.05l58.17-84.24c.16-.22-2.48-3.72-2.75-4.12l-2.86-4.29c-1.91-2.86-3.81-5.72-5.72-8.58-3.81-5.72-7.63-11.44-11.44-17.16l-4.69-7.04-2.29-3.43c-.68-1.02-2.08-2.44-2.41-3.61s1.91-.67 2.8-.68l4.29-.02 8.37-.05c1.56 0 3.18 0 4.63.54z" fill="#7dbf42"/><path d="M206.06 279.86c-62.58-18.82-81.7 80.99-26.49 97.63 11.96 3.61 36.3 3.05 47.15-3.51 4.66-2.81 1.49-13.22 2.36-18.26-23.83 10.79-59.33 13.39-59.76-21.35l65.46-1.42c.13-22.41-4.41-45.79-28.73-53.1zm-36.73 38.87c1.47-32.16 44.08-33.47 44.11 0h-44.11zM46.96 234.78H68.3v-82.53h18.51v-15.66l-18.51.01c-.29 0 .06-9.6.17-10.6.37-3.26 1.34-6.6 3.69-9 4.99-5.08 13.57-4.78 20.21-4.73 7.55.06 15.09.31 22.64.42 3.2.05 6.41.09 9.61 0 1.26-.03 3.55.24 4.68-.48l3.04-16.89c0 .01-.4 0-.42 0H97.18c-14.01 0-30.85-1.92-41.57 9.27-7.92 8.27-8.19 21.35-9.29 32.05l-14.81 5.82-.2 9.78h15.66v82.52zm67.07-2.33c1.48 4.53 16.81 1.46 21.14 2.33V136.6h-19.92l-1.22 95.85zm2.92 50.08c-6.87-3.92-15.05-5.29-22.91-4.39-10.75 1.22-20.96 6.67-27.95 14.93-.71-4.22-1.42-8.45-2.12-12.67l-12.98-.06c-.9 0-2.59-.35-3.41-.02-.92.37-.61 1.12-.61 2.17v94.58H68.4l-.3-48.86c-.03-4.92-.06-9.88.97-14.7s3.2-9.52 6.92-12.74c6-5.18 14.83-5.57 22.61-4.04 4.53.89 9.45 2.75 11.38 6.95 1 2.19 1.02 4.68 1.02 7.09v66.3h21.3l.15-62.43c.01-4.69.01-9.44-1.18-13.97-2.01-7.65-7.44-14.22-14.31-18.14zm136.38-123.38c-3.11-7.55-7.97-14.57-14.78-19.08-7.62-5.05-17.33-6.59-26.27-4.71-8.94 1.88-17.06 7.04-23 13.98.46-17.51.91-35.03 1.37-52.54 0 0-16.71-.04-18.23-.04-1.01 0-2.53-.4-3.07.6-.5.94-.03 3.32-.03 4.39v133.03c5.22-.22 10.45-.43 15.67-.65.99-4.1 1.97-8.2 2.96-12.31 6.67 6.89 15.37 11.95 24.82 13.59 9.45 1.63 19.61-.34 27.35-6 10.02-7.34 15-19.85 16.93-32.12 2.02-12.78 1.2-26.18-3.72-38.14zm-21.15 48.13c-7.13 15.35-30.37 15.5-38.04.55-6.66-12.98-7.29-51.32 11.79-55.25 31.94-6.59 35.93 33.86 26.25 54.7zm51.12 88.75c8.95-.04 17.89-.09 26.84-.13l1.41-15.53-28.33-.12-.12-22.63c-2.62-.81-5.46-.83-8.11-.14-2.28.59-4.45 1.52-5.65 3.67-1.49 2.68-2.17 5.69-2.95 8.63-.68 2.54-1.44 5.1-2.89 7.32-3.13 4.81-8.84 7.16-14.24 9.1-.07 3.24-.13 6.48-.2 9.72 4.29.04 8.58.07 12.87.11-.3 17.25-.61 34.5.13 51.74.29 6.66.81 13.58 4.14 19.35 4.14 7.17 12.23 11.5 20.45 12.53s16.57-.87 24.3-3.85l.51-15.88c-3.91 1.35-7.88 2.72-12 2.98s-8.51-.7-11.55-3.5c-4.74-4.35-5.03-11.61-4.97-18.05.12-15.1.25-30.2.37-45.3zm51.08 81.04h21.34v-96.76h-21.34v96.76zm99.86-164.23c-23.83 10.79-59.33 13.39-59.76-21.35l65.46-1.42c.13-22.41-4.41-45.79-28.73-53.1-62.58-18.82-81.7 80.99-26.49 97.63 11.96 3.61 36.3 3.05 47.15-3.51 4.66-2.81 1.49-13.22 2.36-18.26zm-15.64-37.01h-44.11c1.47-32.16 44.08-33.47 44.11 0zm-77.1-40.65c-16.95-2.32-31.66 3.94-40.56 18.51l-2.13-17.1h-17.08v98.19h21.34v-60.47c0-4.66 9.02-14.28 13.22-16.66 7.18-4.07 14.47-4.43 22.4-3.15l2.81-19.31z" fill="#f6f9fb"/></svg>