<svg width="48" height="48" viewBox="0 0 48 48" fill="none" xmlns="http://www.w3.org/2000/svg"><path fill-rule="evenodd" clip-rule="evenodd" d="M35.542 21.121h1.788v2.696h3.623v-2.696h1.789v6.735h-1.79v-2.972H37.33v2.971h-1.788v-6.734zM2 21.121h1.79v2.696h3.622v-2.696h1.8v6.735h-1.8v-2.972H3.789v2.971H2v-6.734zm8.692 0h1.811v6.735h-1.811V21.12zm33.497 0H46v6.735h-1.811V21.12zm-31.023 0H20.2v1.122h-2.629v5.613h-1.778v-5.613h-2.628v-1.122zm8.58 4.16l1.249-3.005 1.237 3.005h-2.485zm2.939 1.067l.618 1.508h2.022l-3.192-6.724h-2.264l-3.214 6.723h2.01l.63-1.507h3.39zm8.084-2.938h1.834c-.023-1.222-1.083-2.388-3.546-2.41-1.833-.01-4.053.737-4.064 3.477-.011 2.718 2.253 3.565 4.064 3.521 1.668-.055 3.523-.517 3.6-2.563l-1.844.01c-.055 1.277-1.082 1.53-1.756 1.541-.696 0-2.12-.143-2.142-2.476-.022-2.2 1.281-2.508 2.142-2.508.85.01 1.701.407 1.712 1.408z" fill="#CF4044"/></svg>