<svg width="48" height="48" viewBox="0 0 48 48" fill="none" xmlns="http://www.w3.org/2000/svg"><g clip-path="url(#clip0_42705_335540)" fill-rule="evenodd" clip-rule="evenodd"><path d="M16.43 18.72H.023v-4.712H16.43v4.712zM1.049 17.695h14.356v-2.659H1.049v2.659z" fill="#00B188"/><path d="M1.049 26.512H.023v-4.713H1.05v1.863h1.834v-1.863h1.025v4.713H2.883v-1.954H1.049v1.954zm5.198.062c-1.041 0-1.75-.655-1.75-1.734 0-1.047.693-1.771 1.615-1.771 1.003 0 1.499.671 1.499 1.674v.377H5.469c.123.52.53.655.938.655.354 0 .608-.075.925-.273h.037v.777c-.27.198-.655.295-1.122.295zm-.778-2.141h1.223c-.022-.348-.166-.59-.567-.59-.301 0-.565.129-.656.59zm4.813.103l-.527 1.976h-.9L7.83 23.198v-.041h.981l.558 1.984.527-1.984h.8l.536 1.984.564-1.984h.944v.04l-1.025 3.315h-.897l-.536-1.976zm4.107 2.029c-.812 0-1.144-.323-1.144-1.085v-3.703h.994v3.634c0 .235.09.317.288.317a.777.777 0 00.226-.044h.015v.821a1.25 1.25 0 01-.379.06zm2.417.01c-1.04 0-1.75-.656-1.75-1.735 0-1.047.694-1.771 1.612-1.771 1.004 0 1.502.671 1.502 1.674v.377h-2.141c.119.52.526.655.934.655.354 0 .611-.075.928-.273h.038v.777c-.27.198-.656.295-1.123.295zm-.777-2.142h1.222c-.025-.348-.166-.59-.567-.59-.301 0-.564.129-.655.59zm6.242-1.276h.74v.8h-.74v1.366c0 .292.113.43.414.43.084 0 .188-.01.3-.047h.026v.784a1.756 1.756 0 01-.612.097c-.809 0-1.125-.367-1.125-1.22v-1.41H20v1.366c0 .292.113.43.414.43a.95.95 0 00.3-.047h.026v.784a1.756 1.756 0 01-.611.097c-.81 0-1.126-.367-1.126-1.22v-1.41h-.511v-.8h.511v-.919H20v.919h1.273v-.919h.997v.919zm5.894.22c0 1.024-.687 1.583-1.727 1.583h-.734v1.53h-1.025v-4.713h1.759c1.04 0 1.727.558 1.727 1.6zm-1.812.717c.52 0 .771-.294.771-.718 0-.436-.25-.73-.771-.73h-.65v1.448h.65zm4.038 2.076c-.22.263-.545.392-.89.392-.656 0-1.192-.399-1.192-1.11 0-.655.536-1.091 1.304-1.091.24 0 .49.037.747.113v-.06c0-.364-.204-.52-.74-.52a1.89 1.89 0 00-.94.257h-.038v-.8c.253-.15.708-.279 1.15-.279 1.013 0 1.561.483 1.561 1.326v2.104h-.962v-.332zm-.031-.725v-.288c-.15-.081-.348-.113-.552-.113-.323 0-.52.122-.52.392 0 .28.197.401.492.401.279 0 .489-.144.58-.392zm1.483-.623c0-1.079.762-1.76 1.755-1.76.355 0 .687.076.938.258v.853h-.041a1.238 1.238 0 00-.768-.264c-.499 0-.875.339-.875.913 0 .57.376.903.875.903.295 0 .552-.098.768-.264h.04v.853c-.25.179-.582.257-.937.257-.993 0-1.755-.67-1.755-1.75zm4.317.153V26.5h-.997v-4.712h.997v2.684l1.003-1.327h1.132v.038l-1.207 1.52 1.207 1.76v.037h-1.141l-.994-1.524zm4.399 1.195c-.22.263-.543.392-.89.392-.656 0-1.192-.402-1.192-1.11 0-.655.536-1.091 1.304-1.091.242 0 .491.037.746.113v-.063c0-.36-.2-.517-.737-.517-.338 0-.664.097-.943.254h-.038v-.8c.257-.15.709-.279 1.154-.279 1.012 0 1.561.483 1.561 1.33v2.1h-.965v-.33zm-.032-.721v-.289a1.17 1.17 0 00-.549-.113c-.322 0-.52.123-.52.392 0 .28.198.402.49.402.278 0 .491-.145.58-.392zm2.68-1.769c.183-.37.446-.583.816-.583a.77.77 0 01.323.063v.95h-.038a1.1 1.1 0 00-.436-.075c-.31 0-.551.178-.636.526v1.929h-.994v-3.355h.966v.545zm3.8 2.48c-.21.273-.542.424-.993.424-.86 0-1.411-.784-1.411-1.75 0-.965.552-1.756 1.41-1.756.437 0 .753.135.966.383v-1.665h.994v4.71h-.965v-.346zm-.028-.79v-1.078a.74.74 0 00-.633-.348c-.439 0-.733.316-.733.89 0 .574.294.881.733.881a.736.736 0 00.633-.345zM.033 28.048h2.912v.574H.691v1.439h2.041v.558H.692v1.567h2.253v.574H.033v-4.712zm5.308 1.326c.746 0 1.16.489 1.16 1.295v2.091h-.627v-2.075c0-.43-.217-.737-.693-.737a.87.87 0 00-.837.602v2.21H3.72v-3.317h.624v.483c.197-.31.53-.552.997-.552zm2.834.053h.853v.533h-.853v1.787c0 .377.194.505.549.505.1 0 .203-.013.279-.044h.025v.536a1.03 1.03 0 01-.392.066c-.778 0-1.088-.354-1.088-1.003V29.96h-.574v-.533h.574v-.884h.627v.884zm2.887 3.405c-.975 0-1.636-.649-1.636-1.69 0-1.04.618-1.762 1.514-1.762.913 0 1.39.655 1.39 1.627v.286h-2.28c.069.67.498.997 1.094.997.37 0 .633-.085.928-.304h.022v.551c-.27.21-.627.295-1.031.295zm-.99-2.05h1.652c-.022-.493-.263-.869-.777-.869-.474 0-.784.354-.875.869zm3.643-.834a.876.876 0 01.821-.565c.145 0 .273.022.323.054v.617h-.022a.986.986 0 00-.392-.069c-.338 0-.623.226-.73.605v2.164h-.627v-3.317h.627v.51zm3.251-.57c.988 0 1.517.805 1.517 1.723 0 .922-.53 1.728-1.517 1.728-.408 0-.752-.21-.928-.439v1.646h-.624v-4.59h.624v.376c.176-.235.52-.445.928-.445zm-.103 2.887c.617 0 .978-.493.978-1.164 0-.661-.36-1.16-.978-1.16a.939.939 0 00-.825.527v1.276c.166.323.483.52.825.52zm2.99-2.317a.87.87 0 01.822-.565c.141 0 .27.022.323.054v.617h-.022a.986.986 0 00-.392-.069c-.338 0-.627.226-.73.605v2.164h-.627v-3.317h.627v.51zm2.054-1.063a.394.394 0 01-.401-.392c0-.216.179-.392.401-.392.22 0 .398.176.398.392 0 .22-.178.392-.398.392zm-.313.555h.627v3.317h-.627V29.44zm2.862 1.367c.474.15 1.003.348 1.003.981 0 .677-.558 1.025-1.276 1.025-.436 0-.874-.106-1.122-.3v-.596h.028c.282.257.696.37 1.088.37.354 0 .671-.138.671-.424 0-.294-.263-.36-.784-.536-.467-.15-.987-.323-.987-.95 0-.64.526-1.016 1.197-1.016.392 0 .74.082 1.02.27v.605h-.023a1.51 1.51 0 00-.981-.348c-.392 0-.611.173-.611.408 0 .263.241.338.777.51zm3.173 2.025c-.975 0-1.637-.649-1.637-1.687 0-1.04.618-1.765 1.515-1.765.912 0 1.388.655 1.388 1.627v.289h-2.279c.07.67.499.994 1.094.994.37 0 .634-.082.928-.301h.022v.548c-.27.214-.623.295-1.031.295zm-.988-2.05h1.65c-.023-.49-.264-.866-.775-.866-.476 0-.787.355-.875.866z" fill="#7B8FA5"/></g><defs><clipPath id="clip0_42705_335540"><path fill="#fff" transform="translate(0 14)" d="M0 0h48v20.034H0z"/></clipPath></defs></svg>