<svg data-name="fc3b6c64-8cff-4148-a72b-4151f6d69c80" xmlns="http://www.w3.org/2000/svg" viewBox="0 0 512 512"><path d="M283.756 355.973h69.34v-13.67h-69.34v13.67zm144.84-93.51h-67.85l5.08 13.64h57.89l4.88-13.64zm-75.5 53.22h-69.34v13.67h69.34v-13.67zm-42.16-12.92h42.15v-13.66h-42.15v13.66zm108.08-13.66h-48.74l4.94 13.68h38.8l5-13.68zm-147.13 26.6h-154.76v13.67h149.78c3.11-3.17 4.96-13.69 4.96-13.69l.02.02zm81.22-53.22h-42.17v13.62h42.15l.02-13.62zm18.37-79.82h-88.46v13.67h93.09l-4.63-13.67zm-60.54 40.24h74.72l-5-13.67h-69.72v13.67zm51-66.88h-78.92v13.67h83.89l-4.97-13.67zm73.9 146.74h42.13v-13.66h-42.17l.04 13.66zm70.15 39.54h-70.1v13.67h70.1v-13.67zm0-26.62h-70.1v13.67h70.1v-13.67zm-388.86 40.29h105.69c18.76 0 32.92-13.67 32.92-13.67h-138.61v13.67zm388-199.95h-78.11l-5 13.67h83.13l-.02-13.67zm-27.17 106.44h-42.14v13.64h42.14v-13.64zm0-53.23h-70.07l-5 13.67h75.07v-13.67zm27.21-26.59h-88.1l-4.61 13.67h92.71v-13.67zm-95.66 133h-29.59l5.1 13.71h19.75l4.74-13.71zm-98.57-66.16h42.15v-7.61l2.68 7.61h77.15l2.87-7.61v7.61h42.13v-13.63h-79.1l-4.13 11.59-4.22-11.59h-79.53v13.63zm84.33 106.45l5-13.67h-10.73l4.89 13.67h.84zm-128.36-173.29h-149.8v13.67h154.76s-1.85-10.53-4.96-13.67zm-163.59 0h-97.3v13.67h97.3v-13.67zm-69.3 93.46h42.11v-13.64h-42.11v13.64zm0 26.63h42.11v-13.63h-42.11v13.63zm69.3-146.71h-97.3v13.67h97.3v-13.67zm41.75 53.21v13.67h42.15v-13.67h-42.15zm125.28 79.87h-42.14v13.68h44.81c0-6.48-2.67-13.68-2.67-13.68zm-194.22-79.87h-42.11v13.67h42.11v-13.67zm68.94 93.53h42.15v-13.66h-42.15v13.66zm0-53.24h107.65s9-7 11.86-13.67h-119.51v13.67zm0 26.61h119.51c-2.87-6.64-11.86-13.67-11.86-13.67h-107.65v13.67zm83.14-66.9v13.67h42.14s2.67-7.23 2.67-13.67h-44.81zm-194.19 40.29h42.11v-13.67h-42.11v13.67zm-27.24 106.45h97.31v-13.67H6.776v13.67zm97.31-40.29H6.776v13.67h97.31v-13.67zm118.78-159.66h-105.76v13.67h138.68s-14.17-13.67-32.92-13.67z" fill="#3E8EDE"/></svg>