<svg width="48" height="48" viewBox="0 0 48 48" fill="none" xmlns="http://www.w3.org/2000/svg"><path d="M4 37.86h1.497l3.46 4.59v-4.59h1.606v7.42H9.184l-3.578-4.683v4.683H4v-7.42zm11.328 4.157c-.093-.712-.516-1.198-1.187-1.198-.666 0-1.1.475-1.229 1.198h2.416zm-3.986.475v-.02c0-1.611 1.152-2.933 2.799-2.933 1.884 0 2.752 1.461 2.752 3.056 0 .13-.01.274-.02.424h-3.935c.16.723.66 1.105 1.378 1.105.542 0 .93-.17 1.374-.579l.914.811c-.522.65-1.286 1.048-2.308 1.048-1.699 0-2.954-1.187-2.954-2.912zm6.553 1.187V41.01h-.677v-1.368h.677v-1.44h1.6v1.44h1.332v1.368h-1.332v2.406c0 .372.16.547.517.547.3 0 .563-.072.795-.196v1.28c-.34.202-.733.326-1.27.326-.976 0-1.642-.387-1.642-1.694zm15.691-1.207v-.02c0-.935-.635-1.56-1.384-1.56-.748 0-1.368.625-1.368 1.56v.02c0 .934.62 1.56 1.368 1.56.749 0 1.384-.615 1.384-1.56zm-4.337-2.83h1.606v.811c.387-.527.924-.914 1.76-.914 1.317 0 2.572 1.027 2.572 2.912v.02c0 1.885-1.234 2.913-2.572 2.913-.857 0-1.383-.387-1.76-.837v2.417h-1.606v-7.322zm10.93 2.83v-.02c0-.935-.635-1.56-1.384-1.56-.748 0-1.373.625-1.373 1.56v.02c0 .934.625 1.56 1.373 1.56.75 0 1.384-.615 1.384-1.56zm-4.337-2.83h1.606v.811c.387-.527.924-.914 1.76-.914 1.317 0 2.572 1.027 2.572 2.912v.02c0 1.885-1.234 2.913-2.571 2.913-.858 0-1.384-.387-1.761-.837v2.417h-1.606v-7.322zm-9.851 2.556l-.982-2.39-.98 2.39h1.962zm-1.689-4.337h1.461l3.083 7.42h-1.689l-.681-1.653h-2.928l-.676 1.652h-1.657l3.087-7.42z" fill="#3279BE"/><path d="M5.195 1.036V32.3h14.628V13.542h8.36V32.3H42.81V1.036H5.195z" fill="#0067C5"/><path d="M44.003 40.901h-.191v-1.053h-.006l-.371 1.053h-.12l-.37-1.053h-.006v1.053h-.191v-1.26h.294l.336.956.335-.955h.29v1.26zm-1.482-1.094h-.357V40.9h-.19v-1.094h-.357v-.165h.904v.165z" fill="#211E1E"/></svg>