<svg width="512" height="512" viewBox="0 0 512 512" fill="none" xmlns="http://www.w3.org/2000/svg"><path d="M226.288 85.335c-6.413.552-23.743 4.39-23.743 4.39-39.062 9.827-48.301 44.325-48.301 44.325-1.908 5.801-2.774 11.746-3.029 17.347v7.624c.518 11.778 3.21 20.573 3.21 20.573 13.048 56.307 77.202 148.828 90.99 168.264.978.944 1.761.603 1.761.603 1.489-.4 1.372-1.789 1.372-1.789l.028.007c21.237-206.586-22.288-261.344-22.288-261.344zm70.171 0s-43.715 54.787-22.462 261.493h.029c.164 1.312 1.121 1.585 1.121 1.585 1.422.536 2.151-.793 2.151-.793l.007.013c14.142-19.932 77.93-111.949 90.921-168.04 0 0 7.043-27.149.244-45.544 0 0-9.657-35.033-48.768-44.29 0 0-11.272-2.784-23.243-4.424zM94.823 147.352s-37.218 34.379-39.068 70.826h.015v5.523c.028.416.05.837.077 1.26 1.603 29.39 24.32 46.784 24.32 46.784 36.604 34.719 125.234 78.553 145.83 88.499.288.105 1.352.444 1.977-.325 0 0 .325-.24.474-.671v-.915c-.015-.053-.043-.105-.07-.163C171.977 238.258 94.823 147.352 94.823 147.352zm333.011 0s-76.927 90.621-133.303 210.29l.021-.006s-.666 1.387.411 2.283c0 0 .321.236.766.332h.78c.14-.039.29-.092.438-.19 21.155-10.218 109.099-53.751 145.53-88.31 0 0 23.071-18.031 24.279-46.98 2.664-40.209-38.922-77.419-38.922-77.419zm69.238 119.047S371.658 331.9 306.813 374.468l.022.02s-1.177.75-.766 2.094c0 0 .615 1.085 1.511 1.085 23.226.039 111.116.142 113.32-.258 0 0 11.364-.442 25.407-5.692 0 0 31.262-9.673 47.5-44.216 0 0 7.42-14.444 7.527-34.736v-.86c-.054-7.825-1.188-16.488-4.262-25.506zm-471.522.305c-11.41 34.379 3.951 62.081 3.976 62.126 16.01 32.92 46.568 42.894 46.568 42.894 14.108 5.641 28.22 6.031 28.22 6.031 2.203.393 87.751.04 110.674-.065.97-.007 1.504-.956 1.504-.956a1.23 1.23 0 00.153-.306v-.86c-.19-.576-.697-.982-.697-.982l.015-.007C151.151 332.025 25.55 266.704 25.55 266.704zm186.82 121.555l-147.534 5.035c16 27.757 42.944 49.33 71.013 42.704 19.371-4.713 63.253-34.502 77.74-44.568l-.049-.039c1.127-.985.725-1.776.725-1.776-.371-1.289-1.894-1.287-1.894-1.287l-.001-.069zm97.717.105l-.015.052s-1.296.16-1.657 1.104c0 0-.315 1.291.557 1.931l-.015.013c14.125 9.858 56.944 38.993 77.572 44.65 0 0 3.125 1.035 8.363 1.219h3.147c13.821-.472 37.897-7.381 59.776-43.965l-147.728-5.004z" fill="#CF0A2C"/></svg>