<svg width="48" height="48" viewBox="0 0 48 48" fill="none" xmlns="http://www.w3.org/2000/svg"><path d="M33.228 8.028v-.025h-.992c-.037 0-.07-.003-.107-.003l-19.906.003C5.405 8.003 2 10.753 2 16.251v15.14c0 5.463 3.406 8.197 10.223 8.197h19.932v-.01c6.793-.008 10.192-2.737 10.192-8.187v-15.14c0-5.2-3.041-7.938-9.119-8.223zm-2.181 23.875H14.515V15.515h16.532v16.388z" fill="#27387D"/><path d="M21.059 27.678s12.554 7.211 15.17 12.931h9.77c-.81-1.92-5.467-10.464-24.94-12.931z" fill="#EC2727" stroke="#fff" stroke-width=".103"/></svg>