<svg width="48" height="48" viewBox="0 0 48 48" fill="none" xmlns="http://www.w3.org/2000/svg"><path d="M3.863 19.906a6.244 6.244 0 018.983 0c2.173 2.225 2.438 5.675.798 8.195l-2.462-2.52a3.11 3.11 0 00-.688-3.246 2.964 2.964 0 00-4.258 0 3.134 3.134 0 000 4.358 2.971 2.971 0 003.172.703l2.461 2.52a6.25 6.25 0 01-8.006-.817c-2.483-2.543-2.483-6.65 0-9.193zm15.303-1.59c.776 0 1.575.136 2.35.409.799.295 1.487.681 2.063 1.18l-1.331 1.975c-1.02-.794-2.084-1.18-3.17-1.18-.444 0-.799.114-1.043.318-.244.204-.377.5-.377.84 0 .362.155.635.465.84.288.203 1.021.453 2.13.726 1.108.295 1.974.703 2.595 1.27.598.568.908 1.385.953 2.451 0 1.09-.4 1.953-1.197 2.633-.799.658-1.841 1-3.127 1-1.863 0-3.549-.705-5.035-2.112l1.575-1.975c1.264 1.135 2.44 1.704 3.526 1.704.488 0 .865-.115 1.13-.319.289-.204.423-.5.423-.862 0-.363-.156-.658-.445-.862-.288-.205-.864-.41-1.73-.636-1.374-.318-2.373-.75-3.016-1.294-.643-.545-.953-1.385-.953-2.52 0-1.157.4-2.042 1.197-2.655.82-.613 1.82-.93 3.017-.93zm15.988 10.375V18.5h2.462l5.767 7.763V18.5h2.616v12.075h-2.616l-5.611-7.558v7.536h-4.635l-1.087-2.61h-4.945l-1.087 2.61h-2.794L28.302 18.5h2.55l4.302 10.191zm-7.052-3.086h2.95l-1.464-3.496-1.486 3.495z" fill="#84E048"/></svg>