<svg data-name="Layer 1" xmlns="http://www.w3.org/2000/svg" width="48" height="48" viewBox="0 0 48 48"><path d="M20.54 2.69c-9.48 0-19.07 2.53-19.07 7.36v27.33c0 1.6 1.07 3.86 6.17 5.56 2.87.96 6.64 1.58 10.62 1.75h.06c.8 0 1.46-.63 1.5-1.44.04-.83-.61-1.53-1.44-1.56-3.71-.16-7.19-.72-9.8-1.59-3.02-1.01-4.12-2.18-4.12-2.72v-5.45c.83.49 1.87.96 3.17 1.39 2.87.96 6.64 1.58 10.62 1.75.83.05 1.53-.61 1.56-1.44.04-.83-.61-1.53-1.44-1.56-3.71-.16-7.19-.72-9.8-1.59-3.02-1.01-4.12-2.18-4.12-2.72v-4.37c.83.49 1.87.96 3.17 1.39 3.47 1.16 8.05 1.79 12.9 1.79s9.43-.64 12.9-1.79c1.3-.43 2.34-.91 3.17-1.39v1.14c0 .83.67 1.5 1.5 1.5s1.5-.67 1.5-1.5V10.05c0-4.83-9.59-7.36-19.07-7.36zm16.07 16.53c0 .54-1.1 1.71-4.12 2.72-3.12 1.04-7.48 1.64-11.95 1.64s-8.83-.6-11.95-1.64c-3.02-1.01-4.12-2.18-4.12-2.72V14.2c7.15 4.23 24.99 4.23 32.14 0v5.02zM20.54 14.4c-10.4 0-16.07-2.88-16.07-4.36s5.67-4.36 16.07-4.36 16.07 2.88 16.07 4.36-5.67 4.36-16.07 4.36z" fill="#f58520"/><path d="M46.53 31.1c0-2.1-1.71-3.8-3.8-3.8H25.06c-2.1 0-3.8 1.71-3.8 3.8V34c0 .87.3 1.66.8 2.3-.49.64-.8 1.43-.8 2.3v2.9c0 2.1 1.71 3.8 3.8 3.8h17.67c2.1 0 3.8-1.71 3.8-3.8v-2.9c0-.87-.3-1.66-.8-2.3.49-.64.8-1.43.8-2.3v-2.9zm-3 10.41c0 .44-.36.8-.8.8H25.06c-.44 0-.8-.36-.8-.8v-2.9c0-.44.36-.8.8-.8h17.67c.44 0 .8.36.8.8v2.9zm0-7.51c0 .44-.36.8-.8.8H25.06c-.44 0-.8-.36-.8-.8v-2.9c0-.44.36-.8.8-.8h17.67c.44 0 .8.36.8.8V34z" fill="#0b9cd8"/></svg>