<svg data-name="Layer 1" xmlns="http://www.w3.org/2000/svg" width="512" height="512" viewBox="0 0 512 512"><defs><clipPath id="a"><path fill="none" d="M16 16h480v480H16z"/></clipPath></defs><g clip-path="url(#a)"><path d="M256 496c132.55 0 240-107.45 240-240S388.55 16 256 16 16 123.45 16 256s107.45 240 240 240z" fill="#364658"/><path d="M288.83 208.55l-13.71 5.71.86 1.81a9.61 9.61 0 013.28-.83c.71-.01 1.41.24 1.95.71.51.43.9 1.25 1.11 2.47.21 1.22.34 4.48.34 9.78v42.22c0 2.92-.2 4.87-.65 5.88-.36.91-1 1.68-1.82 2.19-.82.47-2.27.69-4.42.69v1.88h22.86v-1.88c-2.38 0-4.03-.26-4.94-.74a4.476 4.476 0 01-1.95-2.19c-.4-.94-.62-2.89-.62-5.84v-61.88h-2.29zm-180.91 5.24c-5.1 0-9.38.77-12.97 2.27a17.984 17.984 0 00-8.24 6.73 16.635 16.635 0 00-2.85 9.44c0 5.22 2.02 9.68 6.07 13.34 2.84 2.58 7.82 4.77 14.94 6.51 5.53 1.41 9.06 2.34 10.62 2.95 1.81.5 3.46 1.47 4.79 2.81a6.07 6.07 0 011.36 4c0 2.39-1.08 4.49-3.24 6.33-2.16 1.84-5.4 2.71-9.69 2.71-4.04 0-7.26-1.01-9.65-3.04-2.38-2.02-3.94-5.22-4.75-9.52l-12.9 1.22c.87 7.41 3.52 13.05 7.97 16.92 4.45 3.87 10.85 5.81 19.22 5.84 5.73 0 10.49-.83 14.35-2.41a19.51 19.51 0 008.77-7.19 19.41 19.41 0 003.28-10.85c.12-3.69-.8-7.35-2.64-10.56-1.77-2.87-4.29-5.2-7.29-6.74-3.09-1.65-7.84-3.24-14.31-4.79-6.46-1.55-10.54-2.98-12.19-4.42a5.07 5.07 0 01-1.47-1.81c-.34-.71-.51-1.49-.5-2.27.01-.79.21-1.56.58-2.26.37-.7.89-1.3 1.53-1.75 2.16-1.62 5.18-2.41 9.04-2.41s6.51.75 8.37 2.24c1.86 1.48 3.07 3.95 3.66 7.27l13.34-.43c-.2-6.09-2.38-10.96-6.56-14.65-4.19-3.69-10.4-5.48-18.66-5.48h.03zM210 232.21c-6.33 0-11.61 2.63-15.79 7.93v-7.03h-11.64v47.94h12.56v-21.62c0-5.37.34-9 .97-11.01.63-1.94 1.91-3.6 3.61-4.72 1.75-1.21 3.82-1.84 5.94-1.82 1.57-.04 3.12.4 4.43 1.26 1.24.86 2.16 2.1 2.63 3.53.57 1.53.83 4.85.83 9.97v24.4h12.6v-29.69c.07-2.85-.17-5.69-.71-8.49a14.26 14.26 0 00-2.47-5.29c-1.39-1.72-3.2-3.05-5.26-3.86a19.747 19.747 0 00-7.7-1.5zm40.9 0c-4.44-.07-8.83 1-12.75 3.09a21.397 21.397 0 00-8.81 9.04c-2.03 3.76-3.1 7.97-3.12 12.24 0 5.49 1.05 10.14 3.12 13.95a20.23 20.23 0 009.07 8.74c3.89 1.97 8.2 3 12.56 2.99 7.1 0 12.98-2.41 17.66-7.14 4.68-4.73 7.03-10.78 7.03-18.01s-2.32-13.12-6.96-17.84c-4.65-4.72-10.54-7.03-17.81-7.03v-.03zm112.9.77c-5.42 0-9.88 1.67-13.35 4.98a16.176 16.176 0 00-2.92 20.13c1.58 2.53 3.84 4.56 6.53 5.86-3.44 2.89-5.65 5.16-6.62 6.79a8.586 8.586 0 00-1.41 4.18c0 1.05.39 2.06 1.1 2.84.71.86 1.96 1.79 3.7 2.89a146.36 146.36 0 00-5.08 5.48c-1.74 2.24-2.93 3.91-3.49 5.19-.33.76-.51 1.59-.53 2.42 0 1.88 1.25 3.58 3.8 5.29 4.49 2.93 10.02 4.38 16.53 4.38 8.49 0 15.36-2.46 20.62-7.36 3.58-3.33 5.4-6.95 5.4-10.71a9.471 9.471 0 00-2.81-6.94c-2.07-1.97-4.72-3.2-7.56-3.5-4.5-.51-9.02-.78-13.55-.82-2.37 0-4.74-.15-7.1-.42-1.62-.23-2.73-.62-3.28-1.16-.26-.21-.47-.48-.62-.77-.15-.3-.23-.62-.25-.96.07-.87.33-1.71.77-2.46.76-1.29 1.73-2.45 2.87-3.42 2.29.72 4.68 1.08 7.08 1.08 5.56 0 10-1.55 13.34-4.65a14.705 14.705 0 004.98-11.14c0-3.81-.96-6.95-2.89-9.41h6.09c1.49 0 2.31-.03 2.58-.16.11-.03.21-.07.31-.14.09-.07.17-.15.23-.25.22-.6.32-1.24.28-1.88.04-.56-.07-1.12-.31-1.62-.13-.19-.3-.34-.51-.43-.85-.13-1.71-.17-2.56-.12h-9.84a20.134 20.134 0 00-11.51-3.24l-.02.04zm-42.48 0c-3.87 0-7.68 1.03-11.02 2.99-3.67 2.25-6.6 5.52-8.44 9.41-2.05 3.93-3.13 8.3-3.16 12.73-.04 5.73 1.8 11.32 5.24 15.89 1.9 2.67 4.43 4.84 7.36 6.3 2.94 1.46 6.19 2.18 9.46 2.08 4.14.05 8.2-1.08 11.72-3.26 3.55-2.16 6.31-5.4 8.33-9.68 1.93-3.94 2.95-8.27 3-12.66.07-5.73-1.86-11.31-5.47-15.77-2-2.6-4.59-4.68-7.56-6.08-2.96-1.4-6.22-2.08-9.5-1.98h.02zm-188.01.14l18.12 48.05a18.29 18.29 0 01-3.23 6.65c-1.41 1.73-3.55 2.58-6.47 2.58a25.59 25.59 0 01-5.31-.62l1.04 9.96c2.35.51 4.75.77 7.15.78 2.18.01 4.34-.25 6.45-.8 1.7-.44 3.32-1.16 4.79-2.13 1.37-.97 2.55-2.2 3.46-3.61 1.28-2.01 2.34-4.15 3.16-6.39l3.08-8.4 16.74-46.07h-13.04l-11.14 34.02-11.42-34.02h-13.38zm256.68 1.21v1.88c1.33.27 2.6.74 3.78 1.41.79.72 1.5 1.54 2.1 2.42.92 1.25 1.73 2.56 2.44 3.94l16.79 35.11-3.28 8.12c-1.22 2.99-2.44 5.03-3.64 6.07-1.2 1.04-2.32 1.6-3.35 1.6-.88-.17-1.75-.43-2.58-.77-1.47-.62-3.04-.98-4.63-1.08-1.62 0-2.93.38-3.86 1.3-.46.43-.83.96-1.07 1.54-.24.59-.36 1.22-.33 1.85 0 .76.19 1.52.53 2.2.34.69.82 1.29 1.42 1.76a7.013 7.013 0 004.97 1.73c2.78 0 5.65-1.11 8.64-3.44 3-2.33 5.4-5.71 7.24-10.25l18.92-46.52c.47-1.35 1.05-2.67 1.74-3.92.6-.89 1.36-1.65 2.24-2.25.9-.47 1.89-.75 2.9-.82v-1.88h-15.11v1.88c1.03-.05 2.06.07 3.04.36.51.16.95.47 1.28.88.26.4.38.87.36 1.34-.01 1.44-.3 2.86-.86 4.18l-10.42 25.78-11.38-23.61c-1.14-2.32-1.7-4.13-1.7-5.49 0-.47.1-.94.3-1.36.2-.43.49-.81.84-1.11a5.343 5.343 0 013.46-.97h1.05v-1.88h-21.83zm-27.06 1.23c2.7 0 4.87 1.14 6.64 3.35 2.32 3.02 3.46 7.19 3.46 12.58 0 4.09-.82 7.1-2.47 9.01-.77.93-1.74 1.68-2.83 2.18-1.1.5-2.29.75-3.5.72-1.29 0-2.57-.29-3.72-.87a8.182 8.182 0 01-2.92-2.47c-2.3-2.93-3.44-7.07-3.44-12.38 0-4.13.83-7.12 2.52-9.11a7.955 7.955 0 016.26-3.04v.02zm-43.17.83c3.75 0 6.79 1.57 9.23 4.81 3.55 4.75 5.34 11.22 5.34 19.49 0 6.62-1.08 11.25-3.23 13.97a9.952 9.952 0 01-8.15 4.07c-4.42 0-7.97-2.48-10.66-7.36-2.69-4.88-4.06-10.73-4.06-17.52 0-4.22.57-7.61 1.7-10.31a11.26 11.26 0 014.4-5.57c1.63-1.02 3.51-1.57 5.43-1.58zm-68.9 6.1c1.59-.02 3.17.31 4.61.97 1.45.66 2.73 1.63 3.77 2.84 2.22 2.5 3.33 6.13 3.33 10.85s-1.11 8.49-3.33 10.99a11.12 11.12 0 01-3.77 2.82 11.075 11.075 0 01-12.97-2.82c-2.27-2.48-3.39-6.14-3.39-10.93s1.13-8.41 3.39-10.91c1.03-1.21 2.31-2.17 3.76-2.83 1.45-.66 3.02-.99 4.6-.98zm102.78 38.55c4.09.56 9.99 1 17.63 1.23 5.25.11 8.74.52 10.5 1.28 1.76.75 2.63 2.01 2.63 3.72 0 2.42-1.45 4.69-4.35 6.82-2.93 2.13-7.41 3.21-13.49 3.21-6.39 0-11.3-1.08-14.68-3.15-1.97-1.2-2.93-2.59-2.93-4.27a8.2 8.2 0 011.17-4.01c.96-1.76 2.14-3.38 3.52-4.83h.01z" fill="#fff"/></g></svg>