<svg xmlns="http://www.w3.org/2000/svg" viewBox="0 0 48 48"><path fill="currentColor" d="M19.83,20.92c-.71-.71-1.86-.71-2.57,0-.71,.71-.71,1.86,0,2.57l5.46,5.46c.34,.34,.8,.53,1.29,.53s.95-.19,1.29-.53L43.47,10.74c.71-.71,.71-1.86,0-2.57-.71-.71-1.86-.71-2.57,0L24,25.09l-4.17-4.17Zm22.36-.4c-1.01,0-1.82,.81-1.82,1.82v1.67c0,3.51-1.16,6.98-3.26,9.79-2.1,2.81-5.11,4.9-8.47,5.9-3.36,1-7.02,.87-10.31-.34-3.29-1.21-6.15-3.5-8.06-6.44-1.91-2.94-2.83-6.49-2.6-9.99,.23-3.5,1.61-6.89,3.89-9.56,2.28-2.67,5.42-4.56,8.84-5.33,3.42-.77,7.07-.41,10.27,1.02,.92,.41,1.99,0,2.4-.92,.41-.92,0-1.99-.92-2.4-3.91-1.74-8.37-2.18-12.55-1.24-4.18,.94-8.02,3.26-10.8,6.52-2.78,3.26-4.47,7.41-4.76,11.68-.28,4.27,.85,8.61,3.18,12.2,2.33,3.6,5.83,6.39,9.85,7.88,2.22,.82,4.58,1.23,6.94,1.23,1.91,0,3.82-.27,5.66-.82,4.11-1.21,7.78-3.77,10.35-7.21,2.57-3.43,3.98-7.68,3.98-11.97v-1.67c0-1-.81-1.82-1.82-1.82Z"/></svg>