<svg xmlns="http://www.w3.org/2000/svg" viewBox="0 0 48 48"><path fill="currentColor" d="M32.3,17.6c-.4-.4-.9-.6-1.4-.6s-1,.2-1.4,.6l-8.6,8.6-3.3-3.3c-.2-.2-.4-.4-.6-.5-.2-.1-.5-.2-.8-.2-.3,0-.6,0-.8,.1-.3,.1-.5,.3-.7,.4-.2,.2-.3,.4-.4,.7-.1,.3-.1,.5-.1,.8,0,.3,0,.5,.2,.8,.1,.2,.3,.5,.5,.6l4.7,4.7c.2,.2,.4,.3,.7,.4,.2,0,.5,.2,.8,.1,.5,0,1-.2,1.4-.6l10-10c.2-.2,.3-.4,.4-.7,.1-.2,.2-.5,.2-.8s0-.5-.2-.8c-.1-.2-.3-.5-.4-.7Zm10.2-1.2c-1-2.4-2.5-4.6-4.3-6.5-1.9-1.9-4.1-3.3-6.5-4.3-2.4-1-5-1.5-7.7-1.5-4,0-7.8,1.2-11.1,3.4-3.3,2.2-5.9,5.3-7.4,9-1.5,3.7-1.9,7.7-1.1,11.6,.8,3.9,2.7,7.4,5.5,10.2,2.8,2.8,6.4,4.7,10.2,5.5,3.9,.8,7.9,.4,11.6-1.1,3.7-1.5,6.8-4.1,9-7.4,2.2-3.3,3.4-7.2,3.4-11.1s-.5-5.2-1.5-7.7Zm-7.2,19c-3,3-7.1,4.7-11.3,4.7s-6.3-.9-8.9-2.7c-2.6-1.8-4.7-4.3-5.9-7.2-1.2-2.9-1.5-6.1-.9-9.2,.6-3.1,2.1-6,4.4-8.2s5.1-3.8,8.2-4.4c3.1-.6,6.3-.3,9.2,.9,2.9,1.2,5.4,3.3,7.2,5.9,1.8,2.6,2.7,5.7,2.7,8.9s-1.7,8.3-4.7,11.3Z"/></svg>