<svg xmlns="http://www.w3.org/2000/svg" viewBox="0 0 48 48"><path fill="currentColor" d="M24 8C15.1634 8 8 15.1634 8 24C8 32.8366 15.1634 40 24 40C32.8366 40 40 32.8366 40 24C40 15.1634 32.8366 8 24 8ZM4 24C4 12.9543 12.9543 4 24 4C35.0457 4 44 12.9543 44 24C44 35.0457 35.0457 44 24 44C12.9543 44 4 35.0457 4 24Z M24 28C22.8954 28 22 27.1046 22 26L22 14C22 12.8954 22.8954 12 24 12C25.1046 12 26 12.8954 26 14L26 26C26 27.1046 25.1046 28 24 28Z M21 33C21 31.3431 22.3431 30 24 30C25.6569 30 27 31.3431 27 33C27 34.6569 25.6569 36 24 36C22.3431 36 21 34.6569 21 33Z"/></svg>