<svg xmlns="http://www.w3.org/2000/svg" viewBox="0 0 48 48"><path fill="currentColor" d="M24,8c-8.84,0-16,7.16-16,16s7.16,16,16,16,16-7.16,16-16-7.16-16-16-16ZM4,24C4,12.95,12.95,4,24,4s20,8.95,20,20-8.95,20-20,20S4,35.05,4,24ZM15.59,15.59c.78-.78,2.05-.78,2.83,0l5.59,5.59,5.59-5.59c.78-.78,2.05-.78,2.83,0,.78,.78,.78,2.05,0,2.83l-5.59,5.59,5.59,5.59c.78,.78,.78,2.05,0,2.83-.78,.78-2.05,.78-2.83,0l-5.59-5.59-5.59,5.59c-.78,.78-2.05,.78-2.83,0-.78-.78-.78-2.05,0-2.83l5.59-5.59-5.59-5.59c-.78-.78-.78-2.05,0-2.83Z"/></svg>