<svg xmlns="http://www.w3.org/2000/svg" viewBox="0 0 48 48"><path fill="currentColor" d="M24,32.1c-.4,0-.7,.1-1.2,.3-.3,.2-.6,.5-.7,.9-.1,.3-.2,.7-.1,1.2,0,.4,.3,.7,.5,1,.3,.3,.6,.4,1,.5,.4,0,.7,0,1.2-.1,.3-.1,.6-.4,.9-.7,.2-.3,.3-.7,.3-1.2s-.2-1-.6-1.4c-.4-.4-.8-.6-1.4-.6Zm21.3,2.9L29.1,7.1c-.5-.9-1.3-1.7-2.2-2.2s-2-.8-3-.8-2.1,.3-3,.8-1.7,1.4-2.2,2.2L2.8,34.9c-.5,.9-.8,1.9-.8,2.9s.2,2.1,.7,3c.5,.9,1.3,1.7,2.2,2.2s1.9,.8,2.9,.8H39.9c1,0,2.1-.2,3-.7s1.7-1.3,2.2-2.2c.5-.9,.8-2,.8-3s-.3-2.1-.8-3h.1Zm-3.5,4.1h0c-.2,.3-.4,.5-.7,.7s-.6,.3-1,.3H8c-.3,0-.7,0-1-.3-.3-.2-.5-.4-.7-.7s-.3-.6-.3-.9,0-.7,.3-.9L22.1,9.1c.2-.3,.4-.6,.7-.8,.3-.2,.6-.3,1-.3s.7,0,1,.3c.3,.2,.5,.4,.7,.8l16,27.9c.2,.3,.3,.6,.3,1s0,.7-.2,1h0ZM24,16.1c-.5,0-1,.2-1.4,.6-.4,.4-.6,.8-.6,1.4v8c0,.5,.2,1,.6,1.4,.4,.4,.8,.6,1.4,.6s1-.2,1.4-.6c.4-.4,.6-.8,.6-1.4v-8c0-.5-.2-1-.6-1.4-.4-.4-.8-.6-1.4-.6Z"/></svg>