<svg xmlns="http://www.w3.org/2000/svg" viewBox="0 0 48 48"><path fill="currentColor" d="M25.4,30.6c-.2-.2-.4-.3-.7-.4-.2-.1-.5-.2-.8-.2s-.5,0-.8,.2c-.2,.1-.5,.3-.7,.4,0,0-.2,.2-.2,.3,0,.1-.1,.2-.2,.4,0,.1,0,.2-.1,.4,0,.1,0,.3,0,.4,0,.3,0,.5,.2,.8,0,.2,.2,.5,.4,.7s.4,.3,.7,.4c.2,.1,.5,.2,.8,.2s.5,0,.8-.2c.2,0,.5-.2,.7-.4,.2-.2,.3-.4,.4-.7,0-.2,.1-.5,.1-.8,0-.3,0-.5-.1-.8,0-.2-.2-.5-.4-.7Zm2.4-15.2c-1.1-.9-2.4-1.4-3.8-1.4-1.1,0-2.1,.3-3,.8s-1.7,1.3-2.2,2.2c-.1,.2-.2,.5-.3,.7,0,.3,0,.5,0,.8,0,.3,.2,.5,.3,.7,.2,.2,.4,.4,.6,.5,.2,.1,.5,.2,.8,.3,.3,0,.5,0,.8,0,.3,0,.5-.2,.7-.4,.2-.2,.4-.4,.5-.6,.2-.3,.4-.6,.7-.7,.3-.2,.7-.3,1-.3,.5,0,1,.2,1.4,.6,.4,.4,.6,.9,.6,1.4s-.2,1-.6,1.4-.9,.6-1.4,.6-1,.2-1.4,.6-.6,.9-.6,1.4v2c0,.5,.2,1,.6,1.4s.9,.6,1.4,.6,1-.2,1.4-.6,.6-.9,.6-1.4v-.4c1.3-.5,2.4-1.4,3.1-2.6,.7-1.2,1-2.6,.7-4-.2-1.4-1-2.6-2-3.6Zm14.6,.9c-1-2.4-2.5-4.6-4.3-6.5s-4.1-3.3-6.5-4.3c-2.4-1-5-1.5-7.7-1.5-4,0-7.8,1.2-11.1,3.4-3.3,2.2-5.9,5.3-7.4,9-1.5,3.7-1.9,7.7-1.1,11.6,.8,3.9,2.7,7.4,5.5,10.2,2.8,2.8,6.4,4.7,10.2,5.5,3.9,.8,7.9,.4,11.6-1.1,3.7-1.5,6.8-4.1,9-7.4,2.2-3.3,3.4-7.2,3.4-11.1s-.5-5.2-1.5-7.7Zm-7.2,19c-3,3-7.1,4.7-11.3,4.7s-6.3-.9-8.9-2.7c-2.6-1.8-4.7-4.3-5.9-7.2-1.2-2.9-1.5-6.1-.9-9.2,.6-3.1,2.1-6,4.4-8.2s5.1-3.8,8.2-4.4c3.1-.6,6.3-.3,9.2,.9,2.9,1.2,5.4,3.3,7.2,5.9,1.8,2.6,2.7,5.7,2.7,8.9s-1.7,8.3-4.7,11.3Z"/></svg>