<svg xmlns="http://www.w3.org/2000/svg" viewBox="0 0 48 48"><path fill="currentColor" d="M24,22c-.6,0-1.1,.2-1.4,.6s-.6,.9-.6,1.4v8c0,.6,.2,1.1,.6,1.4s.9,.6,1.4,.6,1.1-.2,1.4-.6,.6-.9,.6-1.4v-8c0-.6-.2-1.1-.6-1.4s-.9-.6-1.4-.6Zm.8-7.8c-.5-.2-1.1-.2-1.5,0-.3,0-.5,.2-.7,.4s-.3,.4-.4,.7c0,.2-.2,.5-.2,.8s0,.6,.2,.8c0,.3,.3,.5,.5,.7s.4,.3,.7,.4c.3,0,.7,.2,1,0,.3,0,.7-.2,1-.3,.3-.2,.5-.4,.7-.8,.2-.3,.2-.6,.3-1,0-.6-.2-1.1-.6-1.4-.2-.2-.4-.3-.7-.4h-.2Zm17.8,2.3c-1.1-2.4-2.5-4.7-4.4-6.5-1.9-1.9-4.1-3.3-6.5-4.4s-5.1-1.5-7.6-1.5c-4,0-7.8,1.1-11.2,3.3s-5.8,5.3-7.4,9-1.9,7.7-1.1,11.6c.8,3.9,2.7,7.4,5.4,10.3,2.8,2.8,6.4,4.7,10.3,5.4,3.9,.8,7.9,.4,11.6-1.1,3.6-1.5,6.8-4.1,9-7.4,2.2-3.3,3.3-7.2,3.3-11.2s-.5-5.3-1.5-7.6h0Zm-7.2,19.1c-3.1,3.1-7.1,4.7-11.4,4.7s-6.3-1-8.9-2.7c-2.7-1.7-4.7-4.3-5.9-7.2-1.2-3-1.5-6.1-1-9.3,.6-3.2,2.1-6,4.4-8.2s5.1-3.7,8.2-4.4c3.2-.6,6.3-.3,9.3,1,3,1.2,5.4,3.2,7.2,5.9s2.7,5.7,2.7,8.9-1.7,8.3-4.7,11.4h0Z"/></svg>