<svg xmlns="http://www.w3.org/2000/svg" viewBox="0 0 48 48"><path fill="currentColor" d="M24,8.25c-4.18,0-8.18,1.66-11.13,4.61-2.95,2.95-4.61,6.96-4.61,11.14,0,1.24-1.01,2.25-2.25,2.25s-2.25-1.01-2.25-2.25c0-5.37,2.13-10.52,5.93-14.32,3.8-3.8,8.95-5.93,14.32-5.93h0c5.61.02,11,2.21,15.04,6.11l.03.03h0s.68.68.68.68v-4.57c0-1.24,1.01-2.25,2.25-2.25s2.25,1.01,2.25,2.25v10c0,1.24-1.01,2.25-2.25,2.25h-10c-1.24,0-2.25-1.01-2.25-2.25s1.01-2.25,2.25-2.25h4.57l-.67-.67c-3.2-3.08-7.46-4.82-11.91-4.83ZM42,21.75c1.24,0,2.25,1.01,2.25,2.25,0,5.37-2.13,10.52-5.93,14.32s-8.95,5.93-14.32,5.93h0c-5.61-.02-11-2.21-15.04-6.11l-.03-.03h0s-.68-.68-.68-.68v4.57c0,1.24-1.01,2.25-2.25,2.25s-2.25-1.01-2.25-2.25v-10c0-1.24,1.01-2.25,2.25-2.25h10c1.24,0,2.25,1.01,2.25,2.25s-1.01,2.25-2.25,2.25h-4.57l.67.67c3.2,3.08,7.46,4.82,11.91,4.83,4.18,0,8.18-1.66,11.13-4.61,2.95-2.95,4.61-6.96,4.61-11.14,0-1.24,1.01-2.25,2.25-2.25Z"/></svg>