<svg xmlns="http://www.w3.org/2000/svg" viewBox="0 0 48 48"><path fill="currentColor" d="M18 16C20.2145 16 22.0287 17.7139 22.1885 19.8877C23.8385 18.4635 26.3335 18.5346 27.8994 20.1006C29.4653 21.6665 29.5365 24.1615 28.1123 25.8115C30.2861 25.9713 32 27.7855 32 30C32 32.2145 30.286 34.0287 28.1123 34.1885C29.5365 35.8385 29.4654 38.3335 27.8994 39.8994C26.3335 41.4654 23.8385 41.5365 22.1885 40.1123C22.0287 42.2861 20.2145 44 18 44C15.7855 44 13.9713 42.2861 13.8115 40.1123C12.1615 41.5365 9.66656 41.4654 8.10059 39.8994C6.53462 38.3334 6.46348 35.8385 7.8877 34.1885C5.71395 34.0287 4 32.2145 4 30C4 27.7855 5.71395 25.9713 7.8877 25.8115C6.46352 24.1615 6.53466 21.6665 8.10059 20.1006C9.66654 18.5346 12.1615 18.4635 13.8115 19.8877C13.9713 17.7139 15.7855 16 18 16ZM18 18.7998C17.2268 18.7998 16.5996 19.427 16.5996 20.2002C16.5995 22.5692 13.7358 23.7553 12.0605 22.0801C11.5138 21.5334 10.6268 21.5334 10.0801 22.0801C9.53338 22.6268 9.5334 23.5138 10.0801 24.0605C11.7553 25.7358 10.5692 28.5995 8.2002 28.5996C7.427 28.5996 6.7998 29.2268 6.7998 30C6.79981 30.7732 7.427 31.4004 8.2002 31.4004C10.5694 31.4005 11.7552 34.2644 10.0801 35.9395C9.53335 36.4862 9.53335 37.3732 10.0801 37.9199C10.6268 38.4666 11.5138 38.4666 12.0605 37.9199C13.7357 36.2447 16.5995 37.4307 16.5996 39.7998C16.5996 40.573 17.2268 41.2002 18 41.2002C18.7732 41.2002 19.4004 40.573 19.4004 39.7998C19.4005 37.4307 22.2642 36.2447 23.9395 37.9199C24.4862 38.4666 25.3732 38.4666 25.9199 37.9199C26.4666 37.3732 26.4666 36.4862 25.9199 35.9395C24.2448 34.2643 25.4307 31.4005 27.7998 31.4004C28.573 31.4004 29.2002 30.7732 29.2002 30C29.2002 29.2268 28.573 28.5996 27.7998 28.5996C25.4309 28.5995 24.2446 25.7359 25.9199 24.0605C26.4666 23.5138 26.4666 22.6268 25.9199 22.0801C25.3732 21.5334 24.4862 21.5334 23.9395 22.0801C22.2642 23.7553 19.4005 22.5691 19.4004 20.2002C19.4004 19.427 18.7732 18.7998 18 18.7998ZM18 24.4004C19.4852 24.4004 20.9098 24.9898 21.96 26.04C23.0102 27.0902 23.5996 28.5148 23.5996 30C23.5996 31.4852 23.0102 32.9098 21.96 33.96C20.9098 35.0102 19.4852 35.5996 18 35.5996C16.5148 35.5996 15.0902 35.0102 14.04 33.96C12.9898 32.9098 12.4004 31.4852 12.4004 30C12.4004 28.5148 12.9898 27.0902 14.04 26.04C15.0902 24.9898 16.5148 24.4004 18 24.4004ZM18 27.2002C17.2574 27.2002 16.5456 27.4954 16.0205 28.0205C15.4954 28.5456 15.2002 29.2574 15.2002 30C15.2002 30.7426 15.4954 31.4544 16.0205 31.9795C16.5456 32.5046 17.2574 32.7998 18 32.7998C18.7426 32.7998 19.4544 32.5046 19.9795 31.9795C20.5046 31.4544 20.7998 30.7426 20.7998 30C20.7998 29.2574 20.5046 28.5456 19.9795 28.0205C19.4544 27.4954 18.7426 27.2002 18 27.2002ZM34.1768 4C35.4142 4.0001 36.4283 4.95814 36.5176 6.17285C37.4397 5.37708 38.8339 5.41598 39.709 6.29102C40.584 7.16608 40.6229 8.56033 39.8271 9.48242C41.0419 9.57164 41.9999 10.5858 42 11.8232C42 13.0608 41.0419 14.0748 39.8271 14.1641C40.623 15.0861 40.5839 16.4804 39.709 17.3555C38.834 18.2305 37.4397 18.2702 36.5176 17.4746C36.4283 18.6893 35.4142 19.6474 34.1768 19.6475C32.9392 19.6475 31.9253 18.6893 31.8359 17.4746C30.9138 18.2705 29.5196 18.2306 28.6445 17.3555C27.7695 16.4804 27.7295 15.0861 28.5254 14.1641C27.3107 14.0747 26.3535 13.0607 26.3535 11.8232C26.3537 10.5859 27.3108 9.57177 28.5254 9.48242C27.7299 8.56033 27.7696 7.16599 28.6445 6.29102C29.5196 5.41615 30.9139 5.37705 31.8359 6.17285C31.9252 4.95807 32.9392 4 34.1768 4ZM34.1768 5.56445C33.7448 5.56445 33.3947 5.91477 33.3945 6.34668C33.3945 7.67062 31.7936 8.33363 30.8574 7.39746C30.552 7.09217 30.0565 7.09222 29.751 7.39746C29.4455 7.70294 29.4456 8.19837 29.751 8.50391C30.6872 9.44009 30.024 11.0409 28.7002 11.041C28.2682 11.041 27.9181 11.3913 27.918 11.8232C27.918 12.2553 28.2681 12.6055 28.7002 12.6055C30.0241 12.6056 30.6868 14.2065 29.751 15.1426C29.4455 15.4481 29.4455 15.9435 29.751 16.249C30.0565 16.5546 30.5519 16.5546 30.8574 16.249C31.7935 15.3131 33.3944 15.976 33.3945 17.2998C33.3945 17.7319 33.7447 18.082 34.1768 18.082C34.6087 18.0819 34.959 17.7318 34.959 17.2998C34.9591 15.976 36.56 15.3129 37.4961 16.249C37.8016 16.5545 38.297 16.5545 38.6025 16.249C38.9078 15.9435 38.9079 15.448 38.6025 15.1426C37.6664 14.2064 38.3293 12.6055 39.6533 12.6055C40.0853 12.6053 40.4355 12.2552 40.4355 11.8232C40.4354 11.3914 40.0852 11.0412 39.6533 11.041C38.3295 11.041 37.6663 9.44014 38.6025 8.50391C38.9077 8.19835 38.9079 7.70286 38.6025 7.39746C38.2971 7.09209 37.8016 7.09231 37.4961 7.39746C36.5599 8.33366 34.959 7.67057 34.959 6.34668C34.9588 5.91484 34.6086 5.56456 34.1768 5.56445ZM34.1768 8.69434C35.0066 8.69439 35.8028 9.02355 36.3896 9.61035C36.9765 10.1972 37.3056 10.9934 37.3057 11.8232C37.3057 12.6531 36.9764 13.4493 36.3896 14.0361C35.8028 14.623 35.0067 14.9531 34.1768 14.9531C33.3468 14.9531 32.5507 14.623 31.9639 14.0361C31.377 13.4493 31.0469 12.6532 31.0469 11.8232C31.047 10.9934 31.3771 10.1972 31.9639 9.61035C32.5507 9.02363 33.3469 8.69434 34.1768 8.69434ZM34.1768 10.2588C33.7619 10.2588 33.3637 10.4235 33.0703 10.7168C32.7769 11.0102 32.6124 11.4084 32.6123 11.8232C32.6123 12.2382 32.7769 12.6363 33.0703 12.9297C33.3638 13.2231 33.7618 13.3887 34.1768 13.3887C34.5917 13.3886 34.9898 13.2231 35.2832 12.9297C35.5765 12.6363 35.7412 12.2381 35.7412 11.8232C35.7411 11.4084 35.5766 11.0102 35.2832 10.7168C34.9898 10.4234 34.5917 10.2588 34.1768 10.2588Z"/></svg>