<svg xmlns="http://www.w3.org/2000/svg" viewBox="0 0 48 48"><path fill="currentColor" d="M24.1,4c-5.8,0-10.2,2.4-13.5,7.2-1.5,2.2-1,5.2,1.1,6.8l2.9,2.2c.8,.6,1.9,1,2.9,1-.9,1.5-1.4,3.2-1.4,5v.9c0,1.3,.5,2.4,1.3,3.3-1.3,1.4-2.1,3.3-2.1,5.4,0,4.5,3.6,8.1,8.1,8.1s8.1-3.6,8.1-8.1-.8-4-2.1-5.4c.7-.8,1.1-1.7,1.2-2.8,2.2-1.3,7.5-3.8,7.5-10.8s-7.1-12.9-14.2-12.9Zm-.6,36.2c-2.4,0-4.4-2-4.4-4.4s2-4.4,4.4-4.4,4.4,2,4.4,4.4-2,4.4-4.4,4.4Zm3.6-13.8v.7c0,.7-.6,1.2-1.2,1.2h-4.7c-.7,0-1.2-.6-1.2-1.2v-.9c0-3.7,2.8-5.2,4.9-6.3,1.8-1,2.9-1.7,2.9-3s-2.3-3-4.1-3-3.5,1.1-5,3.1c-.4,.5-1.2,.6-1.7,.2l-2.9-2.2c-.5-.4-.6-1.1-.3-1.7,2.4-3.6,5.5-5.6,10.4-5.6s10.5,3.9,10.5,9.2-7.5,7-7.5,9.6h0Z"/></svg>