<svg data-name="Layer 1" xmlns="http://www.w3.org/2000/svg" viewBox="0 0 512 512"><circle cx="256" cy="256" r="240" fill="#ed1c24"/><path d="M253.89 281.95c-25.64 0-46.27 20.7-46.27 46.27s20.93 46.27 46.27 46.27 46.27-20.7 46.27-46.27c.07-25.57-20.62-46.27-46.27-46.27zm0 81.46c-19.43 0-35.18-15.75-35.18-35.18.07-19.36 15.82-35.18 35.18-35.18s35.18 15.75 35.18 35.18-15.75 35.18-35.18 35.18zm152.09-244.89c0-6.89-5.63-12.52-12.45-12.52H118.52c-6.89 0-12.52 5.63-12.52 12.52v9h299.98v-9zm-72.89 149.25l26.93-46.5-26.77-46.5h-53.7l-26.93 46.5 26.77 46.5h53.7zm-47.16-81.89h40.88l20.32 35.39-20.55 35.39h-40.87l-20.32-35.39 20.55-35.39zm-33.84 79.42l-51.67-93.66-51.22 93.66h102.89zm-51.58-70.54l32.85 59.46h-65.39l32.54-59.46zM106 135.93v257.55c0 6.89 5.63 12.52 12.52 12.52h274.97c6.89 0 12.52-5.62 12.52-12.45V135.93H106zm288.98 257.6c0 .82-.68 1.43-1.43 1.43H118.54c-.82 0-1.43-.68-1.43-1.43V147.01h277.87v246.52zM200.41 171.62v.02l.02-.02h-.02z" fill="#fff"/></svg>