<svg width="48" height="48" viewBox="0 0 48 48" fill="none" xmlns="http://www.w3.org/2000/svg"><path d="M24 46.5c12.426 0 22.5-10.074 22.5-22.5S36.426 1.5 24 1.5 1.5 11.574 1.5 24 11.574 46.5 24 46.5z" fill="#ED1C24"/><path d="M21.843 34.514c-.595 1.002-1.492 2.142-2.491 2.142-.077 0-.162-.007-.239-.022-1.562-.287-3.185-3.319-3.856-7.217-.28-1.476-.427-3.178-.455-4.893h6.258l-1.833 1.833.735.735 3.102-3.093-3.233-3.087-.713.748 1.918 1.827h-6.23c.028-1.785.188-3.542.483-5.062v-.013c.853-4.823 2.737-7.028 4.117-7.042h.013c1.282 0 3.023 1.897 4.082 7.223.84 4.767.652 11.544-1.651 15.919l-.007.002zM38 14.414V10h-4.408v1.037h2.566L25.197 22.004a31.223 31.223 0 00-.42-3.645v-.015c-1.42-7.186-3.955-8.27-5.355-8.27h-.027c-2.432.019-4.495 3.125-5.377 8.104-.31 1.586-.476 3.439-.503 5.305H10v1.036h3.504c.031 1.805.182 3.584.477 5.123.602 3.505 2.245 7.78 4.896 8.265.144.03.306.046.477.046.984 0 2.292-.56 3.62-2.796l.011-.03c1.41-2.66 2.054-5.953 2.23-9.153l10.987 10.988h-2.608v1.037h4.408V33.59h-1.037v2.664L25.258 24.552v-.037H35.97l-1.83 1.835.736.731 3.1-3.1-3.11-2.96-.712.753 1.783 1.7H25.256v-.061l11.707-11.706v2.706H38z" fill="#fff"/></svg>