<svg data-name="Layer 1" xmlns="http://www.w3.org/2000/svg" viewBox="0 0 512 512"><circle cx="256" cy="256" r="240" fill="#ed1c24"/><path d="M336.84 248.07c-4.6 0-8.32 3.73-8.32 8.32s3.73 8.32 8.32 8.32 8.32-3.73 8.32-8.32-3.73-8.32-8.32-8.32zm0 81.99c-4.6 0-8.32 3.73-8.32 8.32s3.73 8.32 8.32 8.32 8.32-3.73 8.32-8.32-3.73-8.32-8.32-8.32zm-197.26 41.61h233.35v-66.68H139.58v66.68zm11.18-55.56H361.9v44.47H150.76v-44.47zm-11.18-109.74h233.35v-66.68H139.58v66.68zm11.18-55.5H361.9v44.47H150.76v-44.47zm-11.18 138.82h233.35v-66.68H139.58v66.68zm11.18-55.5H361.9v44.47H150.76v-44.47zM393.77 106.4H118.81c-6.89 0-12.52 5.63-12.52 12.52v275.03c0 6.82 5.63 12.45 12.52 12.45h275.03c6.89 0 12.52-5.63 12.52-12.52V118.92c-.07-6.89-5.7-12.52-12.59-12.52zm1.5 287.48h-.07c0 .75-.61 1.43-1.43 1.43H118.81c-.75 0-1.43-.61-1.43-1.43V118.92c0-.75.61-1.43 1.43-1.43h275.03c.75 0 1.43.61 1.43 1.43v274.96zm-58.43-229.13c-4.6 0-8.32 3.73-8.32 8.32s3.73 8.32 8.32 8.32 8.32-3.73 8.32-8.32-3.73-8.32-8.32-8.32z" fill="#fff"/></svg>