<svg data-name="Layer 1" xmlns="http://www.w3.org/2000/svg" viewBox="0 0 512 512"><circle cx="256" cy="256" r="240" fill="#ed1c24"/><path d="M163.74 216.11h43.2V205h-43.2v11.11zm242.2-97.59c0-6.89-5.63-12.52-12.52-12.52H118.53c-6.89 0-12.52 5.62-12.52 12.52v9.07h299.93v-9.07zm-37.03 97.57l-.02.02c0-6.14-5.11-11.11-11.39-11.11H233.94l-12.3-15.68c-2.18-2.7-5.55-4.36-9.07-4.36h-58.1c-6.3 0-11.39 4.95-11.39 11.11v159.75h225.84V216.09zm-214.76-20.04h.3v.02h58.1c.14 0 .3.07.3.07l11.32 14.39-11.25 14.25s-.14.07-.3.07h-58.48v-28.8zM357.8 344.71v.02H154.15V236.05h58.48c3.52 0 6.89-1.64 9-4.36l12.38-15.61H357.5c.14 0 .23.07.3.07V344.7zM106.01 135.93v257.55c0 6.89 5.63 12.52 12.52 12.52h274.95c6.89 0 12.52-5.63 12.52-12.52V135.93H106.01zm288.82 257.6c0 .75-.61 1.43-1.43 1.43H118.53c-.75 0-1.43-.61-1.43-1.43V147.01h277.73v246.52z" fill="#fff"/></svg>