<svg data-name="Layer 1" xmlns="http://www.w3.org/2000/svg" viewBox="0 0 512 512"><circle cx="256" cy="256" r="240" fill="#ed1c24"/><path d="M405.99 118.52c0-6.89-5.63-12.52-12.52-12.52H118.48c-6.89 0-12.52 5.63-12.52 12.52v9.07h300.02v-9.07zm-47.55 50.92h-93.38v91.81h93.38v-91.81zm-11.18 80.7h-71.11v-69.61h71.11v69.61zm11.18 28.3h-93.38v91.81h93.38v-91.81zm-11.18 80.69h-71.11v-69.61h71.11v69.61zm-99.92-189.69h-93.38v91.81h93.38v-91.81zm-11.09 80.7h-71.11v-69.61h71.11v69.61zM105.96 135.92v257.56c0 6.89 5.63 12.52 12.52 12.52h275.03c6.89 0 12.52-5.63 12.52-12.52V135.92H105.96zm288.92 257.65c0 .75-.61 1.43-1.43 1.43H118.48c-.75 0-1.43-.61-1.43-1.43V147.02h277.82v246.55zM247.34 278.44h-93.38v91.81h93.38v-91.81zm-11.09 80.69h-71.11v-69.61h71.11v69.61z" fill="#fff"/></svg>