<svg data-name="Layer 1" xmlns="http://www.w3.org/2000/svg" width="512" height="512" viewBox="0 0 512 512"><path d="M376.91 393.3h-9.89v64.71c.35.11.71.2 1.08.24 14.58.04 29.16.04 43.74 0 .37.02.75-.05 1.1-.18.35-.14.67-.34.94-.61 1.95-3.02 3.74-6.16 5.95-9.9h-42.92V393.3zM61.86 304.76c29.33 27.54 68.93 42.5 109.87 41.48h176.42c39.56-.99 77.15-16.84 104.77-44.16C480.54 274.76 496 238.11 496 199.95c0-38.15-15.46-74.79-43.08-102.12-27.62-27.33-65.21-43.17-104.77-44.16H171.73c-40.94-1.02-80.54 13.94-109.87 41.48C32.55 122.7 16 160.5 16 199.95c0 39.48 16.54 77.28 45.86 104.81zm46.32-170.61c17.74-17.67 41.92-28 67.43-28.79h158.94c26.6-.83 52.42 8.78 71.53 26.63 19.11 17.86 29.91 42.41 29.91 68.06 0 25.65-10.8 50.22-29.91 68.06-19.11 17.84-44.93 27.44-71.53 26.63H175.61c-25.51-.8-49.69-11.12-67.43-28.79-17.75-17.68-27.68-41.3-27.68-65.9 0-24.6 9.92-48.23 27.68-65.9zm204.83 269.69c12.39 0 24.85 0 37.28.07 1.08 0 2.68-.17 3.15-.87 2-2.97 3.68-6.17 5.6-9.52-.88-.11-1.26-.19-1.63-.2-15.67 0-31.35-.16-47.02 0-8.15.09-14.83 3.6-19.89 10.04-9.78 12.39-9.7 32.9.19 45.22 4.74 5.87 10.93 9.51 18.53 9.66 13.57.22 27.18 0 40.77 0 .42.01.84-.05 1.23-.21.39-.16.74-.4 1.04-.7 1.94-2.94 3.7-5.99 5.91-9.65l-4.31.03c-13.89 0-27.79.07-41.68 0-8.58-.05-14.35-4.25-17.17-12.36a29.033 29.033 0 01-.69-16.89c2.48-9.79 8.64-14.63 18.69-14.63zm134.14 43.64c-8.55-.13-16.11-8.04-15.94-16.62h49.01c1.04 0 2.61.04 3.04-.56 2.13-3.08 3.96-6.35 6.31-10.22h-58.54c-.04-.5-.04-1.01 0-1.51 1.74-8.97 8.59-14.79 17.66-14.79 12.82-.09 25.63-.02 38.45-.09 1.06 0 2.61-.22 3.1-.91 1.97-2.92 3.61-6.05 5.75-9.66H448c-9.74.1-17.3 4.4-22.43 12.6-6.06 9.8-6.83 20.4-3.84 31.35 3.06 11.17 12.41 21.68 28.07 21.23 12.01-.34 24.06-.11 36.08-.11.94 0 2.39.08 2.78-.47 2.14-3.08 4.04-6.34 6.37-10.1h-5.88c-14-.02-28.06.09-42-.13zm-194.61-49.71c-3.7-6.25-8.93-6.2-12.63.09-11.23 19.13-22.45 38.27-33.66 57.39-.49.81-.87 1.68-1.57 3.06 3.5 0 6.52.2 9.49-.09.67-.09 1.32-.32 1.91-.66.59-.35 1.1-.81 1.51-1.35 2.85-4.48 5.56-9.08 8.07-13.76a4.872 4.872 0 015.15-2.88c5.93.18 11.82.11 17.73.04.9 0 2.22-.22 2.61-.82 1.96-3 3.71-6.17 5.85-9.89h-23.39c4.38-7.38 8.42-14.1 12.71-21.33.93 1.52 1.48 2.43 2.01 3.35 8.79 14.96 17.62 29.9 26.5 44.82.59.99 1.64 2.31 2.56 2.39 3.35.29 6.78.13 10.72.13-.64-1.23-.91-1.85-1.25-2.45-11.44-19.38-22.9-38.72-34.34-58.03zm-155.91-4.66H56.08c-11.24 0-19.32 5.36-24.37 15.28-4.5 8.86-4.99 18.32-2.53 27.91 3.08 11.97 12.69 22.67 28.66 21.98 6.3-.24 12.61 0 18.92 0l.05-.03c7.4 0 14.8.09 22.19 0 3.96.05 7.88-.86 11.41-2.66 3.53-1.8 6.56-4.45 8.84-7.69 7.87-10.89 8.95-22.98 4.72-35.46-4.33-12.87-13.83-19.31-27.34-19.31zm17.26 44.45c-3.15 6.52-8.28 10.1-15.69 10.11H76.89c-6.5 0-13.03.02-19.53-.03-10.27-.02-16.38-4.86-18.85-14.82a27.973 27.973 0 011.47-18.5c3.02-6.86 8.35-10.47 15.97-10.51h40.53c10.59 0 17.03 5.13 19.17 15.51 1.3 6.25 1.04 12.42-1.77 18.23zm62.7-5.84c2.03.11 4.06.11 6.09 0 2.35-.19 4.68-.71 6.9-1.52 7.98-3.22 12.59-12.58 10.86-21.46-1.83-9.38-8.86-15.63-18.06-15.63h-48.52c-.46.03-.93.11-1.38.22v64.71h10.82V404.1c.48-.13.96-.22 1.45-.27 12.71-.02 25.45-.11 38.17.08 1.94.16 3.78.97 5.21 2.3a8.122 8.122 0 012.59 4.4c.37 1.71.19 3.5-.53 5.09a7.9 7.9 0 01-2.99 4.1c-1.42 1-3.14 1.5-4.88 1.42H155.1c-1.01 0-2.02.11-3.38.18.28.49.59.96.93 1.41 10.98 11.45 22 22.87 33.05 34.29.51.58 1.2.96 1.97 1.07 4.18.05 8.38.06 13.44.06l-24.81-25.7.3-.8z" fill="#ed1c24"/></svg>