<svg xmlns="http://www.w3.org/2000/svg" viewBox="0 0 48 48"><path fill="currentColor" d="M32 16C30.8954 16 30 15.1046 30 14C30 12.8954 30.8954 12 32 12H44C45.1046 12 46 12.8954 46 14V26C46 27.1046 45.1046 28 44 28C42.8954 28 42 27.1046 42 26V18.8284L28.4142 32.4142C27.6332 33.1953 26.3668 33.1953 25.5858 32.4142L17 23.8284L5.41421 35.4142C4.63317 36.1953 3.36684 36.1953 2.58579 35.4142C1.80474 34.6332 1.80474 33.3668 2.58579 32.5858L15.5858 19.5858C16.3668 18.8047 17.6332 18.8047 18.4142 19.5858L27 28.1716L39.1716 16H32Z"/></svg>