<svg xmlns="http://www.w3.org/2000/svg" viewBox="0 0 48 48"><path fill="currentColor" d="M32 32C30.8954 32 30 32.8954 30 34C30 35.1046 30.8954 36 32 36H44C45.1046 36 46 35.1046 46 34V22C46 20.8954 45.1046 20 44 20C42.8954 20 42 20.8954 42 22V29.1716L28.4142 15.5858C27.6332 14.8047 26.3668 14.8047 25.5858 15.5858L17 24.1716L5.41421 12.5858C4.63317 11.8047 3.36684 11.8047 2.58579 12.5858C1.80474 13.3668 1.80474 14.6332 2.58579 15.4142L15.5858 28.4142C16.3668 29.1953 17.6332 29.1953 18.4142 28.4142L27 19.8284L39.1716 32H32Z"/></svg>