<svg data-name="Layer 1" xmlns="http://www.w3.org/2000/svg" viewBox="0 0 512 512"><path d="M283.74 281.87h69.34V268.2h-69.34zm144.84-93.51h-67.85l5.08 13.64h57.89zm-75.5 53.22h-69.34v13.67h69.34zm-42.16-12.92h42.15V215h-42.15zM419 215h-48.74l4.94 13.68H414zm-147.13 26.6H117.11v13.67h149.78c3.11-3.17 4.96-13.69 4.96-13.69zm81.22-53.22h-42.17V202h42.15zm18.37-79.82H283v13.67h93.09zm-60.54 40.24h74.72l-5-13.67h-69.72zm51-66.88H283v13.67h83.89zm73.9 146.74h42.13V215h-42.17zm70.15 39.54h-70.1v13.67h70.1zm0-26.62h-70.1v13.67h70.1zm-388.86 40.29H222.8c18.76 0 32.92-13.67 32.92-13.67H117.11zm388-199.95H427l-5 13.67h83.13zm-27.17 106.44H435.8V202h42.14zm0-53.23h-70.07l-5 13.67h75.07zm27.21-26.59h-88.1l-4.61 13.67h92.71zm-95.66 133H379.9l5.1 13.71h19.75zm-98.57-66.16h42.15v-7.61l2.68 7.61h77.15l2.87-7.61v7.61h42.13v-13.63h-79.1l-4.13 11.59-4.22-11.59h-79.53zm84.33 106.45l5-13.67h-10.73l4.89 13.67zM266.89 108.54h-149.8v13.67h154.76s-1.85-10.53-4.96-13.67zm-163.59 0H6v13.67h97.3zm38.14 248.3a6.73 6.73 0 00-2.86.66 6.6 6.6 0 00-2.31 1.82 11.28 11.28 0 00-2.66 6.17h14.82q0-8.65-6.99-8.65zM34 202h42.11v-13.64H34zm0 26.63h42.11V215H34zm69.3-146.71H6v13.67h97.3zm88.34 276.68a7.23 7.23 0 00-3.4-.65 8 8 0 00-3.41.7 7.79 7.79 0 00-2.77 2.09 10.54 10.54 0 00-2.48 7.29v4.1a9.42 9.42 0 002.25 6.44 7.3 7.3 0 002.58 1.92 7.44 7.44 0 003.16.63 7.58 7.58 0 003.71-.8 7.72 7.72 0 002.87-2.48c1.55-2.18 2.33-5.24 2.33-9.28 0-3.34-.7-5.93-2.09-7.8a7.3 7.3 0 00-2.75-2.16zm262.13-1.76a6.78 6.78 0 00-2.87.66 6.69 6.69 0 00-2.3 1.82 11.19 11.19 0 00-2.65 6.17h14.8q0-8.65-6.98-8.65zM283.19 358a7.7 7.7 0 00-6.22 2.88 11.55 11.55 0 00-2.46 7.64v3.22a10.22 10.22 0 002.2 6.8 7.07 7.07 0 005.77 2.62 7.47 7.47 0 003.71-.79 7.64 7.64 0 002.87-2.48c1.56-2.18 2.33-5.24 2.33-9.29q.04-10.6-8.2-10.6zM6.09 306v124.08H506V306zM103 389.68H88.94l-9.36-36.14a30.88 30.88 0 01-.9-6.28h-.15a39.21 39.21 0 01-1 6.28l-9.59 36.14H53.23l-14.76-56.31h13.86l7.94 37.5a45 45 0 01.74 6.44h.19a31.57 31.57 0 011.14-6.6l10.26-37.34h13.62l9.22 37.82a45.64 45.64 0 01.92 6h.15a41.65 41.65 0 01.82-6.29l7.75-37.57h12.8zm57-16.58h-26.29q.63 8.75 11 8.76a21.65 21.65 0 0011.66-3.14v8.95q-5.58 3-14.49 3-9.73 0-15.13-5.41t-5.38-15.05q0-10 5.81-15.87a19.35 19.35 0 0114.3-5.86q8.8 0 13.62 5.24t4.9 14.16zm44.3 11.53a16.11 16.11 0 01-5.86 4.58 15.92 15.92 0 01-7.29 1.45q-7.33 0-11.2-5.66h-.16v4.68h-12.46v-59.55h12.41v25.37h.16a14.75 14.75 0 0113.08-7q7.78 0 12 5.35t4.19 14.66q-.02 10.01-4.92 16.12zm48.23-2.91a14.46 14.46 0 01-4.85 5.19 21.13 21.13 0 01-7.13 2.85 41.25 41.25 0 01-8.59.87 47.4 47.4 0 01-8.81-.79 26.53 26.53 0 01-7.26-2.32V375a24.27 24.27 0 007.42 4.29 23.51 23.51 0 008.1 1.43 17.9 17.9 0 004.19-.42 10 10 0 003-1.2 5.37 5.37 0 001.8-1.81 4.55 4.55 0 00.58-2.25 5 5 0 00-.94-3 10.31 10.31 0 00-2.58-2.39 27.14 27.14 0 00-3.86-2.09c-1.49-.68-3.15-1.38-4.83-2.1a24.61 24.61 0 01-9.84-6.71 14.65 14.65 0 01-3.25-9.59 14.67 14.67 0 016.58-12.8 21.49 21.49 0 017-3 36.2 36.2 0 018.49-1 52.12 52.12 0 017.79.53 30.31 30.31 0 016.29 1.63v11.78a18.31 18.31 0 00-3.09-1.72 24.63 24.63 0 00-3.43-1.24 26.47 26.47 0 00-3.52-.72 22.93 22.93 0 00-3.31-.24 16.77 16.77 0 00-3.93.41 9.93 9.93 0 00-3 1.16 5.58 5.58 0 00-1.89 1.79 4.22 4.22 0 00-.67 2.34 4.53 4.53 0 00.74 2.53 9.1 9.1 0 002.1 2.1 22.14 22.14 0 003.33 2c1.31.65 2.8 1.31 4.44 2a47.52 47.52 0 016.07 3 21.71 21.71 0 014.62 3.59 14.16 14.16 0 012.94 4.57 18 18 0 01-.74 13.9zm46.72 2.85a16.24 16.24 0 01-13.25 6.09 12.61 12.61 0 01-11.1-5.66h-.15v23.17h-12.42v-58.71h12.42v6h.15a14.6 14.6 0 0112.92-7q7.81 0 12.08 5.36t4.26 14.6q0 10.05-4.96 16.15zm51.59 5.11h-12.42v-22.86q0-8.83-6.45-8.83a6.44 6.44 0 00-3 .6 6.58 6.58 0 00-2.38 1.87 9.51 9.51 0 00-2 6.28v22.94h-12.4v-59.55h12.4v25.3h.16q4.54-7 12.37-7 13.62 0 13.67 16.5zm45.95-16.58H370.5q.63 8.75 11 8.76a21.54 21.54 0 0011.66-3.14v8.95c-3.71 2-8.55 3-14.48 3q-9.75 0-15.13-5.41t-5.38-15.05q0-10 5.82-15.87a19.3 19.3 0 0114.29-5.86q8.79 0 13.61 5.24t4.81 14.17zm33.63-12.5a10.74 10.74 0 00-5.24-1.21 7.6 7.6 0 00-3.51.71 7.69 7.69 0 00-2.78 2.25 13 13 0 00-2.27 8.08v19.2h-12.49v-40.17h12.42v7.46h.15q3-8.18 10.61-8.18a8 8 0 013.06.48zm41.9 12.5H446q.63 8.75 11 8.76a21.54 21.54 0 0011.66-3.14v8.95c-3.7 2-8.54 3-14.48 3q-9.75 0-15.13-5.41t-5.38-15.05q0-10 5.82-15.87a19.3 19.3 0 0114.29-5.86q8.79 0 13.62 5.24t4.8 14.17zm-94-16.26a6.68 6.68 0 00-5.16 2.48 11.12 11.12 0 00-2.65 6.17h14.8q-.09-8.65-7.08-8.65zM145.05 135.13v13.67h42.15v-13.67zM270.33 215h-42.14v13.68H273c0-6.48-2.67-13.68-2.67-13.68zM76.11 135.13H34v13.67h42.11zm68.94 93.53h42.15V215h-42.15zm0-53.24H252.7s9-7 11.86-13.67H145.05zm0 26.61h119.51c-2.87-6.64-11.86-13.67-11.86-13.67H145.05zm83.14-66.9v13.67h42.14s2.67-7.23 2.67-13.67zM34 175.42h42.11v-13.67H34zM6.76 281.87h97.31V268.2H6.76zm97.31-40.29H6.76v13.67h97.31zM222.85 81.92H117.09v13.67h138.68s-14.17-13.67-32.92-13.67z" fill="#3e8ede"/></svg>