<svg data-name="Layer 1" xmlns="http://www.w3.org/2000/svg" viewBox="0 0 512 512"><path d="M39.5 278.54a26.88 26.88 0 1026.78 26.86 26.84 26.84 0 00-26.78-26.86zm-9.57-24A24 24 0 106 230.57a24 24 0 0023.93 24zM189.8 139.36A15.37 15.37 0 10174.48 124a15.32 15.32 0 0015.32 15.36zm-63.18 12.5a18.25 18.25 0 10-18.19-18.27 18.22 18.22 0 0018.19 18.27zm-39.24 11.5a20.11 20.11 0 10-20.11 20.16 20.14 20.14 0 0020.11-20.16zm101.47 172.81a33.6 33.6 0 1033.5 33.6 33.57 33.57 0 00-33.5-33.6zm72.7-104.62c8.58-4.3 14.41-12.29 14.41-22.11 0-22.91-20.68-27.84-39.54-27.52H157v73.15c0 10.62-3.69 14.3-10.27 14.3-7.06 0-11-4-11-11.23V248h-26.85v4.75c0 24.46 9.36 41.19 38.32 41.19 23.63 0 36.12-10.49 38-31.22v28.92h52.55c23.45 0 42.61-8 42.61-34.11.04-12.44-7.15-22.53-18.81-25.98zM213.75 204h22.05c6 0 11.65 2.63 11.65 10.62 0 7.83-6.73 10.44-11.65 10.44h-22.05zm22.82 64.72h-22.82v-25.18h22.82c8.59 0 15.34 3.24 15.34 12.9 0 9.08-6.29 12.32-15.34 12.32zm-132.92 60.7a29.76 29.76 0 1029.69 29.75 29.71 29.71 0 00-29.69-29.75z" fill="#cb2026"/><path d="M485.77 244c-11.95-2.6-30.23-4-30.23-11.53 0-5.54 6.92-6 11.2-6a15.59 15.59 0 018.28 2c2.12 1.39 3.35 3.54 3.35 6.91h24.07c-.93-20.73-19.17-25.82-36.61-25.82-14.52 0-33.4 4.54-36 20.58-3.57-16.34-20-20.58-35.9-20.58-15.63 0-37.13 5.24-37.13 24.45v1c-6.06-15.17-20.39-25.41-38.82-25.41-19.93 0-34.84 11.68-39.88 28.91a32.1 32.1 0 015.9 19.03 42.4 42.4 0 01-2.65 15.46c6.85 12.7 20.04 21 36.65 21 17.66 0 31.52-9.33 38-23.41 3.4 18.08 21 23.41 38.33 23.41 14.86 0 31.28-4.88 36.46-18.72 5.37 14.33 21.35 18.72 37 18.72 17.93 0 38.16-7.06 38.16-28.43.05-6.65-4.11-18.32-20.18-21.57zM318 274c-12.12 0-15.8-12-15.8-22.14s3.68-22.29 15.8-22.29 16 12.14 16 22.27S330.12 274 318 274zm76.16 3a16.24 16.24 0 01-9.66-2.75 10.74 10.74 0 01-4.29-8.9H358a45.84 45.84 0 002-13.54 47.81 47.81 0 00-.49-6.51c6.09 10.53 21.39 11.56 34.21 14.82 4.58 1.06 12.71 2.31 12.71 8.44.01 6.34-7.21 8.44-12.25 8.44zm73.51 0a16.22 16.22 0 01-9.66-2.75 10.75 10.75 0 01-4.3-8.9h-21.22c-.05-6.63-4.25-18.15-20.23-21.37-11.95-2.6-29.42-4-29.42-11.53 0-5.54 7.72-6 12-6a15.62 15.62 0 018.29 2c2.12 1.39 3.35 3.54 3.35 6.91h23.11c.92 20.13 21.61 20.68 37.65 24.76 4.58 1.06 12.71 2.31 12.71 8.45-.01 6.33-7.23 8.43-12.26 8.43z" fill="#8f9579"/></svg>