<svg data-name="Layer 1" xmlns="http://www.w3.org/2000/svg" viewBox="0 0 512 512"><g data-name="svg 32"><path d="M317.52 278.35l-15.61-10.94a3.16 3.16 0 00-2.62-.46 307.09 307.09 0 01-40.18 7 277.62 277.62 0 01-30.47 1.62c-23.69 0-39.18-2.79-41.44-4.83a1.12 1.12 0 01-.15-1c.41-1.14 2.61-2.49 4-3a3.15 3.15 0 00-1.84-6c-15.65 3.78-23.31 9.07-22.75 15.71 1 11.77 28.26 17.82 51.32 19.42 3.32.22 6.9.34 10.66.34 38.35 0 87.5-12 88-12.16a3.15 3.15 0 002.35-2.47 3.17 3.17 0 00-1.27-3.23zM329.2 290a3.15 3.15 0 002.91 1.93 2.94 2.94 0 00.65-.07c2.78-.59 67.87-14.94 61-52.84-4.2-23.23-18.8-28.1-30.3-28.1-13.76 0-26.81 6.9-27.36 7.19a3.15 3.15 0 001.48 5.93c.29 0 29.36.24 32 16.84 2.33 14.33-27.5 37.54-39.19 45.27a3.17 3.17 0 00-1.19 3.85zm-187.36-47.24c7.68 10.66 34.9 16.53 76.63 16.53 5.66 0 11.63-.11 17.74-.33 66.72-2.38 91.47-23.17 92.49-24a3.17 3.17 0 00.72-3.87 3.12 3.12 0 00-3.61-1.55c-23.5 6.41-67.38 8.69-97.81 8.69-34.06 0-51.4-2.45-55.65-4.27 2.18-3 15.62-8.33 32.27-11.6a3.15 3.15 0 00-.61-6.25c-9.76 0-58.71.79-63.83 16.26a11.2 11.2 0 001.66 10.39zm60.58 60.44a3.18 3.18 0 00-3.09-2.21c-2.1.06-20.53.89-21.82 12.62a12.22 12.22 0 003 9.53c6.62 7.84 24.49 12.5 54.61 14.25 3.57.21 7.19.32 10.76.32 38.3 0 64.1-12 65.18-12.5a3.16 3.16 0 001.79-2.68 3.12 3.12 0 00-1.5-2.86l-19.72-12a3.18 3.18 0 00-2.29-.4c-.12 0-12.65 2.63-31.55 5.19a100.92 100.92 0 01-13.31.74c-18.88 0-39.88-3.09-43.91-5.11a1.26 1.26 0 01.58-1.27 3.16 3.16 0 001.27-3.62zm186.7 48a3.15 3.15 0 00-3.63.72c-.12.13-13.31 13.93-53 22-15.18 3-43.68 4.58-84.7 4.58s-80.21-1.62-80.6-1.63a3.15 3.15 0 00-.86 6.21c.4.1 41.39 9.7 97.43 9.7a454.84 454.84 0 0077.73-6.49c46.07-8.08 49.3-30.92 49.41-31.89a3.15 3.15 0 00-1.78-3.21zM228 373.92c87.73-.08 134.81-15.68 143.88-25.5 3.21-3.47 3.56-6.76 3.29-8.9-.68-5.29-5.49-8.53-6-8.88a3.19 3.19 0 00-4.11.56 3.12 3.12 0 000 4.1c.56.71.88 1.91-.74 3.52-3.63 3.39-40.2 13.67-101.09 16.76-8.34.43-17.09.65-26 .66-54.53 0-94.43-7.47-99.66-11.82 2-2.91 16.13-7.54 31.14-10.16a3.15 3.15 0 00-1-6.23c-.42.06-1.86.14-3.52.25-24.76 1.51-53.38 4.88-54.88 17.64a13 13 0 003.44 10.49c6.69 7.51 25.91 17.51 115.28 17.51z" fill="#7d9cd1"/><path d="M143.45 482.71q0 5.69-1 8.07-1.74 4-7.19 4c-3.66 0-6-1.23-7.16-3.69s-1.74-6.72-1.87-12.78v-1.81h-15.51v1.81q0 13.81 5.09 21.81t20 8q14.91 0 20.63-9.89 3.38-5.83 3.37-15.83v-54.47h-16.36zm92.92-43.15a25.86 25.86 0 00-13.37-9.93 41 41 0 00-12.13-1.7h-33.73v78.31h33.76q17.76 0 26.27-14.61 6.27-10.83 6.27-26.46a60.72 60.72 0 00-1.48-13 35 35 0 00-5.59-12.61zm-12.06 41.66q-4.58 11.41-16.17 11.42H193v-51.11h15.12q11.18 0 14.92 6.4t3.75 18.36a40.2 40.2 0 01-2.48 14.93zm97.33-393c-3 1.14-73.88 28.46-73.88 61.47 0 22.75 9.71 34.77 16.81 43.55 2.79 3.44 5.19 6.41 6 8.95 2.23 7.31-3.05 20.54-5.27 25a3.15 3.15 0 004.62 4c1.22-.85 29.78-21 24.65-45.37-1.9-9.25-6.45-16-10.46-22-6.21-9.24-10.7-15.91-3.89-28.24 8-14.37 44.09-41.67 44.45-41.94a3.15 3.15 0 00-3-5.46zm-94.93 56.1c.27-9.94 14.18-21.22 28.91-33.16 13.49-10.94 28.79-23.34 37.73-37.84 19.65-31.91-2.18-63.3-2.41-63.61a3.15 3.15 0 00-5.65 2.48 67 67 0 01-7.52 42.35c-4.87 8.83-15.56 16.35-27.94 25.06-17.76 12.5-37.89 26.65-48.68 50.08-18.73 40.86 38.33 85.44 40.77 87.32a3.21 3.21 0 001.93.65 3.14 3.14 0 002.79-4.6c-.2-.36-20.64-40.15-19.93-68.69zm152.63 344.3q-4.41 5.63-12.84 5.63a16.73 16.73 0 01-13.5-6.52q-5.32-6.57-5.32-19.74t5.05-20.38a16 16 0 0113.79-7.2q8.59 0 13 5.1a22.37 22.37 0 014 8.5h16.36a28.24 28.24 0 00-5.36-14.61q-9-13-28.59-13-14.62 0-24.08 9.67-10.87 11.1-10.88 31.61 0 19 9.57 29.86t26.28 10.84q13.51 0 22.16-8t10.75-20.83H383.4q-1.62 6.08-4.06 9.11zm-71.22-24.44a18.81 18.81 0 006-4.47q3.61-4.35 3.62-11.53a19.88 19.88 0 00-3.59-12q-6-8.13-20.3-8.34H256v78.31h35.29a54.17 54.17 0 0011.07-1.06A21.53 21.53 0 00316.75 495a22.89 22.89 0 003.49-12.49 20.78 20.78 0 00-3.05-11.48 17.41 17.41 0 00-9.07-6.81zm-36.52-22.65h17a29.67 29.67 0 019.26 1.22q4.2 1.75 4.2 7.23 0 4.93-3.18 6.88a15.76 15.76 0 01-8.28 1.94h-19zm26.95 49.73a18.5 18.5 0 01-7.93 1.38h-19v-20.88h19.28a19.91 19.91 0 017.83 1.33q5 2.28 5 8.39-.03 7.23-5.18 9.78z" fill="#da3c26"/></g></svg>