<svg xmlns="http://www.w3.org/2000/svg" viewBox="0 0 512 512"><g data-name="Layer 2"><path d="M430.77 315.5v120.68c0 24.25-37.68 45.3-93 55.9a438.13 438.13 0 01-81.77 7.34c-96.54 0-174.77-28.29-174.77-63.24V315.5c0 35 78.23 63.25 174.77 63.25s174.77-28.29 174.77-63.25z" fill="#00acea"/><path d="M430.77 313v2.49c0 35-78.23 63.25-174.77 63.25S81.23 350.46 81.23 315.5V195.67c0 34.94 78.23 63.25 174.77 63.25s174.77-28.31 174.77-63.25z" fill="#00acea"/><path d="M430.77 75.82v119.85c0 34.94-78.23 63.25-174.77 63.25S81.23 230.61 81.23 195.67V75.82c0 34.93 78.25 63.25 174.77 63.25s174.77-28.32 174.77-63.25z" fill="#00acea"/><path d="M256 12.58c96.52 0 174.77 28.32 174.77 63.24S352.52 139.07 256 139.07 81.23 110.75 81.23 75.82 159.48 12.58 256 12.58z" fill="#00efd1"/><path d="M383.91 19.27C349.56 6.84 304.13 0 256 0s-93.55 6.84-127.9 19.27c-49.16 17.8-59.54 40.57-59.54 56.55v360.36c0 16 10.37 38.77 59.53 56.55C162.43 505.16 207.86 512 256 512a454.66 454.66 0 0084.2-7.56c65.59-12.57 103.26-37.45 103.26-68.26V75.82c-.02-15.98-10.39-38.75-59.55-56.55zm14.77 439.14c-15.15 8.92-37 16.29-63.25 21.32a428.25 428.25 0 01-79.42 7.1c-45.27 0-87.69-6.3-119.36-17.76s-42.93-24.49-42.93-32.89v-81a157.3 157.3 0 0034.37 16.92c34.34 12.42 79.77 19.26 127.89 19.26s93.58-6.84 127.92-19.26a157.37 157.37 0 0034.38-16.92v81c0 6.81-7.17 14.91-19.6 22.23zm19.6-142.91c0 8.41-11.31 21.47-42.93 32.91S301.3 366.17 256 366.17s-87.7-6.31-119.36-17.76-42.94-24.5-42.94-32.91v-80.19a156.81 156.81 0 0034.37 16.91c34.36 12.43 79.79 19.28 127.93 19.28s93.58-6.85 127.92-19.28a156.89 156.89 0 0034.38-16.91zm-42.93-86.93C343.68 240 301.29 246.34 256 246.34s-87.67-6.34-119.34-17.77-42.94-24.5-42.94-32.9v-80.22a157.07 157.07 0 0034.37 16.92c34.35 12.43 79.78 19.28 127.89 19.28s93.57-6.85 127.92-19.28a157.14 157.14 0 0034.38-16.92v80.22c0 8.4-11.31 21.46-42.93 32.9zm-.05-119.86c-31.67 11.47-74 17.78-119.3 17.78s-87.63-6.31-119.3-17.78-42.89-24.49-42.89-32.89 11.27-21.45 42.89-32.89 74-17.77 119.3-17.77 87.63 6.31 119.3 17.77 42.89 24.49 42.89 32.89-11.27 21.45-42.89 32.89z" fill="#083863"/><path d="M284.93 184.29h-57.86a12.58 12.58 0 000 25.16h57.86a12.58 12.58 0 000-25.16zm0 118.25h-57.86a12.58 12.58 0 100 25.16h57.86a12.58 12.58 0 100-25.16zm0 122.03h-57.86a12.58 12.58 0 100 25.16h57.86a12.58 12.58 0 000-25.16z" fill="#083863"/></g></svg>