<svg data-name="Layer 1" xmlns="http://www.w3.org/2000/svg" viewBox="0 0 512 512"><path d="M188.8 396s-19.56 11.38 13.93 15.22c40.58 4.64 61.3 4 106-4.49a184.89 184.89 0 0028.19 13.75c-100.23 42.9-226.84-2.54-148.12-24.48zm-12.26-56.1s-21.93 16.24 11.58 19.7c43.35 4.48 77.57 4.84 136.81-6.56A60.43 60.43 0 00346 365.88c-121.19 35.45-256.15 2.79-169.46-25.98z" fill="#3174b9" fill-rule="evenodd"/><path d="M279.8 244.81c24.71 28.44-6.48 54-6.48 54s62.71-32.37 33.91-72.91c-26.89-37.8-47.52-56.58 64.14-121.33 0 .01-175.28 43.78-91.57 140.24z" fill="#ca3132" fill-rule="evenodd"/><path d="M412.37 437.41s14.47 11.94-15.95 21.17c-57.84 17.52-240.79 22.8-291.61.69-18.26-7.95 16-19 26.77-21.3 11.24-2.43 17.65-2 17.65-2-20.31-14.31-131.31 28.09-56.37 40.26 204.35 33.13 372.5-14.92 319.51-38.84zM198.21 281.82s-93.05 22.11-33 30.14c25.39 3.39 76 2.61 123.09-1.34 38.52-3.23 77.18-10.15 77.18-10.15S352 306.3 342.12 313c-94.5 24.86-277 13.28-224.48-12.13 44.43-21.5 80.57-19.05 80.57-19.05zm166.93 93.3c96.06-49.91 51.65-97.88 20.64-91.41a72.91 72.91 0 00-11 3 17.48 17.48 0 018.21-6.33c61.33-21.55 108.5 63.59-19.78 97.31a8.35 8.35 0 001.93-2.57z" fill="#3174b9" fill-rule="evenodd"/><path d="M307.23 0s53.19 53.22-50.46 135c-83.13 65.65-18.95 103.07 0 145.85-48.53-43.78-84.12-82.32-60.25-118.19C231.55 110.06 328.69 84.53 307.23 0z" fill="#ca3132" fill-rule="evenodd"/><path d="M207.66 510.39c92.19 5.9 233.79-3.27 237.15-46.9 0 0-6.45 16.54-76.2 29.65-78.7 14.82-175.78 13.09-233.34 3.59 0 0 11.79 9.76 72.39 13.66z" fill="#3174b9" fill-rule="evenodd"/></svg>