<svg width="48" height="48" viewBox="0 0 48 48" fill="none" xmlns="http://www.w3.org/2000/svg"><path fill-rule="evenodd" clip-rule="evenodd" d="M13.942 9.913c-1.23.178-2.476.49-3.279.819l-.304.123c-2.84 1.12-5.499 3.452-7.028 6.165-.864 1.534-1.406 3.094-1.704 4.901-.227 1.382-.14 3.869.184 5.232.765 3.213 2.522 6.009 5.033 8.007a14.304 14.304 0 006.152 2.825c1.443.274 1.808.282 11.494.254 9.983-.028 9.634-.017 11.05-.359.468-.113.583-.146 1.29-.372 2.289-.73 4.626-2.306 6.3-4.246 1.449-1.68 2.65-4.117 3.093-6.272.37-1.798.37-4.095 0-5.885-.941-4.56-4.204-8.466-8.552-10.237-1.118-.456-2.005-.697-3.3-.896-.84-.13-1.213-.134-10.447-.126-5.267.005-9.759.035-9.982.067zm2.265 9.755v4.818H6.791l.046-.793c.153-2.642 1.22-4.89 3.121-6.57.948-.84 2.196-1.552 3.308-1.889.149-.045.347-.107.44-.136.525-.169 2.057-.345 2.383-.275.111.024.118.31.118 4.845zm13.907-3.435c-.788.77-2.025 1.977-2.75 2.682-.726.706-1.798 1.754-2.383 2.329l-1.065 1.046-1.64-1.62c-.902-.892-2.605-2.57-3.784-3.729l-2.144-2.108h15.198l-1.432 1.4zm3.91-1.2c1.834.475 3.132 1.207 4.43 2.5 1.67 1.662 2.584 3.726 2.682 6.059l.038.894h-9.483v-9.672l.896.04c.566.025 1.094.09 1.436.18zm6.321 12.806c0 .079-.62 1.195-.801 1.44-1.655 2.25-3.832 3.569-6.467 3.917-.366.049-3.43.064-9.466.048-8.13-.022-8.966-.035-9.392-.14-1.277-.315-2.452-.825-3.42-1.485-1.098-.75-2.354-2.191-2.967-3.404l-.213-.421h16.363c9 0 16.363.02 16.363.045z" fill="#FF141D"/></svg>