<svg data-name="Layer 1" xmlns="http://www.w3.org/2000/svg" viewBox="0 0 512 512"><path d="M190.21 423.72h11.46V285.3h-11.46zm-29.73.23h11.45V327.1h-11.45zm0-118.26h11.45v-14.88h-11.45zm-45.4 106.14h-2.92l-29-119.18h-5.7v-.14.14H71.8L43.44 411.83h-2.92l-26.05-121H2.91l28.27 132.89h21.54l24.77-108.94 25.42 108.94h21.54l27.31-132.91H140.2zM483 329.37l-16 66.82h-4.8l-16.6-66.82h-24.66L444 421.22h16.6l-9.68 37h23l32-128.82zm-89 91.85h24.44V293.31H394zm-88.29 0h25.81v-42.94h43.34v-23h-43.37V319h54.18v-24.08h-80zM276 290.81v37a169.08 169.08 0 00-20.57-1.81c-15.37 0-26 4.4-32.51 13.47-5.79 8.05-8.49 20-8.49 37.48 0 42.92 17.84 48.43 33.48 48.43a70.44 70.44 0 0029-7.48v5.87h11.47l-1-132.91zm.93 114.71a70.39 70.39 0 01-28.26 8.38c-6.61 0-21.84-.18-21.84-37 0-29.86 7.73-40.44 29.54-40.44 3.2 0 8.32.6 12.83 1.13 2.83.33 5.56.66 7.73.82z" fill="#009ddc"/><path d="M242.28 177.35a3.14 3.14 0 00-1.16-2.29h-1.61l-5.3-4.14-9.68-2.29h-5.07l-6-2.3h-71l-10.37 1.61-10.84.69c-6.91 1.37-13.83 2.75-20.74 4.59L90.13 176l-5.07 1.61h1.85l7.6 1.15h15.22l15.44-1.61h56.71a81.55 81.55 0 0110.37 0 71.63 71.63 0 0010.15 0h.23l-7.63 1.12h-43.55l-4.61 1.61h1.85l4.84 1.15h9.91a78 78 0 0010.14 0h10.14a197.58 197.58 0 0019.83-3l9.91 6.2h4.84l4.84-1.38 9.46-3zM422.1 226l-8.76-6-15.45-5.51-9.22-5.05a85.87 85.87 0 00-9.22-4.82l-4.61-2.3-4.84-2.3-4.61-1.83-4.84-1.84-8.76-4.82h-6l-5.06-1.53-9.92-2.76-4.81-1.39-5.07-1.15h-20.09a74.59 74.59 0 00-10.14 0h-6.91c-1.16 0-1.62 0-1.62 1.61l8.3 5.51 8.3 2.29 3.92 2.76 2.07 1.38 2.08 1.15 8.53 5.28a190.76 190.76 0 0018.21 8.95l9.22 3.68a69.28 69.28 0 009.91 2.75h4.84a18.71 18.71 0 005.07 0h6.92l-3.69-3h-2.07a28 28 0 00-4.61-2.07l-7.38-2.53-6-1.83a149.24 149.24 0 01-14.3-4.83l-7.14-3a47.45 47.45 0 01-6.69-3.44l-3-2.3 3.45 1.38a55 55 0 009.92 3l10.14 2.3 9.91 2.75c3.23 0 6.69 2.07 9.91 3.45l5.08 2.07h2.53l7.61 2.29 3.69 1.15 3.68 1.15 7.38 3c4.84 2.07 9.45 4.37 14.3 6.2a36.48 36.48 0 007.14 2.3h7.6l7.61 1.15h2.07zm-196.41-34.41a29.1 29.1 0 006.92 16.53c4.84 7.35 2.3 16.77 2.53 24.57 0 12.4-4.38 60.86 6.23 72.34 8.23-3.46 15.2-22.87 20.5-39.65a4.12 4.12 0 01.24.61s2.17-4.33 2-7.88c2.14-7 3.94-12.85 5.36-16 2.77-7.35 3.23-19.75 10.37-24.57s12.45-7.35 13.84-14l-31.35-31.92z" fill="#eef2f6"/><path d="M125.87 182.86a65.86 65.86 0 00-14.14 1q7.36-.28 14.69-1zm-15.68 1.38c.52-.13 1-.24 1.54-.35-3.64.13-7.28.17-10.92.14l.16.21zm31.59 2.53c.23 2.29 12.44 4.59 14.75 5a144.73 144.73 0 0059-5.51 207.16 207.16 0 0025.82-10.11l-9.68 2.53-9.45 3.21-4.61 1.15h-4.84l-9.69 2.07a199.4 199.4 0 01-20.05 3h-30.2L148 187h-1.84l4.61-1.61h44.49a38.32 38.32 0 007.37-1.38h-.23a74.59 74.59 0 01-10.14 0l-10.37-1.15h-35c-2.61.94-5.26 2.47-5.11 3.91z" style="isolation:isolate" opacity=".5" fill="#a5bad0"/><path d="M146.85 182.86a13.57 13.57 0 013.92-.92h-16.6c-2.58.36-5.16.66-7.75.92h20.43zm214.84 11.94l4.84 2.07 4.62 1.84L376 201l4.61 2.07 9.45 4.82 7.84 6.66c6 3.45 12.21 6.89 18.21 10.79l9 5.74 4.38 3.22h-2.08a48.84 48.84 0 01-7.6-1.38H413l2.19.69a46.29 46.29 0 0020.52 1.61 267.19 267.19 0 00-34.35-23A256.36 256.36 0 00361.23 193q-6.37-2.31-12.85-4.31l3.4 2.93zm1.62 19.75l3.22 2.3h1.85l7.38 2.29 3.91 1.15 3.69 1.15 7.38 3c4.84 2.06 9.45 4.36 14.29 6.2l7.15 2.29h.8a195.19 195.19 0 01-30.31-12.4c-6.45-2.3-12.91-4.37-19.36-5.98z" style="isolation:isolate" opacity=".5" fill="#a5bad0"/><path d="M473 123.16h-83.64L376 126.6c-9 2.3-17.75 5.05-26.28 7.81L336.8 139l-6.22 2.53-6.22 2.52-6.23 2.76-6.22 3-6.23 9.41-6 2.76a116.68 116.68 0 00-11.76 6.2l-5.3 3.9a17.67 17.67 0 00-4.38 4.82 8.06 8.06 0 000 2.3 18.9 18.9 0 003.92 3l3.52 2.34-3.06-1.88a219.67 219.67 0 0021.2 17.68A143.38 143.38 0 00358 224.2c2.31 0 14.07 2.06 15.45 0s-5.07-6-6.92-7.35h-.69a23.08 23.08 0 00-5.07-2.07c-3.23-1.38-6.69-2.3-9.91-3.44l-10.14-2.76-12-7.12a70.68 70.68 0 01-9.91-3l-3.46-1.38 3 2.07a27.33 27.33 0 006.68 3.67l7.15 3c4.61 1.6 9.45 3.44 14.29 4.82l6 1.83 4.61 1.61 4.61 1.84h2.08l3.69 3H350.4a75.24 75.24 0 01-9.68-2.75l-7.38-1.61c-6-2.52-12-5.74-18-9l-8.53-5.29-1.15-2.06-2.08-1.38-3.92-2.76-6.36-4.71 1.53-2.17h48.71q2.42.7 4.82 1.46l-1.67-1.44-1.71-.54 6.79-2.44 14.52-2.3a141.86 141.86 0 0014.29-3.21 89.32 89.32 0 0013.83-4.59 44 44 0 008.3-5.51h-18.3l3.32-.92h5.76l7.61-2.07h7.61l7.6-2.53 7.38-2.75 7.15-3.45 7.14-3.44 7.84-7.81 14.77-6.65a40.48 40.48 0 006.46-3.21l3.46-1.84h1.61l1.88-1.15 6.69-4.59 3.92-3.22a93.45 93.45 0 00-11.61-1.83zm-102.54 47.76l7.61-2.07h1.13l-4.36 2.07zm-123.79.92v-.92a1.36 1.36 0 01-.15.43c.05.17.11.33.15.49zm0-.92a4.09 4.09 0 000-2.3zM240 160.59a89.17 89.17 0 00-9-9.65 48 48 0 00-5.07-4.59l-4.84-4.59-5.09-4.82-5.07-4.37-5.07-4.36-5.31-4.36-10.14-8.5c-7.38-5.28-14.75-10.56-23-15.62l-11.76-7.57h-1.38l-4.15-3.91-3-1.83-2.76-1.61-6-3.22-6.22-3.21-6.46-3-6.68-3c-4.38-1.84-8.53-3.68-13.14-5.28a132.38 132.38 0 00-13.41-4.8 133.54 133.54 0 00-13.6-3.9 102.37 102.37 0 00-11.53-2.07l2.77 4.6 5.07 6.43v3a17.07 17.07 0 002.77 3l5.53 5.51 14.75 11 5.79 5.5 5.76 5.51 5.76 5.51 5.76 5.06 6.23 4.59 3.46 2.07 3.22 2.29 6.92 4.13 3.23 2.76 3.69 2.76 3 1.83 1.62 1.38 2.4 1.63-3.56-2.09-2.53-1.61-4.61-2.06-3.46-1.84h-9.45a38.27 38.27 0 007.37 8.73 73 73 0 0011.53 8.72 139.59 139.59 0 0012.45 7.58L175.9 159l4.29 2.21q-8.61.13-17.21.78a241.53 241.53 0 00-44.26 6.65 235.12 235.12 0 00-39.65 10.57c4.15 3.67 14.3 3.67 20.06 4.82h1.68l-2.6-3.46h-4.15l-7.61-1.15h-1.84l5.3-1.61 10.14-2.76 21.21-6.43h11.06L142.7 167H204l6.92 2.29 3.22 1.15h3.46l3.23 1.15 3.46 1.38 3.23 1.6a4.36 4.36 0 011.61 0V176l12.91-3.44c1.86 0 3.9 0 4.46-1.18a17.53 17.53 0 00-2.62-5.48 28.14 28.14 0 00-3.88-5.31z" style="isolation:isolate" opacity=".5" fill="#a5bad0"/><path d="M245.28 227.87c-.62.13-1.23.3-1.84.46h15.87l-1.12-.46zm39.42-15.61l-6 4.13a13.68 13.68 0 00-4.38 5.28 26.21 26.21 0 00-2.54 7.12c-.22.7-.41 1.42-.59 2.13l-1.48-1-3-1.61h-7.41l2.8 1.15a30 30 0 016.45 3.9l1.62 1.32v1a11 11 0 00.46 2.09v-.26l1.84-4.36a3.21 3.21 0 010-1.38l-.36-.23.36-1.37a26.55 26.55 0 012.54-7.12 14.18 14.18 0 014.61-5.74l6-4.14a21.36 21.36 0 005.3-4.82l-.83-1a29.22 29.22 0 01-5.39 4.91zm-31.35 35.82a20 20 0 00-6.46 0zm77.79-8.83c.6.47 1.18 1 1.74 1.48l1.38-.23h-1.38zM265.8 255.2v1.15l1.38-4.6 2.08-7.12 1.38-3.67v-2.4a1.63 1.63 0 01-.46.79c-1.16 1.15-.46 1.38-1.16 3.68s-2.3 4.59-2.3 7.11l-.72 2.76a6.66 6.66 0 00-2-2.3 11.26 11.26 0 00-4.61-2.52h-2.76a7.06 7.06 0 013 1.38l3 1.6 1.84 2.07a5.58 5.58 0 011.1 1.5l-.4 1.49c-1 3.47-1.95 6.76-2.95 10q1.86-5.58 3.56-11.05s0 .07.02.13zm-39.49-83.82a6.56 6.56 0 00-.62-.23h-.26l.49.23zm1.23 0h-1.23a6.13 6.13 0 012.38 1.38 3.5 3.5 0 00-1.15-1.38zm9.44 59a9.4 9.4 0 011.39-.45 37.79 37.79 0 015.07-1.61H237zM184.42 193h10.38a71.7 71.7 0 009.22-1.38l9.91-2.3h3.92l4.61-1.61a68.47 68.47 0 009.22-4.82l8.53-4.82a270.16 270.16 0 01-25.82 9.87 144.64 144.64 0 01-57.86 3.68c-2.31 0-14.29-2.53-14.75-5.28s6.68-4.14 9-4.83h-16.6a202 202 0 01-36 1.61c-5.76-1.15-15.91-1.15-20.06-5.05a260.08 260.08 0 0140.57-9.42 239 239 0 0144.31-5.54c5.8-.23 11.6-.2 17.4-.05l.59.28h3.46l3.46 1.38 13.83 4.36 6.91 2.07h16.8l-3-1.38a13.46 13.46 0 00-3.22-1.37h-6.69l-3.23.22-6.91-2.29c-2.7-.76-5.37-1.62-8-2.54 5.76.45 11.51 1 17.23 1.85a109 109 0 0129 9h1.38l.69-.69a2.24 2.24 0 000-1.15l-2.07-1.61-5.76-2.53-9.68-3.21-10.15-2.53h-23.11c-1-.38-2.09-.73-3.12-1.14l-3.23-1.38h-3.23l-6.45-3.68L163 150c-4.38-2.29-8.76-4.82-12.68-7.34a90.79 90.79 0 01-11.53-9 37 37 0 01-7.14-8.73h8.3l4.38 4.14 3.92 2.06a23.67 23.67 0 013.92 2.3l3.91 2.3 3.69 2.29-6.45-4.36-1.62-1.15-2.76-2.06-3.69-2.76-.92-.46-3.69-2.75-6.22-4.14-3.42-2.23-3.28-2.11a64.94 64.94 0 01-6.45-4.59l-6-5.06-5.76-5.51-5.76-5.51a66.71 66.71 0 01-5.54-5.74L86 78.84l-5.54-5.51-3-3v-3l-4.84-6.43-3-4.6a101.79 101.79 0 0111.53 2.1 133 133 0 0113.61 3.9 132.38 132.38 0 0113.37 4.83c4.61 1.6 9 3.44 13.14 5.28l6.45 3 6.45 3 6.23 3.21 3.92 3.22 3 1.61 3 1.83 3 1.84h3l11.07 9.64c7.61 5.06 15.21 10.34 23 15.85L201 122.7l5.07 4.36 5.3 4.36 4.84 4.6 5.07 4.59 5.07 4.59 4.84 4.6a87.18 87.18 0 019 9.64 28 28 0 013.92 5.28 18.47 18.47 0 012.54 6.2 17.74 17.74 0 00-.23-2.3v-3.21a31.46 31.46 0 00-3.46-6 46.23 46.23 0 00-3.92-5.51l-4.38-5.28-4.61-5.06-4.84-4.82a124.58 124.58 0 00-9.45-9.64l-10.61-9.19c-3.45-3-7.14-5.74-10.83-8.49l-11.29-8-11.51-7.82c-3.92-2.52-7.84-5-12-7.35h-1.38l-3-1.83-3-1.61-3.23-1.61-6.21-3.2-6.45-3.22-6.46-3-8.52-4.6-13.37-5.27-13.61-4.59-14.06-3.68a69.78 69.78 0 00-15.44-1.83h-2.31v2.06A46 46 0 0066.86 63c1.39 2.3 3 4.37 4.61 6.66l1.16 1.61v1.61l4.84 3.9 5.53 6L94.76 94l5.76 5.51 6 5.52 6.23 5.28 6.45 5 6.69 4.36 3.68 2.07h-4.38v2.53a39 39 0 009.23 12.63 79.73 79.73 0 0013.83 8.72 145.64 145.64 0 0012.91 7.81l13.14 6.66 5.73 2.75h-38.25l-10.61 1.61-9.91.23-10.37 2.07-11.3 1.83-10.59 2.8-10.38 3.67-3.45 2.3 2.76 2.3a12.07 12.07 0 004.15 2.29 14 14 0 004.15 1.15 51.77 51.77 0 008.07 0l3.92 1.61h4.15a33.9 33.9 0 008.3 0c5.3 0 10.37-1.38 15.44-2.07h16.6a4.17 4.17 0 00-1.61 1.84v1.61a4.32 4.32 0 001.61 1.83l1.61 3.68h2.77l5.3 1.38H163a89.1 89.1 0 0010.84 0 81.51 81.51 0 0010.58.03zm241.13 42.94h.57c-.36 0-.73-.07-1.09-.11zm-117.8-21.36l-9.45-9.87-10.14-10.8-10.61-11-11.75-12.4 7.84-4.36 6.22-3.45 6.22-3.21 11.07-6.66a78 78 0 008.53-5.51 37.17 37.17 0 006-6 16.51 16.51 0 002.54-4.82 18.39 18.39 0 01-3 4.36 35.74 35.74 0 01-5.53 4.82 53.53 53.53 0 01-9 5.74l-11.53 5.51-6.45 3-6.46 3.44-9 5.28-6.68-6.88-5.07-5.29a51.42 51.42 0 00-5.08-4.82l-9.91-9.18c-2.3-2.76-4.61-5.51-6.68-8.5a42.87 42.87 0 01-3.92-7.12 22 22 0 01-.46-4.13 19.45 19.45 0 000 5.28 48 48 0 003.68 7.81 104.35 104.35 0 006.23 9c2.53 3 5.3 6.43 8.3 9.65l4.84 5.05 4.84 5.51 6 6.43-15.21 8-13.6 7.12-12.45 5.05-12.22 6.2L195 203.3l-16.6 7.81-4.61 2.29 4.84-1.6 7.61-2.76 9.68-3.9a115.25 115.25 0 0011.3-5.06l12.44-5.74 5.77-2.75a12.38 12.38 0 000 3 28.68 28.68 0 003 7.35c1.16 2.07 2.77 4.13 4.15 6.43a17.24 17.24 0 012.08 6.89 109.39 109.39 0 010 14.93v1.14a62.68 62.68 0 010 6.43v37.43a105.34 105.34 0 001.61 14.93 45.64 45.64 0 001.61 7.58 27.46 27.46 0 003.69 6.66 15.53 15.53 0 005.77-5 39.19 39.19 0 004.15-6.43 127.09 127.09 0 006.22-13.78c1.6-4.26 3-8.54 4.43-13-1.13 3.38-2.29 6.78-3.51 10.22a145.43 145.43 0 01-6.22 13.55 29.08 29.08 0 01-4.15 6.2 15.38 15.38 0 01-4.84 4.59 16 16 0 01-3.23-6.2 38.52 38.52 0 01-1.61-7.11 110.1 110.1 0 01-1.58-14.98v-42a9.93 9.93 0 00-1.38.7v-14.7a20.86 20.86 0 00-2.31-7.58l-4.15-6.2a43.64 43.64 0 01-2.76-6.89 18 18 0 010-3.44l6.91-3.45 13.6-7.12 13.84-7.34 2.07-1.15 1.61 1.83 5.54 6 1.61 2.07 1.61 2.07 3.69 4.13 1.85 1.84 1.84 1.84 2.08 1.83H284v1.38l7.61 7.81a10.56 10.56 0 01-1.85 3l.32.38s.1-.09.14-.15a12.47 12.47 0 001.62-3l2.3 2.29 9.91 9.42 9 8.5 7.84 6.66 7.84 6.42-12.91-13.08zm169.67-78.07l-1.85 1.37L474 139l-.77.46h1.46l6.69-4.59 4.15-3.45c-.41-.08-.81-.13-1.22-.2-.14.14-.26.3-.4.43zm-197.79 40.38a23.32 23.32 0 013-4.8 20 20 0 00-1.36 1.82 12.13 12.13 0 00-1.64 2.98zm187.42-41.1l-7.15 3.67-14.06 6.2-7.15 3.45-7.38 3.44-7.14 3.45-7.38 3-7.38 2.3h-7.6l-7.81 1.81h-5.53l-4.38 5.52h-5.3l-7.84 2.06h13.14a14.62 14.62 0 014.38 0h14.29a36.39 36.39 0 01-9.45 6 81.79 81.79 0 01-13.83 4.82c-4.84 1.38-9.45 2.3-14.3 3.22L350.63 187h.46l14.76-2.3c4.84 0 9.91-1.84 14.75-3.22a105.06 105.06 0 0014.29-5.28 38.48 38.48 0 0012.68-7.57l1.84-2.07h1.39a50.56 50.56 0 007.84-2.07l7.6-2.52 7.61-3.22 7.38-3.21 7.14-3.45 14.76-6.89 7.37-4.13 2.69-1.61h-2zm-184.44 36.3zM490.1 122.7h-1.39a103 103 0 00-14.29-2.53h-64.54l-7.15 2.53H388.9l-14.06 5.74-13.37 3.67-13.37 4.14-13.1 4.59-12.22 4.82-12.22 6.2-4.84 3.68-6 3.21-5.77 3.68a34.76 34.76 0 00-5.53 4.13 32.51 32.51 0 00-5.07 4.59c-.25.29-.45.62-.69.92l5.76-3.44a120.23 120.23 0 0111.76-6.2l5.53-3.22 6-2.76 6.23-3 6.22-2.76 6.23-2.52 6.91-2.53 12.91-4.59c8.53-2.76 17.52-5.51 26.28-7.81l13.37-3.44H474a96.72 96.72 0 0110.31 1.4 46.38 46.38 0 005.83-7.14zm-62 104l-9-6-9.23-5.7-9.22-5.28-9.45-5-9.45-5.05-4.84-2.07-5.07-2.3-4.84-1.87-5.07-1.84-10.14-3.45-5.07-1.37-5.07-1.61-9.92-2.53h-5.07l-5.3-1.15h-1.79a273.29 273.29 0 0139.37 11.26A237.86 237.86 0 01399 212a266.4 266.4 0 0134.34 23 12.44 12.44 0 01-4.32.92h.87a15.49 15.49 0 004.61 0l3.23-1.61-.93-.69a82.18 82.18 0 00-8.72-6.9zm-47.71-6.43l-16.83-5.74 3 1.84c1.85 1.38 8.07 5.28 6.92 7.35a1.25 1.25 0 01-.23.23h.69v-1.84a5 5 0 00-1.15-1.84 4.08 4.08 0 00-1.15-1.6h1.84l7.38 2.75 6.91 3.22c4.61 2.29 9.22 4.82 14.06 6.88a45.61 45.61 0 007.84 2.76h6.77c-1.27-.31-2.48-.62-3.54-.92a244.88 244.88 0 01-32.53-13.07zm-7.17 3.73h-12.55c4.1.41 11.05 1.25 12.55 0zm-90.59-43.86l.23 1.37h36.7c-2.24-.46-4.48-1-6.74-1.37a99.22 99.22 0 00-30.19-.03zm21 20.66a251.27 251.27 0 01-21-18.14 96 96 0 006.45 7.35l7.15 7.12 3.91 3.21h1.16l2.3 1.61 8.53 5.51 9 5.06 4.61 2.29 4.84 2.3 9.92 3.9 10.37 3h9.81c-1.2-.13-2.17-.23-2.67-.23a143.6 143.6 0 01-54.41-23.01zm-6.71-13.8a6 6 0 00-3.46 0 4 4 0 011.62 0zm119.49 47.3a58.08 58.08 0 008.62 1.5l-7.55-1.5z" fill="#009ddc"/></svg>