<svg xmlns="http://www.w3.org/2000/svg" viewBox="0 0 48 48"><path fill="currentColor" d="M28 18H20C19.4696 18 18.9609 18.2107 18.5858 18.5858C18.2107 18.9609 18 19.4696 18 20V28C18 28.5304 18.2107 29.0391 18.5858 29.4142C18.9609 29.7893 19.4696 30 20 30H28C28.5304 30 29.0391 29.7893 29.4142 29.4142C29.7893 29.0391 30 28.5304 30 28V20C30 19.4696 29.7893 18.9609 29.4142 18.5858C29.0391 18.2107 28.5304 18 28 18ZM26 26H22V22H26V26ZM42 26C42.5304 26 43.0391 25.7893 43.4142 25.4142C43.7893 25.0391 44 24.5304 44 24C44 23.4696 43.7893 22.9609 43.4142 22.5858C43.0391 22.2107 42.5304 22 42 22H38V18H42C42.5304 18 43.0391 17.7893 43.4142 17.4142C43.7893 17.0391 44 16.5304 44 16C44 15.4696 43.7893 14.9609 43.4142 14.5858C43.0391 14.2107 42.5304 14 42 14H37.64C37.3414 13.1612 36.8598 12.3994 36.2302 11.7698C35.6006 11.1402 34.8388 10.6586 34 10.36V6C34 5.46957 33.7893 4.96086 33.4142 4.58579C33.0391 4.21071 32.5304 4 32 4C31.4696 4 30.9609 4.21071 30.5858 4.58579C30.2107 4.96086 30 5.46957 30 6V10H26V6C26 5.46957 25.7893 4.96086 25.4142 4.58579C25.0391 4.21071 24.5304 4 24 4C23.4696 4 22.9609 4.21071 22.5858 4.58579C22.2107 4.96086 22 5.46957 22 6V10H18V6C18 5.46957 17.7893 4.96086 17.4142 4.58579C17.0391 4.21071 16.5304 4 16 4C15.4696 4 14.9609 4.21071 14.5858 4.58579C14.2107 4.96086 14 5.46957 14 6V10.36C13.1612 10.6586 12.3994 11.1402 11.7698 11.7698C11.1402 12.3994 10.6586 13.1612 10.36 14H6C5.46957 14 4.96086 14.2107 4.58579 14.5858C4.21071 14.9609 4 15.4696 4 16C4 16.5304 4.21071 17.0391 4.58579 17.4142C4.96086 17.7893 5.46957 18 6 18H10V22H6C5.46957 22 4.96086 22.2107 4.58579 22.5858C4.21071 22.9609 4 23.4696 4 24C4 24.5304 4.21071 25.0391 4.58579 25.4142C4.96086 25.7893 5.46957 26 6 26H10V30H6C5.46957 30 4.96086 30.2107 4.58579 30.5858C4.21071 30.9609 4 31.4696 4 32C4 32.5304 4.21071 33.0391 4.58579 33.4142C4.96086 33.7893 5.46957 34 6 34H10.36C10.6586 34.8388 11.1402 35.6006 11.7698 36.2302C12.3994 36.8598 13.1612 37.3414 14 37.64V42C14 42.5304 14.2107 43.0391 14.5858 43.4142C14.9609 43.7893 15.4696 44 16 44C16.5304 44 17.0391 43.7893 17.4142 43.4142C17.7893 43.0391 18 42.5304 18 42V38H22V42C22 42.5304 22.2107 43.0391 22.5858 43.4142C22.9609 43.7893 23.4696 44 24 44C24.5304 44 25.0391 43.7893 25.4142 43.4142C25.7893 43.0391 26 42.5304 26 42V38H30V42C30 42.5304 30.2107 43.0391 30.5858 43.4142C30.9609 43.7893 31.4696 44 32 44C32.5304 44 33.0391 43.7893 33.4142 43.4142C33.7893 43.0391 34 42.5304 34 42V37.64C34.8388 37.3414 35.6006 36.8598 36.2302 36.2302C36.8598 35.6006 37.3414 34.8388 37.64 34H42C42.5304 34 43.0391 33.7893 43.4142 33.4142C43.7893 33.0391 44 32.5304 44 32C44 31.4696 43.7893 30.9609 43.4142 30.5858C43.0391 30.2107 42.5304 30 42 30H38V26H42ZM34 32C34 32.5304 33.7893 33.0391 33.4142 33.4142C33.0391 33.7893 32.5304 34 32 34H16C15.4696 34 14.9609 33.7893 14.5858 33.4142C14.2107 33.0391 14 32.5304 14 32V16C14 15.4696 14.2107 14.9609 14.5858 14.5858C14.9609 14.2107 15.4696 14 16 14H32C32.5304 14 33.0391 14.2107 33.4142 14.5858C33.7893 14.9609 34 15.4696 34 16V32Z"/></svg>