<svg xmlns="http://www.w3.org/2000/svg" viewBox="0 0 48 48"><path fill="currentColor" d="M26.6 24.44C27.6672 23.5163 28.5231 22.3738 29.1097 21.09C29.6964 19.8063 30 18.4114 30 17C30 14.3478 28.9464 11.8043 27.0711 9.92893C25.1957 8.05357 22.6522 7 20 7C17.3478 7 14.8043 8.05357 12.9289 9.92893C11.0536 11.8043 10 14.3478 10 17C9.99998 18.4114 10.3036 19.8063 10.8903 21.09C11.4769 22.3738 12.3328 23.5163 13.4 24.44C10.6003 25.7078 8.22493 27.7551 6.55796 30.3371C4.89099 32.9191 4.00294 35.9266 4 39C4 39.5304 4.21071 40.0391 4.58579 40.4142C4.96086 40.7893 5.46957 41 6 41C6.53043 41 7.03914 40.7893 7.41421 40.4142C7.78929 40.0391 8 39.5304 8 39C8 35.8174 9.26428 32.7652 11.5147 30.5147C13.7652 28.2643 16.8174 27 20 27C23.1826 27 26.2348 28.2643 28.4853 30.5147C30.7357 32.7652 32 35.8174 32 39C32 39.5304 32.2107 40.0391 32.5858 40.4142C32.9609 40.7893 33.4696 41 34 41C34.5304 41 35.0391 40.7893 35.4142 40.4142C35.7893 40.0391 36 39.5304 36 39C35.9971 35.9266 35.109 32.9191 33.442 30.3371C31.7751 27.7551 29.3997 25.7078 26.6 24.44V24.44ZM20 23C18.8133 23 17.6533 22.6481 16.6666 21.9888C15.6799 21.3295 14.9108 20.3925 14.4567 19.2961C14.0026 18.1997 13.8838 16.9933 14.1153 15.8295C14.3468 14.6656 14.9182 13.5965 15.7574 12.7574C16.5965 11.9182 17.6656 11.3468 18.8295 11.1153C19.9933 10.8838 21.1997 11.0026 22.2961 11.4567C23.3925 11.9108 24.3295 12.6799 24.9888 13.6666C25.6481 14.6533 26 15.8133 26 17C26 18.5913 25.3679 20.1174 24.2426 21.2426C23.1174 22.3679 21.5913 23 20 23ZM43.42 18.26C43.2341 18.0725 43.0129 17.9238 42.7692 17.8222C42.5254 17.7207 42.264 17.6684 42 17.6684C41.736 17.6684 41.4746 17.7207 41.2308 17.8222C40.9871 17.9238 40.7659 18.0725 40.58 18.26L36.58 22.26L35.34 21C35.1541 20.8125 34.9329 20.6638 34.6892 20.5622C34.4454 20.4607 34.184 20.4084 33.92 20.4084C33.656 20.4084 33.3946 20.4607 33.1508 20.5622C32.9071 20.6638 32.6859 20.8125 32.5 21C32.1275 21.3747 31.9184 21.8816 31.9184 22.41C31.9184 22.9384 32.1275 23.4453 32.5 23.82L35.18 26.5C35.5547 26.8725 36.0616 27.0816 36.59 27.0816C37.1184 27.0816 37.6253 26.8725 38 26.5L43.34 21.16C43.5419 20.9786 43.7048 20.7581 43.8188 20.5118C43.9327 20.2654 43.9954 19.9985 44.0028 19.7272C44.0103 19.4559 43.9625 19.1859 43.8623 18.9336C43.7621 18.6814 43.6116 18.4522 43.42 18.26V18.26Z"/></svg>