<svg xmlns="http://www.w3.org/2000/svg" viewBox="0 0 48 48"><path fill="currentColor" d="M28.5859 8.58594C29.367 7.80489 30.633 7.80489 31.4141 8.58594L44.0146 21.1855C44.6476 21.8169 45.1494 22.5669 45.4922 23.3926C45.8353 24.219 46.0117 25.1051 46.0117 26L46.0039 26.335C45.9654 27.1154 45.7924 27.8842 45.4922 28.6074C45.1494 29.4329 44.6464 30.1823 44.0137 30.8135L35.4141 39.4141C34.633 40.1951 33.367 40.1951 32.5859 39.4141C31.8049 38.633 31.8049 37.367 32.5859 36.5859L41.1855 27.9854L41.1885 27.9834C41.4494 27.7234 41.6565 27.4144 41.7979 27.0742C41.9392 26.7339 42.0117 26.3685 42.0117 26C42.0117 25.6315 41.9392 25.2661 41.7979 24.9258C41.6565 24.5856 41.4494 24.2766 41.1885 24.0166L41.1855 24.0146L28.5859 11.4141C27.8049 10.633 27.8049 9.36699 28.5859 8.58594ZM18.1973 8.00977C18.6553 8.05515 19.0858 8.25765 19.4141 8.58594L31.9941 21.166C34.6551 23.827 34.6551 28.173 31.9941 30.834L24.834 37.9941C22.173 40.6551 17.827 40.6551 15.166 37.9941L2.58594 25.4141C2.21086 25.039 2 24.5304 2 24V10C2 8.89543 2.89543 8 4 8H18L18.1973 8.00977ZM6 23.1719L17.9941 35.166C19.0931 36.2649 20.9069 36.2649 22.0059 35.166L29.166 28.0059C30.2649 26.9069 30.2649 25.0931 29.166 23.9941L17.1719 12H6V23.1719ZM12 16C13.1046 16 14 16.8954 14 18V18.0195C14 19.1241 13.1046 20.0195 12 20.0195C10.8954 20.0195 10 19.1241 10 18.0195V18C10 16.8954 10.8954 16 12 16Z"/></svg>