<svg xmlns="http://www.w3.org/2000/svg" viewBox="0 0 48 48"><path fill="currentColor" d="M40.62,5.35H7.38c-2.59,0-4.7,2.04-4.7,4.54v22.72c0,2.5,2.11,4.54,4.7,4.54h7.67v1.46c0,2.24,1.83,4.05,4.07,4.05h9.55c2.25,0,4.07-1.82,4.07-4.05v-1.46h7.87c2.59,0,4.7-2.04,4.7-4.54V9.88c0-2.5-2.11-4.54-4.7-4.54ZM41.32,32.61c0,.29-.32.54-.7.54h-9.87c-1.1,0-2,.9-2,2l-.07,3.51-9.63-.05v-3.46c0-1.1-.9-2-2-2H7.38c-.38,0-.7-.25-.7-.54V9.88c0-.29.32-.54.7-.54h2.2v6.23c0,1.1.9,2,2,2s2-.9,2-2v-6.23h4.33v6.23c0,1.1.9,2,2,2s2-.9,2-2v-6.23h4.33v6.23c0,1.1.9,2,2,2s2-.9,2-2v-6.23h4.33v6.23c0,1.1.9,2,2,2s2-.9,2-2v-6.23h2.04c.38,0,.7.25.7.54v22.72Z"/></svg>