<svg xmlns="http://www.w3.org/2000/svg" viewBox="0 0 48 48"><path fill="currentColor" d="M43.4,14.6l-10-10c-.4-.4-.9-.6-1.4-.6H10c-1.6,0-3.1,.6-4.2,1.8-1.1,1.1-1.8,2.6-1.8,4.2v28c0,1.6,.6,3.1,1.8,4.2,1.1,1.1,2.6,1.8,4.2,1.8h28c1.6,0,3.1-.6,4.2-1.8s1.8-2.6,1.8-4.2V16c0-.5-.2-1-.6-1.4Zm-11.4,25.4H16v-12h16v12Zm8-2c0,.5-.2,1-.6,1.4s-.9,.6-1.4,.6h-2v-14c0-1.1-.9-2-2-2H14c-1.1,0-2,.9-2,2v14h-2c-.5,0-1-.2-1.4-.6-.4-.4-.6-.9-.6-1.4V10c0-.5,.2-1,.6-1.4,.4-.4,.9-.6,1.4-.6h2v8c0,1.1,.9,2,2,2H30c1.1,0,2-.9,2-2s-.9-2-2-2h-14v-6h15.2l8.8,8.8v21.2Z"/></svg>