<svg xmlns="http://www.w3.org/2000/svg" viewBox="0 0 48 48"><path fill="currentColor" d="M40.2,19.8c-1.1-1.1-2.7-1.8-4.2-1.8h-4c-.5,0-1,.2-1.4,.6-.4,.4-.6,.9-.6,1.4s.2,1,.6,1.4c.4,.4,.9,.6,1.4,.6h4c.5,0,1,.2,1.4,.6,.4,.4,.6,.9,.6,1.4v14c0,.5-.2,1-.6,1.4-.4,.4-.9,.6-1.4,.6H12c-.5,0-1-.2-1.4-.6s-.6-.9-.6-1.4v-14c0-.5,.2-1,.6-1.4,.4-.4,.9-.6,1.4-.6h4c.5,0,1-.2,1.4-.6,.4-.4,.6-.9,.6-1.4s-.2-1-.6-1.4-.9-.6-1.4-.6h-4c-1.6,0-3.1,.6-4.2,1.8-1.1,1.1-1.8,2.7-1.8,4.2v14c0,1.6,.6,3.1,1.8,4.2,1.1,1.1,2.7,1.8,4.2,1.8h24c1.6,0,3.1-.6,4.2-1.8,1.1-1.1,1.8-2.7,1.8-4.2v-14c0-1.6-.6-3.1-1.8-4.2Zm-22.2-5.7c.5,0,1-.2,1.4-.6l2.6-2.6v23.2c0,.5,.2,1,.6,1.4,.4,.4,.9,.6,1.4,.6s1-.2,1.4-.6c.4-.4,.6-.9,.6-1.4V10.8l2.6,2.6c.2,.2,.4,.3,.7,.4,.2,.1,.5,.2,.8,.2s.5,0,.8-.2c.2-.1,.5-.3,.7-.4,.2-.2,.3-.4,.4-.7,.1-.2,.2-.5,.2-.8s0-.5-.2-.8c-.1-.2-.3-.5-.4-.7l-6-6c-.2-.2-.4-.3-.7-.4-.2-.1-.5-.2-.8-.2s-.5,0-.8,.2c-.2,.1-.5,.3-.7,.4l-6,6c-.4,.4-.6,.9-.6,1.4s.2,1,.6,1.4,.9,.6,1.4,.6Z"/></svg>