<svg xmlns="http://www.w3.org/2000/svg" viewBox="0 0 48 48"><path fill="currentColor" d="M24.0562 3.91086L24.0063 3.88086L6.45625 13.9109L6.40625 13.9409V34.0609L23.9562 44.0909L24.0063 44.1209L39.5262 35.2409L39.5662 35.2709V35.2209L41.5363 34.0909L41.5863 34.0609V13.9409L24.0562 3.91086ZM37.6463 29.6409L32.6862 26.7709V20.0209L24.9662 24.6009V33.7809L30.8962 30.2609L35.5262 32.9309L24.0063 39.4409L12.4563 32.9109L17.0863 30.2409L23.0562 33.7809V24.6009L15.3363 20.0209V26.7309L10.3562 29.6109V16.2709L22.0163 9.68086V14.9509L16.0363 18.4109L23.9762 22.9909L31.9363 18.4109L25.9363 14.9409V9.63086L37.6562 16.2709V29.6309L37.6463 29.6409Z"/></svg>