<svg xmlns="http://www.w3.org/2000/svg" viewBox="0 0 48 48"><path fill="currentColor" d="M16.87,17.36h3.88c.18,0,.35-.16.35-.35v-3.47c0-.18-.14-.35-.35-.35h-3.88c-.18,0-.35.14-.35.35v3.47c0,.19.14.35.35.35ZM22.24,17.36h3.88c.18,0,.35-.16.35-.35v-3.47c0-.18-.16-.35-.35-.35h-3.88c-.18,0-.35.14-.35.35v3.47c0,.19.16.35.35.35ZM27.64,22.32h3.88c.18,0,.35-.14.35-.35v-3.47c0-.18-.14-.35-.35-.35h-3.88c-.18,0-.35.14-.35.35v3.47c.02.2.16.35.35.35ZM22.24,12.38h3.88c.18,0,.35-.14.35-.35v-3.47c0-.18-.16-.35-.35-.35h-3.88c-.18,0-.35.14-.35.35v3.47c0,.18.16.35.35.35ZM22.24,22.32h3.88c.18,0,.35-.14.35-.35v-3.47c0-.18-.14-.35-.35-.35h-3.88c-.18,0-.35.14-.35.35v3.47c0,.2.16.35.35.35ZM6.07,22.32h3.88c.18,0,.35-.14.35-.35v-3.47c0-.18-.14-.35-.35-.35h-3.88c-.18,0-.35.14-.35.35v3.47c.02.2.16.35.35.35ZM45.58,20.15c-.12-.1-1.22-.94-3.59-.94-.61,0-1.25.06-1.86.16-.45-3.12-3.04-4.63-3.14-4.71l-.63-.37-.41.59c-.51.8-.9,1.69-1.12,2.61-.43,1.78-.16,3.45.73,4.88-1.08.61-2.84.76-3.21.78H3.37c-.76,0-1.37.61-1.37,1.37-.04,2.53.39,5.06,1.26,7.45,1,2.61,2.49,4.55,4.41,5.73,2.16,1.32,5.69,2.08,9.67,2.08,1.79,0,3.59-.16,5.37-.49,2.47-.45,4.84-1.31,7.02-2.55,1.8-1.04,3.41-2.37,4.78-3.92,2.31-2.59,3.67-5.49,4.67-8.06h.41c2.51,0,4.06-1,4.92-1.86.57-.53,1-1.19,1.31-1.92l.18-.53-.42-.3ZM16.87,22.32h3.88c.18,0,.35-.14.35-.35v-3.47c0-.18-.14-.35-.35-.35h-3.88c-.18,0-.35.14-.35.35v3.47c0,.2.14.35.35.35ZM11.42,17.36h3.88c.18,0,.35-.16.35-.35v-3.47c0-.18-.14-.35-.35-.35h-3.88c-.18,0-.35.14-.35.35v3.47c.02.19.16.35.35.35ZM11.42,22.32h3.88c.18,0,.35-.14.35-.35v-3.47c0-.18-.14-.35-.35-.35h-3.88c-.18,0-.35.14-.35.35v3.47c.02.2.16.35.35.35Z"/></svg>