<svg xmlns="http://www.w3.org/2000/svg" viewBox="0 0 48 48"><path fill="currentColor" d="M12.49,16.93s0-.03,0-.05h0s0,.05,0,.05ZM41.24,28.07c-.05,0-.11,0-.11-.06s-.11-.06-.22-.06c-.22-.06-.44-.06-.66-.06-.11,0-.22,0-.33-.06h-.05c-.61-.06-1.26-.17-1.87-.34-.16-.06-.33-.23-.38-.4l-.44-.11c.22-1.65.11-3.35-.22-5-.38-1.65-1.04-3.24-1.92-4.66l.33-.34v-.06c0-.17.05-.4.16-.51.49-.45.99-.8,1.54-1.14.11-.06.22-.11.33-.17.22-.11.38-.23.61-.34.05-.06.11-.06.16-.11s0-.06,0-.11c.49-.4.61-1.08.22-1.59-.16-.23-.49-.4-.77-.4s-.55.11-.77.28l-.05.06c-.05.06-.11.11-.16.11-.16.17-.33.34-.44.51-.05.11-.16.17-.22.23-.38.45-.88.91-1.37,1.25-.11.06-.22.11-.33.11-.05,0-.16,0-.22-.06h-.05l-.44.28c-.44-.45-.93-.91-1.37-1.36-2.03-1.65-4.55-2.67-7.14-2.95l-.05-.45v.06c-.16-.11-.22-.28-.27-.45,0-.63,0-1.25.11-1.93v-.06c0-.11.05-.23.05-.34.05-.23.05-.45.11-.68v-.35c.05-.57-.38-1.14-.93-1.19-.33-.06-.66.11-.93.4-.22.23-.33.51-.33.8v.28c0,.23.05.45.11.68.05.11.05.23.05.34v.06c.11.63.11,1.25.11,1.93-.05.17-.11.34-.27.45v.11l-.05.45c-.61.06-1.21.17-1.87.28-2.58.57-4.94,1.99-6.75,3.98l-.33-.23h-.05c-.05,0-.11.06-.22.06s-.22-.06-.33-.11c-.49-.4-.99-.85-1.37-1.31-.05-.11-.16-.17-.22-.23-.16-.17-.27-.34-.44-.51-.05-.06-.11-.06-.16-.11l-.05-.06c-.22-.17-.49-.28-.77-.28-.33,0-.61.11-.77.4-.33.51-.22,1.19.22,1.59.05,0,.05.06.05.06,0,0,.11.11.16.11.16.11.38.23.61.34.11.06.22.11.33.17.55.34,1.1.68,1.54,1.14.1.1.19.3.17.46l.32.33c-.05.11-.11.17-.16.28-1.7,2.78-2.41,6.08-1.92,9.31l-.44.11c0,.06-.05.06-.05.06-.05.17-.22.28-.38.4-.61.17-1.21.28-1.87.34-.11,0-.22,0-.33.06-.22,0-.44.06-.66.06-.05,0-.11.06-.22.06q-.05,0-.11.06c-.61.11-.99.68-.88,1.31.11.51.61.85,1.1.8.11,0,.16,0,.27-.06q.05,0,.05-.06c0-.06.16,0,.22,0,.22-.06.44-.17.61-.23.11-.06.22-.11.33-.11h.05c.61-.23,1.15-.4,1.81-.51h.05c.16,0,.33.06.44.17.05,0,.05.06.05.06l.49-.06c.82,2.61,2.36,4.94,4.5,6.64.49.4.93.74,1.48,1.02l-.27.4c0,.06.05.06.05.06.11.17.11.4.05.57-.22.57-.55,1.14-.88,1.65v.06c-.05.11-.11.17-.22.28-.11.11-.22.34-.38.57-.05.06-.05.11-.11.17,0,0,0,.06-.05.06-.27.57-.05,1.25.44,1.53.11.06.27.11.38.11.44,0,.82-.28,1.04-.68,0,0,0-.06.05-.06,0-.06.05-.11.11-.17.05-.23.16-.4.22-.63l.11-.34c.16-.63.44-1.19.71-1.76.11-.17.27-.28.44-.34q.05,0,.05-.06l.22-.45c1.54.63,3.13.91,4.77.91.99,0,1.98-.11,2.96-.4.61-.11,1.21-.34,1.76-.51l.22.4q.05,0,.05.06c.16.06.33.17.44.34.27.57.55,1.14.71,1.76v.06l.11.34c.05.23.11.45.22.63.05.06.05.11.11.17,0,0,0,.06.05.06.22.4.61.68,1.04.68.16,0,.27-.06.44-.11.22-.11.44-.34.49-.63.05-.28.05-.57-.05-.85,0-.06-.05-.06-.05-.06,0-.06-.05-.11-.11-.17-.11-.23-.22-.4-.38-.57-.05-.11-.11-.17-.22-.28v-.11c-.38-.51-.66-1.08-.88-1.65-.05-.17-.05-.4.05-.57,0-.06.05-.06.05-.06l-.16-.45c2.8-1.76,4.94-4.49,5.93-7.72l.44.06c.05,0,.05-.06.05-.06.11-.11.27-.17.44-.17h.05c.61.11,1.21.28,1.76.51h.05c.11.06.22.11.33.11.22.11.38.23.61.28.05,0,.11.06.22.06q.05,0,.11.06c.11.06.16.06.27.06.49,0,.93-.34,1.1-.8-.05-.61-.49-1.07-.98-1.18ZM31.36,17.17l-4.5,3.29c-.38.23-.93.17-1.21-.23-.11-.11-.16-.23-.16-.4l-.33-5.73c2.41.28,4.55,1.36,6.2,3.06ZM23.08,23.3h1.65l1.04,1.36-.39,1.65-1.48.74-1.48-.74-.38-1.65,1.04-1.36ZM21.43,14.27l1.1-.23-.27,5.68c0,.51-.44.91-.93.91-.16,0-.27-.06-.44-.11l-4.55-3.35c1.42-1.42,3.18-2.44,5.1-2.9ZM14.73,19.27l4.06,3.75c.38.34.44.91.11,1.31-.11.17-.22.23-.44.28l-5.32,1.59c-.17-2.38.38-4.82,1.59-6.92ZM20.11,29.21l-2.09,5.23c-1.92-1.31-3.46-3.3-4.23-5.57l5.43-.97c.44,0,.88.28.93.74.05.17.05.4-.05.57ZM26.26,35.9c-.77.17-1.54.28-2.36.28-1.15,0-2.36-.23-3.46-.57l2.69-5.06c.27-.34.71-.45,1.1-.23.16.11.27.23.44.4l2.64,4.94c-.34.06-.66.12-1.05.23ZM32.96,30.97c-.82,1.36-1.98,2.55-3.29,3.41l-2.14-5.34c-.11-.45.11-.91.49-1.08.16-.06.33-.11.49-.11l5.49.97c-.27.79-.6,1.53-1.04,2.16ZM34.55,26.19l-5.21-1.53c-.49-.11-.77-.63-.66-1.14.05-.17.11-.28.22-.4l4.12-3.86c.61,1.02,1.05,2.16,1.32,3.35.27,1.19.33,2.38.22,3.58ZM47.17,28.67v-.06s-.02-.06-.02-.06l-3.83-17.02v-.04s-.02-.04-.02-.04c-.35-1.17-1.19-2.09-2.18-2.63h-.02s-.02-.02-.02-.02L25.73,1.19c-.64-.33-1.31-.38-1.79-.38-.37,0-.98,0-1.56.14l-.12.03-.11.06-15.35,7.65c-1.08.53-1.86,1.5-2.14,2.73h0S.88,28.55.88,28.55v.03s-.01.03-.01.03c-.2,1.2.07,2.4.75,3.38l.02.03.02.03,10.62,13.58.04.05.04.04c.8.83,1.93,1.39,3.1,1.46h.04s16.92,0,16.92,0c1.32.11,2.52-.51,3.28-1.56h0s10.62-13.58,10.62-13.58l.02-.03.02-.03c.68-.99.94-2.17.81-3.32ZM44.39,30.61l-10.58,13.54-.02.02-.02.02c-.32.46-.77.64-1.2.59h-.07s-16.92,0-16.92,0c-.51-.04-1.07-.29-1.47-.7L3.58,30.61c-.28-.41-.41-.89-.38-1.39l.03-.21,3.76-17.06c.12-.54.44-.91.86-1.11h.02s15.2-7.59,15.2-7.59c.21-.04.49-.05.87-.05.32,0,.55.04.71.13h.01s15.31,7.59,15.31,7.59c.5.28.86.7,1.01,1.18l3.8,16.89c.06.6-.08,1.16-.4,1.62Z"/></svg>