<svg xmlns="http://www.w3.org/2000/svg" viewBox="0 0 48 48"><path fill="currentColor" d="M28.73,15.84c1,0,1.81-.81,1.81-1.81s-.81-1.81-1.81-1.81-1.81.81-1.81,1.81.81,1.81,1.81,1.81ZM28.73,13.35c.38,0,.69.31.69.69s-.31.69-.69.69-.69-.31-.69-.69.31-.69.69-.69ZM20.01,15.84c1,0,1.81-.81,1.81-1.81s-.81-1.81-1.81-1.81-1.81.81-1.81,1.81.81,1.81,1.81,1.81ZM20.01,13.35c.38,0,.69.31.69.69s-.31.69-.69.69-.69-.31-.69-.69.31-.69.69-.69ZM39.37,10.46l-11.82-7.45c-2.15-1.36-4.93-1.36-7.09,0l-11.82,7.45c-1.94,1.23-3.11,3.33-3.11,5.62v15.82c0,2.3,1.16,4.4,3.11,5.62l11.82,7.45c1.08.68,2.31,1.02,3.54,1.02s2.47-.34,3.54-1.02l11.82-7.45c1.94-1.23,3.11-3.33,3.11-5.62v-15.82c0-2.3-1.16-4.4-3.11-5.62ZM41.14,31.91c0,1.84-.93,3.52-2.48,4.5l-11.82,7.45c-1.72,1.08-3.94,1.08-5.66,0l-11.82-7.45c-1.55-.98-2.48-2.66-2.48-4.5v-15.82c0-1.84.93-3.52,2.48-4.5l11.82-7.45c.86-.54,1.85-.81,2.83-.81s1.97.27,2.83.81l11.82,7.45c1.55.98,2.48,2.66,2.48,4.5v15.82ZM19.18,27.21c-.31-.36-.7-.63-1.15-.84-.45-.2-.97-.3-1.55-.3s-1.09.1-1.55.3c-.45.2-.84.48-1.15.84-.31.36-.55.77-.72,1.26-.17.47-.25.99-.25,1.55s.08,1.05.25,1.53c.17.47.41.88.72,1.22.31.35.7.62,1.15.83.46.2.98.29,1.55.29s1.1-.1,1.55-.29c.45-.2.84-.48,1.15-.83.31-.35.55-.76.72-1.22.17-.47.25-.98.25-1.53s-.08-1.07-.25-1.55c-.17-.48-.41-.9-.72-1.26ZM18.4,30.93c-.07.29-.18.56-.34.8-.16.24-.37.43-.63.58-.26.14-.57.21-.94.21s-.68-.07-.94-.21c-.26-.15-.47-.34-.63-.58-.16-.24-.28-.5-.36-.8-.07-.3-.1-.61-.1-.92s.03-.65.1-.95c.08-.31.2-.58.36-.82.16-.24.37-.44.63-.58.26-.15.57-.22.94-.22s.68.07.94.22c.26.14.47.33.63.58.16.24.28.51.34.82.08.31.11.62.11.95s-.04.62-.11.92ZM30.54,19.64c0-1-.81-1.81-1.81-1.81h0c-.43,0-.82.15-1.13.4l-1.55-1.05c.08-.2.12-.42.12-.65,0-.8-.52-1.48-1.25-1.72v-.93c.72-.24,1.25-.92,1.25-1.72,0-1-.81-1.81-1.81-1.81s-1.81.81-1.81,1.81c0,.8.52,1.48,1.25,1.72v.93c-.72.24-1.25.92-1.25,1.72,0,.17.02.34.07.5l-1.58,1.14c-.29-.21-.65-.33-1.04-.33-1,0-1.81.81-1.81,1.81s.81,1.81,1.81,1.81,1.81-.81,1.81-1.81c0-.2-.03-.4-.09-.58l1.54-1.11c.57.44,1.47.49,2.08.1l1.65,1.12c-.04.15-.06.31-.06.47,0,1,.81,1.81,1.81,1.81s1.81-.81,1.81-1.81ZM20.01,20.32c-.38,0-.69-.31-.69-.69s.31-.69.69-.69.69.31.69.69-.31.69-.69.69ZM23.69,12.16c0-.38.31-.69.69-.69s.69.31.69.69-.31.69-.69.69-.69-.31-.69-.69ZM24.37,17.21c-.38,0-.69-.31-.69-.69s.31-.69.69-.69.69.31.69.69-.31.69-.69.69ZM28.73,20.32c-.38,0-.69-.31-.69-.69s.31-.69.69-.69.68.31.68.69-.31.69-.68.69ZM24.37,22.69c1,0,1.81-.81,1.81-1.81s-.81-1.81-1.81-1.81-1.81.81-1.81,1.81.81,1.81,1.81,1.81ZM24.37,20.2c.38,0,.69.31.69.69s-.31.69-.69.69-.69-.31-.69-.69.31-.69.69-.69ZM27.89,26.25h-2.05l-2.92,3.1v-3.1h-1.64v7.47h1.64v-2.41l.94-.95,2.25,3.36h2.06l-3.2-4.52,2.92-2.95ZM30.48,30.51h3.62v-1.28h-3.62v-1.6h3.95v-1.38h-5.59v7.47h5.67v-1.38h-4.03v-1.83Z"/></svg>