<svg xmlns="http://www.w3.org/2000/svg" viewBox="0 0 48 48"><path fill="currentColor" d="M36.72,24.92c-.02.32-.06.64-.11.96,0,.06-.02.11-.03.17-.04.23-.09.46-.14.69-.04.16-.08.31-.12.47-.17.62-.4,1.24-.68,1.84-2.78,5.96-9.9,8.55-15.86,5.77-.45-.21-.88-.45-1.29-.7-.27-.17-.54-.36-.8-.55-.16-.12-.32-.24-.47-.37-.09-.07-.18-.15-.26-.22-.23-.2-.45-.41-.66-.62l-3.03,1.1c-1.64-1.69-2.74-3.83-3.17-6.11l5.7-2.08c-.2-1.03-.27-2.1-.19-3.16l-2.67.97c.11-1.39.45-2.79,1.07-4.12,2.78-5.96,9.9-8.55,15.86-5.77,1.34.62,2.49,1.47,3.47,2.47l2.67-.97c.28.29.54.6.79.91h0c.41.51.77,1.06,1.09,1.63l-5.7,2.08c1.13,2.03,1.67,4.37,1.49,6.72l6.41-2.33c-.18-2.3-.79-4.54-1.8-6.61l5.7-2.08c-.39-.81-.84-1.59-1.34-2.34l-.22-.32-2.67.97c-1.78-2.5-4.2-4.58-7.17-5.97-9.18-4.28-20.13-.3-24.41,8.88-1.39,2.97-1.9,6.13-1.66,9.18l2.67-.97c.08,1.03.26,2.05.51,3.04l-5.7,2.08c.56,2.23,1.54,4.34,2.87,6.22l3.03-1.1c.12.16.23.32.36.48.04.05.08.1.12.16.09.11.17.22.26.33.04.05.07.09.11.13.24.29.49.57.75.85.01.01.02.02.03.03,1.53,1.62,3.39,2.99,5.53,3.99,9.18,4.28,20.13.29,24.41-8.89,1.09-2.34,1.64-4.79,1.7-7.21,0-.03,0-.06,0-.08.01-.63,0-1.26-.05-1.88l-6.41,2.33Z"/></svg>