<svg xmlns="http://www.w3.org/2000/svg" viewBox="0 0 48 48"><path fill="currentColor" d="M29.5874 12.8633C29.8874 12.8633 30.1499 13.7262 30.1499 14.7012V15.1885C30.1874 15.151 30.2253 15.1504 30.3003 15.1504H40.3501C41.3625 15.1504 42.1874 15.9756 42.2251 17.0254V26.4385C42.225 27.4509 41.3621 28.2754 40.3872 28.2754H35.4751C34.4627 28.2754 33.6373 27.4134 33.6372 26.4385V22.7256C33.2248 23.0631 32.9253 23.5886 32.9253 24.1885V27.3008C32.9253 28.3131 33.7874 29.1384 34.7622 29.1387H37.9497V33.9756C37.9497 34.6131 37.4622 35.1006 36.8247 35.1006H30.8247C30.1874 35.1004 29.6997 34.6129 29.6997 33.9756V29.4756C29.6996 28.8382 29.2121 28.3506 28.5747 28.3506H13.6128C12.9754 28.3506 12.4879 28.8382 12.4878 29.4756V33.9756C12.4878 34.613 12.0002 35.1005 11.3628 35.1006H5.36279C4.72529 35.1006 4.23779 34.6131 4.23779 33.9756V21.0381L1.5376 23.1758C1.42516 23.2507 1.27507 23.251 1.1626 23.1387L0.412598 22.2383C0.300112 22.1258 0.300491 22.0129 0.375488 21.9004L4.3501 15.7881C4.53762 15.3757 4.91285 15.1133 5.36279 15.1133H26.5503C27.2252 15.1134 27.7497 15.7508 27.6372 16.4258L27.188 19.0137C27.0757 19.6885 27.6001 20.326 28.2749 20.3262H32.5503C33.1127 20.3261 33.5247 19.9507 33.6372 19.4258C33.3748 19.5007 33.0748 19.5381 32.7749 19.5381H29.7378C28.7253 19.5381 28.0497 18.7133 28.1997 17.7383L28.7251 14.6631C28.9126 13.6884 29.2875 12.8637 29.5874 12.8633ZM46.2378 12.9004C46.5378 12.9007 46.9501 13.7263 47.1001 14.7012L47.6255 17.7754C47.7755 18.7503 47.1002 19.5382 46.0503 19.6133H42.8628V17.4004H43.8374C44.8498 17.4004 45.6752 16.5384 45.6753 15.5635V14.7383C45.6753 13.7258 45.9378 12.9004 46.2378 12.9004Z"/></svg>