<svg xmlns="http://www.w3.org/2000/svg" viewBox="0 0 48 48"><path fill="currentColor" d="M16,34c-.4,0-.78,.12-1.11,.34-.33,.22-.59,.53-.74,.9-.15,.37-.19,.77-.11,1.16,.08,.39,.27,.74,.55,1.02,.28,.28,.64,.47,1.02,.55,.39,.08,.79,.04,1.16-.11,.37-.15,.68-.41,.9-.74,.22-.33,.34-.72,.34-1.11,0-.53-.21-1.04-.59-1.41-.38-.38-.88-.59-1.41-.59Zm0-12c-.4,0-.78,.12-1.11,.34-.33,.22-.59,.53-.74,.9-.15,.37-.19,.77-.11,1.16,.08,.39,.27,.74,.55,1.02,.28,.28,.64,.47,1.02,.55,.39,.08,.79,.04,1.16-.11,.37-.15,.68-.41,.9-.74,.22-.33,.34-.72,.34-1.11,0-.53-.21-1.04-.59-1.41-.38-.38-.88-.59-1.41-.59ZM32,4H16c-2.12,0-4.16,.84-5.66,2.34-1.5,1.5-2.34,3.54-2.34,5.66v24c0,2.12,.84,4.16,2.34,5.66,1.5,1.5,3.54,2.34,5.66,2.34h16c2.12,0,4.16-.84,5.66-2.34,1.5-1.5,2.34-3.53,2.34-5.66V12c0-2.12-.84-4.16-2.34-5.66-1.5-1.5-3.53-2.34-5.66-2.34Zm4,32c0,1.06-.42,2.08-1.17,2.83-.75,.75-1.77,1.17-2.83,1.17H16c-1.06,0-2.08-.42-2.83-1.17-.75-.75-1.17-1.77-1.17-2.83v-5.12c1.21,.73,2.59,1.11,4,1.12h16c1.41,0,2.79-.39,4-1.12v5.12Zm0-12c0,1.06-.42,2.08-1.17,2.83-.75,.75-1.77,1.17-2.83,1.17H16c-1.06,0-2.08-.42-2.83-1.17-.75-.75-1.17-1.77-1.17-2.83v-5.12c1.21,.73,2.59,1.11,4,1.12h16c1.41,0,2.79-.39,4-1.12v5.12Zm-4-8H16c-1.06,0-2.08-.42-2.83-1.17-.75-.75-1.17-1.77-1.17-2.83s.42-2.08,1.17-2.83c.75-.75,1.77-1.17,2.83-1.17h16c1.06,0,2.08,.42,2.83,1.17,.75,.75,1.17,1.77,1.17,2.83s-.42,2.08-1.17,2.83c-.75,.75-1.77,1.17-2.83,1.17Z"/></svg>