<svg xmlns="http://www.w3.org/2000/svg" viewBox="0 0 48 48"><path fill="currentColor" d="M43.4,43.05v-7.7c0-1-.8-1.9-1.9-1.9h-11.1c-1,0-1.9,.8-1.9,1.9v2h-3.5v-11.6h3.5v2c0,1,.8,1.9,1.9,1.9h11.1c1,0,1.9-.8,1.9-1.9v-7.7c0-1-.8-1.9-1.9-1.9h-11.1c-1,0-1.9,.8-1.9,1.9v2h-3.5V10.55h3.5v2c0,1,.8,1.9,1.9,1.9h11.1c1,0,1.9-.8,1.9-1.9V4.85c0-1-.8-1.9-1.9-1.9h-11.1c-1,0-1.9,.8-1.9,1.9v1.9h-5.4c-1,0-1.9,.8-1.9,1.9v13.4h-2.5c-.8-3.1-3.6-5.4-6.9-5.4s-7.2,3.2-7.2,7.2,3.2,7.2,7.2,7.2,6-2.2,6.9-5.2h2.6v13.4c0,1,.8,1.9,1.9,1.9h5.4v2c0,1,.8,1.9,1.9,1.9h11c1,0,1.9-.8,1.9-1.9v-.1ZM32.3,6.65h7.4v3.9h-7.4v-3.9ZM11.9,27.25c-1.9,0-3.4-1.5-3.4-3.4s1.5-3.4,3.4-3.4,3.4,1.5,3.4,3.4-1.5,3.4-3.4,3.4Zm20.4-5.3h7.4v3.9h-7.4v-3.9Zm0,19.2v-3.9h7.4v3.9h-7.4Z"/></svg>