<svg xmlns="http://www.w3.org/2000/svg" viewBox="0 0 48 48"><path fill="currentColor" d="M40.8 9.6H33.6V7.2C33.6 5.2904 32.8413 3.4591 31.4912 2.1088C30.1409 0.7586 28.3096 0 26.4 0H21.6C19.6904 0 17.8591 0.7586 16.5088 2.1088C15.1586 3.4591 14.4 5.2904 14.4 7.2V9.6H7.2C5.2904 9.6 3.4591 10.3586 2.1088 11.7088C0.7586 13.0591 0 14.8904 0 16.8V38.4C0 40.3094 0.7586 42.1408 2.1088 43.4912C3.4591 44.8413 5.2904 45.6 7.2 45.6H40.8C42.7094 45.6 44.5408 44.8413 45.8912 43.4912C47.2413 42.1408 48 40.3094 48 38.4V16.8C48 14.8904 47.2413 13.0591 45.8912 11.7088C44.5408 10.3586 42.7094 9.6 40.8 9.6ZM19.2 7.2C19.2 6.5635 19.4529 5.953 19.9029 5.5029C20.353 5.0529 20.9635 4.8 21.6 4.8H26.4C27.0365 4.8 27.647 5.0529 28.0971 5.5029C28.5471 5.953 28.8 6.5635 28.8 7.2V9.6H19.2V7.2ZM43.2 38.4C43.2 39.0365 42.9472 39.647 42.497 40.097C42.047 40.5472 41.4365 40.8 40.8 40.8H7.2C6.5635 40.8 5.953 40.5472 5.5029 40.097C5.0529 39.647 4.8 39.0365 4.8 38.4V26.28H12V28.8C12 29.4365 12.2529 30.047 12.7029 30.4971C13.153 30.9471 13.7635 31.2 14.4 31.2C15.0365 31.2 15.647 30.9471 16.0971 30.4971C16.5471 30.047 16.8 29.4365 16.8 28.8V26.28H31.2V28.8C31.2 29.4365 31.4529 30.047 31.9029 30.4971C32.353 30.9471 32.9635 31.2 33.6 31.2C34.2365 31.2 34.847 30.9471 35.297 30.4971C35.7472 30.047 36 29.4365 36 28.8V26.28H43.2V38.4ZM43.2 21.6H4.8V16.8C4.8 16.1635 5.0529 15.553 5.5029 15.1029C5.953 14.6529 6.5635 14.4 7.2 14.4H40.8C41.4365 14.4 42.047 14.6529 42.497 15.1029C42.9472 15.553 43.2 16.1635 43.2 16.8V21.6Z"/></svg>