<svg xmlns="http://www.w3.org/2000/svg" viewBox="0 0 48 48"><path fill="currentColor" d="M23.4727 28.0469C23.745 28.0469 24.0513 28.0562 24.3916 28.0732C24.7322 28.0903 25.0391 28.1154 25.3115 28.1494C25.8564 28.2175 26.3075 28.4733 26.665 28.916C27.0226 29.3587 27.1677 29.8526 27.0996 30.3975C27.0315 30.8741 26.8268 31.2825 26.4863 31.623C26.1458 31.9636 25.6862 32.1337 25.1074 32.1338H23.4727C21.0546 32.1338 18.8832 32.424 16.959 33.0029C15.0348 33.5819 13.4594 34.2114 12.2334 34.8926C11.9269 35.0629 11.6805 35.3019 11.4932 35.6084C11.3059 35.9149 11.2119 36.2553 11.2119 36.6299V38.2646H25.0049C25.5838 38.2646 26.0693 38.46 26.4609 38.8516C26.8525 39.2432 27.0488 39.7288 27.0488 40.3076C27.0488 40.8865 26.8525 41.372 26.4609 41.7637C26.0693 42.1553 25.5839 42.3516 25.0049 42.3516H11.2119C10.088 42.3516 9.12554 41.9507 8.3252 41.1504C7.52514 40.3502 7.12505 39.3883 7.125 38.2646V36.6299C7.125 35.506 7.41419 34.4496 7.99316 33.4619C8.57212 32.4744 9.37292 31.7257 10.3945 31.2148C12.1314 30.3294 14.0899 29.5798 16.2695 28.9668C18.4491 28.3538 20.8504 28.0469 23.4727 28.0469ZM45.1328 27.9961C45.7117 27.9961 46.1889 28.184 46.5635 28.5586C46.9378 28.9331 47.1249 29.4097 47.125 29.9883C47.125 30.5671 46.938 31.0444 46.5635 31.4189L36.2441 41.7383C35.8355 42.1469 35.3583 42.3515 34.8135 42.3516C34.2686 42.3516 33.7915 42.147 33.3828 41.7383L29.1943 37.5488C28.8198 37.1743 28.6319 36.698 28.6318 36.1191C28.6318 35.5402 28.8197 35.0631 29.1943 34.6885C29.5689 34.314 30.0453 34.127 30.624 34.127C31.203 34.127 31.6801 34.3139 32.0547 34.6885L34.8135 37.4473L43.7021 28.5586C44.0768 28.184 44.5538 27.9961 45.1328 27.9961ZM23.4727 9.65625C25.7203 9.65632 27.6445 10.457 29.2451 12.0576C30.8457 13.6583 31.6465 15.5824 31.6465 17.8301C31.6465 20.0777 30.8457 22.0019 29.2451 23.6025C27.6445 25.2032 25.7203 26.0038 23.4727 26.0039C21.2249 26.0039 19.3009 25.2032 17.7002 23.6025C16.0995 22.0019 15.2988 20.0778 15.2988 17.8301C15.2989 15.5824 16.0995 13.6583 17.7002 12.0576C19.3008 10.4571 21.225 9.65625 23.4727 9.65625ZM23.4727 13.7432C22.3488 13.7432 21.3863 14.144 20.5859 14.9443C19.7858 15.7446 19.3858 16.7064 19.3857 17.8301C19.3857 18.954 19.7856 19.9165 20.5859 20.7168C21.3863 21.5171 22.3488 21.917 23.4727 21.917C24.5963 21.9169 25.5582 21.5169 26.3584 20.7168C27.1587 19.9165 27.5596 18.954 27.5596 17.8301C27.5595 16.7063 27.1587 15.7446 26.3584 14.9443C25.5581 14.1441 24.5964 13.7432 23.4727 13.7432Z"/></svg>