<svg xmlns="http://www.w3.org/2000/svg" viewBox="0 0 48 48"><path fill="currentColor" d="M24.57,20.52c-.73,0-1.38,.3-1.85,.78-.45,.46-.72,1.1-.72,1.79,0,1.42,1.15,2.58,2.58,2.58,.73,0,1.39-.3,1.86-.79,.44-.46,.72-1.09,.72-1.78,0-1.42-1.15-2.58-2.58-2.58Zm9.56,4.01c.07-.47,.12-.95,.12-1.44,0-.4-.03-.79-.08-1.18l2.54-.78-1.03-3.34-2.55,.79c-.41-.77-.92-1.48-1.52-2.11l1.6-2.17-2.82-2.08-1.6,2.17c-.77-.37-1.59-.65-2.46-.81v-2.7h-3.5v2.7c-.74,.13-1.46,.35-2.14,.65l-1.52-2.22-2.89,1.97,1.52,2.22c-.05,.05-.11,.1-.17,.16-.56,.58-1.03,1.22-1.42,1.9l-2.53-.88-1.15,3.3,2.51,.88c-.08,.5-.13,1.01-.13,1.53,0,.37,.03,.73,.07,1.09l-2.53,.78,1.03,3.34,2.51-.78c.41,.79,.92,1.51,1.52,2.15l-1.56,2.11,2.82,2.08,1.55-2.1c.78,.39,1.62,.67,2.51,.83v2.6h3.5v-2.6c.76-.14,1.5-.36,2.19-.68l1.47,2.15,2.89-1.97-1.48-2.16c.05-.05,.1-.09,.15-.15,.57-.59,1.05-1.25,1.44-1.95l2.48,.87,1.15-3.3-2.5-.87Zm-5.1,2.84c-1.17,1.22-2.76,1.9-4.45,1.9-3.4,0-6.17-2.77-6.17-6.17,0-1.61,.62-3.14,1.74-4.29,1.17-1.21,2.75-1.88,4.44-1.88,3.4,0,6.17,2.77,6.17,6.17,0,1.6-.61,3.12-1.72,4.28ZM6.85,23.1c0-3.3,.92-6.47,2.61-9.23l.11,1.55,3.49-.25-.55-7.69-7.78,.6,.27,3.49,1.85-.14c-2.27,3.44-3.5,7.47-3.5,11.67,0,11.7,9.52,21.22,21.22,21.22v-3.5c-9.77,0-17.72-7.95-17.72-17.72Zm35.4,11.72c2.29-3.45,3.54-7.5,3.54-11.72C45.79,11.4,36.27,1.88,24.57,1.88v3.5c9.77,0,17.72,7.95,17.72,17.72,0,3.22-.88,6.31-2.48,9.01l-.09-1.31-3.49,.25,.55,7.69,7.78-.6-.27-3.49-2.03,.16Z"/></svg>