<svg xmlns="http://www.w3.org/2000/svg" viewBox="0 0 48 48"><path fill="currentColor" d="M35.42,21.41c.38-.38,.59-.88,.59-1.41s-.21-1.04-.59-1.41c-.38-.38-.88-.59-1.41-.59H10.82l4.6-4.58c.38-.38,.59-.89,.59-1.42s-.21-1.04-.59-1.42c-.38-.38-.89-.59-1.42-.59s-1.04,.21-1.42,.59L4.58,18.58c-.28,.28-.47,.64-.54,1.03s-.03,.79,.12,1.15c.15,.37,.4,.68,.73,.9,.33,.22,.71,.34,1.11,.34h28.01c.53,0,1.04-.21,1.41-.59Zm8.43,5.83c-.15-.37-.4-.68-.73-.9s-.71-.34-1.11-.34H14c-.53,0-1.04,.21-1.41,.59-.38,.38-.59,.88-.59,1.41s.21,1.04,.59,1.41c.38,.38,.88,.59,1.41,.59h23.18l-4.6,4.58c-.19,.19-.34,.41-.44,.65-.1,.24-.15,.51-.15,.77s.05,.53,.15,.77c.1,.24,.25,.46,.44,.65,.19,.19,.41,.34,.65,.44,.24,.1,.51,.15,.77,.15s.53-.05,.77-.15c.24-.1,.47-.25,.65-.44l8-8c.28-.28,.47-.64,.54-1.03,.07-.39,.03-.79-.12-1.15Z"/></svg>