<svg xmlns="http://www.w3.org/2000/svg" viewBox="0 0 48 48"><path fill="currentColor" d="M42,4h-12c-.53,0-1.04,.21-1.41,.59-.38,.38-.59,.88-.59,1.41s.21,1.04,.59,1.41c.38,.38,.88,.59,1.41,.59h10v10c0,.53,.21,1.04,.59,1.41,.38,.38,.88,.59,1.41,.59s1.04-.21,1.41-.59c.38-.38,.59-.88,.59-1.41V6c0-.53-.21-1.04-.59-1.41-.38-.38-.88-.59-1.41-.59h0Zm0,24c-.53,0-1.04,.21-1.41,.59s-.59,.88-.59,1.41v10h-10c-.53,0-1.04,.21-1.41,.59s-.59,.88-.59,1.41,.21,1.04,.59,1.41,.88,.59,1.41,.59h12c.53,0,1.04-.21,1.41-.59s.59-.88,.59-1.41v-12c0-.53-.21-1.04-.59-1.41s-.88-.59-1.41-.59ZM24,12c-1.59,0-3.12,.63-4.24,1.76-1.13,1.13-1.76,2.65-1.76,4.24v2c-1.06,0-2.08,.42-2.83,1.17-.75,.75-1.17,1.77-1.17,2.83v8c0,1.06,.42,2.08,1.17,2.83,.75,.75,1.77,1.17,2.83,1.17h12c1.06,0,2.08-.42,2.83-1.17,.75-.75,1.17-1.77,1.17-2.83v-8c0-1.06-.42-2.08-1.17-2.83-.75-.75-1.77-1.17-2.83-1.17v-2c0-1.59-.63-3.12-1.76-4.24-1.13-1.13-2.65-1.76-4.24-1.76Zm-2,6c0-.53,.21-1.04,.59-1.41,.38-.38,.88-.59,1.41-.59s1.04,.21,1.41,.59c.38,.38,.59,.88,.59,1.41v2h-4v-2Zm8,14h-12v-8h12v8ZM6,20c.53,0,1.04-.21,1.41-.59,.38-.38,.59-.88,.59-1.41V8h10c.53,0,1.04-.21,1.41-.59,.38-.38,.59-.88,.59-1.41s-.21-1.04-.59-1.41c-.38-.38-.88-.59-1.41-.59H6c-.53,0-1.04,.21-1.41,.59-.38,.38-.59,.88-.59,1.41v12c0,.53,.21,1.04,.59,1.41,.38,.38,.88,.59,1.41,.59Zm12,20H8v-10c0-.53-.21-1.04-.59-1.41-.38-.38-.88-.59-1.41-.59s-1.04,.21-1.41,.59c-.38,.38-.59,.88-.59,1.41v12c0,.53,.21,1.04,.59,1.41,.38,.38,.88,.59,1.41,.59h12c.53,0,1.04-.21,1.41-.59,.38-.38,.59-.88,.59-1.41s-.21-1.04-.59-1.41c-.38-.38-.88-.59-1.41-.59Z"/></svg>