<svg xmlns="http://www.w3.org/2000/svg" viewBox="0 0 48 48"><path fill="currentColor" d="M14.89,11.89c-1.79,0-3.24,1.45-3.24,3.24s1.45,3.24,3.24,3.24,3.24-1.45,3.24-3.24-1.45-3.24-3.24-3.24ZM44.91,33.96l-11.81-11.8c2.26-7.92-1.87-16.22-9.68-19.15-5.81-2.18-12.39-.75-16.77,3.64-6.18,6.17-6.2,16.22-.03,22.4,4.07,4.08,10.01,5.63,15.54,4.06l1.05,1.05c.84.84,2.01,1.33,3.2,1.33h.44c.16,2.42,2.1,4.35,4.52,4.52v.42c0,1.2.49,2.37,1.33,3.21l1.34,1.34c.69.66,1.59,1.02,2.55,1.03h5.99c1.89,0,3.42-1.54,3.43-3.43v-6.01c0-.97-.39-1.89-1.09-2.6ZM42,42h-5.28l-1.19-1.19c-.1-.1-.16-.24-.16-.38v-.74c0-2.02-1.64-3.67-3.67-3.67-.47,0-.86-.39-.86-.86v-.22c0-1.9-1.55-3.45-3.45-3.45h-.98c-.14,0-.27-.06-.37-.15l-1.25-1.25h0c-.67-.67-1.57-1.03-2.5-1.03-.35,0-.71.05-1.06.16-4.18,1.25-8.69.11-11.77-2.98-4.61-4.62-4.6-12.14.03-16.75,3.28-3.28,8.2-4.35,12.54-2.72,6.03,2.26,9.13,8.81,7.05,14.9-.33.98-.09,2.04.64,2.76l12.29,12.28v5.3Z"/></svg>