<svg xmlns="http://www.w3.org/2000/svg" viewBox="0 0 48 48"><path fill="currentColor" d="M29 2C29.5304 2 30.039 2.21086 30.4141 2.58594L41.4141 13.5859C41.7891 13.961 42 14.4696 42 15V40C42 41.5913 41.3674 43.117 40.2422 44.2422C39.117 45.3674 37.5913 46 36 46H8C6.89543 46 6 45.1046 6 44C6 42.8954 6.89543 42 8 42H36C36.5304 42 37.039 41.7891 37.4141 41.4141C37.7891 41.039 38 40.5304 38 40V18H28C26.8954 18 26 17.1046 26 16V6H12C11.4696 6 10.961 6.21086 10.5859 6.58594C10.2109 6.96101 10 7.46957 10 8V16C10 17.1046 9.10457 18 8 18C6.89543 18 6 17.1046 6 16V8C6 6.4087 6.63259 4.88303 7.75781 3.75781C8.88303 2.63259 10.4087 2 12 2H29ZM8 22C11.3137 22 14 24.6863 14 28V32C14 35.3137 11.3137 38 8 38C4.68629 38 2 35.3137 2 32V28C2 24.6863 4.68629 22 8 22ZM24 22C25.1046 22 26 22.8954 26 24V34H28C29.1046 34 30 34.8954 30 36C30 37.1046 29.1046 38 28 38H20C18.8954 38 18 37.1046 18 36C18 34.8954 18.8954 34 20 34H22V26H20C18.8954 26 18 25.1046 18 24C18 22.8954 18.8954 22 20 22H24ZM8 26C6.89543 26 6 26.8954 6 28V32C6 33.1046 6.89543 34 8 34C9.10457 34 10 33.1046 10 32V28C10 26.8954 9.10457 26 8 26ZM30 14H36.1719L30 7.82812V14Z"/></svg>