<svg xmlns="http://www.w3.org/2000/svg" viewBox="0 0 48 48"><path fill="currentColor" d="m39.81,8c-.13-.27-.32-.51-.55-.7-.23-.19-.5-.32-.79-.39-.29-.07-.59-.07-.89,0-2.14.45-4.34.45-6.48.02s-4.17-1.31-5.96-2.56c-.33-.23-.73-.36-1.14-.36s-.81.12-1.14.36c-1.79,1.25-3.82,2.12-5.96,2.56-2.14.44-4.35.43-6.48-.02-.29-.06-.59-.06-.89,0-.29.07-.56.2-.79.39-.23.19-.42.43-.55.7-.13.27-.19.57-.19.86v14.9c0,2.87.68,5.69,1.99,8.24s3.21,4.75,5.55,6.42l7.3,5.2c.34.24.74.37,1.16.37s.82-.13,1.16-.37l7.3-5.2c2.33-1.67,4.24-3.87,5.55-6.42,1.31-2.55,1.99-5.38,1.99-8.24v-14.9c0-.3-.07-.59-.19-.86Zm-3.81,15.76c0,2.23-.53,4.43-1.55,6.41-1.02,1.98-2.5,3.69-4.31,4.99l-6.14,4.38-6.14-4.38c-1.81-1.3-3.29-3.01-4.31-4.99-1.02-1.98-1.55-4.18-1.55-6.41v-12.6c4.19.36,8.39-.61,12-2.78,3.61,2.17,7.81,3.14,12,2.78v12.6Z"/></svg>