<svg xmlns="http://www.w3.org/2000/svg" viewBox="0 0 48 48"><path fill="currentColor" d="M41.99,8.83l1.42-1.4c.38-.38,.59-.89,.59-1.42s-.21-1.04-.59-1.42c-.38-.38-.89-.59-1.42-.59s-1.04,.21-1.42,.59l-2.8,2.82-5.66,5.66-12.62,12.6c-2.07-1.36-4.57-1.91-7.02-1.54-2.45,.37-4.67,1.64-6.24,3.56-1.57,1.92-2.36,4.35-2.24,6.82,.13,2.47,1.16,4.81,2.92,6.56,1.75,1.75,4.09,2.79,6.56,2.92,2.47,.13,4.91-.67,6.82-2.24,1.92-1.57,3.19-3.79,3.56-6.24,.37-2.45-.17-4.95-1.54-7.01l11.18-11.2,4.24,4.26c.19,.19,.41,.33,.65,.43,.24,.1,.5,.15,.77,.15,.26,0,.52-.05,.77-.15,.24-.1,.46-.25,.65-.44,.19-.19,.33-.41,.43-.65,.1-.24,.15-.5,.15-.77,0-.26-.05-.52-.16-.76-.1-.24-.25-.46-.44-.65l-4.24-4.24,2.84-2.82,1.4,1.4c.19,.19,.41,.33,.65,.44,.24,.1,.5,.15,.77,.15,.26,0,.52-.05,.77-.15,.24-.1,.46-.25,.65-.43,.19-.19,.33-.41,.44-.65,.1-.24,.15-.5,.16-.76,0-.26-.05-.52-.15-.77-.1-.24-.25-.46-.43-.65l-1.42-1.42ZM14,39.99c-1.19,0-2.35-.35-3.33-1.01-.99-.66-1.76-1.6-2.21-2.69-.45-1.1-.57-2.3-.34-3.47,.23-1.16,.8-2.23,1.64-3.07,.84-.84,1.91-1.41,3.07-1.64,1.16-.23,2.37-.11,3.47,.34,1.1,.45,2.03,1.22,2.69,2.21,.66,.99,1.01,2.15,1.01,3.33,0,1.59-.63,3.12-1.76,4.24s-2.65,1.76-4.24,1.76Z"/></svg>