<svg xmlns="http://www.w3.org/2000/svg" viewBox="0 0 48 48"><path fill="currentColor" d="M34,18v-4c0-2.65-1.05-5.2-2.93-7.07-1.88-1.88-4.42-2.93-7.07-2.93s-5.2,1.05-7.07,2.93c-1.88,1.88-2.93,4.42-2.93,7.07v4c-1.59,0-3.12,.63-4.24,1.76-1.13,1.13-1.76,2.65-1.76,4.24v14c0,1.59,.63,3.12,1.76,4.24,1.13,1.13,2.65,1.76,4.24,1.76h20c1.59,0,3.12-.63,4.24-1.76s1.76-2.65,1.76-4.24v-14c0-1.59-.63-3.12-1.76-4.24-1.13-1.13-2.65-1.76-4.24-1.76Zm-16-4c0-1.59,.63-3.12,1.76-4.24,1.13-1.13,2.65-1.76,4.24-1.76s3.12,.63,4.24,1.76,1.76,2.65,1.76,4.24v4h-12v-4Zm18,24c0,.53-.21,1.04-.59,1.41-.37,.37-.88,.59-1.41,.59H14c-.53,0-1.04-.21-1.41-.59-.38-.38-.59-.88-.59-1.41v-14c0-.53,.21-1.04,.59-1.41,.38-.38,.88-.59,1.41-.59h20c.53,0,1.04,.21,1.41,.59,.37,.37,.59,.88,.59,1.41v14Z"/></svg>