<svg xmlns="http://www.w3.org/2000/svg" viewBox="0 0 48 48"><path fill="currentColor" d="M6.4 14.6008C5.795 14.6008 5.3 15.0958 5.3 15.7008V33.3008C5.3 33.9058 5.795 34.4008 6.4 34.4008H41.6C42.205 34.4008 42.7 33.9058 42.7 33.3008V15.7008C42.7 15.0958 42.205 14.6008 41.6 14.6008H6.4ZM2 15.7008C2 13.2739 3.97313 11.3008 6.4 11.3008H41.6C44.0269 11.3008 46 13.2739 46 15.7008V33.3008C46 35.7277 44.0269 37.7008 41.6 37.7008H6.4C3.97313 37.7008 2 35.7277 2 33.3008V15.7008ZM9.7 16.8008H25.1C26.3169 16.8008 27.3 17.7839 27.3 19.0008V21.2008C27.3 22.4177 26.3169 23.4008 25.1 23.4008H9.7C8.48313 23.4008 7.5 22.4177 7.5 21.2008V19.0008C7.5 17.7839 8.48313 16.8008 9.7 16.8008ZM7.5 31.1008C7.5 30.4958 7.995 30.0008 8.6 30.0008H26.2C26.805 30.0008 27.3 30.4958 27.3 31.1008C27.3 31.7058 26.805 32.2008 26.2 32.2008H8.6C7.995 32.2008 7.5 31.7058 7.5 31.1008ZM29.5 31.1008C29.5 30.4958 29.995 30.0008 30.6 30.0008H39.4C40.005 30.0008 40.5 30.4958 40.5 31.1008C40.5 31.7058 40.005 32.2008 39.4 32.2008H30.6C29.995 32.2008 29.5 31.7058 29.5 31.1008ZM8.6 25.6008C8.89174 25.6008 9.17153 25.7167 9.37782 25.923C9.58411 26.1293 9.7 26.409 9.7 26.7008C9.7 26.9925 9.58411 27.2723 9.37782 27.4786C9.17153 27.6849 8.89174 27.8008 8.6 27.8008C8.30826 27.8008 8.02847 27.6849 7.82218 27.4786C7.61589 27.2723 7.5 26.9925 7.5 26.7008C7.5 26.409 7.61589 26.1293 7.82218 25.923C8.02847 25.7167 8.30826 25.6008 8.6 25.6008ZM11.9 26.7008C11.9 26.409 12.0159 26.1293 12.2222 25.923C12.4285 25.7167 12.7083 25.6008 13 25.6008C13.2917 25.6008 13.5715 25.7167 13.7778 25.923C13.9841 26.1293 14.1 26.409 14.1 26.7008C14.1 26.9925 13.9841 27.2723 13.7778 27.4786C13.5715 27.6849 13.2917 27.8008 13 27.8008C12.7083 27.8008 12.4285 27.6849 12.2222 27.4786C12.0159 27.2723 11.9 26.9925 11.9 26.7008ZM17.4 25.6008C17.6917 25.6008 17.9715 25.7167 18.1778 25.923C18.3841 26.1293 18.5 26.409 18.5 26.7008C18.5 26.9925 18.3841 27.2723 18.1778 27.4786C17.9715 27.6849 17.6917 27.8008 17.4 27.8008C17.1083 27.8008 16.8285 27.6849 16.6222 27.4786C16.4159 27.2723 16.3 26.9925 16.3 26.7008C16.3 26.409 16.4159 26.1293 16.6222 25.923C16.8285 25.7167 17.1083 25.6008 17.4 25.6008ZM20.7 26.7008C20.7 26.409 20.8159 26.1293 21.0222 25.923C21.2285 25.7167 21.5083 25.6008 21.8 25.6008C22.0917 25.6008 22.3715 25.7167 22.5778 25.923C22.7841 26.1293 22.9 26.409 22.9 26.7008C22.9 26.9925 22.7841 27.2723 22.5778 27.4786C22.3715 27.6849 22.0917 27.8008 21.8 27.8008C21.5083 27.8008 21.2285 27.6849 21.0222 27.4786C20.8159 27.2723 20.7 26.9925 20.7 26.7008ZM26.2 25.6008C26.4917 25.6008 26.7715 25.7167 26.9778 25.923C27.1841 26.1293 27.3 26.409 27.3 26.7008C27.3 26.9925 27.1841 27.2723 26.9778 27.4786C26.7715 27.6849 26.4917 27.8008 26.2 27.8008C25.9083 27.8008 25.6285 27.6849 25.4222 27.4786C25.2159 27.2723 25.1 26.9925 25.1 26.7008C25.1 26.409 25.2159 26.1293 25.4222 25.923C25.6285 25.7167 25.9083 25.6008 26.2 25.6008Z"/></svg>