<svg xmlns="http://www.w3.org/2000/svg" viewBox="0 0 48 48"><path fill="currentColor" d="M20.2568 0.705078C20.4891 0.639705 20.7355 0.639718 20.9678 0.705078L21.082 0.743164L39.7246 7.88379L39.7324 7.88672C39.8229 7.92251 39.9107 7.96878 39.9932 8.02441L39.998 8.02832C40.354 8.2729 40.5671 8.67668 40.5674 9.10938V22.1104L46.4404 24.0361C46.9772 24.213 47.3435 24.7157 47.3438 25.2832V36.3594C47.2804 38.7996 45.6124 40.9428 43.5947 42.7002C41.5511 44.4801 38.9886 46.0012 36.833 47.1807L36.832 47.1816C36.6387 47.2869 36.4224 47.3428 36.2031 47.3428C35.984 47.3427 35.7684 47.2868 35.5752 47.1816L35.5732 47.1807C33.4597 46.0235 30.9557 44.5383 28.9336 42.8037C27.2138 41.3284 25.7355 39.5814 25.2402 37.6133L21.082 39.2061L21.0811 39.2051C21.0111 39.2319 20.9399 39.2523 20.8682 39.2666L1.49902 32.0664C0.992142 31.8718 0.656299 31.3851 0.65625 30.8408V9.10938C0.656501 8.67896 0.868095 8.27438 1.22363 8.0293C1.31044 7.9693 1.40287 7.92116 1.49707 7.88477L1.49902 7.88379L20.1426 0.743164L20.2568 0.705078ZM27.6885 26.2334V36.3096C27.7133 37.0778 28.0576 37.8973 28.6777 38.748C29.2986 39.5997 30.1594 40.4326 31.1221 41.2109C32.8769 42.6295 34.8922 43.8007 36.2031 44.5293C37.5141 43.8007 39.5301 42.6298 41.2852 41.2109C42.248 40.4325 43.1087 39.5989 43.7295 38.7471C44.3527 37.8919 44.6973 37.0687 44.7188 36.2969V26.2334L36.2031 23.4424L27.6885 26.2334ZM36.2012 24.7842C38.8567 24.7842 41.0162 26.9441 41.0166 29.5996V30.6953C41.7887 31.0392 42.3288 31.8118 42.3291 32.7109V38.3535C42.3291 39.5709 41.34 40.5615 40.1211 40.5615H32.2842C31.0668 40.5615 30.0762 39.5724 30.0762 38.3535V32.7109C30.0765 31.8117 30.6164 31.0391 31.3887 30.6953V29.5996C31.389 26.9445 33.5475 24.7844 36.2012 24.7842ZM32.7031 37.9365H35.1934C35.0047 37.7092 34.8907 37.4169 34.8906 37.0986V36.6846C34.3103 36.2734 33.9268 35.5974 33.9268 34.8291C33.927 34.1523 34.2254 33.5449 34.6953 33.1279H32.7031V37.9365ZM37.7119 33.1279C38.1818 33.5451 38.4793 34.1529 38.4795 34.8291C38.4794 35.5984 38.0958 36.2735 37.5156 36.6846V37.0986C37.5156 37.417 37.4017 37.7092 37.2129 37.9365H39.7061V33.1279H37.7119ZM3.28125 29.9365L19.2998 36.0732V17.1533L3.28125 11.0166V29.9365ZM21.9248 17.1523V36.0723L25.0635 34.8701V25.2822C25.0638 24.7147 25.429 24.2119 25.9658 24.0352L35.7949 20.8135C36.0592 20.727 36.3455 20.7263 36.6113 20.8135L37.9424 21.249V11.0166L21.9248 17.1523ZM36.2031 34.4805C36.0105 34.4806 35.8549 34.6365 35.8545 34.8291L35.8613 34.8994C35.8938 35.0584 36.0345 35.1776 36.2031 35.1777C36.3719 35.1777 36.5124 35.0584 36.5449 34.8994L36.5518 34.8291L36.5449 34.7588C36.517 34.6225 36.4098 34.515 36.2734 34.4873L36.2031 34.4805ZM36.2041 27.4092C34.9977 27.4093 34.015 28.3933 34.0146 29.5996V30.5029H38.3936V29.5996C38.3932 28.393 37.4095 27.4092 36.2041 27.4092ZM5.63672 9.10938L20.6113 14.8447L35.5859 9.10938L20.6113 3.37305L5.63672 9.10938Z"/></svg>