<svg xmlns="http://www.w3.org/2000/svg" viewBox="0 0 48 48"><path fill="currentColor" d="M34.4998 19.8299H17.8998V15.7699C17.8998 12.4099 20.6398 9.66992 23.9998 9.66992C25.8198 9.66992 27.5298 10.4699 28.6898 11.8699C29.3998 12.7199 30.6598 12.8299 31.5098 12.1299C32.3598 11.4199 32.4698 10.1599 31.7698 9.30992C29.8398 6.99992 27.0098 5.66992 24.0098 5.66992C18.4398 5.66992 13.9098 10.1999 13.9098 15.7699V19.8299H13.5098C10.3398 19.8299 7.75977 22.4099 7.75977 25.5799V36.5799C7.75977 39.7499 10.3398 42.3299 13.5098 42.3299H34.5098C37.6798 42.3299 40.2598 39.7499 40.2598 36.5799V25.5799C40.2598 22.4099 37.6798 19.8299 34.5098 19.8299H34.4998ZM36.2498 36.5799C36.2498 37.5399 35.4598 38.3299 34.4998 38.3299H13.4998C12.5398 38.3299 11.7498 37.5399 11.7498 36.5799V25.5799C11.7498 24.6199 12.5398 23.8299 13.4998 23.8299H34.4998C35.4598 23.8299 36.2498 24.6099 36.2498 25.5799V36.5799ZM23.9998 27.5899C22.8998 27.5899 21.9998 28.4899 21.9998 29.5899V33.1799C21.9998 34.2799 22.8998 35.1799 23.9998 35.1799C25.0998 35.1799 25.9998 34.2799 25.9998 33.1799V29.5899C25.9998 28.4899 25.0998 27.5899 23.9998 27.5899Z"/></svg>