<svg xmlns="http://www.w3.org/2000/svg" viewBox="0 0 48 48"><path fill="currentColor" d="M28.6,18.6c-.6,0-1,.2-1.4,.6h0l-5.4,5.4-1.8-1.8c-.4-.4-.9-.6-1.4-.6s-1,.2-1.4,.6-.6,.9-.6,1.4,.2,1,.6,1.4l3.2,3.2c.2,.2,.4,.4,.7,.5,.3,0,.5,.2,.8,.2s.6,0,.8-.2c.3,0,.5-.3,.7-.5l6.9-6.9c.4-.4,.6-.9,.6-1.4s-.2-1-.6-1.4-.9-.6-1.4-.6Zm11.2-10.6c0-.3-.3-.5-.6-.7-.2-.2-.5-.3-.8-.4h-.9c-2.1,.5-4.4,.5-6.5,0s-4.2-1.3-6-2.6c-.4-.2-.8-.4-1.1-.4s-.8,0-1.1,.4c-1.8,1.2-3.8,2.1-6,2.6-2.1,.5-4.4,.5-6.5,0h-.9c-.3,0-.6,.2-.8,.4-.2,.2-.4,.4-.6,.7s-.2,.6-.2,.9v14.9c0,2.9,.7,5.7,2,8.3,1.3,2.6,3.2,4.8,5.5,6.4l7.3,5.2c.4,.3,.8,.4,1.1,.4s.9,0,1.1-.4l7.3-5.2c2.4-1.7,4.2-3.9,5.5-6.4,1.3-2.6,2-5.3,2-8.3V8.9c0-.3,0-.6-.2-.9Zm-3.8,15.8c0,2.2-.6,4.5-1.5,6.4-1,2-2.5,3.7-4.3,5l-6.1,4.4-6.1-4.4c-1.8-1.3-3.3-3-4.3-5-1-2-1.5-4.2-1.5-6.4V11.1c4.2,.4,8.4-.6,12-2.8,3.6,2.2,7.8,3.1,12,2.8v12.6h-.2Z"/></svg>