<svg xmlns="http://www.w3.org/2000/svg" viewBox="0 0 48 48"><path fill="currentColor" d="M40 17.5996C40 15.8868 39.9983 14.7223 39.9248 13.8223C39.8532 12.946 39.7237 12.4973 39.5645 12.1846L39.5635 12.1836C39.18 11.4312 38.5688 10.8189 37.8164 10.4355C37.5035 10.2761 37.0545 10.1468 36.1777 10.0752C35.2777 10.0017 34.1133 10 32.4004 10H15.5996C13.8868 10 12.7224 10.0017 11.8223 10.0752C10.9454 10.1468 10.4964 10.2762 10.1836 10.4355C9.43108 10.819 8.81902 11.4311 8.43555 12.1836C8.27617 12.4964 8.14684 12.9454 8.0752 13.8223C8.00167 14.7224 8 15.8868 8 17.5996V28.4004C8 30.1133 8.00167 31.2777 8.0752 32.1777C8.14683 33.0545 8.27612 33.5035 8.43555 33.8164C8.81893 34.5688 9.4312 35.18 10.1836 35.5635L10.1846 35.5645C10.4973 35.7237 10.946 35.8532 11.8223 35.9248C12.7223 35.9983 13.8868 36 15.5996 36H32.4004C34.1133 36 35.2777 35.9983 36.1777 35.9248C37.0545 35.8532 37.5035 35.7239 37.8164 35.5645C38.5687 35.1811 39.1801 34.5687 39.5635 33.8164C39.7229 33.5035 39.8532 33.0545 39.9248 32.1777C39.9983 31.2777 40 30.1133 40 28.4004V17.5996ZM24 23C24 20.2386 21.7614 18 19 18C16.2386 18 14 20.2386 14 23C14 25.7614 16.2386 28 19 28C21.7614 28 24 25.7614 24 23ZM32 28V23.4629C30.8049 22.7712 30 21.4802 30 20C30 17.7909 31.7908 16 34 16C36.2092 16 38 17.7909 38 20C38 21.4802 37.1951 22.7712 36 23.4629V28C36 29.1046 35.1046 30 34 30C32.8954 30 32 29.1046 32 28ZM19.0195 21C20.1241 21 21.0195 21.8954 21.0195 23C21.0195 24.1046 20.1241 25 19.0195 25H19C17.8954 25 17 24.1046 17 23C17 21.8954 17.8954 21 19 21H19.0195ZM28 23C28 27.9706 23.9706 32 19 32C14.0294 32 10 27.9706 10 23C10 18.0294 14.0294 14 19 14C23.9706 14 28 18.0294 28 23ZM44 28.4004C44 30.0474 44.0011 31.4032 43.9111 32.5039C43.8193 33.628 43.6224 34.6612 43.1279 35.6318C42.361 37.1372 41.1372 38.361 39.6318 39.1279C38.6612 39.6224 37.628 39.8193 36.5039 39.9111C36.3416 39.9244 36.1735 39.9348 36 39.9443V42C36 43.1046 35.1046 44 34 44C32.8954 44 32 43.1046 32 42V40H16V42C16 43.1046 15.1046 44 14 44C12.8954 44 12 43.1046 12 42V39.9443C11.8265 39.9348 11.6584 39.9244 11.4961 39.9111C10.372 39.8193 9.33874 39.6225 8.36816 39.1279C6.86287 38.361 5.63908 37.1372 4.87207 35.6318C4.37757 34.6612 4.18073 33.628 4.08887 32.5039C3.99893 31.4032 4 30.0474 4 28.4004V17.5996C4 15.9526 3.99893 14.5969 4.08887 13.4961C4.18073 12.372 4.37754 11.3387 4.87207 10.3682C5.63906 8.86286 6.86286 7.63906 8.36816 6.87207C9.33874 6.37754 10.372 6.18073 11.4961 6.08887C12.5969 5.99893 13.9526 6 15.5996 6H32.4004C34.0474 6 35.4032 5.99893 36.5039 6.08887C37.628 6.18073 38.6612 6.37757 39.6318 6.87207C41.1372 7.63908 42.361 8.86287 43.1279 10.3682C43.6225 11.3387 43.8193 12.372 43.9111 13.4961C44.0011 14.5969 44 15.9526 44 17.5996V28.4004Z"/></svg>