<svg data-name="Layer 1" xmlns="http://www.w3.org/2000/svg" viewBox="0 0 512 512"><path d="M258.93 207.55a126.59 126.59 0 00-68.53-68.62A127.77 127.77 0 0071.56 150.6a126.65 126.65 0 10197 105.45 126 126 0 00-9.63-48.5zM226.87 312.8a102.13 102.13 0 1117.29-56.8 101.81 101.81 0 01-17.29 56.8z" fill="#edaf24"/><path d="M280.86 189.54h-80.61s-49.07 39-49.08 38.79c.08.07-29.1-38.79-29.1-38.79H52.33c.09 0 55.8 68.66 55.79 68.67C108.31 258.36 6.14 338 6 338s79.93.05 80 0 53.05-42 53.13-41.93S167.34 338 167.33 338s70.73.13 70.76 0-56.33-72.24-56.33-72.24c.31-.09 99.17-76.22 99.1-76.22zm73.26 83.24a58.19 58.19 0 002.47-17.93c0-8.1-5.13-17.52-12.76-22.89-7.33-4.7-15.88-7.15-23.16-8.64a154 154 0 00-17.79-1.93h-4.64.06a177.44 177.44 0 00-18.29.86 121.09 121.09 0 00-13.15 1.92c-4.24 1.46-9 1.88-14 4-16.74 5.39-31.76 19.06-35.93 36.27-1.13 4.63-2.29 10.48-1.38 16.23 1.06 10.86 10.85 20 21.41 23.66a76.31 76.31 0 0013.7 3.67c5.54.84 11.33 1.47 17.54 1.93a142.65 142.65 0 0019.06.28 161.3 161.3 0 0018.35-2c4.5-.84 9.76-1.7 14.25-3 11.14-3.28 26.42-9.3 30.32-22.34h-51.86c-2.24 5.46-8.89 8.67-14 9.19-6.36.65-15.68.45-17.56-7.54-1.05-4.32-.72-7 .14-11.65zm-71.37-31.55a21.27 21.27 0 019.59-2.2 18.79 18.79 0 0111.11 3.3c3.78 4.38 3.3 9.1 2.2 13.93 0 0-34.55.35-34.55.32 1.36-6.46 5.44-12.7 11.65-15.35zm216.39-10.94c-6.74-6.15-15.19-7.8-23.43-8.65a73.73 73.73 0 00-7.57-.33A92.77 92.77 0 00454 222.5c-9.32 1.54-21.44 7.41-30.38 16.38 0-.17 2.61-14.82 2.61-14.82h-52.3s-17.94 82.8-18.09 82.69h53c2.12-9.72 4.39-19.4 6.72-29.05 2.63-9.16 2.54-20.26 11.11-27 4.65-3.67 10.82-3.79 15.63-3.69 7.14.15 9.64 7.91 8.37 13.15-3.75 15.35-10.59 46.64-10.59 46.59h52.94s8.7-35.1 12.3-52.77c1.62-7.84.55-17.55-6.18-23.69z" fill="#197ad1"/></svg>