<svg data-name="Layer 1" xmlns="http://www.w3.org/2000/svg" viewBox="0 0 512 512"><path d="M114.06 310.34h32.6V201.61h-32.6zM63 231.18c9.58 0 19.09 5.13 23.91 13.17l17.17-27.72a57 57 0 100 78.85L87 267.69c-4.82 8-14.33 13.17-23.93 13.17-13.72 0-23.73-11.09-23.73-24.81s10-24.87 23.66-24.87zm41.09-14.56zm276.49-15H348v108.71h32.61zM155.45 230h24.79v80.32h32.46V230h24.8v-28.39h-82.05zm220.21 93a20.43 20.43 0 00-19.17-2 20.44 20.44 0 00-12.64 18.89 20.43 20.43 0 1031.81-17zM141.75 155.1a20.44 20.44 0 107.52 9.18 20.42 20.42 0 00-7.52-9.18zm326.43 96.53l36-50h-40l-14.91 23.06-12.88-23.06h-39.94l33.38 49.88-43.56 58.85h39.51l23-32 18.13 32H506zm-140.32-15.35c0-10.14-3-18.28-9.07-24.31-6.76-6.79-17-10.36-29.71-10.36h-42.74v108.73H279v-32.46l20.72 32.46h41.05L307.58 267c12.42-4.23 20.28-15.8 20.28-30.72zm-29.2 1.6c0 9-5.78 12.7-19.67 12.84v-25.61c5.54 0 13 .57 16.82 4.43 1.94 2 2.9 4.68 2.9 8.34z" fill="#197ad1"/></svg>