<svg data-name="Layer 1" xmlns="http://www.w3.org/2000/svg" viewBox="0 0 512 512"><path d="M89.81 502.94h19.81v-95H89.81zM69.13 311.36H31.89v-35.85H11.64v89.89h20.25v-36.61h37.24v36.61h20.31v-89.89H69.13zm98.42 164.12q0 6.39-3.2 10.12a10.65 10.65 0 01-8.53 3.73q-10.77 0-10.78-13.6v-37H125.3v38.75q0 27 22.31 27 12.28 0 19.62-11.34h.32v9.78h19.74v-64.2h-19.74zm178.72-162.36H346v-11.91h-19.79v64.19H346v-30.65q0-8.14 3.64-12.89a12 12 0 0110.09-4.73 17.18 17.18 0 018.34 1.95v-18.25a12.79 12.79 0 00-4.89-.75q-12.18 0-16.91 13.04zM19.32 425Q6 438.38 6 459.93q0 20.25 11.85 32.41t32.53 12.16q15.87 0 25.71-4.76v-18.49A42.21 42.21 0 0154.4 487q-12.4 0-19.75-7.73t-7.34-20.78q0-13.61 7.78-21.56t20.43-8a39.31 39.31 0 0120.57 5.4v-19.5q-9-3.32-22.2-3.32-21.24.03-34.57 13.49zm120.2-292.24c20.84-.33 41.7 0 62.54 0s41.7-.33 62.21 0c5.78 0 8.13-1.67 7.77-7.78-.33-9.76 0-19.53 0-29.29.33-26.52 0-53.44 0-79.9 0-4.15 1.34-9.16-6.1-8.14-42.72 6.45-85.44 12.43-128.16 18.53-5.46 1-7.45 3-7.45 8.77.34 29.62.34 59.05 0 89 .04 7.43 2.74 8.76 9.19 8.76zm.76 118.78c41.37 5.8 82.89 11.44 123.93 17.55 6.1 1 8.13-.34 8.13-6.8v-55.13c0-18.37-.32-36.62.34-55.1 0-6.1-1.66-8.77-8.43-8.77-41.53 0-83.23 0-125.59-.33-6.45 0-8.43 2-8.43 8.44.34 29.62.67 59.06 0 88.34-.02 8.12 2.61 10.76 10.05 11.75zM18.09 132.7h46c15.05 0 30.62-.32 46-.32 5.78 0 8.44-1 8.44-7.45v-88c0-5.8-.67-8.14-7.79-7.12q-46.26 7.45-92.66 13.4c-6.11 1-7.78 3-7.78 8.77.31 24.32.31 48.47 0 72.64.01 6.1 1.99 8.08 7.79 8.08zm.05 101.75c30.75 4.26 61.7 8.83 92.64 13.41 4.81.49 7.12 0 7.12-5.31l-.06-92c0-5.08-2.14-6.78-7.12-6.78H64.1c-15.56 0-30.61 0-46.32-.49-6.1 0-7.78 1.68-7.78 7.78.34 25 .34 49.46 0 74 0 6.34 2 8.41 8.14 9.39zm125 136.09l26.08-69.33h-19.66l-12.1 39.18a58.3 58.3 0 00-2.07 8.46h-.25a51.33 51.33 0 00-1.76-8.59l-12-39.05H99.47l26.08 64.07-3.39 8q-3 7.2-10.66 7.21a16.69 16.69 0 01-8.58-2.32v15.79a36.17 36.17 0 0011.84 1.63q18.94-.04 28.34-25.05zm269.12-46.32h-34.33v13.85h34.29zm-127.38 95l-19.75 5.64v13.85h-10.45v14.61h10.41v29.4q0 21.75 20.94 21.75 8.84 0 13.22-2.32v-14.63a13.39 13.39 0 01-6.45 1.81q-8 0-8-10v-25.98h14.41v-14.61h-14.37zm53.85 17.93a30.89 30.89 0 00-22.82 9.34q-9.28 9.35-9.28 25.32 0 15.42 8.59 24t24.13 8.62q14.24 0 23.13-4.76v-14.22a34.37 34.37 0 01-18.61 5q-16.62 0-17.62-14h41.88v-8.34q0-14.28-7.68-22.63t-21.76-8.3zm-12.6 27.14a17.89 17.89 0 014.23-9.84 10.65 10.65 0 018.24-4q11.16 0 11.16 13.79zm158.68-188.78l-18.62 62.31a50.58 50.58 0 00-1.94 9.21h-.38a44.93 44.93 0 00-1.81-9l-18.75-62.56H421.5l30.59 89.89H475l31-89.89zM285.65 367q14.24 0 23.13-4.77v-14.32a34.32 34.32 0 01-18.61 5q-16.62 0-17.62-14h41.88v-8.34q0-14.3-7.68-22.63t-21.75-8.3a30.93 30.93 0 00-22.79 9.36q-9.28 9.34-9.28 25.33 0 15.42 8.59 24t24.13 8.67zm-9-50a10.65 10.65 0 018.25-4q11.16 0 11.16 13.8h-23.64a18 18 0 014.24-9.86zM236 357.25q7.93-9.72 7.93-25.76 0-14.73-6.8-23.29t-19.28-8.56q-13.29 0-20.62 11.22H197v-9.65h-19.86v93.72H197v-37h.25q6.08 9 17.68 9Q228 367 236 357.25zm-35.82-9.65q-3.53-4.2-3.52-10.85v-5.14q0-7.58 3.86-12.19a12.37 12.37 0 019.94-4.61q13.15 0 13.16 16.93 0 9.58-3.73 14.82a12.16 12.16 0 01-10.5 5.24 11.42 11.42 0 01-9.24-4.2zm44.16 123.55a23 23 0 00-5.49-3.82 57 57 0 00-7.14-3c-1.47-.5-2.94-1-4.42-1.47a30 30 0 01-4-1.63 9.78 9.78 0 01-2.94-2.17 4.32 4.32 0 01-1.13-3 3.9 3.9 0 01.75-2.35A5.58 5.58 0 01222 452a12.06 12.06 0 013-1 18.66 18.66 0 013.67-.35 34 34 0 018.43 1.1 31.41 31.41 0 018.06 3.29v-15.29a62.85 62.85 0 00-8.66-1.91 58 58 0 00-8.65-.66 46.42 46.42 0 00-10.5 1.16 28.58 28.58 0 00-9 3.63 19.18 19.18 0 00-6.27 6.37 17.54 17.54 0 00-2.35 9.27 20.26 20.26 0 001 6.84 15.23 15.23 0 003 5.07 19.51 19.51 0 004.89 3.86 47.37 47.37 0 006.74 3.1q2.38.94 4.95 1.69a41.41 41.41 0 014.74 1.7 13.05 13.05 0 013.54 2.19 4.07 4.07 0 011.38 3.14 4.66 4.66 0 01-3 4.38 19.58 19.58 0 01-8.27 1.42 32 32 0 01-9.18-1.45 42.26 42.26 0 01-9.75-4.38v16a57.21 57.21 0 0019.62 3.26 52.14 52.14 0 0011.13-1.16 29.75 29.75 0 009.46-3.69 20 20 0 006.59-6.59 20.61 20.61 0 001.25-16.77 15.27 15.27 0 00-3.51-5.07zm155.62-20.5h-.25v-11.91h-19.84v64.2h19.81v-30.66q0-8.14 3.64-12.88a12 12 0 0110.09-4.73 17.24 17.24 0 018.34 1.94v-18.24a12.79 12.79 0 00-4.89-.75q-12.22 0-16.93 13.03z" fill="#35a6de"/></svg>