<svg data-name="Layer 1" xmlns="http://www.w3.org/2000/svg" viewBox="0 0 512 512"><path d="M14.14 277.37c30.75 4.25 61.7 8.83 92.64 13.4 4.81.49 7.12 0 7.12-5.31l-.06-92c0-5.09-2.14-6.79-7.12-6.79H60.1c-15.56 0-30.61 0-46.32-.49-6.1.02-7.78 1.7-7.78 7.82.34 25 .34 49.46 0 73.95 0 6.37 2 8.43 8.14 9.42zm122.14 17c41.37 5.79 82.89 11.44 123.93 17.54 6.1 1 8.13-.34 8.13-6.79v-55.05c0-18.37-.32-36.62.34-55.1 0-6.1-1.66-8.77-8.43-8.77-41.53 0-83.23 0-125.59-.33-6.45 0-8.43 2-8.43 8.44.34 29.62.67 59.06 0 88.35-.02 8.11 2.61 10.76 10.05 11.75zm-.76-118.78c20.84-.34 41.7 0 62.54 0s41.7-.34 62.21 0c5.78 0 8.13-1.68 7.77-7.78-.33-9.77 0-19.53 0-29.3.33-26.51 0-53.44 0-79.9 0-4.15 1.34-9.15-6.1-8.14C219.22 57 176.5 63 133.78 69.07c-5.46 1-7.45 3-7.45 8.77.34 29.62.34 59.06 0 89 .04 7.45 2.74 8.79 9.19 8.79zM64.8 376.57H27.2v-36.22H6.75v90.79H27.2v-37h37.6v37h20.51v-90.79H64.8zM14.09 175.62h46c15.05 0 30.62-.33 46-.33 5.78 0 8.44-1 8.44-7.44v-88c0-5.8-.67-8.14-7.79-7.12Q60.49 80.17 14.09 86.1c-6.11 1-7.78 3-7.78 8.78.31 24.32.31 48.46 0 72.63 0 6.12 1.98 8.11 7.78 8.11zm362.57 227.92h34.63v-14h-34.63zm107.94-63.19l-18.8 62.93a51 51 0 00-2 9.31h-.38a45.37 45.37 0 00-1.84-9l-18.93-63.19h-22l30.9 90.79h23.17L506 340.35zm-350.79 65.53a60.89 60.89 0 00-2.09 8.55h-.25a52 52 0 00-1.78-8.68l-12.09-39.44H95.44L121.78 431l-3.42 8q-3 7.29-10.76 7.28a16.85 16.85 0 01-8.68-2.28v15.95a36.65 36.65 0 0012 1.65q19.12 0 28.62-25.26l26.33-70H146zm210.88-27.54h-.25v-12h-20v64.83h20v-31q0-8.22 3.67-13a12.14 12.14 0 0110.19-4.78 17.42 17.42 0 018.42 2v-18.46a12.82 12.82 0 00-4.94-.76q-12.34 0-17.09 13.17zM215 364.73q-13.42 0-20.83 11.33h-.25v-9.75h-20V461h20v-37.39h.25q6.13 9.11 17.85 9.11 13.31 0 21.31-9.81t8-26q0-14.88-6.87-23.52T215 364.73zm2 47.39a12.28 12.28 0 01-10.61 5.28 11.52 11.52 0 01-9.3-4.24q-3.56-4.25-3.55-11V397q0-7.66 3.89-12.32a12.51 12.51 0 0110-4.65q13.29 0 13.29 17.09.07 9.71-3.72 15zm65.81-47.39a31.22 31.22 0 00-23 9.43q-9.36 9.43-9.37 25.58 0 15.57 8.68 24.28t24.37 8.7q14.37 0 23.36-4.81v-14.43a34.78 34.78 0 01-18.8 5.06q-16.78 0-17.79-14.12h42.29V396q0-14.43-7.76-22.85t-21.95-8.42zm-12.73 27.41a18.08 18.08 0 014.28-9.94 10.74 10.74 0 018.32-4q11.27 0 11.27 13.93z" fill="#35a6de"/></svg>