<svg id="Layer_1" data-name="Layer 1" xmlns="http://www.w3.org/2000/svg" viewBox="0 0 512 512"><defs><style>.cls-1{fill:#e3e3e1}.cls-2{fill:#f1f0f0}.cls-5{fill:#e8c31e}.cls-7{fill:#eed441}</style></defs><path d="M280.39 62.69l-36.3 116.27-5.29-19.21-31.63-97.06h-34.91l56.2 157 30.75-.05v-.02h.02l55.48-156.93h-34.32zm-169.36 54.6l45.94-54.62h-37.83s0 .01-.01.02c-18.94 22.95-38.06 45.79-56.5 69.14l.3-69.15-.02.02H31.35v.02h-.02v156.95h31.56v-.02h.02V173.9l24.5-29.05.75-.45 42.59 75.27h37.53v-.02h.02L111.03 117.3zm369.63 102.38h-.02v.02l.02-.02zM449.44 62.76l-33.17 74.71-8.97 22.55-11.13-26.83-32.68-70.47h-30.17v156.96h30.94l-.46-91.5c12.33 30.86 27.31 60.57 40.62 91 .68.95 2.72.3 3.81.51l41.5-91.51-.61 91.5h31.54V62.73l-31.21.04z" fill="#35354c"/><path d="M171.3 298.38c33.9-3.67 37.67 47.16 5.27 49.71-32.93 2.6-36.81-46.3-5.27-49.71z" fill="#c11d71"/><path d="M337.92 198c33.9-3.68 37.65 47.15 5.28 49.71-32.38 2.56-36.8-46.28-5.28-49.71z" fill="#4c853d"/><circle cx="201.33" cy="131.47" r="25" fill="#3177bc"/><g id="R2EfDG"><path d="M305.6 344.16c-1.66.6-5.39 4.53-8.11 4.93-.8 2.38 4.04 4.59 5.91 4.9 31.42 5.16 30.76-22.1 42.43-41.89 2.09-3.56 6.19-6.97 7.8-11.07 3.64-9.32-2.95-18.26.46-27.84 3.73-.06 3.96 2.04 5.76 4.56 3.07 4.33 6.34 11.84 7.71 16.97 1.89 7 .06 25.09-1.35 28.73-3.21 8.29-11.01 17.32-16.6 23.37-9.03 9.72-19.55 18.29-31.39 24.31 7.74 19.21 11.24 40.28 7.94 60.89-7.43.37-14.94-.14-22.36.09v-.89c2.64-15.94.6-33.4-7.74-47.51-1.75-2.95-6.16-7.31-7.05-9.12-1.55-3.21-2.61-11.67-4.3-16.37-2.38-6.59-10.69-19.5-11.47-24.91-.23-1.55.92-3.13.89-3.58-.06-.89.09-1.81 0-2.69 2.15-2.44-.6-9.09-2.69-9.89 5.91-8.46 4.56-24.89-6.28-27.84 8.08 15.42-13.16 22.22-12.59 3.58-4.93 4.21-4.5 11.9-.89 17.06-3.96-1.06-9.78-1.83-13.47 0-.29 0-3.61.95-3.78 1.03l1.98-1.92c3.35-5.25-.37-17.4-7.2-17.95-1.75-.14-3.35-.26-4.47 1.35 2.52 4.39 3.44 6.88 5.36.46 1.92 5.91.4 14.91-7.14 10.29a9.64 9.64 0 01-2.44-2.78 9.175 9.175 0 01-1.18-3.93c-.52 2.41-.72 6.36-.23 11.21.37 3.78 1.43 7.43 3.81 10.32-.26.17-2.87 4.73-3.15 5.39-3.01 6.77-.57 5.82 3.15 9.89 2.81 13.56-7.4 20.93-12.16 31.42-1.55 3.41-1.49 4.79-2.24 8.11-.72 3.3-1.38 6.54-1.81 9.89-2.04.97-9.78 15.45-9.89 17.6-.17 2.98 3.33 4.47 4.9 6.71 2.72 3.87 4.27 8.72 2.78 13.45-2.81 9.09-11.67-3.56-13.07-1.83-.14 4.33-.95 8.14-.89 12.56v1.81c-4.44-.11-9.15.69-13.36-1-.17-5.82 2.06-11.41 3.47-16.94-10.69-.46-17.35 5.68-28.56 2.98-2.95-.72-17.95-8.23-20.36-10.18-5.22-4.16-6.77-11.35-3.9-17.37 9.26-19.29 57.05-40.54 77.55-43.69 6.22-.97 8.57 1.49 9.46-7.6 1.58-16.03-3.13-36.21-1.86-53.07 3.64-49.54 68.06-47.42 79.9-4.42 3.9 14.19.63 30.68 3.7 43.89.63 2.69 4.24 7.51 5.53 10.64 1.09 2.69.29 6.34 3.41 7.83l.06.06zm-31.42-53.9c1.2-1.2-4.56-6.08-6.28-5.39-1.18 1.12 5.59 6.05 6.28 5.39zm-42.66-4.48v.89c.57-.29.57-.6 0-.89zm4.93 5.36c.46-4.85-6.39-6.62-2.04-1.15.54.69-.09 1.69 2.04 1.15zm-26.95 59.29c-7.91.43-15.88 2.92-23.05 6.14-5.85 2.61-31.59 17.55-32.63 23.08-1.18 6.36 4.64 14.02 11.01 14.65l29.39-13.79c4.13-10.61 8.74-20.73 15.28-30.05v-.03zm-16.17 35.04c-.54-.52-11.84 4.42-13.22 5.19-6.71 3.78 8.6 5.99 9.49 5.42.49-.29 4.13-10.24 3.73-10.64v.03z" fill="#36354c"/><path class="cls-2" d="M354.11 273.2c-3.41 9.55 3.18 18.49-.46 27.84-1.61 4.1-5.71 7.48-7.8 11.07-11.67 19.78-11.01 47.05-42.43 41.89-1.86-.32-6.71-2.49-5.91-4.9 2.72-.4 6.45-4.36 8.11-4.93.43-.14.77 0 .89 0 .8.09 5.22.14 11.35-6.14 2.98-3.04 4.5-5.71 7.4-10.75 5.3-9.32 4.87-12.44 9.6-16.23.97-.77 4.19-4.07 4.87-4.59 2.24-1.66 5.68-4.04 6.28-6.28.89-3.33 2.21-5.1 2.75-7.71.92-4.44 2.32-7.45.37-11.67.17-1.75-.17-4.5.49-5.73.95-1.29 2.29-2.09 4.5-1.81l-.03-.06z"/><path class="cls-1" d="M190.63 431.25h38.62v-16.63c0-.32.86-1.49.95-2.67.34-4.47.32-9.06.86-13.5.14-1.23.63-2.87 1.78-1.35l-.89 34.12h71.85v.89c-37.21 1.23-75.69 1.78-113.16.89v-1.81.06z"/><path d="M259.93 339.14s2.24-1.72 2.58-2.18l11.32-7.05c.77 5.42 8.51 21.79 10.89 28.38 1.69 4.67 2.75 13.16 4.3 16.37.86 1.81 5.3 6.19 7.05 9.12 8.31 14.11 10.35 31.57 7.74 47.51h-71.85l.89-34.12c-1.15-1.52-1.63.11-1.78 1.35-.57 4.44-.52 9.06-.86 13.5-.09 1.15-.95 2.35-.95 2.67v16.63h-38.62c-.06-4.44.75-8.23.89-12.56 1.38-1.69 10.24 10.92 13.07 1.83 1.46-4.76-.09-9.58-2.78-13.45-1.58-2.24-5.07-3.73-4.9-6.71.11-2.15 7.86-16.63 9.89-17.6.77-.37 2.67.06 3.99-.95 1.52-1.15 1.15-2.98 1.61-3.35.75-.63 3.44.2 4.3-1.55 1.32-2.41-4.44-1.52-4.79-1.61-1.35-.37-2.04-1.89-3.27-2.41.75-3.33.69-4.7 2.24-8.11 4.73-10.46 14.97-17.86 12.16-31.42 3.73 4.07 9.49 12.5 14.85 13.42 8.31 1.4 15.6-2.95 22.08-7.65l-.06-.06zm24.91 27.58c-2.61-1.46-3.47 2.35-4.82 3.47-6.14 4.93-13.68 2.69-20.67 3.58-1.23.17-2.78.6-1.35 1.81 9.4.97 20.33 3.61 28.13 9.15 2.49 1.78 10.72 12.61 10.52 4.9 0-.54-1.35-.54-1.46-.86-2.35-5.73-5.93-9.03-7.45-12.79-.83-2.06-1.46-8.43-2.9-9.23v-.03zm-75.34-16.29c-6.54 9.35-11.15 19.47-15.28 30.05l-29.39 13.79c-6.36-.63-12.18-8.26-11.01-14.65 1.03-5.53 26.75-20.5 32.63-23.08 7.2-3.18 15.17-5.71 23.05-6.14v.03z" fill="#fafbf9"/><path d="M232.86 312.7c-.63 1.26-2.44 3.9-2.47 4.13-.57 2.72 2.49 6.62 2.58 8.92.06 1.63-1.69 1.15-1.89 1.92-2.61 11.04 6.57 9.26 14.36 7.48l.89-.89c.72-.17 1.78-.63 2.69-.89h.89c.26-.09.63.09.89 0 2.58-.83 5.22-1.58 7.2-3.58 2.49-.52 5.62-5.13 7.14-5.76 1.23-.52 6.82 1.23 6.31-2.32.95 1.43 2.44 3.13 2.69 5.39.09.89-.06 1.81 0 2.69l-11.67 7.2c-.34.43-4.82 4.27-5.1 4.5-6.51 4.73-11.21 6.74-19.52 5.33-5.36-.92-11.12-9.35-14.85-13.42s-6.16-3.13-3.15-9.89c.29-.63 2.9-5.19 3.15-5.39.23-.17 2.18-.06 3.35-1 2.18-1.78 2.15-1.29 6.54-4.39l-.03-.03z" fill="#cb9c2c"/><path class="cls-2" d="M271.48 317.21c-.8-.29-2.81.17-4.47-.43-4.9-1.83-10.72-5.53-15.28-6.74-3.61-5.16-4.04-12.84.89-17.06-.6 18.64 20.67 11.84 12.59-3.58 10.84 2.95 12.18 19.38 6.28 27.84v-.03z"/><path class="cls-5" d="M238.25 310.01s.63.83 1.32.77c1.63-.09 3.24-1.12 4.96-.77-2.12 4.42.92 4.67.95 4.99.17 1.86-3.73 14.68-2.72 15.65 2.41.75 9.23-2.21 8.08 2.69-.26.09-.63-.09-.89 0-.03 0 .14-.29-.89 0-.92.26-1.98.75-2.69.89-.37.09-.72.86-.89.89-7.77 1.78-16.97 3.56-14.36-7.48.17-.77 1.95-.29 1.89-1.92-.09-2.29-3.15-6.16-2.58-8.92.06-.23 1.86-2.87 2.47-4.13.29-.6-.77-2.35 1.81-1.81.09 0 2.09-.66 2.69-.89.17-.09.6 0 .89 0l-.03.03z"/><path class="cls-2" d="M236.45 309.12c-.4.63-1.29 1.18-1.81 1.81-.83.43-1.49 1.2-1.81 1.81-3.93 2.78-3.56 2.18-5.73 3.96-1.18.95-3.9 1.26-4.16 1.43-4.82-5.82-4.19-14.56-3.58-21.56a14.01 14.01 0 003.61 6.68c3.01 1.81 4.79 1.15 5.13.97 3.01-1.35 3.35-7.08 2.01-11.27-.2-.6-.66-1.18-.89-1.81 6.82.57 10.55 12.7 7.2 17.95l.03.03z"/><path class="cls-7" d="M251.73 310.01c4.56 1.2 10.38 4.93 15.28 6.74 1.66.63 3.7.14 4.47.43 2.09.77 4.85 7.45 2.69 9.89-.26-2.26-1.75-3.93-2.69-5.39-.2-.32.37-1.86-1.12-2.06l-19.55-6.02c-.29 2.32 2.44 2.69 2.72 4.96.26 2.04-2.44 1.55-2.75 2.69-.4 1.52 2.32 2.41 2.58 3.73.34 1.83-4.07 4.76.6 5.73 2.72.57 2.12-1.89 2.78-1.89.54 0 1.12.97 1.26.95-1.95 2.04-4.62 2.75-7.2 3.58 1.15-4.9-5.68-1.95-8.08-2.69-1-.97 2.9-13.79 2.72-15.65 0-.32-3.07-.57-.95-4.99-1.75-.34-3.33.69-4.96.77-.69.03-1.18-.77-1.32-.77 3.7-1.83 9.52-1.06 13.47 0h.03z"/><path class="cls-2" d="M208.61 372.88c1.26.52 1.95 2.04 3.27 2.41.34.09 6.11-.8 4.79 1.61-.86 1.75-3.56.92-4.3 1.55-.46.37-.09 2.21-1.61 3.35-1.32 1-3.21.57-3.99.95.4-3.35 1.06-6.59 1.81-9.89l.03.03z"/><path class="cls-1" d="M284.84 366.72c1.43.8 2.06 7.17 2.9 9.23 1.52 3.76 5.1 7.05 7.45 12.79.14.32 1.46.34 1.46.86.2 7.71-8.03-3.13-10.52-4.9-7.83-5.53-18.72-8.17-28.13-9.15-1.43-1.18.11-1.63 1.35-1.81 7-.89 14.51 1.35 20.67-3.58 1.38-1.09 2.21-4.93 4.82-3.47v.03z"/><path class="cls-5" d="M258.01 329.79s-.69-.95-1.26-.95c-.66 0-.06 2.47-2.78 1.89-4.67-.97-.26-3.9-.6-5.73-.26-1.32-2.98-2.21-2.58-3.73.29-1.12 3.01-.63 2.75-2.69-.29-2.24-3.01-2.64-2.72-4.96l19.55 6.02c1.49.2.92 1.75 1.12 2.06.52 3.56-5.1 1.81-6.31 2.32-1.55.63-4.64 5.25-7.14 5.76h-.03z"/><path class="cls-7" d="M249.92 333.38h-.89c1.03-.29.86 0 .89 0zm-4.5 1.77c.2-.06.54-.83.89-.89l-.89.89z"/></g></svg>