<svg xmlns="http://www.w3.org/2000/svg" width="512" height="512" viewBox="0 0 512 512"><defs><mask id="a" x="-4.53" y="218.32" width="358.33" height="139.69" maskUnits="userSpaceOnUse"><path d="M102.37 244.09c-.12-2.31.08-4.62.58-6.88 1.33-4.73 4.7-7.55 9.62-7.76 4.63-.19 8.08 2.18 9.92 6.45.77 1.73 1.2 3.59 1.25 5.49.08 31.57.24 63.13-.04 94.7-.09 10.13-9.56 15.44-17.59 10.3-2.58-1.66-4.74-4.17-6.68-6.62-7.68-9.75-15.19-19.64-22.78-29.46-11.05-14.3-23.04-28.89-34.36-43.54-.24 3.91-.16 4.75-.16 6.69-.05 20.41-.14 40.83.03 61.24.05 5.77-1.18 10.58-6.87 12.92-5.94 2.44-11.1-1.1-13-6.34-.49-1.7-.7-3.47-.62-5.24v-92.6c0-2.75-.07-6.02 1.54-8.25 4.93-6.83 15.63-7.71 23.4 2.36 17.1 22.15 34.22 44.28 51.36 66.4 1 1.29 2.45 3.09 3.64 4.47M214 343.64c12.37-6.93 18.04-17.64 17.44-31.84-.55-13.09-7.63-21.38-19-26.65-6.71-3.11-13.83-4.98-20.99-6.75-6.33-1.56-12.73-3.05-18.39-6.44-8.66-5.19-8.37-16.62.46-21.53 2.99-1.56 6.3-2.41 9.68-2.5 10.12-.57 18.86 3.31 27.46 7.99 6.4 3.49 11.7 2.29 14.9-2.85 3.21-5.16 1.88-10.63-4.37-14.44-17.27-10.53-35.65-13.52-54.96-6.44a31.397 31.397 0 00-15.16 11.38 31.457 31.457 0 00-5.86 18.03c-.26 15.66 5.23 24.4 19.5 30.59 6.39 2.71 13.02 4.83 19.8 6.33 6.15 1.42 12.25 3.06 17.95 5.86 4.75 2.33 7.49 6.02 7.22 11.53-.26 5.31-2.73 9.16-7.59 11.41a27.036 27.036 0 01-9.72 2.44c-12.37.81-23.06-3.34-33-10.37-6.51-4.6-12.68-3.97-16.14 1.07-3.68 5.36-1.97 11.34 4.91 15.93 12.36 8.23 25.81 13.15 41.34 12.6 8.52.6 17.04-1.26 24.53-5.38v.03zM341.17 234.6c-3.83-6.98-12.72-7.04-18.34.07-8.21 10.39-16.19 20.97-24.25 31.48-3.31 4.31-6.54 4.38-9.7.19-8.13-10.72-16.19-21.5-24.47-32.11-4.11-5.27-10.86-6.33-15.7-2.95-4.89 3.43-5.59 9.68-1.69 15.68a47.56 47.56 0 003.05 4.01c7.93 9.81 15.9 19.59 23.79 29.43 6.17 7.7 6.01 7.64-.13 15.1-9.22 11.2-18.32 22.49-27.32 33.87-5.15 6.51-5.04 13.06-.1 16.81 5.28 4.01 11.23 2.83 16.34-3.66 8.58-10.91 16.92-22 25.42-32.97 4.99-6.45 5.01-6.39 10.02.16 8.69 11.36 17.33 22.74 26.17 33.98 4.21 5.35 10.56 6.21 15.66 2.57 4.72-3.38 5.46-9.31 1.79-15.16-1.15-1.76-2.4-3.45-3.74-5.07-8.93-11.16-17.75-22.42-26.92-33.39-3.21-3.84-3-6.57.12-10.3 9.03-10.81 17.71-21.91 26.56-32.87 2.41-2.99 4.53-6.07 4.78-10.96-.3-1.35-.75-2.67-1.33-3.92h-.01z" fill="#fff"/></mask><mask id="b" x="404.95" y="165.25" width="111.46" height="186.26" maskUnits="userSpaceOnUse"><path d="M490.34 235.13v7.51c0 3.31-2.69 6-6 6h-24.03v90.99c0 3.31-2.69 6-6 6h-8.34c-3.31 0-6-2.69-6-6v-90.99h-24.03c-3.31 0-6-2.69-6-6v-7.51c0-3.31 2.69-6 6-6h68.41c3.31 0 6 2.69 6 6h-.01z" fill="#fff"/></mask><mask id="c" x="333.92" y="248.49" width="101.94" height="67.52" maskUnits="userSpaceOnUse"><path d="M400.06 287.37c0 5.21-3.89 9.43-8.68 9.43h-30.19c-4.8 0-8.68-4.22-8.68-9.43s3.89-9.43 8.68-9.43h30.19c4.8 0 8.68 4.22 8.68 9.43z" fill="#fff"/></mask></defs><path d="M127.93 162.98c-5.55.09-10.84 2.34-14.75 6.28-2.95-3.94-7.12-6.28-14.14-6.28-7.37 0-13.89 6.28-13.89 6.28a16.497 16.497 0 00-5.52-4.5c-2.15-1.08-4.5-1.69-6.9-1.77-6.51 0-11.8 2.82-15 10.2l-9.34 22.12-12.05-28.4c-.35-.8-.85-1.52-1.47-2.13a6.172 6.172 0 00-2.18-1.38c-.82-.31-1.68-.45-2.56-.42-.88.03-1.73.24-2.51.61-.8.35-1.54.83-2.13 1.46a6.62 6.62 0 00-1.4 2.18c-.31.82-.45 1.68-.42 2.56.03.88.25 1.73.63 2.51l14.75 31.96c2.34 5.04 4.8 7.62 9.34 7.62 4.91 0 7.01-2.82 9.34-7.62 0 0 12.79-27.91 12.91-28.27.14-.38.39-.69.72-.91.33-.22.72-.33 1.13-.31.28 0 .55.05.8.16s.49.25.67.46c.19.19.35.42.45.67.11.25.16.53.16.8v27.28c0 4.17 2.34 7.62 6.89 7.62s6.89-3.44 6.89-7.62v-22.25a6.948 6.948 0 012.06-5.18c.69-.67 1.51-1.19 2.4-1.54a6.4 6.4 0 012.81-.42c.94-.03 1.88.13 2.76.47s1.66.88 2.32 1.54c.66.67 1.18 1.47 1.51 2.35.33.88.47 1.82.42 2.76v22.37c0 4.17 2.34 7.62 6.89 7.62s6.89-3.44 6.89-7.62v-22.37c-.03-.96.12-1.91.49-2.81.35-.9.89-1.69 1.57-2.37.69-.67 1.51-1.19 2.4-1.54a6.4 6.4 0 012.81-.42c.94-.03 1.88.13 2.76.47.88.35 1.66.88 2.32 1.54.66.67 1.18 1.47 1.51 2.35.33.88.47 1.82.42 2.76v22.37c0 4.17 2.34 7.62 6.89 7.62s6.89-3.44 6.89-7.62v-25.45c0-9.33-7.5-15.86-16.47-15.86l-.05.08zm86.48 1.87c-.31-.3-.69-.53-1.1-.67-.41-.16-.85-.22-1.29-.2-.78 0-1.54.28-2.13.77-.6.49-1.02 1.18-1.19 1.93l-11.8 33.94-11.67-33.94c-.17-.82-.63-1.54-1.27-2.06s-1.46-.78-2.29-.77h-.38c-.82 0-1.6.3-2.21.8a3.59 3.59 0 00-1.22 2.02l-11.8 33.94-11.67-33.81c-.19-.8-.64-1.52-1.29-2.04-.64-.52-1.44-.8-2.27-.8a3.413 3.413 0 00-3.44 3.33c.09.63.25 1.26.49 1.85l14.14 39.33c.19.85.66 1.6 1.33 2.15.66.55 1.49.88 2.37.91h.25c.89.03 1.77-.27 2.48-.83.69-.57 1.18-1.35 1.33-2.24l11.67-33.43L193 208.34a3.908 3.908 0 003.82 3.07h.25c.88-.03 1.73-.35 2.42-.89a4.08 4.08 0 001.4-2.18l14.14-39.33c.3-.58.46-1.21.49-1.85 0-.44-.11-.86-.3-1.26a3.73 3.73 0 00-.75-1.05l-.03.02zm22.08-.88c-5.9 0-9.34.61-13.89 2.59-.58.19-1.08.58-1.41 1.1-.33.52-.49 1.13-.42 1.74.03.78.38 1.54.96 2.09.57.55 1.33.86 2.12.86.42-.03.83-.11 1.22-.25 3.4-1.52 7.09-2.23 10.83-2.09 8.6 0 13.78 4.3 13.78 12.66v1.73a51.386 51.386 0 00-14.26-1.96c-11.67 0-19.78 5.29-19.78 15v.12c0 9.46 8.72 14.39 17.34 14.51 3.22.09 6.42-.6 9.32-1.98 2.9-1.4 5.44-3.45 7.39-6.01v4.42c0 .42.09.86.25 1.26.17.39.42.75.72 1.05.31.3.67.53 1.08.69s.83.22 1.26.2c.44 0 .88-.09 1.3-.27.42-.17.78-.42 1.1-.75.31-.31.55-.71.71-1.11.16-.42.24-.86.22-1.3V182.7c0-5.9-1.6-10.32-4.8-13.52-3.44-3.44-8.49-5.16-15-5.16v-.05zm13.27 29.99c0 7.25-7.01 12.54-15.49 12.54-6.27 0-11.67-3.44-11.67-9.23v-.13c0-5.77 4.8-9.59 13.52-9.59 4.61 0 9.21.68 13.65 1.96v4.43h-.01zm62.57-30.24c-12.66 0-21.89 10.7-21.89 23.97v.25c0 14.26 10.2 23.97 22.75 23.97 3.17.11 6.34-.44 9.27-1.62a22.68 22.68 0 007.81-5.26c.33-.27.6-.61.8-.99.19-.38.3-.8.31-1.22 0-.39-.06-.77-.22-1.13-.14-.36-.36-.69-.64-.96-.28-.28-.6-.49-.96-.64-.36-.14-.75-.22-1.13-.22-.36-.02-.72.03-1.07.16-.35.12-.64.33-.91.58-3.53 3.4-8.25 5.3-13.15 5.29-8.11 0-15-5.65-15.99-15.61h32.95a3.196 3.196 0 002.26-.93c.3-.3.53-.64.69-1.04.16-.39.23-.8.23-1.22 0-12.3-7.62-23.36-21.15-23.36l.02-.03zm-14.87 21.63c.86-8.98 6.76-15.61 14.75-15.61 9.1 0 13.77 7.25 14.51 15.61h-29.26zm48.07-16.86a5.795 5.795 0 00-1.58-2.96c-.8-.82-1.84-1.36-2.97-1.58a5.798 5.798 0 00-3.34.33 5.797 5.797 0 00-2.59 2.13c-.63.96-.97 2.07-.97 3.22 0 .77.13 1.52.42 2.23.28.71.71 1.35 1.26 1.88.53.53 1.18.96 1.88 1.26a5.935 5.935 0 005.45-.55c.96-.63 1.69-1.54 2.13-2.59.44-1.05.55-2.21.33-3.34l-.02-.02zm-1.47 2.91c-.24.56-.58 1.08-1.02 1.52-.44.44-.96.78-1.52 1.02-.57.24-1.18.36-1.79.36s-1.22-.11-1.8-.33c-.57-.24-1.1-.58-1.52-1-.44-.44-.78-.96-1-1.52-.23-.57-.35-1.18-.33-1.8 0-.61.12-1.22.36-1.79.24-.57.58-1.08 1.02-1.52.44-.44.94-.78 1.52-1.02.57-.24 1.18-.36 1.79-.36s1.22.11 1.8.33c.57.24 1.1.58 1.52 1 .44.44.78.96 1 1.52.23.57.35 1.18.33 1.8 0 .61-.12 1.22-.36 1.79zm-2.17-1.86c.19-.3.3-.66.3-1.02.02-.24 0-.46-.09-.67-.08-.22-.22-.41-.39-.55-.2-.2-.45-.38-.74-.47-.28-.11-.57-.16-.86-.14h-1.96c-.08 0-.16 0-.24.03-.08.03-.14.08-.2.12-.06.06-.11.13-.12.2-.03.08-.05.16-.03.24v4.42c0 .16.06.31.19.42.11.11.27.17.42.17s.31-.06.44-.17c.12-.11.19-.27.19-.42v-1.22h.99l1.22 1.48c.06.11.14.2.25.27.11.06.23.09.36.09.08 0 .16 0 .23-.03.08-.03.14-.08.2-.13.06-.06.11-.12.13-.2.03-.08.05-.16.03-.24 0-.09-.03-.19-.06-.27-.05-.08-.11-.16-.17-.22l-.86-.99c.33-.16.61-.39.8-.71h-.02zm-1.9-.16v.13h-1.22v-1.6h1.22c.61 0 .99.25.99.74 0 .38-.38.74-.99.74zm-49.14-3.31c-.17-.42-.42-.82-.74-1.15-.33-.33-.71-.58-1.15-.74-.42-.17-.88-.24-1.35-.22-5.04 0-12.54 3.69-15.99 11.44v-7.99c0-.47-.08-.94-.25-1.38-.17-.44-.44-.83-.77-1.16a3.445 3.445 0 00-2.54-1.02c-.92.03-1.8.41-2.45 1.08-.64.66-1 1.55-.99 2.48v40.57c.02.93.39 1.79 1.05 2.43.66.64 1.54 1 2.45 1s1.8-.36 2.46-1a3.45 3.45 0 001.05-2.43v-15.74c0-13.4 7.37-20.16 16.35-21.26.86-.12 1.65-.55 2.21-1.21.57-.66.88-1.49.86-2.35.02-.46-.05-.91-.22-1.35z" fill="#3279be"/><g mask="url(#a)"><path d="M72.6 324.1h.04s.02.01.03.02c0 0 .02.02.02.03v.04c4.52-1.03 8.12-3.8 11.93-6.38-5.45-1.23-10.38-.31-14.39 3.91.1 1.44 1.34 1.85 2.36 2.36v.02z" fill="#58ade1"/><path d="M73.43 325.34c0-.21-.72-.72-.72-.93v-.21h-.04s-.02-.01-.03-.02c0 0-.02-.02-.02-.03v-.04c-1.03-.51-2.26-.93-2.36-2.36-2.06 1.23-2.16 4.42-2.67 6.58l4.11-.31c2.36.72 0-1.85 1.75-2.67h-.02zM4.65 266.46h90.98l-32.45-10.87-53.17-32.14-5.36 43.01z" fill="#96c9e3"/><path d="M21.49 223.45h20.28l21.42 32.14-46.89-28.34 5.19-3.8z" fill="#7bbce6"/><path d="M-4.53 266.13l87.74.34-85.44 46.27-2.3-46.61z" fill="#245177"/><path d="M50.14 312.74L25.8 297.5l60.72-32.81v14.62l-3.62 4.04-3.16 49.5-29.61-20.11h.01z" fill="#72838c"/><path d="M4.65 308.99l21.15-11.5 24.34 15.24-2.26 16.26-40.17-.67-3.06-19.33z" fill="#8ec2de"/><path d="M12.69 353.14h40.17L47.89 329l-40.17-.67 4.97 24.82z" fill="#acd2ec"/><path d="M92.86 223.45l6.67 32.14 44.94-24.48-51.61-7.65z" fill="#55ace0"/><path d="M100.3 261.45v6.52l38.64-.59-4.59-30.76-34.82 18.97.77 5.86z" fill="#3c94d1"/><path d="M97.45 277.4l2.85-9.43 38.64-.59-2.84 30.22-38.64-20.2z" fill="#273f31"/><path d="M82.91 283.34l14.54-5.95 38.64 20.2-51.46 29.08-4.17-4.94 2.45-38.4z" fill="#5f6972"/><path d="M134.35 328.32H84.63v-1.65l59.84-33.98-10.12 35.62z" fill="#2d6fa7"/><path d="M134.35 357.74L89.2 346.32l-4.57-19.64h49.72v31.06z" fill="#3c94d1"/><path d="M135 239.41l39.44 24.1 8.22-4.38-4.09-5.48 2.45-35.33-46.01 21.09z" fill="#1668a6"/><path d="M190.05 263.52l9.86-6.57 37.25-23.01-56.15-15.61-2.45 35.33 11.49 9.86z" fill="#419fd4"/><path d="M201.01 269.31l-1.7-12.37 37.86-23.01-1.64 21.91-34.51 13.47z" fill="#28a3a5"/><path d="M135 239.41l39.44 24.1-2.19 4.38h-41.63l4.38-28.48z" fill="#41a6d8"/><path d="M175.81 271.74h-4.38l-44.65 30.4 3.83-34.24h41.63l3.56 3.83z" fill="#2b4b38"/><path d="M144.04 303.78l-5.01-9.98 33.01-22.98 8.43.91v43.28l-36.43-11.23z" fill="#2d5d68"/><path d="M185.12 271.73h-4.66v40.54l22.73 1.1 33.96-19.99-52.04-21.64h.01z" fill="#393869"/><path d="M196.36 318.57l6.85-5.2 33.96-19.99 2.47 34.51h-45.19l1.92-9.31h-.01z" fill="#69a2cf"/><path d="M184.58 325.69l2.46 3.83 31.5 19.72 10.68-15.89v-5.48l-44.65-2.19z" fill="#4f81bc"/><path d="M178.57 327.88h2.6l.4 30.13 35.47-3.29-4.15-9.02-25.84-16.18-5.02-4.29-3.45 2.65z" fill="#409fd5"/><path d="M152.26 344.01l25.47-15.61 3.68-.61.15 26.54-29.31-10.32z" fill="#7dc3e8"/><path d="M139.93 326.97l35.7-1.73 3.01 2.86-27.2 16.77-11.5-17.9z" fill="#41a7d9"/><path d="M141.3 313.37l16.89 1.64 14.97 10.35-33.23 1.61 1.37-13.6z" fill="#3082b6"/><path d="M242.62 254.6l37.25-21.36-18.63-6.57h-15.52l-3.1 27.94z" fill="#26483b"/><path d="M242.6 259.68l3.1-6.94 37.25-21.36 14.06 32.14-3.83 3.47H242.6v-7.3z" fill="#5cae59"/><path d="M240.86 269.31l4.84-2.33h83.27l-4.38 1.16-51.68 26.59-32.05-25.43z" fill="#18995a"/><path d="M320.57 224.8l2.37 43.09 24.29-11.32 4.56-31.77h-31.22z" fill="#94c34f"/><path d="M302.13 246.35l18.84-18.62 1.98 40.17-20.82-15.16v-6.39z" fill="#528e54"/><path d="M293.18 266.99l8.95-14.24 20.82 15.16-29.76-.91h-.01z" fill="#5dae59"/><path d="M269.81 296.2l53.14 34.74V267.9l-53.14 28.3z" fill="#4d8a51"/><path d="M340.84 315.01l-17.89 11.96v-34.42l17.89 22.46z" fill="#264a4a"/><path d="M244.98 326.97h37.98l10.23-16.34-25.93-15.89-22.28 32.23z" fill="#27a3a4"/><path d="M297.93 315.01l8.55 2.43 16.46 9.53-10.41 5.2-14.61-17.16h.01z" fill="#2ca1a1"/><path d="M348.69 326.97h-25.75l17.89-11.96 7.85 11.96h.01z" fill="#365e3e"/><path d="M349.42 341.67l-26.48-14.7h25.75l.73 14.7z" fill="#637f4a"/><path d="M322.94 347.15v-20.18l-10.41 5.2 10.41 14.97z" fill="#c3d5a9"/><path d="M328.97 353.9l24.83-10.77-4.38-1.46-26.48-14.7v20.18l6.03 6.76z" fill="#84c5b9"/><path d="M236.94 349.25l36.7-2.1 6.03-16.25-2.92-3.93h-31.77l-8.03 22.28z" fill="#289090"/></g><g mask="url(#b)"><path d="M404.95 261.62h75.53l-26.94-13.2-44.14-39.02-4.45 52.22z" fill="#96c9e3"/><path d="M418.92 209.4h16.83l17.78 32.14-38.92-28.34 4.31-3.8z" fill="#7bbce6"/><path d="M418.08 259.64l72.83.41L419.98 316l-1.91-56.36z" fill="#245177"/><path d="M437.17 307.63l-22.43-16.92 55.96-36.43v16.23l-3.33 4.48-2.91 54.96-27.28-22.32z" fill="#72838c"/><path d="M428.54 313.86l17.56-11.5 20.2 15.24-1.88 16.26-33.35-.67-2.54-19.33h.01z" fill="#8ec2de"/><path d="M435.53 351.5h33.35l-4.13-24.14-33.35-.67 4.13 24.82z" fill="#acd2ec"/><path d="M428.83 250.52h7.85l11.92-20.3-20.24-31.87.47 52.18z" fill="#75c3e9"/><path d="M493.08 260.19l-45.15-11.42-4.57-19.64h49.72v31.06z" fill="#245177"/><path d="M460.9 233.69v17.96l55.51-1.63-6.59-84.77-50.02 52.28 1.1 16.16z" fill="#3c94d1"/><path d="M447.3 248.45l-10.75.19 8.28-24.17 3.83 4.89.05 2.14 12.08 17.25-13.49-.29z" fill="#72838c"/></g><g mask="url(#c)"><path d="M377.83 308.22l-.97-11.81-2.08-43.73-40.86 41.56 29.72 19.26 14.19-5.27z" fill="#419fd4"/><path d="M371.32 258.24l.95 12.28 1.93 45.49 42.46-43.44-30.64-19.89-14.7 5.56z" fill="#add4e9"/><path d="M404.13 253.77l-5.44 11.05-21.49 40.14 58.66-15.79-16.25-32.71-15.48-2.7z" fill="#96c8eb"/><path d="M377.27 260.34l6.65 10.37 23.25 39.15 16.82-58.37-36.4-3-10.31 11.86z" fill="#76bbe7"/></g></svg>