<svg width="512" height="512" viewBox="0 0 512 512" fill="none" xmlns="http://www.w3.org/2000/svg"><path fill-rule="evenodd" clip-rule="evenodd" d="M174.564 34.318L96.928 160.925a15.016 15.016 0 000 15.833l77.783 126.538-.093-.146 9.714-15.833-72.821-118.483 72.891-118.822-9.699-15.887" fill="#A7C742"/><path fill-rule="evenodd" clip-rule="evenodd" d="M122.989 146.698h110.335l-9.019-15.833h-92.273l46.194-80.892-9.027-15.848-.131.193-72.297 126.607a15.951 15.951 0 000 15.833L169.2 303.296l-.085-.146 9.051-15.833-67.814-118.483 12.638-22.136zM331.213 42.203l-9.228-16.242-137.587.077 9.174 16.242 137.641-.077zM193.526 295.206l-9.128 16.242 137.688-.077 9.127-16.242-137.687.077z" fill="#A0CF13"/><path fill-rule="evenodd" clip-rule="evenodd" d="M418.782 160.698L344.425 33.936a16.149 16.149 0 00-13.934-7.932h-9.676l9.259 15.863h.394l69.788 119.016H260.887l-78.438-134.84h-.463a16.152 16.152 0 00-13.803 7.715l78.615 134.81-.208.347h.208l-78.7 134.462.085.147a16.14 16.14 0 0013.934 7.924h.108l78.4-134.733h139.493l-69.496 118.784h-.093l-9.259 15.871h9.329a16.126 16.126 0 0013.934-7.947l74.226-126.87a15.674 15.674 0 000-15.863" fill="#35A6DE"/><path d="M113.487 356.298L62.963 481.881c-.555 1.386-1.317 2.425-2.287 3.118-.97.693-2.08 1.04-3.327 1.04-1.94 0-3.396-.485-4.366-1.456-.97-1.108-1.525-2.425-1.664-3.95-.138-.693-.069-1.525.208-2.495l54.891-134.316c.693-1.524 1.525-2.564 2.495-3.118 1.109-.693 2.356-1.04 3.742-1.04 1.386 0 2.565.416 3.535 1.248 1.109.693 1.941 1.663 2.495 2.91l54.683 133.692c.277.832.415 1.664.415 2.495 0 1.941-.623 3.466-1.871 4.574-1.247.971-2.703 1.456-4.366 1.456-1.386 0-2.634-.347-3.743-1.04-.97-.831-1.732-1.871-2.287-3.118l-51.772-126.415 3.743.832zm-38.465 87.533l5.198-12.267h64.455l2.495 12.267H75.022zm131.085-103.543c1.663 0 3.118.624 4.366 1.871 1.386 1.248 2.079 2.772 2.079 4.574v132.652c-.138 1.802-.901 3.327-2.287 4.575-1.247 1.247-2.703 1.871-4.366 1.871-1.941 0-3.535-.624-4.782-1.871-1.109-1.248-1.664-2.773-1.664-4.575V346.733c0-1.802.624-3.326 1.872-4.574 1.247-1.247 2.841-1.871 4.782-1.871zm97.514 0c1.94 0 3.465.624 4.574 1.871 1.247 1.248 1.871 2.772 1.871 4.574v132.652c-.138 1.802-.832 3.327-2.079 4.575-1.109 1.247-2.634 1.871-4.574 1.871-1.802 0-3.327-.624-4.574-1.871-1.248-1.248-1.872-2.773-1.872-4.575V346.733c0-1.802.624-3.326 1.872-4.574 1.386-1.247 2.98-1.871 4.782-1.871zm-98.554 65.078h98.762l-.208 12.06h-99.386l.832-12.06zm249.238-65.286c1.94 0 3.465.554 4.574 1.663 1.248 1.109 1.871 2.495 1.871 4.159 0 .97-.208 2.009-.623 3.118l-55.515 132.653c-.693 1.386-1.594 2.425-2.703 3.118-1.109.693-2.217 1.04-3.326 1.04-1.248 0-2.426-.347-3.535-1.04a5.313 5.313 0 01-2.287-2.91l-55.306-132.445a19.548 19.548 0 01-.416-1.455 7.712 7.712 0 01-.208-1.871c0-1.802.624-3.258 1.871-4.367 1.386-1.109 2.772-1.663 4.158-1.663 2.911 0 4.99 1.525 6.238 4.574l51.98 124.336h-3.743l51.148-124.752c1.386-2.772 3.327-4.158 5.822-4.158z" fill="#35A6DE"/></svg>