<svg xmlns="http://www.w3.org/2000/svg" width="512" height="512" viewBox="0 0 512 512"><path d="M299.65 213.25L129.61 70.21c-1.26-1.03-2.8-1.59-4.38-1.59h-82.4c-3.26 0-6.15 2.3-6.74 5.67-.43 2.45.67 4.91 2.57 6.53L194.7 213.3c3.48 2.95 3.46 8.31-.02 11.25L38.42 356.13c-2.33 1.92-3.08 5.24-1.79 8.09 1.12 2.47 3.75 3.9 6.46 3.9h85.62c1.61 0 3.18-.56 4.38-1.6l166.55-141.86 1.68-1.54c2.53-2.32 2.47-6.34-.15-8.57l-1.54-1.31zm132.94 202.76l-.27-.23-30.13-25.34c-.22-.18-.5-.28-.78-.28h-14.6c-.58 0-1.09.41-1.19 1-.08.43.12.87.45 1.16l27.65 23.47c.61.52.61 1.47 0 1.99l-27.68 23.31c-.41.34-.55.93-.32 1.43.2.44.66.69 1.15.69h15.17c.28 0 .56-.1.78-.28l29.51-25.13.3-.27c.45-.41.44-1.12-.03-1.52z" fill="#a8cb3a"/><path d="M174.71 390.53h-10.76c-.66 0-1.2.54-1.2 1.2v35.04c0 2.89-3.58 4.35-10.66 4.35h-14.63c-7.21 0-10.86-1.46-10.86-4.35v-35.04c0-.66-.54-1.2-1.2-1.2h-10.89c-.66 0-1.2.54-1.2 1.2v35.58c0 2.47.42 4.6 1.23 6.33.81 1.71 1.91 3.19 3.28 4.38 1.34 1.17 2.91 2.09 4.66 2.75 1.7.64 3.49 1.13 5.32 1.45 1.81.33 3.7.52 5.61.6 1.86.07 3.61.1 5.25.1h11.91c8.74 0 14.96-1.21 19.02-3.69 4.2-2.57 6.33-6.58 6.33-11.92v-35.58c0-.66-.54-1.2-1.2-1.2zm62.9 9.25v-6.89c0-1.34-1.08-2.42-2.42-2.42h-52.62c-1.33 0-2.42 1.08-2.42 2.42v6.89c0 1.34 1.08 2.42 2.42 2.42h18.41c.67 0 1.22.55 1.22 1.22v37.09c0 1.33 1.08 2.42 2.42 2.42h8.46c1.34 0 2.42-1.08 2.42-2.42v-37.09c0-.67.55-1.22 1.22-1.22h18.48c1.34 0 2.42-1.08 2.42-2.42zm28.63-5.71c-1.81-2.53-4.21-3.82-7.13-3.82s-5.26 1.31-7.07 3.9l-32.46 46.87c-.31.45-.29 1.05.09 1.48.24.28.62.41.98.41h12.76c.41 0 .79-.21 1.01-.55l8.15-12.54c.09-.13.21-.25.35-.32.14-.08.3-.12.46-.12h31.29c.33 0 .63.16.81.44l8.34 12.56c.22.34.6.54 1 .54h12.25a1.207 1.207 0 001-1.87l-31.81-46.97zm-.55 23.52h-13.77a.63.63 0 01-.52-.99l6.74-9.69a.78.78 0 011.28 0l6.82 9.62c.32.45 0 1.07-.55 1.07zM107 390.53h-9.26c-1.11 0-2.02.91-2.02 2.02v29.92c0 .7-.83 1.08-1.36.62L60.1 393.26c-2.34-2.03-4.87-3.07-7.55-3.07-2.36 0-6.34.96-6.34 7.42v43.28c0 1.11.9 2.02 2.02 2.02h9.25c1.11 0 2.02-.9 2.02-2.02v-30.04c0-.7.83-1.08 1.36-.62l34.62 30.28c2.15 1.91 4.48 2.87 6.94 2.87s6.6-1.01 6.6-7.76v-43.08c0-1.11-.91-2.02-2.02-2.02zm218.91-196.38a7.313 7.313 0 009.47 0L471.77 80.8c1.89-1.61 2.99-4.08 2.57-6.53a6.822 6.822 0 00-6.74-5.67h-82.4c-1.58 0-3.12.56-4.38 1.59l-95.71 78.02c-3.46 2.91-3.47 8.24-.03 11.17l40.83 34.75zM436.97 412.4c.48.41 1.2.41 1.68 0l24.16-20.08c.34-.29.53-.72.46-1.16-.1-.6-.62-1-1.19-1h-14.6c-.28 0-.55.1-.78.28l-16.96 13.82c-.61.52-.62 1.46 0 1.98l7.23 6.16zm36.37-55.65L334.92 243.7a7.326 7.326 0 00-9.48 0l-38.2 33.28c-3.44 2.93-3.43 8.26.03 11.17l95.11 79.19c1.26 1.03 2.8 1.59 4.38 1.59h82.4c3.26 0 6.15-2.3 6.74-5.67.42-2.45-.67-4.92-2.56-6.53zm-34.77 64.42c-.48-.41-1.2-.41-1.68 0l-6.77 5.9a1.3 1.3 0 000 1.98l16.85 14.03c.22.18.5.28.78.28h14.6c.58 0 1.09-.41 1.19-1 .08-.43-.12-.87-.45-1.16l-24.52-20.03zm-76.58-30.64h-9.51c-1.04 0-1.89.85-1.89 1.89v30.33c0 .59-.7.91-1.15.52l-34.47-30.01c-2.34-2.03-4.88-3.07-7.56-3.07-2.36 0-6.34.96-6.34 7.42v43.41c0 1.04.85 1.89 1.89 1.89h9.51c1.04 0 1.89-.85 1.89-1.89v-30.45c0-.6.7-.91 1.15-.52l34.84 30.46c2.14 1.91 4.48 2.87 6.94 2.87s6.6-1.01 6.6-7.76v-43.2c0-1.05-.85-1.89-1.89-1.89zm18.22 0h-10.89c-.66 0-1.2.54-1.2 1.2v49.99c0 .66.54 1.2 1.2 1.2h10.89c.66 0 1.2-.54 1.2-1.2v-49.99c0-.66-.54-1.2-1.2-1.2z" fill="#35a6de"/></svg>