<svg width="512" height="512" viewBox="0 0 512 512" fill="none" xmlns="http://www.w3.org/2000/svg"><path fill-rule="evenodd" clip-rule="evenodd" d="M145.281 48.094c-9.844 0-18.468 1.78-26.718 5.338-8.063 3.56-15.188 8.336-21.47 14.61l159.377 174.58 159-174.672c-6.281-6.275-13.406-11.051-21.938-14.61-7.781-3.56-16.875-5.339-26.25-5.339-9.843 0-19.218 2.06-27.562 5.807-8.625 3.746-15.656 9.366-22.219 15.922l-61.125 67.621L194.5 69.729c-6.281-6.556-13.406-12.082-22.219-15.922-7.781-3.747-17.156-5.713-27-5.713zm111.094 220.939L97 443.892c6.281 6.088 13.406 11.052 21.469 14.611 8.344 3.559 16.969 5.339 26.25 5.339 10.312 0 19.219-2.248 27.562-5.807 8.813-4.028 16.406-9.366 22.688-15.922l61.406-67.621 61.313 67.621c6.281 6.556 13.406 11.894 21.937 15.922 8.344 3.559 17.438 5.807 27.563 5.807 9.375 0 18.468-1.78 26.25-5.339 8.625-3.559 15.656-8.616 21.937-14.611l-159-174.859z" fill="#000"/><path fill-rule="evenodd" clip-rule="evenodd" d="M68.5 100.543c-10.125.281-19.969 2.248-28.781 6.088-9.094 3.746-16.875 9.085-23.719 15.641l121.688 133.65L16 389.384c6.844 6.837 14.625 12.082 23.719 16.109 8.812 4.028 18.656 5.807 28.781 6.276 10.875-.469 21-2.248 30.281-6.838 9.375-4.308 17.438-10.115 24.188-17.42l120-131.589-119.907-131.403c-7.312-7.024-15.187-12.831-24.468-17.42-9.375-4.308-19.219-6.275-30.094-6.556zm374.719 0c-10.875.281-20.438 2.248-29.813 6.556-9.375 4.496-17.437 10.302-24.469 17.42L269.5 255.922l119.437 131.683c7.032 7.305 15.188 13.112 24.469 17.42 9.375 4.496 18.938 6.275 29.813 6.837 10.875-.468 20.156-2.248 29.062-6.275 9.563-4.027 16.875-9.366 23.719-16.109L374.594 255.922 496 122.272c-6.844-6.556-14.156-11.895-23.719-15.641-8.812-3.84-18.187-5.807-29.062-6.088z" fill="#E57000"/></svg>