<svg data-name="Layer 1" xmlns="http://www.w3.org/2000/svg" viewBox="0 0 512 512"><path d="M378.64 110.24h-116.4a21.24 21.24 0 00-21.35 21.07v240.57h-98.66V275h87.31v-29.85H129.2a17.11 17.11 0 00-17.19 17v122.63a17.1 17.1 0 0017.19 17h120.56a21.23 21.23 0 0021.35-21.06v-240.6h98.65v94.81h-87.3v29.88h96.18A21.24 21.24 0 00400 243.74V131.31a21.24 21.24 0 00-21.36-21.07zM484.64 6H156.22a21.23 21.23 0 00-21.34 21.07V143H27.35A21.23 21.23 0 006 164v320.9A21.23 21.23 0 0027.35 506h328.43a21.24 21.24 0 0021.35-21.08V371.09h107.51A21.24 21.24 0 00506 350V27a21.24 21.24 0 00-21.36-21zm-8.86 331.75a3.52 3.52 0 01-3.59 3.47h-125.3v131.45a3.52 3.52 0 01-3.59 3.46H39.82a3.53 3.53 0 01-3.6-3.46V176.28a3.52 3.52 0 013.6-3.45H165.1V39.33a3.53 3.53 0 013.6-3.45h303.49a3.52 3.52 0 013.59 3.45zM426.46 57.1H208.19a21.24 21.24 0 00-21.35 21.07v115.88H81.39A21.24 21.24 0 0060 215.12v214.62A14.86 14.86 0 0065.17 441a15.23 15.23 0 0010 3.72 15.05 15.05 0 0015.12-14.94V223.92h126.8V87h209.37a14.94 14.94 0 100-29.87z" fill="#89c540"/></svg>