<svg data-name="Layer 1" xmlns="http://www.w3.org/2000/svg" viewBox="0 0 512 512"><path d="M475.46 134.5a22.62 22.62 0 00-5.8-9.68 68 68 0 00-21.17-19.15L290 15.08a67.93 67.93 0 00-67.86 0L63.51 105.62A68 68 0 0042.1 125.1a22.75 22.75 0 00-5.4 9 67.8 67.8 0 00-7.15 30.36v181.22a67.93 67.93 0 0034.06 58.83l158.52 90.54a67.93 67.93 0 0023 8.2 22.63 22.63 0 0021.57 0 67.86 67.86 0 0023.3-8.2l158.5-90.44a67.93 67.93 0 0034-58.86V164.52a68 68 0 00-7.04-30.02zM233.34 449.42l-147.17-84.1a22.68 22.68 0 01-11.28-19.62v-169l158.45 91.67zM256 229.24L98.36 138l146.33-83.66a22.78 22.78 0 0122.74 0L413.66 138zm181 116.51a22.68 22.68 0 01-11.28 19.62l-147.09 84.08v-181l158.43-91.65z" fill="#1d83d4" fill-rule="evenodd"/></svg>