<svg data-name="Layer 1" xmlns="http://www.w3.org/2000/svg" viewBox="0 0 512 512"><defs><linearGradient id="a" x1="9.3" y1="256" x2="502.7" y2="256" gradientUnits="userSpaceOnUse"><stop offset=".05" stop-color="#9ccb53"/><stop offset=".32" stop-color="#93c24e"/><stop offset=".75" stop-color="#79aa42"/><stop offset=".99" stop-color="#689a3a"/></linearGradient><linearGradient id="b" x1="145.54" y1="371.54" x2="339.79" y2="164.89" gradientUnits="userSpaceOnUse"><stop offset=".05" stop-color="#fcdd3e"/><stop offset=".33" stop-color="#fad43e"/><stop offset=".79" stop-color="#f5ba3d"/><stop offset=".99" stop-color="#f2ad3d"/></linearGradient></defs><path d="M483.83 24.88A64.5 64.5 0 00438.27 6h-239a64.46 64.46 0 00-64.45 64.45v67.63H73.75A64.46 64.46 0 009.3 202.53v239A64.47 64.47 0 0073.75 506h239a64.44 64.44 0 0064.45-64.45V373.9h61.07a64.47 64.47 0 0064.46-64.45v-239a64.48 64.48 0 00-18.9-45.57zM435 272.6a38.09 38.09 0 01-38 38h-87.51v94.07a38 38 0 01-38 38H106.24a38 38 0 01-38-38V239.4a38 38 0 0138-38h87.52v-94.06a38 38 0 0138-38H397a38 38 0 0138 38z" fill="url(#a)"/><path d="M386.25 134.19a23.77 23.77 0 00-12.86-12.85 23.82 23.82 0 00-9.09-1.81h-99.84a23.75 23.75 0 00-23.75 23.75v99.89c0 9-8.47 8.46-8.47 8.46h-94.41a23.74 23.74 0 00-23.75 23.75v99.88A23.75 23.75 0 00137.83 399h99.87a23.77 23.77 0 0023.75-23.76v-99.86s-.53-8.46 6.26-8.46h96.59a23.78 23.78 0 0016.8-7 23.73 23.73 0 007-16.79v-99.85a23.63 23.63 0 00-1.85-9.09z" fill="url(#b)"/></svg>