<svg data-name="be380797-e9e4-42c3-9cee-c48303f708f0" xmlns="http://www.w3.org/2000/svg" viewBox="0 0 512 512"><path d="M258.93 207.55a126.55 126.55 0 109.63 48.5 126.13 126.13 0 00-9.63-48.5zM226.87 312.8a102.14 102.14 0 1117.29-56.8 102.13 102.13 0 01-17.29 56.8z" fill="#edaf24"/><path d="M280.86 182.24h-80.61s-49.07 39-49.08 38.79c.08.07-29.1-38.79-29.1-38.79H52.33c.09 0 55.8 68.66 55.79 68.67.19.15-102 79.79-102.12 79.79s79.93.05 80 0 53.05-42 53.13-41.93 28.21 41.93 28.2 41.93 70.73.13 70.76 0-56.33-72.24-56.33-72.24c.31-.09 99.17-76.22 99.1-76.22zm73.26 83.24a58.27 58.27 0 002.47-17.93c0-8.1-5.13-17.52-12.76-22.89-7.33-4.66-15.83-7.15-23.16-8.66a151.86 151.86 0 00-17.79-1.93h-4.58a174.55 174.55 0 00-18.3.93 118.68 118.68 0 00-13.15 1.92c-4.24 1.46-9 1.88-14 4-16.74 5.39-31.76 19.06-35.93 36.27-1.13 4.63-2.29 10.48-1.38 16.23 1.06 10.86 10.85 20 21.41 23.66a77.16 77.16 0 0013.7 3.67c5.54.84 11.33 1.47 17.54 1.93a144.34 144.34 0 0019.06.28 163.64 163.64 0 0018.35-2c4.5-.84 9.76-1.7 14.25-3 11.14-3.28 26.42-9.3 30.32-22.34h-51.85c-2.24 5.46-8.89 8.67-14 9.19-6.36.65-15.68.45-17.56-7.54-1.05-4.32-.72-7 .14-11.65zm-71.37-31.55a21.14 21.14 0 019.59-2.2 18.72 18.72 0 0111.11 3.3c3.78 4.38 3.3 9.1 2.2 13.93 0 0-34.55.35-34.55.32 1.36-6.46 5.44-12.7 11.65-15.35zM499.14 223c-6.74-6.15-15.19-7.8-23.43-8.65a73.6 73.6 0 00-7.57-.33A91.77 91.77 0 00454 215.2c-9.32 1.54-21.44 7.41-30.38 16.38 0-.17 2.61-14.82 2.61-14.82h-52.3s-17.94 82.8-18.09 82.69h53c2.12-9.72 4.39-19.4 6.72-29.05 2.63-9.16 2.54-20.26 11.11-27 4.65-3.67 10.82-3.79 15.63-3.69 7.14.15 9.64 7.91 8.37 13.15-3.75 15.35-10.59 46.64-10.59 46.59H493s8.7-35.1 12.3-52.77c1.64-7.84.57-17.55-6.16-23.68zM253.07 371.28V358a24.74 24.74 0 007.63 4.53 24.09 24.09 0 008.31 1.51 17.57 17.57 0 004.29-.46 9.75 9.75 0 003.07-1.26 5.41 5.41 0 001.83-1.9 4.79 4.79 0 00.61-2.38 5.22 5.22 0 00-1-3.11 10.48 10.48 0 00-2.64-2.52 28.23 28.23 0 00-4-2.24c-1.54-.71-3.19-1.44-5-2.19q-6.76-2.89-10.1-7.08a15.68 15.68 0 01-3.33-10.09 16.44 16.44 0 011.82-8 15.57 15.57 0 014.94-5.48 21.83 21.83 0 017.24-3.17 36.6 36.6 0 018.71-1 50.28 50.28 0 018 .56 30.87 30.87 0 016.43 1.71v12.38a18.73 18.73 0 00-3.16-1.82 25 25 0 00-3.53-1.31 26.4 26.4 0 00-3.61-.76 24.36 24.36 0 00-3.41-.25 17.39 17.39 0 00-4 .43 10.24 10.24 0 00-3.06 1.22 6.06 6.06 0 00-1.94 1.89 4.51 4.51 0 00-.68 2.46 4.81 4.81 0 00.76 2.67 9 9 0 002.18 2.23 21.7 21.7 0 003.43 2.07c1.34.68 2.86 1.37 4.56 2.09a50.87 50.87 0 016.23 3.17 22.64 22.64 0 014.74 3.78 14.83 14.83 0 013 4.83 17.61 17.61 0 011 6.31 17.32 17.32 0 01-1.83 8.34 15.11 15.11 0 01-5 5.46 21.46 21.46 0 01-7.32 3 41.86 41.86 0 01-8.82.91 47.88 47.88 0 01-9.05-.83 26.93 26.93 0 01-7.3-2.42zm84.84-15.19H311q.65 9.23 11.33 9.23a21.72 21.72 0 0012-3.31v9.43q-5.73 3.15-14.89 3.15-10 0-15.53-5.69t-5.58-15.9q0-10.56 6-16.72a19.66 19.66 0 0114.67-6.14q9 0 14 5.51t5 14.94zm-11.82-8q0-9.1-7.18-9.1a6.78 6.78 0 00-5.31 2.61 11.94 11.94 0 00-2.72 6.49zm46.35-5.09a10.94 10.94 0 00-5.37-1.28 7.65 7.65 0 00-6.49 3.12c-1.56 2.09-2.34 4.92-2.34 8.51v20.23h-12.75v-42.4h12.75V339h.16q3-8.61 10.89-8.61a8.09 8.09 0 013.15.5zm45.26-11.82l-15.37 42.37H387.8l-14.64-42.37h13.64l7.2 26.11a39.91 39.91 0 011.41 7.53h.16a44.57 44.57 0 011.49-7.28l7.34-26.36zm42.55 24.91h-26.94q.65 9.23 11.33 9.23a21.66 21.66 0 0012-3.31v9.43q-5.73 3.15-14.88 3.15-10 0-15.53-5.69t-5.55-15.9q0-10.56 6-16.72a19.63 19.63 0 0114.68-6.17q9 0 14 5.51t4.94 14.94zm-11.82-8q0-9.1-7.18-9.1a6.78 6.78 0 00-5.3 2.61 11.94 11.94 0 00-2.72 6.49zm46.35-5.09a10.87 10.87 0 00-5.36-1.28 7.67 7.67 0 00-6.5 3.12c-1.56 2.09-2.34 4.92-2.34 8.51v20.23h-12.74v-42.4h12.74V339h.17q3-8.61 10.89-8.61a8 8 0 013.14.5z" fill="#197ad1"/></svg>