<svg width="512" height="512" viewBox="0 0 512 512" fill="none" xmlns="http://www.w3.org/2000/svg"><path d="M485.118 99.84a121.422 121.422 0 01-93.44 44.16H51.625c41.6-85.12 129.067-144 230.4-144 82.773 0 156.16 39.253 203.093 99.84z" fill="#F0BF1A"/><path d="M485.972 411.093C439.038 472.32 365.225 512 282.025 512c-101.333 0-188.8-58.88-230.4-144h341.547c37.333 0 70.613 16.64 92.8 43.093z" fill="#3EBEB0"/><path d="M434.77 255.982c0 40.106-32.853 72.106-71.893 72.106h-326.4c-6.827-22.826-10.454-46.933-10.454-72.106 0-25.174 3.627-49.28 10.454-72.107h326.4c39.893 0 71.893 32 71.893 72.107z" fill="#07A5DE"/><path d="M258.77 255.982c0 26.453-3.2 50.346-8.747 72.106H36.477c-6.827-22.826-10.454-46.933-10.454-72.106 0-25.174 3.627-49.28 10.454-72.107h213.546c5.547 21.76 8.747 45.653 8.747 72.107z" fill="#231F20"/><path d="M153.214 34.416A263.467 263.467 0 0051.625 144.005h188.8c-19.2-43.989-49.6-80.81-87.211-109.589z" fill="#D7A229"/><path d="M161.214 481.6a285.28 285.28 0 0084.8-113.6H51.625a263.64 263.64 0 00109.589 113.6z" fill="#019B8F"/></svg>