<svg data-name="Layer 1" xmlns="http://www.w3.org/2000/svg" viewBox="0 0 512 512"><path d="M75.43 299.06H430c1-.37 2-.76 2.95-1.16a62.69 62.69 0 016.37-2.31c18.23-5.07 34.36-15.86 46 37.24a88.53 88.53 0 0018.72-52.1v-2.49c.26-107.06.41-78.1.45-185.17a88 88 0 00-66.21-85.73 53.86 53.86 0 00-13.09-1.28Q259.59 6 94 6C53.57 6 19.92 32 9.58 71.1c-.38 1.42-.88 2.79-1.39 4.17-.24.66-.48 1.32-.71 2v216.9a61.54 61.54 0 012.23 6c8.17 31.52 27.49-15.27 58.36-4.61a72.47 72.47 0 017.36 3.5z" fill="#0a7c25" fill-rule="evenodd"/><path d="M211.18 178.91c-.06-1-.12-2-.17-3v-.63h-26v8.79h26.54v-.27c-.2-1.8-.29-3.38-.37-4.89zm62.4-88.39H327c-1.21-1.48-2.25-3-3.19-4.41a20.44 20.44 0 00-3.3-4.11 2.47 2.47 0 00-1.43-.64c-11.29-.52-22.61-.46-34.11-.4h-11.42v9.5zm0 112.18h42.63v-9h-42.62zm-35.66-83.51v8.95h26.73c.12-.93.23-1.81.34-2.67.27-2.06.53-4 .82-6.26zM260.25 163a41.56 41.56 0 01-3.42-2.65c-2.45-2.05-4.91-4.1-7.43-4.17-16.54-.48-33.1-.33-49.66-.18l-13 .11c-.41 0-.8.34-1.28.75a11.06 11.06 0 01-.94.76l.59 7.92h73.78zm-10.41-76.23A31.85 31.85 0 00231 81h-1.87q-28.35-.09-56.7 0a37.19 37.19 0 00-5.55.84v8.7h87.67a42.56 42.56 0 00-4.71-3.77zm-91.53-5.32H97.69v9.07h60.62zm43.42 65.65c16.12.06 32 .13 47.79-.39 1.67-.05 3.31-1.08 4.94-2.41.77-.63 1.54-1.33 2.31-2s1.51-1.38 2.27-2c.34-.28.68-.55 1-.8l-1.48-2.11h-73.33v9.71c5.53-.05 11.03-.02 16.5 0zm8.91-27.89H185v9h26.13c-.22-3.51-.35-6.33-.49-9zM291 165.48h25.1v-9.3H291zM396.49 128l-.64-9.35c-3.73 0-7.41 0-11.05.08-8.5.09-16.78.17-25-.23-6.42-.31-9.2 1.91-9.65 6.92a20.09 20.09 0 000 2.6h46.41zm16.73-28c-4.84 0-9.59 0-14.29.06-11.43.06-22.53.13-33.61-.21-5.57-.17-8.13 1.72-9 5.92a20.57 20.57 0 00-.4 3.77h57.81zm-76 37.38c-11.72-.35-23.44-.31-35.24-.28h-11v9h104.66v-9.07h-11.83c-9.34 0-18.48.08-27.59-.12h-.14c-5.76-.13-11-.25-12.63 6-.69-.67-1.37-1.46-2-2.25a19.2 19.2 0 00-2.45-2.58 3.08 3.08 0 00-1.81-.74zm76-46.82V81c-4.17 0-8.32 0-12.42.06-9.79.07-19.44.14-29-.2-3.72-.13-6.25.57-7.77 2.45-1.22 1.47-1.8 3.67-1.82 6.77v.45zM115 146.84h25.25v-9.27H115zm186.4-28.22h-10.43v9.7h48.48l-.06-.07h.1c-1.34-1.48-2.49-3-3.53-4.41-2-2.65-3.56-4.76-5.24-4.85-9.72-.53-19.47-.45-29.33-.37zM370.69 158v7.44h25v-9h-25zm-45.89-57.68c-12.83-.5-25.65-.44-38.56-.39h-12.48v9.63h56.34l1.68-1.76a31.89 31.89 0 01-2.18-2.93 20.84 20.84 0 00-3.07-3.82 3.06 3.06 0 00-1.73-.73zm39.2 56.31h-41.19a11.17 11.17 0 001.24 6.37c1.69 2.79 5 3.38 9.36 3.1a145.65 145.65 0 0120.68 0c6.77.48 10-1.93 9.93-8.65v-.78zm-73.41 18.66c.07 1.42.13 2.73.2 4 .08 1.76.17 3.41.24 5.09h25.23c.09-1.83.17-3.52.26-5.33.06-1.17.13-2.4.2-3.75h-26.11zm43.86 18c1.95 10 3.3 11.43 11.69 9.43a3.88 3.88 0 00.78-.29c1.59-.76 2.92-2.67 4.24-4.57a35 35 0 012.12-2.84l-1.95-1.76zm-60.93 27.88h42.88v-8.84h-42.86zm55.3-46h-.06c-.2 7.15 2.42 10.71 9.75 9.74a35.59 35.59 0 019 0c4.78.61 8-.4 9.53-3.43a12.77 12.77 0 001-6.33h-29.2zm-188.35-55.9h-25.42v8.91h25.42zm120.25 55.79a101.71 101.71 0 00-15.77-.43c-2.16.05-4.34.12-6.55.12h-.07v9.49h27.32c.59-.74 1.19-1.49 1.77-2.24a28.93 28.93 0 01-2-2.61c-1.49-2.07-2.98-4.11-4.7-4.33zm110 46.19h42.48v-9h-42.48zM413 193.69h-42.75v.07l.43 9H413zm-42.26-9.45h25.2v-8.87h-25.73c.12 2 .22 3.7.32 5.38.07 1.19.14 2.32.21 3.49zm-203.4 9.31v9.52H258c6.37 0 6.36-4.57 6.36-9.38v-.15h-97zm-69.61 9h60.5v-9h-60.5zm17-18.28h25.46v-9h-25.42zm.15-18.73h25.42v-9.22h-25.42zm-17.77 55.74h61.16v-9H97.5c-.13 3-.25 5.64-.39 9zm70.14-9v9.27q9.69 0 19.27.06c17.05.09 33.89.17 50.7-.36 4-.13 7.86-2 11.76-3.93 1.79-.87 3.57-1.75 5.37-2.45l-1.06-2.57zm-69.44-111.7v9h60.48c.13-2.13.24-4.08.36-6.21 0-.88.09-1.78.15-2.74zm166.34 9.06c.75-7.64-2.23-9.85-9-9.82-18 .18-36 .16-54.05.14h-27a42.7 42.7 0 00-4.92.38l-2.58.28c.16 2.12.29 3.93.41 5.7.08 1.1.16 2.18.24 3.32h96.9z" fill="#fff"/><path d="M100.73 506h310.32a93.24 93.24 0 0093.24-93.24V254.67H7.48v158.09A93.26 93.26 0 00100.73 506z" fill="#009a2c" fill-rule="evenodd"/><path d="M362.79 407.29c-7.05.35-14.11.27-21.17.19-3 0-6.05-.07-9.07-.07l-1.3-2.08 2.69-3.37c2.4-3 4.81-6.06 7.45-8.85s5.24-5.24 7.93-7.8c4.94-4.68 9.87-9.36 13.81-14.76 8.52-11.71 9.59-25.36 2.78-38.38-6.45-12.29-18.61-13.43-30.86-13.27a50.21 50.21 0 00-6.58.65c-14.63 2.2-22 10.33-24.16 25.11-1.13 7.71 1 10 8.92 10.2 8.82.19 14.56-1.14 13.8-11.5-.06-.78.07-2 .58-2.35 1-.65 1.94-1.43 2.92-2.21 2.65-2.1 5.34-4.25 7.94-4.18 2.76.08 6.93 5.19 7.63 8.62 2 10.06-1.09 18.82-9.14 25.94a213.37 213.37 0 00-20.45 20.45c-8.32 9.66-12.95 20.95-11.88 35.36 5.79 0 11.51 0 17.18-.05 14-.08 27.75-.15 41.48.23 6.93.18 7-3.31 7.08-7.37 0-.74 0-1.5.08-2.27.43-5.82-1.09-8.59-7.66-8.24zm-80.14-38.52c11.83-10.95 15.26-23 9.89-35.78s-16.5-15-28.68-15h-8.16c-7.2 0-14.41.07-21.61-.08-4.66-.1-7.07 1-7.07 6.37q.15 47.15 0 94.26c0 4.46 1.37 6.55 6.14 6.46 5.26-.1 10.53-.07 15.8-.05 6.86 0 13.73.07 20.58-.18 13.9-.5 24.36-9 27.28-21.2 3.82-16.03-.37-26.63-14.17-34.8zM250.71 336c6.81-1.41 14.31-2.81 18.08 3.41 2.52 4.12 2.79 11.5.84 16-2.91 6.78-9.7 6.25-16.68 5.72l-2.24-.17zm20.75 65.84c-3.18 7-10.58 6.51-18 6l-2.6-.18v-29l2-.28c7.2-1 14.68-2.07 18.24 5 2.54 5.03 2.72 13.27.36 18.47zm-88.39-83.77c-4.93-.1-9.88-.07-14.82-.05-5.84 0-11.68.07-17.48-.12-5.51-.18-7.15 1.9-7.06 7.21.19 11.15.15 22.31.12 33.46v58.5a5.61 5.61 0 010 .82c-.68 5.35 1.55 7.36 7 7.18s11.08-.14 16.61-.11c5 0 9.92.06 14.87-.06 15.05-.35 25.35-7.65 29.33-22.19a122.29 122.29 0 00.59-62.28c-3.61-14.43-14.18-22.02-29.16-22.35zm8.38 72.41c-1.38 15.46-7.71 19.31-24.27 16.72V336c16.31-2.6 23 1.45 24.23 16.6a216.44 216.44 0 01.04 37.89z" fill="#fff"/></svg>