<svg data-name="b3505cef-fb88-4e57-9973-9e8d6d3c5125" xmlns="http://www.w3.org/2000/svg" viewBox="0 0 512 512"><path d="M478.46 110.22a1.44 1.44 0 00-1.41-.23 1.94 1.94 0 00-.16-2.36c-.57-.53-1.65-.84-3.8 1.11-1.28 1.33-3 2.8-4.95 4.5-6 5.19-14.16 12.29-17.21 21.44-.75 2.42 0 3.23.75 3.48 1.28.37 2.57-1 3.12-2.57 2.83-8.82 11.44-15.93 17.14-20.65l.87-.71c-.87 1-1.82 1.92-2.81 2.92-4.75 4.84-10.14 10.32-11.8 19.3-.4 2.52.46 3.21 1.24 3.35 1.3.26 2.41-1.35 2.69-3 1.51-8.66 7.58-14.42 12-18.64q.35-.3.66-.63c-.44.59-.88 1.19-1.37 1.79-3.46 4.5-7.07 9.15-8 18.48-.2 2.54.7 3.16 1.5 3.22h.13c1.26 0 2.14-1.59 2.3-3.19a27.77 27.77 0 017-16.37c-2.26 3.72-4 7-4.09 16.13 0 2.54 1 3.08 1.79 3.08 1.35 0 2.14-1.73 2.14-3.4 0-9 2.28-12.4 4.49-15.65a26.07 26.07 0 002.22-3.62 1.14 1.14 0 00.09-.26c.6-1.56.38-2.84-.57-3.3a1.48 1.48 0 00-1.33 0 1.76 1.76 0 00-.75-1.85 1.59 1.59 0 00-1.41-.08 1.93 1.93 0 00-.47-2.29zm-39.61 13.48c-14.17-1.2-22.81 3.72-25.35 14.68a1.16 1.16 0 00.36 1.11 15.69 15.69 0 0010.25 3.6 17.81 17.81 0 009.08-2.48c5.63-3.33 8.13-9.33 6.67-16a1.14 1.14 0 00-1.01-.91z" fill="#009ddc"/><path d="M502.52 92.42a11.21 11.21 0 00-8.06-2.85h-.55a16.88 16.88 0 00-7.91 1.9 73.93 73.93 0 01-14.18 4.7A164.31 164.31 0 01451 99.36c-11.58 1.29-23.56 2.62-34.72 7.32-28.79 12.07-45.6 39.81-61.86 66.63-14.42 23.69-29.21 48.16-52.12 61.1-24.28 13.72-48.64 19-72.21 24.13-12 2.6-23.36 5.07-34.52 8.56-21.67 6.8-45.71 20.72-66 38.2-8.22 7.09-12.24 13.74-16.5 20.79-3.87 6.39-7.87 13-15.4 20.79-7.36 7.63-21.76 8.53-37 9.5-19.34 1.24-41.29 2.62-54.4 18.08a1.12 1.12 0 00.05 1.54c7.49 7.58 11.23 9.7 23.5 8.38a52.36 52.36 0 01-5.67 3.91c-5.94 3.73-12.68 8-10.14 14.16 1 2.32 3.92 4.35 8.57 5.88 14.59 4.81 47.81 5 79.59-14.17 4.73-2.85 9.29-6.07 13.71-9.21 13-9.19 26.43-18.71 47.44-21.52 31.67-4.24 66.94 1.06 104.28 6.69 5.5.82 11 1.66 16.54 2.46-4.56 12.79-12.2 22.84-19.6 32.59-3.06 4-6.23 8.19-9 12.37a2.47 2.47 0 00-.66 3c.83 1.48 3.67 1.95 6.92 1.95a74.15 74.15 0 0012.07-1.31c19-4.73 33.64-8.73 48.66-17.41 8.18-4.77 13.33-12.84 18.3-20.64C347 373.26 353 364 364.5 360.6c5.65 8.22 15.64 14.14 27.55 16.35 14.54 2.63 29.65-.48 40.54-8.44a1.12 1.12 0 00-.35-2c-4.84-1.37-9-5.35-12.29-11.78-7.44-14.52-8.17-37-4.17-48.17 3.93-11 7.93-26.62 11.8-41.75 1.9-7.42 3.86-15.11 5.79-22.18 2.38-8.67 4.19-18.13 5.94-27.27 2.87-15 5.59-29.23 10.27-36.42 8.05-12.35 16.66-19 25-25.32 3.53-2.72 6.89-5.28 10.16-8.24 10.6-9.58 21.56-19.49 21.23-43.46-.04-4.15-1.19-7.35-3.45-9.5zM414.17 366c-11.3 2-29.37-2.3-34.65-9.88 2.28-9.15 11.22-17.81 18.43-24.77 1.3-1.26 2.52-2.43 3.64-3.56 1.31 11.34 6.9 30.8 12.58 38.21zm57-219.43c-1.28.92-2.6 1.83-3.91 2.75-9.34 6.47-19 13.17-25.52 23.36-4.33 6.73-7.66 22.16-11.91 41.69-3.31 15.29-7.07 32.61-12.19 50-12.53 42.33-28.95 69-50.2 81.48a42.82 42.82 0 01-.95-8.81c-.25-5.77-.49-11.71-4.2-14.56a1.26 1.26 0 00-1-.18 1.15 1.15 0 00-.73.71 219.93 219.93 0 01-12.26 28.81c-17.21 32.83-40.7 51.3-73.75 57.89 19-25.87 34.38-51.06 34.73-91.5a1.16 1.16 0 00-.42-.88 1.13 1.13 0 00-.71-.24h-.24c-7.27 1.57-10.52 10.69-13.94 20.35-3 8.48-6.14 17.25-12.06 21a149.61 149.61 0 01-25.31.38c-10.17-.62-20.59-1.95-30.66-3.25-25.12-3.23-51.13-6.52-75.09 1.15-13.16 4.22-24.84 11.69-36.13 18.89-8.36 5.39-16.26 10.39-24.35 13.9-21.54 9.34-38.56 13.7-66.51 9.79a.14.14 0 010-.09c.24-1.28 3.65-3.43 6.66-5.3 6.11-3.83 13.7-8.58 12.79-15.14a1.11 1.11 0 00-1-1 78.33 78.33 0 00-10.61-.33c-5 .08-9.45.17-14.79-2a13 13 0 013.55-3.44c8.27-5.72 24.43-6.54 40.07-7.33C77.69 363.85 94 363 101.09 356c7.41-7.29 12.55-14.87 17.52-22.23l1.81-2.65c5.32-7.86 10.8-15.49 19.31-22.45 3.22-2.63 6.53-5.08 10.11-7.55a220.82 220.82 0 0149.91-25c11.24-3.95 22.33-6.16 34.09-8.49 13-2.59 26.4-5.25 40.12-10.49 14.37-5.51 32.76-13.23 47.43-24.19a89.64 89.64 0 009.54-8.09c14.25-13.89 24.53-31.59 34.45-48.72C383.7 144.56 401 114.7 441 110.6c4.69-.44 9.41-.65 14.12-.62 1.81 0 3.55 0 5.23-.09 6.43-.18 12-1 17.83-4 2 5.64 5.33 8.51 16.64 9.72-2.19 14.77-12.47 23.08-23.69 31z" fill="#009ddc"/></svg>