<svg data-name="Layer 1" xmlns="http://www.w3.org/2000/svg" viewBox="0 0 512 512"><defs><radialGradient id="a" cx="-153.77" cy="806.53" r="41.21" gradientTransform="matrix(-.87 -.16 -.33 1.8 179.35 -906.25)" gradientUnits="userSpaceOnUse"><stop offset="0" stop-color="#ee352c"/><stop offset="1" stop-color="#a91d22"/></radialGradient></defs><path d="M316 239.45l-100.14 32.71-87.11 38.43-24.37 6.41c-6.21 5.93-12.71 11.9-19.76 18-7.72 6.66-14.91 12.72-20.44 17.11a152.37 152.37 0 00-19.83 19.68c-6.89 8.62-12.4 17.71-14.68 24.79-4.16 12.72-2.11 25.59 5.91 37.47 10.29 15.12 30.8 30.57 54.72 41.09a347 347 0 0048.14 16.13c25.66 6.5 75.29 13.54 102.62 14.59a117.14 117.14 0 0013.25 0c.6-.37 4.83-8.46 9.75-18.54 16.81-34.32 28.94-66.49 35.51-93.91 3.93-16.64 7.08-38.81 9.09-65.08.51-7.35.74-31.87.3-40.27a282.4 282.4 0 00-3.8-35.41 8.75 8.75 0 01-.23-3.1c.3-.23 1.21-.53 13.55-4.09l-2.49-5.9zm-22.85 13.41c.91 0 3.33 23.23 3.93 37.91a20.25 20.25 0 01-.09 5.16c-.6 0-12.78-7.19-21.48-12.65-7.58-4.76-22-14.31-24.22-16.11-.76-.53-.67-.6 5.52-2.73 10.51-3.56 35.5-11.58 36.33-11.58zm-51 16.8c.68 0 2.43 1 6.59 3.55 15.58 9.75 36.78 21.57 45.87 25.5 2.8 1.2 3.1.76-3.33 5.15a332.11 332.11 0 01-52 28c-3.71 1.66-6.87 2.94-6.87 2.94a18.5 18.5 0 01.9-4.16 223.2 223.2 0 008.09-53.13c-.04-7.6-.04-7.62.72-7.85zm-10.52 4c.44.46.14 17.41-.46 22a191.84 191.84 0 01-7 32.92 50.07 50.07 0 01-1.77 5.31c-.3.39-10.62-9.76-14.08-13.69a103.11 103.11 0 01-13.89-20.2 63.86 63.86 0 01-4.23-10.28c1.2-.84 41.1-16.28 41.4-15.94zM182 293.15h.23a14.33 14.33 0 011.13 2.72 101 101 0 0012.56 22.48 127.82 127.82 0 0017.48 18.84c1.77 1.52 3.54 2.95 3.71 3.18s.61.38-11.73 5.07c-14.3 5.46-29.9 10.91-47.82 16.65l-12.8 4.16c-.68.23-.45-.14 1.52-3.24 8.85-13.87 22.33-41 29.89-60.21 1.3-3.33 2.57-6.66 2.8-7.42a2.78 2.78 0 01.59-1.19 2.71 2.71 0 011.08-.78 7.11 7.11 0 011.29-.3zm-15 6.25a167.3 167.3 0 01-7.42 15.67c-7.33 14.31-15.36 28.33-26.1 45.49-1.77 2.94-3.54 5.67-3.79 6s-.53.39-1.77-2a68.59 68.59 0 01-5.81-17.56 70.34 70.34 0 01.37-22.57c1-4.69.91-4.62 3.17-5.75 9.7-4.9 41.07-19.58 41.35-19.28zm130.55 5.31v3.17a412.46 412.46 0 01-4.46 56.92c-.45 2.95-.84 5.31-.91 5.45a38.41 38.41 0 01-4.76-1.36 195.27 195.27 0 01-34.8-14.89c-7.35-4-18-10.62-17.71-10.9s3.25-1.77 7-3.71a443.38 443.38 0 0041.41-24.29c4.6-3.1 11.56-8.09 13.09-9.46zm-187.71 22.4c.3 0 .23.6-.24 3.33-.3 2-.67 5.6-.83 8.09-.6 11.06 1.23 19.22 6.68 30.43 1 1.87 1.85 3.79 2.64 5.75-.54.44-50.63 15.14-66.37 19.48l-9.09 2.5c-.53.16-.6 0-.37-1.21 1.77-11.12 10.22-25.66 22-37.91a98 98 0 0124.84-19.11c7.72-4.39 19.61-11 20.52-11.28h.15zm118.06 21.11a29.29 29.29 0 014.09 2.2A228.14 228.14 0 00290 373l1.77.39-2.43 1.36c-10.06 5.6-43.13 19.38-77 32-4.92 1.77-9.76 3.54-10.63 4a5.69 5.69 0 01-1.76.53s1.36-2.72 3.1-6A376.37 376.37 0 00226.93 351c.6-1.43 1-2.73 1-2.8zm-12 3.93a22.06 22.06 0 01-1.3 3.54 478.14 478.14 0 01-26.33 52.85c-2.8 5-5.14 9-5.22 9s-2.34-1.36-5.07-3c-16-9.85-30.28-22-39.58-33.65l-1.4-1.68 6.89-1.89a495.06 495.06 0 0066.44-23c3.03-1.23 5.57-2.17 5.57-2.17zm74.76 26.12c.09 1.77-3.77 17.32-7 28.6-2.64 9.46-4.92 16.88-9.08 30-1.77 5.74-3.4 10.52-3.54 10.52a6.9 6.9 0 01-1-.23 317 317 0 01-61.51-17.33c-5.32-2.13-12.88-5.53-13.34-5.9a88.56 88.56 0 0110.15-4.78c34.44-15.06 70.16-32.16 82.41-39.5a9.82 9.82 0 012.8-1.36zM118 384.17c.14.16-9.46 14-22.93 32.85-4.7 6.59-10.15 14.31-12.19 17.18s-5.15 7.42-6.89 10.14l-3.19 4.93-3.4-2.89A125.72 125.72 0 0155.37 432a62.19 62.19 0 01-12.65-24.44c-.83-3.63-.83-5.45 0-5.68 1.14-.3 21.34-5.07 40.27-9.46a4579.3 4579.3 0 0027.1-6.36l8-1.89zm9.68 3.7l2.43 2.73a141.63 141.63 0 0035.42 29.06 20.76 20.76 0 014.09 2.65c-.53.37-46.77 16.81-68.2 24.23-12 4.23-21.94 7.63-22 7.63a13.23 13.23 0 01-1.5-1l-1.37-1 2.2-3.17c7.08-10.31 16-21.57 35.41-45l13.41-16.13zm60.39 43.23c.09 0 3.42 1.13 7.49 2.63a240.11 240.11 0 0028.09 8.72 309 309 0 0042.5 7.33c1.66.16 2.57.32 2.27.53s-11.66 4-19.84 6.59c-13 4.09-52.75 15.81-85.14 25.13-6 1.77-11.13 3.18-11.43 3.26a6.07 6.07 0 01-3.25-.84 52.79 52.79 0 014-5.06 453.91 453.91 0 0030.65-41.3l4.6-7zm-13.31.37s-5.32 8.71-14.69 23.53c-4 6.29-8.48 13.41-10.06 15.94s-3.79 6.2-5.08 8.33l-2.19 3.85-1.14-.3c-2.72-.76-21.87-7.49-26.93-9.54A188.39 188.39 0 0197 465.19c-6.06-3.26-13.62-8.1-13-8.26.15 0 10.52-2.87 23-6.28 33.16-9 51.55-14.17 63.58-18a33.23 33.23 0 014.16-1.14zm94.24 22.1c.3.76-11.95 34.82-16.41 45.56-1 2.43-1.37 3-1.9 3-1.29-.09-19.07-2.58-29.89-4.16-18.84-2.89-50.49-8.41-58.44-10.22l-1.77-.39 11.28-2.56c24.21-5.46 35.88-8.4 47.67-12.05a337.14 337.14 0 0044.59-17.17 34.22 34.22 0 014.87-2.01zM212.76 6c-1.66-.23-28.54 9.46-45.86 16.51C143.51 32 125.34 41.12 114.15 49c-4.17 3-9.39 8.18-10.22 10.22a7.15 7.15 0 00-.46 2.59l10.14 9.74 24.14 7.7 57.45 10.29 65.68 11.21.67-5.69H261l-8.62-1.36-1.77-3.1c-9-15.74-18.83-35.28-24.61-48.45a248.35 248.35 0 01-11-30.5c-1.29-5.15-1.44-5.45-2.27-5.52zm-1.22 3.86h.09s.38 2.2.68 4.7a157.64 157.64 0 007.35 31.87c2.79 8.33 2.79 7.88-.47 6.89-7.72-2.12-42.3-8.09-67.29-11.58-4-.53-7.42-1.06-7.42-1.13-.3-.3 18.1-9.92 26.19-13.69 10.38-4.78 38.84-16.67 40.94-17zm-72.95 33.92l2.95 1c16 5.46 56.39 13.18 78.65 15l4.67.46a33.57 33.57 0 01-4.71 2.48c-10.75 5.31-22.54 12-30.72 17a32 32 0 01-4.93 2.72c-.3 0-1.89-.31-3.54-.53l-3-.46-7.59-7.45c-13.32-12.92-23.76-23-27.77-26.7zm-3 2.33l10.62 13.32c5.83 7.35 11.73 14.54 13 16.13a22.91 22.91 0 012.32 3c-.3.23-15.43-2.73-23.47-4.53s-11.65-2.8-16.71-4.4l-4.16-1.36v-1.01c0-5.07 6.49-12.65 17.4-20.35l1-.69zm90.66 18.17c.32 0 .69.68 1.6 2.73 2.57 5.67 10.62 20.95 12.57 23.91.61 1 1.66 1.06-9-.68-25.66-4.16-33.91-5.52-33.91-5.68a8.37 8.37 0 011.76-1.13 148.31 148.31 0 0023-15.94c1.77-1.44 3.33-2.8 3.63-3s.23-.21.3-.14z" fill="#b6bdc5"/><path d="M104.45 58.21a7.48 7.48 0 000 6.57c1 2.43 3.86 5.31 7.09 8.41 0 0 33.64 32.85 37.77 37.54 18.61 21.49 26.72 42.68 27.47 71.9.45 18.77-3.1 35.26-12 54.42-15.74 34.36-49 72.27-100.21 114.37l7.51-2.52C77 345.36 83.54 341.41 99 333c35.65-19.48 75.76-37.47 125-55.94 70.84-26.56 187.32-57.82 253.61-68l6.89-1.06-1-1.66a229.74 229.74 0 00-15.32-21.47 182.08 182.08 0 00-53.73-44.73c-29.66-16.57-68-29.52-116.63-39.12-9.16-1.77-29.29-5.31-45.64-7.81-34.65-5.31-57.06-9.06-81.74-13.31-8.85-1.51-22.1-3.78-30.87-5.67a198.73 198.73 0 01-20.06-5.31c-5.46-2.11-13.32-4.24-15-10.63zm19.48 18.91a19.76 19.76 0 012.89.91c2.87 1 6.59 2.12 11 3.33q4.95 1.38 10 2.65c4.53 1.14 8.32 2.2 8.39 2.2.53.53 8.18 25 10.75 34.35a63.55 63.55 0 011.66 6.59 15.5 15.5 0 01-1.89-3c-8.86-15.58-22.86-31.39-39-44.11a33.08 33.08 0 01-3.72-3zm37.19 10.29a29.6 29.6 0 014.09.69c12.88 2.87 35.95 7.26 50.7 9.76a18 18 0 014.48 1 7.93 7.93 0 01-2 1.28c-2.5 1.29-12.56 7.28-15.94 9.54a143.63 143.63 0 00-21.21 17.11c-2.2 2.19-4.1 4-4.1 4s-.44-1.27-.83-2.87a242.91 242.91 0 00-13.54-37.08 30.6 30.6 0 01-1.51-3.54zm65.53 12.4c.45.16 1.22 2.73 2.72 8.41a123.72 123.72 0 013.63 34.66c-.14 3.18-.3 6.12-.44 6.51l-.23.76-3.93-1.29c-8.11-2.57-21.25-6.43-32.55-9.61-6.43-1.78-11.65-3.33-11.65-3.55a180 180 0 0113.38-13.4c7.66-6.73 28.34-22.77 29.07-22.56zm5.22.76c.23-.23 31.34 5.15 45.49 7.88 10.52 2 25.8 5.22 26.71 5.6.46.14-1.14 1.06-6.2 3.33a329.16 329.16 0 00-49.59 26.93c-3.86 2.59-7.08 4.69-7.19 4.69a37.07 37.07 0 01-.16-4.83 105.18 105.18 0 00-8.18-41.17 14 14 0 01-.78-2.34zm80.45 15.94a55.58 55.58 0 01-1.67 10c-2.72 11.28-10.06 28-19.07 43.74a49.4 49.4 0 01-3.17 5.15 32.55 32.55 0 01-4.55-2.43 247.47 247.47 0 00-29.66-14.54c-3-1.27-5.69-2.33-5.76-2.49-.53-.45 23.84-16.58 36.71-24.3 10.22-6.21 26.85-15.43 27.17-15.13zm5.75.9c.69 0 14.46 3.79 21.64 5.9a445 445 0 0151.55 18.86l5.53 2.49-3.86.91a561.85 561.85 0 00-87.27 27c-2.2.9-4.16 1.67-4.3 1.67a18.83 18.83 0 011.57-3.86c8.11-17.18 13.34-35.12 14.61-50.42 0-1.42.3-2.55.53-2.55zM180.94 148.9a168.6 168.6 0 0116.42 3.86c8.63 2.42 26.94 8.55 26.94 9 0 .09-2.05 1.77-4.45 3.95-9.92 8.25-19.49 17-30.89 28-3.4 3.26-6.29 5.9-6.43 5.9s-.23-.45-.16-1a170.66 170.66 0 00-1.06-45.65c-.12-2.06-.34-3.88-.27-4zm221.07.23c.15.14-4.85 8-8 12.48-4.55 6.5-11.21 15.14-26.26 34.06-8 10-16.88 21.25-19.84 25.05s-5.52 7-5.59 7a23.89 23.89 0 01-2.13-3 156 156 0 00-30.65-33.82c-2.27-1.89-4.76-4-5.6-4.55a9.23 9.23 0 01-1.54-1.35c0-.24 12.87-5.76 22.63-9.69 17.3-6.93 40.52-15.25 58-20.56 9.15-2.89 18.91-5.69 19.07-5.53zm5.83 1.5a17.25 17.25 0 014.3 2.13 256.52 256.52 0 0150.65 38c4 3.95 13.92 14.17 13.76 14.31s-3.54.3-7.56.6c-31.88 2.43-72.61 9.16-111.87 18.63-2.64.61-5 1.14-5.13 1.14s2.79-3 6.5-6.52c23-22.17 33.53-36.18 45.95-61.15 1.77-3.7 3.24-6.89 3.4-7.08zM239.29 167.9c1.06.21 10.9 4.83 18.31 8.55 6.82 3.4 17 8.86 17.57 9.3 0 .09-3.54 2-8 4.16C253 197 240.72 203.76 228 211.48c-3.63 2.2-6.66 4-6.73 4s-.23-.3 1.77-4a157.73 157.73 0 0015.37-41.7c.3-1.14.6-1.88.83-1.88zm-9.85 1.77a141.78 141.78 0 01-3.93 14.61A185.74 185.74 0 01212.12 215c-1.22 2.13-3 5.32-4 7l-1.89 3-4.23-4.08a55.6 55.6 0 00-14.08-10.38 20.26 20.26 0 01-3.63-2.12c0-.61 12.94-12.4 22.86-20.81 7.06-6.13 22.08-18.17 22.29-17.94zm60.21 24.79l3.72 2.43a288.85 288.85 0 0126.1 19.28c4.32 3.54 12.65 11.05 14.31 12.88l.91 1-6.13 1.77c-34.68 9.61-61.45 18.15-92.72 29.66-3.55 1.29-6.43 2.36-6.66 2.36s-.84.37 7-6.82A333.17 333.17 0 00287 198.57l2.64-4.09zm-15.81 3.93c.14.16-10.22 14.75-16.44 23-7.4 9.85-20.58 26.35-29.66 37.09-3.79 4.48-7.08 8.18-7.19 8.25a7.08 7.08 0 01-.3-2.8 63.26 63.26 0 00-6.43-27.24c-1.77-3.54-2-4.32-1.66-4.69 1.43-1.29 23.46-13.86 37.38-21.35 9.39-5 24.07-12.4 24.3-12.26zm-95.63 23.47a32 32 0 013.93 2 82.76 82.76 0 0113 8.86 22.64 22.64 0 01-4.39 3.54c-7.19 5.15-18.08 13.39-24.44 18.47-6.66 5.31-6.89 5.44-6.13 4.3a137 137 0 0010.13-17.48 139.51 139.51 0 006.36-15.81 12.49 12.49 0 011.52-3.86zm25.5 20c.37 0 .83.6 2.87 3.63a54.68 54.68 0 018.48 22l.16 1.53-10.38 4c-18.54 7.19-35.64 14.31-47.23 19.6-3.24 1.5-8.85 4.23-12.62 6.06s-6.75 3.32-6.75 3.25 2.36-1.76 5.22-3.94c22.64-16.42 42.24-34.43 56.92-52.44 1.6-1.89 3-3.65 3.19-3.72zM192 244.72c.3.3-8.33 10.06-14.17 16a250.48 250.48 0 01-47 37.92l-4.53 2.92c-.53.3.14-.44 8-9a180.74 180.74 0 0013.09-15.51 25 25 0 017.61-7.15c11.08-8 36.83-25.45 37-25.13z" fill="url(#a)"/></svg>