<svg data-name="Layer 1" xmlns="http://www.w3.org/2000/svg" viewBox="0 0 512 512"><path d="M130.57 443.71h-20q-1.06-50.59-5.84-95.2h-.18l-30.43 95.2H59l-30.26-95.2h-.22q-3.37 42.81-4.24 95.2H6Q7.76 380 14.84 324.3h24.78l28.84 87.77h.18l29-87.77h23.71q7.81 65.28 9.22 119.41zm86.7-88.12q-12.2 66.26-32.21 96.31-15.57 23.1-34.14 23.1c-3.31 0-7.38-1-12.22-3v-10.6a57.94 57.94 0 008.32.54c5.79 0 10.43-1.59 14-4.79q6.36-5.83 6.36-13.08 0-5-5-20.36l-21.94-68.13h19.65l15.74 51q5.32 17.35 4.43 24.29a333.71 333.71 0 0018.05-75.21h18.93z" fill="#7aa2ba"/><path d="M483.4 443.71h-56.78V324.3h19.09V429h37.69zm-71.65 2.89l-22-10.83a40.09 40.09 0 005.48-5.34q14-16.44 14-48.65 0-59.26-46.55-59.29-22.83 0-35.58 15.05-14 16.45-14 48.48 0 31.5 12.39 46.18 11.32 13.26 34.16 13.28a55.06 55.06 0 0015.68-2.1L404 460zm-71.15-26.79q-7.25-11.67-7.25-37.49 0-45.12 27.43-45.14 14.36 0 21.05 10.79 7.25 11.68 7.26 37.16 0 45.48-27.43 45.54-14.34 0-21.06-10.81zm-35.75-9.15q0 15.18-11.13 24.95t-29.9 9.73q-17.5 0-34-11.13L235 424q14.18 7.08 25.65 7.09c7.2 0 12.82-1.6 16.91-4.77A16.23 16.23 0 00284 413c0-7.08-4.94-13.15-14-18.21-8.37-4.6-25.11-14.17-25.11-14.17-9.11-6.62-13.62-13.71-13.62-25.41q0-14.52 10.17-23.45t26.31-8.95a54.47 54.47 0 0130.25 8.88l-4.59 10.1a58.37 58.37 0 00-23-5c-6.12 0-10.86 1.47-14.16 4.42a14.79 14.79 0 00-5.36 11.33c0 7.09 5.06 13.21 14.38 18.39 8.48 4.61 25.65 14.38 25.65 14.38 9.31 6.61 13.95 13.65 13.95 25.25" fill="#f8981d"/><path d="M481.45 273c-16.91-.43-30 1.28-41 5.93-3.18 1.26-8.22 1.26-8.66 5.28 1.72 1.71 1.91 4.45 3.4 6.78a48.68 48.68 0 0011 12.88c4.44 3.39 8.89 6.76 13.53 9.72 8.23 5.09 17.55 8.05 25.56 13.13 4.67 3 9.31 6.75 14 9.93 2.3 1.69 3.77 4.45 6.75 5.5v-.65c-1.48-1.9-1.91-4.66-3.38-6.77l-6.36-6.12a100.9 100.9 0 00-22-21.35c-6.84-4.66-21.59-11-24.33-18.79l-.43-.43a84 84 0 0014.59-3.43c7.21-1.9 13.76-1.48 21.14-3.36 3.4-.85 6.76-1.92 10.17-3v-1.91c-3.82-3.81-6.55-8.9-10.59-12.47a279.82 279.82 0 00-34.88-26c-6.57-4.24-15-7-22-10.58-2.52-1.27-6.76-1.89-8.24-4-3.8-4.66-5.93-10.78-8.68-16.31-6.1-11.62-12.05-24.52-17.33-36.81-3.81-8.24-6.12-16.47-10.77-24.09-21.8-35.94-45.46-57.7-81.83-79.06-7.82-4.45-17.12-6.35-27.05-8.69l-15.86-.82c-3.38-1.48-6.78-5.51-9.73-7.41-12.07-7.61-43.13-24.09-52-2.33-5.73 13.76 8.45 27.3 13.34 34.26 3.59 4.85 8.24 10.38 10.76 15.87 1.48 3.6 1.9 7.41 3.39 11.2 3.39 9.32 6.54 19.66 11 28.34a99 99 0 007.81 13.09c1.69 2.34 4.65 3.38 5.29 7.2-3 4.21-3.17 10.56-4.88 15.85-7.6 23.88-4.62 53.49 6.15 71 3.37 5.28 11.42 16.92 22.24 12.46 9.54-3.8 7.42-15.85 10.17-26.42.63-2.55.21-4.23 1.49-5.93v.41c3 5.93 5.93 11.61 8.66 17.56 6.55 10.37 18 21.12 27.48 28.3 5.07 3.82 9.09 10.37 15.43 12.7v-.64h-.43c-1.27-1.89-3.16-2.74-4.85-4.21a103.84 103.84 0 01-11-12.69 274.4 274.4 0 01-23.72-38.54c-3.4-6.57-6.34-13.75-9.08-20.3-1.28-2.53-1.28-6.34-3.41-7.62-3.18 4.66-7.82 8.67-10.13 14.37-4 9.1-4.45 20.31-5.93 32l-.83.4c-6.73-1.69-9.07-8.66-11.64-14.57-6.33-15-7.41-39.13-1.89-56.46 1.48-4.44 7.84-18.39 5.29-22.61-1.28-4-5.5-6.36-7.83-9.54a86.82 86.82 0 01-7.62-13.52c-5.07-11.86-7.62-25-13.08-36.78-2.55-5.52-7-11.21-10.57-16.31-4-5.71-8.46-9.73-11.65-16.49-1.05-2.33-2.53-6.12-.83-8.66a3.31 3.31 0 011-1.88 3.36 3.36 0 012-.87c2.74-2.32 10.57.62 13.34 1.89a107.87 107.87 0 0120.93 10.57c3 2.12 6.14 6.14 9.93 7.21h4.45c6.76 1.48 14.37.4 20.76 2.31a136.24 136.24 0 0130.45 14.59 187.5 187.5 0 0165.94 72.32c2.54 4.85 3.6 9.29 5.93 14.36 4.45 10.38 10 20.94 14.38 31.14 4.45 9.93 8.68 20.07 15 28.33 3.17 4.45 15.88 6.76 21.57 9.09 4.22 1.89 10.79 3.57 14.59 5.92 7.19 4.45 14.37 9.52 21.13 14.4 3.36 2.53 13.94 7.83 14.57 12.05zM265.83 89.27a32.88 32.88 0 00-8.66 1.07v.42h.42c1.7 3.38 4.65 5.72 6.77 8.67 1.71 3.39 3.18 6.76 4.85 10.14l.42-.42c3-2.12 4.45-5.5 4.45-10.57-1.3-1.48-1.49-3-2.55-4.44-1.25-2.12-4-3.18-5.71-4.87" fill="#7aa2ba"/></svg>