<svg xmlns="http://www.w3.org/2000/svg" width="512" height="512" viewBox="0 0 512 512"><path d="M226.13 18.82c-1.78.19-7.86.84-13.55 1.31-43.27 4.12-86.54 17.29-111.02 33.83-8.6 5.79-17.66 15.23-20.86 21.77l-2.71 5.57v347.69l2.71 5.42c5.57 11.59 18.78 22.53 38.78 32.53 62.33 31.02 173.49 35.5 249.89 10.09 31.96-10.56 54.48-25.41 61.96-40.64l2.71-5.52V83.22l-2.52-5.42c-3.18-6.74-12.52-16.63-21.68-22.9-23.8-16.54-61.09-28.51-107.07-34.39-10.19-1.4-68.41-2.62-76.63-1.69zm66.35 25.66c28.41 2.72 54.01 8.6 70.74 16.45 27.01 12.71 26.54 29.91-1.12 42.9-22.42 10.53-54.91 16.19-97.47 16.96-43.6.84-76.07-3.08-103.45-12.52-30.75-10.65-40.38-24.48-26.36-38.12 14.68-14.21 49.72-23.46 102.51-27.02 8.6-.56 43.65.29 55.15 1.35z" fill="#0079d6"/><path d="M133.91 296.41c8.94-.56 15.68-2.39 20.25-5.48 4.56-3.09 6.84-7.24 6.84-12.44 0-5.9-.84-14.41-2.51-25.51-1.86-13.21-2.79-22.84-2.79-28.89 0-10.96 4.33-19.5 12.99-25.62 8.66-6.11 20.15-9.17 34.49-9.17h19.27v24.88h-11.73c-11.55 0-17.32 4.15-17.32 12.44 0 3.94.74 11.81 2.23 23.62.18 1.41.65 5.38 1.4 11.91.74 6.54 1.12 12.33 1.12 17.4 0 7.45-2.42 13.64-7.26 18.56-4.84 4.92-12.2 8.08-22.06 9.49v.42c9.87 1.55 17.22 4.74 22.06 9.59s7.26 11.07 7.26 18.66c0 4.78-.38 10.44-1.12 16.97-.75 6.54-1.21 10.65-1.4 12.34-1.49 11.81-2.23 19.61-2.23 23.4 0 4.36 1.4 7.52 4.19 9.49 2.79 1.97 7.17 2.95 13.13 2.95h11.73v25.09h-19.27c-14.34 0-25.84-3.06-34.49-9.17-8.66-6.11-12.99-14.65-12.99-25.62 0-6.19.93-15.88 2.79-29.1 1.68-11.1 2.51-19.54 2.51-25.3 0-5.2-2.28-9.35-6.84-12.44-4.57-3.09-11.31-4.92-20.25-5.48v-22.98zm223.93 28.47c-4.56 3.09-6.84 7.24-6.84 12.44 0 5.77.84 14.2 2.51 25.3 1.86 13.21 2.79 22.91 2.79 29.1 0 10.96-4.33 19.5-12.99 25.62-8.66 6.11-20.16 9.17-34.49 9.17h-19.27v-25.09h11.73c5.96 0 10.33-.98 13.13-2.95 2.79-1.97 4.19-5.13 4.19-9.49 0-3.8-.75-11.6-2.23-23.4-.19-1.69-.65-5.8-1.4-12.34-.75-6.54-1.12-12.19-1.12-16.97 0-7.59 2.42-13.81 7.26-18.66s12.19-8.05 22.06-9.59v-.42c-9.87-1.4-17.22-4.57-22.06-9.49s-7.26-11.1-7.26-18.56c0-5.06.37-10.86 1.12-17.4.74-6.54 1.21-10.51 1.4-11.91 1.49-11.81 2.23-19.68 2.23-23.62 0-8.29-5.77-12.44-17.32-12.44h-11.73V189.3h19.27c14.34 0 25.84 3.06 34.49 9.17s12.99 14.65 12.99 25.62c0 6.05-.93 15.68-2.79 28.89-1.68 11.11-2.51 19.61-2.51 25.51 0 5.2 2.28 9.35 6.84 12.44 4.56 3.09 11.31 4.92 20.25 5.48v22.98c-8.94.56-15.69 2.39-20.25 5.48z" fill="#fff"/></svg>