<svg data-name="Layer 1" xmlns="http://www.w3.org/2000/svg" viewBox="0 0 512 512"><path d="M203.06 68.54a37 37 0 003.79-.17 5.89 5.89 0 002.17-.75A5.73 5.73 0 00210.8 66c2.84-4.44 5.29-8.63 7.55-12.87a3.32 3.32 0 011.43-1.58 3.25 3.25 0 012.23-.39c5.49.18 11 .12 16.41.06.78 0 2.63-.16 3.35-1.29 1.43-2.19 2.72-4.42 4.19-7l1.14-2q7.26 12.3 14.57 24.6c.74 1.19 1.91 2.63 3.26 2.75s2.95.15 4.48.15h7.4l-1.4-2.75c-.27-.5-.42-.86-.65-1.23q-15.83-26.85-31.68-53.58C241.22 7.73 238.8 6 236.28 6c-2.53 0-5 1.77-6.84 4.95q-15.54 26.48-31 53a18.05 18.05 0 00-1 1.9l-1.34 2.68h1.87c1.77-.07 3.45.02 5.09.01zm28.34-37.47c1.64-2.77 3.29-5.53 5-8.34.33.53.59 1 .86 1.44L246 39h-19.35c1.61-2.69 3.19-5.32 4.75-7.93zm72.5 37.33q6.28.09 12.58.09c8.51 0 16.83-.09 25-.09a7.86 7.86 0 001.62-.28 4.26 4.26 0 001.49-1.06c1.37-2.09 2.63-4.2 4.07-6.64l2.45-4.08-18.83.06q-12.76.06-25.63 0c-7.36 0-12.33-3.62-14.76-10.64a25.4 25.4 0 01-.59-14.92c2.14-8.49 7.41-12.63 16.11-12.63 11.43 0 22.93 0 34.41.06 1.35 0 3.1-.22 3.82-1.29 1.42-2.07 2.61-4.22 3.9-6.49l2.2-3.92-2.47-.28a6.88 6.88 0 00-.9-.08H333.9c-9.5 0-19.31-.07-28.94 0-7.76.08-14.24 3.34-19.24 9.69-9.43 12-9.34 31.31.18 43.17 4.93 6.04 10.98 9.18 18 9.33zM135.84 18.23h6.49c9.45 0 19.27-.05 28.83.09a6.81 6.81 0 014.14 1.84 6.21 6.21 0 012 3.44 6.55 6.55 0 01-.46 4.1 6.05 6.05 0 01-2.33 3.19 6.67 6.67 0 01-3.84 1.1h-25.08c-.62 0-1.24 0-2 .09l-3.1.18.93 1.62a12.45 12.45 0 001 1.53Q157.68 51.2 173 67a4.21 4.21 0 002.67 1.38c3.87.06 7.74.06 12.43.06h2.71L167.2 44c1.27 0 2.65 0 3.94-.07a25.41 25.41 0 006.7-1.48c7.84-3.16 12.45-12.23 10.73-21.09C186.75 12 179.76 6 170.76 6H125.9a9.38 9.38 0 00-1.46.22l-.88.21v61.8h12.28zm229.63 50.16h40.32a8.23 8.23 0 001.46-.24 3.3 3.3 0 001.42-1c1.42-2.22 2.77-4.49 4.27-7.06l2.3-3.86h-40.48V6.16h-11.43v61.69l.79.25a5.56 5.56 0 001.35.29zm44.45 170.87c-34.22 11-72.05 17.4-119 20.05a623.67 623.67 0 01-76.85-.45c-29.14-1.95-54.79-5.44-78.43-10.66-17.83-3.95-41.1-9.88-62.87-20.85-8.24-4.16-17-9-24.49-15.63.07 14.58.1 29.16-.22 43.73-.17 7.95 2.27 14 7.67 19.16a93 93 0 0014.82 11.54c16.73 10.41 35.19 16.2 51.05 20.47 33.56 9.05 70.29 14.16 112.27 15.57 50.32 1.69 95.52-1.91 138.37-11.13 25.69-5.49 45.61-12.18 62.71-21.07 10.31-5.33 17.3-10.48 22.73-16.69 4.29-4.95 6.32-9.53 6.32-14.39V211.6a93 93 0 01-7.81 6c-12.43 8.67-26.69 15.4-46.27 21.66zm-340 138.42c13.42 8.1 28.58 14.27 49.24 20 25.69 7.15 53.58 11.88 85.25 14.47 56.26 4.52 108.09 2.11 158.47-7.43 26.8-5.06 48-11.54 66.78-20.39 9.28-4.38 19.83-10.08 27.88-19.24a24.08 24.08 0 006.46-16.86c-.14-15-.12-29.84-.09-44.71A95.64 95.64 0 01448 314.43 192.58 192.58 0 01423.6 326c-26.19 10.31-55.17 17-94 21.74a612.2 612.2 0 01-80.35 4.14c-44.32-.43-83.84-4.91-120.81-13.64-26-6.12-45.11-13-61.94-22.45a105.65 105.65 0 01-18.34-12.45c.05 14.67.08 29.32-.18 44a24.91 24.91 0 006.2 17.55 64.13 64.13 0 0015.73 12.79zm387.44 22.53C441.63 411.53 424.3 418 411 422.35c-33.06 10.8-69.38 17.17-114.31 20a645.44 645.44 0 01-80.14 0c-35.77-2.19-67.38-7-96.64-14.63-16.68-4.37-38.38-11-58.28-23.2a93.07 93.07 0 01-13.36-9.61c0 14.74.08 29.46-.17 44.2-.11 7.33 2.06 13.05 6.85 18a74 74 0 0010.42 9c15 10.56 32 16.57 46.66 21 28.46 8.71 60.45 14.29 97.77 17.06a628.43 628.43 0 0090.19.16c28.58-2 53.76-5.63 77-11s41.31-11.57 56.86-19.47c10.51-5.35 17.67-10.48 23.27-16.63a25 25 0 007-17.93c-.18-14.87-.16-29.66-.11-44.46-2.29 2.1-4.54 3.84-6.66 5.37zM64.82 68.42h6.86c4.59 0 9.12.06 13.65 0h.28a23.74 23.74 0 0010.78-2.6 23.41 23.41 0 008.61-7.46c7.2-10 8.73-21.32 4.53-33.76C105.37 12.42 96.27 6 83.15 6H45.74c-10.62 0-18.53 5-23.52 14.74-4.07 8-4.89 17-2.41 26.54C22.46 57.64 30.72 68.45 46 68.45h1.44c1.92-.07 3.86-.09 5.79-.09 3.86-.04 7.77.04 11.59.06zM46.92 56.3c-8.94 0-14.12-4.08-16.29-12.81A24.65 24.65 0 0132 27.19c2.61-6 7.21-9 13.67-9H83c9.29 0 14.7 4.39 16.57 13.41 1.26 6.07.75 11.33-1.56 16.1-2.81 5.83-7.21 8.68-13.43 8.68H62.37c-5.23-.07-10.3-.04-15.45-.08zm18.54 136.82c14.75 10.59 31.86 16.57 46.66 21 35.15 10.61 73.67 16.4 121.24 18.23a625.63 625.63 0 0079.15-2.15c33.82-3 63.05-8.49 89.38-16.66 17.3-5.39 30.6-11.24 41.87-18.43 8.42-5.35 13.73-10.33 17.24-16.16 3.91-6.57 4-12.6.31-18.95a40.61 40.61 0 00-5.94-7.65c-7.31-7.53-16.6-12.54-23.87-16.07-17-8.24-36.45-14.53-61.36-19.79-34.29-7.24-70.39-10.74-113.53-11-44.91 0-84.57 4.09-121.26 12.48-18.1 4.13-41.61 10.43-63 22.65-8.95 5.14-14.93 10-19.39 15.79-6.58 8.61-6.68 16.69-.29 24.71a64.55 64.55 0 0012.79 12zM473.72 56.29c-9 0-18.16 0-27.2-.11a13.68 13.68 0 01-9.52-4.37 14.17 14.17 0 01-4-8.68h44.19c1.15-.1 2.84 0 3.6-1 1.49-2.15 2.79-4.36 4.32-6.9l2.61-4.34h-54.97c1.55-7.84 7.35-12.72 15.18-12.72 11.8-.07 23.63 0 35.47-.08.85 0 3-.12 3.82-1.36 1.24-1.8 2.32-3.69 3.45-5.7.6-1 1.21-2.13 1.89-3.27l1-1.73h-46.3c-9.36.09-16.65 4.19-21.67 12.16C420.17 27 418.93 37 421.94 48c2.71 10 11 20.45 26.08 20.45h1c4.7-.12 9.45-.17 14.15-.17 6.48 0 12.56.08 19.4.08 1.12 0 2.54 0 3.22-.93 1.53-2.19 2.94-4.5 4.43-7l2.57-4.16h-7.5c-3.92 0-7.72.02-11.57.02z" fill="#f10000"/></svg>