<svg data-name="Layer 1" xmlns="http://www.w3.org/2000/svg" viewBox="0 0 512 512"><path d="M307.561 292.931c5.804.001 10.894 1.489 15.261 4.465 4.367 2.979 7.421 7.098 9.158 12.357h-11.987c-1.19-2.481-2.878-4.342-5.061-5.581-2.134-1.241-4.618-1.861-7.446-1.861-3.029 0-5.734.719-8.116 2.158-2.333 1.389-4.169 3.374-5.511 5.955-1.289 2.579-1.935 5.608-1.935 9.08 0 3.424.646 6.45 1.935 9.079 1.342 2.58 3.178 4.591 5.511 6.028 2.382 1.39 5.087 2.083 8.116 2.083 2.828 0 5.312-.619 7.446-1.86 2.183-1.289 3.871-3.176 5.061-5.656h11.987c-1.737 5.309-4.791 9.455-9.158 12.431-4.319 2.927-9.407 4.391-15.261 4.391-4.965 0-9.455-1.118-13.476-3.351-3.969-2.281-7.124-5.433-9.457-9.453-2.282-4.018-3.424-8.583-3.424-13.692s1.141-9.677 3.424-13.695c2.333-4.068 5.488-7.221 9.457-9.454 4.021-2.282 8.511-3.424 13.476-3.424zm-105.306.669c4.021 0 7.445.72 10.274 2.159 2.829 1.389 4.939 3.301 6.328 5.731 1.44 2.383 2.16 5.062 2.16 8.038 0 3.424-.993 6.526-2.979 9.304-1.985 2.729-4.94 4.614-8.859 5.657l12.433 21.063h-12.061l-11.465-20.246h-4.914v20.246h-10.423V293.6h19.506zm74.489 51.952h-11.018l-3.426-9.9h-20.697l-3.424 9.9h-10.945l18.687-52.026h12.136l18.687 52.026zm-32.312-18.236h15.039l-7.521-21.732-7.518 21.732zm-51.26-9.824h8.712c2.829 0 4.938-.67 6.328-2.01 1.389-1.389 2.084-3.3 2.084-5.73 0-2.38-.695-4.218-2.084-5.507-1.39-1.339-3.499-2.01-6.328-2.011h-8.712v15.258zm302.783-62.193a5.047 5.047 0 015.045 5.043 5.047 5.047 0 01-5.045 5.044H18.779a5.047 5.047 0 01-5.045-5.044 5.047 5.047 0 015.045-5.043h477.176zm-332.559-89.743a20.34 20.34 0 0114.378 5.951 20.332 20.332 0 010 28.75l-.01.018a20.37 20.37 0 01-14.378 5.953h-5.278l23.228 19.478h-16.801l-34.518-30.08 32.601.05a9.75 9.75 0 009.747-9.744 9.752 9.752 0 00-2.855-6.89 9.76 9.76 0 00-6.892-2.854h-38.293v49.488h-11.563v-60.12h50.634zm64.305-.556a8.517 8.517 0 013.945.938l.031.01a8.513 8.513 0 013.057 2.654l36.568 57.104H257.67l-6.436-10.61h-31.221l-6.842-10.602h30.856l-16.315-26.249-29.948 47.45h-13.633l36.427-57.003a8.65 8.65 0 013.118-2.733 8.587 8.587 0 014.025-.959zm127.028 50.084h53.904l-6.821 10.611h-52.744c-.786 0-1.563-.15-2.29-.443a5.994 5.994 0 01-1.937-1.291 5.448 5.448 0 01-1.241-1.847 5.738 5.738 0 01-.434-2.178v-54.361h11.563v49.509zM76.567 165.556a30.042 30.042 0 0120.917 8.987 30.086 30.086 0 018.618 21.072 30.03 30.03 0 01-8.618 21.074 30.085 30.085 0 01-20.917 8.987H41.614a30.053 30.053 0 01-11.674-2.129 29.987 29.987 0 01-9.94-6.476 29.902 29.902 0 01-6.66-9.815 30.086 30.086 0 01-2.34-11.63 30.1 30.1 0 012.34-11.631 30.068 30.068 0 016.661-9.815 30.233 30.233 0 019.938-6.476 30.201 30.201 0 0111.675-2.129h34.953v-.019zm218.862.009h41.531l-6.76 10.602h-34.005a19.455 19.455 0 00-13.763 5.699 19.448 19.448 0 000 27.519v-.029a19.469 19.469 0 0013.763 5.698h41.714l-6.811 10.611h-35.669a30.035 30.035 0 01-11.675-2.128 29.961 29.961 0 01-9.94-6.476 29.896 29.896 0 01-6.659-9.815 30.075 30.075 0 010-23.262 29.912 29.912 0 016.659-9.814 30.136 30.136 0 019.94-6.477 30.238 30.238 0 0111.675-2.128zm140.67-.05h41.551l-6.861 10.601h-33.934a19.506 19.506 0 00-11.735 3.955 19.478 19.478 0 00-6.982 10.229h56.244l-6.81 10.603h-49.434a19.397 19.397 0 006.972 10.237 19.455 19.455 0 0011.745 3.944l.01-.01v-.071h41.704l-6.821 10.612h-35.649a30.015 30.015 0 01-11.675-2.127 29.996 29.996 0 01-9.939-6.477 29.923 29.923 0 01-6.66-9.816 30.095 30.095 0 01-2.341-11.63 30.1 30.1 0 012.341-11.63 30.093 30.093 0 016.66-9.816 30.157 30.157 0 019.939-6.475 30.202 30.202 0 0111.675-2.129zM42.392 176.167c-2.553 0-5.087.505-7.448 1.484a19.49 19.49 0 00-6.316 4.215 19.496 19.496 0 00-5.701 13.76 19.495 19.495 0 005.701 13.759 19.49 19.49 0 0013.764 5.699H75.79a19.458 19.458 0 0013.764-5.699 19.444 19.444 0 005.7-13.759 19.446 19.446 0 00-5.7-13.76 19.475 19.475 0 00-13.764-5.699H42.392zm444.199-10.41a6.838 6.838 0 013.915-.373 6.786 6.786 0 013.473 1.866 6.717 6.717 0 011.844 3.48v-.01a6.68 6.68 0 01-.403 3.914 6.736 6.736 0 01-2.513 3.028 6.866 6.866 0 01-3.773 1.117 6.767 6.767 0 01-6.731-6.768c0-1.341.394-2.653 1.141-3.762a6.824 6.824 0 013.047-2.492zm3.623 1.049a5.316 5.316 0 00-3.068.283 5.281 5.281 0 00-3.299 4.882 5.272 5.272 0 001.523 3.772 5.43 5.43 0 001.726 1.16 5.254 5.254 0 002.038.406 5.341 5.341 0 002.956-.878 5.257 5.257 0 001.968-2.372h-.02a5.328 5.328 0 00.313-3.065 5.26 5.26 0 00-1.433-2.725 5.272 5.272 0 00-2.704-1.463zm-1.716 1.19c.666-.06 1.332.02 1.968.242.454.131.837.414 1.109.797.272.383.403.848.384 1.312-.01.373-.112.737-.282 1.071a2.313 2.313 0 01-.727.825h-.011c-.09.05-.14.102-.333.192l1.737 3.117h-1.686l-1.533-2.835h-1.06v2.835h-1.483v-7.556h1.917zm1.393 1.362c-.453-.141-.93-.192-1.393-.141h-.434v2.209h.949l.02.03c.416-.044.83-.048 1.123-.339l.108-.133a.967.967 0 00.202-.677 1.145 1.145 0 00-.162-.555 1.123 1.123 0 00-.413-.394z" fill="#ED1C24"/></svg>