<svg data-name="Layer 1" xmlns="http://www.w3.org/2000/svg" viewBox="0 0 512 512"><path d="M153 230.87c3.41-24.41 2.14-46 1.45-57.62-.19-3.18-.32-5.47-.32-7.09C154 162 153 93 193 52.65c.35-.31.71-.64 1.06-1-24.36-7.91-84.94-23.55-121.79 2.58C49.63 70.29 39.21 100.17 41.43 143c.67 13.55 9.28 61.9 23.92 110 16.92 55.56 36.14 90.6 52.74 96.14 2.54.84 10.27 3.42 21.48-10.05 15.83-19 30.71-35.25 37.55-42.59q-2.6-2.22-5-4.68c-15.34-16.03-22.34-38.25-19.12-60.95zM379.76 78c22.34 26 33.27 54.63 34.18 64.21a11 11 0 01-.23 3.75c.35 10-.93 18.46-2.19 26.66a170.94 170.94 0 00-2.34 21.53c-.21 7.53.72 15.62 1.74 24.13 2.5 20.77 5.31 44.2-9 67.87l.7.88c.56.7 1.13 1.41 1.68 2.12 55.48-87.29 74.64-188.48 57.24-210.73-22.69-29-54.74-44.15-95.25-45a182.84 182.84 0 00-40.75 3.83A153.77 153.77 0 01379.76 78zm20 72.7c-27.61-3.43-38.63 2.94-43 9.15-14.56 20.82 13.89 71.85 26 93.64 3.12 5.6 5.38 9.64 6.43 12.16a67.61 67.61 0 003.7 7.61c8.36-17.78 6.2-35.81 4.09-53.32-1-8.67-2.12-17.62-1.84-26.25a184.57 184.57 0 012.49-23.21 139.51 139.51 0 002.13-19.81zm-16 15.73a14.3 14.3 0 01-8.06 4.4 10.27 10.27 0 01-1.47.1c-5.8 0-10.69-4.62-11.08-7.34-.46-3.48 5.22-6.12 11.09-6.94s12.05.17 12.54 3.65c.22 1.54-.96 3.94-3.01 6.1zM497.2 305.57v-.05c-2.93-8.79-10.54-15-20.42-16.46a46.57 46.57 0 00-16.3.91 146.46 146.46 0 01-25.11 3.29c22.46-37.95 40.75-81.22 51.28-122 17-65.88 7.91-95.89-2.71-109.45C455.83 25.91 414.8 6.61 365.31 6a210.36 210.36 0 00-61.67 8.64 230.57 230.57 0 00-36.06-3.3c-23.8-.38-44.83 4.81-62.81 15.48a284.9 284.9 0 00-44.37-11.11C117 8.58 82.06 14.13 56.5 32.19c-31 21.88-45.32 59.88-42.68 113C14.67 162 24.11 213.27 39 261.86c8.52 27.95 17.63 51.17 27 69 13.35 25.29 27.63 40.17 43.65 45.52 9 3 25.31 5.09 42.48-9.2a37.08 37.08 0 008.93 7.68 59.31 59.31 0 0016.82 7.14c21.53 5.39 41.71 4 58.93-3.51.1 3.06.18 6 .25 8.51.11 4.1.23 8.12.37 11.87 1 25.39 2.76 45.15 7.87 59 .29.76.67 1.95 1.06 3.15 2.55 7.82 6.83 20.91 17.69 31.17 11.26 10.56 24.87 13.81 37.33 13.81a84 84 0 0017.46-1.95c18.64-4 39.82-10.08 55.14-31.9 14.48-20.62 21.48-51.69 22.8-100.58.17-1.38.32-2.71.46-4l.31-2.58 3.41.3.88.06c19 .87 42.22-3.17 56.49-9.77 11.27-5.2 47.38-24.26 38.87-50.01zm-45.07 36.66c-11.31 5.24-29.36 8.56-45 8.56-7.48 0-14.42-.76-19.81-2.44-2.55 23.45-8 67.19-11.14 85.5-5.9 34.28-21.19 49.82-56.35 57.36a77.75 77.75 0 01-16.38 1.86c-33.69 0-44.36-26.68-48.72-37.59-5.36-13.34-7.21-57.09-6.84-101.5-12.16 11-27.36 16.67-44.65 16.67a91.71 91.71 0 01-22.3-2.93c-2.26-.55-21.74-5.78-21.49-18.24.25-11.41 16.51-14.76 22.63-16 21.53-4.43 22.92-6.2 29.61-14.69 1.59-2.07 3.22-4.07 4.88-6 0-.25-.07-.5-.07-.75a62.07 62.07 0 01-27.68-7.45q-19.82 21.18-38.46 43.49c-10.17 12.22-20 15.81-27.92 15.81a27.68 27.68 0 01-8.79-1.44C91.8 355.13 71 319.71 51.93 257.07 37.41 209.5 28.21 159.84 27.41 143.7 25 95.75 37.39 61.79 64.18 42.8c22.48-15.92 54-20.76 93.61-14.38a270 270 0 0148.93 12.83c16.7-11.39 36.86-17 60.2-16.6a155.48 155.48 0 0135.16 4.51c5.09-2.23 31.35-10.19 62.43-9.84 45.21.48 82.57 17.94 108.05 50.44 6.3 8.06 9.36 21.27 9.09 39.24-.26 16.37-3.34 36.46-8.93 58.09-11.8 45.66-33.66 94.6-60.23 135.09 4 3 16.28 7.85 50.46.79 11.51-2.38 18.44-.29 20.59 6.23l.07.05c4.16 12.58-18.79 27.07-31.48 32.98zm-227.56-64.06l1-2.78c1.34-3.58 2.92-7.06 4.57-10.74 8-17.87 18.05-40.12 6.52-93.49-2.24-10.3-7.61-16.3-16.4-18.31-19.26-4.42-46.26 10.07-52.13 15.25.05 1.16.14 2.64.24 4.33.71 12.08 2 34.56-1.56 60.37-2.58 18.44 3.05 36.43 15.45 49.36C192 292.33 204.81 298 218 298a182 182 0 016.57-19.83zm-18.15-107.78c-.91-1.19-2.37-3.52-2.08-5.62a4.28 4.28 0 01.61-1.65 4.47 4.47 0 011.21-1.28c2.33-1.71 6.94-2.42 12-1.71 6.21.87 12.68 3.82 12.07 8.26-.54 3.54-6.1 8.34-12.26 8.34a12.17 12.17 0 01-1.6-.11 15.68 15.68 0 01-9.95-6.23zm198.76 143.87c-.67-.45-1.33-.93-1.95-1.44-.92.34-2 .61-2.93.9-6.46 1.81-12.57 3.53-11.78 19.95 1.7 1.39 8.94 3.64 23.14 3 12.86-.61 26.4-3.43 34.49-7.18A77.58 77.58 0 00466 316.61l-.31.07c-28.69 5.92-49.08 5.11-60.51-2.42zm-13.47-18.53c-4.48-5.6-10.63-13.27-15.37-24.77-.73-1.76-3-5.89-5.71-10.69-14.54-26.12-44.87-80.47-25.28-108.48 9-12.87 26.77-18 52.89-15.37C394.76 126.06 386.06 107 370 88c-18.65-22-51.7-48.48-103.24-49.33-26.19-.4-47.67 7.59-63.78 23.85-25.61 25.82-32.45 66.63-34.26 88.48 1.19-.67 2.47-1.35 3.86-2.06 6.49-3.29 19.51-9 33.73-10.5 23.73-2.42 39.37 8.12 44.06 29.8 12.52 57.86 1 83.48-7.43 102.18-1.55 3.47-3 6.74-4.2 9.89l-1 2.81a169.32 169.32 0 00-6.11 18.26c6.2-1.6 11.36.54 14.17 1.71 7.07 2.93 13 10 15.39 18.45a30.31 30.31 0 01.86 4.11 7 7 0 01.3 2.22c-1.62 58.11.68 110.72 5.34 122.38 7.19 18.08 18.2 33.89 49.18 27.25 29.87-6.41 40.51-17.17 45.49-46.05 3.78-21.86 11.2-83.75 12.25-97-1.29-26.34 12.92-31.61 20.83-33.89-1.03-1.44-2.37-3.11-3.73-4.83zM240.39 316c-3.8-1.57-5.89-2.44-10.47 2.69-3.07 3.44-5.3 6.25-7.25 8.74-8.55 10.85-12.45 14.53-37.79 19.73a46 46 0 00-9.94 2.93 31.23 31.23 0 009.34 4c18.67 4.67 44.67 5 62.52-19.93 2.11-2.93 1.46-6.79.89-8.79-1.22-4.21-4.22-8.07-7.3-9.37z" fill="#458cc6"/></svg>