<svg width="48" height="48" viewBox="0 0 48 48" fill="none" xmlns="http://www.w3.org/2000/svg"><mask id="a" style="mask-type:luminance" maskUnits="userSpaceOnUse" x="9" y="3" width="30" height="26"><path d="M38.199 4H9.867v24.28H38.2V4z" fill="#fff"/></mask><g mask="url(#a)"><path d="M37.084 22.72c-1.509.789-9.342 4.01-11.029 4.895-1.687.884-2.59.86-3.91.228-1.32-.63-9.627-4.009-11.132-4.729-.759-.356-1.146-.66-1.146-.944v-2.866s10.851-2.354 12.602-2.99c1.752-.634 2.357-.65 3.845-.104s10.408 2.156 11.88 2.69v2.825c0 .294-.338.58-1.11.993v.002z" fill="#A32422"/><path d="M37.086 19.867c-1.51.786-9.342 4.008-11.03 4.877-1.686.868-2.59.86-3.91.232-1.32-.63-9.626-4.008-11.131-4.722-1.506-.714-1.535-1.213-.058-1.79 1.476-.576 9.763-3.821 11.514-4.46 1.752-.638 2.357-.652 3.845-.104s9.288 3.646 10.753 4.185c1.464.54 1.532.983.017 1.767v.015z" fill="#DC382C"/><path d="M37.084 18.052c-1.509.788-9.342 4.008-11.029 4.876-1.687.87-2.583.861-3.903.229-1.32-.633-9.634-3.992-11.14-4.71-.758-.36-1.145-.662-1.145-.948v-2.856s10.851-2.363 12.602-2.997c1.752-.635 2.357-.653 3.845-.1 1.488.554 10.408 2.149 11.88 2.687v2.825c0 .294-.338.588-1.11.994z" fill="#A32422"/><path d="M37.085 15.187c-1.509.79-9.341 4.009-11.029 4.878-1.687.868-2.59.863-3.91.232-1.32-.63-9.627-3.996-11.132-4.716-1.506-.72-1.533-1.209-.058-1.786 1.474-.576 9.764-3.829 11.515-4.45 1.75-.621 2.357-.66 3.845-.12s9.287 3.665 10.752 4.19c1.465.524 1.532.984.017 1.766v.006z" fill="#DC382C"/><path d="M37.084 13.21c-1.509.789-9.342 4.01-11.029 4.877-1.687.867-2.583.861-3.903.232-1.32-.628-9.634-3.997-11.14-4.715-.758-.356-1.145-.66-1.145-.946V9.792S20.718 7.437 22.47 6.804c1.752-.632 2.357-.652 3.845-.106s10.404 2.156 11.877 2.694v2.825c.004.297-.335.588-1.107.992z" fill="#A32422"/><path d="M37.086 10.347c-1.51.774-9.342 4.015-11.03 4.876-1.686.861-2.59.86-3.91.232-1.32-.626-9.626-3.999-11.131-4.715-1.506-.716-1.535-1.213-.058-1.79 1.476-.576 9.763-3.827 11.514-4.458 1.752-.63 2.357-.65 3.845-.104 1.488.545 9.288 3.647 10.753 4.185 1.464.538 1.532.985.017 1.768v.006z" fill="#DC382C"/></g><path d="M24.475 6.277l1.87-.613-.508 1.211 1.903.712-2.452.256-.552 1.323-.886-1.476-2.834-.256 2.117-.762-.637-1.173 1.98.778zm.123 7.726l-4.582-1.902 6.563-1.008-1.981 2.91zm-6.354-5.681c1.935 0 3.508.61 3.508 1.355s-1.576 1.354-3.508 1.354c-1.93 0-3.51-.61-3.51-1.354 0-.745 1.574-1.355 3.51-1.355z" fill="#fff"/><path d="M30.64 7.949l3.884 1.534-3.88 1.535-.003-3.07z" fill="#741113"/><path d="M30.643 7.949l.004 3.069-.422.164-3.881-1.534 4.3-1.7z" fill="#AC2724"/><path d="M10.76 34.203a1.3 1.3 0 01.967.311.967.967 0 01.294.734 1.04 1.04 0 01-.294.733.95.95 0 01-.733.316c-1.207.106-2.882 1.309-2.883 2.944v3.712A1.078 1.078 0 017.062 44a.954.954 0 01-.749-.324A1.041 1.041 0 016 42.943v-7.74a1.035 1.035 0 01.313-.734c.23-.165.505-.257.788-.262a1.07 1.07 0 011.046 1.045l-.005.102a3.361 3.361 0 011.206-.84 3.867 3.867 0 011.412-.311zm22.017-.053a.943.943 0 01.734.316 1.062 1.062 0 01.3.774v7.768a.88.88 0 01-.32.63 1.033 1.033 0 01-1.134.239.95.95 0 01-.332-.24 1.021 1.021 0 01-.315-.733v-7.656a1.042 1.042 0 01.315-.775l.094-.078a1.023 1.023 0 01.658-.245zm-16.593-.052a4.257 4.257 0 013.239 1.312 4.796 4.796 0 011.473 3.239v.103l-.04.007c.002.253-.091.498-.26.686-.201.186-.46.297-.734.313H13.67c.059.492.298.944.672 1.269a2.8 2.8 0 001.834.885 2.725 2.725 0 002.043-.473 1.07 1.07 0 01.788-.315.9.9 0 01.678.263.855.855 0 01.051 1.207c-.015.018-.033.034-.05.051a4.736 4.736 0 01-3.404 1.258 4.452 4.452 0 01-3.4-1.467 5.163 5.163 0 01-1.412-3.464 4.703 4.703 0 011.413-3.46 4.371 4.371 0 013.3-1.414zm13.436-3.88a.954.954 0 01.733.316 1.038 1.038 0 01.316.733v11.58h.046a1.077 1.077 0 01-1.047 1.048 1.131 1.131 0 01-1.049-.84 4.495 4.495 0 01-2.676.84 4.56 4.56 0 01-3.353-1.415 4.67 4.67 0 01-1.364-3.46 4.983 4.983 0 011.364-3.457 4.616 4.616 0 013.353-1.473 4.328 4.328 0 012.618.84v-3.663a.953.953 0 01.316-.733 1.038 1.038 0 01.743-.316zm8.736 3.863c.883.054 1.835.418 2.881 1.101l.085.076c.173.146.295.345.343.568.042.266.006.54-.105.786-.15.213-.374.362-.628.418a1.085 1.085 0 01-.788-.157c-.733-.47-1.306-.732-1.78-.732a1.693 1.693 0 00-1.16.364c-.21.159-.314.263-.314.368a.389.389 0 00.051.263c.06.065.131.117.21.157.427.268.913.43 1.416.47a7.303 7.303 0 011.885.58c.528.221.97.61 1.257 1.104a2.604 2.604 0 01-.785 3.612 4.217 4.217 0 01-2.516.785c-1.205 0-2.357-.47-3.458-1.354a1.12 1.12 0 01-.367-.683 1.006 1.006 0 011.625-.883 3.04 3.04 0 002.148.838c.465.016.922-.112 1.31-.367.209-.209.368-.366.368-.524 0-.159 0-.21-.053-.262 0-.054-.106-.157-.262-.209a3.9 3.9 0 00-1.574-.553 5.47 5.47 0 01-1.78-.58 3.204 3.204 0 01-1.258-1.097 2.44 2.44 0 01-.311-1.206 2.577 2.577 0 011.151-2.15c.71-.484 1.55-.74 2.41-.733zm-12.352 2.163a2.256 2.256 0 00-1.835.84 2.787 2.787 0 000 3.87 2.418 2.418 0 001.835.836l.26-.002a2.32 2.32 0 001.572-.826 2.787 2.787 0 000-3.87 2.516 2.516 0 00-1.832-.848zm-10.054-.246a2.748 2.748 0 00-1.523.668 2.55 2.55 0 00-.838 1.354h5.5a2.398 2.398 0 00-.944-1.308 3.347 3.347 0 00-1.934-.737l-.26.023zm16.807-5.783a.97.97 0 01.66.247l.146.144a.947.947 0 01.248.661l.002.422a1.065 1.065 0 01-.323.797.9.9 0 01-.733.262.943.943 0 01-.732-.312 1.052 1.052 0 01-.315-.785v-.388a1.02 1.02 0 01.315-.733 1.03 1.03 0 01.732-.316z" fill="#3279BE"/></svg>