<svg data-name="Layer 1" xmlns="http://www.w3.org/2000/svg" viewBox="0 0 512 512"><defs><linearGradient id="a" x1="139.85" y1="337.31" x2="139.85" y2="206.19" gradientTransform="matrix(1 0 0 -1 0 514)" gradientUnits="userSpaceOnUse"><stop offset="0" stop-color="#00b8f1"/><stop offset=".22" stop-color="#06a5e5"/><stop offset=".79" stop-color="#1870c5"/><stop offset="1" stop-color="#1d61bc"/></linearGradient></defs><path d="M6 189.8v132.4h135.26l132.43-132.39H6z" fill="url(#a)"/><path d="M166.37 253.16h-5.8v-21.22h5.8c7.75 0 13.92 2.56 13.92 10.47 0 8.18-6.17 10.75-13.92 10.75zm-62.43 15.16a24 24 0 01-8.43-1.49l8.35-26.36h.14l8.18 26.43a24.79 24.79 0 01-8.27 1.42zm60.91-53.62h-26.36v62.68l-23-62.68H92.67L73 267.07c-2.08-13.2-15.76-17.76-26.52-21.18-7.09-2.28-14.63-5.62-14.54-9.34.06-3 4.06-5.85 12-5.43 5.3.27 10 .7 19.28 5.19l9.15-15.94a71.21 71.21 0 00-29.84-7.07h-.06c-11.22 0-20.53 3.65-26.35 9.64a22.21 22.21 0 00-6.31 15.39c-.15 8.08 2.83 13.81 9 18.39 5.27 3.86 12 6.34 18 8.2 7.32 2.26 13.29 4.23 13.23 8.43a6.13 6.13 0 01-1.71 4.09c-1.83 1.9-4.62 2.57-8.5 2.69-7.46.14-13-1-21.82-6.23L9.74 290a60.81 60.81 0 0029.82 8h1.37c9.25-.18 16.71-2.82 22.68-7.61l1-.86-2.63 7.08h24l4-12.21a45.84 45.84 0 0027.81.11l3.86 12.1h39v-25.3h8.55c20.53 0 32.75-10.46 32.75-28 0-19.55-11.83-28.52-37-28.52" fill="#fff" fill-rule="evenodd"/><path d="M307.42 298.21H295v-33.47c0-3.6.16-7.6.47-12h-.31a57.53 57.53 0 01-1.75 7.41l-13.1 38H270l-13.33-37.63a76.84 76.84 0 01-1.75-7.8h-.35c.33 5.51.51 10.34.51 14.5v30.93h-11.37v-55.87h18.44l11.43 33.17a44.75 44.75 0 012 8h.24a80 80 0 012.21-8.06l11.43-33.09h18zm44.73 0h-11.66v-5.74h-.16a13 13 0 01-11.9 6.71c-3.86 0-6.92-1.09-9.13-3.29a11.83 11.83 0 01-3.35-8.8c0-7.74 4.59-12.23 13.79-13.41l10.82-1.44c0-4.38-2.35-6.55-7.09-6.55a24.26 24.26 0 00-13.57 4.24v-9.28a30.77 30.77 0 017-2.34 37.3 37.3 0 018.12-1q17.08 0 17.09 17zM340.56 282v-2.69l-7.25.94q-6 .78-6 5.42a4.53 4.53 0 001.45 3.46 5.71 5.71 0 004 1.34 7.29 7.29 0 005.66-2.41 8.64 8.64 0 002.14-6.06zm59.91-23.73l-13.18 19.35 13.1 20.59H386.2l-5.77-10.77a37.5 37.5 0 01-1.67-3.62h-.18a24.36 24.36 0 01-1.59 3.5l-5.81 10.89H357l13.49-19.89-12.68-20.05h14.27l5.7 11.2a24.61 24.61 0 011.61 3.74h.15a25.33 25.33 0 011.68-3.82l5.81-11.12z" fill="#03aeeb"/><path d="M407.21 298.21v-55.93H427q29.81 0 29.8 27.27 0 13-8.13 20.86t-21.67 7.8zm12.6-45.67V288h6.24q8.19 0 12.85-4.9t4.66-13.38c0-5.32-1.53-9.52-4.62-12.57s-7.41-4.59-13-4.59zM464 298.21v-55.93h20.35q9.36 0 14.4 3.44a11.05 11.05 0 015 9.67 11.46 11.46 0 01-3.05 7.92 16 16 0 01-7.8 4.69v.16a15.43 15.43 0 019.52 4.41 12.26 12.26 0 013.58 8.92 15 15 0 01-5.5 12.19q-5.5 4.51-15 4.51zm12.59-46.64v13.25h5.54a9.2 9.2 0 006.14-1.88 6.45 6.45 0 002.24-5.21q0-6.17-9.2-6.16zm0 22.61v14.76h6.82a10.48 10.48 0 006.85-2.05 6.74 6.74 0 002.48-5.54 6.23 6.23 0 00-2.45-5.24 10.63 10.63 0 00-6.8-1.93z" fill="#f5b501"/></svg>