<svg data-name="Layer 1" xmlns="http://www.w3.org/2000/svg" viewBox="0 0 512 512"><defs><linearGradient id="a" x1="182.69" y1="356.42" x2="182.69" y2="186" gradientTransform="matrix(1 0 0 -1 0 514)" gradientUnits="userSpaceOnUse"><stop offset="0" stop-color="#00b8f1"/><stop offset=".22" stop-color="#06a5e5"/><stop offset=".79" stop-color="#1870c5"/><stop offset="1" stop-color="#1d61bc"/></linearGradient></defs><path d="M6 343.4V168.6h353.39l-174.8 174.8zm204.05-91.16h7.71c10.21 0 18.36-3.39 18.36-14.19 0-10.46-8.15-13.83-18.36-13.83h-7.71zm-85.89 18a31.92 31.92 0 0011.15 2 32.28 32.28 0 0010.92-1.88l-10.8-34.9h-.24zm56.78-68.82h34.78v.09c33.26 0 48.87 11.84 48.87 37.67 0 23.2-16.08 37-43.23 37h-11.24v33.42h-51.53l-5.1-16a60.5 60.5 0 01-36.7-.15l-5.34 16.13H79.86l3.48-9.35-1.27 1.12c-7.88 6.33-17.74 9.8-29.94 10h-1.82a80.22 80.22 0 01-39.37-10.48l10.74-21.29c11.65 6.88 19 8.41 28.82 8.22 5.1-.11 8.8-1 11.21-3.54a8.07 8.07 0 002.29-5.35c.1-5.55-7.82-8.15-17.45-11.13-7.83-2.45-16.71-5.73-23.65-10.82-8.22-6.1-12.14-13.66-12-24.31a29.48 29.48 0 018.33-20.3c7.66-7.91 20-12.72 34.79-12.72h.08c12.69 0 28.2 3.62 39.39 9.33L81.41 230C69.15 224.13 63 223.52 56 223.16c-10.4-.54-15.66 3.16-15.75 7.17 0 4.9 9.91 9.32 19.27 12.34 14.19 4.48 32.25 10.51 35 27.94l26-69.17h30.12l30.39 82.71z" fill="url(#a)" fill-rule="evenodd"/><path d="M486.29 261.54h-14.8L451.32 317h13.52l3.9-12.35h19.71l3.94 12.35H506zm-14.88 33.51l6-18.78a22.1 22.1 0 001-4.84h.31a24.33 24.33 0 00.92 5l5.95 18.62zm-157.56-33.51v22.11h-23v-22.11h-12.4V317h12.44v-22.61h23V317h12.52v-55.42zm39.41 0L333.09 317h13.6l3.9-12.35h19.73l3.94 12.35h13.56l-19.73-55.42zm0 33.51l6-18.78a20.48 20.48 0 001-4.84h.31a25 25 0 00.93 5l6 18.62zm79.61-2.86a58.63 58.63 0 00.31 7.61H433q-1.28-2.24-2.77-4.52l-22-33.74h-13.5V317h11.79v-30.49q0-6-.31-9h.16a50 50 0 002.78 4.59L432 317h12.59v-55.42h-11.75z" fill="#03aeeb"/></svg>