<svg data-name="Layer 1" xmlns="http://www.w3.org/2000/svg" viewBox="0 0 512 512"><path d="M347.45 81.3v-48h-48.6a72.27 72.27 0 0148.6 48zm-9 22.8h-33.57v32.4c17.4-1.2 31.18-15.5 33.58-32.4zm-49.7 0h-7.29l.11 7.21a20.49 20.49 0 017.19-7.21zm-7.29 33.54v7.27h7.29a20.8 20.8 0 01-7.28-7.27zm0-95.94v57.35h57c-.59-29.96-26.99-56.74-56.99-57.35zm7.1 83.3c0 5.54 5.18 11.5 10.72 11.5v-24.6s-10.52 2.31-10.71 13.1zm30.69 19.91h28.28l-.09-28.8a51.1 51.1 0 01-28.19 28.8zm28.28 172.62V149.69h-174c.02 90.6 82.47 168.59 174.01 167.84zm-.68 11.56h-5.11c1.78.04 3.49.04 5.12 0zM9.19 437.5zm251.58 5.62c0-16.95-13.81-26-29.29-28.23v-.33c8.24-2 22.22-9.26 22.22-24.07 0-8.41-3.21-14.64-8.76-18.51s-13.29-5.9-24.57-5.9H145v2.36l7.06 1.18c6.18 1.18 7.59 3.36 4.89 9.93-4.2 10.43-15 30.81-21.22 42.42-7.73-12.83-22.7-39.91-24.22-43.62-2.53-6.23-1.86-7.4 2.18-8.25l7.92-1.68v-2.36H84.46c-1.65-12.64-2.91-21-3.74-28.38-6.44-1.5-13.52-4.94-25.76-4.94-27.96.02-43.62 18.48-43.62 39.26 0 24.73 27 34.56 35.41 38.85 11.59 6 29 12.88 29 34.56 0 17.81-10.52 27.47-26.83 27.47-23.61 0-35.62-25.54-39.7-35.41l-3.2.84c2.12 11.38 4.48 26.63 6.41 32.21a93.29 93.29 0 0011.37 4.5 82 82 0 0020.2 3.69c27.05-.44 47.21-19.11 47.21-43.15 0-25.53-20.64-34.77-36.44-41.85-16.31-7.52-28.55-15.24-28.55-31.12 0-13.53 7.52-24.69 24-24.69 18.79 0 25.6 14.63 30.27 27.27v-.05s.92 2.57 1.2 3.5l1.55.12c8.34 1.74 9.46 3.59 16.14 15.36 10.44 18.5 16.66 30.13 20.7 37 3.7 6.24 4.38 8.25 4.38 10.95v19c0 18.18-1.28 20.2-16.82 22v2.36h48v-2.32c-16.17-1.85-17.51-3.86-17.51-22.06v-20.86c0-2.73.17-4.54 3.37-10.43 7.74-14.47 13.8-26.08 20-35.68 6.78-10.4 8.4-13.42 17.57-15.28 10.86 1.81 11.75 4.73 11.92 21.66V451c0 18.19-1.39 20.19-15.5 22v2.36H213c12.95 0 23.73-1.7 32.13-6.42 9.75-5.46 15.64-13.87 15.64-25.82zM204 374.84c0-3.36.51-4 1.52-4.54 1.34-.68 3.7-.85 9.25-.85 19.87 0 24.07 12.79 24.07 22.89 0 14.65-8.08 22-24.23 22H204zm14.48 97c-12.29 0-14.48-3.21-14.48-16.5v-37.57h9.77c17.67 0 31 9.12 31 27.63s-11.94 26.39-26.25 26.39zm284.91-23.25c-3.87 7.75-6.91 13.47-9.77 16.5-3.7 4-11.61 6.74-21.21 6.74-7.9 0-14 0-17.5-2.7-2.83-2.19-3.85-6.22-3.85-15.82V421h17c7.24 0 10.93.48 13.29 2.34s3.38 5.38 5.06 11.79H489v-33.36h-2.57c-3.36 12.43-3.88 14.11-18.35 14.11h-17v-41.06c0-4.71.35-5 5.06-5h11.11c12.79 0 18 3.24 20.37 5.89s5.21 7.07 7.57 15.48l2.56-.49c-.84-9.43-1.69-21.73-1.86-24.59h-73v2.37c13.45 1.84 14.8 3.87 14.8 22.05v60.58c0 18.2-1.34 20.2-16.5 22.05v2.36h79c1.35-4.55 5.05-21.72 5.89-26.43zm-330-303.63h102.52V41.68c-54.58 0-102.45 49.21-102.45 103.23zm220.32 266.38c-12.79-5.87-22.39-11.92-22.39-24.38 0-10.61 5.89-19.36 18.85-19.36 15.61 0 20.66 13 24.37 23.22l2.57-.5c-1.33-10.26-2.35-17-3-22.88-5.06-1.16-10.62-3.85-20.21-3.85-21.88 0-34.17 14.45-34.17 30.79 0 19.34 21.21 27.09 27.78 30.45 9.08 4.71 22.72 10.1 22.72 27.1 0 14-8.21 21.55-21 21.55-18.51 0-27.94-20.08-31.15-27.77l-2.57.68c1.68 8.91 3.54 20.87 5.05 25.23a72 72 0 008.92 3.54 63.06 63.06 0 0015.8 2.84c21.22-.34 37-15 37-33.84.04-19.99-16.13-27.27-28.57-32.82zm-141.06-378h-88.19v89.36c9-43.21 44.39-80.39 88.19-89.41zm-88.19 142.5v153.3h177.29c-50.07-1.26-155.84-38.03-177.29-153.35zm178.75 279.63c-6.72-17.18-14.12-38.55-22.37-59.74l-12.46-32.15-2.18.66-34.51 88.7c-6.39 16.35-8.42 17.5-19.35 20.2v2.36h36v-2.39l-3.53-.83c-9.09-2-10.64-4-8.08-14.11 1.68-6.73 5.89-19.86 7.91-25.09h36c4.88 13 9.75 26.09 10.93 30.13 1.53 5.22 1 6.91-5 8.42L321 473.1v2.36h40.17v-2.32c-10.38-2.52-12.56-3.86-17.96-17.67zM286.33 428l16-42.92h.34L318.82 428z" fill="#7178ef"/></svg>