<svg data-name="b5a42075-ee51-4ffb-b361-44ca3dd6c32b" xmlns="http://www.w3.org/2000/svg" viewBox="0 0 512 512"><path d="M44.89 351.82h24.69l7 22h15.27L66.58 296.1H48.47l-24.92 77.75H38.2zm8.31-29.88c1.38-4.62 2.54-10 3.69-14.54h.23c1.15 4.5 2.42 9.81 3.92 14.54l6.12 19.15h-20zm97.85-77.16c40.48 5.68 81.11 11.2 121.28 17.17 6 1 8-.32 8-6.65v-53.91c0-18-.32-35.83.33-53.92 0-6-1.63-8.58-8.26-8.58-40.64 0-81.45 0-122.89-.32-6.33 0-8.26 1.94-8.26 8.26.33 29 .66 57.8 0 86.46-.06 7.94 2.51 10.53 9.8 11.49zM107.88 480.5h14.3v-56.18h-14.3zm93.9-186.25a7.58 7.58 0 00-8 7.73 7.46 7.46 0 007.85 7.62c5 0 8.07-3.35 8.07-7.62a7.57 7.57 0 00-7.92-7.73zM83.65 411.17c-7.15-6-17.18-9-31.72-9a143 143 0 00-22.61 1.62v76.48a154.15 154.15 0 0019.15 1c15.11 0 27.45-3.57 35.18-10.61C91 464 95.77 453.63 95.77 439.78c0-13.27-4.62-22.5-12.12-28.61zM51.35 470a52.23 52.23 0 01-7.84-.35v-55.6a45.6 45.6 0 019.69-.8c17.76 0 27.69 9.8 27.57 27 0 19.75-10.96 29.87-29.42 29.75zm198.88-123.83c-1.5 5.07-2.77 9.46-3.8 14.07h-.35c-1-4.61-2.19-9.11-3.81-14.07l-9.11-28.5h-15.34l20.88 56.18h14l21.45-56.18h-15zm-55.6 27.68h14.3v-56.18h-14.3zM31.46 128.53h45c14.74 0 30-.32 45-.32 5.66 0 8.26-1 8.26-7.28V34.79c0-5.68-.65-8-7.62-7q-45.22 7.32-90.64 13.14c-6 1-7.61 2.92-7.61 8.59.31 23.8.31 47.43 0 71.08 0 5.99 1.94 7.93 7.61 7.93zm.05 99.58c30.1 4.16 60.39 8.64 90.66 13.12 4.71.48 7 0 7-5.2v-90c0-5-2.1-6.64-7-6.64H76.49c-15.23 0-30 0-45.33-.48-6 0-7.61 1.65-7.61 7.62.33 24.45.33 48.4 0 72.37 0 6.22 1.99 8.25 7.96 9.21zm118.79-99.57c20.4-.33 40.81 0 61.21 0s40.81-.33 60.87 0c5.67 0 8-1.64 7.61-7.61-.32-9.56 0-19.11 0-28.67.33-25.95 0-52.3 0-78.2 0-4.06 1.31-8.95-6-8-41.81 6.31-83.61 12.16-125.42 18.14-5.35 1-7.29 2.9-7.29 8.58.33 29 .33 57.79 0 87.1.07 7.36 2.72 8.66 9.02 8.66zm158.31 235.74c-9 0-17-4.39-17.31-14.54h37.61a35 35 0 00.46-6c0-12.34-5.88-27.34-24.22-27.34-18 0-27.46 14.65-27.46 30.23 0 17.19 10.73 28.49 29 28.49a52.75 52.75 0 0019.61-3.57l-2.08-9.81a42.33 42.33 0 01-15.61 2.54zm-4.27-38.19c9.46 0 11.77 8.54 11.65 13.73H291.3c.58-5.77 4.27-13.73 13.04-13.73zm51.45 97c-17 0-29.07 11.31-29.07 29.77 0 18 12.22 28.95 28.15 28.95 14.3 0 28.84-9.23 28.84-29.88 0-17.11-11.19-28.88-27.92-28.88zm-.46 48.46c-8.66 0-14-8.19-14-19 0-9.34 4-19 14.07-19 9.69 0 13.62 10 13.62 18.8.04 11.2-5.62 19.16-13.69 19.16zm117.89-47.19l-8.76 30c-1 3.69-2.08 7.84-3 11.07h-.35c-.81-3.23-2-7.5-3.12-11l-10.15-30.11h-15.57l20.53 51.57a5.91 5.91 0 01.81 2.77 5.8 5.8 0 01-.92 2.54 24.81 24.81 0 01-7.73 8.88 24.19 24.19 0 01-8.31 3.92l3.23 12a28.5 28.5 0 0014.88-7.27c6.7-5.77 11.89-15.11 19.62-36.11l14.07-38.3zM115 400.9a7.58 7.58 0 00-8 7.73 7.45 7.45 0 007.84 7.62c5 0 8.08-3.35 8.08-7.62a7.58 7.58 0 00-7.92-7.73zm293.13 34.15h-.46l-.46-10.73h-12.32c.35 5.08.47 10.5.47 18.11v38.07h14.19v-29.07a24.45 24.45 0 01.46-4.38c1.27-6.35 5.88-10.73 12.69-10.73a19.73 19.73 0 014.15.46V423.4a14.92 14.92 0 00-3.35-.35c-5.99 0-12.57 4.04-15.34 12zM306.76 409.9l-13.84 4v10.38h-8.08v10.62h8.08v26.41c0 7.39 1.38 12.46 4.38 15.69 2.65 2.89 7 4.73 12.23 4.73a30.57 30.57 0 0010.27-1.5l-.24-10.84a17.5 17.5 0 01-5.53.69c-5.42 0-7.27-3.57-7.27-10.38v-24.8h13.5v-10.58h-13.5zM140 361.62a27.63 27.63 0 01-11.19 2.2c-9.69 0-17.19-6.58-17.19-18.12-.11-10.26 6.35-18.22 17.19-18.22a25 25 0 0110.73 2.19l2.46-10.62a35.42 35.42 0 00-13.73-2.65c-19.73 0-31.26 13.15-31.26 30 0 17.42 11.42 28.72 28.95 28.72a40.58 40.58 0 0015.92-3zm10.27 73.43h-.47l-.46-10.73H137c.34 5.08.46 10.5.46 18.11v38.07h14.14v-29.07a24.45 24.45 0 01.46-4.38c1.27-6.35 5.88-10.73 12.69-10.73a19.73 19.73 0 014.15.46V423.4a14.89 14.89 0 00-3.34-.35c-6 0-12.56 4.04-15.34 12zm114.89-.92a24.94 24.94 0 0110.73 2.19l2.54-10.61a35.37 35.37 0 00-13.73-2.66c-19.72 0-31.26 13.15-31.26 30 0 17.42 11.42 28.72 29 28.72a40.62 40.62 0 0015.92-3l-2-10.49a27.84 27.84 0 01-11.2 2.19c-9.69 0-17.18-6.58-17.18-18.11-.17-10.27 6.29-18.23 17.13-18.23zm-63.79-11.08c-18 0-27.46 14.65-27.46 30.23 0 17.19 10.73 28.49 29 28.49a52.67 52.67 0 0019.61-3.57l-2.07-9.81a42.14 42.14 0 01-15.58 2.54c-9 0-17-4.38-17.3-14.54h37.61a35 35 0 00.46-6c-.09-12.34-5.98-27.34-24.32-27.34zm-13.84 23.42c.57-5.77 4.27-13.73 13-13.73 9.46 0 11.77 8.54 11.66 13.73zm-4.27-83.69a17.57 17.57 0 01-5.54.69c-5.42 0-7.27-3.58-7.27-10.38v-24.81h13.5v-10.61H170.4v-14.42l-13.84 4v10.38h-8.08v10.61h8.08v26.46c0 7.39 1.38 12.46 4.38 15.69 2.66 2.89 7 4.73 12.23 4.73a30.57 30.57 0 0010.27-1.5z" fill="#34a6de"/></svg>