<svg data-name="Layer 1" xmlns="http://www.w3.org/2000/svg" viewBox="0 0 512 512"><path d="M20.22 179.83c17.45 2.94 30.21-1.53 34.78-20.63 1.61-6.84 6.93-8.76 13.94-8.59 17.21.44 34.45.11 51.63.19 3.27 0 6.55.47 10.51.77-2.3 9.79-4.28 18.23-6.37 27.15 3.51.41 5.68.86 7.86.95 23.19 1 23.47 1.1 30.73-20.35 2.25-6.68 5.73-8.92 12.49-8.72 13.42.39 26.79 0 40.16.13 23.05.18 20.23-2.67 19.93 19.45-.09 6.78 1.61 9.69 9 9.76 21.2.18 21.36.47 22.66-20.88.36-6 2.49-8.51 8.68-8.39 14.66.26 29.32 0 44 0 22.94 0 22.86 0 30.95 21.52 1 2.69 3.38 6.7 5.37 6.85 9.56.72 19.19.32 29.9.32-2.8-10.32-5-18.47-7.79-28.69 18.21 0 34.4-.28 50.57.06 28.57.62 21.72-5.18 35 22.1 1.41 2.89 5 6.31 7.89 6.58 9.1.85 18.32.32 27.69.32C473.3 88.62 373.36-3.62 234.82 6.81 170.5 11.69 115.18 38 69.87 84.15a239.18 239.18 0 00-57.93 95.64c3.86 0 6.13-.32 8.28.04zm408.44-60.71c-21.07 0-40.72.11-60.33-.17-2 0-4.88-2-5.89-3.82A258.84 258.84 0 00308 46.63c30.25-1.86 101.82 39.72 120.66 72.49zM268 56.51c24.65 17.34 43 36.55 58.24 62.57-19.33 0-35.83.16-52.28-.21-2-.05-5.68-2.92-5.68-4.54-.39-18.33-.28-36.65-.28-57.82zm-32 .1V81c0 10.48.28 21-.37 31.43-.14 2.33-3.58 6.29-5.6 6.36-15.19.55-30.41.3-48.34.3 13.63-25.85 30.76-45.02 54.36-62.48zm-41.79-10.14c-2.51 3.94-3.49 5.68-4.65 7.29-13.84 19.31-28 38.37-41.34 58-3.45 5.12-6.44 7.63-12.67 7.5-16.75-.35-33.53-.11-50.3-.11l-1-3.2C113 82.24 149.12 60 194.21 46.47zm299.57 281.14c-17.23-2.86-30.41.67-34.23 20.5-1.29 6.74-6.37 8.38-13 8.21-15.62-.41-31.24-.17-46.86-.17h-19.07c1.43-6 2.41-10.16 3.45-14.42s2.15-8.46 3.6-14.19h-11.34c-20.17 0-20.44-.11-26.73 19.31-2.23 6.83-5.5 9.68-12.92 9.48-18.15-.5-36.36-.18-54.5-.18-14.67 0-14.67 0-14.67-15a19.64 19.64 0 010-2.87c1.15-8.13-1.68-11.22-10.44-11-20.34.54-20.64.08-20.95 20.24-.1 6.93-2.86 8.77-9.16 8.64-13.38-.26-26.8-.06-40.16-.06-22.47 0-22.36 0-29.05-21.88-.8-2.62-4-6.17-6.38-6.37-8.74-.76-17.63-.3-27.69-.3 2.07 9.81 3.9 18.33 5.73 26.79-1.7.73-2.55 1.41-3.4 1.41-15.28.16-30.74-1.11-45.83.69-18.59 2.23-29.57-3.87-34.06-22.26-.65-2.67-4.89-6.05-7.75-6.32-8.76-.82-17.68-.29-26.74-.29 19.7 80.94 111.71 182.74 253.53 178.24 132.37-4.21 217.43-102.06 235.21-177.72-2.24-.09-4.44-.09-6.59-.48zM80.08 391l1-3.13c19.24 0 38.49-.1 57.74.19 1.69 0 4.12 2.05 4.89 3.75 11.71 25.68 26.81 49 46.66 69.21.34.33.16 1.16.39 3.38-45.14-13.34-81.56-37.85-110.68-73.4zm155.85 64c-26.87-17.23-43.45-39.3-58-67.28h18.41c10.84 0 21.68-.31 32.46.26 2.46.13 6.8 3.29 6.85 5.14.47 19.66.28 39.31.28 61.88zm32.82-2.08c-.52-5.92-1.12-9.87-1.14-13.81-.07-14 .14-28-.07-42-.09-6.75 2.07-9.74 9.39-9.55 16.79.46 33.61.14 53.34.14-16.27 27.3-34.79 48.62-61.52 65.24zm41 14.78l-1.73-2a72 72 0 015.15-5.62A221.57 221.57 0 00363 395.45c2.76-5.38 6-8.05 12.47-7.9 18.64.44 37.29.15 55.95.15.29 1.09.62 2.18.95 3.27-32.23 39.41-73.2 64.78-122.58 76.75z" fill="#2673bb"/><path d="M462.12 204.08L448 272.24a74.27 74.27 0 00-1.49 11.4h-.29a81.3 81.3 0 00-1.63-11l-16.74-68.62h-24.62l-18.52 67.73a56.42 56.42 0 00-2.07 12h-.42a81.78 81.78 0 00-1.36-11.68l-14.45-68h-25.14l26.85 102.13h26.57l17.37-65.52a69.6 69.6 0 001.86-11.47h.27a55.58 55.58 0 001.65 11.47l16.94 65.52h25.49l27-102.13zm-332 68.16a74.27 74.27 0 00-1.49 11.4h-.29a84.64 84.64 0 00-1.64-11l-16.74-68.62H85.31l-18.52 67.76a57.06 57.06 0 00-2.07 12h-.42a82 82 0 00-1.36-11.68l-14.45-68H23.35L50.2 306.18h26.57l17.38-65.52A70.66 70.66 0 0096 229.19h.28a54.9 54.9 0 001.64 11.47l17 65.52h25.56l27-102.13h-23.22zm158.9 0a74.29 74.29 0 00-1.5 11.4h-.29a82.93 82.93 0 00-1.63-11l-16.74-68.62h-24.65l-18.52 67.73a56.42 56.42 0 00-2.07 12h-.42a80.37 80.37 0 00-1.36-11.68l-14.39-68h-25.14l26.85 102.13h26.57l17.38-65.52a70.66 70.66 0 001.89-11.49h.28a54.9 54.9 0 001.64 11.47l16.95 65.52h25.52l27-102.13h-23.23z" fill="#8fc855"/></svg>