<svg xmlns="http://www.w3.org/2000/svg" viewBox="0 0 48 48"><path fill="currentColor" d="M24.02,28.01c1.1,0,2-.9,2-2v-8c0-1.1-.9-2-2-2s-2,.9-2,2v8c0,1.1.9,2,2,2ZM24.04,32.01h-.02c-1.1,0-1.99.9-1.99,2s.91,2,2.01,2,2-.9,2-2-.9-2-2-2ZM45.22,35.01L29.22,7.02c-.52-.92-1.28-1.69-2.2-2.23-1.83-1.07-4.21-1.07-6.04,0-.92.53-1.68,1.3-2.2,2.22L2.79,35.01c-.53.92-.81,1.96-.8,3.01,0,1.06.28,2.1.82,3.01.53.91,1.3,1.67,2.22,2.19.9.51,1.93.78,2.94.78h32.06c1.05,0,2.09-.28,3-.81.91-.53,1.67-1.29,2.19-2.2.53-.91.8-1.95.8-3,0-1.05-.28-2.08-.8-3ZM41.75,39.01c-.17.3-.43.56-.73.73-.3.18-.65.27-1,.27H8c-.34,0-.7-.09-1-.26-.31-.17-.56-.43-.74-.73-.18-.3-.27-.65-.27-1,0-.35.09-.7.27-1.01L22.26,8.99c.17-.31.43-.56.73-.74.31-.18.65-.27,1.01-.27s.7.09,1.01.27c.31.18.56.44.74.75l16,28s0,0,0,0c.17.3.27.65.27,1s-.09.69-.27,1Z"/></svg>