<svg xmlns="http://www.w3.org/2000/svg" viewBox="0 0 48 48"><path fill="currentColor" d="M30.8183 20.6894L25.2583 26.2494C24.9254 26.1609 24.5828 26.1138 24.2383 26.1094C23.1775 26.1094 22.1601 26.5308 21.4099 27.2809C20.6598 28.0311 20.2383 29.0485 20.2383 30.1094C20.2428 30.4538 20.2898 30.7964 20.3783 31.1294L18.8183 32.6894C18.6309 32.8753 18.4821 33.0965 18.3806 33.3402C18.279 33.5839 18.2267 33.8454 18.2267 34.1094C18.2267 34.3734 18.279 34.6348 18.3806 34.8785C18.4821 35.1222 18.6309 35.3434 18.8183 35.5294C19.0043 35.7168 19.2255 35.8656 19.4692 35.9672C19.7129 36.0687 19.9743 36.121 20.2383 36.121C20.5024 36.121 20.7638 36.0687 21.0075 35.9672C21.2512 35.8656 21.4724 35.7168 21.6583 35.5294L23.2183 33.9694C23.5513 34.0579 23.8939 34.1049 24.2383 34.1094C25.2992 34.1094 26.3166 33.6879 27.0668 32.9378C27.8169 32.1877 28.2383 31.1702 28.2383 30.1094C28.2339 29.7649 28.1869 29.4223 28.0983 29.0894L33.6583 23.5294C34.0349 23.1528 34.2465 22.642 34.2465 22.1094C34.2465 21.5768 34.0349 21.066 33.6583 20.6894C33.2817 20.3128 32.7709 20.1012 32.2383 20.1012C31.7057 20.1012 31.1949 20.3128 30.8183 20.6894V20.6894ZM24.2383 8.10938C21.6119 8.10938 19.0112 8.62669 16.5847 9.63178C14.1582 10.6369 11.9534 12.1101 10.0962 13.9672C6.34548 17.718 4.23834 22.805 4.23834 28.1094C4.22849 32.0705 5.40579 35.9437 7.61834 39.2294C7.91539 39.6696 8.37515 39.9739 8.8965 40.0751C9.41786 40.1764 9.95808 40.0664 10.3983 39.7694C10.8386 39.4723 11.1428 39.0126 11.2441 38.4912C11.3454 37.9699 11.2354 37.4296 10.9383 36.9894C9.32738 34.5805 8.4009 31.7792 8.25785 28.8848C8.1148 25.9904 8.76053 23.1115 10.1261 20.5554C11.4917 17.9994 13.5258 15.8622 16.0113 14.3721C18.4969 12.8821 21.3404 12.095 24.2383 12.095C27.1363 12.095 29.9798 12.8821 32.4653 14.3721C34.9509 15.8622 36.985 17.9994 38.3506 20.5554C39.7162 23.1115 40.3619 25.9904 40.2188 28.8848C40.0758 31.7792 39.1493 34.5805 37.5383 36.9894C37.3909 37.2073 37.288 37.4521 37.2353 37.7098C37.1827 37.9676 37.1814 38.2332 37.2316 38.4914C37.2817 38.7496 37.3823 38.9955 37.5276 39.2147C37.6729 39.434 37.8601 39.6225 38.0783 39.7694C38.4094 39.9919 38.7995 40.1103 39.1983 40.1094C39.5259 40.1099 39.8487 40.0299 40.1381 39.8764C40.4276 39.723 40.6749 39.5008 40.8583 39.2294C43.0709 35.9437 44.2482 32.0705 44.2383 28.1094C44.2383 22.805 42.1312 17.718 38.3805 13.9672C34.6298 10.2165 29.5427 8.10938 24.2383 8.10938V8.10938Z"/></svg>