<svg xmlns="http://www.w3.org/2000/svg" viewBox="0 0 48 48"><path fill="currentColor" d="M12.5859 8.58594C13.367 7.80496 14.633 7.80491 15.4141 8.58594L23.4141 16.5859C24.195 17.367 24.195 18.633 23.4141 19.4141C22.633 20.1951 21.367 20.195 20.5859 19.4141L16 14.8281V38C16 39.1045 15.1045 39.9999 14 40C12.8954 40 12 39.1046 12 38V14.8281L7.41406 19.4141C6.63304 20.1951 5.36699 20.195 4.58594 19.4141C3.80489 18.633 3.80489 17.367 4.58594 16.5859L12.5859 8.58594ZM34 8C35.1045 8.00008 36 8.89548 36 10V33.1719L40.5859 28.5859C41.367 27.805 42.633 27.8049 43.4141 28.5859C44.195 29.367 44.195 30.633 43.4141 31.4141L35.4141 39.4141C35.039 39.7891 34.5304 40 34 40C33.4696 40 32.961 39.7891 32.5859 39.4141L24.5859 31.4141C23.8049 30.633 23.8049 29.367 24.5859 28.5859C25.367 27.805 26.633 27.8049 27.4141 28.5859L32 33.1719V10C32 8.89543 32.8954 8 34 8Z"/></svg>