<svg xmlns="http://www.w3.org/2000/svg" width="513" height="513" viewBox="0 0 513 513"><path d="M239 7.074c-76.654 5.23-147.469 46.539-190.611 111.189C28.182 148.545 14.671 183.958 8.81 222c-2.077 13.476-1.763 58.638.506 72.964 6.463 40.803 22.854 79.436 47.851 112.785 8.994 11.999 29.25 32.96 41.324 42.764 36.144 29.345 79.672 47.995 127.509 54.63 14.256 1.978 50.737 1.703 65-.49 40.101-6.164 72.679-18.629 105-40.173 52.208-34.8 89.997-89.251 104.433-150.48 7.415-31.45 8.516-67.629 3.034-99.703-6.581-38.506-22.901-76.383-46.452-107.809-9.478-12.647-30.528-34.316-43.515-44.795-40.139-32.386-87.91-50.913-141-54.682-15.322-1.087-16.678-1.085-33.5.063m-5 106.4c-54.203 8.978-98.32 46.875-114.801 98.616-5.603 17.589-6.652 24.698-6.626 44.91.025 19.992 1.425 29.193 6.953 45.683 15.743 46.964 55.47 83.227 103.93 94.867 48.578 11.669 99.893-2.904 135.614-38.513 21.086-21.02 35.186-47.802 40.558-77.037 2.609-14.195 2.352-39.211-.543-53-10.38-49.433-42.313-88.082-88.165-106.708-17.423-7.078-29.249-9.386-50.42-9.84-12.462-.267-20.615.047-26.5 1.022" fill-rule="evenodd"/></svg>