<svg xmlns="http://www.w3.org/2000/svg" viewBox="0 0 48 48"><path fill="currentColor" d="M40.93,3.71H6.34c-1.49,0-2.7,1.21-2.7,2.7v34.59c0,1.49,1.21,2.7,2.7,2.7h34.59c1.49,0,2.7-1.21,2.7-2.7V6.41c0-1.49-1.21-2.7-2.7-2.7ZM40,40.07H7.27V7.35h32.73v32.73ZM21.37,28.14c-2.75,0-4.98,2.23-4.98,4.98s2.23,4.98,4.98,4.98,4.98-2.23,4.98-4.98-2.23-4.98-4.98-4.98ZM21.37,34.47c-.74,0-1.35-.6-1.35-1.35s.6-1.35,1.35-1.35,1.35.6,1.35,1.35-.6,1.35-1.35,1.35ZM25.72,19.34c2.75,0,4.98-2.23,4.98-4.98s-2.23-4.98-4.98-4.98-4.98,2.23-4.98,4.98,2.23,4.98,4.98,4.98ZM25.72,13.01c.74,0,1.35.6,1.35,1.35s-.6,1.35-1.35,1.35-1.35-.6-1.35-1.35.6-1.35,1.35-1.35ZM14.15,26.6c2.75,0,4.98-2.23,4.98-4.98s-2.23-4.98-4.98-4.98-4.98,2.23-4.98,4.98,2.23,4.98,4.98,4.98ZM14.15,20.27c.74,0,1.35.6,1.35,1.35s-.6,1.35-1.35,1.35-1.35-.6-1.35-1.35.6-1.35,1.35-1.35ZM27.97,25.88c0,2.75,2.23,4.98,4.98,4.98s4.98-2.23,4.98-4.98-2.23-4.98-4.98-4.98-4.98,2.23-4.98,4.98ZM32.95,24.53c.74,0,1.35.6,1.35,1.35s-.6,1.35-1.35,1.35-1.35-.6-1.35-1.35.6-1.35,1.35-1.35Z"/></svg>