<svg xmlns="http://www.w3.org/2000/svg" viewBox="0 0 48 48"><path fill="currentColor" d="M22,36.25H7.22l4.01-4.01c.68-.68.68-1.79,0-2.47s-1.79-.68-2.47,0l-7,7c-.08.08-.16.17-.22.27-.03.04-.05.08-.07.13-.03.06-.07.11-.09.17-.02.06-.04.12-.05.17-.02.05-.03.1-.05.15-.05.23-.05.46,0,.69.01.05.03.1.04.15.02.06.03.12.05.17.03.06.06.12.09.17.02.04.04.09.07.13.06.1.14.19.22.27l7,7c.34.34.79.51,1.24.51s.9-.17,1.24-.51c.68-.68.68-1.79,0-2.47l-4.01-4.01h14.78c.97,0,1.75-.78,1.75-1.75s-.78-1.75-1.75-1.75ZM46.72,9.66c-.01-.05-.03-.1-.05-.15-.02-.06-.03-.12-.05-.17-.03-.06-.06-.12-.09-.17-.02-.04-.04-.09-.07-.13-.06-.1-.14-.19-.22-.27l-7-7c-.68-.68-1.79-.68-2.47,0-.68.68-.68,1.79,0,2.47l4.01,4.01h-14.78c-.97,0-1.75.78-1.75,1.75s.78,1.75,1.75,1.75h14.78l-4.01,4.01c-.68.68-.68,1.79,0,2.47.34.34.79.51,1.24.51s.9-.17,1.24-.51l7-7c.08-.08.16-.17.22-.27.03-.04.05-.09.07-.13.03-.06.07-.11.09-.17.02-.06.04-.12.05-.17.02-.05.03-.1.05-.15.04-.23.04-.46,0-.69ZM24,12.93c-4.68,0-10.14,1.19-10.14,4.55v13.05c0,1.1.63,2.63,3.65,3.64,1.76.59,4.06.91,6.48.91s4.73-.32,6.48-.91c3.02-1,3.65-2.53,3.65-3.64v-13.05c0-3.35-5.46-4.55-10.14-4.55ZM24,16.43c3.04,0,5.2.57,6.19,1.05-.99.48-3.14,1.05-6.19,1.05s-5.2-.57-6.19-1.05c.99-.48,3.14-1.05,6.19-1.05ZM30.64,30.24c-.17.13-.56.37-1.26.6-2.78.93-7.97.93-10.75,0-.7-.23-1.09-.46-1.26-.6v-2.66c.05.02.1.03.15.05,1.76.59,4.06.91,6.48.91s4.73-.32,6.48-.91c.05-.02.1-.04.15-.05v2.66ZM30.64,23.72c-.17.13-.56.37-1.26.6-2.78.93-7.97.93-10.75,0-.7-.23-1.09-.46-1.26-.6v-2.64c1.92.67,4.37.95,6.64.95s4.71-.28,6.64-.95v2.64Z"/></svg>