<svg xmlns="http://www.w3.org/2000/svg" viewBox="0 0 48 48"><path fill="currentColor" d="M41.78,18.51c.5,0,.97-.2,1.33-.55,.35-.35,.55-.83,.55-1.33V5.54c0-.5-.2-.97-.55-1.33-.35-.35-.83-.55-1.33-.55h-10.98c-.5,0-.97,.2-1.33,.55-.35,.35-.55,.83-.55,1.33v3.11h-10.28v-3.11c0-.5-.2-.97-.55-1.33-.35-.35-.83-.55-1.33-.55H5.8c-.5,0-.97,.2-1.33,.55-.35,.35-.55,.83-.55,1.33v11.09c0,.5,.2,.97,.55,1.33,.35,.35,.83,.55,1.33,.55h3.41v10.32h-3.41c-.5,0-.97,.2-1.33,.55-.35,.35-.55,.83-.55,1.33v11.09c0,.5,.2,.97,.55,1.33,.35,.35,.83,.55,1.33,.55h10.98c.5,0,.97-.2,1.33-.55,.35-.35,.55-.83,.55-1.33v-3.11h10.28v3.11c0,.5,.2,.97,.55,1.33,.35,.35,.83,.55,1.33,.55h10.98c.5,0,.97-.2,1.33-.55,.35-.35,.55-.83,.55-1.33v-11.09c0-.5-.2-.97-.55-1.33-.35-.35-.83-.55-1.33-.55h-3.41v-10.32h3.41ZM7.67,14.75V7.42h7.22v7.34H7.67Zm7.22,25.16H7.67v-7.34h7.22v7.34Zm14.03-9.21v4.22h-10.28v-4.22c0-.5-.2-.97-.55-1.33-.35-.35-.83-.55-1.33-.55h-3.75v-10.32h3.75c.5,0,.97-.2,1.33-.55,.35-.35,.55-.83,.55-1.33v-4.22h10.28v4.22c0,.5,.2,.97,.55,1.33,.35,.35,.83,.55,1.33,.55h3.75v10.32h-3.75c-.5,0-.97,.2-1.33,.55-.35,.35-.55,.83-.55,1.33Zm10.98,1.88v7.34h-7.22v-7.34h7.22Zm-7.22-17.82V7.42h7.22v7.34h-7.22Z"/></svg>