<svg xmlns="http://www.w3.org/2000/svg" viewBox="0 0 48 48"><path fill="currentColor" d="M38.65,15.63c-.98-.98-2.27-1.51-3.65-1.51h0c-2.85,0-5.16,2.32-5.16,5.16,0,2.06,1.25,3.92,3.14,4.73v1.79l-6.96,2.98V8.44l1.26,1.26c.76.76,2.1.76,2.86,0,.38-.38.59-.89.59-1.43s-.21-1.05-.59-1.43l-4.71-4.71c-.77-.76-2.09-.76-2.86,0l-4.71,4.71c-.79.79-.79,2.07,0,2.86.77.76,2.09.76,2.86,0l1.26-1.26v17.2l-6.96-2.98v-1.36h1.12c1.12,0,2.02-.91,2.02-2.02v-6.29c0-1.11-.91-2.02-2.02-2.02h-6.29c-1.11,0-2.02.91-2.02,2.02v6.29c0,1.11.91,2.02,2.02,2.02h1.12v2.69c0,.81.48,1.54,1.23,1.86l9.77,4.19v6.51c-1.89.81-3.14,2.67-3.14,4.73,0,2.85,2.32,5.16,5.17,5.16s5.16-2.32,5.16-5.16c0-2.06-1.25-3.92-3.14-4.73v-3.36l9.77-4.19c.74-.32,1.23-1.05,1.23-1.86v-3.12c1.89-.81,3.14-2.67,3.14-4.73,0-1.38-.54-2.67-1.51-3.65Z"/></svg>