<svg xmlns="http://www.w3.org/2000/svg" viewBox="0 0 48 48"><path fill="currentColor" d="M42.83,13.04s-.02-.07-.03-.11c-.02-.08-.04-.16-.06-.23-.02-.04-.04-.08-.06-.12-.03-.07-.06-.14-.1-.2-.02-.04-.05-.07-.08-.11-.04-.06-.07-.12-.12-.17l-3.92-4.59c-.17-.22-.39-.4-.66-.53l-7.55-3.76s-.03,0-.05-.02c-.14-.06-.28-.12-.43-.15h0c-.13-.03-.27-.04-.41-.04h-10.74s-.05,0-.07,0c-.14,0-.27,.03-.4,.06-.04,.01-.08,.03-.13,.04-.12,.04-.24,.09-.34,.15-.02,.01-.05,.02-.07,.03l-8.85,5.37c-.17,.1-.32,.24-.45,.38,0,0-.01,0-.02,.01l-2.64,3.01c-.32,.36-.5,.83-.5,1.32v21.21c0,.48,.17,.94,.49,1.31l2.64,3.06s.03,.03,.05,.04c.04,.04,.08,.08,.13,.12,.08,.07,.16,.14,.24,.19,.02,.02,.04,.04,.06,.05l8.85,5.33s.06,.02,.1,.04c.1,.06,.21,.1,.32,.14,.05,.02,.1,.03,.14,.04,.15,.04,.3,.06,.46,.06h10.75s.02,0,.03,0c.13,0,.27-.02,.39-.05,.05-.01,.1-.03,.15-.05,.09-.03,.17-.05,.26-.09,.02,0,.04-.01,.07-.02l7.54-3.77c.06-.03,.12-.07,.17-.11,.05-.03,.1-.06,.15-.09,.11-.09,.22-.18,.31-.29h0l3.95-4.63c.07-.09,.14-.18,.19-.27h0c.05-.09,.09-.18,.12-.27,0-.02,.02-.04,.03-.06,.03-.09,.06-.18,.08-.28,0-.02,.01-.04,.02-.06,.02-.12,.03-.23,.03-.35h0V13.39c0-.12-.01-.24-.03-.36Zm-26.19,26.42l-4.85-2.92V11.5l4.85-2.94v30.91Zm10.73,1.54h-6.73V7h6.73V41Zm8.86-4.04l-.56,.66-4.29,2.14V8.23l4.27,2.13,.58,.67v25.92Z"/></svg>