<svg xmlns="http://www.w3.org/2000/svg" viewBox="0 0 48 48"><path fill="currentColor" d="M41.3,4.41H6.7c-1.49,0-2.7,1.21-2.7,2.7v34.59c0,1.49,1.21,2.7,2.7,2.7h34.59c1.49,0,2.7-1.21,2.7-2.7V7.11c0-1.49-1.21-2.7-2.7-2.7ZM40.36,40.77H7.64V8.04h32.73v32.73ZM21.74,28.84c-2.75,0-4.98,2.23-4.98,4.98s2.23,4.98,4.98,4.98,4.98-2.23,4.98-4.98-2.23-4.98-4.98-4.98ZM21.74,35.16c-.74,0-1.35-.6-1.35-1.35s.6-1.35,1.35-1.35,1.35.6,1.35,1.35-.6,1.35-1.35,1.35ZM26.09,20.04c2.75,0,4.98-2.23,4.98-4.98s-2.23-4.98-4.98-4.98-4.98,2.23-4.98,4.98,2.23,4.98,4.98,4.98ZM26.09,13.71c.74,0,1.35.6,1.35,1.35s-.6,1.35-1.35,1.35-1.35-.6-1.35-1.35.6-1.35,1.35-1.35ZM14.51,27.29c2.75,0,4.98-2.23,4.98-4.98s-2.23-4.98-4.98-4.98-4.98,2.23-4.98,4.98,2.23,4.98,4.98,4.98ZM14.51,20.97c.74,0,1.35.6,1.35,1.35s-.6,1.35-1.35,1.35-1.35-.6-1.35-1.35.6-1.35,1.35-1.35ZM28.33,26.57c0,2.75,2.23,4.98,4.98,4.98s4.98-2.23,4.98-4.98-2.23-4.98-4.98-4.98-4.98,2.23-4.98,4.98ZM33.32,25.23c.74,0,1.35.6,1.35,1.35s-.6,1.35-1.35,1.35-1.35-.6-1.35-1.35.6-1.35,1.35-1.35Z"/></svg>