<svg xmlns="http://www.w3.org/2000/svg" viewBox="0 0 48 48"><path fill="currentColor" d="M30 34C29.6044 34 29.2178 34.1173 28.8889 34.3371C28.56 34.5568 28.3036 34.8692 28.1522 35.2346C28.0009 35.6001 27.9613 36.0022 28.0384 36.3902C28.1156 36.7781 28.3061 37.1345 28.5858 37.4142C28.8655 37.6939 29.2219 37.8844 29.6098 37.9616C29.9978 38.0387 30.3999 37.9991 30.7654 37.8478C31.1308 37.6964 31.4432 37.44 31.6629 37.1111C31.8827 36.7822 32 36.3956 32 36C32 35.4696 31.7893 34.9609 31.4142 34.5858C31.0391 34.2107 30.5304 34 30 34ZM22 34H18C17.4696 34 16.9609 34.2107 16.5858 34.5858C16.2107 34.9609 16 35.4696 16 36C16 36.5304 16.2107 37.0391 16.5858 37.4142C16.9609 37.7893 17.4696 38 18 38H22C22.5304 38 23.0391 37.7893 23.4142 37.4142C23.7893 37.0391 24 36.5304 24 36C24 35.4696 23.7893 34.9609 23.4142 34.5858C23.0391 34.2107 22.5304 34 22 34ZM22 22H18C17.4696 22 16.9609 22.2107 16.5858 22.5858C16.2107 22.9609 16 23.4696 16 24C16 24.5304 16.2107 25.0391 16.5858 25.4142C16.9609 25.7893 17.4696 26 18 26H22C22.5304 26 23.0391 25.7893 23.4142 25.4142C23.7893 25.0391 24 24.5304 24 24C24 23.4696 23.7893 22.9609 23.4142 22.5858C23.0391 22.2107 22.5304 22 22 22ZM30 22C29.6044 22 29.2178 22.1173 28.8889 22.3371C28.56 22.5568 28.3036 22.8692 28.1522 23.2346C28.0009 23.6001 27.9613 24.0022 28.0384 24.3902C28.1156 24.7781 28.3061 25.1345 28.5858 25.4142C28.8655 25.6939 29.2219 25.8844 29.6098 25.9616C29.9978 26.0387 30.3999 25.9991 30.7654 25.8478C31.1308 25.6964 31.4432 25.44 31.6629 25.1111C31.8827 24.7822 32 24.3956 32 24C32 23.4696 31.7893 22.9609 31.4142 22.5858C31.0391 22.2107 30.5304 22 30 22ZM46 16C46 14.4087 45.3679 12.8826 44.2426 11.7574C43.1174 10.6321 41.5913 10 40 10H38C38 8.4087 37.3679 6.88258 36.2426 5.75736C35.1174 4.63214 33.5913 4 32 4H16C14.4087 4 12.8826 4.63214 11.7574 5.75736C10.6321 6.88258 10 8.4087 10 10H8C6.4087 10 4.88258 10.6321 3.75736 11.7574C2.63214 12.8826 2 14.4087 2 16V20C2.00882 21.4801 2.56442 22.9047 3.56 24C2.56442 25.0953 2.00882 26.5199 2 28V32C2 33.5913 2.63214 35.1174 3.75736 36.2426C4.88258 37.3679 6.4087 38 8 38H10C10 39.5913 10.6321 41.1174 11.7574 42.2426C12.8826 43.3679 14.4087 44 16 44H32C33.5913 44 35.1174 43.3679 36.2426 42.2426C37.3679 41.1174 38 39.5913 38 38H40C41.5913 38 43.1174 37.3679 44.2426 36.2426C45.3679 35.1174 46 33.5913 46 32V28C45.9912 26.5199 45.4356 25.0953 44.44 24C45.4356 22.9047 45.9912 21.4801 46 20V16ZM10 34H8C7.46957 34 6.96086 33.7893 6.58579 33.4142C6.21071 33.0391 6 32.5304 6 32V28C6 27.4696 6.21071 26.9609 6.58579 26.5858C6.96086 26.2107 7.46957 26 8 26H10C10.0088 27.4801 10.5644 28.9047 11.56 30C10.5644 31.0953 10.0088 32.5199 10 34ZM10 22H8C7.46957 22 6.96086 21.7893 6.58579 21.4142C6.21071 21.0391 6 20.5304 6 20V16C6 15.4696 6.21071 14.9609 6.58579 14.5858C6.96086 14.2107 7.46957 14 8 14H10C10.0088 15.4801 10.5644 16.9047 11.56 18C10.5644 19.0953 10.0088 20.5199 10 22ZM34 38C34 38.5304 33.7893 39.0391 33.4142 39.4142C33.0391 39.7893 32.5304 40 32 40H16C15.4696 40 14.9609 39.7893 14.5858 39.4142C14.2107 39.0391 14 38.5304 14 38V34C14 33.4696 14.2107 32.9609 14.5858 32.5858C14.9609 32.2107 15.4696 32 16 32H32C32.5304 32 33.0391 32.2107 33.4142 32.5858C33.7893 32.9609 34 33.4696 34 34V38ZM34 26C34 26.5304 33.7893 27.0391 33.4142 27.4142C33.0391 27.7893 32.5304 28 32 28H16C15.4696 28 14.9609 27.7893 14.5858 27.4142C14.2107 27.0391 14 26.5304 14 26V22C14 21.4696 14.2107 20.9609 14.5858 20.5858C14.9609 20.2107 15.4696 20 16 20H32C32.5304 20 33.0391 20.2107 33.4142 20.5858C33.7893 20.9609 34 21.4696 34 22V26ZM34 14C34 14.5304 33.7893 15.0391 33.4142 15.4142C33.0391 15.7893 32.5304 16 32 16H16C15.4696 16 14.9609 15.7893 14.5858 15.4142C14.2107 15.0391 14 14.5304 14 14V10C14 9.46957 14.2107 8.96086 14.5858 8.58579C14.9609 8.21071 15.4696 8 16 8H32C32.5304 8 33.0391 8.21071 33.4142 8.58579C33.7893 8.96086 34 9.46957 34 10V14ZM42 32C42 32.5304 41.7893 33.0391 41.4142 33.4142C41.0391 33.7893 40.5304 34 40 34H38C37.9912 32.5199 37.4356 31.0953 36.44 30C37.4356 28.9047 37.9912 27.4801 38 26H40C40.5304 26 41.0391 26.2107 41.4142 26.5858C41.7893 26.9609 42 27.4696 42 28V32ZM42 20C42 20.5304 41.7893 21.0391 41.4142 21.4142C41.0391 21.7893 40.5304 22 40 22H38C37.9912 20.5199 37.4356 19.0953 36.44 18C37.4356 16.9047 37.9912 15.4801 38 14H40C40.5304 14 41.0391 14.2107 41.4142 14.5858C41.7893 14.9609 42 15.4696 42 16V20ZM30 10C29.6044 10 29.2178 10.1173 28.8889 10.3371C28.56 10.5568 28.3036 10.8692 28.1522 11.2346C28.0009 11.6001 27.9613 12.0022 28.0384 12.3902C28.1156 12.7781 28.3061 13.1345 28.5858 13.4142C28.8655 13.6939 29.2219 13.8844 29.6098 13.9616C29.9978 14.0387 30.3999 13.9991 30.7654 13.8478C31.1308 13.6964 31.4432 13.44 31.6629 13.1111C31.8827 12.7822 32 12.3956 32 12C32 11.4696 31.7893 10.9609 31.4142 10.5858C31.0391 10.2107 30.5304 10 30 10ZM22 10H18C17.4696 10 16.9609 10.2107 16.5858 10.5858C16.2107 10.9609 16 11.4696 16 12C16 12.5304 16.2107 13.0391 16.5858 13.4142C16.9609 13.7893 17.4696 14 18 14H22C22.5304 14 23.0391 13.7893 23.4142 13.4142C23.7893 13.0391 24 12.5304 24 12C24 11.4696 23.7893 10.9609 23.4142 10.5858C23.0391 10.2107 22.5304 10 22 10Z"/></svg>