<svg xmlns="http://www.w3.org/2000/svg" viewBox="0 0 48 48"><path fill="currentColor" d="m42.14,26.73H5.86c-.41,0-.79.16-1.08.45-.29.29-.45.67-.45,1.08s.16.79.45,1.08c.29.28.68.45,1.08.45h36.28c.4,0,.8-.16,1.08-.45.29-.29.45-.67.45-1.08s-.16-.79-.45-1.08c-.29-.29-.68-.45-1.08-.45Zm-27.75-8.53c-.41,0-.79.16-1.08.45-.29.29-.45.67-.45,1.08s.16.79.45,1.08c.29.29.67.45,1.08.45h19.22c.41,0,.79-.16,1.08-.45.28-.29.45-.68.45-1.08s-.16-.79-.45-1.08c-.29-.29-.67-.45-1.08-.45H14.39Zm-8.53-5.46h36.28c.4,0,.8-.16,1.08-.45.28-.29.45-.68.45-1.08s-.16-.79-.45-1.08c-.28-.28-.68-.45-1.08-.45H5.86c-.41,0-.79.16-1.08.45-.29.29-.45.67-.45,1.08s.16.79.45,1.08c.29.28.68.45,1.08.45Zm27.75,22.52H14.39c-.4,0-.8.16-1.08.45-.29.29-.45.67-.45,1.08s.16.79.45,1.08c.29.28.68.45,1.08.45h19.22c.41,0,.79-.16,1.08-.45.29-.29.45-.67.45-1.08s-.16-.79-.45-1.08c-.29-.29-.67-.45-1.08-.45Z"/></svg>