<svg xmlns="http://www.w3.org/2000/svg" viewBox="0 0 48 48"><path fill="currentColor" d="m7.37,12.7h33.26c.36,0,.69-.16.94-.45.25-.29.39-.68.39-1.09s-.14-.8-.39-1.09c-.25-.29-.59-.45-.94-.45H7.37c-.35,0-.69.16-.94.45-.25.29-.39.68-.39,1.09s.14.8.39,1.09c.25.29.59.45.94.45Zm0,8.56h25.87c.36,0,.69-.16.94-.45.25-.29.39-.68.39-1.09s-.14-.8-.39-1.09c-.25-.29-.59-.45-.94-.45H7.37c-.35,0-.69.16-.94.45-.25.29-.39.68-.39,1.09s.14.8.39,1.09c.25.29.59.45.94.45Zm33.26,5.48H7.37c-.35,0-.69.17-.94.45-.25.29-.39.68-.39,1.09s.14.8.39,1.09c.25.29.59.45.94.45h33.26c.36,0,.69-.16.94-.45.25-.29.39-.68.39-1.09s-.14-.8-.39-1.09c-.25-.29-.59-.45-.94-.45Zm-7.39,8.56H7.37c-.35,0-.69.17-.94.45-.25.29-.39.68-.39,1.09s.14.8.39,1.09c.25.29.59.45.94.45h25.87c.35,0,.69-.17.94-.45.25-.29.39-.68.39-1.09s-.14-.8-.39-1.09c-.25-.29-.59-.45-.94-.45Z"/></svg>