<svg xmlns="http://www.w3.org/2000/svg" viewBox="0 0 48 48"><path fill="currentColor" d="M38,10H19.7c-1.6,0-3.1,.6-4.2,1.8L4.6,22.6c-.2,.2-.3,.4-.4,.7-.1,.2-.2,.5-.2,.8s0,.5,.2,.8c.1,.2,.3,.5,.4,.7l10.8,10.8c1.1,1.1,2.6,1.8,4.2,1.8h18.3c1.6,0,3.1-.6,4.2-1.8,1.1-1.1,1.8-2.7,1.8-4.2V16c0-1.6-.6-3.1-1.8-4.2-1.1-1.1-2.7-1.8-4.2-1.8Zm2,22c0,.5-.2,1-.6,1.4s-.9,.6-1.4,.6H19.7c-.5,0-1-.2-1.4-.6l-9.4-9.4,9.4-9.4c.4-.4,.9-.6,1.4-.6h18.3c.5,0,1,.2,1.4,.6,.4,.4,.6,.9,.6,1.4v16Zm-6.6-13.4c-.2-.2-.4-.3-.7-.4-.2-.1-.5-.2-.8-.2s-.5,0-.8,.2c-.2,.1-.5,.3-.7,.4l-2.6,2.6-2.6-2.6c-.4-.4-.9-.6-1.4-.6s-1,.2-1.4,.6-.6,.9-.6,1.4,.2,1,.6,1.4l2.6,2.6-2.6,2.6c-.2,.2-.3,.4-.4,.7-.1,.2-.2,.5-.2,.8s0,.5,.2,.8c.1,.2,.3,.5,.4,.7,.2,.2,.4,.3,.7,.4,.2,.1,.5,.2,.8,.2s.5,0,.8-.2c.2-.1,.5-.3,.7-.4l2.6-2.6,2.6,2.6c.2,.2,.4,.3,.7,.4,.2,.1,.5,.2,.8,.2s.5,0,.8-.2c.2-.1,.5-.3,.7-.4,.2-.2,.3-.4,.4-.7,.1-.2,.2-.5,.2-.8s0-.5-.2-.8c-.1-.2-.3-.5-.4-.7l-2.6-2.6,2.6-2.6c.2-.2,.3-.4,.4-.7,.1-.2,.2-.5,.2-.8s0-.5-.2-.8c-.1-.2-.3-.5-.4-.7Z"/></svg>