<svg xmlns="http://www.w3.org/2000/svg" viewBox="0 0 48 48"><path fill="currentColor" d="M36.1,24.9c-.7-.7-1.4-1.2-2.3-1.6,0,0,.2-.1,.3-.2,1.9-1.9,2.9-4.4,2.9-7.1s-1-5.2-2.9-7.1c-1.9-1.9-4.4-2.9-7.1-2.9H11c-1.1,0-2,.9-2,2V40c0,1.1,.9,2,2,2H29c2.7,0,5.2-1,7.1-2.9s2.9-4.4,2.9-7.1-1-5.2-2.9-7.1ZM13,10h14c1.6,0,3.1,.6,4.2,1.8,1.1,1.1,1.8,2.6,1.8,4.2s-.6,3.1-1.8,4.2c-1.1,1.1-2.7,1.8-4.2,1.8H13V10Zm20.2,26.2c-1.1,1.1-2.7,1.8-4.2,1.8H13v-12H29c1.6,0,3.1,.6,4.2,1.8s1.8,2.7,1.8,4.2-.6,3.1-1.8,4.2Z"/></svg>