<svg xmlns="http://www.w3.org/2000/svg" viewBox="0 0 48 48"><path fill="currentColor" d="M38,13c-.5,0-1,.2-1.4,.6-.4,.4-.6,.9-.6,1.4v8c0,.5-.2,1-.6,1.4s-.9,.6-1.4,.6H14.8l2.6-2.6c.4-.4,.6-.9,.6-1.4s-.2-1-.6-1.4-.9-.6-1.4-.6-1,.2-1.4,.6l-6,6c-.2,.2-.3,.4-.4,.7-.2,.5-.2,1,0,1.5,0,.2,.2,.5,.4,.7l6,6c.2,.2,.4,.3,.7,.4s.5,.2,.8,.2,.5,0,.8-.2c.2-.1,.5-.3,.7-.4,.2-.2,.3-.4,.4-.7,.1-.2,.2-.5,.2-.8s0-.5-.2-.8c-.1-.2-.3-.5-.4-.7l-2.6-2.6h19.2c1.6,0,3.1-.6,4.2-1.8,1.1-1.1,1.8-2.7,1.8-4.2V15c0-.5-.2-1-.6-1.4-.4-.4-.9-.6-1.4-.6Z"/></svg>