<svg xmlns="http://www.w3.org/2000/svg" viewBox="0 0 48 48"><path fill="currentColor" d="M25.2,12.3h-7.2c-.5,0-1,.4-1,1v1.6c0,.5,.4,1,1,1h2v6.4H9.4v-6.4h2c.5,0,1-.4,1-1v-1.4c0-.6-.5-1.2-1.2-1.2H4.2c-.6,0-1.2,.5-1.2,1.2v1.4c0,.5,.4,1,1,1h2v16.3h-2c-.5,0-1,.4-1,1v1.4c0,.6,.5,1.2,1.2,1.2h7.2c.5,0,1-.4,1-1v-1.6c0-.5-.4-1-1-1h-2v-6.4h10.5v6.4h-2c-.5,0-1,.4-1,1v1.4c0,.6,.5,1.2,1.2,1.2h7c.6,0,1.2-.5,1.2-1.2v-1.4c0-.5-.4-1-1-1h-2V15.8h2c.5,0,1-.4,1-1v-1.4c0-.6-.5-1.2-1.2-1.2Zm18.7,19.8h-4.1V14.1c0-1-.8-1.7-1.8-1.7h-1.8c-.7,0-1.3,.4-1.6,1l-1.8,3.5c-.4,.9,0,1.9,.8,2.3,.2,.1,.5,.2,.8,.2h1.8v12.8h-4.1c-.6,0-1.2,.5-1.2,1.2v1.2c0,.6,.5,1.2,1.2,1.2h11.7c.6,0,1.2-.5,1.2-1.2v-1.2c0-.6-.5-1.2-1.2-1.2Z"/></svg>