<svg xmlns="http://www.w3.org/2000/svg" viewBox="0 0 48 48"><path fill="currentColor" d="M25.42 22.58C25.2298 22.3979 25.0055 22.2552 24.76 22.16C24.2731 21.96 23.7269 21.96 23.24 22.16C22.9945 22.2552 22.7702 22.3979 22.58 22.58L18.58 26.58C18.2034 26.9566 17.9918 27.4674 17.9918 28C17.9918 28.5326 18.2034 29.0434 18.58 29.42C18.9566 29.7966 19.4674 30.0082 20 30.0082C20.5326 30.0082 21.0434 29.7966 21.42 29.42L22 28.82V34C22 34.5304 22.2107 35.0391 22.5858 35.4142C22.9609 35.7893 23.4696 36 24 36C24.5304 36 25.0391 35.7893 25.4142 35.4142C25.7893 35.0391 26 34.5304 26 34V28.82L26.58 29.42C26.7659 29.6075 26.9871 29.7562 27.2308 29.8578C27.4746 29.9593 27.736 30.0116 28 30.0116C28.264 30.0116 28.5254 29.9593 28.7692 29.8578C29.0129 29.7562 29.2341 29.6075 29.42 29.42C29.6075 29.2341 29.7562 29.0129 29.8578 28.7692C29.9593 28.5254 30.0116 28.264 30.0116 28C30.0116 27.736 29.9593 27.4746 29.8578 27.2308C29.7562 26.9871 29.6075 26.7659 29.42 26.58L25.42 22.58ZM40 17.88C39.9792 17.6963 39.9389 17.5153 39.88 17.34V17.16C39.7838 16.9544 39.6556 16.7653 39.5 16.6V16.6L27.5 4.6C27.3347 4.44443 27.1456 4.31616 26.94 4.22H26.74C26.5455 4.11601 26.3365 4.04184 26.12 4H14C12.4087 4 10.8826 4.63214 9.75736 5.75736C8.63214 6.88258 8 8.4087 8 10V38C8 39.5913 8.63214 41.1174 9.75736 42.2426C10.8826 43.3679 12.4087 44 14 44H34C35.5913 44 37.1174 43.3679 38.2426 42.2426C39.3679 41.1174 40 39.5913 40 38V18C40 18 40 18 40 17.88ZM28 10.82L33.18 16H30C29.4696 16 28.9609 15.7893 28.5858 15.4142C28.2107 15.0391 28 14.5304 28 14V10.82ZM36 38C36 38.5304 35.7893 39.0391 35.4142 39.4142C35.0391 39.7893 34.5304 40 34 40H14C13.4696 40 12.9609 39.7893 12.5858 39.4142C12.2107 39.0391 12 38.5304 12 38V10C12 9.46957 12.2107 8.96086 12.5858 8.58579C12.9609 8.21071 13.4696 8 14 8H24V14C24 15.5913 24.6321 17.1174 25.7574 18.2426C26.8826 19.3679 28.4087 20 30 20H36V38Z"/></svg>