<svg xmlns="http://www.w3.org/2000/svg" viewBox="0 0 48 48"><path fill="currentColor" d="M24,40H10c-.5,0-1-.2-1.4-.6-.4-.4-.6-.9-.6-1.4V10c0-.5,.2-1,.6-1.4,.4-.4,.9-.6,1.4-.6h10v6c0,1.6,.6,3.1,1.8,4.2,1.1,1.1,2.7,1.8,4.2,1.8h6v2c0,.5,.2,1,.6,1.4s.9,.6,1.4,.6,1-.2,1.4-.6,.6-.9,.6-1.4v-4h0c0-.3,0-.5-.1-.7v-.2c0-.2-.2-.4-.4-.6L23.5,4.6c-.2-.2-.4-.3-.6-.4,0,0-.1,0-.2,0-.2-.1-.4-.2-.7-.2H10c-1.6,0-3.1,.6-4.2,1.8s-1.8,2.7-1.8,4.2v28c0,1.6,.6,3.1,1.8,4.2,1.1,1.1,2.7,1.8,4.2,1.8h14c.5,0,1-.2,1.4-.6s.6-.9,.6-1.4-.2-1-.6-1.4-.9-.6-1.4-.6Zm0-29.2l5.2,5.2h-3.2c-.5,0-1-.2-1.4-.6-.4-.4-.6-.9-.6-1.4v-3.2Zm-10,5.2c-.5,0-1,.2-1.4,.6-.4,.4-.6,.9-.6,1.4s.2,1,.6,1.4c.4,.4,.9,.6,1.4,.6h2c.5,0,1-.2,1.4-.6,.4-.4,.6-.9,.6-1.4s-.2-1-.6-1.4c-.4-.4-.9-.6-1.4-.6h-2Zm29.4,24.6l-2.3-2.3c.7-1.3,1-2.8,.9-4.3-.2-1.5-.9-2.9-1.9-3.9-1-1-2.2-1.7-3.6-2-1.4-.3-2.8-.1-4.1,.4-1.3,.5-2.4,1.5-3.2,2.6-.8,1.2-1.2,2.6-1.1,4,0,1.2,.3,2.4,.9,3.4,.6,1.1,1.5,1.9,2.5,2.5,1,.6,2.2,1,3.4,1,1.2,0,2.4-.3,3.5-.9l2.3,2.3c.2,.2,.4,.3,.7,.4,.2,.1,.5,.2,.8,.2s.5,0,.8-.2c.2-.1,.5-.3,.7-.4,.2-.2,.3-.4,.4-.7,.1-.2,.2-.5,.2-.8s0-.5-.2-.8c-.1-.2-.3-.5-.4-.7Zm-6.3-3.5c-.6,.5-1.3,.8-2.1,.8s-1.5-.3-2.1-.8c-.6-.6-.9-1.3-.9-2.1,0-.4,0-.8,.2-1.1,.2-.4,.4-.7,.7-1,.5-.5,1.2-.8,2-.9,.4,0,.8,0,1.2,.2,.4,.1,.7,.4,1,.6s.5,.6,.7,1c.2,.4,.2,.8,.2,1.2,0,.8-.3,1.5-.9,2.1Zm-11.1-13.1H14c-.5,0-1,.2-1.4,.6-.4,.4-.6,.9-.6,1.4s.2,1,.6,1.4c.4,.4,.9,.6,1.4,.6h12c.5,0,1-.2,1.4-.6s.6-.9,.6-1.4-.2-1-.6-1.4-.9-.6-1.4-.6Zm-4,12c.5,0,1-.2,1.4-.6s.6-.9,.6-1.4-.2-1-.6-1.4-.9-.6-1.4-.6h-8c-.5,0-1,.2-1.4,.6-.4,.4-.6,.9-.6,1.4s.2,1,.6,1.4c.4,.4,.9,.6,1.4,.6h8Z"/></svg>