<svg xmlns="http://www.w3.org/2000/svg" viewBox="0 0 48 48"><path fill="currentColor" d="M41.4,28.7l-12,11.9-4.2-4c-.8-.8-2.1-.7-2.8,0-.8,.8-.7,2.1,0,2.8l5.6,5.3c.4,.4,.9,.6,1.4,.6s1-.2,1.4-.6l13.4-13.3c.8-.8,.8-2,0-2.8-.8-.8-2-.8-2.8,0Zm3-9.6c-.6-.6-1.4-.9-2.2-.9h-3.3c0-.2-.1-.4-.2-.6l2.4-2.4c1.2-1.2,1.2-3.2,0-4.4l-3.8-3.9c-.6-.6-1.4-.9-2.2-.9h0c-.8,0-1.6,.3-2.2,.9l-2.3,2.3c-.2,0-.4-.2-.6-.3v-3.2c0-1.7-1.4-3.1-3.1-3.1h-5.4c-1.7,0-3.1,1.4-3.1,3.1v3.2c-.2,0-.3,.1-.5,.2l-2.2-2.2c-1.2-1.2-3.2-1.2-4.4,0l-3.9,3.8c-.6,.6-.9,1.4-.9,2.2,0,.8,.3,1.6,.9,2.2l2.2,2.3c0,.2-.2,.4-.3,.6h-3.2c-1.7,0-3.1,1.4-3.1,3.1v5.4c0,.8,.3,1.6,.9,2.2,.6,.6,1.4,.9,2.2,.9h3.3c0,.2,.2,.4,.2,.6l-2.3,2.3c-1.2,1.2-1.2,3.2,0,4.4l3.8,3.9c.6,.6,1.4,.9,2.2,.9,.9,0,1.6-.3,2.2-.9l2.4-2.4c0-1.5,.2-2.1,1.3-3.8,0,0-.1,0-.2,0-1.2-.6-2.6-.3-3.5,.6l-2.2,2.2-2.6-2.6,2.2-2.2c1-.9,1.2-2.4,.6-3.6-.2-.4-.4-.9-.5-1.3-.4-1.2-1.6-2.1-2.9-2.1h-3v-3.7h3c1.3,0,2.5-.8,3-2.1,.2-.5,.3-.9,.6-1.4,.6-1.2,.3-2.6-.6-3.6l-2-2.1,2.6-2.6,2,2.1c.9,.9,2.4,1.2,3.6,.6,.4-.2,.8-.4,1.3-.5,1.3-.4,2.1-1.6,2.1-2.9v-2.9h3.7v2.9c0,1.3,.8,2.5,2.1,2.9,.5,.2,.9,.4,1.4,.6,1.2,.6,2.6,.4,3.6-.6l2.1-2.1,2.6,2.6-2.2,2.2c-.9,.9-1.2,2.3-.6,3.5,.2,.4,.4,.8,.5,1.3,.4,1.3,1.6,2.1,2.9,2.1h3.1v2.2c1.3-.3,2.7-.2,4,.3v-3.4c0-.8-.3-1.6-.9-2.2Zm-12.1,4.7c0-4.6-3.7-8.3-8.3-8.3s-8.3,3.7-8.3,8.3,3.7,8.3,8.3,8.3,8.3-3.7,8.3-8.3Zm-12.7,0c0-2.4,1.9-4.3,4.3-4.3s4.3,1.9,4.3,4.3-1.9,4.3-4.3,4.3-4.3-1.9-4.3-4.3Z"/></svg>