<svg xmlns="http://www.w3.org/2000/svg" viewBox="0 0 48 48"><path fill="currentColor" d="M43.5,18h-3.7c-.1-.4-.2-.7-.4-1l2.6-2.6c1.1-1.1,1.2-3,0-4.2l-4-4c-1.1-1.2-3-1.2-4.2,0l-2.6,2.5c-.3-.2-.7-.3-1.1-.5v-3.6c0-1.6-1.3-2.9-2.9-2.9h-5.7c-1.6,0-2.9,1.3-2.9,2.9v3.5c-.3,.1-.6,.3-1,.4l-2.5-2.5c-.6-.6-1.3-.9-2.1-.9h0c-.8,0-1.5,.3-2.1,.8l-4.1,4c-1.2,1.1-1.2,3,0,4.2l2.5,2.5c-.2,.4-.3,.7-.4,1.1h-3.6c-1.6,0-2.9,1.3-2.9,2.9v5.7c0,1.6,1.3,2.9,2.9,3h3.7c.1,.4,.3,.7,.4,1l-2.6,2.6c-.6,.6-.9,1.3-.9,2.1s.3,1.5,.9,2.1l4,4c1.1,1.1,3,1.2,4.2,0l2.7-2.7c.3,.1,.6,.3,.9,.4v3.8c0,1.6,1.3,2.9,2.9,2.9h5.7c1.6,0,2.9-1.3,2.9-2.9v-1.6c0-1-.8-1.8-1.8-1.8s-1.8,.8-1.8,1.8v1h-4.5v-3.7c0-1.3-.8-2.4-2-2.8-.5-.2-.9-.3-1.3-.5-1.1-.5-2.5-.3-3.3,.6l-2.6,2.6-3.2-3.2,2.5-2.5c.9-.9,1.1-2.3,.6-3.4-.2-.4-.4-.9-.6-1.4-.4-1.2-1.5-2-2.8-2h-3.5v-4.5h3.4c1.3,0,2.4-.8,2.8-2,.2-.5,.4-1,.6-1.5,.5-1.1,.3-2.5-.5-3.4l-2.4-2.4,3.2-3.2,2.4,2.4c.9,.9,2.2,1.1,3.4,.6,.4-.2,.9-.4,1.4-.6,1.2-.4,2-1.5,2-2.8v-3.4h4.5v3.4c0,1.2,.8,2.4,2,2.8,.5,.2,1,.4,1.5,.6,1.1,.6,2.5,.3,3.4-.5l2.4-2.4,3.2,3.2-2.5,2.5c-.9,.9-1.1,2.2-.6,3.3,.2,.5,.4,.9,.6,1.4,.4,1.2,1.5,2,2.8,2h3.6v4.5h-1.3c-1,0-1.8,.8-1.8,1.7,0,1,.8,1.8,1.7,1.8h1.9c.8,0,1.5-.3,2.1-.8,.6-.6,.9-1.3,.9-2.1v-5.7c0-1.6-1.3-2.9-2.9-3Zm-3.4,13.9c-1.4-1.4-3.3-3.3-6.5-6.6-.3-.3-.3-.9-.3-1.8,0-1.8-.2-4.4-3.2-7-3.7-3.1-8-3.4-11.8-.6-.5,.3-.7,.9-.7,1.4s.3,1.1,.7,1.4c2.4,1.8,3.8,2.7,4.6,3.3-.2,1.3-.7,1.8-1.1,1.9l-4.4-2.6c-.5-.3-1.1-.3-1.7,0-.5,.3-.9,.8-1,1.4,0,.2-.7,5.6,3.2,8.6,2.8,2.1,6.1,1.7,7.8,1.3,1.9,1.9,7,7,8.7,8.8,.8,.9,2.8,2.9,5.2,2.9s2.2-.4,3.4-1.5c3.9-3.6,.7-7.1-.4-8.2-.8-.9-1.6-1.7-2.6-2.7Zm.6,8.3c-.7,.7-1.3,1.2-3.7-1.2-2.1-2.2-9.2-9.3-9.5-9.6-.3-.3-.8-.5-1.3-.5s-.4,0-.6,.1c0,0-3.2,1.2-5.5-.5-.8-.6-1.3-1.4-1.5-2.3l2,1.2c.3,.2,.6,.2,.9,.2h0c1.7,0,4.8-1.3,5-6.4,0-.6-.3-1.2-.8-1.6-.2-.2-1.5-1-2.8-2,1.7-.3,3.4,.2,5,1.6,1.8,1.5,1.9,2.8,1.9,4.4,0,1.3,.1,2.7,1.2,4,0,0,0,0,0,0,3.2,3.4,5.2,5.3,6.6,6.7,1,1,1.8,1.7,2.5,2.6,1.9,2,1.4,2.5,.6,3.2Z"/></svg>