<svg xmlns="http://www.w3.org/2000/svg" viewBox="0 0 48 48"><path fill="currentColor" d="M13.72,17.52c-.73-.73-2-.73-2.73,0-.75.75-.75,1.97,0,2.73l.16.16-2.45,2.45c-4.04,4.04-4.53,10.37-1.25,14.96l-4.08,4.08c-.36.36-.56.85-.56,1.36s.2,1,.56,1.36l.19.19h.03c.32.23.72.36,1.14.36h0c.52,0,1.01-.2,1.36-.55l4.08-4.08c4.59,3.28,10.92,2.79,14.96-1.25l2.44-2.45.16.16c.75.75,1.97.75,2.73,0,.36-.36.56-.85.56-1.36s-.2-1-.56-1.36L13.72,17.52ZM22.42,36.57c-1.47,1.47-3.42,2.28-5.49,2.28s-4.03-.81-5.49-2.28c-3.03-3.03-3.03-7.96,0-10.98h0l2.45-2.45,10.99,10.99-2.45,2.45ZM45.19,4.74c0-.52-.2-1-.57-1.36-.7-.7-2.03-.7-2.73,0l-4.08,4.08c-4.59-3.29-10.92-2.79-14.96,1.25l-2.45,2.45-.16-.16c-.73-.73-2-.73-2.73,0-.75.75-.75,1.97,0,2.73l3.21,3.21-1.33,1.33c-.71.71-.71,1.87,0,2.58.38.38.89.59,1.44.59h0c.54,0,1.05-.21,1.43-.59l1.19-1.19,4.89,4.89-1.29,1.29c-.36.36-.55.83-.55,1.33s.2.97.55,1.33c.77.77,2.02.77,2.79,0l1.22-1.23,3.21,3.21c.36.36.85.56,1.36.56s1-.2,1.36-.56c.36-.36.56-.85.56-1.36s-.2-1-.56-1.36l-.16-.16,2.45-2.45c4.04-4.04,4.53-10.37,1.25-14.96l4.08-4.08c.36-.36.56-.85.56-1.36ZM36.56,22.42l-2.45,2.45-10.99-10.98,2.45-2.45c1.47-1.47,3.42-2.28,5.49-2.28s4.03.81,5.49,2.28c3.03,3.03,3.03,7.96,0,10.99Z"/></svg>