<svg xmlns="http://www.w3.org/2000/svg" viewBox="0 0 48 48"><path fill="currentColor" d="M46.2861 21.708C46.2861 24.5367 45.7063 27.3356 44.583 29.9316C43.4595 32.5278 41.816 34.8672 39.7539 36.8037C37.6918 38.7402 35.2544 40.2341 32.5928 41.1924C30.6871 41.8785 28.6947 42.2782 26.6807 42.3857L27.8799 43.585C28.6609 44.366 28.6608 45.632 27.8799 46.4131C27.0988 47.1941 25.8328 47.1941 25.0518 46.4131L20.6338 41.9951C19.7358 41.0969 19.7358 39.6413 20.6338 38.7432L25.0518 34.3252C25.8328 33.5441 27.0988 33.5441 27.8799 34.3252C28.6608 35.1063 28.6609 36.3723 27.8799 37.1533L26.6504 38.3818C28.2129 38.2812 29.7576 37.9614 31.2373 37.4287C33.3848 36.6555 35.3518 35.4501 37.0156 33.8877C38.6793 32.3253 40.0057 30.4383 40.9121 28.3438C41.8185 26.2491 42.2861 23.9903 42.2861 21.708H46.2861ZM9.51758 7.4668C10.7444 7.13818 12.0051 7.86602 12.334 9.09277L13.9512 15.1279C14.2371 16.1949 13.604 17.2913 12.5371 17.5771C11.4702 17.8629 10.3738 17.23 10.0879 16.1631L9.97266 15.7363C9.60006 16.7097 9.31832 17.7181 9.13281 18.749C8.72866 20.9954 8.78937 23.3013 9.31055 25.5234C9.83179 27.7456 10.8032 29.8375 12.1641 31.6699C13.525 33.5023 15.2469 35.0365 17.2236 36.1777L15.2236 39.6416C12.7736 38.2271 10.6389 36.3259 8.95215 34.0547C7.26549 31.7835 6.06201 29.1907 5.41602 26.4365C4.77005 23.6823 4.69533 20.8243 5.19629 18.04C5.56072 16.015 6.22496 14.0605 7.16211 12.2383L4.51758 12.9473C3.45075 13.233 2.35425 12.6 2.06836 11.5332C1.7825 10.4664 2.41565 9.36998 3.48242 9.08398L9.51758 7.4668ZM27.875 11.999C28.4277 11.999 28.9559 12.2277 29.334 12.6309L33.459 17.0312C33.8065 17.4019 34 17.8913 34 18.3994V28.3994C33.9998 29.3138 33.6602 30.215 33.0195 30.8984C32.3746 31.5861 31.4712 31.999 30.5 31.999H21.5C20.5288 31.9989 19.6253 31.5862 18.9805 30.8984C18.3398 30.215 18.0002 29.3138 18 28.3994V15.5986C18.0001 14.6843 18.3399 13.783 18.9805 13.0996L19.1045 12.9736C19.7386 12.3617 20.5896 11.9991 21.5 11.999H27.875ZM22 27.999H30V19.1895L27.0088 15.999H22V27.999ZM23.1973 1.13672C26.0074 0.811637 28.8553 1.06518 31.5635 1.88281C34.2716 2.70051 36.7837 4.06472 38.9443 5.89062C40.2183 6.96725 41.3524 8.19262 42.3281 9.53516L42.7314 8.03418C43.0174 6.96739 44.1138 6.33425 45.1807 6.62012C46.2475 6.90598 46.8804 8.00248 46.5947 9.06934L44.9775 15.1045C44.6487 16.3312 43.3879 17.06 42.1611 16.7314L36.126 15.1143C35.059 14.8284 34.426 13.731 34.7119 12.6641C34.9979 11.5974 36.0944 10.9642 37.1611 11.25L38.9854 11.7383C38.2227 10.7126 37.3435 9.77449 36.3623 8.94531C34.619 7.47221 32.5921 6.37162 30.4072 5.71191C28.2222 5.05222 25.9245 4.8471 23.6572 5.10938C21.3901 5.37171 19.2002 6.09625 17.2236 7.2373L15.2236 3.77344C17.6734 2.35918 20.3873 1.46189 23.1973 1.13672Z"/></svg>