<svg xmlns="http://www.w3.org/2000/svg" viewBox="0 0 48 48"><path fill="currentColor" d="M13.6,11h0c-1,0-1.8,.8-1.8,1.8s.8,1.8,1.8,1.8,1.8-.8,1.8-1.8-.8-1.8-1.8-1.8Zm7.3,0h0c-1,0-1.8,.8-1.8,1.8s.8,1.8,1.8,1.8,1.8-.8,1.8-1.8-.8-1.8-1.8-1.8Zm0,25.5c1,0,1.8-.8,1.8-1.8s-.8-1.8-1.8-1.8h0c-1,0-1.8,.8-1.8,1.8s.8,1.8,1.8,1.8Zm18.2-14.5c3,0,5.5-2.4,5.5-5.5v-7.3c0-3-2.4-5.5-5.5-5.5H9.9c-3,0-5.5,2.4-5.5,5.5v7.3c0,3,2.4,5.5,5.5,5.5h1.6v3.6h-1.6c-3,0-5.5,2.4-5.5,5.5v7.3c0,3,2.4,5.5,5.5,5.5h29.1c3,0,5.5-2.4,5.5-5.5v-7.3c0-3-2.4-5.5-5.5-5.5h-1.6v-3.6h1.6Zm-29.1-3.6c-1,0-1.8-.8-1.8-1.8v-7.3c0-1,.8-1.8,1.8-1.8H30.3v10.9H9.9Zm20.3,21.8H9.9c-1,0-1.8-.8-1.8-1.8v-7.3c0-1,.8-1.8,1.8-1.8H30.3v10.9Zm3.5-14.5H15.2v-3.6h18.6v3.6Zm5.2,3.6c1,0,1.8,.8,1.8,1.8v7.3c0,1-.8,1.8-1.8,1.8h-5.1v-10.9h5.1Zm-5.1-10.9V7.3h5.1c1,0,1.8,.8,1.8,1.8v7.3c0,1-.8,1.8-1.8,1.8h-5.1ZM13.6,36.4c1,0,1.8-.8,1.8-1.8s-.8-1.8-1.8-1.8h0c-1,0-1.8,.8-1.8,1.8s.8,1.8,1.8,1.8Z"/></svg>