<svg xmlns="http://www.w3.org/2000/svg" viewBox="0 0 48 48"><path fill="currentColor" d="M38,12h-6V6c0-.5-.2-1-.6-1.4-.4-.4-.9-.6-1.4-.6s-1,.2-1.4,.6c-.4,.4-.6,.9-.6,1.4v6h-8V6c0-.5-.2-1-.6-1.4-.4-.4-.9-.6-1.4-.6s-1,.2-1.4,.6c-.4,.4-.6,.9-.6,1.4v6h-6c-.5,0-1,.2-1.4,.6-.4,.4-.6,.9-.6,1.4s.2,1,.6,1.4c.4,.4,.9,.6,1.4,.6h2v10c0,.3,0,.5,.1,.8,0,.2,.2,.5,.4,.7l5.4,5.4v9.2c0,.5,.2,1,.6,1.4,.4,.4,.9,.6,1.4,.6s1-.2,1.4-.6,.6-.9,.6-1.4v-8h4v8c0,.5,.2,1,.6,1.4s.9,.6,1.4,.6,1-.2,1.4-.6,.6-.9,.6-1.4v-9.2l5.4-5.4c.2-.2,.3-.4,.4-.7,0-.2,.1-.5,.1-.8v-10h2c.5,0,1-.2,1.4-.6,.4-.4,.6-.9,.6-1.4s-.2-1-.6-1.4c-.4-.4-.9-.6-1.4-.6Zm-6,13.2l-4.8,4.8h-6.4l-4.8-4.8v-9.2h16v9.2Zm-10,.8h4c.5,0,1-.2,1.4-.6s.6-.9,.6-1.4-.2-1-.6-1.4-.9-.6-1.4-.6h-4c-.5,0-1,.2-1.4,.6s-.6,.9-.6,1.4,.2,1,.6,1.4,.9,.6,1.4,.6Z"/></svg>