<svg xmlns="http://www.w3.org/2000/svg" viewBox="0 0 48 48"><path fill="currentColor" d="M39.3,21.6c-.6,0-1.3,0-1.9,.3v-4.1c0-1.7-1.4-3.1-3.1-3.1h-3.8c.1-.5,.2-1.1,.2-1.6,0-3.7-3-6.7-6.7-6.7s-6.7,3-6.7,6.7,0,1.1,.2,1.6h-3.9c-1.7,0-3.1,1.4-3.1,3.1v4.1c-.6-.2-1.2-.2-1.8-.2-3.7,0-6.7,3-6.7,6.7s3,6.7,6.7,6.7,1.2,0,1.8-.2v3.8c0,1.7,1.4,3.1,3.1,3.1h6.7c.7,0,1.3-.4,1.6-1,.3-.6,.2-1.4-.3-1.9-.5-.6-.8-1.3-.8-2.1,0-1.7,1.4-3.2,3.2-3.2s3.2,1.4,3.2,3.2-.3,1.5-.8,2.1c-.5,.5-.6,1.3-.3,1.9,.3,.6,.9,1,1.6,1h6.6c1.7,0,3.1-1.4,3.1-3.1v-3.8c.6,.2,1.2,.3,1.9,.3,3.7,0,6.7-3,6.7-6.7s-3-6.7-6.7-6.7Zm0,9.9c-.9,0-1.7-.4-2.3-1-.5-.5-1.3-.7-1.9-.5s-1.1,.9-1.1,1.6v6.5h-3.3c.1-.5,.2-1,.2-1.5,0-3.7-3-6.7-6.7-6.7s-6.7,3-6.7,6.7,0,1,.2,1.5h-3.5v-6.4c0-.7-.4-1.4-1.1-1.6-.7-.3-1.4-.1-1.9,.4-.6,.6-1.4,1-2.3,1-1.7,0-3.2-1.4-3.2-3.2s1.4-3.2,3.2-3.2,1.7,.3,2.3,1c.5,.5,1.3,.7,1.9,.4,.7-.3,1.1-.9,1.1-1.6v-6.7h6.5c.7,0,1.3-.4,1.6-1.1,.3-.6,.1-1.4-.3-1.9-.6-.6-.9-1.4-.9-2.2,0-1.7,1.4-3.2,3.2-3.2s3.2,1.4,3.2,3.2-.3,1.6-.9,2.2c-.5,.5-.6,1.3-.3,1.9,.3,.7,.9,1.1,1.6,1.1h6.3v6.8c0,.7,.4,1.4,1.1,1.7s1.5,0,1.9-.5c.6-.7,1.4-1,2.3-1,1.7,0,3.2,1.4,3.2,3.2s-1.4,3.2-3.2,3.2Z"/></svg>