<svg xmlns="http://www.w3.org/2000/svg" viewBox="0 0 48 48"><path fill="currentColor" d="M3.8,10.6h6.5c.8,2.6,3.1,4.4,5.9,4.4s6.2-2.8,6.2-6.2-2.8-6.2-6.2-6.2-5.2,1.9-5.9,4.4H3.8c-1,0-1.8,.8-1.8,1.8s.8,1.8,1.8,1.8Zm12.4-4.4c1.5,0,2.6,1.2,2.6,2.6s-1.2,2.6-2.6,2.6-2.6-1.2-2.6-2.6,1.2-2.6,2.6-2.6Zm12.1,4.4h16c1,0,1.8-.8,1.8-1.8s-.8-1.8-1.8-1.8h-16c-1,0-1.8,.8-1.8,1.8s.8,1.8,1.8,1.8Zm-7.3,11.6H3.8c-1,0-1.8,.8-1.8,1.8s.8,1.8,1.8,1.8H21c1,0,1.8-.8,1.8-1.8s-.8-1.8-1.8-1.8Zm23.2,15.3H27c-1,0-1.8,.8-1.8,1.8s.8,1.8,1.8,1.8h17.2c1,0,1.8-.8,1.8-1.8s-.8-1.8-1.8-1.8Zm0-15.3h-5.1c-.8-2.6-3.1-4.4-5.9-4.4s-6.2,2.8-6.2,6.2,2.8,6.2,6.2,6.2,5.2-1.9,5.9-4.4h5.1c1,0,1.8-.8,1.8-1.8s-.8-1.8-1.8-1.8Zm-11.1,4.4c-1.5,0-2.6-1.2-2.6-2.6s1.2-2.6,2.6-2.6,2.6,1.2,2.6,2.6-1.2,2.6-2.6,2.6Zm-18.3,6.4c-2.8,0-5.2,1.9-5.9,4.4H3.8c-1,0-1.8,.8-1.8,1.8s.8,1.8,1.8,1.8h5.1c.8,2.6,3.1,4.4,5.9,4.4s6.2-2.8,6.2-6.2-2.8-6.2-6.2-6.2Zm0,8.8c-1.5,0-2.6-1.2-2.6-2.6s1.2-2.6,2.6-2.6,2.6,1.2,2.6,2.6-1.2,2.6-2.6,2.6Z"/></svg>