<svg xmlns="http://www.w3.org/2000/svg" viewBox="0 0 48 48"><path fill="currentColor" d="M21.41,10.59c-.78-.78-2.05-.78-2.83,0-.78.78-.78,2.05,0,2.83l10.59,10.59-10.59,10.59c-.78.78-.78,2.05,0,2.83s2.05.78,2.83,0l12-12c.38-.38.59-.88.59-1.41s-.21-1.04-.59-1.41l-12-12ZM21.41,22.59l-12-12c-.78-.78-2.05-.78-2.83,0-.78.78-.78,2.05,0,2.83l10.59,10.59-10.59,10.59c-.78.78-.78,2.05,0,2.83s2.05.78,2.83,0l12-12c.78-.78.78-2.05,0-2.83ZM39.98,10.03c-1.1,0-2,.9-2,2v24c0,1.1.9,2,2,2s2-.9,2-2V12.03c0-1.1-.9-2-2-2Z"/></svg>