<svg xmlns="http://www.w3.org/2000/svg" viewBox="0 0 48 48"><path fill="currentColor" d="M24,16.55c-4.11,0-7.45,3.34-7.45,7.45s3.34,7.45,7.45,7.45,7.45-3.34,7.45-7.45-3.34-7.45-7.45-7.45Zm0,10.91c-1.9,0-3.45-1.55-3.45-3.45s1.55-3.45,3.45-3.45,3.45,1.55,3.45,3.45-1.55,3.45-3.45,3.45Zm15.29,2.79c.08-.18,.21-.33,.37-.44,.16-.11,.35-.17,.54-.17h.16c1.51,0,2.92-.59,3.98-1.65,1.07-1.06,1.65-2.48,1.65-3.99s-.59-2.92-1.65-3.98c-1.06-1.07-2.48-1.65-3.99-1.65h-.3c-.2,0-.38-.06-.55-.17-.1-.07-.19-.15-.25-.24-.03-.12-.07-.24-.12-.36-.08-.18-.1-.39-.07-.58,.04-.2,.13-.38,.25-.51l.11-.11c.53-.53,.94-1.14,1.22-1.83,.29-.69,.43-1.41,.43-2.16s-.14-1.47-.43-2.16-.7-1.3-1.22-1.83c-.53-.53-1.14-.94-1.83-1.22-1.38-.57-2.94-.57-4.32,0-.69,.29-1.3,.7-1.83,1.22l-.09,.09c-.14,.14-.32,.23-.52,.27-.2,.03-.4,.01-.6-.08-.18-.08-.33-.2-.44-.37-.11-.16-.17-.35-.17-.54v-.16c0-1.48-.6-2.94-1.65-3.98-1.06-1.06-2.48-1.65-3.99-1.65s-2.92,.59-3.98,1.65c-1.06,1.06-1.65,2.48-1.65,3.99v.3c0,.2-.06,.39-.17,.55-.07,.1-.15,.19-.24,.26-.12,.03-.24,.07-.36,.12-.18,.08-.39,.11-.58,.07-.2-.04-.38-.13-.5-.25l-.11-.11c-.53-.53-1.14-.94-1.83-1.22-1.38-.57-2.94-.57-4.32,0-.69,.28-1.3,.7-1.83,1.22-.53,.53-.94,1.14-1.22,1.83-.28,.69-.43,1.41-.43,2.16s.14,1.47,.43,2.16c.29,.69,.7,1.3,1.22,1.83l.1,.1c.14,.14,.23,.32,.27,.52,.04,.2,.01,.4-.07,.58-.02,.04-.03,.08-.05,.12-.07,.19-.19,.35-.36,.47-.16,.12-.36,.18-.51,.19h-.16c-1.51,0-2.92,.59-3.99,1.65-1.06,1.06-1.65,2.48-1.65,3.98s.59,2.92,1.65,3.99,2.48,1.65,3.99,1.65h.3c.19,0,.38,.06,.55,.17,.16,.11,.29,.26,.37,.46,.08,.18,.1,.38,.07,.58-.04,.2-.13,.38-.26,.51l-.1,.11c-.53,.53-.94,1.14-1.22,1.83-.28,.69-.43,1.41-.43,2.16s.14,1.47,.43,2.16c.29,.69,.7,1.3,1.22,1.83,.53,.53,1.14,.94,1.83,1.22,1.37,.57,2.95,.57,4.32,0,.69-.28,1.3-.7,1.83-1.23l.09-.09c.14-.14,.32-.23,.52-.27,.2-.03,.4-.01,.58,.07,.04,.02,.08,.03,.12,.05,.19,.07,.35,.19,.47,.36,.12,.16,.18,.36,.19,.51v.16c0,1.5,.59,2.92,1.65,3.99,1.06,1.06,2.48,1.65,3.98,1.65s2.92-.59,3.99-1.65c1.06-1.07,1.65-2.48,1.65-3.98v-.3c0-.2,.06-.38,.17-.55,.11-.16,.26-.29,.46-.38,.18-.08,.38-.1,.58-.07,.2,.04,.38,.13,.5,.25l.11,.11c.53,.53,1.14,.94,1.83,1.22,1.38,.57,2.95,.57,4.32,0,.69-.28,1.3-.7,1.83-1.22s.94-1.14,1.22-1.83c.29-.69,.43-1.41,.43-2.16s-.14-1.47-.43-2.16c-.28-.69-.7-1.3-1.22-1.83l-.09-.09c-.14-.14-.23-.33-.27-.52-.04-.2-.01-.4,.07-.58v-.02Zm-1.83-3.78c-.81,.54-1.45,1.29-1.83,2.19-.4,.92-.52,1.92-.34,2.9,.18,.99,.64,1.89,1.36,2.62l.11,.11c.15,.15,.27,.33,.35,.53,.08,.2,.13,.42,.13,.63s-.04,.43-.12,.63c-.08,.2-.2,.38-.36,.53s-.33,.27-.54,.36c-.39,.16-.85,.17-1.25,0-.2-.08-.38-.2-.53-.36l-.13-.13c-.72-.7-1.62-1.17-2.6-1.34-.99-.18-1.99-.06-2.89,.34-.9,.38-1.66,1.02-2.2,1.83-.54,.82-.83,1.76-.83,2.75v.31c0,.43-.17,.85-.48,1.16-.61,.61-1.7,.61-2.31,0-.31-.31-.48-.72-.48-1.16v-.21c-.02-1.01-.35-1.97-.93-2.79-.57-.8-1.36-1.41-2.28-1.76-.9-.39-1.89-.5-2.85-.32-.99,.18-1.89,.64-2.62,1.36l-.11,.11c-.15,.15-.33,.27-.53,.36-.4,.16-.85,.17-1.25,0-.2-.08-.38-.2-.53-.36-.15-.15-.27-.33-.35-.53-.08-.2-.12-.41-.12-.63s.04-.43,.12-.63c.08-.2,.2-.38,.36-.54l.12-.12c.7-.72,1.17-1.62,1.35-2.6,.18-.99,.06-1.99-.34-2.89-.39-.9-1.02-1.66-1.83-2.2-.82-.54-1.77-.83-2.75-.83h-.31c-.44,0-.85-.17-1.16-.48-.31-.31-.48-.72-.48-1.16s.17-.85,.48-1.16c.31-.31,.72-.48,1.16-.48h.21c1.01-.02,1.97-.35,2.79-.93,.8-.57,1.41-1.36,1.76-2.28,.38-.9,.5-1.89,.32-2.85-.18-.99-.64-1.89-1.36-2.62l-.11-.11c-.15-.15-.27-.33-.35-.53-.08-.2-.12-.41-.12-.63s.04-.43,.12-.63c.08-.2,.2-.38,.36-.53,.15-.15,.33-.27,.53-.36,.4-.17,.85-.17,1.25,0,.2,.08,.38,.2,.53,.35l.13,.13c.72,.7,1.62,1.17,2.6,1.34,.85,.16,1.72,.09,2.53-.19,.18-.02,.35-.07,.51-.14,.9-.39,1.66-1.02,2.2-1.83,.54-.82,.83-1.76,.83-2.75v-.31c0-.43,.17-.85,.48-1.16,.61-.61,1.7-.61,2.31,0,.3,.31,.48,.73,.48,1.16v.17c0,.98,.29,1.92,.83,2.74,.54,.81,1.3,1.45,2.18,1.83,.92,.4,1.92,.52,2.91,.34,.99-.18,1.89-.64,2.62-1.36l.11-.11c.15-.15,.33-.27,.53-.35,.4-.17,.85-.17,1.25,0,.2,.08,.38,.2,.53,.36,.15,.15,.27,.33,.36,.53,.08,.2,.12,.41,.12,.63s-.04,.43-.12,.63c-.08,.2-.2,.38-.36,.53l-.12,.12c-.7,.72-1.17,1.62-1.35,2.61-.15,.85-.09,1.72,.2,2.53,.02,.17,.07,.35,.14,.51,.38,.9,1.02,1.66,1.83,2.2,.82,.54,1.76,.83,2.75,.83h.31c.44,0,.85,.17,1.16,.48s.48,.72,.48,1.16-.17,.85-.48,1.16-.72,.48-1.16,.48h-.17c-.98,0-1.93,.29-2.74,.83Z"/></svg>