<svg xmlns="http://www.w3.org/2000/svg" viewBox="0 0 48 48"><path fill="currentColor" d="M44.2,27.7c-1,0-1.8,.8-1.8,1.8v2.3c0,.2-.3,.2-.4,.2h-11.4c-.7-3-3.3-5.8-6.7-5.8s-5.9,2.8-6.7,5.8H6c-.1,0-.4,0-.4-.2v-11.7c0-1-.8-1.8-1.8-1.8s-1.8,.8-1.8,1.8v11.7c0,2.1,1.7,3.8,4,3.8h11v3.3h-3c-1,0-1.8,.8-1.8,1.8s.8,1.8,1.8,1.8h20.1c1,0,1.8-.8,1.8-1.8s-.8-1.8-1.8-1.8h-3.2v-3.3h11.2c2.3,0,4-1.6,4-3.8v-2.3c0-1-.8-1.8-1.8-1.8Zm-16.9,11.1h-6.8v-4.7c0-.1,0-.3,0-.4,0-1.8,1.5-4.1,3.4-4.1s3.4,2.2,3.4,4.1,0,.2,0,.4v4.7ZM42,5.6H6c-2.2,0-4,1.8-4,4v2.4c0,1,.8,1.8,1.8,1.8s1.8-.8,1.8-1.8v-2.4c0-.2,.2-.4,.4-.4H42c.2,0,.4,.2,.4,.4v11.2c0,1,.8,1.8,1.8,1.8s1.8-.8,1.8-1.8V9.6c0-2.2-1.8-4-4-4ZM10.3,26.5c-1,0-1.8,.8-1.8,1.8,0,1,.8,1.8,1.8,1.8h2.1c1.1,0,2.2-.7,2.5-1.8,.1-.4,.3-.7,.5-1.1,.5-1,.3-2.2-.5-3.1l-1.6-1.6,1.9-1.9,1.5,1.6c.8,.8,2,1,3.1,.5,.3-.2,.7-.3,1-.4,1.1-.4,1.8-1.4,1.8-2.5v-2.2h2.7v2.2c0,1.1,.7,2.1,1.8,2.5,.4,.1,.7,.3,1.1,.5,1,.5,2.3,.3,3.1-.5l1.6-1.6,1.9,1.9-1.7,1.6c-.8,.8-1,2-.5,3,.2,.3,.3,.7,.4,1,.4,1.1,1.4,1.8,2.5,1.8h2.2c1,0,1.8-.8,1.8-1.7,0-1-.8-1.8-1.8-1.8h-1.6c0-.1,0-.2-.1-.3l1.8-1.8c.5-.5,.8-1.2,.8-1.9,0-.7-.3-1.4-.8-1.9l-3.1-3.1c-1-1-2.7-1.1-3.8,0l-1.8,1.8c-.1,0-.2,0-.3-.1v-2.5c0-1.5-1.2-2.7-2.7-2.7h-4.4c-1.5,0-2.7,1.2-2.7,2.7v2.5c0,0-.2,0-.2,0l-1.7-1.8c-.5-.5-1.2-.8-1.9-.8-.7,0-1.4,.3-1.9,.8l-3.1,3.1c-.5,.5-.8,1.2-.8,1.9,0,.7,.3,1.4,.8,1.9l1.7,1.8c0,.1,0,.2-.1,.3h-1.5Z"/></svg>