<svg xmlns="http://www.w3.org/2000/svg" viewBox="0 0 48 48"><path fill="currentColor" d="M32.4,27.2h-1.9c-.1-.5-.3-.9-.5-1.3l1.3-1.3c.8-.8,.8-2,0-2.8-.8-.8-2-.8-2.8,0l-1.3,1.3c-.4-.2-.8-.4-1.3-.5v-1.9c0-1.1-.9-2-2-2s-2,.9-2,2v1.9c-.5,.1-.9,.3-1.3,.5l-1.3-1.3c-.8-.8-2-.8-2.8,0-.8,.8-.8,2,0,2.8l1.3,1.3c-.2,.4-.4,.8-.5,1.3h-1.9c-1.1,0-2,.9-2,2s.9,2,2,2h1.9c.1,.5,.3,.9,.5,1.3l-1.3,1.3c-.8,.8-.8,2,0,2.8,.4,.4,.9,.6,1.4,.6s1-.2,1.4-.6l1.3-1.3c.4,.2,.8,.4,1.3,.5v1.9c0,1.1,.9,2,2,2s2-.9,2-2v-1.9c.5-.1,.9-.3,1.3-.5l1.3,1.3c.4,.4,.9,.6,1.4,.6s1-.2,1.4-.6c.8-.8,.8-2,0-2.8l-1.3-1.3c.2-.4,.4-.8,.5-1.3h1.9c1.1,0,2-.9,2-2s-.9-2-2-2Zm-8.5,4.9c-1.6,0-2.9-1.3-2.9-2.9s1.3-2.9,2.9-2.9,2.9,1.3,2.9,2.9-1.3,2.9-2.9,2.9ZM35.9,5.2h-1.7v-1.2c0-1.1-.9-2-2-2H15.8c-1.1,0-2,.9-2,2v1.2h-1.7c-2.7,0-4.9,2.2-4.9,4.9v31c0,2.7,2.2,4.9,4.9,4.9h23.8c2.7,0,4.9-2.2,4.9-4.9V10.1c0-2.7-2.2-4.9-4.9-4.9Zm-18.1,.8h12.5v2.8h-2.7c-1,0-1.8,.8-2,1.7-.1,.9-.8,1.5-1.7,1.5s-1.6-.6-1.7-1.5c-.1-1-1-1.7-2-1.7h-2.5v-2.8Zm19.1,35.1c0,.5-.4,1-1,1H12.1c-.5,0-1-.4-1-1V10.1c0-.5,.4-1,1-1h1.7v1.6c0,1.1,.9,2,2,2h3c.9,1.9,2.9,3.3,5.1,3.3s4.2-1.3,5.1-3.3h3.2c1.1,0,2-.9,2-2v-1.6h1.7c.5,0,1,.4,1,1v31Z"/></svg>