<svg xmlns="http://www.w3.org/2000/svg" viewBox="0 0 48 48"><path fill="currentColor" d="M19.7,35.4c-.4-.2-.9-.3-1.3-.5-1.1-.5-2.4-.3-3.3,.6l-2.5,2.5-3.1-3.1,2.4-2.4c.9-.9,1.1-2.2,.6-3.4-.2-.4-.4-.9-.6-1.4-.4-1.2-1.5-1.9-2.7-1.9h-3.4v-4.4h3.3c1.2,0,2.4-.8,2.8-2,.2-.5,.4-1,.6-1.4,.5-1.1,.3-2.4-.5-3.3l-2.3-2.3,3.1-3.1,2.3,2.3c.9,.9,2.2,1.1,3.3,.6,.4-.2,.9-.4,1.3-.5,1.2-.4,2-1.5,2-2.8v-3.3h4.4v3.3c0,1.2,.8,2.3,1.9,2.8,.5,.2,1,.4,1.4,.6,1.1,.6,2.5,.3,3.4-.5l2.4-2.3,3.1,3.1-2.4,2.4c-.9,.9-1.1,2.2-.6,3.3,.2,.4,.3,.7,.4,1.1,2.2,.1,4.3,1,5.9,2.3l.4,.3c1.6,1.4,2.8,3.4,3.4,5.5,0-.3,.1-.6,.1-.9v-5.6c0-1.6-1.3-2.9-2.9-2.9h-3.6c-.1-.3-.2-.6-.4-.9l2.6-2.6c.6-.6,.9-1.3,.9-2.1,0-.8-.3-1.5-.8-2.1l-4-4c-.6-.6-1.3-.9-2.1-.9-.8,0-1.5,.3-2.1,.8l-2.5,2.5c-.3-.2-.7-.3-1-.4v-3.5c0-1.6-1.3-2.9-2.9-2.9h-5.6c-1.6,0-2.9,1.3-2.9,2.9v3.4c-.3,.1-.6,.2-.9,.4l-2.4-2.5c-.5-.6-1.3-.9-2.1-.9-.8,0-1.5,.3-2.1,.8l-4,3.9c-1.1,1.1-1.2,3,0,4.1l2.4,2.5c-.2,.3-.3,.7-.4,1h-3.5c-1.6,0-2.9,1.3-2.9,2.9v5.6c0,1.6,1.3,2.9,2.9,2.9h3.6c.1,.3,.3,.6,.4,1l-2.6,2.5c-.6,.6-.9,1.3-.9,2.1,0,.8,.3,1.5,.8,2.1l4,4c1.1,1.1,3,1.1,4.1,0l2.6-2.6c.3,.1,.6,.2,.8,.3v3.7c0,1.5,1.1,2.7,2.5,2.9,0-.3,0-.7,0-1,0-1.9,.4-3.7,1.1-5.4v-.7c0-1.2-.8-2.4-2-2.8Zm20.4-.6c1.2-1.3,2-3,2-4.9,0-3.9-3.2-7.1-7.1-7.1s-7.1,3.2-7.1,7.1,.7,3.6,2,4.9c-3.4,1.8-5.7,5.4-5.7,9.5,0,.5,.2,.9,.5,1.3,.3,.3,.8,.5,1.3,.5h18.1c.5,0,.9-.2,1.3-.5,.3-.3,.5-.8,.5-1.3,0-4.1-2.3-7.6-5.7-9.5Zm-5.1-8.4c2,0,3.6,1.6,3.6,3.6s-1.6,3.5-3.5,3.6c0,0-.1,0-.2,0-1.9,0-3.5-1.6-3.5-3.6s1.6-3.6,3.6-3.6Zm-7.1,16.1c.8-3.1,3.6-5.4,6.9-5.5,0,0,0,0,0,0,0,0,0,0,0,0s0,0,0,0c0,0,0,0,0,0,3.3,0,6.1,2.4,6.9,5.5h-14.1Zm-3.6-12.6c0-.6,0-1.2,.2-1.7-.2,0-.5,0-.7,0-2.6,0-4.7-2.1-4.7-4.7s2.1-4.7,4.7-4.7,3.7,1.2,4.4,3c.9-.8,2-1.4,3.1-1.8-1.3-2.8-4.2-4.7-7.5-4.7s-8.3,3.7-8.3,8.3,3.7,8.3,8.3,8.3,.5,0,.7,0c-.1-.6-.2-1.2-.2-1.8Z"/></svg>