<svg width="512" height="512" viewBox="0 0 512 512" fill="none" xmlns="http://www.w3.org/2000/svg"><path d="M451.441 59.21c-68.83-70.36-322.09-70.34-390.88 0-68.79 70.34-76.59 337.66 0 400.2 75.04 62.59 314.23 62.59 390.84 0 76.61-62.59 68.88-329.84.04-400.2z" fill="#3279BE"/><path opacity=".15" d="M395.13 26.35C293.5-9.6 116.83 1.35 60.58 59.19-2 123.28-12.91 343.72 40.16 434.39A366.005 366.005 0 00257.55 350c110.99-89.14 162.6-220.45 137.58-323.65z" fill="#fff"/><path d="M244.832 131.291c-4.102 3.047-5.332 6.27-5.332 8.613 0 2.461 1.406 5.918 6.094 9.141 4.57 3.105 7.968 8.555 7.968 15 0 9.961-8.085 17.988-17.988 17.988h-75.762a4.701 4.701 0 00-4.687 4.688v30.761a38.474 38.474 0 0114.063-2.636c25.253 0 42.187 23.086 42.187 46.875s-16.934 46.875-42.187 46.875c-4.981 0-9.727-.938-14.063-2.637v58.945a4.701 4.701 0 004.687 4.688h58.887a38.474 38.474 0 01-2.637-14.063c0-25.254 23.086-42.187 46.876-42.187 23.789 0 46.874 16.933 46.874 42.187 0 4.981-.937 9.727-2.636 14.063h30.762a4.701 4.701 0 004.687-4.688v-75.761c0-9.961 8.086-17.989 17.988-17.989 6.504 0 11.895 3.399 15 7.969 3.223 4.688 6.68 6.094 9.141 6.094 2.344 0 5.566-1.231 8.613-5.332 3.047-4.102 5.449-10.489 5.449-18.106 0-7.617-2.343-13.945-5.449-18.105-3.105-4.16-6.269-5.332-8.613-5.332-2.461 0-5.918 1.406-9.141 6.094-3.105 4.57-8.554 7.968-15 7.968-9.961 0-17.988-8.086-17.988-17.988v-47.637a4.7 4.7 0 00-4.687-4.687h-47.637c-9.961 0-17.989-8.086-17.989-17.988 0-6.504 3.399-11.895 7.969-15 4.688-3.223 6.094-6.68 6.094-9.141 0-2.344-1.23-5.567-5.332-8.613-4.102-3.047-10.488-5.508-18.105-5.508-7.618 0-13.946 2.344-18.106 5.449zm-16.875-22.5c9.492-7.09 21.856-11.074 34.981-11.074 13.124 0 25.488 3.984 34.98 11.074 9.492 7.09 16.582 17.93 16.582 31.113a35.9 35.9 0 01-2.871 14.063h26.309c18.105 0 32.812 14.707 32.812 32.812v26.309a35.874 35.874 0 0114.062-2.871c13.184 0 24.024 7.148 31.114 16.582 7.09 9.433 11.074 21.855 11.074 34.98 0 13.125-3.984 25.489-11.074 34.981s-17.93 16.582-31.114 16.582a35.892 35.892 0 01-14.062-2.871v54.433c0 18.106-14.707 32.813-32.812 32.813h-45.762c-10.957 0-19.864-8.906-19.864-19.863 0-5.918 2.637-10.84 5.801-14.18 2.461-2.52 3.575-5.391 3.575-8.145 0-5.8-6.27-14.062-18.75-14.062-12.481 0-18.75 8.262-18.75 14.062 0 2.754 1.113 5.567 3.574 8.145 3.222 3.34 5.8 8.262 5.8 14.18 0 10.957-8.906 19.863-19.863 19.863h-73.887c-18.105 0-32.812-14.707-32.812-32.813v-73.886c0-10.957 8.906-19.864 19.863-19.864 5.918 0 10.84 2.637 14.18 5.801 2.519 2.461 5.391 3.574 8.145 3.574 5.8 0 14.062-6.269 14.062-18.75 0-12.48-8.262-18.75-14.062-18.75-2.754 0-5.567 1.114-8.145 3.575-3.34 3.164-8.262 5.8-14.18 5.8-10.957 0-19.863-8.906-19.863-19.863v-45.762c0-18.105 14.707-32.812 32.812-32.812h54.434a35.9 35.9 0 01-2.871-14.063c0-13.183 7.148-24.023 16.582-31.113z" fill="#fff"/></svg>