<svg xmlns="http://www.w3.org/2000/svg" width="48" height="48" viewBox="0 0 48 48"><path d="M46.81 22.29L38.14 4.95c-.64-1.3-1.64-2.39-2.87-3.15S32.62.64 31.17.64H16.83c-1.45 0-2.87.4-4.1 1.16a7.787 7.787 0 00-2.87 3.15L1.19 22.29c-.36.72-.55 1.51-.55 2.32v14.95c0 2.07.82 4.05 2.28 5.51a7.84 7.84 0 005.51 2.29h31.14a7.782 7.782 0 007.78-7.78V24.63c0-.81-.19-1.61-.55-2.33zM14.51 7.27c.21-.43.54-.8.95-1.05.41-.25.88-.39 1.37-.38h14.34c.48 0 .96.13 1.37.38s.74.62.95 1.05l7.07 14.13H7.44l7.07-14.13zm27.65 32.3c0 .69-.27 1.35-.76 1.83-.49.49-1.15.76-1.83.76H8.43c-.69 0-1.35-.27-1.83-.76a2.59 2.59 0 01-.76-1.83V26.6h36.33v12.98zM24 36.97h10.38c.69 0 1.35-.27 1.83-.76s.76-1.15.76-1.83-.27-1.35-.76-1.83-1.15-.76-1.83-.76H24c-.69 0-1.35.27-1.83.76s-.76 1.15-.76 1.83.27 1.35.76 1.83 1.15.76 1.83.76zm-10.38 0c.51 0 1.01-.15 1.44-.44.43-.29.76-.69.96-1.16.2-.47.25-1 .15-1.5s-.35-.97-.71-1.33c-.36-.36-.83-.61-1.33-.71-.5-.1-1.02-.05-1.5.15s-.88.53-1.16.96c-.29.43-.44.93-.44 1.44a2.597 2.597 0 002.59 2.59z" fill="#2196f3"/></svg>