<svg xmlns="http://www.w3.org/2000/svg" width="512" height="512" viewBox="0 0 512 512"><path fill="#009ddc" fill-rule="evenodd" d="M358.59 77.08l31.31 31.31h-31.31V77.08z"/><path d="M454.07 168.81h-13.49v-45.58c0-3.94-1.56-7.71-4.35-10.5l-81.99-81.99a14.859 14.859 0 00-10.5-4.35H104.16c-18.05 0-32.74 14.69-32.74 32.74v109.68H57.93c-21.74 0-39.43 17.69-39.43 39.43v178.95c0 21.74 17.69 39.43 39.43 39.43h13.49v26.24c0 18.05 14.69 32.74 32.74 32.74h303.68c18.05 0 32.74-14.69 32.74-32.74v-26.24h13.49c21.74 0 39.43-17.69 39.43-39.43V208.24c0-21.74-17.69-39.43-39.43-39.43zM101.11 59.14c0-1.65 1.4-3.05 3.05-3.05h224.75v67.14c0 8.2 6.65 14.84 14.84 14.84h67.14v30.74H101.11V59.14zm309.78 393.72c0 1.65-1.4 3.05-3.05 3.05H104.16c-1.66 0-3.05-1.4-3.05-3.05v-26.24H410.9v26.24zm43.18-55.93H57.93c-5.28 0-9.74-4.46-9.74-9.74V208.24c0-5.28 4.46-9.74 9.74-9.74h396.14c5.28 0 9.74 4.46 9.74 9.74v178.95c0 5.28-4.46 9.74-9.74 9.74z" fill="#009ddc" fill-rule="evenodd"/><path d="M419.75 298.24v54.33c0 8.15-6.57 14.78-14.72 14.84l-41.61.35h-.47c-14.81 0-28.78-5.78-39.41-16.32-10.85-10.76-16.82-25.06-16.82-40.26v-26.56c0-30.94 25.33-56.32 56.46-56.58l41.61-.35h.13c8.14 0 14.77 6.56 14.84 14.72.07 8.2-6.52 14.9-14.72 14.97l-41.61.35c-14.9.13-27.02 12.19-27.02 26.9v26.56c0 7.23 2.86 14.04 8.04 19.18 5.02 4.98 11.59 7.72 18.51 7.72h.22l26.89-.22v-24.76h-8.55c-8.2 0-14.84-6.65-14.84-14.84s6.65-14.84 14.84-14.84h23.39c8.2 0 14.84 6.64 14.84 14.84zm-243.9 54.67c0 8.2-6.65 14.84-14.84 14.84H107.1c-8.2 0-14.84-6.65-14.84-14.84V242.87c0-8.2 6.65-14.84 14.84-14.84s14.84 6.65 14.84 14.84v95.2h39.07c8.2 0 14.84 6.65 14.84 14.84zm60.52-124.89c-31.2 0-56.58 25.38-56.58 56.58v26.56c0 31.2 25.38 56.58 56.58 56.58s56.58-25.38 56.58-56.58V284.6c0-31.2-25.38-56.58-56.58-56.58zm26.9 83.15c0 14.83-12.07 26.9-26.9 26.9s-26.9-12.07-26.9-26.9v-26.56c0-14.83 12.07-26.9 26.9-26.9s26.9 12.07 26.9 26.9v26.56zm30.63-222.9c0 8.2-6.65 14.84-14.84 14.84h-79.85c-8.2 0-14.84-6.65-14.84-14.84s6.65-14.84 14.84-14.84h79.85c8.2 0 14.84 6.65 14.84 14.84z" fill="#f58518" fill-rule="evenodd"/><path d="M293.9 136.63c0 8.2-6.65 14.84-14.84 14.84h-79.85c-8.2 0-14.84-6.65-14.84-14.84s6.65-14.84 14.84-14.84h79.85c8.2 0 14.84 6.65 14.84 14.84z" fill="#009ddc" fill-rule="evenodd"/><path d="M166.55 88.27c0 8.43-6.88 15.31-15.31 15.31s-15.31-6.88-15.31-15.31 6.88-15.31 15.31-15.31 15.31 6.88 15.31 15.31z" fill="#f58518" fill-rule="evenodd"/><path d="M166.55 136.63c0 8.43-6.88 15.31-15.31 15.31s-15.31-6.88-15.31-15.31 6.88-15.31 15.31-15.31 15.31 6.88 15.31 15.31z" fill="#009ddc" fill-rule="evenodd"/></svg>