<svg width="150" height="40" viewBox="0 0 150 40" fill="none" xmlns="http://www.w3.org/2000/svg"><g clip-path="url(#clip0_558_2571)"><path d="M26.332 21.894v9.77h-3.785v-9.467c0-2.67-1.218-4.157-3.482-4.157-2.502 0-4.159 1.758-4.159 4.36v9.263h-3.787v-9.466c0-2.67-1.25-4.157-3.515-4.157-2.468 0-4.157 1.758-4.157 4.36v9.263H-.34v-16.7h3.38l.034 1.96c1.218-1.553 2.84-2.297 4.936-2.297 2.365 0 4.36 1.114 5.408 2.94 1.318-1.96 3.345-2.94 5.948-2.94 4.294 0 6.964 2.737 6.964 7.268h.002zM49.56 10.603l3.753-.406v4.767h4.8v3.21h-4.8v7.741c0 1.69.778 2.637 2.332 2.637.676 0 1.453-.202 2.096-.507l1.047 3.042c-1.284.575-2.365.812-3.751.812-3.448 0-5.477-1.994-5.477-5.984V10.603zm27.983 4.361v16.7h-3.381l-.034-2.232c-1.284 1.623-3.516 2.603-6.085 2.603-4.901 0-8.282-3.583-8.282-8.721 0-5.14 3.38-8.722 8.282-8.722 2.603 0 4.8.98 6.085 2.603l.034-2.231h3.38zm-3.787 8.35c0-3.11-2.096-5.274-5.105-5.274-3.009 0-5.105 2.164-5.105 5.274s2.096 5.273 5.105 5.273c3.009 0 5.105-2.164 5.105-5.273zM98.089 8v23.663h-3.381l-.034-2.23c-1.285 1.622-3.516 2.602-6.152 2.602-4.733 0-8.215-3.448-8.215-8.721 0-5.274 3.482-8.722 8.215-8.722 2.4 0 4.462.811 5.78 2.163V8h3.787zm-3.787 15.314c0-3.11-2.096-5.274-5.105-5.274-3.009 0-5.105 2.164-5.105 5.274s2.096 5.273 5.105 5.273c3.009 0 5.105-2.164 5.105-5.273zm24.333-8.35v16.7h-3.381l-.034-2.232c-1.285 1.623-3.516 2.603-6.085 2.603-4.901 0-8.282-3.583-8.282-8.721 0-5.14 3.381-8.722 8.282-8.722 2.603 0 4.8.98 6.085 2.603l.034-2.231h3.381zm-3.787 8.35c0-3.11-2.096-5.274-5.105-5.274-3.009 0-5.105 2.164-5.105 5.274s2.096 5.273 5.105 5.273c3.009 0 5.105-2.164 5.105-5.273zm6.829-12.711l3.753-.406v4.767h4.8v3.21h-4.8v7.741c0 1.69.778 2.637 2.332 2.637.677 0 1.453-.202 2.096-.507l1.048 3.042c-1.285.575-2.366.812-3.752.812-3.448 0-5.477-1.994-5.477-5.984V10.603zm27.983 4.361v16.7h-3.381l-.034-2.232c-1.284 1.623-3.515 2.603-6.085 2.603-4.901 0-8.282-3.583-8.282-8.721 0-5.14 3.381-8.722 8.282-8.722 2.603 0 4.801.98 6.085 2.603l.034-2.231h3.381zm-3.787 8.35c0-3.11-2.096-5.274-5.105-5.274-3.008 0-5.105 2.164-5.105 5.274s2.097 5.273 5.105 5.273c3.009 0 5.105-2.164 5.105-5.273z" fill="#000"/><path d="M39.287 21.859v-7.147a8.728 8.728 0 017.147 7.147h-7.147z" fill="#F17463"/><path d="M46.551 23.502c-.098 4.729-3.967 8.535-8.719 8.535-4.752 0-8.721-3.907-8.721-8.722a8.722 8.722 0 018.534-8.717v3.609a5.096 5.096 0 00-4.692 3.655 5.146 5.146 0 00-.211 1.453c0 2.821 2.28 5.108 5.089 5.108a5.03 5.03 0 001.453-.211 5.104 5.104 0 003.628-4.711h3.639v.001z" fill="#000"/></g><defs><clipPath id="clip0_558_2571"><path fill="#fff" d="M0 0h150v40H0z"/></clipPath></defs></svg>