<svg data-name="Layer 1" xmlns="http://www.w3.org/2000/svg" viewBox="0 0 512 512"><path fill="#3279be" d="M451.44 59.21c-68.83-70.36-322.09-70.34-390.88 0s-76.59 337.66 0 400.2c75.04 62.59 314.23 62.59 390.84 0s68.88-329.84.04-400.2z"/><path style="isolation:isolate" fill="#fff" d="M395.13 26.35C293.5-9.6 116.83 1.35 60.58 59.19-2 123.28-12.91 343.72 40.16 434.39A366 366 0 00257.55 350c110.99-89.14 162.6-220.45 137.58-323.65z" opacity=".15"/><path fill="#fff" d="M257.55 337.45a39.09 39.09 0 00-39.09 39.08v.76a39.09 39.09 0 1039.09-39.84zM327.72 120a110.44 110.44 0 00-136 3.13 99.47 99.47 0 00-32.84 68.79h70.36a59.16 59.16 0 019.38-26.57 22.3 22.3 0 0118.8-9.35 21.07 21.07 0 0118.82 7.82 24 24 0 017.81 20.31 28.76 28.76 0 01-6.27 20.32l-29.7 31.36a107.27 107.27 0 00-20.32 25.08 53.49 53.49 0 00-4.68 26.57v32.81h67.29-.23v-25.11a48.1 48.1 0 013.13-17.2 49.06 49.06 0 0112.54-15.64l29.71-29.7c3.13-4.68 6.25-7.82 7.81-11l6.28-12.55a57.78 57.78 0 004.68-26.56A80.18 80.18 0 00327.72 120z"/></svg>