<svg xmlns="http://www.w3.org/2000/svg" viewBox="0 0 48 48"><path fill="currentColor" d="M24.2,26.1c-.9,0-1.7,.3-2.4,.8-.6,.6-1,1.4-1.1,2.3,0,1,.5,2,1.4,2.6v3h0v.3c0,.9,.8,1.7,1.8,1.8,0,0,0,0,.1,0,.5,0,.9-.2,1.2-.5,.4-.3,.6-.8,.6-1.3v-3.3c.8-.6,1.4-1.5,1.4-2.6,0-1.7-1.4-3-3.1-3.1Zm11.7-7.7h-2.8v-6.2c-.3-4.5-3.9-8.2-8.5-8.5-2.4-.2-4.8,.6-6.6,2.2-1.8,1.6-2.9,3.8-3.1,6.3v6.2h-2.8c-2.7,0-5,2.2-5,4.9v15.9c0,2.7,2.3,4.9,5.1,4.9h23.7c2.7,0,5-2.2,5-4.9v-15.9c0-2.7-2.3-4.9-5-4.9Zm-17.2-6.2c.2-2.6,2.3-4.7,4.9-4.9,2.9-.2,5.5,2,5.7,4.9v6.2h-10.6v-6.2Zm18.5,27c0,.4-.2,.7-.4,.9-.3,.2-.6,.4-1,.4H12.2c-.7,0-1.3-.6-1.4-1.3v-15.9c0-.4,.2-.7,.4-.9,.3-.2,.6-.4,1-.4h23.5c.3,0,.7,.1,1,.4,.3,.2,.4,.6,.4,.9v15.9Z"/></svg>