<svg xmlns="http://www.w3.org/2000/svg" viewBox="0 0 48 48"><path fill="currentColor" d="M22.58,34.59l-2.58,2.58V13.99c0-.53-.21-1.04-.59-1.41-.38-.38-.88-.59-1.41-.59s-1.04,.21-1.41,.59c-.38,.38-.59,.88-.59,1.41v23.2l-2.58-2.6c-.19-.19-.41-.34-.65-.44s-.51-.15-.77-.15-.53,.05-.77,.15-.46,.25-.65,.44c-.37,.37-.58,.88-.58,1.41s.21,1.04,.58,1.41l6,6c.19,.19,.41,.34,.65,.44,.24,.1,.51,.15,.77,.15s.53-.05,.77-.15c.24-.1,.46-.25,.65-.44l6-6c.37-.37,.58-.88,.58-1.41s-.21-1.04-.58-1.41c-.19-.19-.41-.34-.65-.44-.24-.1-.51-.15-.77-.15s-.53,.05-.77,.15c-.24,.1-.46,.25-.65,.44ZM44,5.99c0-.53-.21-1.04-.59-1.41-.38-.38-.88-.59-1.41-.59H6c-.53,0-1.04,.21-1.41,.59-.38,.38-.59,.88-.59,1.41v12c0,.53,.21,1.04,.59,1.41,.38,.38,.88,.59,1.41,.59h4c.53,0,1.04-.21,1.41-.59,.38-.38,.59-.88,.59-1.41s-.21-1.04-.59-1.41c-.38-.38-.88-.59-1.41-.59h-2V7.99H40V15.99h-14c-.53,0-1.04,.21-1.41,.59-.38,.38-.59,.88-.59,1.41s.21,1.04,.59,1.41c.38,.38,.88,.59,1.41,.59h2v10c0,.53,.21,1.04,.59,1.41s.88,.59,1.41,.59h12c.53,0,1.04-.21,1.41-.59s.59-.88,.59-1.41V5.99Zm-4,22h-8v-8h8v8Z"/></svg>