<svg xmlns="http://www.w3.org/2000/svg" viewBox="0 0 48 48"><path fill="currentColor" d="M38.8223 4.16406C40.1266 4.16415 41.3775 4.68226 42.2998 5.60449C43.2222 6.52692 43.7402 7.77849 43.7402 9.08301V18.4102C44.5626 18.4524 45.3436 18.7977 45.9287 19.3828C46.5543 20.0085 46.9053 20.8574 46.9053 21.7422V42.3135C46.9053 43.1983 46.5543 44.0472 45.9287 44.6729C45.3031 45.2985 44.4541 45.6494 43.5693 45.6494H30.9102C30.0254 45.6494 29.1764 45.2984 28.5508 44.6729C27.9251 44.0472 27.5732 43.1983 27.5732 42.3135V39.3203H8.75586C7.03175 39.3203 5.37833 38.6351 4.15918 37.416C2.94006 36.1969 2.25497 34.5434 2.25488 32.8193V31.2363C2.25495 30.3516 2.60683 29.5035 3.23242 28.8779C3.81757 28.2928 4.59752 27.9466 5.41992 27.9043V9.08301C5.41992 7.77849 5.93792 6.52692 6.86035 5.60449C7.78277 4.68212 9.0344 4.16406 10.3389 4.16406H38.8223ZM31.0811 42.1416H43.3975V21.9131H31.0811V42.1416ZM37.2393 35.8125C38.2079 35.8125 38.9932 36.5978 38.9932 37.5664C38.9931 38.535 38.2078 39.3203 37.2393 39.3203C36.2708 39.3202 35.4854 38.5349 35.4854 37.5664C35.4854 36.5979 36.2707 35.8126 37.2393 35.8125ZM5.7627 32.8193C5.76278 33.6131 6.07835 34.3743 6.63965 34.9355C7.20098 35.4968 7.96205 35.8125 8.75586 35.8125H27.5732V31.4082H5.7627V32.8193ZM10.3389 7.67188C9.9647 7.67188 9.60542 7.82041 9.34082 8.08496C9.07621 8.34957 8.92773 8.70879 8.92773 9.08301V27.9004H27.5732V21.7422C27.5732 20.8574 27.9251 20.0085 28.5508 19.3828C29.1764 18.7572 30.0254 18.4062 30.9102 18.4062H40.2324V9.08301C40.2324 8.70879 40.0839 8.34957 39.8193 8.08496C39.5548 7.82054 39.1963 7.67197 38.8223 7.67188H10.3389Z"/></svg>