<svg xmlns="http://www.w3.org/2000/svg" viewBox="0 0 48 48"><path fill="currentColor" d="M16 23C22.0751 23 27 27.9249 27 34C27 40.0751 22.0751 45 16 45C9.92487 45 5 40.0751 5 34C5 27.9249 9.92487 23 16 23ZM16 27C12.134 27 9 30.134 9 34C9 37.866 12.134 41 16 41C19.866 41 23 37.866 23 34C23 30.134 19.866 27 16 27ZM31 3C31.5304 3 32.039 3.21086 32.4141 3.58594L42.4141 13.5859C42.7891 13.961 43 14.4696 43 15V35C43 37.2091 41.2091 39 39 39H28.002C28.522 37.7531 28.8499 36.408 28.957 35H39V19H29C27.8954 19 27 18.1046 27 17V7H15V21.041C13.5922 21.1481 12.2468 21.4762 11 21.9961V7C11 4.79086 12.7909 3 15 3H31ZM15 29C16.1046 29 17 29.8954 17 31V33H19C20.1046 33 21 33.8954 21 35C21 36.1046 20.1046 37 19 37H15C13.8954 37 13 36.1046 13 35V31C13 29.8954 13.8954 29 15 29ZM31 15H38.1719L31 7.82812V15Z"/></svg>