<svg xmlns="http://www.w3.org/2000/svg" viewBox="0 0 48 48"><path fill="currentColor" d="M23.9996 4C29.3972 4 34.5519 6.07467 38.4888 9.68457L38.8658 10.0381L38.8941 10.0654L39.9996 11.1709V6C39.9996 4.89543 40.895 4 41.9996 4C43.1041 4 43.9996 4.89543 43.9996 6V16C43.9996 16.5304 43.7887 17.039 43.4136 17.4141C43.0386 17.7891 42.53 18 41.9996 18H31.9996C30.895 18 29.9996 17.1046 29.9996 16C29.9996 14.8954 30.895 14 31.9996 14H37.1705L36.0767 12.9062C32.8204 9.78383 28.5004 8 23.9996 8C20.8352 8 17.742 8.93836 15.1109 10.6963C12.4797 12.4544 10.4283 14.9534 9.21734 17.877C8.00638 20.8005 7.6899 24.0175 8.30718 27.1211C8.92455 30.2248 10.4485 33.0758 12.6861 35.3135C14.9237 37.5511 17.7748 39.075 20.8785 39.6924C23.9821 40.3097 27.1991 39.9932 30.1226 38.7822C33.0462 37.5712 35.5452 35.5198 37.3033 32.8887C39.0612 30.2576 39.9996 27.1643 39.9996 24C39.9996 22.8954 40.895 22 41.9996 22C43.1041 22 43.9996 22.8954 43.9996 24C43.9996 27.9555 42.827 31.8224 40.6294 35.1113C38.4318 38.4003 35.3074 40.9638 31.6529 42.4775C27.9985 43.9912 23.9776 44.3868 20.0982 43.6152C16.2186 42.8435 12.654 40.9396 9.85699 38.1426C7.05994 35.3455 5.15604 31.781 4.38433 27.9014C3.61274 24.022 4.00841 20.001 5.52203 16.3467C7.03575 12.6922 9.59934 9.56872 12.8882 7.37109C16.1772 5.17347 20.0439 4 23.9996 4Z"/></svg>