<svg xmlns="http://www.w3.org/2000/svg" viewBox="0 0 48 48"><path fill="currentColor" d="M10.16,11c.27,.27,.61,.45,.98,.52s.76,.04,1.11-.11c.35-.14,.65-.39,.86-.7,.21-.31,.32-.68,.32-1.06,0-.51-.2-.99-.56-1.35s-.85-.56-1.36-.56c-.38,0-.75,.11-1.07,.32-.32,.21-.56,.51-.71,.86-.15,.35-.18,.73-.11,1.11s.26,.71,.53,.98Zm22.49,19.69c-2.12,0-3.84,1.71-3.84,3.83s1.72,3.83,3.84,3.83,3.84-1.71,3.84-3.83-1.72-3.83-3.84-3.83ZM11.52,19.22c-.38,0-.75,.11-1.07,.32-.32,.21-.56,.51-.71,.86-.15,.35-.18,.73-.11,1.11,.07,.37,.26,.71,.53,.98,.27,.27,.61,.45,.98,.52,.37,.07,.76,.04,1.11-.11,.35-.14,.65-.39,.86-.7,.21-.31,.32-.68,.32-1.06,0-.51-.2-.99-.56-1.35s-.85-.56-1.36-.56Zm-1.36,14.74c.27,.27,.61,.45,.98,.52,.37,.07,.76,.04,1.11-.11s.65-.39,.86-.7c.21-.31,.32-.68,.32-1.06,0-.51-.2-.99-.56-1.35-.36-.36-.85-.56-1.36-.56-.38,0-.75,.11-1.07,.32-.32,.21-.56,.51-.71,.86-.15,.35-.18,.73-.11,1.11,.07,.37,.26,.71,.53,.98Zm24.4-10.76c0-.05,0-.11,0-.16v-3.83c0-1.42-.54-2.78-1.5-3.83,.96-1.05,1.49-2.41,1.5-3.83v-3.83c0-1.52-.61-2.98-1.69-4.06s-2.55-1.68-4.07-1.68H9.6c-1.53,0-2.99,.6-4.07,1.68s-1.69,2.54-1.69,4.06v3.83c0,1.42,.54,2.78,1.5,3.83-.96,1.05-1.49,2.41-1.5,3.83v3.83c0,1.42,.54,2.78,1.5,3.83-.96,1.05-1.49,2.41-1.5,3.83v3.83c0,1.52,.61,2.98,1.69,4.06s2.55,1.68,4.07,1.68h13.07c1.99,3.43,5.72,5.74,9.98,5.74,6.36,0,11.52-5.14,11.52-11.48,0-5.69-4.15-10.41-9.61-11.32ZM7.67,7.74c0-.51,.2-.99,.56-1.35,.36-.36,.85-.56,1.36-.56H28.8c.51,0,1,.2,1.36,.56,.36,.36,.56,.85,.56,1.35v3.83c0,.51-.2,.99-.56,1.35-.36,.36-.85,.56-1.36,.56H9.6c-.51,0-1-.2-1.36-.56-.36-.36-.56-.85-.56-1.35v-3.83Zm13.44,26.78c0,.65,.05,1.29,.16,1.91H9.6c-.51,0-1-.2-1.36-.56-.36-.36-.56-.85-.56-1.35v-3.83c0-.51,.2-.99,.56-1.35,.36-.36,.85-.56,1.36-.56h13.07c-.98,1.69-1.54,3.65-1.54,5.74Zm-11.52-9.57c-.51,0-1-.2-1.36-.56-.36-.36-.56-.85-.56-1.35v-3.83c0-.51,.2-.99,.56-1.35,.36-.36,.85-.56,1.36-.56H28.8c.51,0,1,.2,1.36,.56,.36,.36,.56,.85,.56,1.35v3.83c0,.05,0,.11,0,.16-1.62,.27-3.13,.88-4.44,1.75H9.6Zm23.05,17.22c-4.24,0-7.68-3.43-7.68-7.65s3.44-7.65,7.68-7.65,7.68,3.43,7.68,7.65-3.44,7.65-7.68,7.65Z"/></svg>