<svg xmlns="http://www.w3.org/2000/svg" viewBox="0 0 48 48"><path fill="currentColor" d="M44.85,19.26c-.52-1.62-2.25-2.52-3.87-2-1.2.38-1.99,1.43-2.12,2.6l-6.47,2.06c-1.32-2.77-3.96-4.77-7.11-5.2v-6.79c1.08-.48,1.83-1.56,1.83-2.81,0-1.7-1.38-3.08-3.08-3.08s-3.08,1.38-3.08,3.08c0,1.26.75,2.33,1.83,2.81v6.8c-3.19.43-5.85,2.48-7.15,5.29l-6.49-1.99c-.14-1.17-.95-2.21-2.15-2.58-1.63-.5-3.35.42-3.85,2.04-.5,1.63.42,3.35,2.04,3.85,1.2.37,2.45-.04,3.22-.93l6.5,1.99c-.08.49-.13.98-.13,1.49,0,2.57,1.05,4.9,2.74,6.58l-4.09,5.42c-1.15-.27-2.4.14-3.15,1.14-1.02,1.36-.75,3.29.6,4.32,1.36,1.02,3.29.75,4.31-.6.76-1,.8-2.32.23-3.35l4.09-5.42c1.34.75,2.88,1.19,4.53,1.19s3.21-.44,4.55-1.2l4.1,5.41c-.57,1.03-.52,2.35.24,3.35,1.03,1.36,2.96,1.62,4.32.59s1.62-2.96.59-4.32c-.76-1-2.01-1.4-3.16-1.13l-4.1-5.41c1.68-1.68,2.72-4,2.72-6.56,0-.54-.06-1.08-.15-1.6l6.47-2.06c.78.88,2.04,1.27,3.23.89,1.62-.52,2.52-2.25,2-3.87h.01Z"/></svg>