<svg xmlns="http://www.w3.org/2000/svg" viewBox="0 0 48 48"><path fill="currentColor" d="M42,39.98h-6c-.53,0-1.04-.21-1.41-.59-.37-.37-.59-.88-.59-1.41v-6c2.39-.02,4.69-.9,6.48-2.47,1.8-1.57,2.97-3.73,3.32-6.09,.34-2.36-.17-4.77-1.45-6.78-1.28-2.02-3.23-3.51-5.51-4.21-1.22-2.81-3.33-5.14-6-6.63-2.67-1.49-5.76-2.07-8.79-1.64-3.03,.43-5.84,1.84-7.99,4.02-2.15,2.18-3.53,5-3.93,8.03-1.91,.46-3.58,1.6-4.7,3.21-1.12,1.61-1.61,3.57-1.38,5.52,.23,1.95,1.17,3.74,2.64,5.04,1.47,1.3,3.36,2.02,5.32,2.01h2v6c0,.53-.21,1.04-.59,1.41s-.88,.59-1.41,.59H6.02c-.53,0-1.04,.21-1.41,.59-.37,.37-.59,.88-.59,1.41s.21,1.04,.59,1.41c.37,.37,.88,.59,1.41,.59h6c1.59,0,3.12-.63,4.24-1.76,1.12-1.12,1.76-2.65,1.76-4.24v-6h4v10c0,.53,.21,1.04,.59,1.41,.38,.37,.88,.59,1.41,.59s1.04-.21,1.41-.59c.38-.37,.59-.88,.59-1.41v-10h4v6c0,1.59,.63,3.12,1.76,4.24,1.12,1.12,2.65,1.76,4.24,1.76h6c.53,0,1.04-.21,1.41-.59,.38-.37,.59-.88,.59-1.41s-.21-1.04-.59-1.41c-.37-.37-.88-.59-1.41-.59ZM12.01,27.99c-1.06,0-2.08-.42-2.83-1.17s-1.17-1.77-1.17-2.83,.42-2.08,1.17-2.83,1.77-1.17,2.83-1.17c.53,0,1.04-.21,1.41-.59s.59-.88,.59-1.41c0-2.36,.85-4.65,2.38-6.45,1.53-1.8,3.65-3,5.98-3.39,2.33-.39,4.73,.07,6.76,1.28,2.03,1.21,3.56,3.1,4.33,5.34,.11,.34,.32,.65,.59,.89,.27,.24,.61,.39,.96,.45,1.39,.24,2.65,.96,3.56,2.03,.91,1.07,1.41,2.44,1.42,3.84,0,1.59-.63,3.12-1.76,4.24-1.12,1.12-2.65,1.76-4.24,1.76H12.01Z"/></svg>