<svg xmlns="http://www.w3.org/2000/svg" viewBox="0 0 48 48"><path fill="currentColor" d="M11.1667 6.27767V4.44434H7.5V6.27767V12.9999H11.1667V6.27767ZM25.8333 6.27767V4.44434H22.1667V6.27767V12.9999H25.8333V6.27767ZM3.83333 15.4443H2V19.111H3.83333H4.44444V23.9999C4.44444 30.1263 8.95139 35.1985 14.8333 36.0846V43.5555H18.5V36.0846C19.6611 35.9089 20.7688 35.5728 21.7924 35.0992C21.6319 34.2742 21.5556 33.4263 21.5556 32.5554C21.5556 32.0131 21.5861 31.4784 21.6472 30.9589C20.2493 31.9596 18.5229 32.5554 16.6667 32.5554C11.9382 32.5554 8.11111 28.7284 8.11111 23.9999V19.111H25.2222V23.3277C26.2764 22.2124 27.5139 21.2804 28.8889 20.5777V19.111H29.5H31.3333V15.4443H29.5H28.8889H25.2222H8.11111H4.44444H3.83333ZM35 43.5555C37.9174 43.5555 40.7153 42.3965 42.7782 40.3336C44.8411 38.2707 46 35.4728 46 32.5554C46 29.6381 44.8411 26.8402 42.7782 24.7773C40.7153 22.7144 37.9174 21.5554 35 21.5554C32.0826 21.5554 29.2847 22.7144 27.2218 24.7773C25.1589 26.8402 24 29.6381 24 32.5554C24 35.4728 25.1589 38.2707 27.2218 40.3336C29.2847 42.3965 32.0826 43.5555 35 43.5555ZM36.8333 26.4443L36.016 31.3332H41.1111L33.1667 38.6666L33.984 33.7777H28.8889L36.8333 26.4443Z"/></svg>