<svg xmlns="http://www.w3.org/2000/svg" viewBox="0 0 48 48"><path fill="currentColor" d="M28,18h-8c-.53,0-1.04,.21-1.41,.59-.38,.38-.59,.88-.59,1.41v8c0,.53,.21,1.04,.59,1.41,.38,.38,.88,.59,1.41,.59h8c.53,0,1.04-.21,1.41-.59s.59-.88,.59-1.41v-8c0-.53-.21-1.04-.59-1.41s-.88-.59-1.41-.59Zm-2,8h-4v-4h4v4Zm16,0c.53,0,1.04-.21,1.41-.59s.59-.88,.59-1.41-.21-1.04-.59-1.41-.88-.59-1.41-.59h-4v-4h4c.53,0,1.04-.21,1.41-.59s.59-.88,.59-1.41-.21-1.04-.59-1.41-.88-.59-1.41-.59h-4.36c-.3-.84-.78-1.6-1.41-2.23-.63-.63-1.39-1.11-2.23-1.41V6c0-.53-.21-1.04-.59-1.41s-.88-.59-1.41-.59-1.04,.21-1.41,.59-.59,.88-.59,1.41v4h-4V6c0-.53-.21-1.04-.59-1.41s-.88-.59-1.41-.59-1.04,.21-1.41,.59-.59,.88-.59,1.41v4h-4V6c0-.53-.21-1.04-.59-1.41-.38-.38-.88-.59-1.41-.59s-1.04,.21-1.41,.59c-.38,.38-.59,.88-.59,1.41v4.36c-.84,.3-1.6,.78-2.23,1.41s-1.11,1.39-1.41,2.23H6c-.53,0-1.04,.21-1.41,.59-.38,.38-.59,.88-.59,1.41s.21,1.04,.59,1.41c.38,.38,.88,.59,1.41,.59h4v4H6c-.53,0-1.04,.21-1.41,.59-.38,.38-.59,.88-.59,1.41s.21,1.04,.59,1.41c.38,.38,.88,.59,1.41,.59h4v4H6c-.53,0-1.04,.21-1.41,.59-.38,.38-.59,.88-.59,1.41s.21,1.04,.59,1.41c.38,.38,.88,.59,1.41,.59h4.36c.3,.84,.78,1.6,1.41,2.23,.63,.63,1.39,1.11,2.23,1.41v4.36c0,.53,.21,1.04,.59,1.41,.38,.38,.88,.59,1.41,.59s1.04-.21,1.41-.59c.38-.38,.59-.88,.59-1.41v-4h4v4c0,.53,.21,1.04,.59,1.41s.88,.59,1.41,.59,1.04-.21,1.41-.59,.59-.88,.59-1.41v-4h4v4c0,.53,.21,1.04,.59,1.41s.88,.59,1.41,.59,1.04-.21,1.41-.59,.59-.88,.59-1.41v-4.36c.84-.3,1.6-.78,2.23-1.41s1.11-1.39,1.41-2.23h4.36c.53,0,1.04-.21,1.41-.59s.59-.88,.59-1.41-.21-1.04-.59-1.41-.88-.59-1.41-.59h-4v-4h4Zm-8,6c0,.53-.21,1.04-.59,1.41s-.88,.59-1.41,.59H16c-.53,0-1.04-.21-1.41-.59-.38-.38-.59-.88-.59-1.41V16c0-.53,.21-1.04,.59-1.41,.38-.38,.88-.59,1.41-.59h16c.53,0,1.04,.21,1.41,.59s.59,.88,.59,1.41v16Z"/></svg>