<svg xmlns="http://www.w3.org/2000/svg" viewBox="0 0 48 48"><path fill="currentColor" d="M16,12.02c.4,0,.78-.12,1.11-.34,.33-.22,.59-.53,.74-.9,.15-.37,.19-.77,.11-1.16-.08-.39-.27-.74-.55-1.02-.28-.28-.64-.47-1.02-.55-.39-.08-.79-.04-1.16,.11-.37,.15-.68,.41-.9,.74-.22,.33-.34,.72-.34,1.11,0,.53,.21,1.04,.59,1.41,.38,.38,.88,.59,1.41,.59Zm26,26h-12.36c-.3-.84-.78-1.6-1.41-2.23-.63-.63-1.39-1.11-2.23-1.41v-4.36h8c1.59,0,3.12-.63,4.24-1.76,1.13-1.13,1.76-2.65,1.76-4.24v-4c0-1.48-.56-2.9-1.56-4,1-1.1,1.55-2.52,1.56-4v-4c0-1.59-.63-3.12-1.76-4.24-1.13-1.13-2.65-1.76-4.24-1.76H14c-1.59,0-3.12,.63-4.24,1.76-1.13,1.13-1.76,2.65-1.76,4.24v4c0,1.48,.56,2.9,1.56,4-1,1.1-1.55,2.52-1.56,4v4c0,1.59,.63,3.12,1.76,4.24,1.13,1.13,2.65,1.76,4.24,1.76h8v4.36c-.84,.3-1.6,.78-2.23,1.41-.63,.63-1.11,1.39-1.41,2.23H6c-.53,0-1.04,.21-1.41,.59-.38,.38-.59,.88-.59,1.41s.21,1.04,.59,1.41c.38,.38,.88,.59,1.41,.59h12.36c.42,1.16,1.19,2.16,2.2,2.87,1.01,.71,2.21,1.09,3.44,1.09s2.43-.38,3.44-1.09c1.01-.71,1.78-1.71,2.2-2.87h12.36c.53,0,1.04-.21,1.41-.59s.59-.88,.59-1.41-.21-1.04-.59-1.41-.88-.59-1.41-.59ZM12,8.02c0-.53,.21-1.04,.59-1.41,.38-.38,.88-.59,1.41-.59h20c.53,0,1.04,.21,1.41,.59,.38,.38,.59,.88,.59,1.41v4c0,.53-.21,1.04-.59,1.41-.38,.38-.88,.59-1.41,.59H14c-.53,0-1.04-.21-1.41-.59-.38-.38-.59-.88-.59-1.41v-4Zm2,18c-.53,0-1.04-.21-1.41-.59-.38-.38-.59-.88-.59-1.41v-4c0-.53,.21-1.04,.59-1.41,.38-.38,.88-.59,1.41-.59h20c.53,0,1.04,.21,1.41,.59,.38,.38,.59,.88,.59,1.41v4c0,.53-.21,1.04-.59,1.41s-.88,.59-1.41,.59H14Zm10,16c-.4,0-.78-.12-1.11-.34-.33-.22-.59-.53-.74-.9-.15-.37-.19-.77-.11-1.16,.08-.39,.27-.74,.55-1.02,.28-.28,.64-.47,1.02-.55,.39-.08,.79-.04,1.16,.11,.37,.15,.68,.41,.9,.74,.22,.33,.34,.72,.34,1.11,0,.53-.21,1.04-.59,1.41s-.88,.59-1.41,.59Zm-8-22c-.4,0-.78,.12-1.11,.34-.33,.22-.59,.53-.74,.9-.15,.37-.19,.77-.11,1.16,.08,.39,.27,.74,.55,1.02,.28,.28,.64,.47,1.02,.55,.39,.08,.79,.04,1.16-.11,.37-.15,.68-.41,.9-.74,.22-.33,.34-.72,.34-1.11,0-.53-.21-1.04-.59-1.41-.38-.38-.88-.59-1.41-.59h0Z"/></svg>