<svg xmlns="http://www.w3.org/2000/svg" viewBox="0 0 48 48"><path fill="currentColor" d="M10.38,31.3c-.41,0-.82,.12-1.16,.35-.34,.23-.61,.56-.77,.94-.16,.38-.2,.8-.12,1.21,.08,.4,.28,.78,.57,1.07,.29,.29,.67,.49,1.07,.57,.41,.08,.83,.04,1.21-.12,.38-.16,.71-.43,.94-.77s.35-.75,.35-1.16c0-.55-.22-1.08-.61-1.48-.39-.39-.93-.61-1.48-.61Zm0-12.52c-.41,0-.82,.12-1.16,.35-.34,.23-.61,.56-.77,.94-.16,.38-.2,.8-.12,1.21,.08,.4,.28,.78,.57,1.07,.29,.29,.67,.49,1.07,.57,.41,.08,.83,.04,1.21-.12,.38-.16,.71-.43,.94-.77,.23-.34,.35-.75,.35-1.16,0-.55-.22-1.08-.61-1.48-.39-.39-.93-.61-1.48-.61Zm0-12.52c-.41,0-.82,.12-1.16,.35s-.61,.56-.77,.94-.2,.8-.12,1.21c.08,.4,.28,.78,.57,1.07,.29,.29,.67,.49,1.07,.57,.41,.08,.83,.04,1.21-.12,.38-.16,.71-.43,.94-.77,.23-.34,.35-.75,.35-1.16,0-.55-.22-1.08-.61-1.48-.39-.39-.93-.61-1.48-.61Zm25.14,0c0-1.66-.66-3.25-1.84-4.43-1.18-1.17-2.78-1.83-4.44-1.83H8.29c-1.67,0-3.27,.66-4.44,1.83-1.18,1.17-1.84,2.77-1.84,4.43v4.17c0,1.54,.59,3.03,1.63,4.17-1.04,1.14-1.63,2.63-1.63,4.17v4.17c0,1.54,.59,3.03,1.63,4.17-1.04,1.14-1.63,2.63-1.63,4.17v4.17c0,1.66,.66,3.25,1.84,4.43,1.18,1.17,2.78,1.83,4.44,1.83h14.25c2.17,3.74,6.24,6.26,10.89,6.26,6.94,0,12.57-5.61,12.57-12.52,0-6.21-4.53-11.36-10.48-12.35,0-.06,0-.11,0-.17v-4.17c0-1.54-.59-3.03-1.63-4.17,1.04-1.14,1.62-2.63,1.63-4.17V6.26Zm-12.98,22.96H8.29c-.56,0-1.09,.22-1.48,.61s-.61,.92-.61,1.48v4.17c0,.55,.22,1.08,.61,1.48,.39,.39,.93,.61,1.48,.61h12.75c-.11-.68-.17-1.38-.17-2.09,0-2.28,.61-4.42,1.68-6.26Zm3.94-4.17H8.29c-.56,0-1.09-.22-1.48-.61-.39-.39-.61-.92-.61-1.48v-4.17c0-.55,.22-1.08,.61-1.48s.93-.61,1.48-.61H29.24c.56,0,1.09,.22,1.48,.61,.39,.39,.61,.92,.61,1.48v4.17c0,.06,0,.12,0,.17-1.77,.3-3.41,.96-4.85,1.91Zm4.86-14.61c0,.55-.22,1.08-.61,1.48-.39,.39-.93,.61-1.48,.61H8.29c-.56,0-1.09-.22-1.48-.61-.39-.39-.61-.92-.61-1.48V6.26c0-.55,.22-1.08,.61-1.48s.93-.61,1.48-.61H29.24c.56,0,1.09,.22,1.48,.61,.39,.39,.61,.92,.61,1.48v4.17Zm2.1,16.7c-4.63,0-8.38,3.74-8.38,8.35s3.75,8.35,8.38,8.35,8.38-3.74,8.38-8.35-3.75-8.35-8.38-8.35Zm4.19,8.35c0,2.31-1.88,4.17-4.19,4.17s-4.19-1.87-4.19-4.17,1.88-4.17,4.19-4.17,4.19,1.87,4.19,4.17Z"/></svg>