<svg xmlns="http://www.w3.org/2000/svg" viewBox="0 0 48 48"><path fill="currentColor" d="M9.05,30.99c.34-.22,.74-.34,1.14-.34,.54,0,1.06,.22,1.44,.6,.38,.38,.6,.9,.6,1.44,0,.4-.12,.8-.34,1.14s-.54,.6-.92,.76-.78,.2-1.18,.12c-.4-.08-.76-.28-1.04-.56-.28-.28-.48-.64-.56-1.04-.08-.4-.04-.8,.12-1.18,.16-.38,.42-.7,.76-.92l-.02-.02Zm0-12.25c.34-.22,.74-.34,1.14-.34,.54,0,1.06,.22,1.44,.6,.38,.38,.6,.9,.6,1.44,0,.4-.12,.8-.34,1.14s-.54,.6-.92,.76-.78,.2-1.18,.12c-.4-.08-.76-.28-1.04-.56-.28-.28-.48-.64-.56-1.04-.08-.4-.04-.8,.12-1.18,.16-.38,.42-.7,.76-.92l-.02-.02Zm0-12.25c.34-.22,.74-.34,1.14-.34,.54,0,1.06,.22,1.44,.6,.38,.38,.6,.9,.6,1.44,0,.4-.12,.8-.34,1.14s-.54,.6-.92,.76-.78,.2-1.18,.12c-.4-.08-.76-.28-1.04-.56-.28-.28-.48-.64-.56-1.04-.08-.4-.04-.8,.12-1.18,.16-.38,.42-.7,.76-.92l-.02-.02ZM32.94,1.82c1.16,1.14,1.8,2.7,1.8,4.34v4.08c0,1.52-.58,2.96-1.6,4.08,1.02,1.12,1.58,2.58,1.6,4.08v3.22c6.38,.98,11.26,6.48,11.26,13.11,0,7.34-5.96,13.27-13.29,13.27-5.14,0-9.58-2.9-11.8-7.14H8.15c-1.62,0-3.18-.64-4.34-1.8-1.16-1.14-1.8-2.7-1.8-4.34v-4.08c0-1.52,.58-2.96,1.6-4.08-1.02-1.12-1.58-2.58-1.6-4.08v-4.08c0-1.52,.58-2.96,1.6-4.08-1.02-1.12-1.58-2.58-1.6-4.08V6.14c0-1.62,.64-3.18,1.8-4.34,1.16-1.14,2.72-1.8,4.34-1.8H28.6c1.62,0,3.18,.64,4.34,1.8v.02ZM8.15,28.61h12.75c-.96,1.84-1.5,3.92-1.5,6.12,0,.7,.06,1.38,.16,2.04H8.15c-.54,0-1.06-.22-1.44-.6-.38-.38-.6-.9-.6-1.44v-4.08c0-.54,.22-1.06,.6-1.44,.38-.38,.9-.6,1.44-.6Zm0-4.08H24.2c1.8-1.5,4.02-2.54,6.46-2.9v-3.22c0-.54-.22-1.06-.6-1.44s-.9-.6-1.44-.6H8.15c-.54,0-1.06,.22-1.44,.6-.38,.38-.6,.9-.6,1.44v4.08c0,.54,.22,1.06,.6,1.44,.38,.38,.9,.6,1.44,.6ZM30.06,11.68c.38-.38,.6-.9,.6-1.44V6.14c0-.54-.22-1.06-.6-1.44-.38-.38-.9-.6-1.44-.6H8.15c-.54,0-1.06,.22-1.44,.6s-.6,.9-.6,1.44v4.08c0,.54,.22,1.06,.6,1.44,.38,.38,.9,.6,1.44,.6H28.6c.54,0,1.06-.22,1.44-.6l.02,.02Zm2.64,14.21c-4.9,0-8.86,3.96-8.86,8.86s3.98,8.86,8.86,8.86,8.86-3.96,8.86-8.86-3.98-8.86-8.86-8.86Zm1.02,3.74c0-1.12-.92-2.04-2.04-2.04s-2.04,.92-2.04,2.04v6.12c0,1.12,.92,2.04,2.04,2.04h6.14c1.14,0,2.04-.92,2.04-2.04s-.92-2.04-2.04-2.04h-4.1v-4.08Z"/></svg>