<svg xmlns="http://www.w3.org/2000/svg" viewBox="0 0 48 48"><path fill="currentColor" d="M30,34c-.4,0-.78,.12-1.11,.34-.33,.22-.59,.53-.74,.9-.15,.37-.19,.77-.11,1.16,.08,.39,.27,.74,.55,1.02,.28,.28,.64,.47,1.02,.55,.39,.08,.79,.04,1.16-.11,.37-.15,.68-.41,.9-.74,.22-.33,.34-.72,.34-1.11,0-.53-.21-1.04-.59-1.41s-.88-.59-1.41-.59Zm-12,0h-6c-.53,0-1.04,.21-1.41,.59-.38,.38-.59,.88-.59,1.41s.21,1.04,.59,1.41c.38,.38,.88,.59,1.41,.59h6c.53,0,1.04-.21,1.41-.59,.38-.38,.59-.88,.59-1.41s-.21-1.04-.59-1.41c-.38-.38-.88-.59-1.41-.59Zm18,0c-.4,0-.78,.12-1.11,.34-.33,.22-.59,.53-.74,.9-.15,.37-.19,.77-.11,1.16,.08,.39,.27,.74,.55,1.02,.28,.28,.64,.47,1.02,.55,.39,.08,.79,.04,1.16-.11,.37-.15,.68-.41,.9-.74,.22-.33,.34-.72,.34-1.11,0-.53-.21-1.04-.59-1.41s-.88-.59-1.41-.59Zm-6-12c-.4,0-.78,.12-1.11,.34-.33,.22-.59,.53-.74,.9-.15,.37-.19,.77-.11,1.16s.27,.74,.55,1.02c.28,.28,.64,.47,1.02,.55s.79,.04,1.16-.11c.37-.15,.68-.41,.9-.74,.22-.33,.34-.72,.34-1.11,0-.53-.21-1.04-.59-1.41s-.88-.59-1.41-.59Zm-12,0h-6c-.53,0-1.04,.21-1.41,.59-.38,.38-.59,.88-.59,1.41s.21,1.04,.59,1.41c.38,.38,.88,.59,1.41,.59h6c.53,0,1.04-.21,1.41-.59,.38-.38,.59-.88,.59-1.41s-.21-1.04-.59-1.41c-.38-.38-.88-.59-1.41-.59Zm18-12c-.4,0-.78,.12-1.11,.34-.33,.22-.59,.53-.74,.9-.15,.37-.19,.77-.11,1.16,.08,.39,.27,.74,.55,1.02,.28,.28,.64,.47,1.02,.55,.39,.08,.79,.04,1.16-.11,.37-.15,.68-.41,.9-.74,.22-.33,.34-.72,.34-1.11,0-.53-.21-1.04-.59-1.41-.38-.38-.88-.59-1.41-.59Zm0,12c-.4,0-.78,.12-1.11,.34-.33,.22-.59,.53-.74,.9-.15,.37-.19,.77-.11,1.16,.08,.39,.27,.74,.55,1.02,.28,.28,.64,.47,1.02,.55,.39,.08,.79,.04,1.16-.11,.37-.15,.68-.41,.9-.74,.22-.33,.34-.72,.34-1.11,0-.53-.21-1.04-.59-1.41s-.88-.59-1.41-.59Zm8-12c0-1.59-.63-3.12-1.76-4.24-1.13-1.13-2.65-1.76-4.24-1.76H10c-1.59,0-3.12,.63-4.24,1.76s-1.76,2.65-1.76,4.24v4c0,1.48,.56,2.9,1.56,4-1,1.1-1.55,2.52-1.56,4v4c0,1.48,.56,2.9,1.56,4-1,1.1-1.55,2.52-1.56,4v4c0,1.59,.63,3.12,1.76,4.24,1.13,1.13,2.65,1.76,4.24,1.76h28c1.59,0,3.12-.63,4.24-1.76,1.13-1.13,1.76-2.65,1.76-4.24v-4c0-1.48-.56-2.9-1.56-4,1-1.1,1.55-2.52,1.56-4v-4c0-1.48-.56-2.9-1.56-4,1-1.1,1.55-2.52,1.56-4v-4Zm-4,28c0,.53-.21,1.04-.59,1.41s-.88,.59-1.41,.59H10c-.53,0-1.04-.21-1.41-.59-.38-.38-.59-.88-.59-1.41v-4c0-.53,.21-1.04,.59-1.41,.38-.38,.88-.59,1.41-.59h28c.53,0,1.04,.21,1.41,.59s.59,.88,.59,1.41v4Zm0-12c0,.53-.21,1.04-.59,1.41s-.88,.59-1.41,.59H10c-.53,0-1.04-.21-1.41-.59-.38-.38-.59-.88-.59-1.41v-4c0-.53,.21-1.04,.59-1.41,.38-.38,.88-.59,1.41-.59h28c.53,0,1.04,.21,1.41,.59s.59,.88,.59,1.41v4Zm0-12c0,.53-.21,1.04-.59,1.41-.38,.38-.88,.59-1.41,.59H10c-.53,0-1.04-.21-1.41-.59-.38-.38-.59-.88-.59-1.41v-4c0-.53,.21-1.04,.59-1.41,.38-.38,.88-.59,1.41-.59h28c.53,0,1.04,.21,1.41,.59,.38,.38,.59,.88,.59,1.41v4Zm-10-4c-.4,0-.78,.12-1.11,.34-.33,.22-.59,.53-.74,.9-.15,.37-.19,.77-.11,1.16,.08,.39,.27,.74,.55,1.02,.28,.28,.64,.47,1.02,.55,.39,.08,.79,.04,1.16-.11,.37-.15,.68-.41,.9-.74,.22-.33,.34-.72,.34-1.11,0-.53-.21-1.04-.59-1.41-.38-.38-.88-.59-1.41-.59Zm-12,0h-6c-.53,0-1.04,.21-1.41,.59-.38,.38-.59,.88-.59,1.41s.21,1.04,.59,1.41c.38,.38,.88,.59,1.41,.59h6c.53,0,1.04-.21,1.41-.59,.38-.38,.59-.88,.59-1.41s-.21-1.04-.59-1.41c-.38-.38-.88-.59-1.41-.59Z"/></svg>