<svg xmlns="http://www.w3.org/2000/svg" viewBox="0 0 48 48"><path fill="currentColor" d="M25.97,30.56v-9.56c0-.53-.21-1.04-.59-1.41-.38-.38-.88-.59-1.41-.59s-1.04.21-1.41.59c-.38.38-.59.88-.59,1.41v9.56c-.6.35-1.11.85-1.46,1.45-.35.6-.54,1.29-.54,1.99,0,1.06.42,2.08,1.17,2.83s1.77,1.17,2.83,1.17,2.08-.42,2.83-1.17,1.17-1.77,1.17-2.83c0-.7-.19-1.38-.54-1.99-.35-.6-.85-1.1-1.46-1.45ZM35.89,32.17c-.35-2.29-1.37-4.44-2.91-6.17v-15c0-2.39-.95-4.68-2.64-6.36-1.69-1.69-3.98-2.64-6.36-2.64s-4.68.95-6.36,2.64c-1.69,1.69-2.64,3.98-2.64,6.36v15c-1.38,1.57-2.33,3.47-2.75,5.51-.42,2.05-.3,4.17.34,6.15s1.8,3.77,3.35,5.17c1.55,1.4,3.44,2.38,5.48,2.82.85.19,1.71.31,2.58.34,2.32.01,4.6-.65,6.55-1.91,1.95-1.26,3.5-3.05,4.45-5.17.95-2.12,1.27-4.46.92-6.76ZM31.1,37.69c-.52,1.01-1.24,1.9-2.13,2.61v-.16c-1.59,1.41-3.68,2.13-5.8,2-2.12-.13-4.11-1.09-5.52-2.68-1.41-1.59-2.13-3.68-2-5.8.13-2.12,1.09-4.11,2.68-5.52.19-.19.34-.41.44-.65.1-.24.16-.51.16-.77v-15.72c0-1.33.53-2.6,1.46-3.54.94-.94,2.21-1.46,3.54-1.46s2.6.53,3.54,1.46,1.46,2.21,1.46,3.54v15.88c0,.26.05.53.16.77.1.24.25.46.44.65.82.79,1.46,1.74,1.88,2.8.42,1.06.61,2.19.56,3.33-.05,1.14-.35,2.25-.86,3.26Z"/></svg>