<svg xmlns="http://www.w3.org/2000/svg" viewBox="0 0 48 48"><path fill="currentColor" d="M43.9,25.4c-.4-.9-4.9-10.1-6.2-12.6-.6-1.2-1.7-2.4-3.3-2.9-.3-1.6-1.3-2.3-1.9-2.6-1.6-.7-3.5,0-4.6,1.2-.6,.7-.6,1.6-.3,2.3l.3,.8c-.8,.9-1.2,2-1.3,3.2h-5c0-1.2-.5-2.2-1.2-3.1l.4-.8h0c.2-.8,.3-2.1-.8-2.9-1.1-.8-3-1.5-4.5-.7-.7,.4-1.5,1.1-1.7,2.6-1.6,.5-2.6,1.8-3.3,2.9-1.4,2.5-5.8,11.7-6.2,12.6-1.2,1.6-1.9,3.6-1.9,5.8,0,5.5,4.5,10,10,10s8.1-2.9,9.5-6.8h4.5c1.3,3.9,5.1,6.8,9.5,6.8s10-4.5,10-10-.7-4.1-1.9-5.8ZM13.4,14.5c.8-1.5,1.7-1.6,2.9-1.3,.7,.2,1.6,.6,1.7,1.8,0,1,.2,4.8,.4,8.2-1.7-1.3-3.8-2.1-6.1-2.1s-1.6,.1-2.4,.3c1.3-2.8,2.8-5.8,3.5-7Zm-1.1,23.2c-3.6,0-6.5-2.9-6.5-6.5s2.9-6.5,6.5-6.5,6.5,2.9,6.5,6.5-2.9,6.5-6.5,6.5Zm13.6-8.5c-.1,.5-.2,1.1-.2,1.7h-3.5c0-.6,0-1.1-.2-1.7h0c0-.1,0-.7,0-1.7h3.9c0,1,0,1.6,0,1.7h0Zm.2-5.2h-4.2c0-1.9-.2-4-.2-5.7h4.7c0,1.7-.2,3.8-.2,5.7Zm3.9-9c0-1.2,1-1.6,1.7-1.8,1.2-.3,2.1-.2,2.9,1.3,.7,1.2,2.1,4.2,3.5,7-.8-.2-1.6-.3-2.4-.3-2.3,0-4.4,.8-6.1,2.1,.1-3.4,.3-7.2,.4-8.2Zm5.7,22.7c-3.6,0-6.5-2.9-6.5-6.5s2.9-6.5,6.5-6.5,6.5,2.9,6.5,6.5-2.9,6.5-6.5,6.5Z"/></svg>