<svg xmlns="http://www.w3.org/2000/svg" viewBox="0 0 48 48"><path fill="currentColor" d="m43.96,19.34c-.13-.37-.36-.69-.66-.93-.31-.24-.67-.38-1.06-.42l-11.38-1.66-5.1-10.34c-.16-.34-.42-.62-.74-.82-.32-.2-.69-.31-1.06-.31s-.74.11-1.06.31c-.32.2-.57.48-.74.82l-5.1,10.32-11.38,1.68c-.37.05-.72.21-1,.45-.29.24-.5.56-.62.91-.11.35-.12.72-.03,1.07.09.35.27.67.53.93l8.26,8-2,11.36c-.07.37-.03.76.11,1.12.14.35.38.66.69.88.3.22.66.34,1.03.37.37.02.74-.05,1.07-.23l10.24-5.34,10.2,5.36c.28.16.6.24.92.24.42,0,.84-.13,1.18-.38.31-.22.55-.53.69-.88s.18-.74.11-1.12l-2-11.36,8.26-8c.29-.24.5-.57.62-.93.11-.36.12-.75.02-1.11Z"/></svg>