<svg xmlns="http://www.w3.org/2000/svg" viewBox="0 0 48 48"><path fill="currentColor" d="M34,38c.4,0,.8-.1,1.1-.3,.3-.2,.6-.5,.7-.9s.2-.8,.1-1.2c0-.4-.3-.7-.5-1-.3-.3-.6-.5-1-.5-.4,0-.8,0-1.2,.1s-.7,.4-.9,.7c-.2,.3-.3,.7-.3,1.1s.2,1,.6,1.4,.9,.6,1.4,.6Zm0-8c.4,0,.8-.1,1.1-.3,.3-.2,.6-.5,.7-.9,.2-.4,.2-.8,.1-1.2,0-.4-.3-.7-.5-1-.3-.3-.6-.5-1-.5-.4,0-.8,0-1.2,.1s-.7,.4-.9,.7c-.2,.3-.3,.7-.3,1.1s.2,1,.6,1.4,.9,.6,1.4,.6Zm-10,0c.4,0,.8-.1,1.1-.3,.3-.2,.6-.5,.7-.9,.2-.4,.2-.8,.1-1.2,0-.4-.3-.7-.5-1-.3-.3-.6-.5-1-.5-.4,0-.8,0-1.2,.1-.4,.2-.7,.4-.9,.7-.2,.3-.3,.7-.3,1.1s.2,1,.6,1.4,.9,.6,1.4,.6Zm-10,8c.4,0,.8-.1,1.1-.3,.3-.2,.6-.5,.7-.9s.2-.8,.1-1.2c0-.4-.3-.7-.5-1-.3-.3-.6-.5-1-.5-.4,0-.8,0-1.2,.1s-.7,.4-.9,.7c-.2,.3-.3,.7-.3,1.1s.2,1,.6,1.4c.4,.4,.9,.6,1.4,.6ZM42.2,7.8c-1.1-1.1-2.7-1.8-4.2-1.8h-2V4c0-.5-.2-1-.6-1.4-.4-.4-.9-.6-1.4-.6s-1,.2-1.4,.6c-.4,.4-.6,.9-.6,1.4v2h-16V4c0-.5-.2-1-.6-1.4-.4-.4-.9-.6-1.4-.6s-1,.2-1.4,.6c-.4,.4-.6,.9-.6,1.4v2h-2c-1.6,0-3.1,.6-4.2,1.8s-1.8,2.7-1.8,4.2v28c0,1.6,.6,3.1,1.8,4.2,1.1,1.1,2.7,1.8,4.2,1.8h28c1.6,0,3.1-.6,4.2-1.8,1.1-1.1,1.8-2.7,1.8-4.2V12c0-1.6-.6-3.1-1.8-4.2Zm-2.2,32.2c0,.5-.2,1-.6,1.4s-.9,.6-1.4,.6H10c-.5,0-1-.2-1.4-.6-.4-.4-.6-.9-.6-1.4V22h32v18Zm0-22H8v-6c0-.5,.2-1,.6-1.4,.4-.4,.9-.6,1.4-.6h2v2c0,.5,.2,1,.6,1.4,.4,.4,.9,.6,1.4,.6s1-.2,1.4-.6c.4-.4,.6-.9,.6-1.4v-2h16v2c0,.5,.2,1,.6,1.4,.4,.4,.9,.6,1.4,.6s1-.2,1.4-.6c.4-.4,.6-.9,.6-1.4v-2h2c.5,0,1,.2,1.4,.6,.4,.4,.6,.9,.6,1.4v6Zm-16,20c.4,0,.8-.1,1.1-.3,.3-.2,.6-.5,.7-.9s.2-.8,.1-1.2c0-.4-.3-.7-.5-1-.3-.3-.6-.5-1-.5-.4,0-.8,0-1.2,.1-.4,.2-.7,.4-.9,.7-.2,.3-.3,.7-.3,1.1s.2,1,.6,1.4,.9,.6,1.4,.6Zm-10-8c.4,0,.8-.1,1.1-.3,.3-.2,.6-.5,.7-.9,.2-.4,.2-.8,.1-1.2,0-.4-.3-.7-.5-1-.3-.3-.6-.5-1-.5-.4,0-.8,0-1.2,.1s-.7,.4-.9,.7c-.2,.3-.3,.7-.3,1.1s.2,1,.6,1.4c.4,.4,.9,.6,1.4,.6Z"/></svg>