<svg xmlns="http://www.w3.org/2000/svg" viewBox="0 0 48 48"><path fill="currentColor" d="M25.4,16.6c-.4-.4-.9-.6-1.4-.6s-1,.2-1.4,.6c-.4,.4-.6,.9-.6,1.4v6c0,.5,.2,1,.6,1.4s.9,.6,1.4,.6h4c.5,0,1-.2,1.4-.6s.6-.9,.6-1.4-.2-1-.6-1.4-.9-.6-1.4-.6h-2v-4c0-.5-.2-1-.6-1.4Zm17.1-.2c-1.5-3.7-4.1-6.8-7.4-9-3.3-2.2-7.2-3.4-11.1-3.4-5.1,0-10.1,2-13.8,5.5v-3.5c0-.5-.2-1-.6-1.4-.4-.4-.9-.6-1.4-.6s-1,.2-1.4,.6c-.4,.4-.6,.9-.6,1.4V15c0,.5,.2,1,.6,1.4,.4,.4,.9,.6,1.4,.6h9c.5,0,1-.2,1.4-.6,.4-.4,.6-.9,.6-1.4s-.2-1-.6-1.4c-.4-.4-.9-.6-1.4-.6h-4.8c2.6-2.7,6-4.4,9.7-4.8,3.7-.4,7.4,.4,10.5,2.5,3.1,2,5.4,5.1,6.6,8.6s1,7.4-.4,10.8-3.9,6.3-7.2,8.1c-3.3,1.8-7.1,2.4-10.7,1.6-3.6-.7-6.9-2.7-9.3-5.6-2.4-2.9-3.6-6.5-3.6-10.2,0-.5-.2-1-.6-1.4-.4-.4-.9-.6-1.4-.6s-1,.2-1.4,.6c-.4,.4-.6,.9-.6,1.4,0,4,1.2,7.8,3.4,11.1,2.2,3.3,5.3,5.9,9,7.4,3.7,1.5,7.7,1.9,11.6,1.1,3.9-.8,7.4-2.7,10.2-5.5,2.8-2.8,4.7-6.4,5.5-10.2,.8-3.9,.4-7.9-1.1-11.6Z"/></svg>