<svg xmlns="http://www.w3.org/2000/svg" viewBox="0 0 48 48"><path fill="currentColor" d="M36.6,17.2l1.8-1.8c.4-.4,.6-.9,.6-1.4s-.2-1-.6-1.4c-.4-.4-.9-.6-1.4-.6s-1,.2-1.4,.6l-1.8,1.8c-2.8-2.2-6.2-3.3-9.8-3.3s-7,1.2-9.8,3.3l-1.8-1.8c-.4-.4-.9-.6-1.4-.6-.5,0-1,.2-1.4,.6-.4,.4-.6,.9-.6,1.4,0,.5,.2,1,.6,1.4l1.8,1.8c-2.2,2.8-3.4,6.2-3.4,9.8,0,2.6,.6,5.1,1.8,7.3,1.2,2.3,2.9,4.2,4.9,5.7,2.1,1.5,4.5,2.5,7,2.8,2.5,.4,5.1,.1,7.5-.7,2.4-.8,4.6-2.2,6.4-4.1,1.8-1.8,3.1-4.1,3.8-6.5,.7-2.4,.9-5,.4-7.5-.5-2.5-1.5-4.9-3.1-6.9Zm-12.6,21.8c-2.4,0-4.7-.7-6.7-2-2-1.3-3.5-3.2-4.4-5.4-.9-2.2-1.1-4.6-.7-6.9,.5-2.3,1.6-4.5,3.3-6.1,1.7-1.7,3.8-2.8,6.1-3.3,2.3-.5,4.7-.2,6.9,.7,2.2,.9,4.1,2.4,5.4,4.4,1.3,2,2,4.3,2,6.7s-1.3,6.2-3.5,8.5c-2.3,2.3-5.3,3.5-8.5,3.5Zm-4-30h8c.5,0,1-.2,1.4-.6,.4-.4,.6-.9,.6-1.4s-.2-1-.6-1.4c-.4-.4-.9-.6-1.4-.6h-8c-.5,0-1,.2-1.4,.6-.4,.4-.6,.9-.6,1.4s.2,1,.6,1.4c.4,.4,.9,.6,1.4,.6Zm6,12c0-.5-.2-1-.6-1.4-.4-.4-.9-.6-1.4-.6s-1,.2-1.4,.6c-.4,.4-.6,.9-.6,1.4v3.8c-.5,.4-.8,.9-.9,1.5-.1,.6-.1,1.2,.1,1.8,.2,.6,.6,1.1,1.1,1.4,.5,.3,1.1,.5,1.7,.5s1.2-.2,1.7-.5c.5-.3,.9-.8,1.1-1.4,.2-.6,.3-1.2,.1-1.8-.1-.6-.5-1.1-.9-1.5v-3.8Z"/></svg>