<svg xmlns="http://www.w3.org/2000/svg" viewBox="0 0 48 48"><path fill="currentColor" d="M12.0505 37.2503L9.72047 43.6003H11.7705L12.1105 42.5103H13.6805L14.0205 43.6003H16.0805L13.7305 37.2503H12.0505ZM12.6005 40.9103L12.8905 39.9803L13.1805 40.9103H12.6005ZM9.22047 34.0303L9.52047 34.1403L36.2405 34.4103H36.2705L36.5505 34.3303C39.0105 33.6803 41.2305 32.2203 42.8005 30.2103C44.3705 28.2103 45.2605 25.7003 45.3105 23.1603C45.3505 20.6203 44.5505 18.0803 43.0605 16.0203C41.7005 14.1503 39.9205 12.7303 37.9005 11.9103C36.5005 9.19028 34.2705 6.87028 31.6105 5.39028C28.6505 3.73028 25.1605 3.09028 21.8005 3.56028C18.4405 4.04028 15.2705 5.63028 12.8905 8.05028C10.8205 10.1403 9.40047 12.7703 8.76047 15.6503C7.26047 16.2703 5.94047 17.2503 4.91047 18.4903C3.57047 20.1103 2.78047 22.1603 2.68047 24.2603C2.58047 26.3603 3.16047 28.4703 4.33047 30.2203C5.50047 31.9703 7.23047 33.3203 9.21047 34.0203L9.22047 34.0303ZM8.27047 21.2503C9.02047 20.3403 10.0605 19.6903 11.2005 19.4003L12.6405 19.0403L12.8305 17.5703C13.1405 15.1403 14.2705 12.8403 15.9905 11.0903C17.7105 9.34028 20.0005 8.19028 22.4305 7.85028C24.8605 7.51028 27.3805 7.97028 29.5205 9.17028C31.6605 10.3703 33.3805 12.2603 34.3605 14.5103L34.7605 15.4303L35.7205 15.7203C37.1905 16.1603 38.5605 17.1803 39.5805 18.5703C40.5305 19.8703 41.0305 21.4703 41.0005 23.0803C40.9705 24.6903 40.4105 26.2703 39.4205 27.5403C38.4905 28.7303 37.1805 29.6203 35.7305 30.0703L10.3805 29.8303C9.40047 29.4103 8.54047 28.7003 7.96047 27.8203C7.31047 26.8403 6.98047 25.6603 7.04047 24.4803C7.10047 23.3103 7.54047 22.1603 8.29047 21.2503H8.27047ZM7.89047 37.2503L7.40047 39.9103L6.81047 37.2503H5.21047L4.63047 39.9003L4.15047 37.2503H2.23047L3.58047 43.6003H5.44047L6.01047 41.1203L6.59047 43.6003H8.45047L9.80047 37.2503H7.88047H7.89047ZM46.0605 37.2503H43.6805L42.3405 39.2003L42.3105 39.2503V37.2503H40.4005V43.6003H42.3105V41.9003L42.5905 41.5903L43.7405 43.6003H46.0005L43.8805 40.1003L46.0605 37.2503ZM37.4405 40.1903L35.7705 37.2403H33.9605V43.5903H35.8705V40.6403L37.5505 43.5903H39.3505V37.2403H37.4405V40.1903ZM30.9105 43.6003H32.8205V37.2503H30.9105V43.6003ZM20.0305 40.1903L18.3605 37.2403H16.5505V43.5903H18.4605V40.6403L20.1405 43.5903H21.9405V37.2403H20.0305V40.1903ZM27.6005 37.2503H25.6905V43.6003H30.0605V42.0203H27.6005V37.2503Z"/></svg>