<svg xmlns="http://www.w3.org/2000/svg" viewBox="0 0 48 48"><path fill="currentColor" d="M12.672 40.274H14.777V30.826H12.672V40.274ZM2.00107 35.5491C1.98936 36.2079 2.11289 36.8621 2.36404 37.4713C2.61519 38.0805 2.98863 38.6317 3.46124 39.0909C3.93385 39.55 4.49561 39.9074 5.1118 40.1409C5.72799 40.3743 6.38549 40.4789 7.04371 40.4482C7.74515 40.4429 8.44254 40.3411 9.11628 40.1459V37.945C8.52659 38.2128 7.88657 38.3518 7.23892 38.3527H7.22169C6.84404 38.3666 6.46745 38.3043 6.11444 38.1694C5.76143 38.0345 5.43924 37.8298 5.16713 37.5675C4.89503 37.3053 4.67859 36.9909 4.53075 36.6431C4.38292 36.2953 4.30672 35.9213 4.30672 35.5434C4.30672 35.1655 4.38292 34.7914 4.53075 34.4436C4.67859 34.0958 4.89503 33.7814 5.16713 33.5191C5.43924 33.2569 5.76143 33.0522 6.11444 32.9173C6.46745 32.7824 6.84404 32.7201 7.22169 32.734C7.87488 32.7349 8.52051 32.8738 9.11628 33.1416V30.9466C8.44361 30.7462 7.74558 30.6438 7.04371 30.6423C6.38465 30.6101 5.72604 30.7139 5.10882 30.9472C4.4916 31.1805 3.929 31.5383 3.45601 31.9984C2.98302 32.4584 2.60976 33.0109 2.35945 33.6215C2.10915 34.232 1.98716 34.8875 2.00107 35.5472V35.5491ZM27.5052 21.0526C27.6426 21.1968 27.8316 21.2806 28.0307 21.2857C28.2298 21.2907 28.4228 21.2165 28.5673 21.0795C29.1753 20.5011 29.6607 19.8064 29.9948 19.0367C30.3289 18.2669 30.5048 17.4379 30.5122 16.5988C30.5195 15.7598 30.358 14.9278 30.0374 14.1523C29.7168 13.3769 29.2435 12.6738 28.6458 12.085C28.5017 11.9572 28.314 11.8896 28.1215 11.896C27.929 11.9025 27.7463 11.9825 27.6111 12.1197C27.4759 12.2569 27.3985 12.4407 27.3948 12.6333C27.3911 12.8259 27.4614 13.0125 27.5913 13.1548C28.0454 13.6023 28.4049 14.1365 28.6484 14.7257C28.8919 15.3149 29.0145 15.9471 29.0088 16.5847C29.0031 17.2222 28.8692 17.8521 28.6152 18.4369C28.3612 19.0216 27.9921 19.5493 27.5301 19.9886C27.3861 20.1263 27.3027 20.3154 27.298 20.5145C27.2933 20.7136 27.3679 20.9065 27.5052 21.0507V21.0526ZM19.9403 21.0795C20.0865 21.206 20.2758 21.2714 20.469 21.262C20.6621 21.2526 20.8442 21.1691 20.9774 21.029C21.1107 20.8889 21.1849 20.7028 21.1845 20.5094C21.1842 20.316 21.1093 20.1302 20.9756 19.9905C20.5157 19.5533 20.1479 19.0284 19.894 18.4468C19.6401 17.8652 19.5052 17.2388 19.4972 16.6042C19.4891 15.9697 19.6082 15.3399 19.8473 14.7521C20.0864 14.1643 20.4408 13.6303 20.8895 13.1815C20.9654 13.1132 21.0267 13.0302 21.0695 12.9375C21.1123 12.8448 21.1358 12.7443 21.1385 12.6422C21.1412 12.5401 21.1231 12.4385 21.0853 12.3437C21.0475 12.2488 20.9907 12.1626 20.9185 12.0904C20.8463 12.0182 20.7601 11.9614 20.6652 11.9236C20.5704 11.8858 20.4688 11.8677 20.3667 11.8704C20.2646 11.8731 20.1641 11.8966 20.0714 11.9394C19.9787 11.9822 19.8956 12.0435 19.8274 12.1194C19.2369 12.7099 18.7705 13.4126 18.4558 14.1861C18.1412 14.9596 17.9844 15.7883 17.995 16.6233C18.0055 17.4583 18.183 18.2827 18.5171 19.048C18.8512 19.8133 19.3351 20.504 19.9403 21.0795V21.0795ZM33.0722 16.5439C33.0765 17.7338 32.8378 18.9121 32.3709 20.0065C31.904 21.101 31.2186 22.0886 30.3566 22.909C30.2798 22.9757 30.2172 23.0574 30.1729 23.1491C30.1285 23.2408 30.1032 23.3405 30.0985 23.4423C30.0939 23.544 30.1099 23.6456 30.1457 23.741C30.1814 23.8363 30.2362 23.9234 30.3066 23.997C30.3771 24.0705 30.4617 24.129 30.5554 24.1689C30.6492 24.2087 30.75 24.2291 30.8518 24.2288C30.9537 24.2286 31.0544 24.2077 31.1479 24.1673C31.2414 24.1269 31.3257 24.068 31.3958 23.9941C32.3872 23.0434 33.1789 21.9044 33.7245 20.6439C34.27 19.3833 34.5585 18.0265 34.5729 16.653C34.5874 15.2796 34.3275 13.9171 33.8086 12.6453C33.2896 11.3736 32.522 10.2182 31.5508 9.2469C31.4076 9.11819 31.2205 9.04929 31.028 9.05441C30.8355 9.05953 30.6523 9.13832 30.5162 9.27447C30.38 9.41062 30.3013 9.59377 30.2962 9.78625C30.2911 9.97873 30.36 10.1659 30.4887 10.3091C31.3101 11.1259 31.9615 12.0975 32.4049 13.1677C32.8484 14.2379 33.0752 15.3855 33.0722 16.5439V16.5439ZM11.34 16.5439C11.3346 14.8183 11.6776 13.1093 12.3484 11.5194C13.0193 9.92946 14.0041 8.49135 15.244 7.29114C15.3802 7.15063 15.4563 6.96254 15.4561 6.76686C15.4559 6.57118 15.3794 6.38327 15.2429 6.24305C15.1064 6.10283 14.9207 6.02136 14.7251 6.01587C14.5295 6.01038 14.3394 6.08133 14.1953 6.21368C12.8126 7.55991 11.7143 9.17009 10.9655 10.9487C10.2166 12.7273 9.83255 14.6381 9.83594 16.5679C9.83933 18.4977 10.2301 20.4072 10.9852 22.1831C11.7403 23.9591 12.8442 25.5654 14.2316 26.9068C14.3012 26.9813 14.3852 27.0409 14.4786 27.082C14.5719 27.123 14.6726 27.1447 14.7746 27.1456C14.8766 27.1465 14.9776 27.1267 15.0717 27.0874C15.1658 27.048 15.2509 26.9899 15.3218 26.9167C15.3927 26.8434 15.448 26.7565 15.4843 26.6612C15.5206 26.5659 15.5371 26.4642 15.5329 26.3623C15.5287 26.2604 15.5037 26.1605 15.4597 26.0685C15.4156 25.9765 15.3533 25.8945 15.2765 25.8274C14.0264 24.6268 13.0329 23.1851 12.3563 21.5894C11.6796 19.9936 11.3339 18.2772 11.34 16.5439V16.5439ZM34.3047 6.20988C34.1605 6.07753 33.9705 6.00653 33.7749 6.01201C33.5793 6.0175 33.3935 6.09904 33.257 6.23926C33.1205 6.37948 33.0441 6.56739 33.0439 6.76307C33.0437 6.95874 33.1197 7.14678 33.2559 7.28728C34.4945 8.49322 35.4783 9.93558 36.149 11.5288C36.8198 13.122 37.1639 14.8336 37.1608 16.5623C37.1578 18.2909 36.8077 20.0014 36.1314 21.5923C35.455 23.1831 34.4662 24.622 33.2234 25.8236C33.1466 25.8907 33.0843 25.9727 33.0402 26.0647C32.9962 26.1566 32.9713 26.2566 32.967 26.3585C32.9628 26.4604 32.9793 26.5621 33.0156 26.6574C33.0519 26.7527 33.1072 26.8396 33.1781 26.9128C33.249 26.9861 33.3341 27.0442 33.4282 27.0835C33.5223 27.1229 33.6234 27.1427 33.7253 27.1418C33.8273 27.1408 33.928 27.1192 34.0213 27.0781C34.1147 27.037 34.1987 26.9774 34.2683 26.9029C35.6557 25.5615 36.7596 23.9552 37.5147 22.1793C38.2698 20.4033 38.6606 18.4939 38.664 16.5641C38.6674 14.6343 38.2833 12.7234 37.5345 10.9448C36.7856 9.16623 35.6873 7.55612 34.3047 6.20988V6.20988ZM18.1433 22.9032C17.2984 22.093 16.6233 21.1227 16.1573 20.0488C15.6914 18.975 15.4439 17.8191 15.4293 16.6486C15.4147 15.4781 15.6333 14.3164 16.0723 13.2313C16.5113 12.1461 17.162 11.1592 17.9864 10.3282C18.0621 10.2596 18.123 10.1764 18.1655 10.0835C18.2079 9.99064 18.2311 9.8901 18.2334 9.788C18.2357 9.6859 18.2173 9.58435 18.1791 9.48962C18.1409 9.3949 18.0839 9.30899 18.0114 9.23703C17.9389 9.16508 17.8525 9.1086 17.7575 9.07111C17.6625 9.03363 17.5609 9.01588 17.4588 9.01896C17.3568 9.02204 17.2564 9.04591 17.1638 9.08904C17.0712 9.13218 16.9884 9.19373 16.9204 9.26992C15.9559 10.2431 15.1948 11.3985 14.6816 12.6689C14.1683 13.9393 13.9132 15.2992 13.931 16.6692C13.9488 18.0393 14.2392 19.392 14.7853 20.6486C15.3315 21.9052 16.1223 23.0405 17.1118 23.9883C17.1818 24.0622 17.2662 24.1212 17.3597 24.1616C17.4532 24.2019 17.5539 24.2228 17.6557 24.2231C17.7576 24.2234 17.8584 24.203 17.9521 24.1631C18.0458 24.1233 18.1305 24.0648 18.2009 23.9912C18.2714 23.9177 18.3261 23.8306 18.3619 23.7352C18.3977 23.6399 18.4137 23.5382 18.409 23.4365C18.4044 23.3348 18.3791 23.2351 18.3347 23.1434C18.2904 23.0517 18.2278 22.97 18.1509 22.9032H18.1433ZM26.8794 35.5434C26.8682 36.2025 26.9923 36.857 27.244 37.4663C27.4957 38.0756 27.8696 38.627 28.3428 39.0861C28.8159 39.5452 29.3781 39.9025 29.9947 40.1358C30.6113 40.369 31.2693 40.4734 31.9278 40.4425C32.6286 40.4363 33.3252 40.3345 33.9984 40.1401V37.945C33.403 38.2179 32.755 38.3571 32.1 38.3527C31.7224 38.3666 31.3458 38.3043 30.9928 38.1694C30.6398 38.0345 30.3176 37.8298 30.0455 37.5675C29.7734 37.3053 29.5569 36.9909 29.4091 36.6431C29.2613 36.2953 29.1851 35.9213 29.1851 35.5434C29.1851 35.1655 29.2613 34.7914 29.4091 34.4436C29.5569 34.0958 29.7734 33.7814 30.0455 33.5191C30.3176 33.2569 30.6398 33.0522 30.9928 32.9173C31.3458 32.7824 31.7224 32.7201 32.1 32.734C32.7546 32.7357 33.4014 32.8752 33.9984 33.1435V30.9485C33.3256 30.7488 32.6277 30.6463 31.9259 30.6442C31.2674 30.6129 30.6094 30.7172 29.9929 30.9507C29.3764 31.1843 28.8145 31.542 28.342 32.0017C27.8695 32.4615 27.4966 33.0134 27.2463 33.6233C26.996 34.2332 26.8737 34.888 26.8871 35.5472L26.8794 35.5434ZM41.349 30.6461C40.3848 30.6668 39.448 30.9718 38.6563 31.5226C37.8646 32.0735 37.2531 32.8457 36.8984 33.7427C36.5437 34.6396 36.4617 35.6213 36.6626 36.5646C36.8635 37.508 37.3384 38.371 38.0278 39.0456C38.7171 39.7202 39.5903 40.1763 40.5378 40.3567C41.4852 40.5372 42.4649 40.4339 43.3539 40.0599C44.243 39.686 45.0018 39.0579 45.5354 38.2544C46.069 37.4509 46.3536 36.5079 46.3534 35.5434C46.3609 34.8907 46.2364 34.2433 45.9872 33.64C45.7381 33.0367 45.3694 32.4901 44.9035 32.0329C44.4377 31.5758 43.8841 31.2176 43.2762 30.9799C42.6683 30.7423 42.0186 30.6301 41.3662 30.65L41.349 30.6461ZM41.3337 38.3182H41.3165C40.5805 38.3162 39.8756 38.0219 39.3566 37.5001C38.8376 36.9782 38.5472 36.2716 38.5493 35.5357C38.5513 34.7997 38.8456 34.0948 39.3674 33.5758C39.8893 33.0568 40.5959 32.7664 41.3318 32.7684H41.4275C41.7856 32.7747 42.139 32.8514 42.4675 32.9942C42.796 33.1371 43.0931 33.3432 43.3419 33.6009C43.5907 33.8586 43.7863 34.1628 43.9175 34.496C44.0488 34.8293 44.113 35.1852 44.1067 35.5434C44.1082 36.279 43.818 36.9852 43.2996 37.5072C42.7812 38.0292 42.077 38.3243 41.3414 38.3278L41.3337 38.3182ZM24.2461 15.2254C23.9865 15.2254 23.7327 15.3024 23.5168 15.4466C23.3009 15.5909 23.1326 15.7959 23.0333 16.0358C22.9339 16.2757 22.9079 16.5397 22.9585 16.7943C23.0092 17.049 23.1342 17.2829 23.3178 17.4665C23.5014 17.6501 23.7354 17.7751 23.99 17.8258C24.2447 17.8764 24.5086 17.8504 24.7485 17.7511C24.9884 17.6517 25.1934 17.4834 25.3377 17.2676C25.4819 17.0517 25.5589 16.7979 25.5589 16.5382C25.5574 16.1922 25.4196 15.8606 25.1752 15.6156C24.9309 15.3705 24.5998 15.2317 24.2538 15.2292L24.2461 15.2254ZM22.3171 34.7032L21.5918 34.4716C21.1631 34.3377 20.367 34.0889 20.367 33.3693C20.367 32.889 20.8187 32.3762 22.0894 32.3762C22.6792 32.3983 23.2653 32.4803 23.8385 32.6211V30.916C23.1075 30.7442 22.3599 30.6524 21.609 30.6423C19.4695 30.6423 18.1395 31.7465 18.1395 33.5243C18.1395 34.8276 18.9241 35.7079 20.5393 36.2189L20.744 36.2859L21.0713 36.3911C21.3736 36.4868 22.3056 36.7739 22.3056 37.5394C22.3056 37.9527 22.0473 38.6454 20.3192 38.6454C19.5922 38.63 18.8699 38.5259 18.1682 38.3355V40.1975C18.9892 40.3473 19.8215 40.4268 20.656 40.4348C22.5295 40.4348 24.5332 39.6177 24.5332 37.325C24.5088 36.7052 24.2783 36.1111 23.8783 35.637C23.4783 35.1628 22.9316 34.8356 22.3248 34.707L22.3171 34.7032Z"/></svg>