<svg xmlns="http://www.w3.org/2000/svg" viewBox="0 0 48 48"><path fill="currentColor" d="M27.3003 22.3381C26.6903 22.3381 26.1303 22.6781 25.8503 23.2181L23.5303 27.6381L21.2003 23.1581C20.9403 22.6581 20.4203 22.3381 19.8503 22.3381C18.8803 22.3381 18.0903 23.1281 18.0903 24.0981V31.8081C18.0903 32.5381 18.6803 33.1281 19.4103 33.1281C20.1403 33.1281 20.7803 32.5181 20.7803 31.7581V27.6981C21.4303 29.0281 22.3303 30.7981 22.7203 31.2881C22.8003 31.3981 23.0603 31.7281 23.4803 31.7481C23.7103 31.7581 24.0203 31.6881 24.3903 31.2281L26.2903 27.5881V31.7981C26.2903 32.5281 26.8903 33.1281 27.6203 33.1281C28.3503 33.1281 28.9803 32.5181 28.9803 31.7681V24.0181C28.9803 23.0881 28.2303 22.3381 27.3003 22.3381ZM39.1903 19.3081C37.4103 13.7281 32.2003 9.82812 26.2103 9.82812C21.5503 9.82812 17.2103 12.2481 14.7303 16.1081C14.3403 16.0481 13.9403 16.0081 13.5503 16.0081C10.0303 16.0081 7.09031 18.5681 6.51031 21.9381C2.84031 22.6281 0.0703125 25.8481 0.0703125 29.7081C0.0703125 34.6981 3.26031 38.1781 7.84031 38.1781L38.5303 38.1081C43.7203 38.1081 47.9403 33.8881 47.9403 28.6981C47.9403 23.5081 44.0703 19.6481 39.1903 19.3081ZM38.5303 34.1081L7.84031 34.1781C5.52031 34.1781 4.07031 32.4681 4.07031 29.7081C4.07031 27.5481 5.83031 25.7981 7.98031 25.7981C8.08031 25.7981 8.19031 25.7981 8.31031 25.8181L10.8903 25.9881L10.4103 23.4481C10.3903 23.3581 10.3903 23.2581 10.3903 23.1681C10.3903 21.4281 11.8003 20.0081 13.5403 20.0081C14.0003 20.0081 14.4503 20.1081 14.8503 20.2881L16.6503 21.1181L17.5003 19.3281C19.0803 15.9881 22.5003 13.8281 26.2103 13.8281C30.8603 13.8281 34.8403 17.1381 35.6803 21.7081L36.0303 23.5981L37.9303 23.3281C38.1303 23.2981 38.3303 23.2881 38.5303 23.2881C41.5103 23.2881 43.9403 25.7181 43.9403 28.6981C43.9403 31.6781 41.5103 34.1081 38.5303 34.1081Z"/></svg>