<svg xmlns="http://www.w3.org/2000/svg" viewBox="0 0 48 48"><path fill="currentColor" d="M21,6c-3.71,0-7.27,1.47-9.9,4.1-2.63,2.63-4.1,6.19-4.1,9.9,0,.53,.21,1.04,.59,1.41,.38,.38,.88,.59,1.41,.59s1.04-.21,1.41-.59c.38-.38,.59-.88,.59-1.41,0-2.65,1.05-5.2,2.93-7.07,1.88-1.88,4.42-2.93,7.07-2.93s5.2,1.05,7.07,2.93c1.88,1.88,2.93,4.42,2.93,7.07,0,1.81-.5,3.58-1.42,5.14l-7.12,14.86c-.35,.61-.85,1.11-1.46,1.46-.61,.35-1.3,.54-2,.54-1.06,0-2.08-.42-2.83-1.17-.75-.75-1.17-1.77-1.17-2.83,0-.53-.21-1.04-.59-1.41-.38-.38-.88-.59-1.41-.59s-1.04,.21-1.41,.59c-.38,.38-.59,.88-.59,1.41,0,2.12,.84,4.16,2.34,5.66,1.5,1.5,3.54,2.34,5.66,2.34,1.43,0,2.83-.39,4.07-1.11,1.23-.73,2.24-1.77,2.93-3.03l7.12-14.86c1.24-2.13,1.89-4.54,1.88-7,0-3.71-1.47-7.27-4.1-9.9-2.63-2.63-6.19-4.1-9.9-4.1ZM7,30c-.4,0-.78,.12-1.11,.34-.33,.22-.59,.53-.74,.9-.15,.37-.19,.77-.11,1.16,.08,.39,.27,.74,.55,1.02,.28,.28,.64,.47,1.02,.55,.39,.08,.79,.04,1.16-.11,.37-.15,.68-.41,.9-.74,.22-.33,.34-.72,.34-1.11,0-.53-.21-1.04-.59-1.41-.38-.38-.88-.59-1.41-.59ZM34.18,2.4c-.21-.16-.45-.27-.7-.34-.25-.07-.52-.08-.78-.04-.26,.04-.51,.13-.74,.26-.23,.13-.42,.31-.58,.52s-.27,.45-.34,.7c-.07,.25-.08,.52-.04,.78,.04,.26,.13,.51,.26,.74s.31,.42,.52,.58c2.24,1.67,4.06,3.85,5.31,6.35s1.91,5.26,1.91,8.05c0,.53,.21,1.04,.59,1.41s.88,.59,1.41,.59,1.04-.21,1.41-.59,.59-.88,.59-1.41c-.01-3.42-.81-6.78-2.34-9.84-1.53-3.05-3.75-5.71-6.48-7.76Zm-13.18,15.6c.53,0,1.04,.21,1.41,.59,.38,.38,.59,.88,.59,1.41s.21,1.04,.59,1.41,.88,.59,1.41,.59,1.04-.21,1.41-.59,.59-.88,.59-1.41c0-1.59-.63-3.12-1.76-4.24-1.13-1.13-2.65-1.76-4.24-1.76s-3.12,.63-4.24,1.76c-1.13,1.13-1.76,2.65-1.76,4.24,0,1.2,.35,2.37,1.02,3.36,.28,.39,.59,.75,.94,1.08l.4,.44c.22,.33,.34,.72,.34,1.11s-.12,.78-.34,1.11c-.3,.44-.42,.97-.32,1.49,.09,.52,.39,.98,.82,1.29,.33,.23,.73,.36,1.14,.36,.32,0,.64-.08,.93-.23,.29-.15,.53-.37,.71-.63,.68-1,1.05-2.18,1.05-3.39s-.37-2.39-1.05-3.39c-.21-.3-.44-.58-.7-.84l-.28-.28c-.12-.11-.22-.23-.32-.36-.22-.33-.34-.72-.34-1.12,0-.53,.21-1.04,.59-1.41,.38-.38,.88-.59,1.41-.59Zm-8,12c.4,0,.78-.12,1.11-.34,.33-.22,.59-.53,.74-.9,.15-.37,.19-.77,.11-1.16-.08-.39-.27-.74-.55-1.02-.28-.28-.64-.47-1.02-.55-.39-.08-.79-.04-1.16,.11-.37,.15-.68,.41-.9,.74-.22,.33-.34,.72-.34,1.11,0,.53,.21,1.04,.59,1.41,.38,.38,.88,.59,1.41,.59Z"/></svg>