<svg xmlns="http://www.w3.org/2000/svg" viewBox="0 0 48 48"><path fill="currentColor" d="M9.62229 9.74677C10.4013 10.3883 10.5082 11.5492 9.86669 12.3283C7.23937 15.4979 5.66603 19.561 5.66603 23.9985C5.66603 28.4359 7.23937 32.4991 9.86669 35.6687C10.5082 36.4477 10.4013 37.601 9.62229 38.2502C8.84326 38.8994 7.68998 38.7848 7.04079 38.0058C3.89412 34.2022 2 29.3218 2 23.9985C2 18.6751 3.89412 13.7947 7.04079 9.99117C7.68235 9.21214 8.84326 9.10522 9.62229 9.74677ZM38.3777 9.74677C39.1567 9.10522 40.31 9.21214 40.9592 9.99117C44.1059 13.7947 46 18.6827 46 23.9985C46 29.3142 44.1059 34.2022 40.9592 38.0058C40.3177 38.7848 39.1567 38.8917 38.3777 38.2502C37.5987 37.6086 37.4918 36.4477 38.1333 35.6687C40.753 32.4991 42.334 28.4359 42.334 23.9985C42.334 19.561 40.7606 15.4979 38.1333 12.3283C37.4918 11.5492 37.5987 10.396 38.3777 9.74677ZM20.9412 23.9985C20.9412 23.1882 21.263 22.4112 21.836 21.8382C22.4089 21.2653 23.1859 20.9434 23.9962 20.9434C24.8064 20.9434 25.5835 21.2653 26.1564 21.8382C26.7293 22.4112 27.0512 23.1882 27.0512 23.9985C27.0512 24.8087 26.7293 25.5858 26.1564 26.1587C25.5835 26.7316 24.8064 27.0535 23.9962 27.0535C23.1859 27.0535 22.4089 26.7316 21.836 26.1587C21.263 25.5858 20.9412 24.8087 20.9412 23.9985ZM16.2746 18.003C14.9839 19.6603 14.2201 21.7377 14.2201 23.9985C14.2201 26.2592 14.9839 28.3366 16.2746 29.994C16.8932 30.7959 16.7558 31.9415 15.9538 32.5678C15.1519 33.1941 14.0062 33.049 13.38 32.247C11.6081 29.971 10.5541 27.107 10.5541 23.9985C10.5541 20.89 11.6081 18.0259 13.38 15.7499C13.9986 14.948 15.1519 14.8105 15.9538 15.4291C16.7558 16.0478 16.8932 17.201 16.2746 18.003ZM34.6124 15.7499C36.3843 18.0259 37.4383 20.89 37.4383 23.9985C37.4383 27.107 36.3843 29.971 34.6124 32.247C33.9938 33.049 32.8405 33.1865 32.0385 32.5678C31.2366 31.9492 31.0991 30.7959 31.7178 29.994C33.0085 28.3366 33.7723 26.2592 33.7723 23.9985C33.7723 21.7377 33.0085 19.6603 31.7178 18.003C31.0991 17.201 31.2366 16.0554 32.0385 15.4291C32.8405 14.8028 33.9861 14.948 34.6124 15.7499Z"/></svg>