<svg xmlns="http://www.w3.org/2000/svg" viewBox="0 0 48 48"><path fill="currentColor" d="M26.14,26.86h-9l2.06-1.71c.57-.47,.68-1.37,.26-2-.43-.63-1.23-.76-1.8-.29l-5.14,4.29c-.32,.27-.51,.69-.51,1.13,0,.45,.18,.87,.5,1.14l4.97,4.29c.23,.2,.51,.3,.79,.3,.38,0,.76-.19,1.02-.55,.44-.62,.33-1.52-.23-2l-2-1.73h9.11c.71,0,1.29-.64,1.29-1.43s-.58-1.43-1.29-1.43Zm9.35-8.27l-4.97-4.29c-.56-.48-1.37-.37-1.8,.25-.44,.62-.33,1.52,.23,2l2,1.73h-7.82c-.71,0-1.29,.64-1.29,1.43s.58,1.43,1.29,1.43h7.71l-2.06,1.71c-.57,.47-.68,1.37-.26,2,.25,.37,.64,.57,1.03,.57,.27,0,.54-.09,.77-.29l5.14-4.29c.32-.27,.51-.69,.51-1.13,0-.45-.18-.87-.5-1.14ZM24,4C12.97,4,4,12.97,4,24s8.97,20,20,20,20-8.97,20-20S35.03,4,24,4Zm0,36c-8.82,0-16-7.18-16-16S15.18,8,24,8s16,7.18,16,16-7.18,16-16,16Z"/></svg>