<svg xmlns="http://www.w3.org/2000/svg" viewBox="0 0 48 48"><path fill="currentColor" d="M16.5869 16.5859C17.1599 16.013 18.0225 15.8427 18.7705 16.1543L42.7705 26.1543C43.5384 26.4744 44.0281 27.2369 44 28.0684C43.9717 28.8996 43.4321 29.627 42.6445 29.8945L35.2373 32.4082L42.0439 39.2139C42.8247 39.9949 42.8248 41.262 42.0439 42.043C41.2631 42.8237 39.9969 42.8234 39.2158 42.043L32.4092 35.2363L29.8955 42.6436C29.6281 43.4311 28.9006 43.9707 28.0693 43.999C27.2379 44.0271 26.4754 43.5374 26.1553 42.7695L16.1553 18.7695C15.8437 18.0215 16.0139 17.159 16.5869 16.5859ZM27.8096 36.3408L29.6553 30.9053C29.8552 30.3167 30.3176 29.8542 30.9062 29.6543L36.3418 27.8086L21.7148 21.7139L27.8096 36.3408ZM10.9287 22.2432C11.7093 21.4619 12.9754 21.4609 13.7568 22.2412C14.538 23.0219 14.5393 24.289 13.7588 25.0703L9.51855 29.3145C8.73802 30.0956 7.47184 30.0956 6.69043 29.3154C5.9091 28.5348 5.90806 27.2687 6.68848 26.4873L10.9287 22.2432ZM2.5459 13.8584C2.83199 12.7918 3.92843 12.1586 4.99512 12.4443L10.791 13.999C11.8577 14.2852 12.491 15.3815 12.2051 16.4482C11.919 17.5149 10.8225 18.148 9.75586 17.8623L3.95996 16.3086C2.8931 16.0226 2.2599 14.9253 2.5459 13.8584ZM26.4873 6.68652C27.2683 5.90556 28.5344 5.90555 29.3154 6.68652C30.0962 7.46757 30.0963 8.73367 29.3154 9.51465L25.0713 13.7588C24.2903 14.5395 23.0241 14.5395 22.2432 13.7588C21.4623 12.9778 21.4624 11.7117 22.2432 10.9307L26.4873 6.68652ZM13.8594 2.54688C14.926 2.26093 16.0233 2.89339 16.3096 3.95996L17.8633 9.75488C18.149 10.8215 17.5157 11.9179 16.4492 12.2041C15.3827 12.4899 14.2864 11.8574 14 10.791L12.4463 4.99707C12.1602 3.93023 12.7926 2.83305 13.8594 2.54688Z"/></svg>