<svg xmlns="http://www.w3.org/2000/svg" viewBox="0 0 48 48"><path fill="currentColor" d="M5.99805 22C7.10257 21.999 7.99892 22.8935 8 23.998C8.00281 27.0855 8.89891 30.1067 10.5801 32.6963C12.2612 35.2857 14.6557 37.3337 17.4746 38.5928C20.2936 39.8519 23.4173 40.2681 26.4678 39.792C29.5161 39.3161 32.3618 37.969 34.6621 35.9131L36.7881 34H30C28.8954 34 28 33.1046 28 32C28 30.8954 28.8954 30 30 30H42C43.1046 30 44 30.8954 44 32V44C44 45.1046 43.1046 46 42 46C40.8954 46 40 45.1046 40 44V36.4902L37.3379 38.8867L37.333 38.8906C34.4565 41.4634 30.8971 43.149 27.084 43.7441C23.2711 44.3392 19.3674 43.8189 15.8438 42.2451C12.32 40.6712 9.32607 38.111 7.22461 34.874C5.12323 31.6371 4.00354 27.8611 4 24.002C3.99899 22.8974 4.89354 22.0011 5.99805 22ZM24 20C26.2091 20 28 21.7909 28 24C28 26.2091 26.2091 28 24 28C21.7909 28 20 26.2091 20 24C20 21.7909 21.7909 20 24 20ZM6 2C7.10457 2 8 2.89543 8 4V11.5088L10.6621 9.11328L10.667 9.10938C13.5435 6.53657 17.1029 4.85098 20.916 4.25586C24.729 3.66078 28.6326 4.18111 32.1562 5.75488C35.68 7.32883 38.6739 9.88899 40.7754 13.126C42.8768 16.3629 43.9965 20.1388 44 23.998C44.001 25.1026 43.1065 25.9989 42.002 26C40.8974 26.001 40.0011 25.1064 40 24.002C39.9972 20.9145 39.1011 17.8933 37.4199 15.3037C35.7388 12.7143 33.3443 10.6663 30.5254 9.40723C27.7064 8.14808 24.5827 7.7319 21.5322 8.20801C18.4838 8.68388 15.6373 10.0299 13.3369 12.0859L13.3379 12.0869L11.2119 14H18C19.1046 14 20 14.8954 20 16C20 17.1046 19.1046 18 18 18H6C4.89543 18 4 17.1046 4 16V4C4 2.89543 4.89543 2 6 2Z"/></svg>