<svg xmlns="http://www.w3.org/2000/svg" viewBox="0 0 48 48"><path fill="currentColor" d="M25.4,32.6l-.3-.2c-.1,0-.2-.1-.4-.2l-.4-.2c-.3,0-.7,0-1,0-.3,0-.6,.3-.8,.5-.2,.2-.3,.4-.4,.7-.2,.4-.2,.8-.1,1.2,0,.4,.3,.7,.5,1,.3,.3,.6,.5,1,.6,.4,0,.8,0,1.2-.1,.2-.1,.5-.3,.7-.4,.3-.3,.5-.6,.5-1,0-.4,0-.8-.1-1.2,0-.2-.2-.4-.4-.6Zm6.6-28.6h-16c-1.6,0-3.1,.6-4.2,1.8-1.1,1.1-1.8,2.7-1.8,4.2v28c0,1.6,.6,3.1,1.8,4.2,1.1,1.1,2.7,1.8,4.2,1.8h16c1.6,0,3.1-.6,4.2-1.8,1.1-1.1,1.8-2.7,1.8-4.2V10c0-1.6-.6-3.1-1.8-4.2-1.1-1.1-2.7-1.8-4.2-1.8Zm2,34c0,.5-.2,1-.6,1.4s-.9,.6-1.4,.6h-16c-.5,0-1-.2-1.4-.6-.4-.4-.6-.9-.6-1.4V10c0-.5,.2-1,.6-1.4,.4-.4,.9-.6,1.4-.6h16c.5,0,1,.2,1.4,.6,.4,.4,.6,.9,.6,1.4v28Z"/></svg>