<svg xmlns="http://www.w3.org/2000/svg" viewBox="0 0 48 48"><path fill="currentColor" d="M38.4,21.5h-6c-1.7-7.2-4.4-13.5-8.9-13.5s-7.3,6.3-9.1,13.5h-4.7c-1.3,0-2.3,1-2.3,2.2s1,2.3,2.2,2.3c0,0,0,0,0,0h3.7c-.8,4.3-1.4,8.5-1.7,11.4-.1,1.3,.8,2.4,2,2.5,1.3,.1,2.4-.8,2.5-2,.4-4,1-7.9,1.8-11.9h10.5c.7,3.9,1.3,7.8,1.6,11.8,.1,1.3,1.3,2.2,2.5,2.1,1.3,0,2.2-1.2,2.1-2.5h0c-.2-2.9-.7-7.1-1.4-11.4h5.1c1.3,0,2.3-1.1,2.2-2.3,0-1.2-1-2.2-2.2-2.2h0Zm-19.2,0c1.5-5.5,3.1-8.9,4.3-8.9s2.7,3.5,4.1,8.9h-8.4Z"/></svg>