<svg xmlns="http://www.w3.org/2000/svg" viewBox="0 0 48 48"><path fill="currentColor" d="M15,32c.8,0,1.56-.32,2.12-.88,.56-.56,.88-1.33,.88-2.12,0-.1,0-.2,0-.3l5.58-5.58h.92l3.22,3.22v.16c0,.8,.32,1.56,.88,2.12s1.33,.88,2.12,.88,1.56-.32,2.12-.88c.56-.56,.88-1.33,.88-2.12v-.16l7.28-7.34c.59,0,1.17-.18,1.67-.51,.49-.33,.88-.8,1.1-1.35,.23-.55,.29-1.15,.17-1.73-.12-.58-.4-1.12-.82-1.54-.42-.42-.95-.71-1.54-.82-.58-.12-1.19-.06-1.73,.17-.55,.23-1.02,.61-1.35,1.1-.33,.49-.51,1.07-.51,1.67,0,.1,0,.2,0,.3l-7.22,7.22h-.32l-3.46-3.52c0-.8-.32-1.56-.88-2.12-.56-.56-1.33-.88-2.12-.88s-1.56,.32-2.12,.88c-.56,.56-.88,1.33-.88,2.12l-6,6c-.8,0-1.56,.32-2.12,.88-.56,.56-.88,1.33-.88,2.12s.32,1.56,.88,2.12c.56,.56,1.33,.88,2.12,.88h0Zm27,8H8V6c0-.53-.21-1.04-.59-1.41-.38-.38-.88-.59-1.41-.59s-1.04,.21-1.41,.59c-.38,.38-.59,.88-.59,1.41V42c0,.53,.21,1.04,.59,1.41,.38,.37,.88,.59,1.41,.59H42c.53,0,1.04-.21,1.41-.59s.59-.88,.59-1.41-.21-1.04-.59-1.41-.88-.59-1.41-.59Z"/></svg>