<svg xmlns="http://www.w3.org/2000/svg" viewBox="0 0 48 48"><path fill="currentColor" d="M17.4172 13.09C16.6372 12.31 15.3672 12.31 14.5872 13.09L11.9972 15.68V10.51C11.9972 8.23 13.7172 6.51 15.9972 6.51H17.9972C19.0972 6.51 19.9972 5.61 19.9972 4.51C19.9972 3.41 19.0972 2.51 17.9972 2.51H15.9972C11.5072 2.51 7.99719 6.02 7.99719 10.51V15.68L5.40719 13.09C4.62719 12.31 3.35719 12.31 2.57719 13.09C1.79719 13.87 1.79719 15.14 2.57719 15.92L8.57719 21.92C8.57719 21.92 8.59719 21.94 8.60719 21.95C8.78719 22.13 8.99719 22.26 9.22719 22.35C9.46719 22.45 9.72719 22.5 9.99719 22.5C10.2672 22.5 10.5272 22.45 10.7672 22.35C10.9872 22.26 11.1972 22.12 11.3872 21.95C11.3972 21.94 11.4072 21.93 11.4172 21.92L17.4172 15.92C18.1972 15.14 18.1972 13.87 17.4172 13.09ZM20.8072 42.5H14.4072C13.3072 42.5 12.4072 43.4 12.4072 44.5C12.4072 45.6 13.3072 46.5 14.4072 46.5H20.8072C21.9072 46.5 22.8072 45.6 22.8072 44.5C22.8072 43.4 21.9072 42.5 20.8072 42.5ZM20.8072 26.5H14.4072C13.3072 26.5 12.4072 27.4 12.4072 28.5C12.4072 29.6 13.3072 30.5 14.4072 30.5H20.8072C21.9072 30.5 22.8072 29.6 22.8072 28.5C22.8072 27.4 21.9072 26.5 20.8072 26.5ZM8.00719 42.5H6.00719V40.5C6.00719 39.4 5.10719 38.5 4.00719 38.5C2.90719 38.5 2.00719 39.4 2.00719 40.5V44.5C2.00719 45.6 2.90719 46.5 4.00719 46.5H8.00719C9.10719 46.5 10.0072 45.6 10.0072 44.5C10.0072 43.4 9.10719 42.5 8.00719 42.5ZM8.00719 26.5H4.00719C2.90719 26.5 2.00719 27.4 2.00719 28.5V32.5C2.00719 33.6 2.90719 34.5 4.00719 34.5C5.10719 34.5 6.00719 33.6 6.00719 32.5V30.5H8.00719C9.10719 30.5 10.0072 29.6 10.0072 28.5C10.0072 27.4 9.10719 26.5 8.00719 26.5ZM40.0072 2.5H32.0072C28.6972 2.5 26.0072 5.19 26.0072 8.5V16.5C26.0072 19.81 28.6972 22.5 32.0072 22.5H40.0072C43.3172 22.5 46.0072 19.81 46.0072 16.5V8.5C46.0072 5.19 43.3172 2.5 40.0072 2.5ZM42.0072 16.5C42.0072 17.6 41.1072 18.5 40.0072 18.5H32.0072C30.9072 18.5 30.0072 17.6 30.0072 16.5V8.5C30.0072 7.4 30.9072 6.5 32.0072 6.5H40.0072C41.1072 6.5 42.0072 7.4 42.0072 8.5V16.5ZM44.0072 26.5H40.0072C38.9072 26.5 38.0072 27.4 38.0072 28.5C38.0072 29.6 38.9072 30.5 40.0072 30.5H42.0072V32.5C42.0072 33.6 42.9072 34.5 44.0072 34.5C45.1072 34.5 46.0072 33.6 46.0072 32.5V28.5C46.0072 27.4 45.1072 26.5 44.0072 26.5ZM33.6072 42.5H27.2072C26.1072 42.5 25.2072 43.4 25.2072 44.5C25.2072 45.6 26.1072 46.5 27.2072 46.5H33.6072C34.7072 46.5 35.6072 45.6 35.6072 44.5C35.6072 43.4 34.7072 42.5 33.6072 42.5ZM33.6072 26.5H27.2072C26.1072 26.5 25.2072 27.4 25.2072 28.5C25.2072 29.6 26.1072 30.5 27.2072 30.5H33.6072C34.7072 30.5 35.6072 29.6 35.6072 28.5C35.6072 27.4 34.7072 26.5 33.6072 26.5ZM44.0072 38.5C42.9072 38.5 42.0072 39.4 42.0072 40.5V42.5H40.0072C38.9072 42.5 38.0072 43.4 38.0072 44.5C38.0072 45.6 38.9072 46.5 40.0072 46.5H44.0072C45.1072 46.5 46.0072 45.6 46.0072 44.5V40.5C46.0072 39.4 45.1072 38.5 44.0072 38.5Z"/></svg>