<svg xmlns="http://www.w3.org/2000/svg" viewBox="0 0 48 48"><path fill="currentColor" d="M39,42.1l-1.3-2.4H7.9V6.3c0-.5-.2-1-.6-1.4-.4-.4-.9-.6-1.4-.6-1.1,0-2,.9-2,2V41.7c0,1.1,.9,2,2,2H40.6c-.7-.4-1.3-.9-1.6-1.6ZM13.4,27.9c1.4,0,2.6-1.1,2.6-2.5h0v-.2l4.3-4.4h.6l2.5,2.5c0,.7,.3,1.3,.7,1.8,.5,.5,1.1,.7,1.8,.7,.3,0,.7,0,1-.2,.8-2,2.2-3.6,4-4.7l3.5-3.5c.5,0,1-.2,1.4-.4,.4-.3,.7-.7,.9-1.2,.4-1,.2-2-.6-2.8-.7-.8-1.8-1-2.8-.6-.5,.2-.9,.5-1.2,.9-.3,.4-.4,.9-.4,1.4v.2l-5.7,5.7h-.1l-2.7-2.8c0-1.4-1.2-2.5-2.6-2.5-.7,0-1.4,.3-1.8,.9-.5,.5-.7,1.1-.8,1.7l-4.8,4.7c-.7,0-1.3,.3-1.7,.8-.5,.5-.8,1.1-.8,1.8,0,1.4,1.2,2.6,2.6,2.6h0Zm30.4,11.5l-2.6-4.6c3-2.8,3.2-7.5,.4-10.6-2.8-3-7.5-3.2-10.6-.4-3,2.8-3.2,7.5-.4,10.6,2,2.2,5.1,3,7.9,2l2.5,4.5c.2,.4,.6,.6,1,.8,.4,.1,.8,0,1.1-.1,.4-.2,.6-.5,.7-.9,.1-.4,0-.8-.1-1.2Zm-3.5-9.1c-.6,2.3-2.9,3.7-5.2,3.2-2.3-.6-3.7-2.9-3.2-5.2,.5-2,2.3-3.4,4.4-3.3h.8c.5,.3,1.1,.5,1.5,.8,.7,.5,1.2,1.2,1.5,2,.3,.8,.4,1.7,.2,2.5Z"/></svg>