<svg xmlns="http://www.w3.org/2000/svg" viewBox="0 0 48 48"><path fill="currentColor" d="M17.8,7.2s0,0,0,0h2.5c.5,0,1-.2,1.3-.6,.4-.4,.5-.9,.5-1.4,0-1-.8-1.8-1.9-1.9h-2.5c-1,0-1.9,.8-2,1.9,0,.5,.2,1,.5,1.4,.4,.4,.8,.6,1.3,.6Zm8,0s0,0,0,0c.5,0,.9,.4,1.1,.8,.3,.7,1,1.2,1.8,1.2s.5,0,.7-.1c1-.4,1.4-1.5,1-2.5-.8-1.9-2.6-3.1-4.7-3.2-1.1,0-1.9,.9-1.9,1.9,0,1,.8,1.9,1.8,1.9Zm3.2,4.4h0c-1.1,0-1.9,.9-1.9,1.9v.9c0,1.1,.9,1.9,1.9,1.9s1.9-.9,1.9-1.9v-.9c0-1.1-.9-1.9-1.9-1.9ZM9.4,7.3c.1,0,.2,0,.3,0h0c0,0,.2,0,.3,0h1.6c1.1,0,1.9-.9,1.9-1.9h0c0-1.1-.9-1.9-1.9-1.9h-1.6c-.3,0-.7,0-1,.1-.5,.1-.9,.4-1.2,.8s-.4,.9-.3,1.4c.2,.9,1,1.5,1.9,1.5Zm-4,6.7h0c1.1,0,1.9-.9,1.9-1.9v-2.2c0-.5-.2-1-.5-1.4-.4-.4-.8-.6-1.3-.6-.5,0-1,.2-1.4,.5-.4,.4-.6,.8-.6,1.4v2.2c0,1,.9,1.9,1.9,1.9Zm34.2,3.1s0,0,0,0h-10.9c-1.1,0-1.9,.9-1.9,1.9s.9,1.9,1.9,1.9h10.9c.7,0,1.3,.6,1.3,1.3v17.2c0,.7-.6,1.3-1.3,1.3H22.3c-.7,0-1.3-.6-1.3-1.3v-15.8l8.6,8.5c.4,.3,.9,.5,1.4,.5,.5,0,1-.2,1.3-.6,.7-.7,.7-1.9,0-2.6l-10.7-10.6c-.1-.2-.3-.3-.4-.4l-3.8-3.7h3.2c.5,0,1-.2,1.4-.5,.4-.4,.6-.8,.6-1.3,0-.5-.2-1-.5-1.4-.4-.4-.8-.6-1.4-.6h-7.8c-1,0-1.9,.9-1.9,1.9v7.6c0,.5,.2,1,.5,1.4,.4,.4,.8,.6,1.3,.6,.5,0,1-.2,1.4-.5,.4-.4,.6-.8,.6-1.4v-2.9l2.8,2.8c-.2,.6-.4,1.3-.4,1.9v4.9h-2.2c-1.1,0-1.9,.9-1.9,1.9,0,1.1,.9,1.9,1.9,1.9h2.2v8.6c0,2.8,2.3,5.1,5.1,5.1h17.2c2.8,0,5.1-2.3,5.1-5.1V22.2c0-2.8-2.3-5.1-5.1-5.1ZM8.7,27.1h-.2c-.5,0-.9-.3-1.2-.7-.2-.5-.6-.8-1.1-1-.5-.2-1-.1-1.5,0-.5,.2-.8,.6-1,1.1-.2,.5-.1,1,.1,1.5,.9,1.7,2.6,2.8,4.6,2.8h.2c1.1,0,1.9-.9,1.9-1.9,0-1.1-.9-1.9-1.9-1.9Zm-3.4-4.1h0c1.1,0,1.9-.9,1.9-1.9v-2.7c0-1.1-.8-1.9-1.9-2-.5,0-1,.2-1.4,.5-.4,.4-.6,.8-.6,1.4v2.7c0,1,.9,1.9,1.9,1.9Z"/></svg>