<svg xmlns="http://www.w3.org/2000/svg" viewBox="0 0 48 48"><path fill="currentColor" d="M43.84,13.24c-.2-.49-.59-.88-1.08-1.08-.24-.1-.5-.16-.76-.16h-10c-.53,0-1.04,.21-1.41,.59-.37,.37-.59,.88-.59,1.41s.21,1.04,.59,1.41c.37,.37,.88,.59,1.41,.59h5.18l-11.18,11.18-6.58-6.6c-.19-.19-.41-.34-.65-.44-.24-.1-.5-.15-.77-.15s-.53,.05-.77,.15c-.24,.1-.46,.25-.65,.44l-12,12c-.19,.19-.34,.41-.44,.65-.1,.24-.15,.51-.15,.77s.05,.53,.15,.77c.1,.24,.25,.46,.44,.65,.19,.19,.41,.34,.65,.44,.24,.1,.5,.15,.77,.15s.53-.05,.77-.15c.24-.1,.46-.25,.65-.44l10.58-10.6,6.58,6.6c.19,.19,.41,.34,.65,.44,.24,.1,.51,.15,.77,.15s.53-.05,.77-.15c.24-.1,.46-.25,.65-.44l12.58-12.6v5.18c0,.53,.21,1.04,.59,1.41s.88,.59,1.41,.59,1.04-.21,1.41-.59,.59-.88,.59-1.41V14c0-.26-.06-.52-.16-.76Z"/></svg>