<svg xmlns="http://www.w3.org/2000/svg" viewBox="0 0 48 48"><path fill="currentColor" d="M30.58,20.58l-5.56,5.56c-.33-.09-.68-.14-1.02-.14-1.06,0-2.08,.42-2.83,1.17s-1.17,1.77-1.17,2.83c0,.34,.05,.69,.14,1.02l-1.56,1.56c-.19,.19-.34,.41-.44,.65-.1,.24-.15,.51-.15,.77s.05,.53,.15,.77c.1,.24,.25,.46,.44,.65,.19,.19,.41,.34,.65,.44,.24,.1,.51,.15,.77,.15s.53-.05,.77-.15c.24-.1,.46-.25,.65-.44l1.56-1.56c.33,.09,.68,.14,1.02,.14,1.06,0,2.08-.42,2.83-1.17,.75-.75,1.17-1.77,1.17-2.83,0-.34-.05-.69-.14-1.02l5.56-5.56c.38-.38,.59-.89,.59-1.42s-.21-1.04-.59-1.42c-.38-.38-.89-.59-1.42-.59s-1.04,.21-1.42,.59h0Zm-6.58-12.58c-2.63,0-5.23,.52-7.65,1.52-2.43,1.01-4.63,2.48-6.49,4.34-3.75,3.75-5.86,8.84-5.86,14.14,0,3.96,1.17,7.83,3.38,11.12,.3,.44,.76,.74,1.28,.85,.52,.1,1.06,0,1.5-.31s.74-.76,.85-1.28c.1-.52,0-1.06-.31-1.5-1.61-2.41-2.54-5.21-2.68-8.1-.14-2.89,.5-5.77,1.87-8.33,1.37-2.56,3.4-4.69,5.89-6.18,2.49-1.49,5.33-2.28,8.23-2.28s5.74,.79,8.23,2.28c2.49,1.49,4.52,3.63,5.89,6.18,1.37,2.56,2.01,5.43,1.87,8.33-.14,2.89-1.07,5.7-2.68,8.1-.15,.22-.25,.46-.3,.72-.05,.26-.05,.52,0,.78,.05,.26,.15,.5,.3,.72,.15,.22,.33,.41,.55,.55,.33,.22,.72,.34,1.12,.34,.33,0,.65-.08,.94-.23,.29-.15,.54-.38,.72-.65,2.21-3.29,3.39-7.16,3.38-11.12,0-5.3-2.11-10.39-5.86-14.14-3.75-3.75-8.84-5.86-14.14-5.86h0Z"/></svg>