<svg xmlns="http://www.w3.org/2000/svg" viewBox="0 0 48 48"><path fill="currentColor" d="M38.17,9.91s-.02-.04-.03-.05c-.02-.02-.04-.02-.05-.03-3.74-3.73-8.8-5.82-14.08-5.82s-10.34,2.09-14.08,5.82c-.02,.01-.04,.02-.05,.03s-.02,.04-.03,.05c-2.79,2.8-4.68,6.36-5.44,10.24-.76,3.88-.36,7.89,1.15,11.54,1.52,3.65,4.08,6.76,7.36,8.96,3.29,2.19,7.15,3.36,11.1,3.36s7.81-1.17,11.1-3.36c3.29-2.19,5.85-5.31,7.36-8.96,1.52-3.65,1.92-7.66,1.15-11.54-.76-3.88-2.66-7.44-5.44-10.24h0Zm-14.17,30.08c-2.39,0-4.76-.54-6.92-1.58-2.16-1.04-4.05-2.55-5.55-4.42h8.03c.56,.63,1.24,1.13,2,1.48,.76,.34,1.59,.52,2.43,.52s1.67-.18,2.43-.52c.77-.34,1.45-.85,2-1.48h8.03c-1.49,1.87-3.39,3.38-5.55,4.42-2.16,1.04-4.52,1.58-6.92,1.58h0Zm-2-10c0-.4,.12-.78,.34-1.11,.22-.33,.53-.58,.9-.74,.37-.15,.77-.19,1.15-.11,.39,.08,.74,.27,1.02,.55s.47,.64,.55,1.02c.08,.39,.04,.79-.11,1.16-.15,.37-.41,.68-.74,.9-.33,.22-.72,.34-1.11,.34-.53,0-1.04-.21-1.41-.59-.37-.37-.59-.88-.59-1.41h0Zm16.81,0h-8.82c0-1.24-.39-2.45-1.11-3.45-.72-1.01-1.73-1.77-2.89-2.18v-6.37c0-.53-.21-1.04-.59-1.41-.38-.37-.88-.59-1.41-.59s-1.04,.21-1.41,.59c-.37,.37-.59,.88-.59,1.41v6.37c-1.17,.41-2.18,1.17-2.89,2.18-.72,1.01-1.1,2.21-1.11,3.45H9.19c-.52-1.28-.87-2.62-1.04-4h1.86c.53,0,1.04-.21,1.41-.59s.59-.88,.59-1.41-.21-1.04-.59-1.41-.88-.59-1.41-.59h-1.86c.36-2.84,1.48-5.53,3.24-7.79l1.31,1.31c.19,.19,.41,.33,.65,.43,.24,.1,.5,.15,.76,.15s.52-.05,.76-.15c.24-.1,.46-.25,.65-.43s.33-.41,.43-.65c.1-.24,.15-.5,.15-.76s-.05-.52-.15-.76c-.1-.24-.25-.46-.43-.65l-1.31-1.31c2.26-1.76,4.95-2.88,7.79-3.24v1.86c0,.53,.21,1.04,.59,1.41,.38,.37,.88,.59,1.41,.59s1.04-.21,1.41-.59c.37-.37,.59-.88,.59-1.41v-1.86c2.84,.36,5.53,1.48,7.79,3.24l-1.31,1.31c-.37,.37-.59,.88-.59,1.41s.21,1.04,.59,1.41c.37,.37,.88,.59,1.41,.59s1.04-.21,1.41-.59l1.31-1.31c1.76,2.26,2.88,4.95,3.24,7.79h-1.86c-.53,0-1.04,.21-1.41,.59-.37,.37-.59,.88-.59,1.41s.21,1.04,.59,1.41c.38,.37,.88,.59,1.41,.59h1.86c-.17,1.37-.52,2.72-1.04,4h0Z"/></svg>